G04 ================== begin FILE IDENTIFICATION RECORD ==================*
G04 Layout Name:  main_board.brd*
G04 Film Name:    03-SIG01*
G04 File Format:  Gerber RS274X*
G04 File Origin:  Cadence Allegro 17.4-S035*
G04 Origin Date:  Thu Oct 16 18:34:05 2025*
G04 *
G04 Layer:  VIA CLASS/SIG*
G04 Layer:  PIN/SIG*
G04 Layer:  ETCH/SIG*
G04 *
G04 Offset:    (0.000 0.000)*
G04 Mirror:    No*
G04 Mode:      Positive*
G04 Rotation:  0*
G04 FullContactRelief:  No*
G04 UndefLineWidth:     0.000*
G04 ================== end FILE IDENTIFICATION RECORD ====================*
%FSLAX25Y25*MOIN*%
%IR0*IPPOS*OFA0.00000B0.00000*MIA0B0*SFA1.00000B1.00000*%
%ADD12C,.15748*%
%ADD21C,.177165*%
%ADD11C,.19685*%
%ADD14C,.043307*%
%ADD19C,.021654*%
%ADD16C,.035433*%
%ADD13C,.01378*%
%ADD10C,.017717*%
%ADD17R,.043307X.043307*%
%ADD22C,.029528*%
%ADD15C,.062992*%
%ADD23O,.027559X.047244*%
%ADD18O,.047244X.098425*%
%ADD20O,.062992X.07874*%
%ADD24C,.006*%
%ADD25C,.01*%
%ADD26C,.012*%
%ADD27C,.024*%
%ADD29C,.207484*%
%ADD28C,.063312*%
%ADD31C,.045532*%
%ADD32C,.051438*%
%ADD34C,.047722*%
%ADD30C,.043784*%
%ADD33C,.037658*%
%ADD35C,.078996*%
G75*
%LPD*%
G75*
G36*
G01X-251968Y142701D02*
X251969D01*
G02X266717Y127953I0J-14748D01*
G01Y-72835D01*
G02X251969Y-87583I-14748J0D01*
G01X236221D01*
G03X219473Y-104331I0J-16748D01*
G01Y-135827D01*
G02X204725Y-150575I-14748J0D01*
G01X73917D01*
G02X73634Y-149892I0J400D01*
G01X74673Y-148853D01*
G03X75200Y-147580I-1273J1273D01*
G01Y-142753D01*
G02X75863Y-142451I400J0D01*
G03X77300Y-142989I1437J1651D01*
G03Y-138611I0J2189D01*
G03X75863Y-139149I0J-2189D01*
G02X75200Y-138847I-263J302D01*
G01Y-125668D01*
G02X75677Y-125275I400J0D01*
G03X76100Y-125316I423J2148D01*
G03Y-120938I0J2189D01*
G03X75677Y-120979I0J-2189D01*
G02X75200Y-120587I-77J392D01*
G01Y-117382D01*
G02X75631Y-116983I400J0D01*
G03X75800Y-116989I169J2183D01*
G03X77989Y-114834I0J2189D01*
G03X79689Y-112700I-489J2134D01*
G03X77500Y-110511I-2189J0D01*
G03X75894Y-111213I0J-2189D01*
G02X75200Y-110941I-294J272D01*
G01Y-73473D01*
G02X75930Y-73247I400J0D01*
G03X77900Y-74286I1970J1347D01*
G03X80286Y-71900I0J2386D01*
G03X77978Y-69515I-2386J0D01*
G02X77785Y-69322I7J200D01*
G03X75400Y-67014I-2385J-78D01*
G02X75200Y-66814I0J200D01*
G01Y-56930D01*
G02X75916Y-56685I400J0D01*
G03X77800Y-57607I1884J1464D01*
G03X79100Y-57221I0J2386D01*
G03X80400Y-57607I1300J2001D01*
G03X81770Y-57174I0J2386D01*
G02X82400Y-57501I230J-327D01*
G01Y-64200D01*
G03X82927Y-65473I1800J0D01*
G01X84127Y-66673D01*
G03X85400Y-67200I1273J1273D01*
G01X87681D01*
G02X88070Y-67693I0J-400D01*
G03X88057Y-67751I2129J-509D01*
G01X88045Y-67809D01*
X87327Y-68527D01*
G03X86800Y-69800I1273J-1273D01*
G01Y-113400D01*
G03X87327Y-114673I1800J0D01*
G01X87371Y-114717D01*
G02X87088Y-115400I-283J-283D01*
G01X83791D01*
X83753Y-115384D01*
G03X82900Y-115211I-853J-2016D01*
G03Y-119589I0J-2189D01*
G03X83753Y-119416I0J2189D01*
G01X83791Y-119400D01*
X197800D01*
G03X199214Y-118814I0J2000D01*
G01X201055Y-116974D01*
G02X201718Y-117131I283J-283D01*
G03X203105Y-113422I3007J990D01*
G02X202500Y-113078I-205J344D01*
G01Y-107600D01*
G03X201914Y-106186I-2000J0D01*
G01X195100Y-99372D01*
Y-54351D01*
X195116Y-54313D01*
G03X195289Y-53460I-2016J853D01*
G03X190911I-2189J0D01*
G03X191084Y-54313I2189J0D01*
G01X191100Y-54351D01*
Y-100200D01*
G03X191686Y-101614I2000J0D01*
G01X198500Y-108429D01*
Y-113871D01*
X197881Y-114490D01*
G02X197203Y-114268I-283J283D01*
G03X195489Y-112457I-2164J-332D01*
G01X195431Y-112445D01*
X190412Y-107427D01*
G03X189139Y-106900I-1273J-1273D01*
G01X177546D01*
X177400Y-106754D01*
Y-70346D01*
G03X177789Y-69100I-1800J1246D01*
G03X175600Y-66911I-2189J0D01*
G03X175357Y-66924I0J-2189D01*
G03X173200Y-65111I-2157J-376D01*
G03X171011Y-67300I0J-2189D01*
G03X171400Y-68546I2189J0D01*
G01Y-73106D01*
G02X170814Y-73460I-400J0D01*
G03X169800Y-73211I-1014J-1940D01*
G03Y-77589I0J-2189D01*
G03X170814Y-77340I0J2189D01*
G02X171400Y-77694I185J-354D01*
G01Y-110200D01*
G03X171927Y-111473I1800J0D01*
G01X172571Y-112117D01*
G02X172288Y-112800I-283J-283D01*
G01X93772D01*
G02X93374Y-112354I0J400D01*
G03X93389Y-112100I-2175J253D01*
G03X91200Y-109911I-2189J0D01*
G03X90862Y-109937I0J-2189D01*
G02X90400Y-109542I-62J395D01*
G01Y-108885D01*
G02X90862Y-108490I400J0D01*
G03X91200Y-108516I338J2163D01*
G03Y-104138I0J2189D01*
G03X90862Y-104164I0J-2189D01*
G02X90400Y-103769I-62J395D01*
G01Y-73587D01*
G02X90592Y-73387I200J0D01*
G03X91746Y-73000I-92J2187D01*
G01X105894D01*
G03X106839Y-72732I0J1800D01*
G02X107377Y-72844I210J-340D01*
G03X107539Y-73049I1796J1252D01*
G02X107541Y-73313I-149J-133D01*
G03X107011Y-74742I1659J-1429D01*
G03X109200Y-76931I2189J0D01*
G03X109294Y-76929I1J2189D01*
G02X109503Y-77120I9J-200D01*
G03X112200Y-79700I2697J120D01*
G03X114900Y-77000I0J2700D01*
G01Y-65518D01*
X119909Y-60509D01*
G03X120700Y-58600I-1909J1909D01*
G01Y-55400D01*
G02X121244Y-55027I400J0D01*
G03X122100Y-55186I856J2227D01*
G03X124486Y-52800I0J2386D01*
G03X124132Y-51550I-2386J0D01*
G03Y-49050I-2033J1250D01*
G03X124486Y-47800I-2033J1250D01*
G03X122100Y-45414I-2386J0D01*
G03X120942Y-45714I0J-2386D01*
G02X120393Y-45549I-194J350D01*
G03X119909Y-44891I-2393J-1251D01*
G01X117502Y-42483D01*
G02X117784Y-41800I283J283D01*
G01X173254D01*
X181427Y-49973D01*
G03X182700Y-50500I1273J1273D01*
G01X251400D01*
G03X252673Y-49973I0J1800D01*
G01X253873Y-48773D01*
G03X254400Y-47500I-1273J1273D01*
G01Y37182D01*
X254546Y37327D01*
X259554D01*
G03X260800Y36938I1246J1800D01*
G03Y41316I0J2189D01*
G03X259554Y40927I0J-2189D01*
G01X253800D01*
G03X252527Y40400I0J-1800D01*
G01X251327Y39200D01*
G03X250800Y37927I1273J-1273D01*
G01Y-19978D01*
G02X250384Y-20377I-400J0D01*
G03X250300Y-20376I-84J-2188D01*
G03X249054Y-20765I0J-2189D01*
G01X230246D01*
G03X229000Y-20376I-1246J-1800D01*
G03Y-24754I0J-2189D01*
G03X230246Y-24365I0J2189D01*
G01X235648D01*
G02X235944Y-25034I0J-400D01*
G03X235326Y-26637I1767J-1603D01*
G03X240098I2386J0D01*
G03X239479Y-25034I-2386J0D01*
G02X239775Y-24365I296J269D01*
G01X249054D01*
G03X250300Y-24754I1246J1800D01*
G03X250384Y-24753I1J2189D01*
G02X250800Y-25152I15J-400D01*
G01Y-46754D01*
X250654Y-46900D01*
X183446D01*
X175273Y-38727D01*
G03X174000Y-38200I-1273J-1273D01*
G01X142582D01*
G02X142183Y-37769I0J400D01*
G03X142189Y-37600I-2183J169D01*
G03X140315Y-35434I-2189J0D01*
G02X140006Y-34877I57J396D01*
G03X140189Y-34000I-2006J877D01*
G03X139849Y-32828I-2189J0D01*
G02X140187Y-32214I338J214D01*
G01X180368D01*
X187888Y-39734D01*
G02X187521Y-40408I-283J-283D01*
G03X186897Y-40342I-625J-2899D01*
G03X189862Y-43307I0J-2966D01*
G03X189796Y-42683I-2966J0D01*
G02X190470Y-42316I391J84D01*
G01X191127Y-42973D01*
G03X192400Y-43500I1273J1273D01*
G01X202080D01*
G03X203353Y-42973I0J1800D01*
G01X214298Y-32028D01*
X218889D01*
G03X220876Y-33297I1986J920D01*
G03X223065Y-31108I0J2189D01*
G03X222518Y-29660I-2189J0D01*
G02Y-29395I150J132D01*
G03X223065Y-27948I-1642J1448D01*
G03X220876Y-25758I-2189J0D01*
G03X218889Y-27027I0J-2189D01*
G01X212972D01*
G03X211699Y-27555I0J-1800D01*
G01X201783Y-37471D01*
G02X201102Y-37161I-283J283D01*
G03X201106Y-37013I-2184J148D01*
G03X200559Y-35565I-2189J0D01*
G02Y-35301I150J132D01*
G03X201106Y-33853I-1642J1448D01*
G03X198917Y-31664I-2189J0D01*
G03X197266Y-32415I0J-2189D01*
G02X196682Y-32436I-302J263D01*
G01X186773Y-22527D01*
G03X185500Y-22000I-1273J-1273D01*
G01X175157D01*
G02X174761Y-21542I0J400D01*
G03X174786Y-21200I-2361J342D01*
G03X174780Y-21029I-2386J1D01*
G02X175179Y-20600I399J29D01*
G01X196547D01*
G02X196913Y-21161I0J-400D01*
G03X196728Y-22042I2004J-881D01*
G03X197275Y-23490I2189J0D01*
G02Y-23754I-150J-132D01*
G03X196728Y-25202I1642J-1448D01*
G03X198917Y-27391I2189J0D01*
G03X200904Y-26122I0J2189D01*
G01X202180D01*
G03X203453Y-25595I0J1800D01*
G01X205473Y-23575D01*
G03X206000Y-22302I-1273J1273D01*
G01Y-19420D01*
G03X205473Y-18147I-1800J0D01*
G01X203453Y-16127D01*
G03X202180Y-15600I-1273J-1273D01*
G01X200770D01*
G02X200484Y-14920I0J400D01*
G03X201106Y-13391I-1567J1529D01*
G03X200559Y-11943I-2189J0D01*
G02Y-11679I150J132D01*
G03X201106Y-10231I-1642J1448D01*
G03X200745Y-9026I-2189J0D01*
G02X201079Y-8406I334J220D01*
G01X218889D01*
G03X220876Y-9675I1986J920D01*
G03X222164Y-9255I0J2189D01*
G02X222800Y-9579I235J-323D01*
G01Y-14161D01*
G02X222164Y-14484I-400J0D01*
G03X220876Y-14065I-1289J-1769D01*
G03X218686Y-16254I0J-2189D01*
G03X219233Y-17702I2189J0D01*
G02Y-17966I-150J-132D01*
G03X218686Y-19414I1642J-1448D01*
G03X220876Y-21603I2189J0D01*
G03X222862Y-20334I0J2189D01*
G01X223980D01*
G03X225253Y-19807I0J1800D01*
G01X227273Y-17787D01*
G03X227800Y-16514I-1273J1273D01*
G01Y-1720D01*
G03X227273Y-447I-1800J0D01*
G01X225253Y1573D01*
G03X223980Y2100I-1273J-1273D01*
G01X222712D01*
G02X222428Y2782I0J400D01*
G03X223065Y4326I-1553J1543D01*
G03X222518Y5773I-2189J0D01*
G02Y6038I150J132D01*
G03X223065Y7486I-1642J1448D01*
G03X220876Y9675I-2189J0D01*
G03X218889Y8406I0J-2189D01*
G01X218340D01*
X212573Y14173D01*
G03X211300Y14700I-1273J-1273D01*
G01X145812D01*
G02X145412Y15114I0J400D01*
G03X145413Y15197I-2385J82D01*
G03X145089Y16398I-2386J0D01*
G02X145434Y17000I346J201D01*
G01X229180D01*
G03X230453Y17527I0J1800D01*
G01X232473Y19547D01*
G03X233000Y20820I-1273J1273D01*
G01Y67274D01*
G03X232473Y68546I-1800J0D01*
G01X230453Y70567D01*
G03X229180Y71094I-1273J-1273D01*
G01X222886D01*
G03X220900Y72363I-1986J-920D01*
G03X218711Y70174I0J-2189D01*
G03X219258Y68726I2189J0D01*
G02Y68462I-150J-132D01*
G03X218711Y67014I1642J-1448D01*
G03X220900Y64825I2189J0D01*
G03X222886Y66094I0J2189D01*
G01X227854D01*
X228000Y65948D01*
Y53731D01*
G02X227317Y53448I-400J0D01*
G01X225553Y55212D01*
G03X224280Y55740I-1273J-1273D01*
G01X222886D01*
G03X220900Y57009I-1986J-920D01*
G03X218711Y54820I0J-2189D01*
G03X219258Y53372I2189J0D01*
G02Y53107I-150J-132D01*
G03X218711Y51660I1642J-1448D01*
G03X220900Y49470I2189J0D01*
G03X222422Y50086I0J2189D01*
G02X223100Y49798I278J-288D01*
G01Y37621D01*
G02X222614Y37230I-400J0D01*
G03X222100Y37286I-514J-2330D01*
G03X220850Y36932I0J-2386D01*
G03X218350I-1250J-2033D01*
G03X217100Y37286I-1250J-2033D01*
G03Y32514I0J-2386D01*
G03X218350Y32868I0J2386D01*
G03X220850I1250J2033D01*
G03X222100Y32514I1250J2033D01*
G03X222614Y32570I0J2386D01*
G02X223100Y32179I86J-391D01*
G01Y27246D01*
X222954Y27100D01*
X175697D01*
G02X175310Y27601I0J400D01*
G03X175386Y28200I-2310J599D01*
G03X175032Y29450I-2386J0D01*
G03X175386Y30700I-2033J1250D01*
G03X170614I-2386J0D01*
G03X170968Y29450I2386J0D01*
G03X170614Y28200I2033J-1250D01*
G03X170690Y27601I2386J0D01*
G02X170303Y27100I-387J-100D01*
G01X136546D01*
X136400Y27246D01*
Y58380D01*
G03X135873Y59653I-1800J0D01*
G01X132953Y62573D01*
G03X131680Y63100I-1273J-1273D01*
G01X123688D01*
G02X123307Y63623I0J400D01*
G03X123422Y64354I-2271J731D01*
G03X118650I-2386J0D01*
G03X118765Y63623I2386J0D01*
G02X118384Y63100I-381J-123D01*
G01X109888D01*
G02X109519Y63655I0J400D01*
G03X109689Y64500I-2019J845D01*
G03X107500Y66689I-2189J0D01*
G03X106500Y66448I0J-2189D01*
G03X105500Y66689I-1000J-1948D01*
G03X104500Y66448I0J-2189D01*
G03X103500Y66689I-1000J-1948D01*
G03X102308Y66336I0J-2189D01*
G02X101752Y66458I-218J335D01*
G03X101739Y66478I-1852J-1167D01*
G02X101781Y66742I168J108D01*
G03X102589Y68440I-1381J1699D01*
G03X102493Y69082I-2189J0D01*
G02X102875Y69600I382J117D01*
G01X123838D01*
Y69400D01*
G03X128216I2189J0D01*
G01Y69600D01*
X136454D01*
X137200Y68854D01*
Y53946D01*
G03X136811Y52700I1800J-1246D01*
G03X141189I2189J0D01*
G03X140800Y53946I-2189J0D01*
G01Y69600D01*
G03X140273Y70873I-1800J0D01*
G01X138473Y72673D01*
G03X137200Y73200I-1273J-1273D01*
G01X124278D01*
G02X123942Y73816I0J400D01*
G03X124289Y75000I-1842J1184D01*
G03X124288Y75084I-2189J1D01*
G02X124687Y75500I400J15D01*
G01X258254D01*
X259000Y74754D01*
Y60943D01*
G03X258611Y59697I1800J-1246D01*
G03X262989I2189J0D01*
G03X262600Y60943I-2189J0D01*
G01Y75500D01*
G03X262073Y76773I-1800J0D01*
G01X260273Y78573D01*
G03X259000Y79100I-1273J-1273D01*
G01X114989D01*
G02X114589Y79495I0J400D01*
G03X113375Y81424I-2189J-31D01*
G02Y82140I178J358D01*
G03X113691Y82332I-975J1960D01*
G02X114325Y82054I236J-323D01*
G03X116500Y80111I2175J246D01*
G03X118689Y82300I0J2189D01*
G03X118411Y83368I-2189J0D01*
G02X118760Y83963I349J195D01*
G01X127574D01*
G02X127852Y83275I0J-400D01*
G03X127184Y81700I1520J-1575D01*
G03X131562I2189J0D01*
G03X130893Y83275I-2189J0D01*
G02X131171Y83963I278J288D01*
G01X131253D01*
X131303Y83930D01*
G03X132500Y83574I1197J1833D01*
G03X134689Y85763I0J2189D01*
G03X134636Y86242I-2189J0D01*
G03X136189Y88336I-636J2095D01*
G03X134000Y90525I-2189J0D01*
G03X132754Y90136I0J-2189D01*
G01X131633D01*
G02X131284Y90732I0J400D01*
G03X131562Y91800I-1911J1068D01*
G03X129902Y93924I-2189J0D01*
G02X129661Y94526I97J388D01*
G03X130029Y95800I-2018J1274D01*
G03X130028Y95886I-2386J1D01*
G02X130428Y96300I400J14D01*
G01X168954D01*
G02X169353Y95886I0J-400D01*
G03X169352Y95800I2385J-85D01*
G03X174124I2386J0D01*
G03X174122Y95886I-2386J1D01*
G02X174522Y96300I400J14D01*
G01X182827D01*
X182973Y96154D01*
Y87573D01*
G03X182584Y86327I1800J-1246D01*
G03X186962I2189J0D01*
G03X186573Y87573I-2189J0D01*
G01Y96900D01*
G03X186046Y98173I-1800J0D01*
G01X184846Y99373D01*
G03X183573Y99900I-1273J-1273D01*
G01X114597D01*
X114582Y100083D01*
G03X110218I-2181J-183D01*
G01X110203Y99900D01*
X90493D01*
G02X90108Y100408I0J400D01*
G03X90140Y100538I-2108J592D01*
G02X90603Y100847I391J-84D01*
G03X91000Y100811I396J2153D01*
G03X93189Y103000I0J2189D01*
G03X91688Y105078I-2189J0D01*
G03X89500Y107189I-2188J-78D01*
G03X87311Y105000I0J-2189D01*
G03X87707Y103743I2189J0D01*
G02X87476Y103126I-328J-230D01*
G03X85811Y101000I524J-2126D01*
G03X85892Y100408I2189J0D01*
G02X85507Y99900I-385J-108D01*
G01X65900D01*
G03X64627Y99373I0J-1800D01*
G01X55827Y90573D01*
G03X55300Y89300I1273J-1273D01*
G01Y86212D01*
G02X54617Y85929I-400J0D01*
G01X52214Y88332D01*
G02X52232Y88914I283J283D01*
G03X53036Y90700I-1582J1786D01*
G03X50650Y93086I-2386J0D01*
G03X48864Y92282I0J-2386D01*
G02X48281Y92265I-299J265D01*
G01X45273Y95273D01*
G03X44000Y95800I-1273J-1273D01*
G01X2930D01*
X2784Y95946D01*
Y101754D01*
G03X3173Y103000I-1800J1246D01*
G03X-1205I-2189J0D01*
G03X-816Y101754I2189J0D01*
G01Y95200D01*
G03X-289Y93927I1800J0D01*
G01X355Y93283D01*
G02X72Y92600I-283J-283D01*
G01X-20788D01*
G03Y87200I0J-2700D01*
G01X14672D01*
X16681Y85191D01*
G03X18590Y84400I1909J1909D01*
G01X40382D01*
X48400Y76382D01*
Y28800D01*
G03X49191Y26891I2700J0D01*
G01X52600Y23482D01*
Y-11600D01*
G03X53391Y-13509I2700J0D01*
G01X58618Y-18737D01*
G02X58335Y-19420I-283J-283D01*
G01X-32014D01*
G03X-34000Y-18151I-1986J-920D01*
G03X-34355Y-18180I0J-2189D01*
G02X-34818Y-17818I-65J395D01*
G03X-35358Y-16552I-2182J-182D01*
G02Y-16288I150J132D01*
G03X-34818Y-15022I-1642J1448D01*
G02X-34355Y-14660I399J-33D01*
G03X-34000Y-14689I355J2160D01*
G03X-31811Y-12500I0J2189D01*
G03X-32358Y-11052I-2189J0D01*
G02Y-10788I150J132D01*
G03X-31811Y-9340I-1642J1448D01*
G03X-34000Y-7151I-2189J0D01*
G03X-34355Y-7180I0J-2189D01*
G02X-34818Y-6818I-65J395D01*
G03X-35358Y-5552I-2182J-182D01*
G02Y-5288I150J132D01*
G03X-34811Y-3840I-1642J1448D01*
G03X-37000Y-1651I-2189J0D01*
G03X-38986Y-2920I0J-2189D01*
G01X-50856D01*
G03X-52129Y-3447I0J-1800D01*
G01X-54295Y-5613D01*
G03X-54823Y-6886I1273J-1273D01*
G01Y-42380D01*
G03X-54295Y-43653I1800J0D01*
G01X-52275Y-45673D01*
G03X-51002Y-46200I1273J1273D01*
G01X-9384D01*
G02X-8985Y-46614I0J-400D01*
G03X-8986Y-46700I2385J-85D01*
G03X-8601Y-48000I2386J0D01*
G03X-8986Y-49300I2001J-1300D01*
G03X-8972Y-49557I2386J0D01*
G02X-9370Y-50000I-398J-43D01*
G01X-59954D01*
X-60100Y-49854D01*
Y-8420D01*
G03X-60627Y-7147I-1800J0D01*
G01X-62647Y-5127D01*
G03X-63920Y-4600I-1273J-1273D01*
G01X-102880D01*
G03X-104153Y-5127I0J-1800D01*
G01X-106173Y-7147D01*
G03X-106700Y-8420I1273J-1273D01*
G01Y-20915D01*
X-106846Y-21060D01*
X-108514D01*
G03X-110500Y-19791I-1987J-920D01*
G03X-112689Y-21980I0J-2189D01*
G03X-112142Y-23428I2189J0D01*
G02Y-23693I-150J-132D01*
G03X-112689Y-25141I1642J-1448D01*
G03X-110500Y-27330I2189J0D01*
G03X-108514Y-26061I0J2189D01*
G01X-105520D01*
G03X-104247Y-25534I0J1800D01*
G01X-102227Y-23513D01*
G03X-101700Y-22241I-1273J1273D01*
G01Y-9746D01*
X-101554Y-9600D01*
X-65246D01*
X-65100Y-9746D01*
Y-51180D01*
G03X-64573Y-52453I1800J0D01*
G01X-62553Y-54473D01*
G03X-62315Y-54673I1273J1273D01*
G02X-62545Y-55400I-230J-327D01*
G01X-66154D01*
X-66300Y-55254D01*
Y-15432D01*
G03X-66827Y-14159I-1800J0D01*
G01X-68847Y-12139D01*
G03X-70120Y-11612I-1273J-1273D01*
G01X-89953D01*
G03X-91939Y-10343I-1987J-920D01*
G03X-94129Y-12532I0J-2189D01*
G03X-93582Y-13980I2189J0D01*
G02Y-14244I-150J-132D01*
G03X-94129Y-15692I1642J-1448D01*
G03X-91939Y-17881I2189J0D01*
G03X-89953Y-16612I0J2189D01*
G01X-71446D01*
X-71300Y-16758D01*
Y-51612D01*
G02X-71497Y-51812I-200J0D01*
G03X-72001Y-51880I37J-2189D01*
G02X-72500Y-51492I-99J388D01*
G01Y-22420D01*
G03X-73027Y-21147I-1800J0D01*
G01X-75047Y-19127D01*
G03X-76320Y-18600I-1273J-1273D01*
G01X-97480D01*
G03X-98753Y-19127I0J-1800D01*
G01X-100773Y-21147D01*
G03X-101300Y-22420I1273J-1273D01*
G01Y-28789D01*
X-101446Y-28934D01*
X-101814D01*
G03X-103800Y-27665I-1986J-920D01*
G03X-105989Y-29855I0J-2189D01*
G03X-105442Y-31302I2189J0D01*
G02Y-31567I-150J-132D01*
G03X-105989Y-33015I1642J-1448D01*
G03X-104706Y-35008I2189J0D01*
G02Y-35736I-166J-364D01*
G03X-105786Y-36808I906J-1993D01*
G01X-106108D01*
G03X-107381Y-37336I0J-1800D01*
G01X-108802Y-38756D01*
G03X-109329Y-40029I1273J-1273D01*
G01Y-44180D01*
G03X-108802Y-45453I1800J0D01*
G01X-106781Y-47473D01*
G03X-105508Y-48000I1273J1273D01*
G01X-94646D01*
X-94500Y-48146D01*
Y-78280D01*
G03X-93973Y-79553I1800J0D01*
G01X-91853Y-81673D01*
G03X-90580Y-82200I1273J1273D01*
G01X-54047D01*
G02X-53775Y-82894I0J-400D01*
G03X-54477Y-84500I1487J-1606D01*
G03X-52287Y-86689I2189J0D01*
G03X-51042Y-86300I0J2189D01*
G01X-48746D01*
X-44073Y-90973D01*
G03X-42800Y-91500I1273J1273D01*
G01X-37403D01*
G02X-37032Y-92049I0J-400D01*
G03X-37189Y-92863I2032J-814D01*
G03X-37111Y-93443I2189J0D01*
G02X-37374Y-93930I-386J-106D01*
G03X-38801Y-95398I674J-2083D01*
G03X-40989Y-97588I1J-2189D01*
G03X-40659Y-98744I2189J0D01*
G03X-40989Y-99900I1859J-1156D01*
G03X-40663Y-101050I2189J0D01*
G03X-40989Y-102200I1863J-1150D01*
G03X-36611I2189J0D01*
G03X-36937Y-101050I-2189J0D01*
G03X-36611Y-99900I-1863J1150D01*
G03X-36941Y-98744I-2189J0D01*
G03X-36699Y-98202I-1859J1156D01*
G03X-34628Y-96718I-1J2189D01*
G02X-34102Y-96475I379J-129D01*
G03X-33300Y-96627I802J2037D01*
G03X-31127Y-94701I0J2189D01*
G02X-30555Y-94390I397J-48D01*
G03X-29600Y-94609I955J1970D01*
G03X-27411Y-92420I0J2189D01*
G03X-27455Y-91980I-2189J0D01*
G02X-27064Y-91500I392J80D01*
G01X-24969D01*
G02X-24569Y-91900I0J-400D01*
G03X-23300Y-93886I2189J0D01*
G01Y-95548D01*
G02X-23716Y-95948I-400J0D01*
G03X-23800Y-95946I-84J-2188D01*
G03Y-100325I0J-2189D01*
G03X-23716Y-100323I1J2189D01*
G02X-23300Y-100723I15J-400D01*
G01Y-101780D01*
G03X-22773Y-103053I1800J0D01*
G01X-20753Y-105073D01*
G03X-19480Y-105600I1273J1273D01*
G01X-13888D01*
G02X-13519Y-106155I0J-400D01*
G03X-13689Y-107000I2019J-845D01*
G03X-13300Y-108246I2189J0D01*
G01Y-115154D01*
X-13446Y-115300D01*
X-34000D01*
G03X-35273Y-115827I0J-1800D01*
G01X-36473Y-117027D01*
G03X-37000Y-118300I1273J-1273D01*
G01Y-135659D01*
G02X-37528Y-136038I-400J0D01*
G03X-38287Y-135914I-760J-2262D01*
G03X-40559Y-137570I0J-2386D01*
G01X-40574Y-137616D01*
X-41357Y-138400D01*
X-45124D01*
G02X-45486Y-137830I0J400D01*
G03X-45279Y-136900I-1982J930D01*
G03X-45668Y-135654I-2189J0D01*
G01Y-109072D01*
X-45512Y-109037D01*
G03X-43799Y-106900I-477J2137D01*
G03X-45501Y-104766I-2189J0D01*
G03X-47563Y-103311I-2062J-734D01*
G03X-49242Y-104096I0J-2189D01*
G02X-49832Y-104122I-307J257D01*
G01X-52927Y-101027D01*
G03X-54200Y-100500I-1273J-1273D01*
G01X-59000D01*
G03X-60273Y-101027I0J-1800D01*
G01X-61740Y-102495D01*
X-68282D01*
G03X-69420Y-102108I-1246J-1800D01*
G02X-69800Y-101709I20J400D01*
G01Y-101165D01*
G02X-69420Y-100766I400J0D01*
G03Y-96392I-108J2187D01*
G02X-69800Y-95993I20J400D01*
G01Y-91600D01*
G03X-70327Y-90327I-1800J0D01*
G01X-74095Y-86559D01*
X-74107Y-86501D01*
G03X-76250Y-84761I-2143J-449D01*
G03X-77874Y-85482I0J-2189D01*
G02X-78154Y-85498I-148J134D01*
G03X-79593Y-84958I-1440J-1649D01*
G03X-81744Y-86737I0J-2189D01*
G01X-81775Y-86900D01*
X-86056D01*
X-86845Y-86110D01*
X-86857Y-86052D01*
G03X-89000Y-84312I-2143J-449D01*
G03X-91183Y-86337I0J-2189D01*
G02X-91865Y-86589I-399J30D01*
G01X-95787Y-82667D01*
G03X-97060Y-82140I-1273J-1273D01*
G01X-110674D01*
G03X-111920Y-81751I-1246J-1800D01*
G03Y-86129I0J-2189D01*
G03X-110674Y-85740I0J2189D01*
G01X-97806D01*
X-90773Y-92773D01*
G03X-89500Y-93300I1273J1273D01*
G01X-80646D01*
X-78300Y-95646D01*
Y-101709D01*
G02X-78500Y-101909I-200J0D01*
G03X-79590Y-102172I0J-2386D01*
G01X-79634Y-102195D01*
X-80419D01*
G02X-80808Y-101703I0J400D01*
G03X-80750Y-101200I-2131J503D01*
G03X-85128I-2189J0D01*
G03X-83382Y-103344I2189J0D01*
G02X-83180Y-104018I-81J-392D01*
G01X-83785Y-104624D01*
G03X-84400Y-106109I1485J-1485D01*
G01Y-117000D01*
G03X-83785Y-118485I2100J0D01*
G01X-78400Y-123870D01*
Y-138100D01*
G03X-77785Y-139585I2100J0D01*
G01X-75385Y-141985D01*
G03X-73900Y-142600I1485J1485D01*
G01X-40487D01*
G03X-39002Y-141985I0J2100D01*
G01X-37633Y-140616D01*
G02X-37000Y-140941I233J-325D01*
G01Y-143054D01*
X-37146Y-143200D01*
X-101391D01*
G02X-101719Y-142571I0J400D01*
G03X-100878Y-139900I-3825J2671D01*
G03X-105544Y-135234I-4666J0D01*
G03X-107494Y-135661I0J-4666D01*
G03X-108891Y-135234I-1397J-2073D01*
G01X-113221D01*
G03X-115721Y-137735I0J-2500D01*
G01Y-142065D01*
G03X-115640Y-142698I2500J0D01*
G02X-116027Y-143200I-387J-101D01*
G01X-120254D01*
X-120600Y-142854D01*
Y-126500D01*
G03X-121127Y-125227I-1800J0D01*
G01X-122327Y-124027D01*
G03X-123600Y-123500I-1273J-1273D01*
G01X-160054D01*
X-160200Y-123354D01*
Y-66000D01*
G03X-160727Y-64727I-1800J0D01*
G01X-161927Y-63527D01*
G03X-163200Y-63000I-1273J-1273D01*
G01X-257000D01*
Y40500D01*
X-220300D01*
G03X-219027Y41027I0J1800D01*
G01X-217827Y42227D01*
G03X-217300Y43500I-1273J1273D01*
G01Y78554D01*
X-217154Y78700D01*
X-100400D01*
G03X-99127Y79227I0J1800D01*
G01X-95968Y82386D01*
X-89946D01*
G03X-89746Y82263I1246J1800D01*
G02X-89808Y81533I-191J-351D01*
G03X-91212Y80037I708J-2072D01*
G03X-92989Y77887I412J-2150D01*
G03X-92837Y77084I2189J0D01*
G02X-93209Y76537I-372J-147D01*
G01X-133354D01*
G03X-134600Y76926I-1246J-1800D01*
G03X-136754Y75127I0J-2189D01*
G01X-136784Y74962D01*
X-141254D01*
G03X-142500Y75351I-1246J-1800D01*
G03X-144689Y73162I0J-2189D01*
G03X-144627Y72645I2189J0D01*
G02X-144936Y72158I-389J-95D01*
G03X-146602Y70625I436J-2145D01*
G03X-148689Y68438I102J-2187D01*
G03X-146500Y66249I2189J0D01*
G03X-145254Y66638I0J2189D01*
G01X-140909D01*
G02X-140537Y66091I0J-400D01*
G03X-140689Y65288I2037J-803D01*
G03X-138500Y63099I2189J0D01*
G03X-137254Y63488I0J2189D01*
G01X-110590D01*
X-110589Y63289D01*
G03X-106211I2189J11D01*
G01X-106210Y63488D01*
X-105790D01*
X-105789Y63289D01*
G03X-105080Y61686I2189J11D01*
G03X-105389Y60564I1880J-1123D01*
G03X-104846Y59121I2189J0D01*
G02Y58857I-150J-132D01*
G03Y55971I1646J-1443D01*
G02Y55708I-150J-132D01*
G03Y52822I1646J-1443D01*
G02Y52558I-150J-132D01*
G03Y49672I1646J-1443D01*
G02Y49408I-150J-132D01*
G03Y46522I1646J-1443D01*
G02Y46259I-150J-132D01*
G03X-105389Y44816I1646J-1443D01*
G03X-103200Y42627I2189J0D01*
G03X-103004Y42635I0J2189D01*
G03X-100900Y41052I2104J606D01*
G03X-98711Y43241I0J2189D01*
G03X-99254Y44684I-2189J0D01*
G02Y44948I150J132D01*
G03X-98711Y46391I-1646J1443D01*
G03X-98863Y47193I-2189J0D01*
G02X-98491Y47740I372J147D01*
G01X-76686D01*
G02X-76300Y47234I0J-400D01*
G03X-76386Y46600I2300J-634D01*
G03X-74000Y44214I2386J0D01*
G03X-72750Y44568I0J2386D01*
G03X-70250I1250J2033D01*
G03X-69000Y44214I1250J2033D01*
G03Y48986I0J2386D01*
G03X-69852Y48829I0J-2386D01*
G01X-69973Y48783D01*
X-70206Y49016D01*
X-69754Y49467D01*
G03X-69227Y50740I-1273J1273D01*
G01Y87947D01*
G02X-68766Y88342I400J0D01*
G03X-68400Y88314I366J2358D01*
G03Y93086I0J2386D01*
G03X-68766Y93058I0J-2386D01*
G02X-69227Y93453I-61J395D01*
G01Y99027D01*
X-54554Y113700D01*
X-10104D01*
G03X-8858Y113311I1246J1800D01*
G03X-6718Y115042I0J2189D01*
G01X-6684Y115200D01*
X-6168D01*
X-6119Y115167D01*
G03X-4921Y114811I1197J1833D01*
G03X-2843Y116314I0J2189D01*
G03X-874Y117814I-110J2186D01*
G03X1156Y119542I-110J2186D01*
G01X1190Y119700D01*
X1706D01*
X1756Y119667D01*
G03X2953Y119311I1197J1833D01*
G03X5032Y120814I0J2189D01*
G03X7000Y122314I-110J2186D01*
G03X8969Y123814I-110J2186D01*
G03X11047Y126000I-110J2186D01*
G03X8858Y128189I-2189J0D01*
G03X7613Y127800I0J-2189D01*
G01X-63476D01*
G03X-64749Y127273I0J-1800D01*
G01X-86300Y105722D01*
G03X-86828Y104449I1273J-1273D01*
G01Y86316D01*
G02X-87455Y85987I-400J0D01*
G03X-87747Y86157I-1245J-1801D01*
G03X-89900Y87950I-2153J-396D01*
G03X-91146Y87561I0J-2189D01*
G01X-97539D01*
G03X-98812Y87034I0J-1800D01*
G01X-101746Y84100D01*
X-105112D01*
G02X-105481Y84655I0J400D01*
G03X-105311Y85500I-2019J845D01*
G03X-109689I-2189J0D01*
G03X-109519Y84655I2189J0D01*
G02X-109888Y84100I-369J-154D01*
G01X-219500D01*
G03X-220773Y83573I0J-1800D01*
G01X-221973Y82373D01*
G03X-222500Y81100I1273J-1273D01*
G01Y45846D01*
X-222646Y45700D01*
X-258900D01*
G03X-260173Y45173I0J-1800D01*
G01X-261373Y43973D01*
G03X-261900Y42700I1273J-1273D01*
G01Y-65200D01*
G03X-261373Y-66473I1800J0D01*
G01X-260173Y-67673D01*
G03X-258900Y-68200I1273J1273D01*
G01X-237748D01*
G02X-237411Y-68816I0J-400D01*
G03X-237786Y-70100I2011J-1284D01*
G03X-235400Y-72486I2386J0D01*
G03X-234150Y-72133I0J2386D01*
G03X-234017Y-72208I1249J2033D01*
G02X-234003Y-72553I-94J-177D01*
G03X-235360Y-75045I1608J-2492D01*
G03X-229429I2966J0D01*
G03X-230159Y-73096I-2966J0D01*
G02X-229936Y-72440I301J263D01*
G03X-228014Y-70100I-464J2340D01*
G03X-228389Y-68816I-2386J0D01*
G02X-228052Y-68200I337J215D01*
G01X-165446D01*
X-165300Y-68346D01*
Y-125700D01*
G03X-164773Y-126973I1800J0D01*
G01X-163573Y-128173D01*
G03X-162300Y-128700I1273J1273D01*
G01X-126146D01*
X-126000Y-128846D01*
Y-145700D01*
G03X-125473Y-146973I1800J0D01*
G01X-124273Y-148173D01*
G03X-123000Y-148700I1273J1273D01*
G01X-62146D01*
G03X-60900Y-149089I1246J1800D01*
G03X-58713Y-146992I0J2189D01*
G01X-58705Y-146800D01*
X-36400D01*
G03X-35127Y-146273I0J1800D01*
G01X-33927Y-145073D01*
G03X-33400Y-143800I-1273J1273D01*
G01Y-123301D01*
G02X-32856Y-122927I400J0D01*
G03X-32000Y-123086I856J2227D01*
G03X-30750Y-122732I0J2386D01*
G03X-29500Y-123086I1250J2033D01*
G03X-29438Y-123085I0J2386D01*
G02X-29108Y-123725I10J-400D01*
G03X-29586Y-125158I1908J-1433D01*
G03X-24814I2386J0D01*
G03X-25903Y-123156I-2386J0D01*
G02X-25887Y-122811I109J168D01*
G03X-25750Y-122732I-1113J2111D01*
G03X-24500Y-123086I1250J2033D01*
G03X-22114Y-120700I0J2386D01*
G03X-22437Y-119501I-2386J0D01*
G02X-22091Y-118900I346J201D01*
G01X-12700D01*
G03X-11427Y-118373I0J1800D01*
G01X-10227Y-117173D01*
G03X-9700Y-115900I-1273J1273D01*
G01Y-108246D01*
G03X-9311Y-107000I-1800J1246D01*
G03X-9481Y-106155I-2189J0D01*
G02X-9112Y-105600I369J154D01*
G01X-1928D01*
G02X-1645Y-106283I0J-400D01*
G01X-2530Y-107168D01*
G03X-3057Y-108440I1273J-1273D01*
G01Y-110485D01*
G02X-3439Y-110885I-400J0D01*
G03X-5530Y-113072I98J-2187D01*
G03X-4883Y-114625I2189J0D01*
G02X-4910Y-115217I-282J-284D01*
G03X-5699Y-116900I1399J-1683D01*
G03X-5436Y-117941I2189J0D01*
G02X-5743Y-118529I-352J-190D01*
G03X-7864Y-120900I265J-2371D01*
G03X-3092I2386J0D01*
G03X-3438Y-119663I-2386J0D01*
G02X-3160Y-119061I342J207D01*
G03X-1321Y-116900I-350J2161D01*
G03X-2126Y-115204I-2189J0D01*
G02X-2112Y-114883I126J155D01*
G03X-2021Y-114818I-1229J1812D01*
G03X-1184Y-114345I-436J1747D01*
G01X-557Y-113718D01*
X70Y-114345D01*
G03X907Y-114818I1273J1273D01*
G03X1409Y-115102I1320J1747D01*
G02X1435Y-115833I-149J-371D01*
G03X207Y-117800I961J-1967D01*
G03X1764Y-119896I2189J0D01*
G02X2038Y-120368I-116J-383D01*
G03X1978Y-120900I2326J-532D01*
G03X2055Y-121501I2386J0D01*
G02X1682Y-122001I-387J-101D01*
G03X475Y-122527I66J-1799D01*
G01X-1545Y-124547D01*
G03X-2072Y-125820I1273J-1273D01*
G01Y-130882D01*
G02X-2763Y-131158I-400J0D01*
G03X-4494Y-130414I-1731J-1642D01*
G03X-6880Y-132800I0J-2386D01*
G03X-5011Y-135129I2386J0D01*
G02X-4701Y-135564I-87J-390D01*
G03X-4714Y-135805I2176J-241D01*
G03X-3337Y-137838I2189J0D01*
G03X-3342Y-137985I2184J-146D01*
G03X-1152Y-140174I2189J0D01*
G03X296Y-139627I0J2189D01*
G02X560I132J-150D01*
G03X2008Y-140174I1448J1642D01*
G03X4197Y-137985I0J2189D01*
G03X4192Y-137838I-2189J1D01*
G03X5570Y-135805I-812J2033D01*
G03X5556Y-135564I-2189J0D01*
G02X5867Y-135129I398J44D01*
G03X7735Y-132800I-518J2329D01*
G03X5349Y-130414I-2386J0D01*
G03X3618Y-131158I0J-2386D01*
G02X2928Y-130883I-290J275D01*
G01Y-127146D01*
X3074Y-127000D01*
X5980D01*
G03X7253Y-126473I0J1800D01*
G01X9273Y-124453D01*
G03X9800Y-123180I-1273J1273D01*
G01Y-108440D01*
G03X9273Y-107168I-1800J0D01*
G01X8388Y-106283D01*
G02X8671Y-105600I283J283D01*
G01X14481D01*
G02X14870Y-106093I0J-400D01*
G03X14811Y-106600I2130J-507D01*
G03X19189I2189J0D01*
G03X19130Y-106093I-2189J0D01*
G02X19519Y-105600I389J93D01*
G01X22981D01*
G02X23370Y-106093I0J-400D01*
G03X23311Y-106600I2130J-507D01*
G03X27689I2189J0D01*
G03X27630Y-106093I-2189J0D01*
G02X28019Y-105600I389J93D01*
G01X28380D01*
G03X29653Y-105073I0J1800D01*
G01X31673Y-103053D01*
G03X32200Y-101780I-1273J1273D01*
G01Y-75869D01*
G02X32715Y-75486I400J0D01*
G03X33400Y-75586I685J2286D01*
G03Y-70814I0J2386D01*
G03X32715Y-70914I0J-2386D01*
G02X32200Y-70531I-115J383D01*
G01Y-53820D01*
G03X31673Y-52547I-1800J0D01*
G01X29653Y-50527D01*
G03X28380Y-50000I-1273J-1273D01*
G01X3670D01*
G02X3272Y-49557I0J400D01*
G03X3286Y-49300I-2372J257D01*
G03X2901Y-48000I-2386J0D01*
G03X3286Y-46700I-2001J1300D01*
G03X3285Y-46614I-2386J1D01*
G02X3684Y-46200I400J14D01*
G01X40071D01*
X40216Y-46346D01*
Y-62003D01*
G02X39548Y-62300I-400J0D01*
G03X38078Y-61733I-1470J-1622D01*
G03Y-66111I0J-2189D01*
G03X39548Y-65544I0J2189D01*
G02X40216Y-65841I268J-296D01*
G01Y-86943D01*
G02X39690Y-87322I-400J0D01*
G03X39000Y-87211I-690J-2078D01*
G03Y-91589I0J-2189D01*
G03X39690Y-91478I0J2189D01*
G02X40216Y-91857I126J-380D01*
G01Y-92820D01*
G02X39783Y-93218I-400J0D01*
G03X39600Y-93211I-182J-2182D01*
G03Y-97589I0J-2189D01*
G03X39783Y-97582I1J2189D01*
G02X40216Y-97980I33J-399D01*
G01Y-113843D01*
G02X39690Y-114222I-400J0D01*
G03X39000Y-114111I-690J-2078D01*
G03Y-118489I0J-2189D01*
G03X39690Y-118378I0J2189D01*
G02X40216Y-118757I126J-380D01*
G01Y-119209D01*
X40043Y-119233D01*
G03X36243Y-123592I599J-4359D01*
G03X36248Y-123800I4400J-1D01*
G02X35726Y-124200I-400J-19D01*
G03X35000Y-124087I-726J-2273D01*
G03Y-128859I0J-2386D01*
G03X37267Y-127217I0J2386D01*
G02X37897Y-127030I380J-125D01*
G03X37954Y-127075I2746J3438D01*
G02Y-127708I-244J-317D01*
G03X36243Y-131192I2688J-3483D01*
G03X40043Y-135551I4400J0D01*
G01X40216Y-135575D01*
Y-137414D01*
G03X38947Y-139400I920J-1986D01*
G03X41136Y-141589I2189J0D01*
G03X42584Y-141042I0J2189D01*
G02X42849I132J-150D01*
G03X43733Y-141515I1448J1642D01*
G03X45861Y-143192I2128J513D01*
G03X47309Y-142644I0J2189D01*
G02X47573I132J-150D01*
G03X49021Y-143192I1448J1642D01*
G03X51149Y-141515I0J2189D01*
G03X52033Y-141042I-564J2115D01*
G02X52298I132J-150D01*
G03X53182Y-141515I1448J1642D01*
G03X54390Y-142989I2128J513D01*
G01Y-147580D01*
G03X54917Y-148853I1800J0D01*
G01X55956Y-149892D01*
G02X55673Y-150575I-283J-283D01*
G01X-204724D01*
G02X-219472Y-135827I0J14748D01*
G01Y-104331D01*
G03X-236220Y-87583I-16748J0D01*
G01X-251968D01*
G02X-266716Y-72835I0J14748D01*
G01Y127953D01*
G02X-251968Y142701I14748J0D01*
G37*
G36*
G01X-96154Y-23600D02*
X-77646D01*
X-77500Y-23746D01*
Y-61680D01*
G03X-76973Y-62953I1800J0D01*
G01X-74653Y-65273D01*
G03X-73380Y-65800I1273J1273D01*
G01X-62170D01*
X-62165Y-65995D01*
G03X-61840Y-67090I2188J55D01*
G02X-62180Y-67700I-340J-210D01*
G01X-78054D01*
X-78200Y-67554D01*
Y-29605D01*
G03X-78727Y-28332I-1800J0D01*
G01X-80747Y-26312D01*
G03X-82020Y-25785I-1273J-1273D01*
G01X-89953D01*
G03X-91939Y-24516I-1987J-920D01*
G03X-94129Y-26705I0J-2189D01*
G03X-93582Y-28153I2189J0D01*
G02Y-28417I-150J-132D01*
G03X-94129Y-29865I1642J-1448D01*
G03X-92846Y-31858I2189J0D01*
G02Y-32586I-166J-364D01*
G03X-94129Y-34579I906J-1993D01*
G03X-93582Y-36027I2189J0D01*
G02Y-36291I-150J-132D01*
G03X-94129Y-37739I1642J-1448D01*
G03X-93305Y-39451I2189J0D01*
G02X-93221Y-39985I-249J-313D01*
G03X-93589Y-41200I1821J-1215D01*
G03X-93242Y-42384I2189J0D01*
G02X-93578Y-43000I-337J-216D01*
G01X-101857D01*
G02X-102157Y-42336I0J400D01*
G03X-101611Y-40889I-1643J1447D01*
G03X-102158Y-39441I-2189J0D01*
G02Y-39176I150J132D01*
G03X-101611Y-37729I-1642J1448D01*
G03X-102894Y-35736I-2189J0D01*
G02Y-35008I166J364D01*
G03X-101814Y-33935I-906J1993D01*
G01X-100120D01*
G03X-98847Y-33408I0J1800D01*
G01X-96827Y-31387D01*
G03X-96300Y-30114I-1273J1273D01*
G01Y-23746D01*
X-96154Y-23600D01*
G37*
G36*
G01X-13322Y-72700D02*
X11956D01*
X12102Y-72846D01*
Y-87592D01*
G03X10833Y-89579I920J-1986D01*
G03X11315Y-90949I2189J0D01*
G02X11003Y-91600I-312J-250D01*
G01X9537D01*
G02X9225Y-90949I0J400D01*
G03X9707Y-89579I-1707J1371D01*
G03X7518Y-87390I-2189J0D01*
G03X6070Y-87937I0J-2189D01*
G02X5805I-132J150D01*
G03X4358Y-87390I-1448J-1642D01*
G03X2168Y-89579I0J-2189D01*
G03X2303Y-90336I2189J0D01*
G02X1788Y-90849I-375J-138D01*
G03X1023Y-90711I-765J-2051D01*
G03X-425Y-91258I0J-2189D01*
G02X-689I-132J150D01*
G03X-2137Y-90711I-1448J-1642D01*
G03X-2902Y-90849I0J-2189D01*
G02X-3417Y-90336I-140J375D01*
G03X-3282Y-89579I-2054J757D01*
G03X-4551Y-87592I-2189J0D01*
G01Y-77120D01*
G03X-5079Y-75847I-1800J0D01*
G01X-7099Y-73827D01*
G03X-8372Y-73300I-1273J-1273D01*
G01X-13314D01*
Y-73100D01*
G03X-13321Y-72916I-2386J0D01*
G01X-13322Y-72908D01*
Y-72700D01*
G37*
G36*
G01X85226Y-32214D02*
X109013D01*
G02X109351Y-32828I0J-400D01*
G03X109034Y-33685I1849J-1172D01*
G03X107411Y-35800I566J-2115D01*
G03X109243Y-37960I2189J0D01*
G02X109537Y-38532I-65J-395D01*
G03X109346Y-39111I1963J-968D01*
G03X107811Y-41200I654J-2089D01*
G03X107817Y-41369I2189J0D01*
G02X107418Y-41800I-399J-31D01*
G01X91146D01*
G03X89900Y-41411I-1246J-1800D01*
G03Y-45789I0J-2189D01*
G03X91146Y-45400I0J2189D01*
G01X111100D01*
G03X112177Y-45043I0J1800D01*
G02X112775Y-45188I239J-321D01*
G03X112933Y-45466I2425J1187D01*
G02X112889Y-45731I-168J-109D01*
G03X111987Y-47600I1484J-1869D01*
G03X114373Y-49986I2386J0D01*
G03X114824Y-49943I0J2386D01*
G02X115300Y-50336I76J-393D01*
G01Y-57482D01*
X113871Y-58910D01*
G02X113189Y-58618I-283J283D01*
G03X113189Y-58566I-2189J51D01*
G03X108811I-2189J0D01*
G03X108825Y-58813I2189J0D01*
G02X108334Y-59248I-397J-45D01*
G03X107824Y-59187I-510J-2129D01*
G03X106626Y-59544I0J-2189D01*
G01X106577Y-59576D01*
X105824D01*
G03X104551Y-60104I0J-1800D01*
G01X103027Y-61627D01*
G03X102523Y-62611I1273J-1273D01*
G02X102000Y-62926I-395J64D01*
G03X101300Y-62811I-701J-2074D01*
G03Y-67189I0J-2189D01*
G03X101976Y-67082I0J2189D01*
G02X102500Y-67463I124J-380D01*
G01Y-67754D01*
X102354Y-67900D01*
X93928D01*
G02X93553Y-67361I0J400D01*
G03X93689Y-66600I-2053J761D01*
G03X91949Y-64457I-2189J0D01*
G01X91891Y-64445D01*
X91573Y-64127D01*
G03X90300Y-63600I-1273J-1273D01*
G01X86146D01*
X86000Y-63454D01*
Y-34700D01*
G03X85473Y-33427I-1800J0D01*
G01X84943Y-32897D01*
G02X85226Y-32214I283J283D01*
G37*
G36*
G01X95046Y58100D02*
X104126D01*
G02X104524Y57656I0J-400D01*
G03X104511Y57416I2176J-239D01*
G03X104513Y57318I2189J0D01*
G02X104113Y56900I-400J-18D01*
G01X95800D01*
G03X94527Y56373I0J-1800D01*
G01X84027Y45873D01*
G03X83500Y44600I1273J-1273D01*
G01Y40626D01*
G03X84027Y39354I1800J0D01*
G01X86047Y37334D01*
G03X87320Y36806I1273J1273D01*
G01X89757D01*
G03X91743Y35537I1987J920D01*
G03X93933Y37726I0J2189D01*
G03X93386Y39174I-2189J0D01*
G02Y39439I150J132D01*
G03X93867Y40354I-1642J1448D01*
G03X94300Y40311I433J2146D01*
G03X94554Y40326I0J2189D01*
G02X95000Y39928I46J-397D01*
G01Y15420D01*
G03X95527Y14147I1800J0D01*
G01X97847Y11827D01*
G03X99120Y11300I1273J1273D01*
G01X102954D01*
X103100Y11154D01*
Y7990D01*
G02X102409Y7716I-400J0D01*
G03X102373Y7753I-1306J-1239D01*
G01X100353Y9773D01*
G03X99080Y10300I-1273J-1273D01*
G01X89346D01*
X89200Y10446D01*
Y27212D01*
X89346Y27357D01*
X89757D01*
G03X91743Y26088I1987J920D01*
G03X93933Y28278I0J2189D01*
G03X93386Y29725I-2189J0D01*
G02Y29990I150J132D01*
G03X93933Y31438I-1642J1448D01*
G03X91743Y33627I-2189J0D01*
G03X89757Y32358I0J-2189D01*
G01X88020D01*
G03X86747Y31830I0J-1800D01*
G01X84727Y29810D01*
G03X84527Y29573I1273J-1273D01*
G02X83800Y29803I-327J230D01*
G01Y35380D01*
G03X83273Y36653I-1800J0D01*
G01X81253Y38673D01*
G03X80931Y38928I-1273J-1273D01*
G02X80829Y39516I211J340D01*
G03X81303Y40876I-1716J1360D01*
G03X80755Y42324I-2189J0D01*
G02Y42588I150J132D01*
G03X81303Y44036I-1642J1448D01*
G03X81242Y44545I-2189J0D01*
G02X81552Y45030I389J93D01*
G03X83303Y47175I-438J2145D01*
G03X82756Y48623I-2189J0D01*
G02Y48887I150J132D01*
G03X83303Y50335I-1642J1448D01*
G03X83293Y50542I-2189J0D01*
G02X83691Y50979I398J38D01*
G01X87180D01*
G03X88452Y51507I0J1800D01*
G01X95046Y58100D01*
G37*
G36*
G01X88539Y-900D02*
X91954D01*
X92100Y-1046D01*
Y-16280D01*
G03X92627Y-17553I1800J0D01*
G01X95147Y-20073D01*
G03X96420Y-20600I1273J1273D01*
G01X169621D01*
G02X170020Y-21029I0J-400D01*
G03X170014Y-21200I2380J-171D01*
G03X170039Y-21542I2386J0D01*
G02X169643Y-22000I-396J-57D01*
G01X91646D01*
X91500Y-21854D01*
Y-6820D01*
G03X90973Y-5547I-1800J0D01*
G01X88953Y-3527D01*
G03X88417Y-3158I-1273J-1273D01*
G03X88489Y-2600I-2117J558D01*
G03X88193Y-1501I-2189J0D01*
G02X88539Y-900I346J201D01*
G37*
%LPC*%
G75*
G36*
G01X21596Y-116975D02*
G03X20974I-311J-251D01*
G02X19270Y-117789I-1704J1375D01*
G02Y-113411I0J2189D01*
G02X20974Y-114225I0J-2189D01*
G03X21596I311J251D01*
G02X23300Y-113411I1704J-1375D01*
G02Y-117789I0J-2189D01*
G02X21596Y-116975I0J2189D01*
G37*
G36*
G01X-135356Y-116339D02*
G02Y-113339I1856J1500D01*
G02X-135886Y-111839I1856J1500D01*
G02X-131114I2386J0D01*
G02X-131644Y-113339I-2386J0D01*
G02X-131114Y-114839I-1856J-1500D01*
G02X-131155Y-115281I-2386J0D01*
G03X-130581Y-115711I393J-74D01*
G02X-129500Y-115452I1081J-2127D01*
G02X-127787Y-116177I0J-2386D01*
G03X-127213I287J278D01*
G02X-123787I1713J-1661D01*
G03X-123213I287J278D01*
G02X-119787I1713J-1661D01*
G03X-119213I287J278D01*
G02X-117500Y-115452I1713J-1661D01*
G02Y-120225I0J-2386D01*
G02X-119213Y-119500I0J2386D01*
G03X-119787I-287J-278D01*
G02X-123213I-1713J1661D01*
G03X-123787I-287J-278D01*
G02X-127213I-1713J1661D01*
G03X-127787I-287J-278D01*
G02X-131213I-1713J1661D01*
G03X-131787I-287J-278D01*
G02X-133500Y-120225I-1713J1661D01*
G02X-135886Y-117839I0J2386D01*
G02X-135356Y-116339I2386J0D01*
G37*
G36*
G01X31550Y-113333D02*
G02X30300Y-113686I-1250J2033D01*
G02Y-108914I0J2386D01*
G02X31550Y-109268I0J-2386D01*
G02X34050I1250J-2033D01*
G02X35300Y-108914I1250J-2033D01*
G02Y-113686I0J-2386D01*
G02X34050Y-113333I0J2386D01*
G02X31550I-1250J2033D01*
G37*
G36*
G01X-123787Y-97039D02*
G03X-123213I287J278D01*
G02X-119787I1713J-1661D01*
G03X-119213I287J278D01*
G02X-117500Y-96314I1713J-1661D01*
G02Y-101086I0J-2386D01*
G02X-119213Y-100361I0J2386D01*
G03X-119787I-287J-278D01*
G02X-123213I-1713J1661D01*
G03X-123787I-287J-278D01*
G02X-127213I-1713J1661D01*
G03X-127787I-287J-278D01*
G02X-129500Y-101086I-1713J1661D01*
G02X-130581Y-100827I0J2386D01*
G03X-131155Y-101258I-181J-357D01*
G02X-131114Y-101700I-2345J-442D01*
G02X-131644Y-103200I-2386J0D01*
G02X-131114Y-104700I-1856J-1500D01*
G02X-135886I-2386J0D01*
G02X-135356Y-103200I2386J0D01*
G02Y-100200I1856J1500D01*
G02X-135886Y-98700I1856J1500D01*
G02X-133500Y-96314I2386J0D01*
G02X-131787Y-97039I0J-2386D01*
G03X-131213I287J278D01*
G02X-127787I1713J-1661D01*
G03X-127213I287J278D01*
G02X-123787I1713J-1661D01*
G37*
G36*
G01X126000Y-100356D02*
G02X124500Y-100886I-1500J1856D01*
G02Y-96114I0J2386D01*
G02X126000Y-96644I0J-2386D01*
G02X129000I1500J-1856D01*
G02X130500Y-96114I1500J-1856D01*
G02X132886Y-98500I0J-2386D01*
G02X132859Y-98861I-2386J0D01*
G03X133289Y-99320I395J-60D01*
G02X133500Y-99311I210J-2377D01*
G02X135886Y-101697I0J-2386D01*
G02X135356Y-103197I-2386J0D01*
G02X135886Y-104697I-1856J-1500D01*
G02X131114I-2386J0D01*
G02X131644Y-103197I2386J0D01*
G02X131114Y-101697I1856J1500D01*
G02X131141Y-101336I2386J0D01*
G03X130711Y-100877I-395J60D01*
G02X130500Y-100886I-210J2377D01*
G02X129000Y-100356I0J2386D01*
G02X126000I-1500J1856D01*
G37*
G36*
G01X-63718Y-97036D02*
G02X-61600Y-95398I2118J-552D01*
G02X-59411Y-97588I0J-2189D01*
G02X-61082Y-99714I-2189J0D01*
G02X-63200Y-101352I-2118J552D01*
G02X-65389Y-99162I0J2189D01*
G02X-63718Y-97036I2189J0D01*
G37*
G36*
G01X100468Y-90250D02*
G02Y-87750I2033J1250D01*
G02X100114Y-86500I2033J1250D01*
G02X102500Y-84114I2386J0D01*
G02X103800Y-84499I0J-2386D01*
G02X105100Y-84114I1300J-2001D01*
G02X107486Y-86500I0J-2386D01*
G02X107133Y-87750I-2386J0D01*
G02Y-90250I-2033J-1250D01*
G02X107486Y-91500I-2033J-1250D01*
G02X105100Y-93886I-2386J0D01*
G02X103800Y-93501I0J2386D01*
G02X102500Y-93886I-1300J2001D01*
G02X100114Y-91500I0J2386D01*
G02X100468Y-90250I2386J0D01*
G37*
G36*
G01X77668Y-86850D02*
G02Y-84350I2033J1250D01*
G02X77314Y-83100I2033J1250D01*
G02X79700Y-80714I2386J0D01*
G02X81000Y-81099I0J-2386D01*
G02X82300Y-80714I1300J-2001D01*
G02X84686Y-83100I0J-2386D01*
G02X84333Y-84350I-2386J0D01*
G02Y-86850I-2033J-1250D01*
G02X84686Y-88100I-2033J-1250D01*
G02X82300Y-90486I-2386J0D01*
G02X81000Y-90101I0J2386D01*
G02X79700Y-90486I-1300J2001D01*
G02X77314Y-88100I0J2386D01*
G02X77668Y-86850I2386J0D01*
G37*
G36*
G01X-207450Y-79268D02*
G02X-204950I1250J-2033D01*
G02X-202450I1250J-2033D01*
G02X-201200Y-78914I1250J-2033D01*
G02X-198814Y-81300I0J-2386D01*
G02X-199199Y-82600I-2386J0D01*
G02X-198814Y-83900I-2001J-1300D01*
G02X-201200Y-86286I-2386J0D01*
G02X-202450Y-85933I0J2386D01*
G02X-204950I-1250J2033D01*
G02X-207450I-1250J2033D01*
G02X-208700Y-86286I-1250J2033D01*
G02X-211086Y-83900I0J2386D01*
G02X-210701Y-82600I2386J0D01*
G02X-211086Y-81300I2001J1300D01*
G02X-208700Y-78914I2386J0D01*
G02X-207450Y-79268I0J-2386D01*
G37*
G36*
G01X152118Y-77723D02*
G03X152560Y-77352I42J398D01*
G02X154744Y-75311I2184J-148D01*
G02Y-79689I0J-2189D01*
G02X154512Y-79677I0J2189D01*
G03X154070Y-80048I-42J-398D01*
G02X151886Y-82089I-2184J148D01*
G02Y-77711I0J2189D01*
G02X152118Y-77723I0J-2189D01*
G37*
G36*
G01X149088Y-71212D02*
G02X151189Y-73400I-88J-2187D01*
G02X149000Y-75589I-2189J0D01*
G02X146812Y-73488I0J2189D01*
G02X144711Y-71300I88J2188D01*
G02X146900Y-69111I2189J0D01*
G02X149088Y-71212I0J-2189D01*
G37*
G36*
G01X-115818Y-67182D02*
G02X-118000Y-69189I-2182J182D01*
G02X-120189Y-67000I0J2189D01*
G02X-118182Y-64818I2189J0D01*
G02X-116182Y-62818I2182J-182D01*
G02X-114000Y-60811I2182J-182D01*
G02X-111811Y-63000I0J-2189D01*
G02X-113818Y-65182I-2189J0D01*
G02X-115818Y-67182I-2182J182D01*
G37*
G36*
G01X-16512Y-13934D02*
G02X-16511Y-14000I-2188J-66D01*
G02X-20889I-2189J0D01*
G02X-19188Y-11866I2189J0D01*
G02X-19189Y-11800I2188J66D01*
G02X-14811I2189J0D01*
G02X-16512Y-13934I-2189J0D01*
G37*
G36*
G01X-225443Y3800D02*
G02X-225862Y5150I1968J1350D01*
G02X-223476Y7536I2386J0D01*
G02X-222226Y7183I0J-2386D01*
G02X-219726I1250J-2033D01*
G02X-218476Y7536I1250J-2033D01*
G02X-216090Y5150I0J-2386D01*
G02X-216508Y3800I-2386J0D01*
G02X-216090Y2450I-1968J-1350D01*
G02X-218476Y64I-2386J0D01*
G02X-219726Y418I0J2386D01*
G02X-222226I-1250J2033D01*
G02X-223476Y64I-1250J2033D01*
G02X-225862Y2450I0J2386D01*
G02X-225443Y3800I2386J0D01*
G37*
G36*
G01X223836Y11679D02*
G03Y11943I-150J132D01*
G02X223289Y13391I1642J1448D01*
G02X227668I2189J0D01*
G02X227120Y11943I-2189J0D01*
G03Y11679I150J-132D01*
G02X227668Y10231I-1642J-1448D01*
G02X223289I-2189J0D01*
G02X223836Y11679I2189J0D01*
G37*
G36*
G01X33649Y40668D02*
G02X32399Y40314I-1250J2033D01*
G02Y45086I0J2386D01*
G02X33649Y44732I0J-2386D01*
G02X36149I1250J-2033D01*
G02X37399Y45086I1250J-2033D01*
G02Y40314I0J-2386D01*
G02X36149Y40668I0J2386D01*
G02X33649I-1250J2033D01*
G37*
G36*
G01X-154932Y41150D02*
G02Y43650I2033J1250D01*
G02X-155286Y44900I2033J1250D01*
G02X-152900Y47286I2386J0D01*
G02X-151750Y46991I0J-2386D01*
G02X-150600Y47286I1150J-2091D01*
G02X-148214Y44900I0J-2386D01*
G02X-148568Y43650I-2386J0D01*
G02Y41150I-2033J-1250D01*
G02X-148214Y39900I-2033J-1250D01*
G02X-150600Y37514I-2386J0D01*
G02X-151750Y37809I0J2386D01*
G02X-152900Y37514I-1150J2091D01*
G02X-155286Y39900I0J2386D01*
G02X-154932Y41150I2386J0D01*
G37*
G36*
G01X198142Y45969D02*
G03X198357Y46154I15J199D01*
G02X200541Y48192I2184J-152D01*
G02X201989Y47644I0J-2189D01*
G03X202253I132J150D01*
G02X203701Y48192I1448J-1642D01*
G02X205863Y46350I0J-2189D01*
G03X206079Y46182I197J32D01*
G02X206287Y46192I208J-2179D01*
G02X207735Y45645I0J-2189D01*
G03X208000I132J150D01*
G02X209447Y46192I1448J-1642D01*
G02Y41814I0J-2189D01*
G02X208000Y42361I0J2189D01*
G03X207735I-132J-150D01*
G02X206287Y41814I-1448J1642D01*
G02X204126Y43656I0J2189D01*
G03X203909Y43823I-197J-32D01*
G02X203701Y43813I-208J2179D01*
G02X202253Y44360I0J2189D01*
G03X201989I-132J-150D01*
G02X200541Y43813I-1448J1642D01*
G02X200372Y43820I0J2189D01*
G03X200157Y43634I-15J-199D01*
G02X197973Y41597I-2184J152D01*
G02X196526Y42144I0J2189D01*
G03X196261I-132J-150D01*
G02X194813Y41597I-1448J1642D01*
G02Y45975I0J2189D01*
G02X196261Y45428I0J-2189D01*
G03X196526I132J150D01*
G02X197973Y45975I1448J-1642D01*
G02X198142Y45969I0J-2189D01*
G37*
G36*
G01X11182Y52318D02*
G02X9000Y50311I-2182J182D01*
G02X6811Y52500I0J2189D01*
G02X8818Y54682I2189J0D01*
G02X10818Y56682I2182J-182D01*
G02X13000Y58689I2182J-182D01*
G02X15189Y56500I0J-2189D01*
G02X13182Y54318I-2189J0D01*
G02X11182Y52318I-2182J182D01*
G37*
G36*
G01X1188Y69766D02*
G03X941Y70247I-386J105D01*
G02X-489Y72300I759J2053D01*
G02X3889I2189J0D01*
G02X3812Y71724I-2189J0D01*
G03X4059Y71243I386J-105D01*
G02X5489Y69190I-759J-2053D01*
G02X5487Y69082I-2189J-1D01*
G02X7089Y66973I-587J-2109D01*
G02X2711I-2189J0D01*
G02X2713Y67080I2189J1D01*
G02X1111Y69190I587J2109D01*
G02X1188Y69766I2189J0D01*
G37*
G36*
G01X-93924Y99337D02*
G02X-92211Y97200I-476J-2137D01*
G02X-94400Y95011I-2189J0D01*
G02X-96576Y96963I0J2189D01*
G02X-98289Y99100I476J2137D01*
G02X-96100Y101289I2189J0D01*
G02X-93924Y99337I0J-2189D01*
G37*
G36*
G01X-13647Y101945D02*
G03X-13912I-132J-150D01*
G02X-15360Y101398I-1448J1642D01*
G02Y105776I0J2189D01*
G02X-13912Y105229I0J-2189D01*
G03X-13647I132J150D01*
G02X-12200Y105776I1448J-1642D01*
G02Y101398I0J-2189D01*
G02X-13647Y101945I0J2189D01*
G37*
G36*
G01X12982Y100819D02*
G02X10800Y98811I-2182J181D01*
G02X8611Y101000I0J2189D01*
G02X10614Y103181I2189J0D01*
G02X12582Y105179I2182J-181D01*
G02X14764Y107189I2182J-179D01*
G02X16953Y105000I0J-2189D01*
G02X14977Y102821I-2189J0D01*
G02X12982Y100819I-2182J179D01*
G37*
G36*
G01X-23250Y104668D02*
G02X-24500Y104314I-1250J2033D01*
G02Y109086I0J2386D01*
G02X-23250Y108733I0J-2386D01*
G02X-20750I1250J-2033D01*
G02X-19500Y109086I1250J-2033D01*
G02Y104314I0J-2386D01*
G02X-20750Y104668I0J2386D01*
G02X-23250I-1250J2033D01*
G37*
G36*
G01X99981Y109449D02*
G02X102100Y111089I2119J-549D01*
G02X104289Y108900I0J-2189D01*
G02X102519Y106751I-2189J0D01*
G02X100400Y105111I-2119J549D01*
G02X98211Y107300I0J2189D01*
G02X99981Y109449I2189J0D01*
G37*
G36*
G01X186058Y112868D02*
G03Y113132I-150J132D01*
G02X185511Y114580I1642J1448D01*
G02X189889I2189J0D01*
G02X189342Y113132I-2189J0D01*
G03Y112868I150J-132D01*
G02X189889Y111420I-1642J-1448D01*
G02X189887Y111319I-2189J-1D01*
G03X190286Y110900I400J-19D01*
G01X240437D01*
G02X241710Y110373I0J-1800D01*
G01X242391Y109692D01*
X242449Y109680D01*
G02X244189Y107537I-449J-2143D01*
G02X243422Y105873I-2189J0D01*
G03Y105264I260J-304D01*
G02X244189Y103600I-1422J-1664D01*
G02X242000Y101411I-2189J0D01*
G02X239857Y103151I0J2189D01*
G01X239845Y103209D01*
X237254Y105800D01*
X191259D01*
G03X190987Y105106I0J-400D01*
G02X191685Y103635I-1487J-1606D01*
G02X193389Y101500I-485J-2135D01*
G02X191200Y99311I-2189J0D01*
G02X189015Y101365I0J2189D01*
G02X187313Y103411I485J2135D01*
G01X187300D01*
G02X185111Y105600I0J2189D01*
G01Y105800D01*
X160800D01*
G02X159527Y106327I0J1800D01*
G01X157909Y107945D01*
X157851Y107957D01*
G02X156111Y110100I449J2143D01*
G02X156171Y110611I2189J0D01*
G03X156046Y110845I-195J47D01*
G02X154611Y112900I754J2055D01*
G02X156800Y115089I2189J0D01*
G02X157997Y114733I0J-2189D01*
G01X158047Y114700D01*
X158289D01*
G02X159562Y114173I0J-1800D01*
G01X162835Y110900D01*
X185114D01*
G03X185513Y111319I0J400D01*
G02X185511Y111420I2187J100D01*
G02X186058Y112868I2189J0D01*
G37*
G36*
G01X202253Y116758D02*
G03X201989I-132J-150D01*
G02X200541Y116211I-1448J1642D01*
G02Y120589I0J2189D01*
G02X201989Y120042I0J-2189D01*
G03X202253I132J150D01*
G02X203701Y120589I1448J-1642D01*
G02Y116211I0J-2189D01*
G02X202253Y116758I0J2189D01*
G37*
G36*
G01X203366Y122627D02*
G03X203102I-132J-150D01*
G02X201654Y122080I-1448J1642D01*
G02Y126458I0J2189D01*
G02X203102Y125911I0J-2189D01*
G03X203366I132J150D01*
G02X204814Y126458I1448J-1642D01*
G02Y122080I0J-2189D01*
G02X203366Y122627I0J2189D01*
G37*
G36*
G01X171870Y124462D02*
G03X171606I-132J-150D01*
G02X170158Y123915I-1448J1642D01*
G02Y128294I0J2189D01*
G02X171606Y127746I0J-2189D01*
G03X171870I132J150D01*
G02X173318Y128294I1448J-1642D01*
G02Y123915I0J-2189D01*
G02X171870Y124462I0J2189D01*
G37*
G36*
G01X159272Y124469D02*
G03X159007I-132J-150D01*
G02X157559Y123922I-1448J1642D01*
G02Y128301I0J2189D01*
G02X159007Y127754I0J-2189D01*
G03X159272I132J150D01*
G02X160719Y128301I1448J-1642D01*
G02Y123922I0J-2189D01*
G02X159272Y124469I0J2189D01*
G37*
G36*
G01X145250Y124168D02*
G02X144000Y123814I-1250J2033D01*
G02Y128586I0J2386D01*
G02X145250Y128233I0J-2386D01*
G02X147750I1250J-2033D01*
G02X149000Y128586I1250J-2033D01*
G02Y123814I0J-2386D01*
G02X147750Y124168I0J2386D01*
G02X145250I-1250J2033D01*
G37*
G36*
G01X126268Y126050D02*
G02X125914Y127300I2033J1250D01*
G02X130686I2386J0D01*
G02X130332Y126050I-2386J0D01*
G02Y123550I-2033J-1250D01*
G02X130686Y122300I-2033J-1250D01*
G02X128300Y119914I-2386J0D01*
G02X127845Y119958I0J2386D01*
G03X127426Y119358I-76J-393D01*
G02X127853Y117825I-2539J-1533D01*
G02X124887Y120791I-2966J0D01*
G02X125694Y120679I0J-2966D01*
G03X126162Y121241I109J385D01*
G02X125914Y122300I2138J1059D01*
G02X126268Y123550I2386J0D01*
G02Y126050I2033J1250D01*
G37*
G36*
G01X216191Y94650D02*
G02X214100Y93414I-2091J1150D01*
G02Y98186I0J2386D01*
G02X216191Y96950I0J-2386D01*
G03X216891I350J193D01*
G02X218982Y98186I2090J-1150D01*
G02Y93414I0J-2386D01*
G02X216891Y94650I0J2386D01*
G03X216191I-350J-193D01*
G37*
G36*
G01X-37080Y87900D02*
X-34086D01*
G02X-32100Y89169I1987J-920D01*
G02X-29911Y86980I0J-2189D01*
G02X-30458Y85532I-2189J0D01*
G03Y85268I150J-132D01*
G02X-29911Y83820I-1642J-1448D01*
G02X-32100Y81631I-2189J0D01*
G02X-34086Y82900I0J2189D01*
G01X-35754D01*
X-35900Y82754D01*
Y68150D01*
G03X-35188Y67898I400J0D01*
G02X-33332Y68786I1857J-1498D01*
G02Y64014I0J-2386D01*
G02X-35188Y64902I0J2386D01*
G03X-35900Y64650I-311J-251D01*
G01Y35020D01*
G02X-36427Y33747I-1800J0D01*
G01X-42647Y27527D01*
G02X-43920Y27000I-1273J1273D01*
G01X-144700D01*
G02X-145973Y27527I0J1800D01*
G01X-150146Y31700D01*
X-250454D01*
X-250600Y31554D01*
Y-13951D01*
G03X-249891Y-14205I400J0D01*
G02X-248200Y-13406I1691J-1391D01*
G02Y-17784I0J-2189D01*
G02X-249891Y-16986I0J2189D01*
G03X-250600Y-17240I-309J-254D01*
G01Y-47054D01*
X-250454Y-47200D01*
X-152720D01*
G02X-151447Y-47727I0J-1800D01*
G01X-149427Y-49747D01*
G02X-148900Y-51020I-1273J-1273D01*
G01Y-86554D01*
X-148754Y-86700D01*
X-110605D01*
G02X-109332Y-87227I0J-1800D01*
G01X-107312Y-89247D01*
G02X-106785Y-90520I-1273J-1273D01*
G01Y-122384D01*
G03X-106588Y-122584I200J0D01*
G02X-104438Y-124773I-39J-2189D01*
G02X-106627Y-126962I-2189J0D01*
G02X-107824Y-126606I0J2189D01*
G01X-107874Y-126573D01*
X-107985D01*
G02X-109155Y-126141I0J1800D01*
G03X-109415I-130J-152D01*
G02X-110585Y-126573I-1170J1368D01*
G01X-110696D01*
X-110746Y-126606D01*
G02X-111943Y-126962I-1197J1833D01*
G02X-114132Y-124773I0J2189D01*
G02X-111982Y-122584I2189J0D01*
G03X-111785Y-122384I-4J200D01*
G01Y-96593D01*
G03X-112288Y-96206I-400J0D01*
G02X-112900Y-96286I-612J2306D01*
G02X-115286Y-93900I0J2386D01*
G02X-114721Y-92359I2386J0D01*
G03X-115027Y-91700I-305J258D01*
G01X-150080D01*
G02X-151353Y-91173I0J1800D01*
G01X-153373Y-89153D01*
G02X-153900Y-87880I1273J1273D01*
G01Y-52346D01*
X-154046Y-52200D01*
X-251780D01*
G02X-253053Y-51673I0J1800D01*
G01X-255073Y-49653D01*
G02X-255600Y-48380I1273J1273D01*
G01Y32880D01*
G02X-255073Y34153I1800J0D01*
G01X-253053Y36173D01*
G02X-251780Y36700I1273J-1273D01*
G01X-218290D01*
G03X-217941Y37296I0J400D01*
G02X-218246Y38463I2081J1167D01*
G02X-213474I2386J0D01*
G02X-213779Y37296I-2386J0D01*
G03X-213430Y36700I349J-196D01*
G01X-148820D01*
G02X-147547Y36173I0J-1800D01*
G01X-143374Y32000D01*
X-45246D01*
X-40900Y36346D01*
Y84080D01*
G02X-40373Y85353I1800J0D01*
G01X-38353Y87373D01*
G02X-37080Y87900I1273J-1273D01*
G37*
G36*
G01X23415Y26365D02*
G02X21711Y28500I485J2135D01*
G02X23900Y30689I2189J0D01*
G02X26085Y28635I0J-2189D01*
G02X27760Y26860I-485J-2135D01*
G02X29589Y24700I-360J-2159D01*
G01Y24500D01*
X40321D01*
G02X42300Y25753I1979J-937D01*
G02X44489Y23564I0J-2189D01*
G02X43942Y22116I-2189J0D01*
G03Y21851I150J-132D01*
G02X44489Y20403I-1642J-1448D01*
G02X43021Y18336I-2189J0D01*
G03X42870Y17676I132J-378D01*
G01X45311Y15234D01*
G03X45904Y15264I283J283D01*
G02X47600Y16069I1696J-1384D01*
G02X49789Y13880I0J-2189D01*
G02X49242Y12432I-2189J0D01*
G03Y12168I150J-132D01*
G02X49789Y10720I-1642J-1448D01*
G02X47600Y8531I-2189J0D01*
G02X45614Y9800I0J2189D01*
G01X44420D01*
G02X43147Y10327I0J1800D01*
G01X39274Y14200D01*
X38789D01*
X38786Y14002D01*
G02X38239Y12581I-2189J27D01*
G03Y12317I150J-132D01*
G02X38786Y10869I-1642J-1448D01*
G02X36597Y8680I-2189J0D01*
G02X34611Y9949I0J2189D01*
G01X-49440D01*
G03X-49758Y9306I0J-400D01*
G02X-49311Y7980I-1742J-1326D01*
G02X-49858Y6532I-2189J0D01*
G03Y6268I150J-132D01*
G02X-49311Y4820I-1642J-1448D01*
G02X-53689I-2189J0D01*
G02X-53142Y6268I2189J0D01*
G03Y6532I-150J132D01*
G02X-53689Y7980I1642J1448D01*
G02X-53242Y9306I2189J0D01*
G03X-53560Y9949I-318J242D01*
G01X-101090D01*
G03X-101431Y9340I0J-400D01*
G02X-101111Y8200I-1869J-1141D01*
G02X-103300Y6011I-2189J0D01*
G02X-104153Y6184I0J2189D01*
G01X-104191Y6200D01*
X-147872D01*
X-148700Y5372D01*
Y3801D01*
G02X-148314Y2500I-2000J-1301D01*
G02X-148609Y1350I-2386J0D01*
G02X-148314Y200I-2091J-1150D01*
G02X-150700Y-2186I-2386J0D01*
G02X-151950Y-1832I0J2386D01*
G02X-154450I-1250J2033D01*
G02X-155700Y-2186I-1250J2033D01*
G02X-156556Y-2027I0J2386D01*
G03X-157100Y-2400I-144J-373D01*
G01Y-36323D01*
G02X-157627Y-37596I-1800J0D01*
G01X-158764Y-38734D01*
G03X-158499Y-39416I283J-283D01*
G02X-157350Y-39768I-101J-2384D01*
G02X-154850I1250J-2033D01*
G02X-152350I1250J-2033D01*
G02X-151100Y-39414I1250J-2033D01*
G02X-148714Y-41800I0J-2386D01*
G02X-149099Y-43100I-2386J0D01*
G02X-148714Y-44400I-2001J-1300D01*
G02X-151100Y-46786I-2386J0D01*
G02X-152350Y-46432I0J2386D01*
G02X-154850I-1250J2033D01*
G02X-157350I-1250J2033D01*
G02X-158600Y-46786I-1250J2033D01*
G02X-160986Y-44400I0J2386D01*
G02X-160601Y-43100I2386J0D01*
G02X-160986Y-41800I2001J1300D01*
G02X-160730Y-40724I2386J0D01*
G03X-161087Y-40144I-357J180D01*
G01X-229610D01*
G02X-231596Y-41413I-1986J920D01*
G02X-233785Y-39223I0J2189D01*
G02X-233238Y-37776I2189J0D01*
G03Y-37511I-150J132D01*
G02X-233785Y-36063I1642J1448D01*
G02X-233424Y-34858I2189J0D01*
G03X-233758Y-34238I-334J220D01*
G01X-242114D01*
G02X-243650Y-35460I-1986J920D01*
G03X-243806Y-35690I41J-196D01*
G02X-243774Y-36063I-2157J-373D01*
G02X-244321Y-37511I-2189J0D01*
G03Y-37776I150J-132D01*
G02X-243774Y-39223I-1642J-1448D01*
G02X-248153I-2189J0D01*
G02X-247606Y-37776I2189J0D01*
G03Y-37511I-150J132D01*
G02X-248153Y-36063I1642J1448D01*
G02X-246413Y-33921I2189J0D01*
G03X-246257Y-33691I-41J196D01*
G02X-246289Y-33318I2157J373D01*
G02X-245742Y-31870I2189J0D01*
G03Y-31606I-150J132D01*
G02X-246289Y-30158I1642J1448D01*
G02X-246284Y-30002I2189J1D01*
G03X-246624Y-29578I-399J29D01*
G02X-248492Y-27412I321J2166D01*
G02X-247945Y-25964I2189J0D01*
G03Y-25700I-150J132D01*
G02X-248492Y-24252I1642J1448D01*
G02X-247152Y-22234I2189J0D01*
G03X-246935Y-21718I-155J369D01*
G02X-247089Y-20911I2035J807D01*
G02X-242711I2189J0D01*
G02X-243532Y-22620I-2189J0D01*
G03X-243282Y-23332I250J-312D01*
G01X-230172D01*
G03X-229806Y-22772I0J400D01*
G02X-229989Y-21895I2006J877D01*
G02X-229240Y-20246I2189J0D01*
G03X-229246Y-19638I-263J301D01*
G02X-230031Y-17958I1404J1680D01*
G02X-225653I2189J0D01*
G02X-226402Y-19608I-2189J0D01*
G03X-226396Y-20216I263J-301D01*
G02X-225611Y-21895I-1404J-1680D01*
G02X-225794Y-22772I-2189J0D01*
G03X-225428Y-23332I367J-160D01*
G01X-213916D01*
G03X-213542Y-22788I0J400D01*
G02X-213689Y-22000I2042J788D01*
G02X-211682Y-19818I2189J0D01*
G02X-209682Y-17818I2182J-182D01*
G02X-207500Y-15811I2182J-182D01*
G02X-205311Y-18000I0J-2189D01*
G02X-207318Y-20182I-2189J0D01*
G02X-209318Y-22182I-2182J182D01*
G02X-209458Y-22788I-2182J182D01*
G03X-209084Y-23332I373J-144D01*
G01X-194355D01*
G03X-194072Y-22649I0J400D01*
G01X-195100Y-21621D01*
Y25321D01*
X-192921Y27500D01*
X-176179D01*
X-173800Y25121D01*
Y22292D01*
G03X-173117Y22009I400J0D01*
G01X-171153Y23973D01*
G02X-169880Y24500I1273J-1273D01*
G01X23564D01*
G03X23879Y25147I0J400D01*
G02X23415Y26365I1721J1353D01*
G37*
G54D29*
X-204724Y-135827D03*
X204725D03*
X-251968Y127953D03*
X251969D03*
G54D28*
X-251968Y108268D03*
G54D31*
X130684Y-141802D03*
X164148D03*
G54D32*
X-161577Y-131887D03*
X-130081D03*
G54D34*
X27900Y-140300D03*
X33268Y-139500D03*
X28300Y-127900D03*
X33268Y-131800D03*
X113800Y-98400D03*
X-212300Y-88200D03*
X-120100Y-83700D03*
X124100Y-87327D03*
X-178400Y-77527D03*
X-122200Y-53900D03*
X256714Y-56200D03*
X258782Y-26637D03*
X-205112Y-8160D03*
X-214300Y-5500D03*
X186127Y42200D03*
X245463Y37060D03*
X-9968Y44000D03*
X154400Y48739D03*
X-22602Y54668D03*
X154900Y56000D03*
X245463Y57630D03*
X-55650Y90700D03*
X168800Y89575D03*
G54D30*
X36811Y-143700D03*
X-103000Y-114200D03*
X-97684D03*
X83400Y-107616D03*
X82300Y-94800D03*
X143350Y-79900D03*
X-198911Y-56809D03*
X-188700D03*
X216527Y-36000D03*
X192200Y-23622D03*
X-238100Y-10279D03*
X-22000Y-9800D03*
X235644Y-10900D03*
X-110300Y34975D03*
X-63781Y38200D03*
X42518Y39900D03*
X154170Y39200D03*
X-207800Y47120D03*
X-18800Y48500D03*
X-15700Y54127D03*
X181800Y54448D03*
X6500Y59886D03*
X191843Y62196D03*
X-7185Y84000D03*
X-107500Y92300D03*
X192800Y85000D03*
X140242Y107200D03*
X16732Y113500D03*
X215400Y125800D03*
X111027Y-52850D03*
G54D33*
X-13470Y-132184D03*
X13302D03*
G54D35*
X-232395Y3695D03*
X186897Y35433D03*
X223313Y117825D03*
%LPD*%
G75*
G36*
G01X-193600Y24700D02*
X-192300Y26000D01*
X-176800D01*
X-175300Y24500D01*
Y-21100D01*
X-176900Y-22700D01*
X-191900D01*
X-193600Y-21000D01*
Y24700D01*
G37*
%LPC*%
G75*
G54D34*
X-181000Y900D03*
%LPD*%
G75*
G54D10*
X-263700Y-33700D03*
X-263600Y-21900D03*
Y-9600D03*
X-263400Y-1300D03*
X-259900Y-77100D03*
X-246900Y-44000D03*
X-245100Y-69800D03*
X-245700Y-1800D03*
X-235400Y-70100D03*
X-232900D03*
X-230400D03*
X-231600Y-55300D03*
X-232100Y-44700D03*
X-223476Y5150D03*
Y2450D03*
X-214300Y-5500D03*
X-220976Y5150D03*
X-218476D03*
Y2450D03*
X-220976D03*
X-219600Y29400D03*
X-215860Y38463D03*
X-205400Y-102500D03*
X-208700Y-83900D03*
X-206200D03*
X-212300Y-88200D03*
X-208700Y-81300D03*
X-206200D03*
X-205112Y-8160D03*
X-196300Y-102000D03*
X-203700Y-83900D03*
X-201200D03*
Y-81300D03*
X-203700D03*
X-199500Y20600D03*
X-199600Y27700D03*
X-194391Y-42600D03*
X-196049Y-11900D03*
X-184000Y-93700D03*
X-187900Y-75400D03*
X-186100Y-61800D03*
X-180000Y-18200D03*
X-182500D03*
Y-20500D03*
X-180000D03*
X-181000Y900D03*
X-181900Y23800D03*
X-184400D03*
Y21500D03*
X-181900D03*
X-178400Y-77527D03*
X-177500Y-18200D03*
Y-20500D03*
X-179400Y21500D03*
Y23800D03*
X-174400Y29700D03*
X-166500Y-69500D03*
X-167600Y-61700D03*
X-169500Y25800D03*
X-168500Y40400D03*
X-156100Y-62400D03*
Y-44400D03*
X-158600D03*
Y-41800D03*
X-156100D03*
X-155200Y-25900D03*
X-155700Y200D03*
Y2500D03*
X-151100Y-41800D03*
X-153600D03*
X-151100Y-44400D03*
X-153600D03*
X-152600Y-25900D03*
X-150700Y200D03*
X-153200D03*
X-150700Y2500D03*
X-153200D03*
X-150600Y42400D03*
Y39900D03*
X-152900D03*
Y42400D03*
X-150600Y44900D03*
X-152900D03*
X-133500Y-117839D03*
Y-114839D03*
Y-111839D03*
Y-104700D03*
Y-101700D03*
Y-98700D03*
X-136800Y-83400D03*
X-130900Y19400D03*
X-121500Y-117839D03*
X-125500D03*
X-129500D03*
Y-98700D03*
X-125500D03*
X-121500D03*
X-122200Y-53900D03*
X-117500Y-117839D03*
Y-98700D03*
X-112900Y-93900D03*
X-120100Y-83700D03*
X-78500Y-107400D03*
Y-104295D03*
X-74000Y46600D03*
X-71500D03*
X-69000D03*
X-68400Y90700D03*
X-55650D03*
X-51871Y-65929D03*
X-50700Y90700D03*
X-38287Y-138300D03*
X-29500Y-120700D03*
X-32000D03*
X-33332Y66400D03*
X-27200Y-125158D03*
X-24500Y-120700D03*
X-27000D03*
X-27200Y-114500D03*
X-22602Y54668D03*
X-22000Y106700D03*
X-24500D03*
X-15700Y-73100D03*
X-19500Y106700D03*
X-4494Y-132800D03*
X-5478Y-120900D03*
X-6600Y-49300D03*
Y-46700D03*
X-9968Y44000D03*
X-4100Y-49300D03*
X-1600D03*
X900D03*
Y-46700D03*
X-1600D03*
X-4100D03*
X5349Y-132800D03*
X4364Y-120900D03*
X15790Y89900D03*
X27900Y-140300D03*
X28300Y-127900D03*
X33268Y-139500D03*
X35000Y-126473D03*
X33268Y-131800D03*
X32200Y-123300D03*
X35300Y-111300D03*
X32800D03*
X30300D03*
X33400Y-73200D03*
X32399Y42700D03*
X34899D03*
X37399D03*
X38000Y90700D03*
X53100Y-73200D03*
X50650Y90700D03*
X55900Y-115900D03*
X59242Y-88500D03*
X54200Y-24700D03*
X55300Y90700D03*
X62400Y-88500D03*
X64600Y-73200D03*
X67500Y-24700D03*
X66900Y-4900D03*
X67360Y61637D03*
X69427Y91100D03*
X77900Y-71900D03*
X75400Y-69400D03*
X77800Y-50220D03*
Y-52720D03*
Y-55221D03*
X76800Y-30800D03*
X76027Y61100D03*
X79700Y-88100D03*
X82300D03*
X79700Y-83100D03*
Y-85600D03*
X82300D03*
Y-83100D03*
X80400Y-55221D03*
Y-52720D03*
Y-50220D03*
X102500Y-91500D03*
Y-86500D03*
Y-89000D03*
X105100Y-91500D03*
Y-89000D03*
Y-86500D03*
X112200Y-77000D03*
X113800Y-98400D03*
X115200Y-44000D03*
X114373Y-47600D03*
X127500Y-98500D03*
X124500D03*
X124100Y-87327D03*
X122100Y-50300D03*
Y-52800D03*
Y-47800D03*
X121036Y64354D03*
X121300Y69100D03*
X127643Y95800D03*
X128300Y122300D03*
Y124800D03*
Y127300D03*
X133500Y-104697D03*
Y-101697D03*
X130500Y-98500D03*
X143027Y15197D03*
X144600Y34700D03*
X144000Y126200D03*
X153200Y28100D03*
X152800Y44100D03*
X149000Y126200D03*
X146500D03*
X154400Y48739D03*
X154900Y56000D03*
X168800Y89575D03*
X172400Y-27300D03*
Y-21200D03*
Y-14900D03*
X173000Y28200D03*
Y30700D03*
X171738Y95800D03*
X186127Y42200D03*
X217100Y34900D03*
X219600D03*
X214100Y95800D03*
X218982D03*
X222100Y34900D03*
X233972Y-35700D03*
X236400Y40800D03*
Y61370D03*
X237712Y-26637D03*
X245463Y37060D03*
Y57630D03*
X256714Y-56200D03*
X255041Y-35700D03*
X258782Y-26637D03*
G54D20*
X-16305Y-126869D03*
X16137D03*
G54D11*
X-253000Y73617D03*
X-121174Y-35675D03*
Y-3937D03*
X-90551Y-129921D03*
Y129921D03*
X90551Y-129921D03*
Y129921D03*
G54D21*
X126461Y-71342D03*
X221737D03*
G54D12*
X-251968Y127953D03*
X-204724Y-135827D03*
X204725D03*
X251969Y127953D03*
G54D22*
X130684Y-141802D03*
X164148D03*
G54D13*
X-248900Y-40596D03*
Y-34690D03*
Y-28785D03*
Y-22880D03*
X-248200Y-15595D03*
X-244100Y-33318D03*
X-245964Y-36063D03*
Y-39223D03*
X-244100Y-30158D03*
X-246303Y-27412D03*
Y-24252D03*
X-244900Y-20911D03*
X-231596Y-39223D03*
Y-36063D03*
X-238100Y-10279D03*
X-234800Y84800D03*
X-227842Y-17958D03*
X-227800Y-21895D03*
X-222800Y84800D03*
X-214700Y78600D03*
X-208784Y-34473D03*
X-211500Y-22000D03*
X-209500Y-20000D03*
X-207500Y-18000D03*
X-207800Y47120D03*
X-198911Y-56809D03*
X-203068Y-34473D03*
X-197200Y58700D03*
X-204100Y78600D03*
X-197000Y78500D03*
X-188700Y-56809D03*
X-185921Y-28700D03*
X-186600Y59500D03*
X-182851Y61900D03*
X-154096Y-75100D03*
X-148800Y-73400D03*
X-146500Y68438D03*
X-145435Y-75100D03*
X-138500Y65288D03*
X-144500Y70013D03*
X-142500Y73162D03*
X-140500Y71587D03*
X-132443Y-75100D03*
X-136500Y66863D03*
X-134600Y74737D03*
X-128112Y-75100D03*
X-123782D03*
X-119900Y-124773D03*
X-118000Y-67000D03*
X-116000Y-65000D03*
X-114000Y-63000D03*
X-106627Y-124773D03*
X-111943D03*
X-111920Y-83940D03*
X-110500Y-25141D03*
X-109700Y-18900D03*
X-110500Y-21980D03*
X-113000Y25600D03*
Y19300D03*
X-110300Y34975D03*
X-108400Y63300D03*
X-107500Y85500D03*
Y92300D03*
X-103000Y-114200D03*
X-97684D03*
X-98700Y-91900D03*
X-103800Y-40889D03*
X-101500Y-35400D03*
X-103800Y-37729D03*
Y-33015D03*
X-101800Y-27300D03*
X-103800Y-29855D03*
X-99500Y8300D03*
X-103300Y8200D03*
X-100900Y46391D03*
X-103200Y44816D03*
X-100900Y49540D03*
X-103200Y47965D03*
Y51115D03*
X-100900Y43241D03*
Y52690D03*
X-103200Y57414D03*
X-100900Y55839D03*
X-103200Y54265D03*
X-100900Y58989D03*
X-103600Y63300D03*
X-103200Y60564D03*
X-100900Y62139D03*
X-98800Y96200D03*
X-89000Y-89060D03*
Y-86501D03*
X-89200Y-68442D03*
X-94500Y-60568D03*
X-89200D03*
X-94900Y-41000D03*
X-91400Y-41200D03*
X-89900Y-39500D03*
X-91939Y-37739D03*
Y-34579D03*
X-88800Y-25900D03*
Y-30647D03*
X-91939Y-29865D03*
Y-26705D03*
X-88800Y-16400D03*
X-91939Y-15692D03*
X-88800Y-11750D03*
X-91939Y-12532D03*
X-94000Y41666D03*
X-88600Y44816D03*
X-89200Y59000D03*
X-94700Y63713D03*
X-93500Y66863D03*
X-91200Y65288D03*
X-94700Y76312D03*
X-93500Y73162D03*
Y70013D03*
X-91200Y68438D03*
Y74737D03*
Y71587D03*
X-94800Y82200D03*
X-89100Y79462D03*
X-90800Y77887D03*
X-88700Y84186D03*
X-88300Y90600D03*
X-89900Y85761D03*
X-94400Y97200D03*
X-96100Y99100D03*
X-82939Y-101200D03*
X-82900Y-93300D03*
X-83000Y8000D03*
X-72873Y-110011D03*
Y-87147D03*
X-79593D03*
X-76250Y-86950D03*
X-72900Y-82000D03*
X-76250Y-73400D03*
X-71460Y-60288D03*
Y-54001D03*
X-69527Y-104295D03*
X-63200Y-99162D03*
X-69500Y-95600D03*
X-69527Y-98579D03*
X-63800Y-72500D03*
X-69500D03*
X-63781Y38200D03*
X-60900Y-146900D03*
X-60700Y-114300D03*
X-58900Y-110327D03*
X-55500Y-99225D03*
X-55437Y-106900D03*
X-57012Y-105500D03*
X-55500Y-95225D03*
Y-91225D03*
X-61600Y-97588D03*
X-58400Y-67600D03*
X-59977Y-65940D03*
X-47468Y-136900D03*
X-50713Y-113673D03*
X-51500Y-99225D03*
X-47500D03*
X-47563Y-105500D03*
X-53862D03*
X-47500Y-91225D03*
Y-95225D03*
X-51500D03*
Y-91225D03*
X-50713Y-82800D03*
X-52287Y-84500D03*
X-52400Y-72500D03*
X-51500Y4820D03*
Y7980D03*
X-53700Y42600D03*
X-53600Y48200D03*
X-47800Y48100D03*
X-38800Y-99900D03*
X-45988Y-106900D03*
X-38800Y-102200D03*
Y-97588D03*
X-39800Y-1500D03*
X-36700Y-96013D03*
X-35000Y-92863D03*
X-33300Y-94438D03*
X-32000Y-30400D03*
X-30100Y-24900D03*
X-37000Y-29000D03*
Y-25840D03*
X-32400Y-16500D03*
X-34000Y-20340D03*
Y-23500D03*
X-37000Y-18000D03*
X-29800Y-11000D03*
X-34000Y-12500D03*
X-37000Y-14840D03*
X-34000Y-9340D03*
X-32300Y-5600D03*
X-37000Y-7000D03*
Y-3840D03*
X-29900Y71300D03*
Y73800D03*
X-32100Y83820D03*
Y86980D03*
X-23800Y-98136D03*
X-22380Y-91900D03*
X-29600Y-92420D03*
X-23400Y-84400D03*
X-21600Y-87700D03*
X-28900Y-19100D03*
X-22000Y-9800D03*
X-29400Y49200D03*
Y43900D03*
X-19220Y-91900D03*
X-20800Y-89700D03*
X-14136Y-89579D03*
X-17296D03*
X-14200Y-65700D03*
X-17000Y-11800D03*
X-18700Y-14000D03*
X-18800Y48500D03*
X-15700Y54127D03*
X-20788Y89900D03*
X-15360Y103587D03*
X-11400Y-118600D03*
X-11500Y-107000D03*
X-11200Y-86600D03*
X-5472Y-89579D03*
X-8632D03*
X-9200Y-65700D03*
X-11700D03*
X-8700Y49400D03*
X-5159Y57658D03*
X-9159D03*
X-5159Y61658D03*
X-9159D03*
X-5159Y65658D03*
X-9159D03*
X-7185Y84000D03*
X-12200Y103587D03*
X-8858Y115500D03*
X-4921Y117000D03*
X3380Y-135805D03*
X-2525D03*
X2008Y-137985D03*
X-1152D03*
X-3510Y-116900D03*
X2396Y-117800D03*
X2227Y-109528D03*
X-3341D03*
X2227Y-113072D03*
X-3341D03*
X-2137Y-92900D03*
X1023D03*
X-600Y-89600D03*
X-4000Y-86200D03*
X-1500Y-78000D03*
X3500D03*
X1000D03*
Y43100D03*
X-1159Y57658D03*
Y61658D03*
Y65658D03*
X3300Y69190D03*
X1700Y72300D03*
X984Y103000D03*
X-2953Y118500D03*
X2953Y121500D03*
X-984Y120000D03*
X10300Y-86700D03*
X7518Y-89579D03*
X4358D03*
X11000Y54500D03*
X9000Y52500D03*
X6500Y59886D03*
X4900Y66973D03*
X10800Y101000D03*
X6890Y124500D03*
X8858Y126000D03*
X4921Y123000D03*
X19270Y-115600D03*
X17000Y-106600D03*
X17100Y-86500D03*
X13022Y-89579D03*
X16182D03*
X13000Y56500D03*
X17500Y65600D03*
X17700Y76200D03*
X14764Y105000D03*
X12795Y103000D03*
X16732Y113500D03*
X23300Y-115600D03*
X26200Y-99900D03*
X25500Y-106600D03*
X21200Y-95400D03*
X27000Y-88800D03*
X27400Y24700D03*
X25600Y26500D03*
X23900Y28500D03*
X23200Y42800D03*
X36811Y-143700D03*
X36597Y10869D03*
Y14029D03*
X41136Y-139400D03*
X44296D03*
X39000Y-116300D03*
X40500Y-92554D03*
X39600Y-95400D03*
X39000Y-89400D03*
X38078Y-63922D03*
X40800Y9900D03*
X38500Y19300D03*
Y24300D03*
X42300Y20403D03*
Y23564D03*
X42518Y39900D03*
X45861Y-141002D03*
X49021D03*
X50585Y-139400D03*
X53745D03*
X50700Y-78900D03*
X46500Y-63100D03*
X51300Y14800D03*
X47600Y13880D03*
Y10720D03*
X48500Y19500D03*
X47834Y43261D03*
X55310Y-141002D03*
X58470D03*
X60034Y-139400D03*
X54527Y-69300D03*
X57873D03*
X57100Y32500D03*
X59100Y30500D03*
X61000Y34500D03*
X69882Y-143700D03*
X63194Y-139400D03*
X70000Y-123127D03*
X70200Y-96000D03*
X63450Y-97650D03*
X66900Y-1400D03*
X77300Y-140800D03*
X76100Y-123127D03*
X77500Y-112700D03*
X75800Y-114800D03*
X75300Y31300D03*
X75311Y38280D03*
Y35120D03*
X73000Y45800D03*
X78200Y55060D03*
Y51900D03*
X71300Y65100D03*
Y71590D03*
X82900Y-117400D03*
X83400Y-107616D03*
X81600Y-102900D03*
X82300Y-94800D03*
X83400Y-68000D03*
X86300Y-2600D03*
X84200Y-1100D03*
X79113Y40876D03*
X81113Y50335D03*
Y47175D03*
X79113Y44036D03*
X82600Y55842D03*
X84200Y58991D03*
X79800Y57416D03*
X84200Y66865D03*
X82000Y60566D03*
X81600Y90700D03*
X91200Y-112100D03*
Y-106327D03*
X92200Y-90785D03*
X90200Y-68200D03*
X91500Y-66600D03*
X90500Y-71200D03*
X92000Y-69700D03*
Y-50300D03*
Y-54400D03*
X89900Y-43600D03*
X91700Y-27200D03*
Y-21000D03*
X91300Y4100D03*
X91700Y11300D03*
Y24500D03*
X90200Y34500D03*
X91743Y31438D03*
Y28278D03*
X89400Y42900D03*
X94300Y42500D03*
X91743Y37726D03*
Y40886D03*
X89300Y51117D03*
X94600Y49542D03*
X92359Y47186D03*
Y44025D03*
X93700Y55842D03*
X94500Y63716D03*
Y66865D03*
X89500Y62141D03*
X91000Y65290D03*
X93300Y71590D03*
X94800Y73164D03*
X88000Y101000D03*
X89500Y105000D03*
X91000Y103000D03*
X101300Y-65000D03*
X103600Y-7100D03*
X102900Y-1100D03*
X97250Y2250D03*
X101600Y51117D03*
X101500Y44818D03*
X103500Y64500D03*
X99900Y65290D03*
X100200Y74739D03*
X100400Y68440D03*
X99300Y92489D03*
X99900Y85763D03*
X100464Y88336D03*
X100400Y107300D03*
X102100Y108900D03*
X109200Y-74742D03*
X109173Y-71592D03*
X107824Y-61376D03*
X107094Y-64006D03*
X111000Y-58566D03*
X111027Y-52850D03*
X110000Y-41200D03*
X109600Y-35800D03*
X111500Y-39500D03*
X111200Y-34000D03*
X105800Y-8800D03*
X107989Y25128D03*
Y28288D03*
X110400Y42900D03*
X104553Y40963D03*
X108327Y44837D03*
X104553Y44123D03*
X106700Y57416D03*
X105500Y64500D03*
X107500D03*
X112800Y-131500D03*
X116800D03*
X114373Y-55900D03*
X113000Y-37600D03*
X112800Y-3100D03*
X112600Y41100D03*
X114900Y75500D03*
X120400Y73300D03*
X112400Y84100D03*
Y79464D03*
X116500Y82300D03*
X118700Y91400D03*
X112400Y90895D03*
Y99900D03*
X128800Y-131500D03*
X124800D03*
X120800D03*
X124500Y27900D03*
X124400Y33002D03*
Y36162D03*
X123600Y48739D03*
X126000Y54055D03*
X126027Y69400D03*
X122100Y75000D03*
X126100Y79300D03*
X132800Y-131500D03*
X136000Y-35800D03*
X129300Y37300D03*
X129373Y48739D03*
Y56900D03*
Y81700D03*
X132500Y85763D03*
X129373Y91800D03*
X134000Y88336D03*
X138400Y-98100D03*
X143350Y-79900D03*
X138000Y-34000D03*
X140000Y-37600D03*
X140900Y56700D03*
X139000Y52700D03*
X137400Y94100D03*
X140242Y107200D03*
X145600Y-75900D03*
X151886Y-79900D03*
X149000Y-73400D03*
X146900Y-71300D03*
X153500Y-21500D03*
Y-15000D03*
X149800Y79000D03*
X152000Y116900D03*
Y119200D03*
X154744Y-77500D03*
X160300Y-2900D03*
X154170Y39200D03*
X159300Y71000D03*
X158300Y110100D03*
X156800Y112900D03*
X153900Y126000D03*
X160719Y126112D03*
X157559D03*
X169800Y-75400D03*
X162790Y45700D03*
X162400Y93600D03*
X165900Y117400D03*
X165400Y124700D03*
X170158Y126104D03*
X175039Y-114600D03*
X173200Y-67300D03*
X175600Y-69100D03*
X173200Y-2900D03*
X178900Y124400D03*
X173318Y126104D03*
X185039Y-114600D03*
X186200Y59500D03*
X181800Y54448D03*
X184773Y86327D03*
X184100Y110700D03*
X183900Y116700D03*
X195039Y-114600D03*
X193100Y-53460D03*
X192800Y-36300D03*
X187700Y-31496D03*
X192200Y-23622D03*
X195300Y-14900D03*
X194200Y-2900D03*
X195100Y3200D03*
X190800Y42300D03*
X194813Y43786D03*
X191843Y62196D03*
X192800Y85000D03*
X187300Y105600D03*
X189500Y103500D03*
X191200Y101500D03*
X187700Y111420D03*
Y114580D03*
X189500Y125600D03*
X196400Y-88500D03*
X198700D03*
X198917Y-33853D03*
Y-37013D03*
X199100Y-29400D03*
X198917Y-25202D03*
Y-22042D03*
Y-13391D03*
Y-10231D03*
Y-1580D03*
Y1580D03*
X199300Y40700D03*
X200541Y46002D03*
X197973Y43786D03*
X203701Y46002D03*
X199100Y121700D03*
X203701Y118400D03*
X200541D03*
X201654Y124269D03*
X212000Y29300D03*
Y27000D03*
Y31600D03*
X204500Y40900D03*
X211500D03*
X206287Y44003D03*
X209447D03*
X204900Y62200D03*
X205000Y112000D03*
X205300Y121100D03*
X204814Y124269D03*
X220300Y-35900D03*
X212300Y-36000D03*
X216527D03*
X218900Y46300D03*
X219200Y74700D03*
X215400Y125800D03*
X220876Y-31108D03*
Y-27948D03*
Y-19414D03*
Y-16254D03*
Y-7486D03*
Y-4326D03*
Y7486D03*
Y4326D03*
X225478Y13391D03*
Y10231D03*
X220900Y51660D03*
Y54820D03*
X221406Y63042D03*
X220900Y67014D03*
Y70174D03*
X227700Y81100D03*
X224900Y102900D03*
X229000Y-22565D03*
X235644Y-10900D03*
X241400Y99200D03*
X242000Y103600D03*
Y107537D03*
X250300Y-22565D03*
X254900Y34900D03*
X260800Y39127D03*
X254900Y55800D03*
X260800Y59697D03*
G54D23*
X176575Y-143307D03*
X193504D03*
G54D14*
X-232395Y-75045D03*
X-105544Y-139900D03*
X124887Y117825D03*
X186897Y-43307D03*
G54D24*
G01X-89900Y85761D02*
X-97539D01*
X-101000Y82300D01*
X-219500D01*
X-220700Y81100D01*
Y45100D01*
X-221900Y43900D01*
X-258900D01*
X-260100Y42700D01*
Y-65200D01*
X-258900Y-66400D01*
X-164700D01*
X-163500Y-67600D01*
Y-125700D01*
X-162300Y-126900D01*
X-125400D01*
X-124200Y-128100D01*
Y-145700D01*
X-123000Y-146900D01*
X-60900D01*
G01X-88700Y84186D02*
X-96714D01*
X-100400Y80500D01*
X-217900D01*
X-219100Y79300D01*
Y43500D01*
X-220300Y42300D01*
X-257900D01*
X-258800Y41400D01*
Y-63900D01*
X-257900Y-64800D01*
X-163200D01*
X-162000Y-66000D01*
Y-124100D01*
X-160800Y-125300D01*
X-123600D01*
X-122400Y-126500D01*
Y-143600D01*
X-121000Y-145000D01*
X-36400D01*
X-35200Y-143800D01*
Y-118300D01*
X-34000Y-117100D01*
X-12700D01*
X-11500Y-115900D01*
Y-107000D01*
G01X-32100Y86980D02*
X-32980Y86100D01*
X-37080D01*
X-39100Y84080D01*
Y35600D01*
X-44500Y30200D01*
X-144120D01*
X-148820Y34900D01*
X-251780D01*
X-253800Y32880D01*
Y-48380D01*
X-251780Y-50400D01*
X-153300D01*
X-152100Y-51600D01*
Y-87880D01*
X-150080Y-89900D01*
X-111185D01*
X-109985Y-91100D01*
Y-124173D01*
X-110585Y-124773D01*
X-111943D01*
G01X-32100Y83820D02*
X-32980Y84700D01*
X-36500D01*
X-37700Y83500D01*
Y35020D01*
X-43920Y28800D01*
X-144700D01*
X-149400Y33500D01*
X-251200D01*
X-252400Y32300D01*
Y-47800D01*
X-251200Y-49000D01*
X-152720D01*
X-150700Y-51020D01*
Y-87300D01*
X-149500Y-88500D01*
X-110605D01*
X-108585Y-90520D01*
Y-124173D01*
X-107985Y-124773D01*
X-106627D01*
G01X47600Y10720D02*
X46720Y11600D01*
X44420D01*
X40020Y16000D01*
X-163500D01*
X-164700Y14800D01*
Y-30418D01*
X-166720Y-32438D01*
X-243220D01*
X-244100Y-33318D01*
G01X42300Y20403D02*
X41403Y21300D01*
X-169300D01*
X-170500Y20100D01*
Y-24512D01*
X-172520Y-26532D01*
X-245423D01*
X-246303Y-27412D01*
G01X42300Y23564D02*
X41437Y22700D01*
X-169880D01*
X-171900Y20680D01*
Y-23932D01*
X-173100Y-25132D01*
X-245423D01*
X-246303Y-24252D01*
G01X47600Y13880D02*
X46720Y13000D01*
X45000D01*
X40600Y17400D01*
X-164080D01*
X-166100Y15380D01*
Y-29838D01*
X-167300Y-31038D01*
X-243220D01*
X-244100Y-30158D01*
G01X-231596Y-39223D02*
X-230716Y-38343D01*
X-160920D01*
X-158900Y-36323D01*
Y10549D01*
X-157700Y11749D01*
X35717D01*
X36597Y10869D01*
G01X-231596Y-36063D02*
X-230716Y-36943D01*
X-161500D01*
X-160300Y-35743D01*
Y11129D01*
X-158280Y13149D01*
X35717D01*
X36597Y14029D01*
G01X-93500Y73162D02*
X-142500D01*
G01X-91200Y68438D02*
X-146500D01*
G01X-93500Y70013D02*
X-144500D01*
G01X-91200Y71587D02*
X-140500D01*
G01X-93500Y66863D02*
X-136500D01*
G01X-91200Y65288D02*
X-138500D01*
G01X-91200Y74737D02*
X-134600D01*
G01X-55437Y-106900D02*
Y-117300D01*
X-56637Y-118500D01*
X-75300D01*
X-76500Y-117300D01*
Y-94900D01*
X-79900Y-91500D01*
X-89500D01*
X-97060Y-83940D01*
X-111920D01*
G01X-17296Y-89579D02*
X-16416Y-88699D01*
Y-81600D01*
X-17616Y-80400D01*
X-90580D01*
X-92700Y-78280D01*
Y-47400D01*
X-93900Y-46200D01*
X-105508D01*
X-107529Y-44180D01*
Y-40029D01*
X-106108Y-38609D01*
X-104680D01*
X-103800Y-37729D01*
G01X-14136Y-89579D02*
X-15016Y-88699D01*
Y-81020D01*
X-17036Y-79000D01*
X-90000D01*
X-91300Y-77700D01*
Y-46820D01*
X-93320Y-44800D01*
X-104929D01*
X-106129Y-43600D01*
Y-40609D01*
X-105529Y-40009D01*
X-104680D01*
X-103800Y-40889D01*
G01X-19220Y-91900D02*
X-20100Y-92780D01*
Y-101200D01*
X-18900Y-102400D01*
X27800D01*
X29000Y-101200D01*
Y-54400D01*
X27800Y-53200D01*
X-61280D01*
X-63300Y-51180D01*
Y-9000D01*
X-64500Y-7800D01*
X-102300D01*
X-103500Y-9000D01*
Y-22241D01*
X-105520Y-24261D01*
X-109620D01*
X-110500Y-25141D01*
G01X-22380Y-91900D02*
X-21500Y-92780D01*
Y-101780D01*
X-19480Y-103800D01*
X28380D01*
X30400Y-101780D01*
Y-53820D01*
X28380Y-51800D01*
X-60700D01*
X-61900Y-50600D01*
Y-8420D01*
X-63920Y-6400D01*
X-102880D01*
X-104900Y-8420D01*
Y-21661D01*
X-106100Y-22861D01*
X-109620D01*
X-110500Y-21980D01*
G01X7518Y-89579D02*
X6638Y-90459D01*
Y-92200D01*
X7838Y-93400D01*
X17500D01*
X18800Y-92100D01*
Y-65200D01*
X17600Y-64000D01*
X-73380D01*
X-75700Y-61680D01*
Y-23000D01*
X-76900Y-21800D01*
X-96900D01*
X-98100Y-23000D01*
Y-30114D01*
X-100120Y-32135D01*
X-102920D01*
X-103800Y-33015D01*
G01X4358Y-89579D02*
X5238Y-90459D01*
Y-92780D01*
X7258Y-94800D01*
X18080D01*
X20200Y-92680D01*
Y-64620D01*
X18180Y-62600D01*
X-72800D01*
X-74300Y-61100D01*
Y-22420D01*
X-76320Y-20400D01*
X-97480D01*
X-99500Y-22420D01*
Y-29535D01*
X-100700Y-30735D01*
X-102920D01*
X-103800Y-29855D01*
G01X-8858Y115500D02*
X-55300D01*
X-71027Y99773D01*
Y50740D01*
X-72227Y49540D01*
X-100900D01*
G01X-984Y120000D02*
X-59000D01*
X-77027Y101973D01*
Y55465D01*
X-78227Y54265D01*
X-103200D01*
G01X-2953Y118500D02*
X-57700D01*
X-75027Y101173D01*
Y53890D01*
X-76227Y52690D01*
X-100900D01*
G01X-4921Y117000D02*
X-56400D01*
X-73027Y100373D01*
Y52315D01*
X-74227Y51115D01*
X-103200D01*
G01X2953Y121500D02*
X-60100D01*
X-79027Y102573D01*
Y58614D01*
X-80227Y57414D01*
X-103200D01*
G01X6890Y124500D02*
X-62400D01*
X-83027Y103873D01*
Y63339D01*
X-84227Y62139D01*
X-100900D01*
G01X4921Y123000D02*
X-61200D01*
X-81027Y103173D01*
Y61764D01*
X-82227Y60564D01*
X-103200D01*
G01X-89000Y-89060D02*
X-87947Y-90113D01*
X-78587D01*
X-74800Y-93900D01*
Y-115500D01*
X-73600Y-116700D01*
X-60100D01*
X-58900Y-115500D01*
Y-110327D01*
G01X-57012Y-105500D02*
X-59812Y-108300D01*
X-72000D01*
X-73200Y-107100D01*
Y-92700D01*
X-77200Y-88700D01*
X-86801D01*
X-89000Y-86501D01*
G01X-8632Y-89579D02*
X-7752Y-88699D01*
Y-77700D01*
X-8952Y-76500D01*
X-85280D01*
X-87300Y-74480D01*
Y-38059D01*
X-88500Y-36859D01*
X-91059D01*
X-91939Y-37739D01*
G01Y-34579D02*
X-91059Y-35459D01*
X-87920D01*
X-85900Y-37479D01*
Y-73900D01*
X-84700Y-75100D01*
X-8372D01*
X-6352Y-77120D01*
Y-88699D01*
X-5472Y-89579D01*
G01X-91939Y-26705D02*
X-91059Y-27585D01*
X-82020D01*
X-80000Y-29605D01*
Y-68300D01*
X-78800Y-69500D01*
X13282D01*
X15302Y-71520D01*
Y-88699D01*
X16182Y-89579D01*
G01X13022D02*
X13902Y-88699D01*
Y-72100D01*
X12702Y-70900D01*
X-79380D01*
X-81400Y-68880D01*
Y-30185D01*
X-82600Y-28985D01*
X-91059D01*
X-91939Y-29865D01*
G01Y-15692D02*
X-91059Y-14812D01*
X-70700D01*
X-69500Y-16012D01*
Y-56580D01*
X-67480Y-58600D01*
X22500D01*
X23700Y-59800D01*
Y-96600D01*
X22500Y-97800D01*
X1343D01*
X143Y-96600D01*
Y-93780D01*
X1023Y-92900D01*
G01X-91939Y-12532D02*
X-91059Y-13412D01*
X-70120D01*
X-68100Y-15432D01*
Y-56000D01*
X-66900Y-57200D01*
X23080D01*
X25100Y-59220D01*
Y-97180D01*
X23080Y-99200D01*
X763D01*
X-1257Y-97180D01*
Y-93780D01*
X-2137Y-92900D01*
G01X-90800Y77887D02*
X-86227D01*
X-85027Y79087D01*
Y104449D01*
X-63476Y126000D01*
X8858D01*
G01X-76250Y-86950D02*
X-71600Y-91600D01*
Y-105200D01*
X-70600Y-106200D01*
X-60900D01*
X-58500Y-103800D01*
X-55562D01*
X-53862Y-105500D01*
G01X-47468Y-136900D02*
Y-109032D01*
X-54200Y-102300D01*
X-59000D01*
X-60995Y-104295D01*
X-69527D01*
G01X-50713Y-82800D02*
X-47300D01*
X-42400Y-87700D01*
X-21600D01*
G01X-52287Y-84500D02*
X-48000D01*
X-42800Y-89700D01*
X-20800D01*
G01X44296Y-139400D02*
X43416Y-138520D01*
Y-133915D01*
X41893Y-132392D01*
X40643D01*
X39794Y-132040D01*
X39443Y-131192D01*
X39794Y-130343D01*
X40643Y-129992D01*
X41893D01*
X43416Y-128469D01*
Y-126315D01*
X41893Y-124792D01*
X40643D01*
X39794Y-124440D01*
X39443Y-123592D01*
X39794Y-122743D01*
X40643Y-122392D01*
X41893D01*
X43416Y-120869D01*
Y-45020D01*
X41396Y-43000D01*
X-50422D01*
X-51623Y-41800D01*
Y-7466D01*
X-50276Y-6120D01*
X-44060D01*
G02X-42860Y-7320I0J-1200D01*
G03X-40460Y-7320I1200J0D01*
G02X-39260Y-6120I1200J0D01*
G01X-37880D01*
X-37000Y-7000D01*
G01X41136Y-139400D02*
X42016Y-138520D01*
Y-134992D01*
G03X40816Y-133792I-1200J0D01*
G01X40643D01*
G02Y-128592I0J2600D01*
G01X40816D01*
G03Y-126192I0J1200D01*
G01X40643D01*
G02Y-120992I0J2600D01*
G01X40816D01*
G03X42016Y-119792I0J1200D01*
G01Y-45600D01*
X40816Y-44400D01*
X-51002D01*
X-53023Y-42380D01*
Y-6886D01*
X-50856Y-4720D01*
X-37880D01*
X-37000Y-3840D01*
G01X49021Y-141002D02*
X48141Y-140122D01*
Y-78475D01*
G02X49341Y-77275I1200J0D01*
G03X49341Y-74875I0J1200D01*
G02X48141Y-73675I0J1200D01*
G01Y-66955D01*
G02X49341Y-65755I1200J0D01*
G01X49810D01*
G03Y-60555I0J2600D01*
G01X49341D01*
G02Y-58155I0J1200D01*
G01X49810D01*
G03Y-52955I0J2600D01*
G01X49341D01*
G02Y-50555I0J1200D01*
G01X49810D01*
G03Y-45355I0J2600D01*
G01X49341D01*
G02X48141Y-44155I0J1200D01*
G01Y-39870D01*
X46121Y-37850D01*
X-45443D01*
X-46892Y-36401D01*
Y-12820D01*
X-45692Y-11620D01*
X-34880D01*
X-34000Y-12500D01*
G01X45861Y-141002D02*
X46741Y-140122D01*
Y-66955D01*
G02X49341Y-64355I2600J0D01*
G01X49810D01*
G03Y-61955I0J1200D01*
G01X49341D01*
G02Y-56755I0J2600D01*
G01X49810D01*
G03Y-54355I0J1200D01*
G01X49341D01*
G02Y-49155I0J2600D01*
G01X49810D01*
G03Y-46755I0J1200D01*
G01X49341D01*
G02X46741Y-44155I0J2600D01*
G01Y-40450D01*
X45541Y-39250D01*
X-46023D01*
X-48292Y-36981D01*
Y-12240D01*
X-46272Y-10220D01*
X-34880D01*
X-34000Y-9340D01*
G01X50585Y-139400D02*
X51465Y-138520D01*
Y-104769D01*
G02X54065Y-102169I2600J0D01*
G01X57200D01*
G03Y-99769I0J1200D01*
G01X54065D01*
G02Y-94569I0J2600D01*
G01X57200D01*
G03Y-92169I0J1200D01*
G01X54065D01*
G02X51465Y-89569I0J2600D01*
G01Y-80535D01*
X61300Y-70700D01*
Y-35050D01*
X60100Y-33850D01*
X-41193D01*
X-43213Y-31830D01*
Y-17740D01*
X-41193Y-15720D01*
X-37880D01*
X-37000Y-14840D01*
G01X53745Y-139400D02*
X52865Y-138520D01*
Y-137271D01*
G02X54065Y-136071I1200J0D01*
G03Y-133671I0J1200D01*
G02X52865Y-132471I0J1200D01*
G01Y-104769D01*
G02X54065Y-103569I1200J0D01*
G01X57200D01*
G03Y-98369I0J2600D01*
G01X54065D01*
G02Y-95969I0J1200D01*
G01X57200D01*
G03Y-90769I0J2600D01*
G01X54065D01*
G02X52865Y-89569I0J1200D01*
G01Y-81115D01*
X62700Y-71280D01*
Y-34470D01*
X60680Y-32450D01*
X-40613D01*
X-41813Y-31250D01*
Y-18320D01*
X-40613Y-17120D01*
X-37880D01*
X-37000Y-18000D01*
G01X60034Y-139400D02*
X60914Y-140280D01*
Y-141880D01*
X62934Y-143900D01*
X66180D01*
X68200Y-141880D01*
Y-126659D01*
G03X65600Y-124059I-2600J0D01*
G01X62600D01*
G02Y-121659I0J1200D01*
G01X65600D01*
G03Y-116459I0J2600D01*
G01X62600D01*
G02Y-114059I0J1200D01*
G01X65600D01*
G03Y-108859I0J2600D01*
G01X62600D01*
G02Y-106459I0J1200D01*
G01X65600D01*
G03X68200Y-103859I0J2600D01*
G01Y-28762D01*
X66158Y-26720D01*
X-36120D01*
X-37000Y-25840D01*
G01X63194Y-139400D02*
X62314Y-140280D01*
Y-141300D01*
X63514Y-142500D01*
X65600D01*
X66800Y-141300D01*
Y-138000D01*
G03X65600Y-136799I-1200J0D01*
G01X65235D01*
G02Y-134399I0J1200D01*
G01X65600D01*
G03Y-131999I0J1200D01*
G01X65300D01*
G02Y-129600I0J1200D01*
G01X65600D01*
G03X66800Y-128400I0J1200D01*
G01Y-126659D01*
G03X65600Y-125459I-1200J0D01*
G01X62600D01*
G02Y-120259I0J2600D01*
G01X65600D01*
G03Y-117859I0J1200D01*
G01X62600D01*
G02Y-112659I0J2600D01*
G01X65600D01*
G03Y-110259I0J1200D01*
G01X62600D01*
G02Y-105059I0J2600D01*
G01X65600D01*
G03X66800Y-103859I0J1200D01*
G01Y-29342D01*
X65578Y-28120D01*
X-36120D01*
X-37000Y-29000D01*
G01X58470Y-141002D02*
X57590Y-141882D01*
Y-147000D01*
X58790Y-148200D01*
X59890D01*
G03X61040Y-147050I0J1150D01*
G01Y-146632D01*
G02X63440I1200J0D01*
G01Y-147050D01*
G03X64590Y-148200I1150J0D01*
G01X64690D01*
G03X65840Y-147050I0J1150D01*
G01Y-146699D01*
G02X68240I1200J0D01*
G01Y-147050D01*
G03X69390Y-148200I1150J0D01*
G01X70800D01*
X72000Y-147000D01*
Y-24042D01*
X70578Y-22620D01*
X-33120D01*
X-34000Y-23500D01*
G01Y-20340D02*
X-33120Y-21220D01*
X71158D01*
X73400Y-23462D01*
Y-147580D01*
X71380Y-149600D01*
X58210D01*
X56190Y-147580D01*
Y-141882D01*
X55310Y-141002D01*
G01X-3341Y-113072D02*
X-2457D01*
X-1257Y-111872D01*
Y-108440D01*
X763Y-106420D01*
X5980D01*
X8000Y-108440D01*
Y-123180D01*
X5980Y-125200D01*
X2328D01*
X1128Y-126400D01*
Y-137105D01*
X2008Y-137985D01*
G01X2227Y-113072D02*
X1343D01*
X143Y-111872D01*
Y-109020D01*
X1343Y-107820D01*
X5400D01*
X6600Y-109020D01*
Y-122600D01*
X5400Y-123800D01*
X1748D01*
X-272Y-125820D01*
Y-137105D01*
X-1152Y-137985D01*
G01X984Y103000D02*
Y95200D01*
X2184Y94000D01*
X44000D01*
X55100Y82900D01*
Y30300D01*
X59200Y26200D01*
Y-10700D01*
X62300Y-13800D01*
X75500D01*
X80200Y-18500D01*
Y-30700D01*
X84200Y-34700D01*
Y-64200D01*
X85400Y-65400D01*
X90300D01*
X91500Y-66600D01*
G01X57100Y32500D02*
Y89300D01*
X65900Y98100D01*
X183573D01*
X184773Y96900D01*
Y86327D01*
G01X59100Y30500D02*
Y88200D01*
X67000Y96100D01*
X117100D01*
X121400Y91800D01*
X129373D01*
G01X61000Y34500D02*
Y87200D01*
X67900Y94100D01*
X116000D01*
X118700Y91400D01*
G01X220876Y-27948D02*
X219995Y-28828D01*
X212972D01*
X201500Y-40300D01*
X192980D01*
X181694Y-29014D01*
X84900D01*
X83700Y-27814D01*
Y-12420D01*
X80780Y-9500D01*
X65800D01*
X64600Y-8300D01*
Y46855D01*
X65800Y48055D01*
X80233D01*
X81113Y47175D01*
G01X220876Y-31108D02*
X219996Y-30228D01*
X213552D01*
X202080Y-41700D01*
X192400D01*
X181114Y-30414D01*
X84320D01*
X82300Y-28394D01*
Y-13000D01*
X80200Y-10900D01*
X65220D01*
X63200Y-8880D01*
Y47435D01*
X65220Y49455D01*
X80233D01*
X81113Y50335D01*
G01X79113Y44036D02*
X78233Y43156D01*
X71820D01*
X69800Y41136D01*
Y-3780D01*
X72220Y-6200D01*
X87100D01*
X88300Y-7400D01*
Y-23180D01*
X90320Y-25200D01*
X184920D01*
X195853Y-36133D01*
X198037D01*
X198917Y-37013D01*
G01X79113Y40876D02*
X78233Y41756D01*
X72400D01*
X71200Y40556D01*
Y-3200D01*
X72800Y-4800D01*
X87680D01*
X89700Y-6820D01*
Y-22600D01*
X90900Y-23800D01*
X185500D01*
X196433Y-34733D01*
X198037D01*
X198917Y-33853D01*
G01Y-25202D02*
X199797Y-24322D01*
X202180D01*
X204200Y-22302D01*
Y-19420D01*
X202180Y-17400D01*
X97000D01*
X95300Y-15700D01*
Y280D01*
X93280Y2300D01*
X83200D01*
X82000Y3500D01*
Y35380D01*
X79980Y37400D01*
X76191D01*
X75311Y38280D01*
G01X198917Y-22042D02*
X199797Y-22922D01*
X201600D01*
X202800Y-21722D01*
Y-20000D01*
X201600Y-18800D01*
X96420D01*
X93900Y-16280D01*
Y-300D01*
X92700Y900D01*
X82620D01*
X80600Y2920D01*
Y34800D01*
X79400Y36000D01*
X76191D01*
X75311Y35120D01*
G01X78200Y55060D02*
X79080Y54180D01*
X86600D01*
X93720Y61300D01*
X131680D01*
X134600Y58380D01*
Y26500D01*
X135800Y25300D01*
X223700D01*
X224900Y26500D01*
Y51340D01*
X223700Y52539D01*
X221780D01*
X220900Y51660D01*
G01X78200Y51900D02*
X79080Y52780D01*
X87180D01*
X94300Y59900D01*
X131100D01*
X133200Y57800D01*
Y25920D01*
X135220Y23900D01*
X224280D01*
X226300Y25920D01*
Y51919D01*
X224280Y53939D01*
X221780D01*
X220900Y54820D01*
G01X91743Y31438D02*
X90863Y30558D01*
X88020D01*
X86000Y28538D01*
Y9120D01*
X88020Y7100D01*
X98500D01*
X99700Y5900D01*
Y-10491D01*
X101720Y-12511D01*
X198037D01*
X198917Y-13391D01*
G01X220876Y4326D02*
X219996Y5206D01*
X217015D01*
X210720Y11500D01*
X121520D01*
X119500Y13520D01*
Y52500D01*
X118300Y53700D01*
X96380D01*
X86700Y44020D01*
Y41206D01*
X87900Y40006D01*
X90863D01*
X91743Y40886D01*
G01X220876Y7486D02*
X219995Y6606D01*
X217595D01*
X211300Y12900D01*
X122100D01*
X120900Y14100D01*
Y53080D01*
X118880Y55100D01*
X95800D01*
X85300Y44600D01*
Y40626D01*
X87320Y38606D01*
X90863D01*
X91743Y37726D01*
G01X82000Y60566D02*
X89834Y68400D01*
X93100D01*
X96100Y71400D01*
X137200D01*
X139000Y69600D01*
Y52700D01*
G01X84200Y66865D02*
Y76100D01*
X85400Y77300D01*
X259000D01*
X260800Y75500D01*
Y59697D01*
G01X90200Y-68200D02*
X88600Y-69800D01*
Y-113400D01*
X89800Y-114600D01*
X175039D01*
G01X92000Y-69700D02*
X103100D01*
X104300Y-68500D01*
Y-62900D01*
X105824Y-61376D01*
X107824D01*
G01X90500Y-71200D02*
X105894D01*
X107094Y-70000D01*
Y-64006D01*
G01X89900Y-43600D02*
X111100D01*
X114700Y-40000D01*
X174000D01*
X182700Y-48700D01*
X251400D01*
X252600Y-47500D01*
Y37927D01*
X253800Y39127D01*
X260800D01*
G01X91743Y28278D02*
X90863Y29158D01*
X88600D01*
X87400Y27958D01*
Y9700D01*
X88600Y8500D01*
X99080D01*
X101100Y6480D01*
Y-9911D01*
X102300Y-11111D01*
X198037D01*
X198917Y-10231D01*
G01X92359Y44025D02*
X93239Y44906D01*
X97006D01*
X99900Y47800D01*
X113600D01*
X114800Y46600D01*
Y7520D01*
X116820Y5500D01*
X208900D01*
X215500Y-1100D01*
X223400D01*
X224600Y-2300D01*
Y-15934D01*
X223400Y-17134D01*
X221756D01*
X220876Y-16254D01*
G01X92359Y47186D02*
X93239Y46306D01*
X96426D01*
X99320Y49200D01*
X114180D01*
X116200Y47180D01*
Y8100D01*
X117400Y6900D01*
X209480D01*
X216080Y300D01*
X223980D01*
X226000Y-1720D01*
Y-16514D01*
X223980Y-18534D01*
X221756D01*
X220876Y-19414D01*
G01X104553Y44123D02*
X103673Y43243D01*
X98907D01*
X96800Y41136D01*
Y15420D01*
X99120Y13100D01*
X103700D01*
X104900Y11900D01*
Y-4586D01*
X106920Y-6606D01*
X219996D01*
X220876Y-7486D01*
G01X104553Y40963D02*
X103673Y41843D01*
X99487D01*
X98200Y40556D01*
Y16000D01*
X99700Y14500D01*
X104280D01*
X106300Y12480D01*
Y-4006D01*
X107500Y-5206D01*
X219995D01*
X220876Y-4326D01*
G01X198917Y1580D02*
X198037Y700D01*
X112600D01*
X111400Y1900D01*
Y17680D01*
X109380Y19700D01*
X104100D01*
X102900Y20900D01*
Y24808D01*
X104100Y26008D01*
X107109D01*
X107989Y25128D01*
G01Y28288D02*
X107109Y27408D01*
X103520D01*
X101500Y25388D01*
Y20320D01*
X103520Y18300D01*
X108800D01*
X110000Y17100D01*
Y1320D01*
X112020Y-700D01*
X198037D01*
X198917Y-1580D01*
G01X134000Y88336D02*
X100464D01*
G01X132500Y85763D02*
X99900D01*
G01X124400Y33002D02*
X125280Y33882D01*
X127200D01*
X128400Y32682D01*
Y20820D01*
X130420Y18800D01*
X229180D01*
X231200Y20820D01*
Y67274D01*
X229180Y69294D01*
X221780D01*
X220900Y70174D01*
G01X124400Y36162D02*
X125280Y35282D01*
X127780D01*
X129800Y33262D01*
Y21400D01*
X131000Y20200D01*
X228600D01*
X229800Y21400D01*
Y66694D01*
X228600Y67894D01*
X221780D01*
X220900Y67014D01*
G01X158300Y110100D02*
X160800Y107600D01*
X238000D01*
X242000Y103600D01*
G01X156800Y112900D02*
X158289D01*
X162089Y109100D01*
X240437D01*
X242000Y107537D01*
G01X175600Y-69100D02*
Y-107500D01*
X176800Y-108700D01*
X189139D01*
X195039Y-114600D01*
G01X173200Y-67300D02*
Y-110200D01*
X174400Y-111400D01*
X181839D01*
X185039Y-114600D01*
G01X229000Y-22565D02*
X250300D01*
G54D15*
X-232395Y3695D03*
X186897Y35433D03*
X223313Y117825D03*
G54D25*
G01X-103300Y8200D02*
X-148700D01*
X-150700Y6200D01*
Y2500D01*
G01X71300Y71590D02*
Y65100D01*
G01X82900Y-117400D02*
X197800D01*
X200500Y-114700D01*
Y-107600D01*
X193100Y-100200D01*
Y-53460D01*
G54D16*
X-161577Y-131887D03*
X-130081D03*
G54D26*
G01X-78500Y-104295D02*
X-80486D01*
X-82300Y-106109D01*
Y-117000D01*
X-76300Y-123000D01*
Y-138100D01*
X-73900Y-140500D01*
X-40487D01*
X-38287Y-138300D01*
G54D17*
X-111056Y-139900D03*
G54D27*
G01X15790Y89900D02*
X-20788D01*
G01X76800Y-30800D02*
Y-22200D01*
X71800Y-17200D01*
X60900D01*
X55300Y-11600D01*
Y24600D01*
X51100Y28800D01*
Y77500D01*
X41500Y87100D01*
X18590D01*
X15790Y89900D01*
G01X112200Y-77000D02*
Y-64400D01*
X118000Y-58600D01*
Y-46800D01*
X115200Y-44000D01*
G54D18*
X-17092Y-144782D03*
X16924D03*
G54D19*
X-13470Y-132184D03*
X13302D03*
M02*
