G04 ================== begin FILE IDENTIFICATION RECORD ==================*
G04 Layout Name:  main_board.brd*
G04 Film Name:    08-SOLD_BOT*
G04 File Format:  Gerber RS274X*
G04 File Origin:  Cadence Allegro 17.4-S035*
G04 Origin Date:  Thu Oct 16 18:34:05 2025*
G04 *
G04 Layer:  PIN/SOLDERMASK_BOTTOM*
G04 Layer:  PACKAGE GEOMETRY/SOLDERMASK_BOTTOM*
G04 Layer:  BOARD GEOMETRY/SOLDERMASK_BOTTOM*
G04 *
G04 Offset:    (0.000 0.000)*
G04 Mirror:    No*
G04 Mode:      Positive*
G04 Rotation:  0*
G04 FullContactRelief:  No*
G04 UndefLineWidth:     0.000*
G04 ================== end FILE IDENTIFICATION RECORD ====================*
%FSLAX25Y25*MOIN*%
%IR0*IPPOS*OFA0.00000B0.00000*MIA0B0*SFA1.00000B1.00000*%
%AMMACRO96*
4,1,44,.012795,-.007874,
-.012795,-.007874,
-.013479,-.007814,
-.014142,-.007637,
-.014764,-.007347,
-.015326,-.006953,
-.015811,-.006468,
-.016205,-.005906,
-.016495,-.005284,
-.016673,-.004621,
-.016732,-.003937,
-.016732,-.003937,
-.016732,.003937,
-.016673,.004621,
-.016495,.005284,
-.016205,.005905,
-.015811,.006468,
-.015326,.006953,
-.014764,.007347,
-.014142,.007637,
-.013479,.007814,
-.012796,.007874,
-.012795,.007874,
.012795,.007874,
.013479,.007814,
.014142,.007637,
.014764,.007347,
.015326,.006953,
.015811,.006468,
.016205,.005906,
.016495,.005284,
.016673,.004621,
.016732,.003937,
.016732,.003937,
.016732,-.003937,
.016673,-.004621,
.016495,-.005284,
.016205,-.005905,
.015811,-.006468,
.015326,-.006953,
.014764,-.007347,
.014142,-.007637,
.013479,-.007814,
.012796,-.007874,
.012795,-.007874,
0.0*
%
%ADD96MACRO96*%
%ADD21R,.053669X.06587*%
%ADD86R,.07887X.052488*%
%AMMACRO75*
4,1,44,.009842,.009153,
.009842,-.009153,
.009783,-.009837,
.009605,-.0105,
.009315,-.011122,
.008922,-.011684,
.008437,-.012169,
.007874,-.012563,
.007253,-.012853,
.00659,-.013031,
.005906,-.01309,
.005905,-.01309,
-.005905,-.01309,
-.006589,-.013031,
-.007252,-.012853,
-.007874,-.012563,
-.008436,-.01217,
-.008921,-.011685,
-.009315,-.011122,
-.009605,-.010501,
-.009783,-.009838,
-.009842,-.009154,
-.009842,-.009153,
-.009842,.009153,
-.009783,.009837,
-.009605,.0105,
-.009315,.011122,
-.008922,.011684,
-.008437,.012169,
-.007874,.012563,
-.007253,.012853,
-.00659,.013031,
-.005906,.01309,
-.005905,.01309,
.005905,.01309,
.006589,.013031,
.007252,.012853,
.007874,.012563,
.008436,.01217,
.008921,.011685,
.009315,.011122,
.009605,.010501,
.009783,.009838,
.009842,.009154,
.009842,.009153,
0.0*
%
%ADD75MACRO75*%
%ADD39R,.052488X.07887*%
%AMMACRO83*
4,1,44,.005905,-.020669,
-.005905,-.020669,
-.006589,-.02061,
-.007252,-.020432,
-.007874,-.020142,
-.008436,-.019749,
-.008921,-.019264,
-.009315,-.018701,
-.009605,-.01808,
-.009783,-.017417,
-.009842,-.016733,
-.009842,-.016732,
-.009842,.016732,
-.009783,.017416,
-.009605,.018079,
-.009315,.018701,
-.008922,.019263,
-.008437,.019748,
-.007874,.020142,
-.007253,.020432,
-.00659,.02061,
-.005906,.020669,
-.005905,.020669,
.005905,.020669,
.006589,.02061,
.007252,.020432,
.007874,.020142,
.008436,.019749,
.008921,.019264,
.009315,.018701,
.009605,.01808,
.009783,.017417,
.009842,.016733,
.009842,.016732,
.009842,-.016732,
.009783,-.017416,
.009605,-.018079,
.009315,-.018701,
.008922,-.019263,
.008437,-.019748,
.007874,-.020142,
.007253,-.020432,
.00659,-.02061,
.005906,-.020669,
.005905,-.020669,
0.0*
%
%ADD83MACRO83*%
%ADD97R,.049339X.074929*%
%ADD66O,.066929X.082677*%
%AMMACRO112*
4,1,44,.03248,.003937,
.03248,-.003937,
.032421,-.004621,
.032243,-.005284,
.031953,-.005905,
.031559,-.006468,
.031074,-.006953,
.030512,-.007347,
.02989,-.007637,
.029227,-.007814,
.028544,-.007874,
.028543,-.007874,
-.028543,-.007874,
-.029227,-.007814,
-.02989,-.007637,
-.030512,-.007347,
-.031074,-.006953,
-.031559,-.006468,
-.031953,-.005906,
-.032243,-.005284,
-.032421,-.004621,
-.03248,-.003937,
-.03248,-.003937,
-.03248,.003937,
-.032421,.004621,
-.032243,.005284,
-.031953,.005905,
-.031559,.006468,
-.031074,.006953,
-.030512,.007347,
-.02989,.007637,
-.029227,.007814,
-.028544,.007874,
-.028543,.007874,
.028543,.007874,
.029227,.007814,
.02989,.007637,
.030512,.007347,
.031074,.006953,
.031559,.006468,
.031953,.005906,
.032243,.005284,
.032421,.004621,
.03248,.003937,
.03248,.003937,
0.0*
%
%ADD112MACRO112*%
%AMMACRO81*
4,1,40,.003937,-.014764,
-.003937,-.014764,
-.004621,-.014704,
-.005284,-.014527,
-.005905,-.014237,
-.006468,-.013843,
-.006953,-.013358,
-.007347,-.012796,
-.007637,-.012174,
-.007814,-.011511,
-.007874,-.010827,
-.007874,.010827,
-.007814,.011511,
-.007637,.012174,
-.007347,.012795,
-.006953,.013358,
-.006468,.013843,
-.005906,.014237,
-.005284,.014527,
-.004621,.014704,
-.003937,.014764,
.003937,.014764,
.004621,.014704,
.005284,.014527,
.005905,.014237,
.006468,.013843,
.006953,.013358,
.007347,.012795,
.007637,.012174,
.007814,.011511,
.007874,.010827,
.007874,-.010827,
.007814,-.011511,
.007637,-.012174,
.007347,-.012795,
.006953,-.013358,
.006468,-.013843,
.005906,-.014237,
.005284,-.014527,
.004621,-.014704,
.003937,-.014764,
0.0*
%
%ADD81MACRO81*%
%AMMACRO54*
4,1,44,.01437,.027558,
.01437,-.027558,
.01428,-.028584,
.014014,-.029578,
.013579,-.030511,
.012989,-.031354,
.012261,-.032082,
.011417,-.032673,
.010484,-.033108,
.00949,-.033375,
.008464,-.033464,
.008464,-.033464,
-.008464,-.033464,
-.00949,-.033375,
-.010484,-.033108,
-.011417,-.032673,
-.01226,-.032083,
-.012988,-.031355,
-.013579,-.030512,
-.014014,-.029578,
-.01428,-.028584,
-.01437,-.027559,
-.01437,-.027558,
-.01437,.027558,
-.01428,.028584,
-.014014,.029578,
-.013579,.030511,
-.012989,.031354,
-.012261,.032082,
-.011417,.032673,
-.010484,.033108,
-.00949,.033375,
-.008464,.033464,
-.008464,.033464,
.008464,.033464,
.00949,.033375,
.010484,.033108,
.011417,.032673,
.01226,.032083,
.012988,.031355,
.013579,.030512,
.014014,.029578,
.01428,.028584,
.01437,.027559,
.01437,.027558,
0.0*
%
%ADD54MACRO54*%
%AMMACRO28*
4,1,44,.019487,-.013779,
-.019487,-.013779,
-.020513,-.01369,
-.021507,-.013423,
-.02244,-.012988,
-.023283,-.012398,
-.024011,-.01167,
-.024602,-.010827,
-.025037,-.009894,
-.025304,-.0089,
-.025393,-.007874,
-.025393,-.007873,
-.025393,.007873,
-.025304,.008899,
-.025037,.009893,
-.024602,.010826,
-.024012,.011669,
-.023284,.012397,
-.022441,.012988,
-.021508,.013423,
-.020514,.01369,
-.019488,.013779,
-.019487,.013779,
.019487,.013779,
.020513,.01369,
.021507,.013423,
.02244,.012988,
.023283,.012398,
.024011,.01167,
.024602,.010827,
.025037,.009894,
.025304,.0089,
.025393,.007874,
.025393,.007873,
.025393,-.007873,
.025304,-.008899,
.025037,-.009893,
.024602,-.010826,
.024012,-.011669,
.023284,-.012397,
.022441,-.012988,
.021508,-.013423,
.020514,-.01369,
.019488,-.013779,
.019487,-.013779,
0.0*
%
%ADD28MACRO28*%
%AMMACRO53*
4,1,40,.043307,.035433,
.043307,-.035433,
.043187,-.0368,
.042832,-.038126,
.042252,-.03937,
.041465,-.040494,
.040494,-.041465,
.03937,-.042252,
.038126,-.042832,
.0368,-.043187,
.035433,-.043307,
-.035433,-.043307,
-.0368,-.043187,
-.038126,-.042832,
-.03937,-.042252,
-.040494,-.041465,
-.041465,-.040494,
-.042252,-.03937,
-.042832,-.038126,
-.043187,-.0368,
-.043307,-.035433,
-.043307,.035433,
-.043187,.0368,
-.042832,.038126,
-.042252,.03937,
-.041465,.040494,
-.040494,.041465,
-.03937,.042252,
-.038126,.042832,
-.0368,.043187,
-.035433,.043307,
.035433,.043307,
.0368,.043187,
.038126,.042832,
.03937,.042252,
.040494,.041465,
.041465,.040494,
.042252,.03937,
.042832,.038126,
.043187,.0368,
.043307,.035433,
0.0*
%
%ADD53MACRO53*%
%AMMACRO113*
4,1,44,.009842,-.035433,
-.009842,-.035433,
-.010526,-.035373,
-.011189,-.035196,
-.011811,-.034906,
-.012373,-.034512,
-.012858,-.034027,
-.013252,-.033465,
-.013542,-.032843,
-.01372,-.03218,
-.013779,-.031496,
-.013779,-.031496,
-.013779,.031496,
-.01372,.03218,
-.013542,.032843,
-.013252,.033464,
-.012858,.034027,
-.012373,.034512,
-.011811,.034906,
-.011189,.035196,
-.010526,.035373,
-.009843,.035433,
-.009842,.035433,
.009842,.035433,
.010526,.035373,
.011189,.035196,
.011811,.034906,
.012373,.034512,
.012858,.034027,
.013252,.033465,
.013542,.032843,
.01372,.03218,
.013779,.031496,
.013779,.031496,
.013779,-.031496,
.01372,-.03218,
.013542,-.032843,
.013252,-.033464,
.012858,-.034027,
.012373,-.034512,
.011811,-.034906,
.011189,-.035196,
.010526,-.035373,
.009843,-.035433,
.009842,-.035433,
0.0*
%
%ADD113MACRO113*%
%AMMACRO111*
4,1,44,.027559,-.013779,
-.027559,-.013779,
-.028243,-.01372,
-.028906,-.013542,
-.029527,-.013252,
-.03009,-.012858,
-.030575,-.012373,
-.030969,-.011811,
-.031259,-.011189,
-.031436,-.010526,
-.031496,-.009843,
-.031496,-.009842,
-.031496,.009842,
-.031436,.010526,
-.031259,.011189,
-.030969,.011811,
-.030575,.012373,
-.03009,.012858,
-.029528,.013252,
-.028906,.013542,
-.028243,.01372,
-.027559,.013779,
-.027559,.013779,
.027559,.013779,
.028243,.01372,
.028906,.013542,
.029527,.013252,
.03009,.012858,
.030575,.012373,
.030969,.011811,
.031259,.011189,
.031436,.010526,
.031496,.009843,
.031496,.009842,
.031496,-.009842,
.031436,-.010526,
.031259,-.011189,
.030969,-.011811,
.030575,-.012373,
.03009,-.012858,
.029528,-.013252,
.028906,-.013542,
.028243,-.01372,
.027559,-.013779,
.027559,-.013779,
0.0*
%
%ADD111MACRO111*%
%AMMACRO98*
4,1,40,.027559,-.031496,
-.027559,-.031496,
-.028243,-.031436,
-.028906,-.031259,
-.029527,-.030969,
-.03009,-.030575,
-.030575,-.03009,
-.030969,-.029528,
-.031259,-.028906,
-.031436,-.028243,
-.031496,-.027559,
-.031496,.027559,
-.031436,.028243,
-.031259,.028906,
-.030969,.029527,
-.030575,.03009,
-.03009,.030575,
-.029528,.030969,
-.028906,.031259,
-.028243,.031436,
-.027559,.031496,
.027559,.031496,
.028243,.031436,
.028906,.031259,
.029528,.030969,
.03009,.030575,
.030575,.03009,
.030969,.029527,
.031259,.028906,
.031436,.028243,
.031496,.027559,
.031496,-.027559,
.031436,-.028243,
.031259,-.028906,
.030969,-.029527,
.030575,-.03009,
.03009,-.030575,
.029528,-.030969,
.028906,-.031259,
.028243,-.031436,
.027559,-.031496,
0.0*
%
%ADD98MACRO98*%
%AMMACRO63*
4,1,40,.035433,-.035433,
-.035433,-.035433,
-.0368,-.035313,
-.038126,-.034958,
-.03937,-.034378,
-.040494,-.033591,
-.041465,-.03262,
-.042252,-.031496,
-.042832,-.030252,
-.043187,-.028926,
-.043307,-.027559,
-.043307,.027559,
-.043187,.028926,
-.042832,.030252,
-.042252,.031496,
-.041465,.03262,
-.040494,.033591,
-.03937,.034378,
-.038126,.034958,
-.0368,.035313,
-.035433,.035433,
.035433,.035433,
.0368,.035313,
.038126,.034958,
.03937,.034378,
.040494,.033591,
.041465,.03262,
.042252,.031496,
.042832,.030252,
.043187,.028926,
.043307,.027559,
.043307,-.027559,
.043187,-.028926,
.042832,-.030252,
.042252,-.031496,
.041465,-.03262,
.040494,-.033591,
.03937,-.034378,
.038126,-.034958,
.0368,-.035313,
.035433,-.035433,
0.0*
%
%ADD63MACRO63*%
%AMMACRO95*
4,1,44,.013976,.032086,
.013976,-.032086,
.013887,-.033112,
.01362,-.034106,
.013185,-.035039,
.012595,-.035882,
.011867,-.03661,
.011024,-.037201,
.01009,-.037636,
.009096,-.037902,
.008071,-.037992,
.00807,-.037992,
-.00807,-.037992,
-.009096,-.037902,
-.01009,-.037636,
-.011023,-.037201,
-.011866,-.036611,
-.012594,-.035883,
-.013185,-.035039,
-.01362,-.034106,
-.013887,-.033112,
-.013976,-.032086,
-.013976,-.032086,
-.013976,.032086,
-.013887,.033112,
-.01362,.034106,
-.013185,.035039,
-.012595,.035882,
-.011867,.03661,
-.011024,.037201,
-.01009,.037636,
-.009096,.037902,
-.008071,.037992,
-.00807,.037992,
.00807,.037992,
.009096,.037902,
.01009,.037636,
.011023,.037201,
.011866,.036611,
.012594,.035883,
.013185,.035039,
.01362,.034106,
.013887,.033112,
.013976,.032086,
.013976,.032086,
0.0*
%
%ADD95MACRO95*%
%AMMACRO31*
4,1,44,-.027558,.084645,
.027558,.084645,
.028584,.084556,
.029578,.084289,
.030511,.083854,
.031354,.083264,
.032082,.082536,
.032673,.081693,
.033108,.08076,
.033375,.079766,
.033464,.07874,
.033464,.078739,
.033464,-.078739,
.033375,-.079765,
.033108,-.080759,
.032673,-.081692,
.032083,-.082535,
.031355,-.083263,
.030512,-.083854,
.029579,-.084289,
.028585,-.084556,
.027559,-.084645,
.027558,-.084645,
-.027558,-.084645,
-.028584,-.084556,
-.029578,-.084289,
-.030511,-.083854,
-.031354,-.083264,
-.032082,-.082536,
-.032673,-.081693,
-.033108,-.08076,
-.033375,-.079766,
-.033464,-.07874,
-.033464,-.078739,
-.033464,.078739,
-.033375,.079765,
-.033108,.080759,
-.032673,.081692,
-.032083,.082535,
-.031355,.083263,
-.030512,.083854,
-.029579,.084289,
-.028585,.084556,
-.027559,.084645,
-.027558,.084645,
0.0*
%
%ADD31MACRO31*%
%ADD11C,.11811*%
%ADD100C,.181102*%
%ADD64O,.051181X.102362*%
%ADD48R,.11811X.11811*%
%ADD12C,.16548*%
%ADD10C,.200787*%
%ADD36R,.101539X.071291*%
%ADD30R,.071291X.101539*%
%AMMACRO76*
4,1,40,-.047244,.055118,
.047244,.055118,
.048611,.054998,
.049937,.054643,
.051181,.054063,
.052305,.053276,
.053276,.052305,
.054063,.051181,
.054643,.049937,
.054998,.048611,
.055118,.047244,
.055118,-.047244,
.054998,-.048611,
.054643,-.049937,
.054063,-.051181,
.053276,-.052305,
.052305,-.053276,
.051181,-.054063,
.049937,-.054643,
.048611,-.054998,
.047244,-.055118,
-.047244,-.055118,
-.048611,-.054998,
-.049937,-.054643,
-.051181,-.054063,
-.052305,-.053276,
-.053276,-.052305,
-.054063,-.051181,
-.054643,-.049937,
-.054998,-.048611,
-.055118,-.047244,
-.055118,.047244,
-.054998,.048611,
-.054643,.049937,
-.054063,.051181,
-.053276,.052305,
-.052305,.053276,
-.051181,.054063,
-.049937,.054643,
-.048611,.054998,
-.047244,.055118,
0.0*
%
%ADD76MACRO76*%
%AMMACRO117*
4,1,40,.058071,.021653,
.058071,-.021653,
.057981,-.022679,
.057715,-.023673,
.05728,-.024606,
.056689,-.025449,
.055961,-.026177,
.055118,-.026768,
.054185,-.027203,
.053191,-.027469,
.052165,-.027559,
-.052165,-.027559,
-.053191,-.027469,
-.054185,-.027203,
-.055118,-.026768,
-.055961,-.026177,
-.056689,-.025449,
-.05728,-.024606,
-.057715,-.023673,
-.057981,-.022679,
-.058071,-.021653,
-.058071,.021653,
-.057981,.022679,
-.057715,.023673,
-.05728,.024606,
-.056689,.025449,
-.055961,.026177,
-.055118,.026768,
-.054185,.027203,
-.053191,.027469,
-.052165,.027559,
.052165,.027559,
.053191,.027469,
.054185,.027203,
.055118,.026768,
.055961,.026177,
.056689,.025449,
.05728,.024606,
.057715,.023673,
.057981,.022679,
.058071,.021653,
0.0*
%
%ADD117MACRO117*%
%ADD84R,.083071X.108268*%
%AMMACRO67*
4,1,44,-.005905,-.009153,
-.005905,.009153,
-.005846,.009837,
-.005668,.0105,
-.005378,.011122,
-.004985,.011684,
-.0045,.012169,
-.003937,.012563,
-.003316,.012853,
-.002653,.013031,
-.001969,.01309,
-.001968,.01309,
.001968,.01309,
.002652,.013031,
.003315,.012853,
.003937,.012563,
.004499,.01217,
.004984,.011685,
.005378,.011122,
.005668,.010501,
.005846,.009838,
.005905,.009154,
.005905,.009153,
.005905,-.009153,
.005846,-.009837,
.005668,-.0105,
.005378,-.011122,
.004985,-.011684,
.0045,-.012169,
.003937,-.012563,
.003316,-.012853,
.002653,-.013031,
.001969,-.01309,
.001968,-.01309,
-.001968,-.01309,
-.002652,-.013031,
-.003315,-.012853,
-.003937,-.012563,
-.004499,-.01217,
-.004984,-.011685,
-.005378,-.011122,
-.005668,-.010501,
-.005846,-.009838,
-.005905,-.009154,
-.005905,-.009153,
0.0*
%
%ADD67MACRO67*%
%AMMACRO49*
4,1,40,-.00689,-.010433,
-.00689,.010433,
-.006824,.011185,
-.006629,.011914,
-.00631,.012598,
-.005877,.013217,
-.005343,.013751,
-.004725,.014184,
-.00404,.014503,
-.003311,.014698,
-.002559,.014764,
.002559,.014764,
.003311,.014698,
.00404,.014503,
.004725,.014184,
.005343,.013751,
.005877,.013217,
.00631,.012598,
.006629,.011914,
.006824,.011185,
.00689,.010433,
.00689,-.010433,
.006824,-.011185,
.006629,-.011914,
.00631,-.012598,
.005877,-.013217,
.005343,-.013751,
.004725,-.014184,
.00404,-.014503,
.003311,-.014698,
.002559,-.014764,
-.002559,-.014764,
-.003311,-.014698,
-.00404,-.014503,
-.004724,-.014184,
-.005343,-.013751,
-.005877,-.013217,
-.00631,-.012599,
-.006629,-.011914,
-.006824,-.011185,
-.00689,-.010433,
0.0*
%
%ADD49MACRO49*%
%AMMACRO50*
4,1,40,-.010433,.00689,
.010433,.00689,
.011185,.006824,
.011914,.006629,
.012599,.00631,
.013217,.005877,
.013751,.005343,
.014184,.004724,
.014503,.00404,
.014698,.003311,
.014764,.002559,
.014764,-.002559,
.014698,-.003311,
.014503,-.00404,
.014184,-.004724,
.013751,-.005343,
.013217,-.005877,
.012599,-.00631,
.011914,-.006629,
.011185,-.006824,
.010433,-.00689,
-.010433,-.00689,
-.011185,-.006824,
-.011914,-.006629,
-.012598,-.00631,
-.013217,-.005877,
-.013751,-.005343,
-.014184,-.004725,
-.014503,-.00404,
-.014698,-.003311,
-.014764,-.002559,
-.014764,.002559,
-.014698,.003311,
-.014503,.00404,
-.014184,.004724,
-.013751,.005343,
-.013217,.005877,
-.012599,.00631,
-.011914,.006629,
-.011185,.006824,
-.010433,.00689,
0.0*
%
%ADD50MACRO50*%
%AMMACRO27*
4,1,44,-.021653,.045275,
.021653,.045275,
.022337,.045216,
.023,.045038,
.023622,.044748,
.024184,.044355,
.024669,.04387,
.025063,.043307,
.025353,.042686,
.025531,.042023,
.02559,.041339,
.02559,.041338,
.02559,-.041338,
.025531,-.042022,
.025353,-.042685,
.025063,-.043307,
.02467,-.043869,
.024185,-.044354,
.023622,-.044748,
.023001,-.045038,
.022338,-.045216,
.021654,-.045275,
.021653,-.045275,
-.021653,-.045275,
-.022337,-.045216,
-.023,-.045038,
-.023622,-.044748,
-.024184,-.044355,
-.024669,-.04387,
-.025063,-.043307,
-.025353,-.042686,
-.025531,-.042023,
-.02559,-.041339,
-.02559,-.041338,
-.02559,.041338,
-.025531,.042022,
-.025353,.042685,
-.025063,.043307,
-.02467,.043869,
-.024185,.044354,
-.023622,.044748,
-.023001,.045038,
-.022338,.045216,
-.021654,.045275,
-.021653,.045275,
0.0*
%
%ADD27MACRO27*%
%AMMACRO99*
4,1,44,-.017716,.045275,
.017716,.045275,
.0184,.045216,
.019063,.045038,
.019685,.044748,
.020247,.044355,
.020732,.04387,
.021126,.043307,
.021416,.042686,
.021594,.042023,
.021653,.041339,
.021653,.041338,
.021653,-.041338,
.021594,-.042022,
.021416,-.042685,
.021126,-.043307,
.020733,-.043869,
.020248,-.044354,
.019685,-.044748,
.019064,-.045038,
.018401,-.045216,
.017717,-.045275,
.017716,-.045275,
-.017716,-.045275,
-.0184,-.045216,
-.019063,-.045038,
-.019685,-.044748,
-.020247,-.044355,
-.020732,-.04387,
-.021126,-.043307,
-.021416,-.042686,
-.021594,-.042023,
-.021653,-.041339,
-.021653,-.041338,
-.021653,.041338,
-.021594,.042022,
-.021416,.042685,
-.021126,.043307,
-.020733,.043869,
-.020248,.044354,
-.019685,.044748,
-.019064,.045038,
-.018401,.045216,
-.017717,.045275,
-.017716,.045275,
0.0*
%
%ADD99MACRO99*%
%AMMACRO105*
4,1,44,-.013779,.027559,
.013779,.027559,
.014463,.027499,
.015126,.027322,
.015748,.027032,
.01631,.026638,
.016795,.026153,
.017189,.025591,
.017479,.024969,
.017657,.024306,
.017716,.023622,
.017716,.023622,
.017716,-.023622,
.017657,-.024306,
.017479,-.024969,
.017189,-.02559,
.016795,-.026153,
.01631,-.026638,
.015748,-.027032,
.015126,-.027322,
.014463,-.027499,
.01378,-.027559,
.013779,-.027559,
-.013779,-.027559,
-.014463,-.027499,
-.015126,-.027322,
-.015748,-.027032,
-.01631,-.026638,
-.016795,-.026153,
-.017189,-.025591,
-.017479,-.024969,
-.017657,-.024306,
-.017716,-.023622,
-.017716,-.023622,
-.017716,.023622,
-.017657,.024306,
-.017479,.024969,
-.017189,.02559,
-.016795,.026153,
-.01631,.026638,
-.015748,.027032,
-.015126,.027322,
-.014463,.027499,
-.01378,.027559,
-.013779,.027559,
0.0*
%
%ADD105MACRO105*%
%AMMACRO17*
4,1,44,-.015748,-.021653,
-.015748,.021653,
-.015688,.022337,
-.015511,.023,
-.015221,.023622,
-.014827,.024184,
-.014342,.024669,
-.01378,.025063,
-.013158,.025353,
-.012495,.025531,
-.011811,.02559,
-.011811,.02559,
.011811,.02559,
.012495,.025531,
.013158,.025353,
.013779,.025063,
.014342,.024669,
.014827,.024184,
.015221,.023622,
.015511,.023,
.015688,.022337,
.015748,.021654,
.015748,.021653,
.015748,-.021653,
.015688,-.022337,
.015511,-.023,
.015221,-.023622,
.014827,-.024184,
.014342,-.024669,
.01378,-.025063,
.013158,-.025353,
.012495,-.025531,
.011811,-.02559,
.011811,-.02559,
-.011811,-.02559,
-.012495,-.025531,
-.013158,-.025353,
-.013779,-.025063,
-.014342,-.024669,
-.014827,-.024184,
-.015221,-.023622,
-.015511,-.023,
-.015688,-.022337,
-.015748,-.021654,
-.015748,-.021653,
0.0*
%
%ADD17MACRO17*%
%AMMACRO118*
4,1,44,-.021653,.015748,
.021653,.015748,
.022337,.015688,
.023,.015511,
.023622,.015221,
.024184,.014827,
.024669,.014342,
.025063,.01378,
.025353,.013158,
.025531,.012495,
.02559,.011811,
.02559,.011811,
.02559,-.011811,
.025531,-.012495,
.025353,-.013158,
.025063,-.013779,
.024669,-.014342,
.024184,-.014827,
.023622,-.015221,
.023,-.015511,
.022337,-.015688,
.021654,-.015748,
.021653,-.015748,
-.021653,-.015748,
-.022337,-.015688,
-.023,-.015511,
-.023622,-.015221,
-.024184,-.014827,
-.024669,-.014342,
-.025063,-.01378,
-.025353,-.013158,
-.025531,-.012495,
-.02559,-.011811,
-.02559,-.011811,
-.02559,.011811,
-.025531,.012495,
-.025353,.013158,
-.025063,.013779,
-.024669,.014342,
-.024184,.014827,
-.023622,.015221,
-.023,.015511,
-.022337,.015688,
-.021654,.015748,
-.021653,.015748,
0.0*
%
%ADD118MACRO118*%
%AMMACRO90*
4,1,44,-.007874,-.007677,
-.007874,.007677,
-.007796,.008566,
-.007566,.009427,
-.007189,.010236,
-.006677,.010967,
-.006046,.011598,
-.005315,.01211,
-.004507,.012487,
-.003645,.012718,
-.002756,.012795,
-.002756,.012795,
.002756,.012795,
.003645,.012718,
.004506,.012487,
.005315,.01211,
.006046,.011598,
.006677,.010967,
.007188,.010237,
.007565,.009428,
.007796,.008566,
.007874,.007678,
.007874,.007677,
.007874,-.007677,
.007796,-.008566,
.007566,-.009427,
.007189,-.010236,
.006677,-.010967,
.006046,-.011598,
.005315,-.01211,
.004507,-.012487,
.003645,-.012718,
.002756,-.012795,
.002756,-.012795,
-.002756,-.012795,
-.003645,-.012718,
-.004506,-.012487,
-.005315,-.01211,
-.006046,-.011598,
-.006677,-.010967,
-.007188,-.010237,
-.007565,-.009428,
-.007796,-.008566,
-.007874,-.007678,
-.007874,-.007677,
0.0*
%
%ADD90MACRO90*%
%AMMACRO89*
4,1,44,-.007677,.007874,
.007677,.007874,
.008566,.007796,
.009427,.007566,
.010236,.007189,
.010967,.006677,
.011598,.006046,
.01211,.005315,
.012487,.004507,
.012718,.003645,
.012795,.002756,
.012795,.002756,
.012795,-.002756,
.012718,-.003645,
.012487,-.004506,
.01211,-.005315,
.011598,-.006046,
.010967,-.006677,
.010237,-.007188,
.009428,-.007565,
.008566,-.007796,
.007678,-.007874,
.007677,-.007874,
-.007677,-.007874,
-.008566,-.007796,
-.009427,-.007566,
-.010236,-.007189,
-.010967,-.006677,
-.011598,-.006046,
-.01211,-.005315,
-.012487,-.004507,
-.012718,-.003645,
-.012795,-.002756,
-.012795,-.002756,
-.012795,.002756,
-.012718,.003645,
-.012487,.004506,
-.01211,.005315,
-.011598,.006046,
-.010967,.006677,
-.010237,.007188,
-.009428,.007565,
-.008566,.007796,
-.007678,.007874,
-.007677,.007874,
0.0*
%
%ADD89MACRO89*%
%AMMACRO43*
4,1,44,-.072834,-.044291,
-.072834,.044291,
-.072745,.045317,
-.072478,.046311,
-.072043,.047244,
-.071453,.048087,
-.070725,.048815,
-.069882,.049406,
-.068948,.049841,
-.067954,.050107,
-.066929,.050197,
-.066928,.050197,
.066928,.050197,
.067954,.050107,
.068948,.049841,
.069881,.049406,
.070724,.048816,
.071452,.048088,
.072043,.047244,
.072478,.046311,
.072745,.045317,
.072834,.044291,
.072834,.044291,
.072834,-.044291,
.072745,-.045317,
.072478,-.046311,
.072043,-.047244,
.071453,-.048087,
.070725,-.048815,
.069882,-.049406,
.068948,-.049841,
.067954,-.050107,
.066929,-.050197,
.066928,-.050197,
-.066928,-.050197,
-.067954,-.050107,
-.068948,-.049841,
-.069881,-.049406,
-.070724,-.048816,
-.071452,-.048088,
-.072043,-.047244,
-.072478,-.046311,
-.072745,-.045317,
-.072834,-.044291,
-.072834,-.044291,
0.0*
%
%ADD43MACRO43*%
%AMMACRO114*
4,1,40,-.007874,.014764,
.007874,.014764,
.008558,.014704,
.009221,.014527,
.009842,.014237,
.010405,.013843,
.01089,.013358,
.011284,.012795,
.011574,.012174,
.011751,.011511,
.011811,.010827,
.011811,-.010827,
.011751,-.011511,
.011574,-.012174,
.011284,-.012795,
.01089,-.013358,
.010405,-.013843,
.009843,-.014237,
.009221,-.014527,
.008558,-.014704,
.007874,-.014764,
-.007874,-.014764,
-.008558,-.014704,
-.009221,-.014527,
-.009842,-.014237,
-.010405,-.013843,
-.01089,-.013358,
-.011284,-.012796,
-.011574,-.012174,
-.011751,-.011511,
-.011811,-.010827,
-.011811,.010827,
-.011751,.011511,
-.011574,.012174,
-.011284,.012795,
-.01089,.013358,
-.010405,.013843,
-.009843,.014237,
-.009221,.014527,
-.008558,.014704,
-.007874,.014764,
0.0*
%
%ADD114MACRO114*%
%AMMACRO77*
4,1,44,-.00748,-.01004,
-.00748,.01004,
-.007409,.01086,
-.007196,.011656,
-.006848,.012402,
-.006375,.013077,
-.005793,.013659,
-.005119,.014131,
-.004372,.014479,
-.003577,.014692,
-.002757,.014764,
-.002756,.014764,
.002756,.014764,
.003576,.014692,
.004372,.014479,
.005118,.014131,
.005793,.013659,
.006375,.013077,
.006847,.012402,
.007195,.011656,
.007409,.010861,
.00748,.01004,
.00748,.01004,
.00748,-.01004,
.007409,-.01086,
.007196,-.011656,
.006848,-.012402,
.006375,-.013077,
.005793,-.013659,
.005119,-.014131,
.004372,-.014479,
.003577,-.014692,
.002757,-.014764,
.002756,-.014764,
-.002756,-.014764,
-.003576,-.014692,
-.004372,-.014479,
-.005118,-.014131,
-.005793,-.013659,
-.006375,-.013077,
-.006847,-.012402,
-.007195,-.011656,
-.007409,-.010861,
-.00748,-.01004,
-.00748,-.01004,
0.0*
%
%ADD77MACRO77*%
%AMMACRO70*
4,1,44,-.01004,.00748,
.01004,.00748,
.01086,.007409,
.011656,.007196,
.012402,.006848,
.013077,.006375,
.013659,.005793,
.014131,.005119,
.014479,.004372,
.014692,.003577,
.014764,.002757,
.014764,.002756,
.014764,-.002756,
.014692,-.003576,
.014479,-.004372,
.014131,-.005118,
.013659,-.005793,
.013077,-.006375,
.012402,-.006847,
.011656,-.007195,
.010861,-.007409,
.01004,-.00748,
.01004,-.00748,
-.01004,-.00748,
-.01086,-.007409,
-.011656,-.007196,
-.012402,-.006848,
-.013077,-.006375,
-.013659,-.005793,
-.014131,-.005119,
-.014479,-.004372,
-.014692,-.003577,
-.014764,-.002757,
-.014764,-.002756,
-.014764,.002756,
-.014692,.003576,
-.014479,.004372,
-.014131,.005118,
-.013659,.005793,
-.013077,.006375,
-.012402,.006847,
-.011656,.007195,
-.010861,.007409,
-.01004,.00748,
-.01004,.00748,
0.0*
%
%ADD70MACRO70*%
%AMMACRO80*
4,1,44,.027559,.066928,
.027559,-.066928,
.027469,-.067954,
.027203,-.068948,
.026768,-.069881,
.026178,-.070724,
.02545,-.071452,
.024606,-.072043,
.023673,-.072478,
.022679,-.072745,
.021653,-.072834,
.021653,-.072834,
-.021653,-.072834,
-.022679,-.072745,
-.023673,-.072478,
-.024606,-.072043,
-.025449,-.071453,
-.026177,-.070725,
-.026768,-.069882,
-.027203,-.068948,
-.027469,-.067954,
-.027559,-.066929,
-.027559,-.066928,
-.027559,.066928,
-.027469,.067954,
-.027203,.068948,
-.026768,.069881,
-.026178,.070724,
-.02545,.071452,
-.024606,.072043,
-.023673,.072478,
-.022679,.072745,
-.021653,.072834,
-.021653,.072834,
.021653,.072834,
.022679,.072745,
.023673,.072478,
.024606,.072043,
.025449,.071453,
.026177,.070725,
.026768,.069882,
.027203,.068948,
.027469,.067954,
.027559,.066929,
.027559,.066928,
0.0*
%
%ADD80MACRO80*%
%AMMACRO107*
4,1,40,-.027559,-.003937,
-.027559,.003937,
-.027499,.004621,
-.027322,.005284,
-.027032,.005905,
-.026638,.006468,
-.026153,.006953,
-.025591,.007347,
-.024969,.007637,
-.024306,.007814,
-.023622,.007874,
.023622,.007874,
.024306,.007814,
.024969,.007637,
.025591,.007347,
.026153,.006953,
.026638,.006468,
.027032,.005905,
.027322,.005284,
.027499,.004621,
.027559,.003937,
.027559,-.003937,
.027499,-.004621,
.027322,-.005284,
.027032,-.005905,
.026638,-.006468,
.026153,-.006953,
.025591,-.007347,
.024969,-.007637,
.024306,-.007814,
.023622,-.007874,
-.023622,-.007874,
-.024306,-.007814,
-.024969,-.007637,
-.02559,-.007347,
-.026153,-.006953,
-.026638,-.006468,
-.027032,-.005906,
-.027322,-.005284,
-.027499,-.004621,
-.027559,-.003937,
0.0*
%
%ADD107MACRO107*%
%AMMACRO37*
4,1,44,-.021653,.031496,
.021653,.031496,
.022337,.031436,
.023,.031259,
.023622,.030969,
.024184,.030575,
.024669,.03009,
.025063,.029528,
.025353,.028906,
.025531,.028243,
.02559,.027559,
.02559,.027559,
.02559,-.027559,
.025531,-.028243,
.025353,-.028906,
.025063,-.029527,
.024669,-.03009,
.024184,-.030575,
.023622,-.030969,
.023,-.031259,
.022337,-.031436,
.021654,-.031496,
.021653,-.031496,
-.021653,-.031496,
-.022337,-.031436,
-.023,-.031259,
-.023622,-.030969,
-.024184,-.030575,
-.024669,-.03009,
-.025063,-.029528,
-.025353,-.028906,
-.025531,-.028243,
-.02559,-.027559,
-.02559,-.027559,
-.02559,.027559,
-.025531,.028243,
-.025353,.028906,
-.025063,.029527,
-.024669,.03009,
-.024184,.030575,
-.023622,.030969,
-.023,.031259,
-.022337,.031436,
-.021654,.031496,
-.021653,.031496,
0.0*
%
%ADD37MACRO37*%
%AMMACRO73*
4,1,44,-.003937,.020669,
.003937,.020669,
.004621,.02061,
.005284,.020432,
.005905,.020142,
.006468,.019748,
.006953,.019263,
.007347,.018701,
.007637,.018079,
.007814,.017416,
.007874,.016733,
.007874,.016732,
.007874,-.016732,
.007814,-.017416,
.007637,-.018079,
.007347,-.018701,
.006953,-.019263,
.006468,-.019748,
.005906,-.020142,
.005284,-.020432,
.004621,-.02061,
.003937,-.020669,
.003937,-.020669,
-.003937,-.020669,
-.004621,-.02061,
-.005284,-.020432,
-.005905,-.020142,
-.006468,-.019748,
-.006953,-.019263,
-.007347,-.018701,
-.007637,-.018079,
-.007814,-.017416,
-.007874,-.016733,
-.007874,-.016732,
-.007874,.016732,
-.007814,.017416,
-.007637,.018079,
-.007347,.018701,
-.006953,.019263,
-.006468,.019748,
-.005906,.020142,
-.005284,.020432,
-.004621,.02061,
-.003937,.020669,
-.003937,.020669,
0.0*
%
%ADD73MACRO73*%
%AMMACRO103*
4,1,40,-.010827,.027559,
.010827,.027559,
.011511,.027499,
.012174,.027322,
.012795,.027032,
.013358,.026638,
.013843,.026153,
.014237,.02559,
.014527,.024969,
.014704,.024306,
.014764,.023622,
.014764,-.023622,
.014704,-.024306,
.014527,-.024969,
.014237,-.02559,
.013843,-.026153,
.013358,-.026638,
.012796,-.027032,
.012174,-.027322,
.011511,-.027499,
.010827,-.027559,
-.010827,-.027559,
-.011511,-.027499,
-.012174,-.027322,
-.012795,-.027032,
-.013358,-.026638,
-.013843,-.026153,
-.014237,-.025591,
-.014527,-.024969,
-.014704,-.024306,
-.014764,-.023622,
-.014764,.023622,
-.014704,.024306,
-.014527,.024969,
-.014237,.02559,
-.013843,.026153,
-.013358,.026638,
-.012796,.027032,
-.012174,.027322,
-.011511,.027499,
-.010827,.027559,
0.0*
%
%ADD103MACRO103*%
%AMMACRO74*
4,1,44,-.009842,-.009153,
-.009842,.009153,
-.009783,.009837,
-.009605,.0105,
-.009315,.011122,
-.008922,.011684,
-.008437,.012169,
-.007874,.012563,
-.007253,.012853,
-.00659,.013031,
-.005906,.01309,
-.005905,.01309,
.005905,.01309,
.006589,.013031,
.007252,.012853,
.007874,.012563,
.008436,.01217,
.008921,.011685,
.009315,.011122,
.009605,.010501,
.009783,.009838,
.009842,.009154,
.009842,.009153,
.009842,-.009153,
.009783,-.009837,
.009605,-.0105,
.009315,-.011122,
.008922,-.011684,
.008437,-.012169,
.007874,-.012563,
.007253,-.012853,
.00659,-.013031,
.005906,-.01309,
.005905,-.01309,
-.005905,-.01309,
-.006589,-.013031,
-.007252,-.012853,
-.007874,-.012563,
-.008436,-.01217,
-.008921,-.011685,
-.009315,-.011122,
-.009605,-.010501,
-.009783,-.009838,
-.009842,-.009154,
-.009842,-.009153,
0.0*
%
%ADD74MACRO74*%
%AMMACRO61*
4,1,44,-.033464,-.017716,
-.033464,.017716,
-.033405,.0184,
-.033227,.019063,
-.032937,.019685,
-.032544,.020247,
-.032059,.020732,
-.031496,.021126,
-.030875,.021416,
-.030212,.021594,
-.029528,.021653,
-.029527,.021653,
.029527,.021653,
.030211,.021594,
.030874,.021416,
.031496,.021126,
.032058,.020733,
.032543,.020248,
.032937,.019685,
.033227,.019064,
.033405,.018401,
.033464,.017717,
.033464,.017716,
.033464,-.017716,
.033405,-.0184,
.033227,-.019063,
.032937,-.019685,
.032544,-.020247,
.032059,-.020732,
.031496,-.021126,
.030875,-.021416,
.030212,-.021594,
.029528,-.021653,
.029527,-.021653,
-.029527,-.021653,
-.030211,-.021594,
-.030874,-.021416,
-.031496,-.021126,
-.032058,-.020733,
-.032543,-.020248,
-.032937,-.019685,
-.033227,-.019064,
-.033405,-.018401,
-.033464,-.017717,
-.033464,-.017716,
0.0*
%
%ADD61MACRO61*%
%AMMACRO56*
4,1,44,-.013779,.033464,
.013779,.033464,
.014463,.033405,
.015126,.033227,
.015748,.032937,
.01631,.032544,
.016795,.032059,
.017189,.031496,
.017479,.030875,
.017657,.030212,
.017716,.029528,
.017716,.029527,
.017716,-.029527,
.017657,-.030211,
.017479,-.030874,
.017189,-.031496,
.016796,-.032058,
.016311,-.032543,
.015748,-.032937,
.015127,-.033227,
.014464,-.033405,
.01378,-.033464,
.013779,-.033464,
-.013779,-.033464,
-.014463,-.033405,
-.015126,-.033227,
-.015748,-.032937,
-.01631,-.032544,
-.016795,-.032059,
-.017189,-.031496,
-.017479,-.030875,
-.017657,-.030212,
-.017716,-.029528,
-.017716,-.029527,
-.017716,.029527,
-.017657,.030211,
-.017479,.030874,
-.017189,.031496,
-.016796,.032058,
-.016311,.032543,
-.015748,.032937,
-.015127,.033227,
-.014464,.033405,
-.01378,.033464,
-.013779,.033464,
0.0*
%
%ADD56MACRO56*%
%AMMACRO52*
4,1,44,-.01437,-.027558,
-.01437,.027558,
-.01428,.028584,
-.014014,.029578,
-.013579,.030511,
-.012989,.031354,
-.012261,.032082,
-.011417,.032673,
-.010484,.033108,
-.00949,.033375,
-.008464,.033464,
-.008464,.033464,
.008464,.033464,
.00949,.033375,
.010484,.033108,
.011417,.032673,
.01226,.032083,
.012988,.031355,
.013579,.030512,
.014014,.029578,
.01428,.028584,
.01437,.027559,
.01437,.027558,
.01437,-.027558,
.01428,-.028584,
.014014,-.029578,
.013579,-.030511,
.012989,-.031354,
.012261,-.032082,
.011417,-.032673,
.010484,-.033108,
.00949,-.033375,
.008464,-.033464,
.008464,-.033464,
-.008464,-.033464,
-.00949,-.033375,
-.010484,-.033108,
-.011417,-.032673,
-.01226,-.032083,
-.012988,-.031355,
-.013579,-.030512,
-.014014,-.029578,
-.01428,-.028584,
-.01437,-.027559,
-.01437,-.027558,
0.0*
%
%ADD52MACRO52*%
%AMMACRO26*
4,1,44,-.019487,.013779,
.019487,.013779,
.020513,.01369,
.021507,.013423,
.02244,.012988,
.023283,.012398,
.024011,.01167,
.024602,.010827,
.025037,.009894,
.025304,.0089,
.025393,.007874,
.025393,.007873,
.025393,-.007873,
.025304,-.008899,
.025037,-.009893,
.024602,-.010826,
.024012,-.011669,
.023284,-.012397,
.022441,-.012988,
.021508,-.013423,
.020514,-.01369,
.019488,-.013779,
.019487,-.013779,
-.019487,-.013779,
-.020513,-.01369,
-.021507,-.013423,
-.02244,-.012988,
-.023283,-.012398,
-.024011,-.01167,
-.024602,-.010827,
-.025037,-.009894,
-.025304,-.0089,
-.025393,-.007874,
-.025393,-.007873,
-.025393,.007873,
-.025304,.008899,
-.025037,.009893,
-.024602,.010826,
-.024012,.011669,
-.023284,.012397,
-.022441,.012988,
-.021508,.013423,
-.020514,.01369,
-.019488,.013779,
-.019487,.013779,
0.0*
%
%ADD26MACRO26*%
%AMMACRO109*
4,1,40,-.035433,-.035433,
-.035433,.035433,
-.035313,.0368,
-.034958,.038126,
-.034378,.03937,
-.033591,.040494,
-.03262,.041465,
-.031496,.042252,
-.030252,.042832,
-.028926,.043187,
-.027559,.043307,
.027559,.043307,
.028926,.043187,
.030252,.042832,
.031496,.042252,
.03262,.041465,
.033591,.040494,
.034378,.03937,
.034958,.038126,
.035313,.0368,
.035433,.035433,
.035433,-.035433,
.035313,-.0368,
.034958,-.038126,
.034378,-.03937,
.033591,-.040494,
.03262,-.041465,
.031496,-.042252,
.030252,-.042832,
.028926,-.043187,
.027559,-.043307,
-.027559,-.043307,
-.028926,-.043187,
-.030252,-.042832,
-.031496,-.042252,
-.03262,-.041465,
-.033591,-.040494,
-.034378,-.03937,
-.034958,-.038126,
-.035313,-.0368,
-.035433,-.035433,
0.0*
%
%ADD109MACRO109*%
%AMMACRO88*
4,1,44,-.03248,-.024606,
-.03248,.024606,
-.032361,.025973,
-.032006,.027299,
-.031426,.028543,
-.030639,.029667,
-.029668,.030638,
-.028544,.031425,
-.0273,.032005,
-.025974,.032361,
-.024607,.03248,
-.024606,.03248,
.024606,.03248,
.025973,.032361,
.027299,.032006,
.028543,.031426,
.029667,.030639,
.030638,.029668,
.031425,.028544,
.032005,.0273,
.032361,.025974,
.03248,.024607,
.03248,.024606,
.03248,-.024606,
.032361,-.025973,
.032006,-.027299,
.031426,-.028543,
.030639,-.029667,
.029668,-.030638,
.028544,-.031425,
.0273,-.032005,
.025974,-.032361,
.024607,-.03248,
.024606,-.03248,
-.024606,-.03248,
-.025973,-.032361,
-.027299,-.032006,
-.028543,-.031426,
-.029667,-.030639,
-.030638,-.029668,
-.031425,-.028544,
-.032005,-.0273,
-.032361,-.025974,
-.03248,-.024607,
-.03248,-.024606,
0.0*
%
%ADD88MACRO88*%
%AMMACRO34*
4,1,44,-.011811,.033464,
.011811,.033464,
.012495,.033405,
.013158,.033227,
.013779,.032937,
.014342,.032543,
.014827,.032058,
.015221,.031496,
.015511,.030874,
.015688,.030211,
.015748,.029528,
.015748,.029527,
.015748,-.029527,
.015688,-.030211,
.015511,-.030874,
.015221,-.031496,
.014827,-.032058,
.014342,-.032543,
.01378,-.032937,
.013158,-.033227,
.012495,-.033405,
.011811,-.033464,
.011811,-.033464,
-.011811,-.033464,
-.012495,-.033405,
-.013158,-.033227,
-.013779,-.032937,
-.014342,-.032543,
-.014827,-.032058,
-.015221,-.031496,
-.015511,-.030874,
-.015688,-.030211,
-.015748,-.029528,
-.015748,-.029527,
-.015748,.029527,
-.015688,.030211,
-.015511,.030874,
-.015221,.031496,
-.014827,.032058,
-.014342,.032543,
-.01378,.032937,
-.013158,.033227,
-.012495,.033405,
-.011811,.033464,
-.011811,.033464,
0.0*
%
%ADD34MACRO34*%
%AMMACRO94*
4,1,44,-.013976,-.032086,
-.013976,.032086,
-.013887,.033112,
-.01362,.034106,
-.013185,.035039,
-.012595,.035882,
-.011867,.03661,
-.011024,.037201,
-.01009,.037636,
-.009096,.037902,
-.008071,.037992,
-.00807,.037992,
.00807,.037992,
.009096,.037902,
.01009,.037636,
.011023,.037201,
.011866,.036611,
.012594,.035883,
.013185,.035039,
.01362,.034106,
.013887,.033112,
.013976,.032086,
.013976,.032086,
.013976,-.032086,
.013887,-.033112,
.01362,-.034106,
.013185,-.035039,
.012595,-.035882,
.011867,-.03661,
.011024,-.037201,
.01009,-.037636,
.009096,-.037902,
.008071,-.037992,
.00807,-.037992,
-.00807,-.037992,
-.009096,-.037902,
-.01009,-.037636,
-.011023,-.037201,
-.011866,-.036611,
-.012594,-.035883,
-.013185,-.035039,
-.01362,-.034106,
-.013887,-.033112,
-.013976,-.032086,
-.013976,-.032086,
0.0*
%
%ADD94MACRO94*%
%AMMACRO29*
4,1,44,-.029527,.031496,
.029527,.031496,
.030211,.031436,
.030874,.031259,
.031496,.030969,
.032058,.030575,
.032543,.03009,
.032937,.029528,
.033227,.028906,
.033405,.028243,
.033464,.027559,
.033464,.027559,
.033464,-.027559,
.033405,-.028243,
.033227,-.028906,
.032937,-.029527,
.032543,-.03009,
.032058,-.030575,
.031496,-.030969,
.030874,-.031259,
.030211,-.031436,
.029528,-.031496,
.029527,-.031496,
-.029527,-.031496,
-.030211,-.031436,
-.030874,-.031259,
-.031496,-.030969,
-.032058,-.030575,
-.032543,-.03009,
-.032937,-.029528,
-.033227,-.028906,
-.033405,-.028243,
-.033464,-.027559,
-.033464,-.027559,
-.033464,.027559,
-.033405,.028243,
-.033227,.028906,
-.032937,.029527,
-.032543,.03009,
-.032058,.030575,
-.031496,.030969,
-.030874,.031259,
-.030211,.031436,
-.029528,.031496,
-.029527,.031496,
0.0*
%
%ADD29MACRO29*%
%ADD40R,.04337X.041402*%
%ADD46R,.041402X.04337*%
%ADD41R,.033531X.015811*%
%ADD65C,.021654*%
%ADD45R,.015811X.033531*%
%ADD85R,.020079X.023622*%
%ADD87R,.030709X.023622*%
%ADD102C,.033465*%
%ADD42R,.02172X.01778*%
%ADD15C,.047244*%
%ADD44R,.01778X.02172*%
%ADD33C,.03937*%
%ADD110O,.031496X.051181*%
%ADD23O,.063059X.015811*%
%AMMACRO68*
4,1,44,.005905,.009153,
.005905,-.009153,
.005846,-.009837,
.005668,-.0105,
.005378,-.011122,
.004985,-.011684,
.0045,-.012169,
.003937,-.012563,
.003316,-.012853,
.002653,-.013031,
.001969,-.01309,
.001968,-.01309,
-.001968,-.01309,
-.002652,-.013031,
-.003315,-.012853,
-.003937,-.012563,
-.004499,-.01217,
-.004984,-.011685,
-.005378,-.011122,
-.005668,-.010501,
-.005846,-.009838,
-.005905,-.009154,
-.005905,-.009153,
-.005905,.009153,
-.005846,.009837,
-.005668,.0105,
-.005378,.011122,
-.004985,.011684,
-.0045,.012169,
-.003937,.012563,
-.003316,.012853,
-.002653,.013031,
-.001969,.01309,
-.001968,.01309,
.001968,.01309,
.002652,.013031,
.003315,.012853,
.003937,.012563,
.004499,.01217,
.004984,.011685,
.005378,.011122,
.005668,.010501,
.005846,.009838,
.005905,.009154,
.005905,.009153,
0.0*
%
%ADD68MACRO68*%
%ADD18R,.033591X.031618*%
%ADD14R,.031618X.033591*%
%ADD38R,.047244X.047244*%
%ADD106R,.031618X.023748*%
%ADD69R,.023748X.022169*%
%AMMACRO60*
4,1,40,.010433,-.00689,
-.010433,-.00689,
-.011185,-.006824,
-.011914,-.006629,
-.012598,-.00631,
-.013217,-.005877,
-.013751,-.005343,
-.014184,-.004725,
-.014503,-.00404,
-.014698,-.003311,
-.014764,-.002559,
-.014764,.002559,
-.014698,.003311,
-.014503,.00404,
-.014184,.004724,
-.013751,.005343,
-.013217,.005877,
-.012599,.00631,
-.011914,.006629,
-.011185,.006824,
-.010433,.00689,
.010433,.00689,
.011185,.006824,
.011914,.006629,
.012599,.00631,
.013217,.005877,
.013751,.005343,
.014184,.004724,
.014503,.00404,
.014698,.003311,
.014764,.002559,
.014764,-.002559,
.014698,-.003311,
.014503,-.00404,
.014184,-.004724,
.013751,-.005343,
.013217,-.005877,
.012599,-.00631,
.011914,-.006629,
.011185,-.006824,
.010433,-.00689,
0.0*
%
%ADD60MACRO60*%
%ADD57R,.023748X.031618*%
%AMMACRO51*
4,1,40,.00689,.010433,
.00689,-.010433,
.006824,-.011185,
.006629,-.011914,
.00631,-.012598,
.005877,-.013217,
.005343,-.013751,
.004725,-.014184,
.00404,-.014503,
.003311,-.014698,
.002559,-.014764,
-.002559,-.014764,
-.003311,-.014698,
-.00404,-.014503,
-.004724,-.014184,
-.005343,-.013751,
-.005877,-.013217,
-.00631,-.012599,
-.006629,-.011914,
-.006824,-.011185,
-.00689,-.010433,
-.00689,.010433,
-.006824,.011185,
-.006629,.011914,
-.00631,.012598,
-.005877,.013217,
-.005343,.013751,
-.004725,.014184,
-.00404,.014503,
-.003311,.014698,
-.002559,.014764,
.002559,.014764,
.003311,.014698,
.00404,.014503,
.004725,.014184,
.005343,.013751,
.005877,.013217,
.00631,.012598,
.006629,.011914,
.006824,.011185,
.00689,.010433,
0.0*
%
%ADD51MACRO51*%
%ADD25O,.013839X.031559*%
%ADD101R,.04265X.04698*%
%ADD22O,.031559X.013839*%
%ADD13R,.022169X.023748*%
%ADD116R,.08674X.08674*%
%AMMACRO58*
4,1,44,.020669,.013189,
.020669,-.013189,
.02061,-.013873,
.020432,-.014536,
.020142,-.015157,
.019748,-.01572,
.019263,-.016205,
.018701,-.016599,
.018079,-.016889,
.017416,-.017066,
.016733,-.017126,
.016732,-.017126,
-.016732,-.017126,
-.017416,-.017066,
-.018079,-.016889,
-.018701,-.016599,
-.019263,-.016205,
-.019748,-.01572,
-.020142,-.015158,
-.020432,-.014536,
-.02061,-.013873,
-.020669,-.013189,
-.020669,-.013189,
-.020669,.013189,
-.02061,.013873,
-.020432,.014536,
-.020142,.015157,
-.019748,.01572,
-.019263,.016205,
-.018701,.016599,
-.018079,.016889,
-.017416,.017066,
-.016733,.017126,
-.016732,.017126,
.016732,.017126,
.017416,.017066,
.018079,.016889,
.018701,.016599,
.019263,.016205,
.019748,.01572,
.020142,.015158,
.020432,.014536,
.02061,.013873,
.020669,.013189,
.020669,.013189,
0.0*
%
%ADD58MACRO58*%
%ADD55R,.046579X.04461*%
%ADD16C,.066929*%
%ADD32R,.04461X.046579*%
%AMMACRO93*
4,1,44,.015748,.021653,
.015748,-.021653,
.015688,-.022337,
.015511,-.023,
.015221,-.023622,
.014827,-.024184,
.014342,-.024669,
.01378,-.025063,
.013158,-.025353,
.012495,-.025531,
.011811,-.02559,
.011811,-.02559,
-.011811,-.02559,
-.012495,-.025531,
-.013158,-.025353,
-.013779,-.025063,
-.014342,-.024669,
-.014827,-.024184,
-.015221,-.023622,
-.015511,-.023,
-.015688,-.022337,
-.015748,-.021654,
-.015748,-.021653,
-.015748,.021653,
-.015688,.022337,
-.015511,.023,
-.015221,.023622,
-.014827,.024184,
-.014342,.024669,
-.01378,.025063,
-.013158,.025353,
-.012495,.025531,
-.011811,.02559,
-.011811,.02559,
.011811,.02559,
.012495,.025531,
.013158,.025353,
.013779,.025063,
.014342,.024669,
.014827,.024184,
.015221,.023622,
.015511,.023,
.015688,.022337,
.015748,.021654,
.015748,.021653,
0.0*
%
%ADD93MACRO93*%
%AMMACRO24*
4,1,44,.021653,-.015748,
-.021653,-.015748,
-.022337,-.015688,
-.023,-.015511,
-.023622,-.015221,
-.024184,-.014827,
-.024669,-.014342,
-.025063,-.01378,
-.025353,-.013158,
-.025531,-.012495,
-.02559,-.011811,
-.02559,-.011811,
-.02559,.011811,
-.025531,.012495,
-.025353,.013158,
-.025063,.013779,
-.024669,.014342,
-.024184,.014827,
-.023622,.015221,
-.023,.015511,
-.022337,.015688,
-.021654,.015748,
-.021653,.015748,
.021653,.015748,
.022337,.015688,
.023,.015511,
.023622,.015221,
.024184,.014827,
.024669,.014342,
.025063,.01378,
.025353,.013158,
.025531,.012495,
.02559,.011811,
.02559,.011811,
.02559,-.011811,
.025531,-.012495,
.025353,-.013158,
.025063,-.013779,
.024669,-.014342,
.024184,-.014827,
.023622,-.015221,
.023,-.015511,
.022337,-.015688,
.021654,-.015748,
.021653,-.015748,
0.0*
%
%ADD24MACRO24*%
%ADD108R,.057209X.035559*%
%AMMACRO92*
4,1,44,.007677,-.007874,
-.007677,-.007874,
-.008566,-.007796,
-.009427,-.007566,
-.010236,-.007189,
-.010967,-.006677,
-.011598,-.006046,
-.01211,-.005315,
-.012487,-.004507,
-.012718,-.003645,
-.012795,-.002756,
-.012795,-.002756,
-.012795,.002756,
-.012718,.003645,
-.012487,.004506,
-.01211,.005315,
-.011598,.006046,
-.010967,.006677,
-.010237,.007188,
-.009428,.007565,
-.008566,.007796,
-.007678,.007874,
-.007677,.007874,
.007677,.007874,
.008566,.007796,
.009427,.007566,
.010236,.007189,
.010967,.006677,
.011598,.006046,
.01211,.005315,
.012487,.004507,
.012718,.003645,
.012795,.002756,
.012795,.002756,
.012795,-.002756,
.012718,-.003645,
.012487,-.004506,
.01211,-.005315,
.011598,-.006046,
.010967,-.006677,
.010237,-.007188,
.009428,-.007565,
.008566,-.007796,
.007678,-.007874,
.007677,-.007874,
0.0*
%
%ADD92MACRO92*%
%AMMACRO91*
4,1,44,.007874,.007677,
.007874,-.007677,
.007796,-.008566,
.007566,-.009427,
.007189,-.010236,
.006677,-.010967,
.006046,-.011598,
.005315,-.01211,
.004507,-.012487,
.003645,-.012718,
.002756,-.012795,
.002756,-.012795,
-.002756,-.012795,
-.003645,-.012718,
-.004506,-.012487,
-.005315,-.01211,
-.006046,-.011598,
-.006677,-.010967,
-.007188,-.010237,
-.007565,-.009428,
-.007796,-.008566,
-.007874,-.007678,
-.007874,-.007677,
-.007874,.007677,
-.007796,.008566,
-.007566,.009427,
-.007189,.010236,
-.006677,.010967,
-.006046,.011598,
-.005315,.01211,
-.004507,.012487,
-.003645,.012718,
-.002756,.012795,
-.002756,.012795,
.002756,.012795,
.003645,.012718,
.004506,.012487,
.005315,.01211,
.006046,.011598,
.006677,.010967,
.007188,.010237,
.007565,.009428,
.007796,.008566,
.007874,.007678,
.007874,.007677,
0.0*
%
%ADD91MACRO91*%
%AMMACRO47*
4,1,40,-.03937,.051181,
.03937,.051181,
.040054,.051121,
.040717,.050944,
.041338,.050654,
.041901,.05026,
.042386,.049775,
.04278,.049212,
.04307,.048591,
.043247,.047928,
.043307,.047244,
.043307,-.047244,
.043247,-.047928,
.04307,-.048591,
.04278,-.049212,
.042386,-.049775,
.041901,-.05026,
.041339,-.050654,
.040717,-.050944,
.040054,-.051121,
.03937,-.051181,
-.03937,-.051181,
-.040054,-.051121,
-.040717,-.050944,
-.041338,-.050654,
-.041901,-.05026,
-.042386,-.049775,
-.04278,-.049213,
-.04307,-.048591,
-.043247,-.047928,
-.043307,-.047244,
-.043307,.047244,
-.043247,.047928,
-.04307,.048591,
-.04278,.049212,
-.042386,.049775,
-.041901,.05026,
-.041339,.050654,
-.040717,.050944,
-.040054,.051121,
-.03937,.051181,
0.0*
%
%ADD47MACRO47*%
%AMMACRO115*
4,1,44,.044291,-.072834,
-.044291,-.072834,
-.045317,-.072745,
-.046311,-.072478,
-.047244,-.072043,
-.048087,-.071453,
-.048815,-.070725,
-.049406,-.069882,
-.049841,-.068948,
-.050107,-.067954,
-.050197,-.066929,
-.050197,-.066928,
-.050197,.066928,
-.050107,.067954,
-.049841,.068948,
-.049406,.069881,
-.048816,.070724,
-.048088,.071452,
-.047244,.072043,
-.046311,.072478,
-.045317,.072745,
-.044291,.072834,
-.044291,.072834,
.044291,.072834,
.045317,.072745,
.046311,.072478,
.047244,.072043,
.048087,.071453,
.048815,.070725,
.049406,.069882,
.049841,.068948,
.050107,.067954,
.050197,.066929,
.050197,.066928,
.050197,-.066928,
.050107,-.067954,
.049841,-.068948,
.049406,-.069881,
.048816,-.070724,
.048088,-.071452,
.047244,-.072043,
.046311,-.072478,
.045317,-.072745,
.044291,-.072834,
.044291,-.072834,
0.0*
%
%ADD115MACRO115*%
%ADD104R,.035559X.023748*%
%AMMACRO35*
4,1,40,.014764,.007874,
.014764,-.007874,
.014704,-.008558,
.014527,-.009221,
.014237,-.009842,
.013843,-.010405,
.013358,-.01089,
.012796,-.011284,
.012174,-.011574,
.011511,-.011751,
.010827,-.011811,
-.010827,-.011811,
-.011511,-.011751,
-.012174,-.011574,
-.012795,-.011284,
-.013358,-.01089,
-.013843,-.010405,
-.014237,-.009843,
-.014527,-.009221,
-.014704,-.008558,
-.014764,-.007874,
-.014764,.007874,
-.014704,.008558,
-.014527,.009221,
-.014237,.009842,
-.013843,.010405,
-.013358,.01089,
-.012796,.011284,
-.012174,.011574,
-.011511,.011751,
-.010827,.011811,
.010827,.011811,
.011511,.011751,
.012174,.011574,
.012795,.011284,
.013358,.01089,
.013843,.010405,
.014237,.009842,
.014527,.009221,
.014704,.008558,
.014764,.007874,
0.0*
%
%ADD35MACRO35*%
%AMMACRO19*
4,1,44,.072834,.044291,
.072834,-.044291,
.072745,-.045317,
.072478,-.046311,
.072043,-.047244,
.071453,-.048087,
.070725,-.048815,
.069882,-.049406,
.068948,-.049841,
.067954,-.050107,
.066929,-.050197,
.066928,-.050197,
-.066928,-.050197,
-.067954,-.050107,
-.068948,-.049841,
-.069881,-.049406,
-.070724,-.048816,
-.071452,-.048088,
-.072043,-.047244,
-.072478,-.046311,
-.072745,-.045317,
-.072834,-.044291,
-.072834,-.044291,
-.072834,.044291,
-.072745,.045317,
-.072478,.046311,
-.072043,.047244,
-.071453,.048087,
-.070725,.048815,
-.069882,.049406,
-.068948,.049841,
-.067954,.050107,
-.066929,.050197,
-.066928,.050197,
.066928,.050197,
.067954,.050107,
.068948,.049841,
.069881,.049406,
.070724,.048816,
.071452,.048088,
.072043,.047244,
.072478,.046311,
.072745,.045317,
.072834,.044291,
.072834,.044291,
0.0*
%
%ADD19MACRO19*%
%AMMACRO79*
4,1,44,.01004,-.00748,
-.01004,-.00748,
-.01086,-.007409,
-.011656,-.007196,
-.012402,-.006848,
-.013077,-.006375,
-.013659,-.005793,
-.014131,-.005119,
-.014479,-.004372,
-.014692,-.003577,
-.014764,-.002757,
-.014764,-.002756,
-.014764,.002756,
-.014692,.003576,
-.014479,.004372,
-.014131,.005118,
-.013659,.005793,
-.013077,.006375,
-.012402,.006847,
-.011656,.007195,
-.010861,.007409,
-.01004,.00748,
-.01004,.00748,
.01004,.00748,
.01086,.007409,
.011656,.007196,
.012402,.006848,
.013077,.006375,
.013659,.005793,
.014131,.005119,
.014479,.004372,
.014692,.003577,
.014764,.002757,
.014764,.002756,
.014764,-.002756,
.014692,-.003576,
.014479,-.004372,
.014131,-.005118,
.013659,-.005793,
.013077,-.006375,
.012402,-.006847,
.011656,-.007195,
.010861,-.007409,
.01004,-.00748,
.01004,-.00748,
0.0*
%
%ADD79MACRO79*%
%AMMACRO78*
4,1,44,.00748,.01004,
.00748,-.01004,
.007409,-.01086,
.007196,-.011656,
.006848,-.012402,
.006375,-.013077,
.005793,-.013659,
.005119,-.014131,
.004372,-.014479,
.003577,-.014692,
.002757,-.014764,
.002756,-.014764,
-.002756,-.014764,
-.003576,-.014692,
-.004372,-.014479,
-.005118,-.014131,
-.005793,-.013659,
-.006375,-.013077,
-.006847,-.012402,
-.007195,-.011656,
-.007409,-.010861,
-.00748,-.01004,
-.00748,-.01004,
-.00748,.01004,
-.007409,.01086,
-.007196,.011656,
-.006848,.012402,
-.006375,.013077,
-.005793,.013659,
-.005119,.014131,
-.004372,.014479,
-.003577,.014692,
-.002757,.014764,
-.002756,.014764,
.002756,.014764,
.003576,.014692,
.004372,.014479,
.005118,.014131,
.005793,.013659,
.006375,.013077,
.006847,.012402,
.007195,.011656,
.007409,.010861,
.00748,.01004,
.00748,.01004,
0.0*
%
%ADD78MACRO78*%
%ADD59R,.023748X.035559*%
%AMMACRO82*
4,1,44,.003937,-.017716,
-.003937,-.017716,
-.004621,-.017657,
-.005284,-.017479,
-.005905,-.017189,
-.006468,-.016795,
-.006953,-.01631,
-.007347,-.015748,
-.007637,-.015126,
-.007814,-.014463,
-.007874,-.01378,
-.007874,-.013779,
-.007874,.013779,
-.007814,.014463,
-.007637,.015126,
-.007347,.015748,
-.006953,.01631,
-.006468,.016795,
-.005906,.017189,
-.005284,.017479,
-.004621,.017657,
-.003937,.017716,
-.003937,.017716,
.003937,.017716,
.004621,.017657,
.005284,.017479,
.005905,.017189,
.006468,.016795,
.006953,.01631,
.007347,.015748,
.007637,.015126,
.007814,.014463,
.007874,.01378,
.007874,.013779,
.007874,-.013779,
.007814,-.014463,
.007637,-.015126,
.007347,-.015748,
.006953,-.01631,
.006468,-.016795,
.005906,-.017189,
.005284,-.017479,
.004621,-.017657,
.003937,-.017716,
.003937,-.017716,
0.0*
%
%ADD82MACRO82*%
%AMMACRO62*
4,1,40,.003937,-.010827,
-.003937,-.010827,
-.004621,-.010767,
-.005284,-.01059,
-.005905,-.0103,
-.006468,-.009906,
-.006953,-.009421,
-.007347,-.008859,
-.007637,-.008237,
-.007814,-.007574,
-.007874,-.00689,
-.007874,.00689,
-.007814,.007574,
-.007637,.008237,
-.007347,.008858,
-.006953,.009421,
-.006468,.009906,
-.005906,.0103,
-.005284,.01059,
-.004621,.010767,
-.003937,.010827,
.003937,.010827,
.004621,.010767,
.005284,.01059,
.005905,.0103,
.006468,.009906,
.006953,.009421,
.007347,.008858,
.007637,.008237,
.007814,.007574,
.007874,.00689,
.007874,-.00689,
.007814,-.007574,
.007637,-.008237,
.007347,-.008858,
.006953,-.009421,
.006468,-.009906,
.005906,-.0103,
.005284,-.01059,
.004621,-.010767,
.003937,-.010827,
0.0*
%
%ADD62MACRO62*%
%AMMACRO72*
4,1,44,.003937,-.020669,
-.003937,-.020669,
-.004621,-.02061,
-.005284,-.020432,
-.005905,-.020142,
-.006468,-.019748,
-.006953,-.019263,
-.007347,-.018701,
-.007637,-.018079,
-.007814,-.017416,
-.007874,-.016733,
-.007874,-.016732,
-.007874,.016732,
-.007814,.017416,
-.007637,.018079,
-.007347,.018701,
-.006953,.019263,
-.006468,.019748,
-.005906,.020142,
-.005284,.020432,
-.004621,.02061,
-.003937,.020669,
-.003937,.020669,
.003937,.020669,
.004621,.02061,
.005284,.020432,
.005905,.020142,
.006468,.019748,
.006953,.019263,
.007347,.018701,
.007637,.018079,
.007814,.017416,
.007874,.016733,
.007874,.016732,
.007874,-.016732,
.007814,-.017416,
.007637,-.018079,
.007347,-.018701,
.006953,-.019263,
.006468,-.019748,
.005906,-.020142,
.005284,-.020432,
.004621,-.02061,
.003937,-.020669,
.003937,-.020669,
0.0*
%
%ADD72MACRO72*%
%AMMACRO71*
4,1,40,.003937,-.027559,
-.003937,-.027559,
-.004621,-.027499,
-.005284,-.027322,
-.005905,-.027032,
-.006468,-.026638,
-.006953,-.026153,
-.007347,-.025591,
-.007637,-.024969,
-.007814,-.024306,
-.007874,-.023622,
-.007874,.023622,
-.007814,.024306,
-.007637,.024969,
-.007347,.02559,
-.006953,.026153,
-.006468,.026638,
-.005906,.027032,
-.005284,.027322,
-.004621,.027499,
-.003937,.027559,
.003937,.027559,
.004621,.027499,
.005284,.027322,
.005905,.027032,
.006468,.026638,
.006953,.026153,
.007347,.02559,
.007637,.024969,
.007814,.024306,
.007874,.023622,
.007874,-.023622,
.007814,-.024306,
.007637,-.024969,
.007347,-.02559,
.006953,-.026153,
.006468,-.026638,
.005906,-.027032,
.005284,-.027322,
.004621,-.027499,
.003937,-.027559,
0.0*
%
%ADD71MACRO71*%
%ADD20R,.06587X.053669*%
G75*
%LPD*%
G75*
G36*
G01X-129262Y-4528D02*
X-133561D01*
G03X-130351Y-12279I12387J590D01*
G01X-127311Y-9239D01*
G02X-129262Y-4528I6137J5301D01*
G37*
G36*
G01X-127311Y1365D02*
X-130351Y4405D01*
G03X-133561Y-3346I9177J-8342D01*
G01X-129263D01*
G02X-127311Y1365I8088J-591D01*
G37*
G36*
G01X-126476Y-10074D02*
X-129516Y-13114D01*
G03X-121765Y-16324I8342J9177D01*
G01Y-12026D01*
G02X-126476Y-10074I592J8088D01*
G37*
G36*
G01X-121765Y4151D02*
Y8450D01*
G03X-129516Y5240I590J-12387D01*
G01X-126476Y2200D01*
G02X-121765Y4151I5301J-6137D01*
G37*
G36*
G01D02*
Y8450D01*
G03X-129516Y5240I590J-12387D01*
G01X-126476Y2200D01*
G02X-121765Y4151I5301J-6137D01*
G37*
G36*
G01X-120584Y-12025D02*
Y-16324D01*
G03X-112832Y-13114I-590J12387D01*
G01X-115872Y-10074D01*
G02X-120584Y-12025I-5301J6137D01*
G37*
G36*
G01X-115037Y-9239D02*
X-111997Y-12279D01*
G03X-108787Y-4528I-9177J8342D01*
G01X-113085D01*
G02X-115037Y-9239I-8088J592D01*
G37*
G36*
G01X-113086Y-3346D02*
X-108787D01*
G03X-111997Y4405I-12387J-590D01*
G01X-115037Y1365D01*
G02X-113086Y-3346I-6137J-5301D01*
G37*
G36*
G01X-115872Y2200D02*
X-112832Y5240D01*
G03X-120584Y8450I-8342J-9177D01*
G01Y4152D01*
G02X-115872Y2200I-591J-8088D01*
G37*
G54D100*
X126461Y-71342D03*
X221737D03*
G54D101*
X121036Y60354D03*
X134363D03*
G54D110*
X176575Y-143307D03*
X193504D03*
G54D102*
X130684Y-141802D03*
X164148D03*
G54D111*
X177165Y-148032D03*
X192913D03*
G54D103*
X134739Y-94188D03*
X138479D03*
G54D10*
X-253000Y73617D03*
X-121174Y-35675D03*
X-90551Y-129921D03*
Y129921D03*
X90551Y-129921D03*
Y129921D03*
G54D112*
X180106Y-33465D03*
Y-35433D03*
Y-37402D03*
Y-39370D03*
Y-25590D03*
Y-27559D03*
Y-29528D03*
Y-31496D03*
Y-15748D03*
Y-17716D03*
Y-19685D03*
Y-21654D03*
Y-23622D03*
Y-7874D03*
Y-9842D03*
Y-11811D03*
Y-13780D03*
Y0D03*
Y-1968D03*
Y-3937D03*
Y-5906D03*
Y7874D03*
Y5906D03*
Y3937D03*
Y1968D03*
Y15748D03*
Y13780D03*
Y11811D03*
Y9842D03*
Y25591D03*
Y31496D03*
Y29528D03*
Y27559D03*
X205499Y-32480D03*
Y-34449D03*
Y-36417D03*
Y-38386D03*
Y-40354D03*
Y-24606D03*
Y-26575D03*
Y-28543D03*
Y-30512D03*
Y-16732D03*
Y-18701D03*
Y-20669D03*
Y-22638D03*
Y-8858D03*
Y-10827D03*
Y-12795D03*
Y-14764D03*
Y984D03*
Y-984D03*
Y-2953D03*
Y-4921D03*
Y-6890D03*
Y8858D03*
Y6890D03*
Y4921D03*
Y2953D03*
Y14764D03*
Y12795D03*
Y10827D03*
X205501Y24606D03*
Y32480D03*
Y30512D03*
Y28543D03*
Y26575D03*
G54D20*
X-204900Y-96004D03*
Y-88996D03*
X-195204Y-96004D03*
Y-88996D03*
X-181400Y-56139D03*
Y-49131D03*
X-172462Y-56139D03*
Y-49131D03*
X-163524Y-56139D03*
Y-49131D03*
X-154587Y-56139D03*
Y-49131D03*
X-71889Y-132166D03*
Y-125158D03*
X-62951Y-132166D03*
Y-125158D03*
X-54013Y-132166D03*
Y-125158D03*
X-55700Y-60004D03*
Y-52996D03*
X-45076Y-132166D03*
Y-125158D03*
X-46762Y-60004D03*
Y-52996D03*
X-36138Y-132166D03*
Y-125158D03*
X-37824Y-60004D03*
Y-52996D03*
X-28887Y-60004D03*
Y-52996D03*
X-27200Y-132166D03*
Y-125158D03*
X-19949Y-60004D03*
Y-52996D03*
X-11011Y-60004D03*
Y-52996D03*
X71500Y-62228D03*
Y-55221D03*
X127124Y-58424D03*
Y-51417D03*
X136062Y-58424D03*
Y-51417D03*
X145000Y-58424D03*
Y-51417D03*
G54D104*
X136741Y48739D03*
X173241Y52480D03*
G54D11*
X-258300Y97500D03*
X251969Y-72835D03*
G54D113*
X185039Y-140551D03*
X180020D03*
X190059D03*
G54D114*
X181496Y-134300D03*
X185039D03*
G54D105*
X143479Y-94188D03*
X148479D03*
X153479D03*
X158479D03*
X163479D03*
G54D30*
X-173825Y40060D03*
X-158775D03*
G54D12*
X-251968Y127953D03*
X-204724Y-135827D03*
X204725D03*
X251969Y127953D03*
G54D21*
X-195204Y-80138D03*
Y-70400D03*
X-188196Y-80138D03*
Y-70400D03*
X-190804Y29660D03*
Y40060D03*
X-183796Y29660D03*
Y40060D03*
X-78506Y85944D03*
X-71498D03*
X27793D03*
X34801D03*
G54D115*
X185000Y-95000D03*
X208819D03*
G54D13*
X-238099Y-39810D03*
X-240343D03*
X-238099Y-35477D03*
X-240343D03*
X213628Y-31694D03*
X215872D03*
X213628Y-27362D03*
X215872D03*
X213628Y-20000D03*
X215872D03*
X213628Y-15668D03*
X215872D03*
X213628Y-8072D03*
X215872D03*
X213628Y-3740D03*
X215872D03*
X213628Y3739D03*
X215872D03*
X213628Y8072D03*
X215872D03*
G54D22*
X-197147Y-49131D03*
G54D106*
X142055Y46770D03*
Y50707D03*
X178555Y50511D03*
Y54448D03*
G54D40*
X-106008Y-87779D03*
X-94931Y-85221D03*
X-80599Y-52721D03*
G54D31*
X-171418Y55760D03*
X-161182D03*
G54D32*
X-169331Y22060D03*
X-163269D03*
X-169331Y29660D03*
X-163269D03*
X-38287Y-141800D03*
X-32224D03*
X-30231Y-104900D03*
X-24169D03*
X-16031Y44037D03*
X-9968D03*
X9727Y85944D03*
X15790D03*
X42565Y-106523D03*
Y-99115D03*
X48627Y-106523D03*
Y-99115D03*
X59242Y-93400D03*
X65304D03*
X198169Y-76103D03*
X204231D03*
X198169Y-68295D03*
X204231D03*
G54D116*
X185000Y-72778D03*
Y-56242D03*
G54D14*
X-241527Y-20911D03*
X-244873D03*
X-241527Y-15595D03*
X-244873D03*
X-241527Y-10279D03*
X-244873D03*
X-231927Y-21895D03*
X-235273D03*
X-231927Y-16580D03*
X-235273D03*
X-221273Y11748D03*
Y17064D03*
X-221273Y42535D03*
X-221273Y47851D03*
X-214600Y-41600D03*
X-217927Y11748D03*
Y17064D03*
X-217927Y42535D03*
X-217927Y47851D03*
X-211254Y-41600D03*
X-205734D03*
X-204373Y41804D03*
Y36488D03*
Y47120D03*
Y57751D03*
Y52435D03*
X-202388Y-41600D03*
X-197722Y-21100D03*
X-201027Y41804D03*
Y36488D03*
Y47120D03*
Y57751D03*
Y52435D03*
X-191045Y-62200D03*
X-194391D03*
X-194376Y-21100D03*
X-188973Y66409D03*
X-185627D03*
X-106346Y-114200D03*
X-103000D03*
X-97684D03*
X-94339D03*
X-82939Y-98579D03*
X-79593D03*
X-82939Y-92863D03*
X-79593D03*
X-82939Y-87147D03*
X-79593D03*
X-82939Y-81432D03*
X-79593D03*
X-79827Y-74909D03*
X-83173D03*
X-79827Y-69594D03*
X-83173D03*
Y-62600D03*
X-79827D03*
X-72873Y-110011D03*
Y-104295D03*
Y-98579D03*
Y-92863D03*
Y-87147D03*
Y-81432D03*
X-73545Y93471D03*
X-69527Y-110011D03*
Y-104295D03*
Y-98579D03*
Y-92863D03*
Y-87147D03*
Y-81432D03*
X-70199Y93471D03*
X-59156Y108400D03*
X-55810D03*
X-47143D03*
X-50489D03*
X-29573Y-98136D03*
Y-92420D03*
Y-86704D03*
Y-80988D03*
X-26227Y-98136D03*
Y-92420D03*
Y-86704D03*
Y-80988D03*
X-25948Y44037D03*
X-22602D03*
X-25948Y49352D03*
X-22602D03*
X-25948Y54668D03*
X-22602D03*
X-25948Y68450D03*
X-22602D03*
X-25948Y73766D03*
X-22602D03*
X-25948Y79082D03*
X-22602D03*
X-10531Y87606D03*
X-7185D03*
X9727Y68746D03*
Y63430D03*
Y79179D03*
X13073Y68746D03*
Y63430D03*
Y79179D03*
X32754Y93471D03*
X36100D03*
X46127Y-113085D03*
Y-92554D03*
X49473Y-113085D03*
Y-92554D03*
X53680Y-63800D03*
X50334D03*
X47143Y108400D03*
X50489D03*
X54527Y-69300D03*
X57873D03*
X58721Y-63800D03*
X62066D03*
X59156Y108400D03*
X55810D03*
X69427Y57565D03*
X69427Y52249D03*
Y83036D03*
Y88352D03*
X74723Y-107616D03*
X78069D03*
Y-101900D03*
X74723D03*
X72773Y57565D03*
X72773Y52249D03*
Y83036D03*
Y88352D03*
X97954Y-106400D03*
X101300D03*
Y-71342D03*
X109646Y-106400D03*
X106300D03*
X104646Y-71342D03*
X111027Y-58566D03*
Y-52850D03*
X114373Y-58566D03*
Y-52850D03*
X129373Y48739D03*
X126027D03*
X129373Y54055D03*
X126027D03*
X129373Y69400D03*
X126027D03*
X129373Y84700D03*
X126027D03*
Y78740D03*
X129373D03*
X181694Y-129700D03*
X185039D03*
X186127Y46249D03*
Y51565D03*
Y56880D03*
Y62196D03*
X189473Y46249D03*
Y51565D03*
Y56880D03*
Y62196D03*
X219873Y-53460D03*
X216527D03*
X219873Y-48144D03*
X216527D03*
X232299Y-53352D03*
X235644D03*
X232299Y-48036D03*
X235644D03*
X235644Y-22565D03*
X232299D03*
X235644Y-17249D03*
X232299D03*
X234727Y50000D03*
Y70570D03*
X238073Y50000D03*
Y70570D03*
X253369Y-53352D03*
Y-48036D03*
X253368Y-22565D03*
X256714Y-53352D03*
Y-48036D03*
X256714Y-22565D03*
G54D23*
X-195572Y-51100D03*
X-191241Y-53069D03*
Y-49131D03*
G54D41*
X-105633Y-83940D03*
X-95307Y-89060D03*
X-80974Y-56560D03*
G54D107*
X139764Y72835D03*
Y74803D03*
Y76772D03*
Y78740D03*
Y80709D03*
Y82677D03*
G54D50*
X-59079Y-99162D03*
Y-100737D03*
Y-91288D03*
Y-92863D03*
Y-94438D03*
Y-96013D03*
Y-97588D03*
Y-89714D03*
G54D108*
X150080Y52480D03*
X159921Y48739D03*
Y56220D03*
G54D24*
X-201561Y-15640D03*
Y-8160D03*
X-190537Y-15640D03*
Y-11900D03*
Y-8160D03*
X45798Y-84728D03*
Y-77248D03*
X56822Y-84728D03*
Y-80988D03*
Y-77248D03*
G54D51*
X-55437Y-87647D03*
X-57012D03*
X-47563D03*
X-49138D03*
X-50713D03*
X-52287D03*
X-53862D03*
X-45988D03*
G54D60*
X-43921Y-100737D03*
Y-99162D03*
Y-97588D03*
Y-96013D03*
Y-94438D03*
Y-92863D03*
Y-91288D03*
Y-89714D03*
G54D33*
X-161577Y-131887D03*
X-130081D03*
G54D15*
X-232395Y-75045D03*
X-105544Y-139900D03*
X124887Y117825D03*
X186897Y-43307D03*
G54D42*
X-109845Y-83940D03*
Y-86499D03*
Y-89059D03*
X-102168D03*
Y-86501D03*
Y-83940D03*
X-98772Y-83941D03*
Y-86499D03*
Y-89060D03*
X-91094D03*
Y-86501D03*
Y-83941D03*
X-84439Y-51441D03*
Y-53999D03*
Y-56560D03*
X-76762D03*
Y-54001D03*
Y-51441D03*
G54D117*
X204613Y-44685D03*
Y36811D03*
G54D16*
X-232395Y3695D03*
X186897Y35433D03*
X223313Y117825D03*
G54D25*
X-196360Y-56809D03*
X-194391D03*
X-192423D03*
X-190454D03*
X-196360Y-45392D03*
X-190454D03*
X-192423D03*
X-194391D03*
G54D34*
X-154096Y-88580D03*
X-158427D03*
X-149766D03*
X-141104D03*
X-145435D03*
X-132443D03*
X-136774D03*
X-123782D03*
X-128112D03*
G54D109*
X150315Y66142D03*
Y89370D03*
G54D52*
X-60650Y64883D03*
X-55650D03*
X-50650D03*
X-45650D03*
X45650D03*
X50650D03*
X55650D03*
X60650D03*
G54D61*
X-27200Y-114500D03*
G54D70*
X-12690Y58115D03*
Y56343D03*
Y66973D03*
Y65202D03*
Y63430D03*
Y61658D03*
Y59886D03*
G54D43*
X-100442Y-74909D03*
Y-51091D03*
G54D118*
X230888Y40800D03*
Y37060D03*
Y44540D03*
Y57630D03*
Y65110D03*
Y61370D03*
X241912Y37060D03*
Y44540D03*
Y57630D03*
Y65110D03*
G54D71*
X-14764Y108813D03*
X-16732D03*
X-4921D03*
X-6890D03*
X-8858D03*
X-10827D03*
X-12795D03*
X2953D03*
X984D03*
X-984D03*
X-2953D03*
X10827D03*
X8858D03*
X6890D03*
X4921D03*
X16732D03*
X14764D03*
X12795D03*
G54D62*
X-29759Y-118339D03*
Y-110661D03*
X-27200Y-118339D03*
X-24641D03*
Y-110661D03*
X-27200D03*
G54D35*
X-158427Y-77428D03*
Y-80972D03*
X-154096Y-77428D03*
Y-80972D03*
X-149766Y-77428D03*
Y-80972D03*
X-141104Y-77428D03*
Y-80972D03*
X-145435Y-77428D03*
Y-80972D03*
X-132443Y-77428D03*
Y-80972D03*
X-128112Y-77428D03*
Y-80972D03*
X-123782Y-77428D03*
Y-80972D03*
X2227Y-109528D03*
Y-113072D03*
X-3341Y-109528D03*
Y-113072D03*
X19270Y-109228D03*
Y-112772D03*
X23270Y-109228D03*
Y-112772D03*
G54D44*
X-71460Y-58213D03*
Y-50536D03*
X-68901Y-58213D03*
X-66341D03*
Y-50536D03*
X-68899D03*
G54D26*
X-191749Y59500D03*
Y55760D03*
Y52020D03*
X196751Y-57200D03*
Y-60940D03*
Y-53460D03*
G54D80*
X7800Y-73958D03*
Y-56242D03*
X163479Y-73958D03*
Y-56242D03*
G54D17*
X-223340Y23888D03*
Y34912D03*
X-219600Y23888D03*
X-215860D03*
Y34912D03*
X230231Y-41212D03*
X233972D03*
X237712D03*
Y-30188D03*
X230231D03*
X251301Y-41212D03*
Y-30188D03*
X255041Y-41212D03*
X258782D03*
Y-30188D03*
G54D53*
X-53150Y75217D03*
X53150D03*
G54D72*
X-6462Y-129526D03*
X-8431D03*
X-10399D03*
X3380D03*
X1412D03*
X-557D03*
X-2525D03*
X-4494D03*
X5349D03*
X11254D03*
X9286D03*
X7317D03*
G54D18*
X-228800Y31073D03*
Y27727D03*
X-214500Y-34473D03*
Y-31127D03*
Y-10227D03*
Y-13573D03*
X-208784Y-34473D03*
Y-31127D03*
X-209184Y-10227D03*
Y-13573D03*
X-197353Y-34473D03*
X-203068D03*
X-197353Y-31127D03*
X-203068D03*
X-191637Y-34473D03*
Y-31127D03*
X-180205Y-34473D03*
X-185921D03*
X-180205Y-31127D03*
X-185921D03*
X-183713Y-13573D03*
Y-10227D03*
X-174932Y-77527D03*
Y-80873D03*
X-174490Y-34473D03*
Y-31127D03*
X-178397Y-13573D03*
Y-10227D03*
X-169616Y-77527D03*
Y-80873D03*
X-164300Y-77527D03*
Y-80873D03*
X-168774Y-34473D03*
Y-31127D03*
X-113000Y-100446D03*
Y-97100D03*
X-97684Y-108873D03*
X-103000D03*
X-97684Y-105527D03*
X-103000D03*
X-69500Y-75373D03*
X-63784D03*
X-69500Y-72027D03*
X-63784D03*
X-63781Y43261D03*
Y46607D03*
Y52127D03*
Y55473D03*
X-56428Y-113673D03*
Y-110327D03*
X-58068Y-75373D03*
Y-72027D03*
X-58465Y43261D03*
Y46607D03*
Y52127D03*
Y55473D03*
X-50713Y-113673D03*
Y-110327D03*
X-52353Y-75373D03*
X-46637D03*
X-52353Y-72027D03*
X-46637D03*
X-53150Y52127D03*
Y55473D03*
X-47834Y52127D03*
Y55473D03*
X-40921Y-75373D03*
Y-72027D03*
X-42518Y52127D03*
Y55473D03*
X-35205Y-75373D03*
X-29489D03*
X-35205Y-72027D03*
X-29489D03*
X-33332Y59886D03*
Y63232D03*
X-23774Y-75373D03*
Y-72027D03*
X-22700Y59886D03*
X-28016D03*
X-22700Y63232D03*
X-28016D03*
X-20788Y93727D03*
Y97072D03*
X-20400Y-84334D03*
Y-80988D03*
X-15073Y97072D03*
Y93727D03*
X-10474Y75834D03*
Y79180D03*
X-3387Y43261D03*
Y46607D03*
Y75834D03*
Y79179D03*
X43100Y-60873D03*
Y-57527D03*
X42518Y43261D03*
Y46607D03*
Y52127D03*
Y55473D03*
X47834Y43261D03*
Y46607D03*
X53150Y52127D03*
Y55473D03*
X47834Y52127D03*
Y55473D03*
X58465Y52127D03*
Y55473D03*
X63781Y52127D03*
Y55473D03*
X86516Y-67432D03*
X80400Y-67432D03*
X86516Y-64087D03*
Y-58566D03*
X80400Y-64087D03*
Y-58566D03*
X86516Y-55220D03*
X80400Y-55221D03*
X80300Y69027D03*
Y72373D03*
X91200Y-109673D03*
Y-106327D03*
X112700Y-90673D03*
Y-87327D03*
X134739Y-84127D03*
Y-87473D03*
X137484Y119127D03*
Y122473D03*
X132168Y119127D03*
Y122473D03*
X140454Y-87473D03*
Y-84127D03*
X146170D03*
Y-87473D03*
X142800Y119127D03*
Y122473D03*
X151886Y-84127D03*
Y-87473D03*
X148116Y119127D03*
Y122473D03*
X157602Y-84127D03*
Y-87473D03*
X163479Y-84127D03*
Y-87473D03*
X167100Y50807D03*
Y54152D03*
X185039Y-123773D03*
X179724D03*
X185039Y-120427D03*
X179724D03*
X190355Y-123773D03*
Y-120427D03*
X218748Y42473D03*
Y39127D03*
Y59697D03*
Y63042D03*
X215400Y119127D03*
Y122473D03*
X224772Y-34027D03*
Y-37373D03*
X224064Y42473D03*
Y39127D03*
Y59697D03*
Y63042D03*
X245841Y-34027D03*
Y-37373D03*
X249535Y39127D03*
Y42473D03*
Y59697D03*
Y63043D03*
X254851Y39127D03*
Y42473D03*
Y59697D03*
Y63042D03*
G54D45*
X-71460Y-54001D03*
G54D90*
X60305Y-113324D03*
X62273D03*
X64242D03*
G54D27*
X-180081Y-130312D03*
X-119057D03*
G54D36*
X-154100Y-19725D03*
Y-4675D03*
G54D63*
X-23425Y119365D03*
X23425D03*
G54D54*
X-55650Y85552D03*
X-60650D03*
X-50650D03*
X-45650D03*
X45650D03*
X50650D03*
X60650D03*
X55650D03*
G54D81*
X27362Y-146211D03*
X29724D03*
X32087D03*
X34449D03*
X36811D03*
X39173D03*
X41535D03*
X43898D03*
X46260D03*
X48622D03*
X50984D03*
X53346D03*
X55709D03*
X58071D03*
X60433D03*
X62795D03*
X65157D03*
X67520D03*
X69882D03*
G54D82*
X26181Y-134892D03*
X28543D03*
X30906D03*
X33268D03*
X35630D03*
X37992D03*
X40354D03*
X42716D03*
X45079D03*
X47441D03*
X49803D03*
X52165D03*
X54527D03*
X56890D03*
X59252D03*
X61614D03*
X63976D03*
X66338D03*
X68701D03*
X71063D03*
G54D19*
X-214600Y-74909D03*
Y-51091D03*
G54D91*
X60305Y-103876D03*
X64242D03*
X62273D03*
G54D55*
X-56683Y95468D03*
Y101531D03*
X-49616Y95468D03*
Y101531D03*
X-36138Y-117531D03*
Y-111468D03*
X31121Y-84019D03*
Y-77957D03*
X38929Y-84019D03*
Y-77957D03*
X49616Y95468D03*
Y101531D03*
X56683Y95468D03*
Y101531D03*
X63692Y-84019D03*
X71500D03*
X63692Y-77957D03*
X71500D03*
G54D46*
X-67621Y-54376D03*
G54D73*
X-5478Y-124210D03*
X-11384D03*
X-9415D03*
X-7447D03*
X-3510D03*
X-1541D03*
X427D03*
X2396D03*
X4364D03*
X6333D03*
X8301D03*
X10270D03*
G54D37*
X-119057Y-92517D03*
G54D64*
X-17092Y-144782D03*
X16924D03*
G54D28*
X-182851Y52020D03*
Y55760D03*
Y59500D03*
X205649Y-60940D03*
Y-57200D03*
Y-53460D03*
G54D47*
X-65650Y128453D03*
X-40650D03*
X40650D03*
X65650D03*
G54D92*
X66998Y-111553D03*
Y-109584D03*
Y-107616D03*
Y-105647D03*
G54D38*
X-111056Y-139900D03*
G54D65*
X-13470Y-132184D03*
X13302D03*
G54D29*
X-176537Y-92517D03*
G54D56*
X-55610Y117626D03*
X-50689D03*
X50689D03*
X55610D03*
G54D74*
X-11384Y-112944D03*
X10270D03*
G54D83*
X23425Y-135974D03*
X73819D03*
G54D93*
X67360Y65188D03*
X71100Y76212D03*
X67360D03*
X74840Y65188D03*
Y76212D03*
G54D57*
X-47468Y-142875D03*
X-43531D03*
X-6890Y98155D03*
X-10827D03*
G54D84*
X30775Y-56500D03*
G54D48*
X-51500Y-95225D03*
G54D66*
X-16305Y-126869D03*
X16137D03*
G54D39*
X-106008Y-97100D03*
X-94276D03*
X-83171Y54685D03*
Y65321D03*
Y75957D03*
X-71439Y54685D03*
Y65321D03*
Y75957D03*
X23128Y54685D03*
Y65321D03*
Y75957D03*
X34860Y54685D03*
Y65321D03*
Y75957D03*
X50334Y-55221D03*
X62066D03*
G54D75*
X-11384Y-109656D03*
X10270D03*
G54D58*
X-38642Y-148189D03*
X-32224D03*
G54D85*
X26247Y-57779D03*
Y-60339D03*
Y-52661D03*
Y-55221D03*
G54D94*
X91300Y-98980D03*
X96300D03*
X101300D03*
X106300D03*
G54D49*
X-57012Y-102804D03*
X-55437D03*
X-53862D03*
X-52287D03*
X-50713D03*
X-49138D03*
X-47563D03*
X-45988D03*
G54D67*
X-15321Y-112944D03*
X-13352D03*
X-9415D03*
X-7447D03*
X6333D03*
X8301D03*
X12238D03*
X14207D03*
G54D76*
X-5159Y61658D03*
G54D59*
X-45500Y-148189D03*
X-8859Y92841D03*
G54D68*
X-13352Y-109656D03*
X-15321D03*
X-7447D03*
X-9415D03*
X8301D03*
X6333D03*
X14207D03*
X12238D03*
G54D77*
X-10474Y54127D03*
X-8702D03*
X-6930D03*
X-5159D03*
X-3387D03*
X-1615D03*
X156D03*
G54D95*
X91300Y-79020D03*
X101300D03*
X96300D03*
X106300D03*
G54D86*
X32736Y-106227D03*
Y-94495D03*
G54D78*
X-5159Y69190D03*
X-6930D03*
X-8702D03*
X-10474D03*
X156D03*
X-1615D03*
X-3387D03*
G54D69*
X-17882Y-96082D03*
Y-98326D03*
X-13550Y-96082D03*
Y-98326D03*
X-9218D03*
Y-96082D03*
X-4885Y-98326D03*
Y-96082D03*
X-2741Y-105244D03*
Y-103000D03*
X1627Y-105244D03*
Y-103000D03*
X3772Y-96082D03*
Y-98326D03*
X8104Y-96082D03*
Y-98326D03*
X16768D03*
Y-96082D03*
X12436Y-98326D03*
Y-96082D03*
X161519Y119678D03*
Y121922D03*
X156759Y119678D03*
Y121922D03*
G54D87*
X38078Y-60339D03*
Y-57779D03*
Y-55221D03*
Y-52661D03*
G54D96*
X92894Y-58566D03*
Y-60535D03*
Y-62503D03*
Y-56598D03*
X104706Y-62503D03*
Y-60535D03*
Y-58566D03*
Y-56598D03*
G54D79*
X2373Y56343D03*
Y58115D03*
Y59886D03*
Y61658D03*
Y63430D03*
Y65202D03*
Y66973D03*
G54D88*
X62273Y-108600D03*
G54D97*
X98880Y-114800D03*
X108919D03*
G54D89*
X57549Y-107616D03*
Y-109584D03*
Y-111553D03*
Y-105647D03*
G54D98*
X98800Y-59550D03*
G54D99*
X118872Y-146724D03*
Y-99480D03*
X170054Y-146724D03*
Y-99480D03*
M02*
