G04 ================== begin FILE IDENTIFICATION RECORD ==================*
G04 Layout Name:  main_board.brd*
G04 Film Name:    09-PAST_TOP*
G04 File Format:  Gerber RS274X*
G04 File Origin:  Cadence Allegro 17.4-S035*
G04 Origin Date:  Thu Oct 16 18:34:05 2025*
G04 *
G04 Layer:  PIN/PASTEMASK_TOP*
G04 Layer:  PACKAGE GEOMETRY/PASTEMASK_TOP*
G04 Layer:  BOARD GEOMETRY/PASTEMASK_TOP*
G04 *
G04 Offset:    (0.000 0.000)*
G04 Mirror:    No*
G04 Mode:      Positive*
G04 Rotation:  0*
G04 FullContactRelief:  No*
G04 UndefLineWidth:     0.000*
G04 ================== end FILE IDENTIFICATION RECORD ====================*
%FSLAX25Y25*MOIN*%
%IR0*IPPOS*OFA0.00000B0.00000*MIA0B0*SFA1.00000B1.00000*%
%AMMACRO35*
4,1,44,.021653,-.007873,
.021653,.007873,
.021624,.008215,
.021535,.008546,
.02139,.008858,
.021193,.009139,
.020951,.009382,
.020669,.009578,
.020358,.009724,
.020027,.009812,
.019685,.009842,
.019684,.009842,
-.019684,.009842,
-.020026,.009813,
-.020357,.009724,
-.020669,.009579,
-.02095,.009382,
-.021193,.00914,
-.021389,.008858,
-.021535,.008547,
-.021623,.008216,
-.021653,.007874,
-.021653,.007873,
-.021653,-.007873,
-.021624,-.008215,
-.021535,-.008546,
-.02139,-.008858,
-.021193,-.009139,
-.020951,-.009382,
-.020669,-.009578,
-.020358,-.009724,
-.020027,-.009812,
-.019685,-.009842,
-.019684,-.009842,
.019684,-.009842,
.020026,-.009813,
.020357,-.009724,
.020669,-.009579,
.02095,-.009382,
.021193,-.00914,
.021389,-.008858,
.021535,-.008547,
.021623,-.008216,
.021653,-.007874,
.021653,-.007873,
0.0*
%
%ADD35MACRO35*%
%AMMACRO39*
4,1,44,-.076771,.033464,
-.076771,-.033464,
-.076742,-.033806,
-.076653,-.034137,
-.076508,-.034448,
-.076311,-.03473,
-.076068,-.034972,
-.075787,-.035169,
-.075476,-.035314,
-.075144,-.035403,
-.074802,-.035433,
-.074802,-.035433,
.074802,-.035433,
.075144,-.035403,
.075475,-.035314,
.075787,-.035169,
.076068,-.034973,
.076311,-.03473,
.076507,-.034449,
.076653,-.034138,
.076741,-.033806,
.076771,-.033464,
.076771,-.033464,
.076771,.033464,
.076742,.033806,
.076653,.034137,
.076508,.034448,
.076311,.03473,
.076068,.034972,
.075787,.035169,
.075476,.035314,
.075144,.035403,
.074802,.035433,
.074802,.035433,
-.074802,.035433,
-.075144,.035403,
-.075475,.035314,
-.075787,.035169,
-.076068,.034973,
-.076311,.03473,
-.076507,.034449,
-.076653,.034138,
-.076741,.033806,
-.076771,.033464,
-.076771,.033464,
0.0*
%
%ADD39MACRO39*%
%AMMACRO19*
4,1,44,-.007873,-.012795,
.007873,-.012795,
.008215,-.012766,
.008546,-.012677,
.008858,-.012532,
.009139,-.012335,
.009382,-.012093,
.009578,-.011811,
.009724,-.0115,
.009812,-.011169,
.009842,-.010827,
.009842,-.010826,
.009842,.010826,
.009813,.011168,
.009724,.011499,
.009579,.011811,
.009382,.012092,
.00914,.012335,
.008858,.012531,
.008547,.012677,
.008216,.012765,
.007874,.012795,
.007873,.012795,
-.007873,.012795,
-.008215,.012766,
-.008546,.012677,
-.008858,.012532,
-.009139,.012335,
-.009382,.012093,
-.009578,.011811,
-.009724,.0115,
-.009812,.011169,
-.009842,.010827,
-.009842,.010826,
-.009842,-.010826,
-.009813,-.011168,
-.009724,-.011499,
-.009579,-.011811,
-.009382,-.012092,
-.00914,-.012335,
-.008858,-.012531,
-.008547,-.012677,
-.008216,-.012765,
-.007874,-.012795,
-.007873,-.012795,
0.0*
%
%ADD19MACRO19*%
%AMMACRO33*
4,1,44,-.012992,.002558,
-.012992,-.002558,
-.012962,-.0029,
-.012873,-.003231,
-.012728,-.003543,
-.012532,-.003824,
-.012289,-.004067,
-.012008,-.004263,
-.011697,-.004409,
-.011365,-.004497,
-.011023,-.004527,
-.011023,-.004527,
.011023,-.004527,
.011365,-.004498,
.011696,-.004409,
.012007,-.004264,
.012289,-.004067,
.012531,-.003824,
.012728,-.003543,
.012873,-.003232,
.012962,-.0029,
.012992,-.002559,
.012992,-.002558,
.012992,.002558,
.012962,.0029,
.012873,.003231,
.012728,.003543,
.012532,.003824,
.012289,.004067,
.012008,.004263,
.011697,.004409,
.011365,.004497,
.011023,.004527,
.011023,.004527,
-.011023,.004527,
-.011365,.004498,
-.011696,.004409,
-.012007,.004264,
-.012289,.004067,
-.012531,.003824,
-.012728,.003543,
-.012873,.003232,
-.012962,.0029,
-.012992,.002559,
-.012992,.002558,
0.0*
%
%ADD33MACRO33*%
%AMMACRO25*
4,1,44,-.013779,.001968,
-.013779,-.001968,
-.01375,-.00231,
-.013661,-.002641,
-.013516,-.002952,
-.013319,-.003234,
-.013076,-.003476,
-.012795,-.003673,
-.012484,-.003818,
-.012152,-.003907,
-.011811,-.003937,
-.01181,-.003937,
.01181,-.003937,
.012152,-.003907,
.012483,-.003818,
.012795,-.003673,
.013076,-.003477,
.013319,-.003234,
.013515,-.002953,
.013661,-.002642,
.013749,-.00231,
.013779,-.001968,
.013779,-.001968,
.013779,.001968,
.01375,.00231,
.013661,.002641,
.013516,.002953,
.013319,.003234,
.013076,.003476,
.012795,.003673,
.012484,.003818,
.012152,.003907,
.01181,.003937,
.01181,.003937,
-.01181,.003937,
-.012152,.003907,
-.012483,.003818,
-.012795,.003673,
-.013076,.003477,
-.013319,.003234,
-.013515,.002953,
-.013661,.002642,
-.013749,.00231,
-.013779,.001968,
-.013779,.001968,
0.0*
%
%ADD25MACRO25*%
%ADD18C,.200787*%
%ADD13C,.15748*%
%AMMACRO12*
4,1,44,-.030512,.003936,
-.030512,-.003936,
-.030482,-.004278,
-.030393,-.004609,
-.030248,-.004921,
-.030052,-.005202,
-.029809,-.005445,
-.029528,-.005641,
-.029217,-.005787,
-.028885,-.005875,
-.028543,-.005905,
-.028543,-.005905,
.028543,-.005905,
.028885,-.005876,
.029216,-.005787,
.029527,-.005642,
.029809,-.005445,
.030051,-.005202,
.030248,-.004921,
.030393,-.00461,
.030482,-.004278,
.030512,-.003937,
.030512,-.003936,
.030512,.003936,
.030482,.004278,
.030393,.004609,
.030248,.004921,
.030052,.005202,
.029809,.005445,
.029528,.005641,
.029217,.005787,
.028885,.005875,
.028543,.005905,
.028543,.005905,
-.028543,.005905,
-.028885,.005876,
-.029216,.005787,
-.029527,.005642,
-.029809,.005445,
-.030051,.005202,
-.030248,.004921,
-.030393,.00461,
-.030482,.004278,
-.030512,.003937,
-.030512,.003936,
0.0*
%
%ADD12MACRO12*%
%AMMACRO17*
4,1,44,.088582,-.023621,
.088582,.023621,
.088553,.023963,
.088464,.024294,
.088319,.024606,
.088122,.024887,
.08788,.02513,
.087598,.025326,
.087287,.025472,
.086956,.02556,
.086614,.02559,
.086613,.02559,
-.086613,.02559,
-.086955,.025561,
-.087286,.025472,
-.087598,.025327,
-.087879,.02513,
-.088122,.024888,
-.088318,.024606,
-.088464,.024295,
-.088552,.023964,
-.088582,.023622,
-.088582,.023621,
-.088582,-.023621,
-.088553,-.023963,
-.088464,-.024294,
-.088319,-.024606,
-.088122,-.024887,
-.08788,-.02513,
-.087598,-.025326,
-.087287,-.025472,
-.086956,-.02556,
-.086614,-.02559,
-.086613,-.02559,
.086613,-.02559,
.086955,-.025561,
.087286,-.025472,
.087598,-.025327,
.087879,-.02513,
.088122,-.024888,
.088318,-.024606,
.088464,-.024295,
.088552,-.023964,
.088582,-.023622,
.088582,-.023621,
0.0*
%
%ADD17MACRO17*%
%AMMACRO37*
4,1,44,-.041338,-.062992,
.041338,-.062992,
.042022,-.062932,
.042685,-.062755,
.043307,-.062465,
.043869,-.062071,
.044354,-.061586,
.044748,-.061024,
.045038,-.060402,
.045216,-.059739,
.045275,-.059055,
.045275,-.059055,
.045275,.059055,
.045216,.059739,
.045038,.060402,
.044748,.061024,
.044354,.061586,
.043869,.062071,
.043307,.062465,
.042685,.062755,
.042022,.062932,
.041339,.062992,
.041338,.062992,
-.041338,.062992,
-.042022,.062932,
-.042685,.062755,
-.043307,.062465,
-.043869,.062071,
-.044354,.061586,
-.044748,.061024,
-.045038,.060402,
-.045216,.059739,
-.045275,.059055,
-.045275,.059055,
-.045275,-.059055,
-.045216,-.059739,
-.045038,-.060402,
-.044748,-.061024,
-.044354,-.061586,
-.043869,-.062071,
-.043307,-.062465,
-.042685,-.062755,
-.042022,-.062932,
-.041339,-.062992,
-.041338,-.062992,
0.0*
%
%ADD37MACRO37*%
%AMMACRO16*
4,1,44,.076771,-.033464,
.076771,.033464,
.076742,.033806,
.076653,.034137,
.076508,.034448,
.076311,.03473,
.076068,.034972,
.075787,.035169,
.075476,.035314,
.075144,.035403,
.074802,.035433,
.074802,.035433,
-.074802,.035433,
-.075144,.035403,
-.075475,.035314,
-.075787,.035169,
-.076068,.034973,
-.076311,.03473,
-.076507,.034449,
-.076653,.034138,
-.076741,.033806,
-.076771,.033464,
-.076771,.033464,
-.076771,-.033464,
-.076742,-.033806,
-.076653,-.034137,
-.076508,-.034448,
-.076311,-.03473,
-.076068,-.034972,
-.075787,-.035169,
-.075476,-.035314,
-.075144,-.035403,
-.074802,-.035433,
-.074802,-.035433,
.074802,-.035433,
.075144,-.035403,
.075475,-.035314,
.075787,-.035169,
.076068,-.034973,
.076311,-.03473,
.076507,-.034449,
.076653,-.034138,
.076741,-.033806,
.076771,-.033464,
.076771,-.033464,
0.0*
%
%ADD16MACRO16*%
%AMMACRO32*
4,1,40,-.012992,.004921,
-.012992,-.004921,
-.012962,-.005263,
-.012873,-.005594,
-.012728,-.005905,
-.012531,-.006187,
-.012289,-.006429,
-.012008,-.006626,
-.011696,-.006771,
-.011365,-.00686,
-.011023,-.00689,
.011023,-.00689,
.011365,-.00686,
.011696,-.006771,
.012007,-.006626,
.012289,-.006429,
.012531,-.006187,
.012728,-.005906,
.012873,-.005594,
.012962,-.005263,
.012992,-.004921,
.012992,.004921,
.012962,.005263,
.012873,.005594,
.012728,.005906,
.012531,.006187,
.012289,.006429,
.012008,.006626,
.011696,.006771,
.011365,.00686,
.011023,.00689,
-.011023,.00689,
-.011365,.00686,
-.011696,.006771,
-.012007,.006626,
-.012289,.006429,
-.012531,.006187,
-.012728,.005906,
-.012873,.005594,
-.012962,.005263,
-.012992,.004921,
0.0*
%
%ADD32MACRO32*%
%AMMACRO45*
4,1,40,-.035433,.021653,
-.035433,-.021653,
-.035403,-.021995,
-.035314,-.022326,
-.035169,-.022637,
-.034972,-.022919,
-.03473,-.023161,
-.034448,-.023358,
-.034137,-.023503,
-.033806,-.023592,
-.033464,-.023622,
.033464,-.023622,
.033806,-.023592,
.034137,-.023503,
.034448,-.023358,
.03473,-.023161,
.034972,-.022919,
.035169,-.022638,
.035314,-.022326,
.035403,-.021995,
.035433,-.021653,
.035433,.021653,
.035403,.021995,
.035314,.022326,
.035169,.022637,
.034972,.022919,
.03473,.023161,
.034448,.023358,
.034137,.023503,
.033806,.023592,
.033464,.023622,
-.033464,.023622,
-.033806,.023592,
-.034137,.023503,
-.034448,.023358,
-.03473,.023161,
-.034972,.022919,
-.035169,.022638,
-.035314,.022326,
-.035403,.021995,
-.035433,.021653,
0.0*
%
%ADD45MACRO45*%
%AMMACRO24*
4,1,44,.007873,.012795,
-.007873,.012795,
-.008215,.012766,
-.008546,.012677,
-.008858,.012532,
-.009139,.012335,
-.009382,.012093,
-.009578,.011811,
-.009724,.0115,
-.009812,.011169,
-.009842,.010827,
-.009842,.010826,
-.009842,-.010826,
-.009813,-.011168,
-.009724,-.011499,
-.009579,-.011811,
-.009382,-.012092,
-.00914,-.012335,
-.008858,-.012531,
-.008547,-.012677,
-.008216,-.012765,
-.007874,-.012795,
-.007873,-.012795,
.007873,-.012795,
.008215,-.012766,
.008546,-.012677,
.008858,-.012532,
.009139,-.012335,
.009382,-.012093,
.009578,-.011811,
.009724,-.0115,
.009812,-.011169,
.009842,-.010827,
.009842,-.010826,
.009842,.010826,
.009813,.011168,
.009724,.011499,
.009579,.011811,
.009382,.012092,
.00914,.012335,
.008858,.012531,
.008547,.012677,
.008216,.012765,
.007874,.012795,
.007873,.012795,
0.0*
%
%ADD24MACRO24*%
%AMMACRO34*
4,1,44,-.033464,.021653,
-.033464,-.021653,
-.033435,-.021995,
-.033346,-.022326,
-.033201,-.022637,
-.033004,-.022919,
-.032761,-.023161,
-.03248,-.023358,
-.032169,-.023503,
-.031837,-.023592,
-.031496,-.023622,
-.031495,-.023622,
.031495,-.023622,
.031837,-.023592,
.032168,-.023503,
.03248,-.023358,
.032761,-.023162,
.033004,-.022919,
.0332,-.022638,
.033346,-.022327,
.033434,-.021995,
.033464,-.021653,
.033464,-.021653,
.033464,.021653,
.033435,.021995,
.033346,.022326,
.033201,.022637,
.033004,.022919,
.032761,.023161,
.03248,.023358,
.032169,.023503,
.031837,.023592,
.031496,.023622,
.031495,.023622,
-.031495,.023622,
-.031837,.023592,
-.032168,.023503,
-.03248,.023358,
-.032761,.023162,
-.033004,.022919,
-.0332,.022638,
-.033346,.022327,
-.033434,.021995,
-.033464,.021653,
-.033464,.021653,
0.0*
%
%ADD34MACRO34*%
%ADD22C,.043307*%
%ADD10C,.03937*%
%AMMACRO44*
4,1,40,.030512,-.009842,
.030512,.009842,
.030482,.010184,
.030393,.010515,
.030248,.010826,
.030051,.011108,
.029809,.01135,
.029527,.011547,
.029216,.011692,
.028885,.011781,
.028543,.011811,
-.028543,.011811,
-.028885,.011781,
-.029216,.011692,
-.029527,.011547,
-.029809,.01135,
-.030051,.011108,
-.030248,.010827,
-.030393,.010515,
-.030482,.010184,
-.030512,.009842,
-.030512,-.009842,
-.030482,-.010184,
-.030393,-.010515,
-.030248,-.010826,
-.030051,-.011108,
-.029809,-.01135,
-.029528,-.011547,
-.029216,-.011692,
-.028885,-.011781,
-.028543,-.011811,
.028543,-.011811,
.028885,-.011781,
.029216,-.011692,
.029527,-.011547,
.029809,-.01135,
.030051,-.011108,
.030248,-.010827,
.030393,-.010515,
.030482,-.010184,
.030512,-.009842,
0.0*
%
%ADD44MACRO44*%
%ADD23R,.043307X.043307*%
%AMMACRO40*
4,1,44,.011811,-.019684,
.011811,.019684,
.011781,.020026,
.011692,.020357,
.011547,.020669,
.011351,.02095,
.011108,.021193,
.010827,.021389,
.010516,.021535,
.010184,.021623,
.009842,.021653,
.009842,.021653,
-.009842,.021653,
-.010184,.021624,
-.010515,.021535,
-.010826,.02139,
-.011108,.021193,
-.01135,.02095,
-.011547,.020669,
-.011692,.020358,
-.011781,.020026,
-.011811,.019685,
-.011811,.019684,
-.011811,-.019684,
-.011781,-.020026,
-.011692,-.020357,
-.011547,-.020669,
-.011351,-.02095,
-.011108,-.021193,
-.010827,-.021389,
-.010516,-.021535,
-.010184,-.021623,
-.009842,-.021653,
-.009842,-.021653,
.009842,-.021653,
.010184,-.021624,
.010515,-.021535,
.010826,-.02139,
.011108,-.021193,
.01135,-.02095,
.011547,-.020669,
.011692,-.020358,
.011781,-.020026,
.011811,-.019685,
.011811,-.019684,
0.0*
%
%ADD40MACRO40*%
%ADD20R,.025591X.023618*%
%ADD21R,.023618X.025591*%
%ADD43O,.057087X.014961*%
%ADD31R,.015748X.023618*%
%ADD27R,.015748X.014169*%
%ADD42O,.027559X.047244*%
%ADD28O,.047244X.098425*%
%ADD26R,.014169X.015748*%
%AMMACRO38*
4,1,40,-.009842,-.03937,
.009842,-.03937,
.010184,-.03934,
.010515,-.039251,
.010826,-.039106,
.011108,-.038909,
.01135,-.038667,
.011547,-.038386,
.011692,-.038074,
.011781,-.037743,
.011811,-.037401,
.011811,.037401,
.011781,.037743,
.011692,.038074,
.011547,.038386,
.01135,.038667,
.011108,.038909,
.010827,.039106,
.010515,.039251,
.010184,.03934,
.009842,.03937,
-.009842,.03937,
-.010184,.03934,
-.010515,.039251,
-.010826,.039106,
-.011108,.038909,
-.01135,.038667,
-.011547,.038386,
-.011692,.038074,
-.011781,.037743,
-.011811,.037401,
-.011811,-.037401,
-.011781,-.037743,
-.011692,-.038074,
-.011547,-.038386,
-.01135,-.038667,
-.011108,-.038909,
-.010827,-.039106,
-.010515,-.039251,
-.010184,-.03934,
-.009842,-.03937,
0.0*
%
%ADD38MACRO38*%
%ADD29O,.062992X.07874*%
%AMMACRO36*
4,1,44,-.088582,.023621,
-.088582,-.023621,
-.088553,-.023963,
-.088464,-.024294,
-.088319,-.024606,
-.088122,-.024887,
-.08788,-.02513,
-.087598,-.025326,
-.087287,-.025472,
-.086956,-.02556,
-.086614,-.02559,
-.086613,-.02559,
.086613,-.02559,
.086955,-.025561,
.087286,-.025472,
.087598,-.025327,
.087879,-.02513,
.088122,-.024888,
.088318,-.024606,
.088464,-.024295,
.088552,-.023964,
.088582,-.023622,
.088582,-.023621,
.088582,.023621,
.088553,.023963,
.088464,.024294,
.088319,.024606,
.088122,.024887,
.08788,.02513,
.087598,.025326,
.087287,.025472,
.086956,.02556,
.086614,.02559,
.086613,.02559,
-.086613,.02559,
-.086955,.025561,
-.087286,.025472,
-.087598,.025327,
-.087879,.02513,
-.088122,.024888,
-.088318,.024606,
-.088464,.024295,
-.088552,.023964,
-.088582,.023622,
-.088582,.023621,
0.0*
%
%ADD36MACRO36*%
%AMMACRO11*
4,1,40,-.054134,.019685,
-.054134,-.019685,
-.054074,-.020369,
-.053897,-.021032,
-.053607,-.021653,
-.053213,-.022216,
-.052728,-.022701,
-.052166,-.023095,
-.051544,-.023385,
-.050881,-.023562,
-.050197,-.023622,
.050197,-.023622,
.050881,-.023562,
.051544,-.023385,
.052166,-.023095,
.052728,-.022701,
.053213,-.022216,
.053607,-.021654,
.053897,-.021032,
.054074,-.020369,
.054134,-.019685,
.054134,.019685,
.054074,.020369,
.053897,.021032,
.053607,.021653,
.053213,.022216,
.052728,.022701,
.052166,.023095,
.051544,.023385,
.050881,.023562,
.050197,.023622,
-.050197,.023622,
-.050881,.023562,
-.051544,.023385,
-.052166,.023095,
-.052728,.022701,
-.053213,.022216,
-.053607,.021653,
-.053897,.021032,
-.054074,.020369,
-.054134,.019685,
0.0*
%
%ADD11MACRO11*%
%AMMACRO41*
4,1,40,.022638,-.02559,
.022638,.02559,
.022608,.025932,
.022519,.026263,
.022374,.026575,
.022177,.026856,
.021935,.027098,
.021653,.027295,
.021342,.02744,
.021011,.027529,
.020669,.027559,
-.020669,.027559,
-.021011,.027529,
-.021342,.02744,
-.021653,.027295,
-.021935,.027098,
-.022177,.026856,
-.022374,.026575,
-.022519,.026263,
-.022608,.025932,
-.022638,.02559,
-.022638,-.02559,
-.022608,-.025932,
-.022519,-.026263,
-.022374,-.026575,
-.022177,-.026856,
-.021935,-.027098,
-.021654,-.027295,
-.021342,-.02744,
-.021011,-.027529,
-.020669,-.027559,
.020669,-.027559,
.021011,-.027529,
.021342,-.02744,
.021653,-.027295,
.021935,-.027098,
.022177,-.026856,
.022374,-.026575,
.022519,-.026263,
.022608,-.025932,
.022638,-.02559,
0.0*
%
%ADD41MACRO41*%
%ADD30R,.015748X.027559*%
%ADD14O,.094488X.059055*%
%ADD15O,.059055X.094488*%
G75*
%LPD*%
G75*
G36*
G01X-259137Y68316D02*
X-262177Y65276D01*
G02X-265387Y73027I9177J8342D01*
G01X-261089D01*
G03X-259137Y68316I8088J592D01*
G37*
G36*
G01X-261088Y74208D02*
X-265387D01*
G02X-262177Y81959I12387J-590D01*
G01X-259137Y78919D01*
G03X-261088Y74208I6137J-5301D01*
G37*
G36*
G01X-253591Y65529D02*
Y61230D01*
G02X-261342Y64440I590J12387D01*
G01X-258302Y67480D01*
G03X-253591Y65529I5301J6137D01*
G37*
G36*
G01X-258302Y79754D02*
X-261342Y82794D01*
G02X-253591Y86005I8342J-9177D01*
G01Y81706D01*
G03X-258302Y79754I592J-8088D01*
G37*
G36*
G01X-247698Y67481D02*
X-244658Y64440D01*
G02X-252409Y61230I-8342J9177D01*
G01Y65529D01*
G03X-247698Y67481I-592J8088D01*
G37*
G36*
G01X-252409Y81706D02*
Y86005D01*
G02X-244658Y82794I-590J-12387D01*
G01X-247698Y79754D01*
G03X-252409Y81706I-5301J-6137D01*
G37*
G36*
G01D02*
Y86005D01*
G02X-244658Y82794I-590J-12387D01*
G01X-247698Y79754D01*
G03X-252409Y81706I-5301J-6137D01*
G37*
G36*
G01X-244912Y73027D02*
X-240613D01*
G02X-243823Y65276I-12387J590D01*
G01X-246863Y68315D01*
G03X-244912Y73027I-6137J5301D01*
G37*
G36*
G01X-246863Y78919D02*
X-243823Y81959D01*
G02X-240613Y74208I-9177J-8342D01*
G01X-244911D01*
G03X-246863Y78919I-8088J-592D01*
G37*
G36*
G01X-127311Y-40976D02*
X-130351Y-44016D01*
G02X-133561Y-36265I9177J8342D01*
G01X-129263D01*
G03X-127311Y-40976I8088J592D01*
G37*
G36*
G01X-129262Y-35084D02*
X-133561D01*
G02X-130351Y-27333I12387J-590D01*
G01X-127311Y-30373D01*
G03X-129262Y-35084I6137J-5301D01*
G37*
G36*
G01X-121765Y-43763D02*
Y-48062D01*
G02X-129516Y-44852I590J12387D01*
G01X-126476Y-41812D01*
G03X-121765Y-43763I5301J6137D01*
G37*
G36*
G01X-126476Y-29538D02*
X-129516Y-26498D01*
G02X-121765Y-23287I8342J-9177D01*
G01Y-27586D01*
G03X-126476Y-29538I592J-8088D01*
G37*
G36*
G01X-113086Y-36265D02*
X-108787D01*
G02X-111997Y-44016I-12387J590D01*
G01X-115037Y-40977D01*
G03X-113086Y-36265I-6137J5301D01*
G37*
G36*
G01X-115872Y-41811D02*
X-112832Y-44852D01*
G02X-120584Y-48062I-8342J9177D01*
G01Y-43763D01*
G03X-115872Y-41811I-591J8088D01*
G37*
G36*
G01X-115037Y-30373D02*
X-111997Y-27333D01*
G02X-108787Y-35084I-9177J-8342D01*
G01X-113085D01*
G03X-115037Y-30373I-8088J-591D01*
G37*
G36*
G01X-120584Y-27587D02*
Y-23287D01*
G02X-112832Y-26498I-590J-12387D01*
G01X-115872Y-29538D01*
G03X-120584Y-27587I-5301J-6137D01*
G37*
G36*
G01D02*
Y-23287D01*
G02X-112832Y-26498I-590J-12387D01*
G01X-115872Y-29538D01*
G03X-120584Y-27587I-5301J-6137D01*
G37*
G36*
G01X-91142Y-138009D02*
Y-142309D01*
G02X-98893Y-139098I591J12387D01*
G01X-95853Y-136058D01*
G03X-91142Y-138009I5301J6137D01*
G37*
G36*
G01X-96688Y-135223D02*
X-99728Y-138263D01*
G02X-102939Y-130512I9177J8342D01*
G01X-98640D01*
G03X-96688Y-135223I8088J592D01*
G37*
G36*
G01X-98639Y-129331D02*
X-102939D01*
G02X-99728Y-121580I12387J-590D01*
G01X-96688Y-124619D01*
G03X-98639Y-129331I6137J-5302D01*
G37*
G36*
G01D02*
X-102939D01*
G02X-99728Y-121580I12387J-590D01*
G01X-96688Y-124619D01*
G03X-98639Y-129331I6137J-5302D01*
G37*
G36*
G01X-95853Y-123785D02*
X-98893Y-120744D01*
G02X-91142Y-117534I8342J-9177D01*
G01Y-121833D01*
G03X-95853Y-123785I591J-8088D01*
G37*
G36*
G01X-91142Y121833D02*
Y117534D01*
G02X-98893Y120744I591J12387D01*
G01X-95854Y123784D01*
G03X-91142Y121833I5302J6137D01*
G37*
G36*
G01X-96688Y124620D02*
X-99728Y121580D01*
G02X-102939Y129331I9177J8341D01*
G01X-98640D01*
G03X-96688Y124620I8088J592D01*
G37*
G36*
G01X-98639Y130512D02*
X-102939D01*
G02X-99728Y138263I12387J-590D01*
G01X-96688Y135223D01*
G03X-98639Y130512I6137J-5301D01*
G37*
G36*
G01D02*
X-102939D01*
G02X-99728Y138263I12387J-590D01*
G01X-96688Y135223D01*
G03X-98639Y130512I6137J-5301D01*
G37*
G36*
G01X-95853Y136058D02*
X-98893Y139098D01*
G02X-91142Y142309I8342J-9176D01*
G01Y138010D01*
G03X-95853Y136058I591J-8088D01*
G37*
G36*
G01X-85250Y-136058D02*
X-82209Y-139098D01*
G02X-89960Y-142309I-8342J9177D01*
G01Y-138010D01*
G03X-85250Y-136058I-592J8088D01*
G37*
G36*
G01X-89960Y-121833D02*
Y-117534D01*
G02X-82209Y-120744I-591J-12387D01*
G01X-85249Y-123784D01*
G03X-89960Y-121833I-5301J-6137D01*
G37*
G36*
G01X-85250Y123785D02*
X-82210Y120744D01*
G02X-89961Y117534I-8342J9177D01*
G01Y121833D01*
G03X-85250Y123785I-591J8088D01*
G37*
G36*
G01X-89961Y138009D02*
Y142309D01*
G02X-82210Y139098I-591J-12387D01*
G01X-85249Y136058D01*
G03X-89961Y138009I-5301J-6137D01*
G37*
G36*
G01X-82463Y-130512D02*
X-78164D01*
G02X-81374Y-138263I-12387J590D01*
G01X-84414Y-135223D01*
G03X-82463Y-130512I-6137J5301D01*
G37*
G36*
G01X-84415Y-124620D02*
X-81374Y-121580D01*
G02X-78164Y-129331I-9177J-8342D01*
G01X-82463D01*
G03X-84415Y-124620I-8088J-591D01*
G37*
G36*
G01X-82463Y129331D02*
X-78164D01*
G02X-81374Y121580I-12387J590D01*
G01X-84414Y124619D01*
G03X-82463Y129331I-6137J5302D01*
G37*
G36*
G01X-84415Y135223D02*
X-81374Y138263D01*
G02X-78164Y130512I-9177J-8342D01*
G01X-82463D01*
G03X-84415Y135223I-8088J-592D01*
G37*
G36*
G01X89961Y-138009D02*
Y-142309D01*
G02X82209Y-139098I591J12387D01*
G01X85249Y-136058D01*
G03X89961Y-138009I5301J6137D01*
G37*
G36*
G01X84415Y-135223D02*
X81374Y-138263D01*
G02X78164Y-130512I9177J8342D01*
G01X82463D01*
G03X84415Y-135223I8088J591D01*
G37*
G36*
G01X82463Y-129331D02*
X78164D01*
G02X81374Y-121580I12387J-590D01*
G01X84414Y-124619D01*
G03X82463Y-129331I6137J-5301D01*
G37*
G36*
G01D02*
X78164D01*
G02X81374Y-121580I12387J-590D01*
G01X84414Y-124619D01*
G03X82463Y-129331I6137J-5301D01*
G37*
G36*
G01X85250Y-123785D02*
X82209Y-120744D01*
G02X89961Y-117534I8342J-9177D01*
G01Y-121833D01*
G03X85250Y-123785I591J-8088D01*
G37*
G36*
G01X89961Y121833D02*
Y117534D01*
G02X82209Y120744I590J12387D01*
G01X85249Y123784D01*
G03X89961Y121833I5301J6137D01*
G37*
G36*
G01X84415Y124620D02*
X81374Y121580D01*
G02X78164Y129331I9177J8342D01*
G01X82463D01*
G03X84415Y124620I8088J591D01*
G37*
G36*
G01X82463Y130512D02*
X78164D01*
G02X81374Y138263I12387J-590D01*
G01X84414Y135223D01*
G03X82463Y130512I6137J-5301D01*
G37*
G36*
G01D02*
X78164D01*
G02X81374Y138263I12387J-590D01*
G01X84414Y135223D01*
G03X82463Y130512I6137J-5301D01*
G37*
G36*
G01X85250Y136058D02*
X82209Y139098D01*
G02X89961Y142309I8342J-9177D01*
G01Y138010D01*
G03X85250Y136058I591J-8088D01*
G37*
G36*
G01X95853Y-136058D02*
X98893Y-139098D01*
G02X91142Y-142309I-8342J9177D01*
G01Y-138010D01*
G03X95853Y-136058I-591J8088D01*
G37*
G36*
G01X91142Y-121833D02*
Y-117534D01*
G02X98893Y-120744I-590J-12387D01*
G01X95853Y-123784D01*
G03X91142Y-121833I-5301J-6137D01*
G37*
G36*
G01X95853Y123785D02*
X98893Y120744D01*
G02X91142Y117534I-8342J9177D01*
G01Y121833D01*
G03X95853Y123785I-591J8088D01*
G37*
G36*
G01X91142Y138009D02*
Y142309D01*
G02X98893Y139098I-590J-12387D01*
G01X95853Y136058D01*
G03X91142Y138009I-5301J-6137D01*
G37*
G36*
G01X98639Y-130512D02*
X102939D01*
G02X99728Y-138263I-12387J590D01*
G01X96688Y-135223D01*
G03X98639Y-130512I-6137J5302D01*
G37*
G36*
G01X96688Y-124620D02*
X99728Y-121580D01*
G02X102939Y-129331I-9177J-8342D01*
G01X98640D01*
G03X96688Y-124620I-8088J-592D01*
G37*
G36*
G01X98639Y129331D02*
X102939D01*
G02X99728Y121580I-12387J590D01*
G01X96688Y124619D01*
G03X98639Y129331I-6137J5302D01*
G37*
G36*
G01X96688Y135223D02*
X99728Y138263D01*
G02X102939Y130512I-9177J-8342D01*
G01X98640D01*
G03X96688Y135223I-8088J-592D01*
G37*
G36*
G01X125870Y-79431D02*
Y-83730D01*
G02X118119Y-80519I590J12387D01*
G01X121159Y-77480D01*
G03X125870Y-79431I5301J6137D01*
G37*
G36*
G01X120324Y-76644D02*
X117284Y-79684D01*
G02X114074Y-71933I9177J8342D01*
G01X118372D01*
G03X120324Y-76644I8088J592D01*
G37*
G36*
G01X118373Y-70752D02*
X114074D01*
G02X117284Y-63001I12387J-590D01*
G01X120324Y-66041D01*
G03X118373Y-70752I6137J-5301D01*
G37*
G36*
G01X121159Y-65206D02*
X118119Y-62166D01*
G02X125870Y-58955I8342J-9177D01*
G01Y-63254D01*
G03X121159Y-65206I591J-8088D01*
G37*
G36*
G01X131763Y-77479D02*
X134803Y-80519D01*
G02X127052Y-83730I-8342J9177D01*
G01Y-79431D01*
G03X131763Y-77479I-591J8088D01*
G37*
G36*
G01X127052Y-63254D02*
Y-58955D01*
G02X134803Y-62166I-590J-12387D01*
G01X131763Y-65205D01*
G03X127052Y-63254I-5301J-6137D01*
G37*
G36*
G01D02*
Y-58955D01*
G02X134803Y-62166I-590J-12387D01*
G01X131763Y-65205D01*
G03X127052Y-63254I-5301J-6137D01*
G37*
G36*
G01X134549Y-71933D02*
X138848D01*
G02X135638Y-79684I-12387J590D01*
G01X132598Y-76644D01*
G03X134549Y-71933I-6137J5301D01*
G37*
G36*
G01X132598Y-66041D02*
X135638Y-63001D01*
G02X138848Y-70752I-9177J-8342D01*
G01X134550D01*
G03X132598Y-66041I-8088J-591D01*
G37*
G36*
G01X215600Y-76644D02*
X212560Y-79684D01*
G02X209350Y-71933I9177J8342D01*
G01X213648D01*
G03X215600Y-76644I8088J592D01*
G37*
G36*
G01X213649Y-70752D02*
X209350D01*
G02X212560Y-63001I12387J-590D01*
G01X215600Y-66041D01*
G03X213649Y-70752I6137J-5301D01*
G37*
G36*
G01X221146Y-79431D02*
Y-83730D01*
G02X213395Y-80519I590J12387D01*
G01X216435Y-77480D01*
G03X221146Y-79431I5301J6137D01*
G37*
G36*
G01X216435Y-65206D02*
X213395Y-62166D01*
G02X221146Y-58955I8342J-9177D01*
G01Y-63254D01*
G03X216435Y-65206I591J-8088D01*
G37*
G36*
G01X227039Y-77479D02*
X230079Y-80519D01*
G02X222328Y-83730I-8342J9177D01*
G01Y-79431D01*
G03X227039Y-77479I-591J8088D01*
G37*
G36*
G01X229825Y-71933D02*
X234124D01*
G02X230914Y-79684I-12387J590D01*
G01X227874Y-76644D01*
G03X229825Y-71933I-6137J5301D01*
G37*
G36*
G01X227874Y-66041D02*
X230914Y-63001D01*
G02X234124Y-70752I-9177J-8342D01*
G01X229826D01*
G03X227874Y-66041I-8088J-591D01*
G37*
G36*
G01X222328Y-63254D02*
Y-58955D01*
G02X230079Y-62166I-590J-12387D01*
G01X227039Y-65205D01*
G03X222328Y-63254I-5301J-6137D01*
G37*
G36*
G01D02*
Y-58955D01*
G02X230079Y-62166I-590J-12387D01*
G01X227039Y-65205D01*
G03X222328Y-63254I-5301J-6137D01*
G37*
G54D10*
X-258300Y97500D03*
X251969Y-72835D03*
G54D11*
X-250111Y-76423D03*
Y5073D03*
G54D20*
X-117259Y-124773D03*
Y-121427D03*
X-111943Y-124773D03*
X-106627D03*
X-111943Y-121427D03*
X-106627D03*
X37992Y-126473D03*
X43308D03*
X37992Y-123127D03*
X43308D03*
X50224Y-126473D03*
Y-123127D03*
X55540Y-126473D03*
X60855D03*
X55540Y-123127D03*
X60855D03*
X67520Y-126473D03*
Y-123127D03*
X154170Y33040D03*
Y36386D03*
X155200Y65542D03*
Y62196D03*
X174887Y89673D03*
Y86327D03*
X180603Y89673D03*
Y86327D03*
G54D30*
X67520Y-117989D03*
G54D21*
X-115586Y-130700D03*
X-118932D03*
X-106627D03*
X-109973D03*
X-107073Y-58010D03*
Y-52695D03*
Y-19624D03*
Y-14308D03*
Y24343D03*
Y34975D03*
Y29659D03*
X-103727Y-58010D03*
Y-52695D03*
Y-19624D03*
Y-14308D03*
Y24343D03*
Y34975D03*
Y29659D03*
X69192Y-107636D03*
X65847D03*
X69192Y-101520D03*
X65847D03*
X76027Y65100D03*
X79373D03*
X76027Y71590D03*
X79373D03*
X109173Y-71592D03*
X105827D03*
X108946Y79464D03*
X105600D03*
X108946Y85180D03*
X105600D03*
X108946Y90895D03*
X105600D03*
X108946Y96611D03*
X105600D03*
X143027Y17862D03*
Y23178D03*
Y51565D03*
Y46249D03*
X144896Y78600D03*
X141550D03*
X146373Y17862D03*
Y23178D03*
Y51565D03*
Y46249D03*
X162790Y-39370D03*
Y-34054D03*
Y-28739D03*
Y-23423D03*
Y-18107D03*
Y-12791D03*
Y-2900D03*
Y27559D03*
Y32875D03*
Y38191D03*
Y51565D03*
Y46249D03*
Y56880D03*
Y68312D03*
Y62196D03*
Y73628D03*
Y84259D03*
Y78944D03*
Y89575D03*
X166135Y-39370D03*
Y-34054D03*
Y-28739D03*
Y-23423D03*
Y-18107D03*
Y-12791D03*
Y-2900D03*
Y27559D03*
Y32875D03*
Y38191D03*
Y51565D03*
Y46249D03*
Y56880D03*
Y68312D03*
Y62196D03*
Y73628D03*
Y84259D03*
Y78944D03*
Y89575D03*
X191130Y-31496D03*
X194475D03*
G54D12*
X-253162Y-72092D03*
Y-70124D03*
Y-68155D03*
Y-66187D03*
Y-64218D03*
Y-62250D03*
Y-60281D03*
Y-58313D03*
Y-56344D03*
Y-54376D03*
Y-52407D03*
Y-50439D03*
Y-40596D03*
Y-38628D03*
Y-36659D03*
Y-34690D03*
Y-32722D03*
Y-30754D03*
Y-28785D03*
Y-26817D03*
Y-24848D03*
Y-22880D03*
Y-20911D03*
Y-18942D03*
Y-16974D03*
Y-15006D03*
Y-13037D03*
Y-11068D03*
Y-9100D03*
Y-7132D03*
Y-5163D03*
Y-3194D03*
Y-1226D03*
Y742D03*
X-223438Y-71108D03*
Y-69139D03*
Y-67171D03*
Y-65202D03*
Y-63234D03*
Y-61265D03*
Y-59297D03*
Y-57328D03*
Y-55360D03*
Y-53391D03*
Y-51423D03*
Y-41580D03*
Y-39612D03*
Y-37643D03*
Y-35675D03*
Y-33706D03*
Y-31738D03*
Y-29769D03*
Y-27801D03*
Y-25832D03*
Y-23864D03*
Y-21895D03*
Y-19927D03*
Y-17958D03*
Y-15990D03*
Y-14021D03*
Y-12053D03*
Y-10084D03*
Y-8116D03*
Y-6147D03*
Y-4179D03*
Y-2210D03*
Y-242D03*
G54D31*
X65551Y-112675D03*
X69488D03*
G54D40*
X144700Y29201D03*
X140960D03*
Y40225D03*
X148440Y29201D03*
Y40225D03*
G54D22*
X-105544Y-139900D03*
G54D13*
X-251968Y127953D03*
X-204724Y-135827D03*
X204725D03*
X251969Y127953D03*
G54D14*
X-237900Y43302D03*
Y51964D03*
Y98420D03*
Y108263D03*
X-111916Y43302D03*
Y51964D03*
Y98420D03*
Y108263D03*
G54D41*
X141550Y62196D03*
Y70858D03*
X147850Y62196D03*
Y70858D03*
G54D23*
X-111056Y-139900D03*
G54D32*
X86697Y-90785D03*
Y-9880D03*
X86717Y9877D03*
Y90783D03*
X97366Y-90785D03*
Y-9880D03*
X97386Y9877D03*
Y90783D03*
G54D15*
X-205912Y9838D03*
X-197054D03*
X-188195D03*
X-179337D03*
X-180026Y136609D03*
X-170479Y9838D03*
X-169790Y136609D03*
X-161620Y9838D03*
X-152762D03*
X-143904D03*
G54D42*
X176575Y-143307D03*
X193504D03*
G54D24*
X-105544Y-145630D03*
X-102001D03*
X-16172Y-115300D03*
X-12628D03*
G54D33*
X86716Y-82616D03*
Y-84191D03*
Y-85765D03*
Y-87340D03*
Y-88915D03*
Y-74742D03*
Y-76317D03*
Y-77891D03*
Y-79466D03*
Y-81041D03*
Y-66868D03*
Y-68442D03*
Y-70017D03*
Y-71592D03*
Y-73167D03*
Y-57419D03*
Y-58994D03*
Y-60568D03*
Y-62143D03*
Y-63718D03*
Y-65293D03*
Y-49545D03*
Y-51120D03*
Y-52695D03*
Y-54269D03*
Y-55844D03*
Y-41671D03*
Y-43246D03*
Y-44820D03*
Y-46395D03*
Y-47970D03*
Y-33797D03*
Y-35372D03*
Y-36946D03*
Y-38521D03*
Y-40096D03*
Y-24348D03*
Y-25923D03*
Y-27498D03*
Y-29072D03*
Y-30647D03*
Y-32222D03*
Y-16474D03*
Y-18049D03*
Y-19624D03*
Y-21198D03*
Y-22773D03*
Y-11750D03*
Y-13324D03*
Y-14899D03*
X86736Y16472D03*
Y14897D03*
Y13322D03*
Y11747D03*
Y25920D03*
Y24346D03*
Y22771D03*
Y21196D03*
Y19621D03*
Y18046D03*
Y33794D03*
Y32220D03*
Y30645D03*
Y29070D03*
Y27495D03*
Y41668D03*
Y40094D03*
Y38519D03*
Y36944D03*
Y35369D03*
Y49542D03*
Y47968D03*
Y46393D03*
Y44818D03*
Y43243D03*
Y58991D03*
Y57416D03*
Y55842D03*
Y54267D03*
Y52692D03*
Y51117D03*
Y66865D03*
Y65290D03*
Y63716D03*
Y62141D03*
Y60566D03*
Y74739D03*
Y73164D03*
Y71590D03*
Y70015D03*
Y68440D03*
Y84188D03*
Y82613D03*
Y81039D03*
Y79464D03*
Y77889D03*
Y76314D03*
Y88913D03*
Y87338D03*
Y85763D03*
X97346Y-82616D03*
Y-84191D03*
Y-85765D03*
Y-87340D03*
Y-88915D03*
Y-74742D03*
Y-76317D03*
Y-77891D03*
Y-79466D03*
Y-81041D03*
Y-66868D03*
Y-68442D03*
Y-70017D03*
Y-71592D03*
Y-73167D03*
Y-57419D03*
Y-58994D03*
Y-60568D03*
Y-62143D03*
Y-63718D03*
Y-65293D03*
Y-49545D03*
Y-51120D03*
Y-52695D03*
Y-54269D03*
Y-55844D03*
Y-41671D03*
Y-43246D03*
Y-44820D03*
Y-46395D03*
Y-47970D03*
Y-33797D03*
Y-35372D03*
Y-36946D03*
Y-38521D03*
Y-40096D03*
Y-24348D03*
Y-25923D03*
Y-27498D03*
Y-29072D03*
Y-30647D03*
Y-32222D03*
Y-16474D03*
Y-18049D03*
Y-19624D03*
Y-21198D03*
Y-22773D03*
Y-11750D03*
Y-13324D03*
Y-14899D03*
X97366Y16472D03*
Y14897D03*
Y13322D03*
Y11747D03*
Y25920D03*
Y24346D03*
Y22771D03*
Y21196D03*
Y19621D03*
Y18046D03*
Y33794D03*
Y32220D03*
Y30645D03*
Y29070D03*
Y27495D03*
Y41668D03*
Y40094D03*
Y38519D03*
Y36944D03*
Y35369D03*
Y49542D03*
Y47968D03*
Y46393D03*
Y44818D03*
Y43243D03*
Y58991D03*
Y57416D03*
Y55842D03*
Y54267D03*
Y52692D03*
Y51117D03*
Y66865D03*
Y65290D03*
Y63716D03*
Y62141D03*
Y60566D03*
Y74739D03*
Y73164D03*
Y71590D03*
Y70015D03*
Y68440D03*
Y84188D03*
Y82613D03*
Y81039D03*
Y79464D03*
Y77889D03*
Y76314D03*
Y88913D03*
Y87338D03*
Y85763D03*
G54D43*
X175478Y51960D03*
Y54519D03*
Y57078D03*
Y59637D03*
Y62196D03*
Y64755D03*
Y67314D03*
Y69873D03*
Y72432D03*
Y74991D03*
X197722Y59637D03*
Y57078D03*
Y54519D03*
Y51960D03*
Y67314D03*
Y64755D03*
Y62196D03*
Y74991D03*
Y72432D03*
Y69873D03*
G54D34*
X106844Y49787D03*
Y69472D03*
G54D16*
X-149213Y-125787D03*
Y-90748D03*
G54D25*
X-97870Y-82616D03*
Y-84191D03*
Y-85765D03*
Y-87340D03*
Y-88915D03*
Y-74742D03*
Y-76317D03*
Y-77891D03*
Y-79466D03*
Y-81041D03*
Y-66868D03*
Y-68442D03*
Y-70017D03*
Y-71592D03*
Y-73167D03*
Y-58994D03*
Y-60568D03*
Y-62143D03*
Y-63718D03*
Y-65293D03*
Y-49545D03*
Y-51120D03*
Y-52695D03*
Y-54269D03*
Y-55844D03*
Y-57419D03*
Y-41671D03*
Y-43246D03*
Y-44820D03*
Y-46395D03*
Y-47970D03*
Y-33797D03*
Y-35372D03*
Y-36946D03*
Y-38521D03*
Y-40096D03*
Y-24348D03*
Y-25923D03*
Y-27498D03*
Y-29072D03*
Y-30647D03*
Y-32222D03*
Y-16474D03*
Y-18049D03*
Y-19624D03*
Y-21198D03*
Y-22773D03*
Y-11750D03*
Y-13324D03*
Y-14899D03*
Y16469D03*
Y14894D03*
Y13320D03*
Y11745D03*
Y25918D03*
Y24343D03*
Y22768D03*
Y21194D03*
Y19619D03*
Y18044D03*
Y33792D03*
Y32217D03*
Y30643D03*
Y29068D03*
Y27493D03*
Y41666D03*
Y40091D03*
Y38517D03*
Y36942D03*
Y35367D03*
Y49540D03*
Y47965D03*
Y46391D03*
Y44816D03*
Y43241D03*
Y58989D03*
Y57414D03*
Y55839D03*
Y54265D03*
Y52690D03*
Y51115D03*
Y66863D03*
Y65288D03*
Y63713D03*
Y62139D03*
Y60564D03*
Y74737D03*
Y73162D03*
Y71587D03*
Y70013D03*
Y68438D03*
Y84186D03*
Y82611D03*
Y81036D03*
Y79462D03*
Y77887D03*
Y76312D03*
Y88910D03*
Y87336D03*
Y85761D03*
X-85271Y-82616D03*
Y-84191D03*
Y-85765D03*
Y-87340D03*
Y-88915D03*
Y-74742D03*
Y-76317D03*
Y-77891D03*
Y-79466D03*
Y-81041D03*
Y-66868D03*
Y-68442D03*
Y-70017D03*
Y-71592D03*
Y-73167D03*
Y-58994D03*
Y-60568D03*
Y-62143D03*
Y-63718D03*
Y-65293D03*
Y-49545D03*
Y-51120D03*
Y-52695D03*
Y-54269D03*
Y-55844D03*
Y-57419D03*
Y-41671D03*
Y-43246D03*
Y-44820D03*
Y-46395D03*
Y-47970D03*
Y-33797D03*
Y-35372D03*
Y-36946D03*
Y-38521D03*
Y-40096D03*
Y-24348D03*
Y-25923D03*
Y-27498D03*
Y-29072D03*
Y-30647D03*
Y-32222D03*
Y-16474D03*
Y-18049D03*
Y-19624D03*
Y-21198D03*
Y-22773D03*
Y-11750D03*
Y-13324D03*
Y-14899D03*
Y16469D03*
Y14894D03*
Y13320D03*
Y11745D03*
Y25918D03*
Y24343D03*
Y22768D03*
Y21194D03*
Y19619D03*
Y18044D03*
Y33792D03*
Y32217D03*
Y30643D03*
Y29068D03*
Y27493D03*
Y41666D03*
Y40091D03*
Y38517D03*
Y36942D03*
Y35367D03*
Y49540D03*
Y47965D03*
Y46391D03*
Y44816D03*
Y43241D03*
Y58989D03*
Y57414D03*
Y55839D03*
Y54265D03*
Y52690D03*
Y51115D03*
Y66863D03*
Y65288D03*
Y63713D03*
Y62139D03*
Y60564D03*
Y74737D03*
Y73162D03*
Y71587D03*
Y70013D03*
Y68438D03*
Y84186D03*
Y82611D03*
Y81036D03*
Y79462D03*
Y77887D03*
Y76312D03*
Y88910D03*
Y87336D03*
Y85761D03*
G54D26*
X-23272Y-111000D03*
X-16172D03*
X-13928D03*
X-21028D03*
X206960Y50473D03*
X209205D03*
X206960Y56006D03*
X209205D03*
X206960Y65828D03*
X209205D03*
X206960Y71360D03*
X209205D03*
X206960Y75932D03*
X209204D03*
X206960Y81464D03*
X209204D03*
X216023Y50473D03*
X213779D03*
X216023Y56006D03*
X213779D03*
X216023Y65828D03*
X213779D03*
X216023Y71360D03*
X213779D03*
X216023Y75932D03*
X213779D03*
X216023Y81464D03*
X213779D03*
G54D44*
X246876Y99663D03*
Y107537D03*
Y103600D03*
G54D17*
X-122441Y-113189D03*
Y-103350D03*
G54D35*
X112356Y54905D03*
Y58055D03*
Y64354D03*
Y61205D03*
G54D36*
X122441Y-113186D03*
Y-103346D03*
G54D27*
X-21028Y-104178D03*
Y-106422D03*
X-16172Y-104178D03*
Y-106422D03*
G54D45*
X256816Y94545D03*
Y112655D03*
G54D18*
X-121174Y-3937D03*
G54D28*
X-17092Y-144782D03*
X16924D03*
G54D37*
X116423Y131605D03*
X231777D03*
G54D19*
X-114599Y-145630D03*
X-111056D03*
X-24572Y-115300D03*
X-21028D03*
G54D29*
X-16305Y-126869D03*
X16137D03*
G54D38*
X127643Y101684D03*
X129218Y133967D03*
X130793Y101684D03*
X133942D03*
X137092D03*
X132368Y133967D03*
X135517D03*
X140242Y101684D03*
X143391D03*
X138667Y133967D03*
X141816D03*
X144966D03*
X146541Y101684D03*
X149691D03*
X152840D03*
X148116Y133967D03*
X151265D03*
X155990Y101684D03*
X159139D03*
X162289D03*
X154415Y133967D03*
X157565D03*
X160714D03*
X165439Y101684D03*
X168588D03*
X163864Y133967D03*
X167013D03*
X170163D03*
X171738Y101684D03*
X174887D03*
X178037D03*
X173313Y133967D03*
X176462D03*
X181187Y101684D03*
X179612Y133967D03*
X182761D03*
X196935Y101684D03*
X200084D03*
X203234D03*
X198509Y133967D03*
X201659D03*
X206384Y101684D03*
X209533D03*
X212683D03*
X204809Y133967D03*
X207958D03*
X211108D03*
X215832Y101684D03*
X218982D03*
X214258Y133967D03*
X217407D03*
X220557D03*
G54D39*
X149213Y-125787D03*
Y-90748D03*
M02*
