G04 ================== begin FILE IDENTIFICATION RECORD ==================*
G04 Layout Name:  main_board.brd*
G04 Film Name:    10-PAST_BOT*
G04 File Format:  Gerber RS274X*
G04 File Origin:  Cadence Allegro 17.4-S035*
G04 Origin Date:  Thu Oct 16 18:34:05 2025*
G04 *
G04 Layer:  PIN/PASTEMASK_BOTTOM*
G04 Layer:  PACKAGE GEOMETRY/PASTEMASK_BOTTOM*
G04 Layer:  BOARD GEOMETRY/PASTEMASK_BOTTOM*
G04 *
G04 Offset:    (0.000 0.000)*
G04 Mirror:    No*
G04 Mode:      Positive*
G04 Rotation:  0*
G04 FullContactRelief:  No*
G04 UndefLineWidth:     0.000*
G04 ================== end FILE IDENTIFICATION RECORD ====================*
%FSLAX25Y25*MOIN*%
%IR0*IPPOS*OFA0.00000B0.00000*MIA0B0*SFA1.00000B1.00000*%
%ADD18R,.05787X.045669*%
%AMMACRO62*
4,1,40,-.003937,-.009153,
-.003937,.009153,
-.003907,.009495,
-.003818,.009826,
-.003673,.010138,
-.003476,.010419,
-.003234,.010661,
-.002953,.010858,
-.002641,.011003,
-.00231,.011092,
-.001968,.011122,
.001968,.011122,
.00231,.011092,
.002641,.011003,
.002953,.010858,
.003234,.010661,
.003476,.010419,
.003673,.010138,
.003818,.009826,
.003907,.009495,
.003937,.009153,
.003937,-.009153,
.003907,-.009495,
.003818,-.009826,
.003673,-.010138,
.003476,-.010419,
.003234,-.010661,
.002953,-.010858,
.002641,-.011003,
.00231,-.011092,
.001968,-.011122,
-.001968,-.011122,
-.00231,-.011092,
-.002641,-.011003,
-.002952,-.010858,
-.003234,-.010661,
-.003476,-.010419,
-.003673,-.010138,
-.003818,-.009826,
-.003907,-.009495,
-.003937,-.009153,
0.0*
%
%ADD62MACRO62*%
%AMMACRO29*
4,1,44,-.027558,.080708,
.027558,.080708,
.0279,.080679,
.028231,.08059,
.028543,.080445,
.028824,.080248,
.029067,.080006,
.029263,.079724,
.029409,.079413,
.029497,.079082,
.029527,.07874,
.029527,.078739,
.029527,-.078739,
.029498,-.079081,
.029409,-.079412,
.029264,-.079724,
.029067,-.080005,
.028825,-.080248,
.028543,-.080444,
.028232,-.08059,
.027901,-.080678,
.027559,-.080708,
.027558,-.080708,
-.027558,-.080708,
-.0279,-.080679,
-.028231,-.08059,
-.028543,-.080445,
-.028824,-.080248,
-.029067,-.080006,
-.029263,-.079724,
-.029409,-.079413,
-.029497,-.079082,
-.029527,-.07874,
-.029527,-.078739,
-.029527,.078739,
-.029498,.079081,
-.029409,.079412,
-.029264,.079724,
-.029067,.080005,
-.028825,.080248,
-.028543,.080444,
-.028232,.08059,
-.027901,.080678,
-.027559,.080708,
-.027558,.080708,
0.0*
%
%ADD29MACRO29*%
%ADD19R,.045669X.05787*%
%AMMACRO105*
4,1,44,.009842,-.033464,
-.009842,-.033464,
-.010184,-.033435,
-.010515,-.033346,
-.010826,-.033201,
-.011108,-.033004,
-.01135,-.032761,
-.011547,-.03248,
-.011692,-.032169,
-.011781,-.031837,
-.011811,-.031496,
-.011811,-.031495,
-.011811,.031495,
-.011781,.031837,
-.011692,.032168,
-.011547,.03248,
-.011351,.032761,
-.011108,.033004,
-.010827,.0332,
-.010516,.033346,
-.010184,.033434,
-.009842,.033464,
-.009842,.033464,
.009842,.033464,
.010184,.033435,
.010515,.033346,
.010826,.033201,
.011108,.033004,
.01135,.032761,
.011547,.03248,
.011692,.032169,
.011781,.031837,
.011811,.031496,
.011811,.031495,
.011811,-.031495,
.011781,-.031837,
.011692,-.032168,
.011547,-.03248,
.011351,-.032761,
.011108,-.033004,
.010827,-.0332,
.010516,-.033346,
.010184,-.033434,
.009842,-.033464,
.009842,-.033464,
0.0*
%
%ADD105MACRO105*%
%AMMACRO91*
4,1,44,.027558,-.029527,
-.027558,-.029527,
-.0279,-.029498,
-.028231,-.029409,
-.028543,-.029264,
-.028824,-.029067,
-.029067,-.028825,
-.029263,-.028543,
-.029409,-.028232,
-.029497,-.027901,
-.029527,-.027559,
-.029527,-.027558,
-.029527,.027558,
-.029498,.0279,
-.029409,.028231,
-.029264,.028543,
-.029067,.028824,
-.028825,.029067,
-.028543,.029263,
-.028232,.029409,
-.027901,.029497,
-.027559,.029527,
-.027558,.029527,
.027558,.029527,
.0279,.029498,
.028231,.029409,
.028543,.029264,
.028824,.029067,
.029067,.028825,
.029263,.028543,
.029409,.028232,
.029497,.027901,
.029527,.027559,
.029527,.027558,
.029527,-.027558,
.029498,-.0279,
.029409,-.028231,
.029264,-.028543,
.029067,-.028824,
.028825,-.029067,
.028543,-.029263,
.028232,-.029409,
.027901,-.029497,
.027559,-.029527,
.027558,-.029527,
0.0*
%
%ADD91MACRO91*%
%AMMACRO41*
4,1,44,-.068897,-.044291,
-.068897,.044291,
-.068868,.044633,
-.068779,.044964,
-.068634,.045275,
-.068437,.045557,
-.068194,.045799,
-.067913,.045996,
-.067602,.046141,
-.06727,.04623,
-.066929,.04626,
-.066928,.04626,
.066928,.04626,
.06727,.04623,
.067601,.046141,
.067913,.045996,
.068194,.0458,
.068437,.045557,
.068633,.045276,
.068779,.044965,
.068867,.044633,
.068897,.044291,
.068897,.044291,
.068897,-.044291,
.068868,-.044633,
.068779,-.044964,
.068634,-.045275,
.068437,-.045557,
.068194,-.045799,
.067913,-.045996,
.067602,-.046141,
.06727,-.04623,
.066929,-.04626,
.066928,-.04626,
-.066928,-.04626,
-.06727,-.04623,
-.067601,-.046141,
-.067913,-.045996,
-.068194,-.0458,
-.068437,-.045557,
-.068633,-.045276,
-.068779,-.044965,
-.068867,-.044633,
-.068897,-.044291,
-.068897,-.044291,
0.0*
%
%ADD41MACRO41*%
%AMMACRO59*
4,1,40,.035433,-.031496,
-.035433,-.031496,
-.036117,-.031436,
-.03678,-.031259,
-.037401,-.030969,
-.037964,-.030575,
-.038449,-.03009,
-.038843,-.029528,
-.039133,-.028906,
-.03931,-.028243,
-.03937,-.027559,
-.03937,.027559,
-.03931,.028243,
-.039133,.028906,
-.038843,.029527,
-.038449,.03009,
-.037964,.030575,
-.037402,.030969,
-.03678,.031259,
-.036117,.031436,
-.035433,.031496,
.035433,.031496,
.036117,.031436,
.03678,.031259,
.037401,.030969,
.037964,.030575,
.038449,.03009,
.038843,.029527,
.039133,.028906,
.03931,.028243,
.03937,.027559,
.03937,-.027559,
.03931,-.028243,
.039133,-.028906,
.038843,-.029527,
.038449,-.03009,
.037964,-.030575,
.037402,-.030969,
.03678,-.031259,
.036117,-.031436,
.035433,-.031496,
0.0*
%
%ADD59MACRO59*%
%AMMACRO32*
4,1,44,.012795,.007873,
.012795,-.007873,
.012766,-.008215,
.012677,-.008546,
.012532,-.008858,
.012335,-.009139,
.012093,-.009382,
.011811,-.009578,
.0115,-.009724,
.011169,-.009812,
.010827,-.009842,
.010826,-.009842,
-.010826,-.009842,
-.011168,-.009813,
-.011499,-.009724,
-.011811,-.009579,
-.012092,-.009382,
-.012335,-.00914,
-.012531,-.008858,
-.012677,-.008547,
-.012765,-.008216,
-.012795,-.007874,
-.012795,-.007873,
-.012795,.007873,
-.012766,.008215,
-.012677,.008546,
-.012532,.008858,
-.012335,.009139,
-.012093,.009382,
-.011811,.009578,
-.0115,.009724,
-.011169,.009812,
-.010827,.009842,
-.010826,.009842,
.010826,.009842,
.011168,.009813,
.011499,.009724,
.011811,.009579,
.012092,.009382,
.012335,.00914,
.012531,.008858,
.012677,.008547,
.012765,.008216,
.012795,.007874,
.012795,.007873,
0.0*
%
%ADD32MACRO32*%
%ADD93C,.181102*%
%AMMACRO83*
4,1,44,-.005905,-.007677,
-.005905,.007677,
-.005858,.008224,
-.005716,.008754,
-.005483,.009252,
-.005169,.009702,
-.00478,.01009,
-.004331,.010405,
-.003833,.010637,
-.003302,.010779,
-.002756,.010827,
-.002755,.010827,
.002755,.010827,
.003302,.010779,
.003832,.010637,
.00433,.010405,
.00478,.01009,
.005168,.009702,
.005483,.009252,
.005715,.008755,
.005858,.008224,
.005905,.007677,
.005905,.007677,
.005905,-.007677,
.005858,-.008224,
.005716,-.008754,
.005483,-.009252,
.005169,-.009702,
.00478,-.01009,
.004331,-.010405,
.003833,-.010637,
.003302,-.010779,
.002756,-.010827,
.002755,-.010827,
-.002755,-.010827,
-.003302,-.010779,
-.003832,-.010637,
-.00433,-.010405,
-.00478,-.01009,
-.005168,-.009702,
-.005483,-.009252,
-.005715,-.008755,
-.005858,-.008224,
-.005905,-.007677,
-.005905,-.007677,
0.0*
%
%ADD83MACRO83*%
%AMMACRO82*
4,1,44,-.007677,.005905,
.007677,.005905,
.008224,.005858,
.008754,.005716,
.009252,.005483,
.009702,.005169,
.01009,.00478,
.010405,.004331,
.010637,.003833,
.010779,.003302,
.010827,.002756,
.010827,.002755,
.010827,-.002755,
.010779,-.003302,
.010637,-.003832,
.010405,-.00433,
.01009,-.00478,
.009702,-.005168,
.009252,-.005483,
.008755,-.005715,
.008224,-.005858,
.007677,-.005905,
.007677,-.005905,
-.007677,-.005905,
-.008224,-.005858,
-.008754,-.005716,
-.009252,-.005483,
-.009702,-.005169,
-.01009,-.00478,
-.010405,-.004331,
-.010637,-.003833,
-.010779,-.003302,
-.010827,-.002756,
-.010827,-.002755,
-.010827,.002755,
-.010779,.003302,
-.010637,.003832,
-.010405,.00433,
-.01009,.00478,
-.009702,.005168,
-.009252,.005483,
-.008755,.005715,
-.008224,.005858,
-.007677,.005905,
-.007677,.005905,
0.0*
%
%ADD82MACRO82*%
%ADD78R,.079134X.104331*%
%ADD10C,.200787*%
%ADD12C,.15748*%
%AMMACRO71*
4,1,44,-.005512,-.010039,
-.005512,.010039,
-.00547,.010518,
-.005346,.010982,
-.005143,.011417,
-.004868,.011811,
-.004528,.01215,
-.004134,.012426,
-.003699,.012629,
-.003235,.012754,
-.002756,.012795,
-.002756,.012795,
.002756,.012795,
.003235,.012754,
.003699,.012629,
.004134,.012426,
.004528,.012151,
.004867,.011811,
.005143,.011418,
.005346,.010982,
.00547,.010518,
.005512,.01004,
.005512,.010039,
.005512,-.010039,
.00547,-.010518,
.005346,-.010982,
.005143,-.011417,
.004868,-.011811,
.004528,-.01215,
.004134,-.012426,
.003699,-.012629,
.003235,-.012754,
.002756,-.012795,
.002756,-.012795,
-.002756,-.012795,
-.003235,-.012754,
-.003699,-.012629,
-.004134,-.012426,
-.004528,-.012151,
-.004867,-.011811,
-.005143,-.011418,
-.005346,-.010982,
-.00547,-.010518,
-.005512,-.01004,
-.005512,-.010039,
0.0*
%
%ADD71MACRO71*%
%AMMACRO65*
4,1,44,-.010039,.005512,
.010039,.005512,
.010518,.00547,
.010982,.005346,
.011417,.005143,
.011811,.004868,
.01215,.004528,
.012426,.004134,
.012629,.003699,
.012754,.003235,
.012795,.002756,
.012795,.002756,
.012795,-.002756,
.012754,-.003235,
.012629,-.003699,
.012426,-.004134,
.012151,-.004528,
.011811,-.004867,
.011418,-.005143,
.010982,-.005346,
.010518,-.00547,
.01004,-.005512,
.010039,-.005512,
-.010039,-.005512,
-.010518,-.00547,
-.010982,-.005346,
-.011417,-.005143,
-.011811,-.004868,
-.01215,-.004528,
-.012426,-.004134,
-.012629,-.003699,
-.012754,-.003235,
-.012795,-.002756,
-.012795,-.002756,
-.012795,.002756,
-.012754,.003235,
-.012629,.003699,
-.012426,.004134,
-.012151,.004528,
-.011811,.004867,
-.011418,.005143,
-.010982,.005346,
-.010518,.00547,
-.01004,.005512,
-.010039,.005512,
0.0*
%
%ADD65MACRO65*%
%AMMACRO99*
4,1,44,-.02559,-.003936,
-.02559,.003936,
-.025561,.004278,
-.025472,.004609,
-.025327,.004921,
-.02513,.005202,
-.024888,.005445,
-.024606,.005641,
-.024295,.005787,
-.023964,.005875,
-.023622,.005905,
-.023621,.005905,
.023621,.005905,
.023963,.005876,
.024294,.005787,
.024606,.005642,
.024887,.005445,
.02513,.005203,
.025326,.004921,
.025472,.00461,
.02556,.004279,
.02559,.003937,
.02559,.003936,
.02559,-.003936,
.025561,-.004278,
.025472,-.004609,
.025327,-.004921,
.02513,-.005202,
.024888,-.005445,
.024606,-.005641,
.024295,-.005787,
.023964,-.005875,
.023622,-.005905,
.023621,-.005905,
-.023621,-.005905,
-.023963,-.005876,
-.024294,-.005787,
-.024606,-.005642,
-.024887,-.005445,
-.02513,-.005203,
-.025326,-.004921,
-.025472,-.00461,
-.02556,-.004279,
-.02559,-.003937,
-.02559,-.003936,
0.0*
%
%ADD99MACRO99*%
%AMMACRO68*
4,1,44,-.003936,.018701,
.003936,.018701,
.004278,.018671,
.004609,.018582,
.004921,.018437,
.005202,.018241,
.005445,.017998,
.005641,.017717,
.005787,.017406,
.005875,.017074,
.005905,.016732,
.005905,.016732,
.005905,-.016732,
.005876,-.017074,
.005787,-.017405,
.005642,-.017716,
.005445,-.017998,
.005202,-.01824,
.004921,-.018437,
.00461,-.018582,
.004278,-.018671,
.003937,-.018701,
.003936,-.018701,
-.003936,-.018701,
-.004278,-.018671,
-.004609,-.018582,
-.004921,-.018437,
-.005202,-.018241,
-.005445,-.017998,
-.005641,-.017717,
-.005787,-.017406,
-.005875,-.017074,
-.005905,-.016732,
-.005905,-.016732,
-.005905,.016732,
-.005876,.017074,
-.005787,.017405,
-.005642,.017716,
-.005445,.017998,
-.005202,.01824,
-.004921,.018437,
-.00461,.018582,
-.004278,.018671,
-.003937,.018701,
-.003936,.018701,
0.0*
%
%ADD68MACRO68*%
%AMMACRO87*
4,1,44,-.012008,-.032086,
-.012008,.032086,
-.011948,.03277,
-.011771,.033433,
-.011481,.034055,
-.011087,.034617,
-.010602,.035102,
-.01004,.035496,
-.009418,.035786,
-.008755,.035964,
-.008071,.036023,
-.008071,.036023,
.008071,.036023,
.008755,.035964,
.009418,.035786,
.010039,.035496,
.010602,.035102,
.011087,.034617,
.011481,.034055,
.011771,.033433,
.011948,.03277,
.012008,.032087,
.012008,.032086,
.012008,-.032086,
.011948,-.03277,
.011771,-.033433,
.011481,-.034055,
.011087,-.034617,
.010602,-.035102,
.01004,-.035496,
.009418,-.035786,
.008755,-.035964,
.008071,-.036023,
.008071,-.036023,
-.008071,-.036023,
-.008755,-.035964,
-.009418,-.035786,
-.010039,-.035496,
-.010602,-.035102,
-.011087,-.034617,
-.011481,-.034055,
-.011771,-.033433,
-.011948,-.03277,
-.012008,-.032087,
-.012008,-.032086,
0.0*
%
%ADD87MACRO87*%
%AMMACRO15*
4,1,44,-.011811,-.019684,
-.011811,.019684,
-.011781,.020026,
-.011692,.020357,
-.011547,.020669,
-.011351,.02095,
-.011108,.021193,
-.010827,.021389,
-.010516,.021535,
-.010184,.021623,
-.009842,.021653,
-.009842,.021653,
.009842,.021653,
.010184,.021624,
.010515,.021535,
.010826,.02139,
.011108,.021193,
.01135,.02095,
.011547,.020669,
.011692,.020358,
.011781,.020026,
.011811,.019685,
.011811,.019684,
.011811,-.019684,
.011781,-.020026,
.011692,-.020357,
.011547,-.020669,
.011351,-.02095,
.011108,-.021193,
.010827,-.021389,
.010516,-.021535,
.010184,-.021623,
.009842,-.021653,
.009842,-.021653,
-.009842,-.021653,
-.010184,-.021624,
-.010515,-.021535,
-.010826,-.02139,
-.011108,-.021193,
-.01135,-.02095,
-.011547,-.020669,
-.011692,-.020358,
-.011781,-.020026,
-.011811,-.019685,
-.011811,-.019684,
0.0*
%
%ADD15MACRO15*%
%AMMACRO110*
4,1,44,-.019684,.011811,
.019684,.011811,
.020026,.011781,
.020357,.011692,
.020669,.011547,
.02095,.011351,
.021193,.011108,
.021389,.010827,
.021535,.010516,
.021623,.010184,
.021653,.009842,
.021653,.009842,
.021653,-.009842,
.021624,-.010184,
.021535,-.010515,
.02139,-.010826,
.021193,-.011108,
.02095,-.01135,
.020669,-.011547,
.020358,-.011692,
.020026,-.011781,
.019685,-.011811,
.019684,-.011811,
-.019684,-.011811,
-.020026,-.011781,
-.020357,-.011692,
-.020669,-.011547,
-.02095,-.011351,
-.021193,-.011108,
-.021389,-.010827,
-.021535,-.010516,
-.021623,-.010184,
-.021653,-.009842,
-.021653,-.009842,
-.021653,.009842,
-.021624,.010184,
-.021535,.010515,
-.02139,.010826,
-.021193,.011108,
-.02095,.01135,
-.020669,.011547,
-.020358,.011692,
-.020026,.011781,
-.019685,.011811,
-.019684,.011811,
0.0*
%
%ADD110MACRO110*%
%AMMACRO56*
4,1,44,.010433,-.004921,
-.010433,-.004921,
-.010843,-.004886,
-.011241,-.004779,
-.011614,-.004605,
-.011951,-.004369,
-.012243,-.004078,
-.012479,-.003741,
-.012653,-.003368,
-.01276,-.00297,
-.012795,-.00256,
-.012795,-.002559,
-.012795,.002559,
-.01276,.002969,
-.012653,.003367,
-.012479,.00374,
-.012243,.004077,
-.011952,.004369,
-.011615,.004605,
-.011242,.004779,
-.010844,.004886,
-.010434,.004921,
-.010433,.004921,
.010433,.004921,
.010843,.004886,
.011241,.004779,
.011614,.004605,
.011951,.004369,
.012243,.004078,
.012479,.003741,
.012653,.003368,
.01276,.00297,
.012795,.00256,
.012795,.002559,
.012795,-.002559,
.01276,-.002969,
.012653,-.003367,
.012479,-.00374,
.012243,-.004077,
.011952,-.004369,
.011615,-.004605,
.011242,-.004779,
.010844,-.004886,
.010434,-.004921,
.010433,-.004921,
0.0*
%
%ADD56MACRO56*%
%AMMACRO48*
4,1,44,.004921,.010433,
.004921,-.010433,
.004886,-.010843,
.004779,-.011241,
.004605,-.011614,
.004369,-.011951,
.004078,-.012243,
.003741,-.012479,
.003368,-.012653,
.00297,-.01276,
.00256,-.012795,
.002559,-.012795,
-.002559,-.012795,
-.002969,-.01276,
-.003367,-.012653,
-.00374,-.012479,
-.004077,-.012243,
-.004369,-.011952,
-.004605,-.011615,
-.004779,-.011242,
-.004886,-.010844,
-.004921,-.010434,
-.004921,-.010433,
-.004921,.010433,
-.004886,.010843,
-.004779,.011241,
-.004605,.011614,
-.004369,.011951,
-.004078,.012243,
-.003741,.012479,
-.003368,.012653,
-.00297,.01276,
-.00256,.012795,
-.002559,.012795,
.002559,.012795,
.002969,.01276,
.003367,.012653,
.00374,.012479,
.004077,.012243,
.004369,.011952,
.004605,.011615,
.004779,.011242,
.004886,.010844,
.004921,.010434,
.004921,.010433,
0.0*
%
%ADD48MACRO48*%
%AMMACRO24*
4,1,40,-.019488,.011811,
.019488,.011811,
.020172,.011751,
.020835,.011574,
.021456,.011284,
.022019,.01089,
.022504,.010405,
.022898,.009842,
.023188,.009221,
.023365,.008558,
.023425,.007874,
.023425,-.007874,
.023365,-.008558,
.023188,-.009221,
.022898,-.009842,
.022504,-.010405,
.022019,-.01089,
.021457,-.011284,
.020835,-.011574,
.020172,-.011751,
.019488,-.011811,
-.019488,-.011811,
-.020172,-.011751,
-.020835,-.011574,
-.021456,-.011284,
-.022019,-.01089,
-.022504,-.010405,
-.022898,-.009843,
-.023188,-.009221,
-.023365,-.008558,
-.023425,-.007874,
-.023425,.007874,
-.023365,.008558,
-.023188,.009221,
-.022898,.009842,
-.022504,.010405,
-.022019,.01089,
-.021457,.011284,
-.020835,.011574,
-.020172,.011751,
-.019488,.011811,
0.0*
%
%ADD24MACRO24*%
%AMMACRO109*
4,1,40,.054134,.019685,
.054134,-.019685,
.054074,-.020369,
.053897,-.021032,
.053607,-.021653,
.053213,-.022216,
.052728,-.022701,
.052166,-.023095,
.051544,-.023385,
.050881,-.023562,
.050197,-.023622,
-.050197,-.023622,
-.050881,-.023562,
-.051544,-.023385,
-.052166,-.023095,
-.052728,-.022701,
-.053213,-.022216,
-.053607,-.021653,
-.053897,-.021032,
-.054074,-.020369,
-.054134,-.019685,
-.054134,.019685,
-.054074,.020369,
-.053897,.021032,
-.053607,.021653,
-.053213,.022216,
-.052728,.022701,
-.052166,.023095,
-.051544,.023385,
-.050881,.023562,
-.050197,.023622,
.050197,.023622,
.050881,.023562,
.051544,.023385,
.052166,.023095,
.052728,.022701,
.053213,.022216,
.053607,.021653,
.053897,.021032,
.054074,.020369,
.054134,.019685,
0.0*
%
%ADD109MACRO109*%
%AMMACRO95*
4,1,44,-.010826,.02559,
.010826,.02559,
.011168,.025561,
.011499,.025472,
.011811,.025327,
.012092,.02513,
.012335,.024888,
.012531,.024606,
.012677,.024295,
.012765,.023964,
.012795,.023622,
.012795,.023621,
.012795,-.023621,
.012766,-.023963,
.012677,-.024294,
.012532,-.024606,
.012335,-.024887,
.012093,-.02513,
.011811,-.025326,
.0115,-.025472,
.011169,-.02556,
.010827,-.02559,
.010826,-.02559,
-.010826,-.02559,
-.011168,-.025561,
-.011499,-.025472,
-.011811,-.025327,
-.012092,-.02513,
-.012335,-.024888,
-.012531,-.024606,
-.012677,-.024295,
-.012765,-.023964,
-.012795,-.023622,
-.012795,-.023621,
-.012795,.023621,
-.012766,.023963,
-.012677,.024294,
-.012532,.024606,
-.012335,.024887,
-.012093,.02513,
-.011811,.025326,
-.0115,.025472,
-.011169,.02556,
-.010827,.02559,
-.010826,.02559,
0.0*
%
%ADD95MACRO95*%
%AMMACRO69*
4,1,40,-.007874,-.009153,
-.007874,.009153,
-.007844,.009495,
-.007755,.009826,
-.00761,.010138,
-.007413,.010419,
-.007171,.010661,
-.00689,.010858,
-.006578,.011003,
-.006247,.011092,
-.005905,.011122,
.005905,.011122,
.006247,.011092,
.006578,.011003,
.00689,.010858,
.007171,.010661,
.007413,.010419,
.00761,.010138,
.007755,.009826,
.007844,.009495,
.007874,.009153,
.007874,-.009153,
.007844,-.009495,
.007755,-.009826,
.00761,-.010138,
.007413,-.010419,
.007171,-.010661,
.00689,-.010858,
.006578,-.011003,
.006247,-.011092,
.005905,-.011122,
-.005905,-.011122,
-.006247,-.011092,
-.006578,-.011003,
-.006889,-.010858,
-.007171,-.010661,
-.007413,-.010419,
-.00761,-.010138,
-.007755,-.009826,
-.007844,-.009495,
-.007874,-.009153,
0.0*
%
%ADD69MACRO69*%
%AMMACRO97*
4,1,44,-.013779,.02559,
.013779,.02559,
.014121,.025561,
.014452,.025472,
.014763,.025327,
.015045,.02513,
.015287,.024887,
.015484,.024606,
.015629,.024295,
.015718,.023963,
.015748,.023622,
.015748,.023621,
.015748,-.023621,
.015718,-.023963,
.015629,-.024294,
.015484,-.024606,
.015288,-.024887,
.015045,-.02513,
.014764,-.025326,
.014453,-.025472,
.014121,-.02556,
.013779,-.02559,
.013779,-.02559,
-.013779,-.02559,
-.014121,-.025561,
-.014452,-.025472,
-.014763,-.025327,
-.015045,-.02513,
-.015287,-.024887,
-.015484,-.024606,
-.015629,-.024295,
-.015718,-.023963,
-.015748,-.023622,
-.015748,-.023621,
-.015748,.023621,
-.015718,.023963,
-.015629,.024294,
-.015484,.024606,
-.015288,.024887,
-.015045,.02513,
-.014764,.025326,
-.014453,.025472,
-.014121,.02556,
-.013779,.02559,
-.013779,.02559,
0.0*
%
%ADD97MACRO97*%
%AMMACRO63*
4,1,40,.003937,.009153,
.003937,-.009153,
.003907,-.009495,
.003818,-.009826,
.003673,-.010138,
.003476,-.010419,
.003234,-.010661,
.002953,-.010858,
.002641,-.011003,
.00231,-.011092,
.001968,-.011122,
-.001968,-.011122,
-.00231,-.011092,
-.002641,-.011003,
-.002952,-.010858,
-.003234,-.010661,
-.003476,-.010419,
-.003673,-.010138,
-.003818,-.009826,
-.003907,-.009495,
-.003937,-.009153,
-.003937,.009153,
-.003907,.009495,
-.003818,.009826,
-.003673,.010138,
-.003476,.010419,
-.003234,.010661,
-.002953,.010858,
-.002641,.011003,
-.00231,.011092,
-.001968,.011122,
.001968,.011122,
.00231,.011092,
.002641,.011003,
.002953,.010858,
.003234,.010661,
.003476,.010419,
.003673,.010138,
.003818,.009826,
.003907,.009495,
.003937,.009153,
0.0*
%
%ADD63MACRO63*%
%ADD23O,.009839X.027559*%
%AMMACRO49*
4,1,44,-.012401,-.027559,
-.012401,.027559,
-.012342,.028243,
-.012164,.028906,
-.011874,.029527,
-.01148,.03009,
-.010995,.030575,
-.010433,.030969,
-.009811,.031259,
-.009148,.031436,
-.008465,.031496,
-.008464,.031496,
.008464,.031496,
.009148,.031436,
.009811,.031259,
.010433,.030969,
.010995,.030575,
.01148,.03009,
.011874,.029528,
.012164,.028906,
.012342,.028243,
.012401,.027559,
.012401,.027559,
.012401,-.027559,
.012342,-.028243,
.012164,-.028906,
.011874,-.029527,
.01148,-.03009,
.010995,-.030575,
.010433,-.030969,
.009811,-.031259,
.009148,-.031436,
.008465,-.031496,
.008464,-.031496,
-.008464,-.031496,
-.009148,-.031436,
-.009811,-.031259,
-.010433,-.030969,
-.010995,-.030575,
-.01148,-.03009,
-.011874,-.029528,
-.012164,-.028906,
-.012342,-.028243,
-.012401,-.027559,
-.012401,-.027559,
0.0*
%
%ADD49MACRO49*%
%ADD20O,.027559X.009839*%
%AMMACRO107*
4,1,44,.044291,-.068897,
-.044291,-.068897,
-.044633,-.068868,
-.044964,-.068779,
-.045275,-.068634,
-.045557,-.068437,
-.045799,-.068194,
-.045996,-.067913,
-.046141,-.067602,
-.04623,-.06727,
-.04626,-.066929,
-.04626,-.066928,
-.04626,.066928,
-.04623,.06727,
-.046141,.067601,
-.045996,.067913,
-.0458,.068194,
-.045557,.068437,
-.045276,.068633,
-.044965,.068779,
-.044633,.068867,
-.044291,.068897,
-.044291,.068897,
.044291,.068897,
.044633,.068868,
.044964,.068779,
.045275,.068634,
.045557,.068437,
.045799,.068194,
.045996,.067913,
.046141,.067602,
.04623,.06727,
.04626,.066929,
.04626,.066928,
.04626,-.066928,
.04623,-.06727,
.046141,-.067601,
.045996,-.067913,
.0458,-.068194,
.045557,-.068437,
.045276,-.068633,
.044965,-.068779,
.044633,-.068867,
.044291,-.068897,
.044291,-.068897,
0.0*
%
%ADD107MACRO107*%
%AMMACRO17*
4,1,44,.068897,.044291,
.068897,-.044291,
.068868,-.044633,
.068779,-.044964,
.068634,-.045275,
.068437,-.045557,
.068194,-.045799,
.067913,-.045996,
.067602,-.046141,
.06727,-.04623,
.066929,-.04626,
.066928,-.04626,
-.066928,-.04626,
-.06727,-.04623,
-.067601,-.046141,
-.067913,-.045996,
-.068194,-.0458,
-.068437,-.045557,
-.068633,-.045276,
-.068779,-.044965,
-.068867,-.044633,
-.068897,-.044291,
-.068897,-.044291,
-.068897,.044291,
-.068868,.044633,
-.068779,.044964,
-.068634,.045275,
-.068437,.045557,
-.068194,.045799,
-.067913,.045996,
-.067602,.046141,
-.06727,.04623,
-.066929,.04626,
-.066928,.04626,
.066928,.04626,
.06727,.04623,
.067601,.046141,
.067913,.045996,
.068194,.0458,
.068437,.045557,
.068633,.045276,
.068779,.044965,
.068867,.044633,
.068897,.044291,
.068897,.044291,
0.0*
%
%ADD17MACRO17*%
%AMMACRO34*
4,1,44,-.021653,.029527,
.021653,.029527,
.021995,.029498,
.022326,.029409,
.022637,.029264,
.022919,.029067,
.023161,.028824,
.023358,.028543,
.023503,.028232,
.023592,.0279,
.023622,.027559,
.023622,.027558,
.023622,-.027558,
.023592,-.0279,
.023503,-.028231,
.023358,-.028543,
.023162,-.028824,
.022919,-.029067,
.022638,-.029263,
.022327,-.029409,
.021995,-.029497,
.021653,-.029527,
.021653,-.029527,
-.021653,-.029527,
-.021995,-.029498,
-.022326,-.029409,
-.022637,-.029264,
-.022919,-.029067,
-.023161,-.028824,
-.023358,-.028543,
-.023503,-.028232,
-.023592,-.0279,
-.023622,-.027559,
-.023622,-.027558,
-.023622,.027558,
-.023592,.0279,
-.023503,.028231,
-.023358,.028543,
-.023162,.028824,
-.022919,.029067,
-.022638,.029263,
-.022327,.029409,
-.021995,.029497,
-.021653,.029527,
-.021653,.029527,
0.0*
%
%ADD34MACRO34*%
%AMMACRO25*
4,1,40,-.021653,.043307,
.021653,.043307,
.021995,.043277,
.022326,.043188,
.022637,.043043,
.022919,.042846,
.023161,.042604,
.023358,.042322,
.023503,.042011,
.023592,.04168,
.023622,.041338,
.023622,-.041338,
.023592,-.04168,
.023503,-.042011,
.023358,-.042322,
.023161,-.042604,
.022919,-.042846,
.022638,-.043043,
.022326,-.043188,
.021995,-.043277,
.021653,-.043307,
-.021653,-.043307,
-.021995,-.043277,
-.022326,-.043188,
-.022637,-.043043,
-.022919,-.042846,
-.023161,-.042604,
-.023358,-.042322,
-.023503,-.042011,
-.023592,-.04168,
-.023622,-.041338,
-.023622,.041338,
-.023592,.04168,
-.023503,.042011,
-.023358,.042322,
-.023161,.042604,
-.022919,.042846,
-.022638,.043043,
-.022326,.043188,
-.021995,.043277,
-.021653,.043307,
0.0*
%
%ADD25MACRO25*%
%AMMACRO74*
4,1,44,.023622,.066928,
.023622,-.066928,
.023592,-.06727,
.023503,-.067601,
.023358,-.067913,
.023162,-.068194,
.022919,-.068437,
.022638,-.068633,
.022327,-.068779,
.021995,-.068867,
.021653,-.068897,
.021653,-.068897,
-.021653,-.068897,
-.021995,-.068868,
-.022326,-.068779,
-.022637,-.068634,
-.022919,-.068437,
-.023161,-.068194,
-.023358,-.067913,
-.023503,-.067602,
-.023592,-.06727,
-.023622,-.066929,
-.023622,-.066928,
-.023622,.066928,
-.023592,.06727,
-.023503,.067601,
-.023358,.067913,
-.023162,.068194,
-.022919,.068437,
-.022638,.068633,
-.022327,.068779,
-.021995,.068867,
-.021653,.068897,
-.021653,.068897,
.021653,.068897,
.021995,.068868,
.022326,.068779,
.022637,.068634,
.022919,.068437,
.023161,.068194,
.023358,.067913,
.023503,.067602,
.023592,.06727,
.023622,.066929,
.023622,.066928,
0.0*
%
%ADD74MACRO74*%
%AMMACRO57*
4,1,40,-.031496,-.017716,
-.031496,.017716,
-.031466,.018058,
-.031377,.018389,
-.031232,.018701,
-.031035,.018982,
-.030793,.019224,
-.030512,.019421,
-.0302,.019566,
-.029869,.019655,
-.029527,.019685,
.029527,.019685,
.029869,.019655,
.0302,.019566,
.030512,.019421,
.030793,.019224,
.031035,.018982,
.031232,.018701,
.031377,.018389,
.031466,.018058,
.031496,.017716,
.031496,-.017716,
.031466,-.018058,
.031377,-.018389,
.031232,-.018701,
.031035,-.018982,
.030793,-.019224,
.030512,-.019421,
.0302,-.019566,
.029869,-.019655,
.029527,-.019685,
-.029527,-.019685,
-.029869,-.019655,
-.0302,-.019566,
-.030512,-.019421,
-.030793,-.019224,
-.031035,-.018982,
-.031232,-.018701,
-.031377,-.018389,
-.031466,-.018058,
-.031496,-.017716,
0.0*
%
%ADD57MACRO57*%
%AMMACRO101*
4,1,40,-.031496,-.035433,
-.031496,.035433,
-.031436,.036117,
-.031259,.03678,
-.030969,.037401,
-.030575,.037964,
-.03009,.038449,
-.029528,.038843,
-.028906,.039133,
-.028243,.03931,
-.027559,.03937,
.027559,.03937,
.028243,.03931,
.028906,.039133,
.029528,.038843,
.03009,.038449,
.030575,.037964,
.030969,.037401,
.031259,.03678,
.031436,.036117,
.031496,.035433,
.031496,-.035433,
.031436,-.036117,
.031259,-.03678,
.030969,-.037401,
.030575,-.037964,
.03009,-.038449,
.029528,-.038843,
.028906,-.039133,
.028243,-.03931,
.027559,-.03937,
-.027559,-.03937,
-.028243,-.03931,
-.028906,-.039133,
-.029527,-.038843,
-.03009,-.038449,
-.030575,-.037964,
-.030969,-.037402,
-.031259,-.03678,
-.031436,-.036117,
-.031496,-.035433,
0.0*
%
%ADD101MACRO101*%
%AMMACRO106*
4,1,44,-.007873,.012795,
.007873,.012795,
.008215,.012766,
.008546,.012677,
.008858,.012532,
.009139,.012335,
.009382,.012093,
.009578,.011811,
.009724,.0115,
.009812,.011169,
.009842,.010827,
.009842,.010826,
.009842,-.010826,
.009813,-.011168,
.009724,-.011499,
.009579,-.011811,
.009382,-.012092,
.00914,-.012335,
.008858,-.012531,
.008547,-.012677,
.008216,-.012765,
.007874,-.012795,
.007873,-.012795,
-.007873,-.012795,
-.008215,-.012766,
-.008546,-.012677,
-.008858,-.012532,
-.009139,-.012335,
-.009382,-.012093,
-.009578,-.011811,
-.009724,-.0115,
-.009812,-.011169,
-.009842,-.010827,
-.009842,-.010826,
-.009842,.010826,
-.009813,.011168,
-.009724,.011499,
-.009579,.011811,
-.009382,.012092,
-.00914,.012335,
-.008858,.012531,
-.008547,.012677,
-.008216,.012765,
-.007874,.012795,
-.007873,.012795,
0.0*
%
%ADD106MACRO106*%
%AMMACRO52*
4,1,40,-.013779,.031496,
.013779,.031496,
.014121,.031466,
.014452,.031377,
.014764,.031232,
.015045,.031035,
.015287,.030793,
.015484,.030512,
.015629,.0302,
.015718,.029869,
.015748,.029527,
.015748,-.029527,
.015718,-.029869,
.015629,-.0302,
.015484,-.030512,
.015287,-.030793,
.015045,-.031035,
.014764,-.031232,
.014452,-.031377,
.014121,-.031466,
.013779,-.031496,
-.013779,-.031496,
-.014121,-.031466,
-.014452,-.031377,
-.014763,-.031232,
-.015045,-.031035,
-.015287,-.030793,
-.015484,-.030512,
-.015629,-.0302,
-.015718,-.029869,
-.015748,-.029527,
-.015748,.029527,
-.015718,.029869,
-.015629,.0302,
-.015484,.030512,
-.015287,.030793,
-.015045,.031035,
-.014764,.031232,
-.014452,.031377,
-.014121,.031466,
-.013779,.031496,
0.0*
%
%ADD52MACRO52*%
%AMMACRO92*
4,1,44,-.017716,.041338,
.017716,.041338,
.018058,.041309,
.018389,.04122,
.018701,.041075,
.018982,.040878,
.019224,.040635,
.019421,.040354,
.019566,.040043,
.019655,.039711,
.019685,.03937,
.019685,.039369,
.019685,-.039369,
.019655,-.039711,
.019566,-.040042,
.019421,-.040354,
.019225,-.040635,
.018982,-.040878,
.018701,-.041074,
.01839,-.04122,
.018058,-.041308,
.017716,-.041338,
.017716,-.041338,
-.017716,-.041338,
-.018058,-.041309,
-.018389,-.04122,
-.018701,-.041075,
-.018982,-.040878,
-.019224,-.040635,
-.019421,-.040354,
-.019566,-.040043,
-.019655,-.039711,
-.019685,-.03937,
-.019685,-.039369,
-.019685,.039369,
-.019655,.039711,
-.019566,.040042,
-.019421,.040354,
-.019225,.040635,
-.018982,.040878,
-.018701,.041074,
-.01839,.04122,
-.018058,.041308,
-.017716,.041338,
-.017716,.041338,
0.0*
%
%ADD92MACRO92*%
%AMMACRO27*
4,1,44,-.029527,.029527,
.029527,.029527,
.029869,.029498,
.0302,.029409,
.030512,.029264,
.030793,.029067,
.031035,.028824,
.031232,.028543,
.031377,.028232,
.031466,.0279,
.031496,.027559,
.031496,.027558,
.031496,-.027558,
.031466,-.0279,
.031377,-.028231,
.031232,-.028543,
.031036,-.028824,
.030793,-.029067,
.030512,-.029263,
.030201,-.029409,
.029869,-.029497,
.029527,-.029527,
.029527,-.029527,
-.029527,-.029527,
-.029869,-.029498,
-.0302,-.029409,
-.030512,-.029264,
-.030793,-.029067,
-.031035,-.028824,
-.031232,-.028543,
-.031377,-.028232,
-.031466,-.0279,
-.031496,-.027559,
-.031496,-.027558,
-.031496,.027558,
-.031466,.0279,
-.031377,.028231,
-.031232,.028543,
-.031036,.028824,
-.030793,.029067,
-.030512,.029263,
-.030201,.029409,
-.029869,.029497,
-.029527,.029527,
-.029527,.029527,
0.0*
%
%ADD27MACRO27*%
%AMMACRO31*
4,1,44,-.01181,.031496,
.01181,.031496,
.012152,.031466,
.012483,.031377,
.012795,.031232,
.013076,.031036,
.013319,.030793,
.013515,.030512,
.013661,.030201,
.013749,.029869,
.013779,.029527,
.013779,.029527,
.013779,-.029527,
.01375,-.029869,
.013661,-.0302,
.013516,-.030512,
.013319,-.030793,
.013076,-.031035,
.012795,-.031232,
.012484,-.031377,
.012152,-.031466,
.011811,-.031496,
.01181,-.031496,
-.01181,-.031496,
-.012152,-.031466,
-.012483,-.031377,
-.012795,-.031232,
-.013076,-.031036,
-.013319,-.030793,
-.013515,-.030512,
-.013661,-.030201,
-.013749,-.029869,
-.013779,-.029527,
-.013779,-.029527,
-.013779,.029527,
-.01375,.029869,
-.013661,.0302,
-.013516,.030512,
-.013319,.030793,
-.013076,.031035,
-.012795,.031232,
-.012484,.031377,
-.012152,.031466,
-.011811,.031496,
-.01181,.031496,
0.0*
%
%ADD31MACRO31*%
%AMMACRO45*
4,1,44,-.039369,.049212,
.039369,.049212,
.039711,.049183,
.040042,.049094,
.040354,.048949,
.040635,.048752,
.040878,.04851,
.041074,.048228,
.04122,.047917,
.041308,.047586,
.041338,.047244,
.041338,.047243,
.041338,-.047243,
.041309,-.047585,
.04122,-.047916,
.041075,-.048228,
.040878,-.048509,
.040636,-.048752,
.040354,-.048948,
.040043,-.049094,
.039712,-.049182,
.03937,-.049212,
.039369,-.049212,
-.039369,-.049212,
-.039711,-.049183,
-.040042,-.049094,
-.040354,-.048949,
-.040635,-.048752,
-.040878,-.04851,
-.041074,-.048228,
-.04122,-.047917,
-.041308,-.047586,
-.041338,-.047244,
-.041338,-.047243,
-.041338,.047243,
-.041309,.047585,
-.04122,.047916,
-.041075,.048228,
-.040878,.048509,
-.040636,.048752,
-.040354,.048948,
-.040043,.049094,
-.039712,.049182,
-.03937,.049212,
-.039369,.049212,
0.0*
%
%ADD45MACRO45*%
%AMMACRO85*
4,1,44,.007677,-.005905,
-.007677,-.005905,
-.008224,-.005858,
-.008754,-.005716,
-.009252,-.005483,
-.009702,-.005169,
-.01009,-.00478,
-.010405,-.004331,
-.010637,-.003833,
-.010779,-.003302,
-.010827,-.002756,
-.010827,-.002755,
-.010827,.002755,
-.010779,.003302,
-.010637,.003832,
-.010405,.00433,
-.01009,.00478,
-.009702,.005168,
-.009252,.005483,
-.008755,.005715,
-.008224,.005858,
-.007677,.005905,
-.007677,.005905,
.007677,.005905,
.008224,.005858,
.008754,.005716,
.009252,.005483,
.009702,.005169,
.01009,.00478,
.010405,.004331,
.010637,.003833,
.010779,.003302,
.010827,.002756,
.010827,.002755,
.010827,-.002755,
.010779,-.003302,
.010637,-.003832,
.010405,-.00433,
.01009,-.00478,
.009702,-.005168,
.009252,-.005483,
.008755,-.005715,
.008224,-.005858,
.007677,-.005905,
.007677,-.005905,
0.0*
%
%ADD85MACRO85*%
%AMMACRO84*
4,1,44,.005905,.007677,
.005905,-.007677,
.005858,-.008224,
.005716,-.008754,
.005483,-.009252,
.005169,-.009702,
.00478,-.01009,
.004331,-.010405,
.003833,-.010637,
.003302,-.010779,
.002756,-.010827,
.002755,-.010827,
-.002755,-.010827,
-.003302,-.010779,
-.003832,-.010637,
-.00433,-.010405,
-.00478,-.01009,
-.005168,-.009702,
-.005483,-.009252,
-.005715,-.008755,
-.005858,-.008224,
-.005905,-.007677,
-.005905,-.007677,
-.005905,.007677,
-.005858,.008224,
-.005716,.008754,
-.005483,.009252,
-.005169,.009702,
-.00478,.01009,
-.004331,.010405,
-.003833,.010637,
-.003302,.010779,
-.002756,.010827,
-.002755,.010827,
.002755,.010827,
.003302,.010779,
.003832,.010637,
.00433,.010405,
.00478,.01009,
.005168,.009702,
.005483,.009252,
.005715,.008755,
.005858,.008224,
.005905,.007677,
.005905,.007677,
0.0*
%
%ADD84MACRO84*%
%ADD35C,.043307*%
%ADD39R,.029531X.011811*%
%ADD43R,.011811X.029531*%
%ADD40R,.01772X.01378*%
%ADD11C,.03937*%
%ADD42R,.01378X.01772*%
%AMMACRO104*
4,1,44,.030512,.003936,
.030512,-.003936,
.030482,-.004278,
.030393,-.004609,
.030248,-.004921,
.030052,-.005202,
.029809,-.005445,
.029528,-.005641,
.029217,-.005787,
.028885,-.005875,
.028543,-.005905,
.028543,-.005905,
-.028543,-.005905,
-.028885,-.005876,
-.029216,-.005787,
-.029527,-.005642,
-.029809,-.005445,
-.030051,-.005202,
-.030248,-.004921,
-.030393,-.00461,
-.030482,-.004278,
-.030512,-.003937,
-.030512,-.003936,
-.030512,.003936,
-.030482,.004278,
-.030393,.004609,
-.030248,.004921,
-.030052,.005202,
-.029809,.005445,
-.029528,.005641,
-.029217,.005787,
-.028885,.005875,
-.028543,.005905,
-.028543,.005905,
.028543,.005905,
.028885,.005876,
.029216,.005787,
.029527,.005642,
.029809,.005445,
.030051,.005202,
.030248,.004921,
.030393,.00461,
.030482,.004278,
.030512,.003937,
.030512,.003936,
0.0*
%
%ADD104MACRO104*%
%AMMACRO73*
4,1,44,.010039,-.005512,
-.010039,-.005512,
-.010518,-.00547,
-.010982,-.005346,
-.011417,-.005143,
-.011811,-.004868,
-.01215,-.004528,
-.012426,-.004134,
-.012629,-.003699,
-.012754,-.003235,
-.012795,-.002756,
-.012795,-.002756,
-.012795,.002756,
-.012754,.003235,
-.012629,.003699,
-.012426,.004134,
-.012151,.004528,
-.011811,.004867,
-.011418,.005143,
-.010982,.005346,
-.010518,.00547,
-.01004,.005512,
-.010039,.005512,
.010039,.005512,
.010518,.00547,
.010982,.005346,
.011417,.005143,
.011811,.004868,
.01215,.004528,
.012426,.004134,
.012629,.003699,
.012754,.003235,
.012795,.002756,
.012795,.002756,
.012795,-.002756,
.012754,-.003235,
.012629,-.003699,
.012426,-.004134,
.012151,-.004528,
.011811,-.004867,
.011418,-.005143,
.010982,-.005346,
.010518,-.00547,
.01004,-.005512,
.010039,-.005512,
0.0*
%
%ADD73MACRO73*%
%AMMACRO72*
4,1,44,.005512,.010039,
.005512,-.010039,
.00547,-.010518,
.005346,-.010982,
.005143,-.011417,
.004868,-.011811,
.004528,-.01215,
.004134,-.012426,
.003699,-.012629,
.003235,-.012754,
.002756,-.012795,
.002756,-.012795,
-.002756,-.012795,
-.003235,-.012754,
-.003699,-.012629,
-.004134,-.012426,
-.004528,-.012151,
-.004867,-.011811,
-.005143,-.011418,
-.005346,-.010982,
-.00547,-.010518,
-.005512,-.01004,
-.005512,-.010039,
-.005512,.010039,
-.00547,.010518,
-.005346,.010982,
-.005143,.011417,
-.004868,.011811,
-.004528,.01215,
-.004134,.012426,
-.003699,.012629,
-.003235,.012754,
-.002756,.012795,
-.002756,.012795,
.002756,.012795,
.003235,.012754,
.003699,.012629,
.004134,.012426,
.004528,.012151,
.004867,.011811,
.005143,.011418,
.005346,.010982,
.00547,.010518,
.005512,.01004,
.005512,.010039,
0.0*
%
%ADD72MACRO72*%
%ADD38R,.03937X.037402*%
%ADD36R,.043307X.043307*%
%ADD21O,.059059X.011811*%
%ADD44R,.037402X.03937*%
%AMMACRO67*
4,1,44,.003936,-.018701,
-.003936,-.018701,
-.004278,-.018671,
-.004609,-.018582,
-.004921,-.018437,
-.005202,-.018241,
-.005445,-.017998,
-.005641,-.017717,
-.005787,-.017406,
-.005875,-.017074,
-.005905,-.016732,
-.005905,-.016732,
-.005905,.016732,
-.005876,.017074,
-.005787,.017405,
-.005642,.017716,
-.005445,.017998,
-.005202,.01824,
-.004921,.018437,
-.00461,.018582,
-.004278,.018671,
-.003937,.018701,
-.003936,.018701,
.003936,.018701,
.004278,.018671,
.004609,.018582,
.004921,.018437,
.005202,.018241,
.005445,.017998,
.005641,.017717,
.005787,.017406,
.005875,.017074,
.005905,.016732,
.005905,.016732,
.005905,-.016732,
.005876,-.017074,
.005787,-.017405,
.005642,-.017716,
.005445,-.017998,
.005202,-.01824,
.004921,-.018437,
.00461,-.018582,
.004278,-.018671,
.003937,-.018701,
.003936,-.018701,
0.0*
%
%ADD67MACRO67*%
%AMMACRO66*
4,1,44,.003936,-.02559,
-.003936,-.02559,
-.004278,-.025561,
-.004609,-.025472,
-.004921,-.025327,
-.005202,-.02513,
-.005445,-.024888,
-.005641,-.024606,
-.005787,-.024295,
-.005875,-.023964,
-.005905,-.023622,
-.005905,-.023621,
-.005905,.023621,
-.005876,.023963,
-.005787,.024294,
-.005642,.024606,
-.005445,.024887,
-.005203,.02513,
-.004921,.025326,
-.00461,.025472,
-.004279,.02556,
-.003937,.02559,
-.003936,.02559,
.003936,.02559,
.004278,.025561,
.004609,.025472,
.004921,.025327,
.005202,.02513,
.005445,.024888,
.005641,.024606,
.005787,.024295,
.005875,.023964,
.005905,.023622,
.005905,.023621,
.005905,-.023621,
.005876,-.023963,
.005787,-.024294,
.005642,-.024606,
.005445,-.024887,
.005203,-.02513,
.004921,-.025326,
.00461,-.025472,
.004279,-.02556,
.003937,-.02559,
.003936,-.02559,
0.0*
%
%ADD66MACRO66*%
%AMMACRO54*
4,1,44,.018701,.013188,
.018701,-.013188,
.018671,-.01353,
.018582,-.013861,
.018437,-.014173,
.018241,-.014454,
.017998,-.014697,
.017717,-.014893,
.017406,-.015039,
.017074,-.015127,
.016732,-.015157,
.016732,-.015157,
-.016732,-.015157,
-.017074,-.015128,
-.017405,-.015039,
-.017716,-.014894,
-.017998,-.014697,
-.01824,-.014454,
-.018437,-.014173,
-.018582,-.013862,
-.018671,-.01353,
-.018701,-.013189,
-.018701,-.013188,
-.018701,.013188,
-.018671,.01353,
-.018582,.013861,
-.018437,.014173,
-.018241,.014454,
-.017998,.014697,
-.017717,.014893,
-.017406,.015039,
-.017074,.015127,
-.016732,.015157,
-.016732,.015157,
.016732,.015157,
.017074,.015128,
.017405,.015039,
.017716,.014894,
.017998,.014697,
.01824,.014454,
.018437,.014173,
.018582,.013862,
.018671,.01353,
.018701,.013189,
.018701,.013188,
0.0*
%
%ADD54MACRO54*%
%ADD16R,.025591X.023618*%
%AMMACRO88*
4,1,44,.012008,.032086,
.012008,-.032086,
.011948,-.03277,
.011771,-.033433,
.011481,-.034055,
.011087,-.034617,
.010602,-.035102,
.01004,-.035496,
.009418,-.035786,
.008755,-.035964,
.008071,-.036023,
.008071,-.036023,
-.008071,-.036023,
-.008755,-.035964,
-.009418,-.035786,
-.010039,-.035496,
-.010602,-.035102,
-.011087,-.034617,
-.011481,-.034055,
-.011771,-.033433,
-.011948,-.03277,
-.012008,-.032087,
-.012008,-.032086,
-.012008,.032086,
-.011948,.03277,
-.011771,.033433,
-.011481,.034055,
-.011087,.034617,
-.010602,.035102,
-.01004,.035496,
-.009418,.035786,
-.008755,.035964,
-.008071,.036023,
-.008071,.036023,
.008071,.036023,
.008755,.035964,
.009418,.035786,
.010039,.035496,
.010602,.035102,
.011087,.034617,
.011481,.034055,
.011771,.033433,
.011948,.03277,
.012008,.032087,
.012008,.032086,
0.0*
%
%ADD88MACRO88*%
%ADD79R,.016142X.019685*%
%ADD14R,.023618X.025591*%
%ADD98R,.023618X.015748*%
%AMMACRO86*
4,1,44,.011811,.019684,
.011811,-.019684,
.011781,-.020026,
.011692,-.020357,
.011547,-.020669,
.011351,-.02095,
.011108,-.021193,
.010827,-.021389,
.010516,-.021535,
.010184,-.021623,
.009842,-.021653,
.009842,-.021653,
-.009842,-.021653,
-.010184,-.021624,
-.010515,-.021535,
-.010826,-.02139,
-.011108,-.021193,
-.01135,-.02095,
-.011547,-.020669,
-.011692,-.020358,
-.011781,-.020026,
-.011811,-.019685,
-.011811,-.019684,
-.011811,.019684,
-.011781,.020026,
-.011692,.020357,
-.011547,.020669,
-.011351,.02095,
-.011108,.021193,
-.010827,.021389,
-.010516,.021535,
-.010184,.021623,
-.009842,.021653,
-.009842,.021653,
.009842,.021653,
.010184,.021624,
.010515,.021535,
.010826,.02139,
.011108,.021193,
.01135,.02095,
.011547,.020669,
.011692,.020358,
.011781,.020026,
.011811,.019685,
.011811,.019684,
0.0*
%
%ADD86MACRO86*%
%AMMACRO22*
4,1,44,.019684,-.011811,
-.019684,-.011811,
-.020026,-.011781,
-.020357,-.011692,
-.020669,-.011547,
-.02095,-.011351,
-.021193,-.011108,
-.021389,-.010827,
-.021535,-.010516,
-.021623,-.010184,
-.021653,-.009842,
-.021653,-.009842,
-.021653,.009842,
-.021624,.010184,
-.021535,.010515,
-.02139,.010826,
-.021193,.011108,
-.02095,.01135,
-.020669,.011547,
-.020358,.011692,
-.020026,.011781,
-.019685,.011811,
-.019684,.011811,
.019684,.011811,
.020026,.011781,
.020357,.011692,
.020669,.011547,
.02095,.011351,
.021193,.011108,
.021389,.010827,
.021535,.010516,
.021623,.010184,
.021653,.009842,
.021653,.009842,
.021653,-.009842,
.021624,-.010184,
.021535,-.010515,
.02139,-.010826,
.021193,-.011108,
.02095,-.01135,
.020669,-.011547,
.020358,-.011692,
.020026,-.011781,
.019685,-.011811,
.019684,-.011811,
0.0*
%
%ADD22MACRO22*%
%ADD64R,.015748X.014169*%
%ADD53R,.015748X.023618*%
%ADD108R,.07874X.07874*%
%ADD102O,.027559X.047244*%
%ADD94R,.03465X.03898*%
%AMMACRO75*
4,1,44,.003936,-.012795,
-.003936,-.012795,
-.004278,-.012766,
-.004609,-.012677,
-.004921,-.012532,
-.005202,-.012335,
-.005445,-.012093,
-.005641,-.011811,
-.005787,-.0115,
-.005875,-.011169,
-.005905,-.010827,
-.005905,-.010826,
-.005905,.010826,
-.005876,.011168,
-.005787,.011499,
-.005642,.011811,
-.005445,.012092,
-.005203,.012335,
-.004921,.012531,
-.00461,.012677,
-.004279,.012765,
-.003937,.012795,
-.003936,.012795,
.003936,.012795,
.004278,.012766,
.004609,.012677,
.004921,.012532,
.005202,.012335,
.005445,.012093,
.005641,.011811,
.005787,.0115,
.005875,.011169,
.005905,.010827,
.005905,.010826,
.005905,-.010826,
.005876,-.011168,
.005787,-.011499,
.005642,-.011811,
.005445,-.012092,
.005203,-.012335,
.004921,-.012531,
.00461,-.012677,
.004279,-.012765,
.003937,-.012795,
.003936,-.012795,
0.0*
%
%ADD75MACRO75*%
%ADD60O,.047244X.098425*%
%ADD13R,.014169X.015748*%
%AMMACRO76*
4,1,44,.003936,-.015748,
-.003936,-.015748,
-.004278,-.015718,
-.004609,-.015629,
-.004921,-.015484,
-.005202,-.015288,
-.005445,-.015045,
-.005641,-.014764,
-.005787,-.014453,
-.005875,-.014121,
-.005905,-.013779,
-.005905,-.013779,
-.005905,.013779,
-.005876,.014121,
-.005787,.014452,
-.005642,.014763,
-.005445,.015045,
-.005202,.015287,
-.004921,.015484,
-.00461,.015629,
-.004278,.015718,
-.003937,.015748,
-.003936,.015748,
.003936,.015748,
.004278,.015718,
.004609,.015629,
.004921,.015484,
.005202,.015288,
.005445,.015045,
.005641,.014764,
.005787,.014453,
.005875,.014121,
.005905,.013779,
.005905,.013779,
.005905,-.013779,
.005876,-.014121,
.005787,-.014452,
.005642,-.014763,
.005445,-.015045,
.005202,-.015287,
.004921,-.015484,
.00461,-.015629,
.004278,-.015718,
.003937,-.015748,
.003936,-.015748,
0.0*
%
%ADD76MACRO76*%
%AMMACRO58*
4,1,44,.003936,-.008858,
-.003936,-.008858,
-.004278,-.008829,
-.004609,-.00874,
-.004921,-.008595,
-.005202,-.008398,
-.005445,-.008156,
-.005641,-.007874,
-.005787,-.007563,
-.005875,-.007232,
-.005905,-.00689,
-.005905,-.006889,
-.005905,.006889,
-.005876,.007231,
-.005787,.007562,
-.005642,.007874,
-.005445,.008155,
-.005203,.008398,
-.004921,.008594,
-.00461,.00874,
-.004279,.008828,
-.003937,.008858,
-.003936,.008858,
.003936,.008858,
.004278,.008829,
.004609,.00874,
.004921,.008595,
.005202,.008398,
.005445,.008156,
.005641,.007874,
.005787,.007563,
.005875,.007232,
.005905,.00689,
.005905,.006889,
.005905,-.006889,
.005876,-.007231,
.005787,-.007562,
.005642,-.007874,
.005445,-.008155,
.005203,-.008398,
.004921,-.008594,
.00461,-.00874,
.004279,-.008828,
.003937,-.008858,
.003936,-.008858,
0.0*
%
%ADD58MACRO58*%
%ADD51R,.038579X.03661*%
%AMMACRO26*
4,1,40,.019488,-.011811,
-.019488,-.011811,
-.020172,-.011751,
-.020835,-.011574,
-.021456,-.011284,
-.022019,-.01089,
-.022504,-.010405,
-.022898,-.009843,
-.023188,-.009221,
-.023365,-.008558,
-.023425,-.007874,
-.023425,.007874,
-.023365,.008558,
-.023188,.009221,
-.022898,.009842,
-.022504,.010405,
-.022019,.01089,
-.021457,.011284,
-.020835,.011574,
-.020172,.011751,
-.019488,.011811,
.019488,.011811,
.020172,.011751,
.020835,.011574,
.021456,.011284,
.022019,.01089,
.022504,.010405,
.022898,.009842,
.023188,.009221,
.023365,.008558,
.023425,.007874,
.023425,-.007874,
.023365,-.008558,
.023188,-.009221,
.022898,-.009842,
.022504,-.010405,
.022019,-.01089,
.021457,-.011284,
.020835,-.011574,
.020172,-.011751,
.019488,-.011811,
0.0*
%
%ADD26MACRO26*%
%ADD30R,.03661X.038579*%
%ADD80R,.07087X.044488*%
%ADD33R,.093539X.063291*%
%AMMACRO89*
4,1,44,.012795,-.005905,
-.012795,-.005905,
-.013137,-.005876,
-.013468,-.005787,
-.01378,-.005642,
-.014061,-.005445,
-.014303,-.005202,
-.0145,-.004921,
-.014645,-.00461,
-.014734,-.004278,
-.014764,-.003937,
-.014764,-.003936,
-.014764,.003936,
-.014734,.004278,
-.014645,.004609,
-.0145,.004921,
-.014304,.005202,
-.014061,.005445,
-.01378,.005641,
-.013469,.005787,
-.013137,.005875,
-.012795,.005905,
-.012795,.005905,
.012795,.005905,
.013137,.005876,
.013468,.005787,
.01378,.005642,
.014061,.005445,
.014303,.005202,
.0145,.004921,
.014645,.00461,
.014734,.004278,
.014764,.003937,
.014764,.003936,
.014764,-.003936,
.014734,-.004278,
.014645,-.004609,
.0145,-.004921,
.014304,-.005202,
.014061,-.005445,
.01378,-.005641,
.013469,-.005787,
.013137,-.005875,
.012795,-.005905,
.012795,-.005905,
0.0*
%
%ADD89MACRO89*%
%ADD37R,.044488X.07087*%
%ADD28R,.063291X.093539*%
%AMMACRO103*
4,1,44,.027558,-.011811,
-.027558,-.011811,
-.0279,-.011781,
-.028231,-.011692,
-.028543,-.011547,
-.028824,-.011351,
-.029067,-.011108,
-.029263,-.010827,
-.029409,-.010516,
-.029497,-.010184,
-.029527,-.009842,
-.029527,-.009842,
-.029527,.009842,
-.029498,.010184,
-.029409,.010515,
-.029264,.010826,
-.029067,.011108,
-.028824,.01135,
-.028543,.011547,
-.028232,.011692,
-.0279,.011781,
-.027559,.011811,
-.027558,.011811,
.027558,.011811,
.0279,.011781,
.028231,.011692,
.028543,.011547,
.028824,.011351,
.029067,.011108,
.029263,.010827,
.029409,.010516,
.029497,.010184,
.029527,.009842,
.029527,.009842,
.029527,-.009842,
.029498,-.010184,
.029409,-.010515,
.029264,-.010826,
.029067,-.011108,
.028824,-.01135,
.028543,-.011547,
.028232,-.011692,
.0279,-.011781,
.027559,-.011811,
.027558,-.011811,
0.0*
%
%ADD103MACRO103*%
%ADD100R,.049209X.027559*%
%AMMACRO70*
4,1,40,.007874,.009153,
.007874,-.009153,
.007844,-.009495,
.007755,-.009826,
.00761,-.010138,
.007413,-.010419,
.007171,-.010661,
.00689,-.010858,
.006578,-.011003,
.006247,-.011092,
.005905,-.011122,
-.005905,-.011122,
-.006247,-.011092,
-.006578,-.011003,
-.006889,-.010858,
-.007171,-.010661,
-.007413,-.010419,
-.00761,-.010138,
-.007755,-.009826,
-.007844,-.009495,
-.007874,-.009153,
-.007874,.009153,
-.007844,.009495,
-.007755,.009826,
-.00761,.010138,
-.007413,.010419,
-.007171,.010661,
-.00689,.010858,
-.006578,.011003,
-.006247,.011092,
-.005905,.011122,
.005905,.011122,
.006247,.011092,
.006578,.011003,
.00689,.010858,
.007171,.010661,
.007413,.010419,
.00761,.010138,
.007755,.009826,
.007844,.009495,
.007874,.009153,
0.0*
%
%ADD70MACRO70*%
%ADD61O,.062992X.07874*%
%AMMACRO46*
4,1,44,-.004921,-.010433,
-.004921,.010433,
-.004886,.010843,
-.004779,.011241,
-.004605,.011614,
-.004369,.011951,
-.004078,.012243,
-.003741,.012479,
-.003368,.012653,
-.00297,.01276,
-.00256,.012795,
-.002559,.012795,
.002559,.012795,
.002969,.01276,
.003367,.012653,
.00374,.012479,
.004077,.012243,
.004369,.011952,
.004605,.011615,
.004779,.011242,
.004886,.010844,
.004921,.010434,
.004921,.010433,
.004921,-.010433,
.004886,-.010843,
.004779,-.011241,
.004605,-.011614,
.004369,-.011951,
.004078,-.012243,
.003741,-.012479,
.003368,-.012653,
.00297,-.01276,
.00256,-.012795,
.002559,-.012795,
-.002559,-.012795,
-.002969,-.01276,
-.003367,-.012653,
-.00374,-.012479,
-.004077,-.012243,
-.004369,-.011952,
-.004605,-.011615,
-.004779,-.011242,
-.004886,-.010844,
-.004921,-.010434,
-.004921,-.010433,
0.0*
%
%ADD46MACRO46*%
%ADD96R,.027559X.015748*%
%ADD90R,.041339X.066929*%
%ADD81R,.026772X.019685*%
%AMMACRO47*
4,1,44,-.010433,.004921,
.010433,.004921,
.010843,.004886,
.011241,.004779,
.011614,.004605,
.011951,.004369,
.012243,.004078,
.012479,.003741,
.012653,.003368,
.01276,.00297,
.012795,.00256,
.012795,.002559,
.012795,-.002559,
.01276,-.002969,
.012653,-.003367,
.012479,-.00374,
.012243,-.004077,
.011952,-.004369,
.011615,-.004605,
.011242,-.004779,
.010844,-.004886,
.010434,-.004921,
.010433,-.004921,
-.010433,-.004921,
-.010843,-.004886,
-.011241,-.004779,
-.011614,-.004605,
-.011951,-.004369,
-.012243,-.004078,
-.012479,-.003741,
-.012653,-.003368,
-.01276,-.00297,
-.012795,-.00256,
-.012795,-.002559,
-.012795,.002559,
-.01276,.002969,
-.012653,.003367,
-.012479,.00374,
-.012243,.004077,
-.011952,.004369,
-.011615,.004605,
-.011242,.004779,
-.010844,.004886,
-.010434,.004921,
-.010433,.004921,
0.0*
%
%ADD47MACRO47*%
%AMMACRO77*
4,1,40,.005905,-.018701,
-.005905,-.018701,
-.006247,-.018671,
-.006578,-.018582,
-.006889,-.018437,
-.007171,-.01824,
-.007413,-.017998,
-.00761,-.017717,
-.007755,-.017405,
-.007844,-.017074,
-.007874,-.016732,
-.007874,.016732,
-.007844,.017074,
-.007755,.017405,
-.00761,.017716,
-.007413,.017998,
-.007171,.01824,
-.00689,.018437,
-.006578,.018582,
-.006247,.018671,
-.005905,.018701,
.005905,.018701,
.006247,.018671,
.006578,.018582,
.00689,.018437,
.007171,.01824,
.007413,.017998,
.00761,.017716,
.007755,.017405,
.007844,.017074,
.007874,.016732,
.007874,-.016732,
.007844,-.017074,
.007755,-.017405,
.00761,-.017716,
.007413,-.017998,
.007171,-.01824,
.00689,-.018437,
.006578,-.018582,
.006247,-.018671,
.005905,-.018701,
0.0*
%
%ADD77MACRO77*%
%ADD55R,.015748X.027559*%
%AMMACRO50*
4,1,44,.012401,.027559,
.012401,-.027559,
.012342,-.028243,
.012164,-.028906,
.011874,-.029527,
.01148,-.03009,
.010995,-.030575,
.010433,-.030969,
.009811,-.031259,
.009148,-.031436,
.008465,-.031496,
.008464,-.031496,
-.008464,-.031496,
-.009148,-.031436,
-.009811,-.031259,
-.010433,-.030969,
-.010995,-.030575,
-.01148,-.03009,
-.011874,-.029528,
-.012164,-.028906,
-.012342,-.028243,
-.012401,-.027559,
-.012401,-.027559,
-.012401,.027559,
-.012342,.028243,
-.012164,.028906,
-.011874,.029527,
-.01148,.03009,
-.010995,.030575,
-.010433,.030969,
-.009811,.031259,
-.009148,.031436,
-.008465,.031496,
-.008464,.031496,
.008464,.031496,
.009148,.031436,
.009811,.031259,
.010433,.030969,
.010995,.030575,
.01148,.03009,
.011874,.029528,
.012164,.028906,
.012342,.028243,
.012401,.027559,
.012401,.027559,
0.0*
%
%ADD50MACRO50*%
G75*
%LPD*%
G75*
G36*
G01X-129262Y-4528D02*
X-133561D01*
G03X-130351Y-12279I12387J590D01*
G01X-127311Y-9239D01*
G02X-129262Y-4528I6137J5301D01*
G37*
G36*
G01X-127311Y1365D02*
X-130351Y4405D01*
G03X-133561Y-3346I9177J-8342D01*
G01X-129263D01*
G02X-127311Y1365I8088J-591D01*
G37*
G36*
G01X-126476Y-10074D02*
X-129516Y-13114D01*
G03X-121765Y-16324I8342J9177D01*
G01Y-12026D01*
G02X-126476Y-10074I592J8088D01*
G37*
G36*
G01X-121765Y4151D02*
Y8450D01*
G03X-129516Y5240I590J-12387D01*
G01X-126476Y2200D01*
G02X-121765Y4151I5301J-6137D01*
G37*
G36*
G01D02*
Y8450D01*
G03X-129516Y5240I590J-12387D01*
G01X-126476Y2200D01*
G02X-121765Y4151I5301J-6137D01*
G37*
G36*
G01X-120584Y-12025D02*
Y-16324D01*
G03X-112832Y-13114I-590J12387D01*
G01X-115872Y-10074D01*
G02X-120584Y-12025I-5301J6137D01*
G37*
G36*
G01X-115037Y-9239D02*
X-111997Y-12279D01*
G03X-108787Y-4528I-9177J8342D01*
G01X-113085D01*
G02X-115037Y-9239I-8088J592D01*
G37*
G36*
G01X-113086Y-3346D02*
X-108787D01*
G03X-111997Y4405I-12387J-590D01*
G01X-115037Y1365D01*
G02X-113086Y-3346I-6137J-5301D01*
G37*
G36*
G01X-115872Y2200D02*
X-112832Y5240D01*
G03X-120584Y8450I-8342J-9177D01*
G01Y4152D01*
G02X-115872Y2200I-591J-8088D01*
G37*
G36*
G01X-56390Y-95847D02*
Y-100115D01*
X-52122D01*
Y-95847D01*
X-56390D01*
G37*
G36*
G01Y-90336D02*
Y-94603D01*
X-52122D01*
Y-90336D01*
X-56390D01*
G37*
G36*
G01X-56644Y71723D02*
X-53592D01*
Y74774D01*
X-56644D01*
Y71723D01*
G37*
G36*
G01Y75660D02*
X-53592D01*
Y78711D01*
X-56644D01*
Y75660D01*
G37*
G36*
G01X-50878Y-95847D02*
Y-100115D01*
X-46610D01*
Y-95847D01*
X-50878D01*
G37*
G36*
G01Y-90336D02*
Y-94603D01*
X-46610D01*
Y-90336D01*
X-50878D01*
G37*
G36*
G01X-52707Y71723D02*
X-49656D01*
Y74774D01*
X-52707D01*
Y71723D01*
G37*
G36*
G01Y75660D02*
X-49656D01*
Y78711D01*
X-52707D01*
Y75660D01*
G37*
G36*
G01X-5736Y57117D02*
Y61081D01*
X-9700D01*
Y57117D01*
X-5736D01*
G37*
G36*
G01Y62235D02*
Y66200D01*
X-9700D01*
Y62235D01*
X-5736D01*
G37*
G36*
G01X-617Y57117D02*
Y61081D01*
X-4582D01*
Y57117D01*
X-617D01*
G37*
G36*
G01Y62235D02*
Y66200D01*
X-4582D01*
Y62235D01*
X-617D01*
G37*
G36*
G01X49656Y71723D02*
X52707D01*
Y74774D01*
X49656D01*
Y71723D01*
G37*
G36*
G01Y75660D02*
X52707D01*
Y78711D01*
X49656D01*
Y75660D01*
G37*
G36*
G01X61880Y-106002D02*
X59675D01*
Y-108206D01*
X61880D01*
Y-106002D01*
G37*
G36*
G01Y-108994D02*
X59675D01*
Y-111198D01*
X61880D01*
Y-108994D01*
G37*
G36*
G01X53592Y71723D02*
X56644D01*
Y74774D01*
X53592D01*
Y71723D01*
G37*
G36*
G01Y75660D02*
X56644D01*
Y78711D01*
X53592D01*
Y75660D01*
G37*
G36*
G01X64872Y-106002D02*
X62667D01*
Y-108206D01*
X64872D01*
Y-106002D01*
G37*
G36*
G01Y-108994D02*
X62667D01*
Y-111198D01*
X64872D01*
Y-108994D01*
G37*
G54D100*
X150080Y52480D03*
X159921Y48739D03*
Y56220D03*
G54D101*
X150315Y66142D03*
Y89370D03*
G54D110*
X230888Y40800D03*
Y37060D03*
Y44540D03*
Y57630D03*
Y65110D03*
Y61370D03*
X241912Y37060D03*
Y44540D03*
Y57630D03*
Y65110D03*
G54D102*
X176575Y-143307D03*
X193504D03*
G54D103*
X177165Y-148032D03*
X192913D03*
G54D10*
X-253000Y73617D03*
X-121174Y-35675D03*
X-90551Y-129921D03*
Y129921D03*
X90551Y-129921D03*
Y129921D03*
G54D104*
X180106Y-33465D03*
Y-35433D03*
Y-37402D03*
Y-39370D03*
Y-25590D03*
Y-27559D03*
Y-29528D03*
Y-31496D03*
Y-15748D03*
Y-17716D03*
Y-19685D03*
Y-21654D03*
Y-23622D03*
Y-7874D03*
Y-9842D03*
Y-11811D03*
Y-13780D03*
Y0D03*
Y-1968D03*
Y-3937D03*
Y-5906D03*
Y7874D03*
Y5906D03*
Y3937D03*
Y1968D03*
Y15748D03*
Y13780D03*
Y11811D03*
Y9842D03*
Y25591D03*
Y31496D03*
Y29528D03*
Y27559D03*
X205499Y-32480D03*
Y-34449D03*
Y-36417D03*
Y-38386D03*
Y-40354D03*
Y-24606D03*
Y-26575D03*
Y-28543D03*
Y-30512D03*
Y-16732D03*
Y-18701D03*
Y-20669D03*
Y-22638D03*
Y-8858D03*
Y-10827D03*
Y-12795D03*
Y-14764D03*
Y984D03*
Y-984D03*
Y-2953D03*
Y-4921D03*
Y-6890D03*
Y8858D03*
Y6890D03*
Y4921D03*
Y2953D03*
Y14764D03*
Y12795D03*
Y10827D03*
X205501Y24606D03*
Y32480D03*
Y30512D03*
Y28543D03*
Y26575D03*
G54D11*
X-258300Y97500D03*
X251969Y-72835D03*
G54D20*
X-197147Y-49131D03*
G54D30*
X-169331Y22060D03*
X-163269D03*
X-169331Y29660D03*
X-163269D03*
X-38287Y-141800D03*
X-32224D03*
X-30231Y-104900D03*
X-24169D03*
X-16031Y44037D03*
X-9968D03*
X9727Y85944D03*
X15790D03*
X42565Y-106523D03*
Y-99115D03*
X48627Y-106523D03*
Y-99115D03*
X59242Y-93400D03*
X65304D03*
X198169Y-76103D03*
X204231D03*
X198169Y-68295D03*
X204231D03*
G54D21*
X-195572Y-51100D03*
X-191241Y-53069D03*
Y-49131D03*
G54D12*
X-251968Y127953D03*
X-204724Y-135827D03*
X204725D03*
X251969Y127953D03*
G54D105*
X185039Y-140551D03*
X180020D03*
X190059D03*
G54D13*
X-238099Y-39810D03*
X-240343D03*
X-238099Y-35477D03*
X-240343D03*
X213628Y-31694D03*
X215872D03*
X213628Y-27362D03*
X215872D03*
X213628Y-20000D03*
X215872D03*
X213628Y-15668D03*
X215872D03*
X213628Y-8072D03*
X215872D03*
X213628Y-3740D03*
X215872D03*
X213628Y3739D03*
X215872D03*
X213628Y8072D03*
X215872D03*
G54D22*
X-201561Y-15640D03*
Y-8160D03*
X-190537Y-15640D03*
Y-11900D03*
Y-8160D03*
X45798Y-84728D03*
Y-77248D03*
X56822Y-84728D03*
Y-80988D03*
Y-77248D03*
G54D40*
X-109845Y-83940D03*
Y-86499D03*
Y-89059D03*
X-102168D03*
Y-86501D03*
Y-83940D03*
X-98772Y-83941D03*
Y-86499D03*
Y-89060D03*
X-91094D03*
Y-86501D03*
Y-83941D03*
X-84439Y-51441D03*
Y-53999D03*
Y-56560D03*
X-76762D03*
Y-54001D03*
Y-51441D03*
G54D31*
X-154096Y-88580D03*
X-158427D03*
X-149766D03*
X-141104D03*
X-145435D03*
X-132443D03*
X-136774D03*
X-123782D03*
X-128112D03*
G54D106*
X181496Y-134300D03*
X185039D03*
G54D50*
X-55650Y85552D03*
X-60650D03*
X-50650D03*
X-45650D03*
X45650D03*
X50650D03*
X60650D03*
X55650D03*
G54D14*
X-241527Y-20911D03*
X-244873D03*
X-241527Y-15595D03*
X-244873D03*
X-241527Y-10279D03*
X-244873D03*
X-231927Y-21895D03*
X-235273D03*
X-231927Y-16580D03*
X-235273D03*
X-221273Y11748D03*
Y17064D03*
X-221273Y42535D03*
X-221273Y47851D03*
X-214600Y-41600D03*
X-217927Y11748D03*
Y17064D03*
X-217927Y42535D03*
X-217927Y47851D03*
X-211254Y-41600D03*
X-205734D03*
X-204373Y41804D03*
Y36488D03*
Y47120D03*
Y57751D03*
Y52435D03*
X-202388Y-41600D03*
X-197722Y-21100D03*
X-201027Y41804D03*
Y36488D03*
Y47120D03*
Y57751D03*
Y52435D03*
X-191045Y-62200D03*
X-194391D03*
X-194376Y-21100D03*
X-188973Y66409D03*
X-185627D03*
X-106346Y-114200D03*
X-103000D03*
X-97684D03*
X-94339D03*
X-82939Y-98579D03*
X-79593D03*
X-82939Y-92863D03*
X-79593D03*
X-82939Y-87147D03*
X-79593D03*
X-82939Y-81432D03*
X-79593D03*
X-79827Y-74909D03*
X-83173D03*
X-79827Y-69594D03*
X-83173D03*
Y-62600D03*
X-79827D03*
X-72873Y-110011D03*
Y-104295D03*
Y-98579D03*
Y-92863D03*
Y-87147D03*
Y-81432D03*
X-73545Y93471D03*
X-69527Y-110011D03*
Y-104295D03*
Y-98579D03*
Y-92863D03*
Y-87147D03*
Y-81432D03*
X-70199Y93471D03*
X-59156Y108400D03*
X-55810D03*
X-47143D03*
X-50489D03*
X-29573Y-98136D03*
Y-92420D03*
Y-86704D03*
Y-80988D03*
X-26227Y-98136D03*
Y-92420D03*
Y-86704D03*
Y-80988D03*
X-25948Y44037D03*
X-22602D03*
X-25948Y49352D03*
X-22602D03*
X-25948Y54668D03*
X-22602D03*
X-25948Y68450D03*
X-22602D03*
X-25948Y73766D03*
X-22602D03*
X-25948Y79082D03*
X-22602D03*
X-10531Y87606D03*
X-7185D03*
X9727Y68746D03*
Y63430D03*
Y79179D03*
X13073Y68746D03*
Y63430D03*
Y79179D03*
X32754Y93471D03*
X36100D03*
X46127Y-113085D03*
Y-92554D03*
X49473Y-113085D03*
Y-92554D03*
X53680Y-63800D03*
X50334D03*
X47143Y108400D03*
X50489D03*
X54527Y-69300D03*
X57873D03*
X58721Y-63800D03*
X62066D03*
X59156Y108400D03*
X55810D03*
X69427Y57565D03*
X69427Y52249D03*
Y83036D03*
Y88352D03*
X74723Y-107616D03*
X78069D03*
Y-101900D03*
X74723D03*
X72773Y57565D03*
X72773Y52249D03*
Y83036D03*
Y88352D03*
X97954Y-106400D03*
X101300D03*
Y-71342D03*
X109646Y-106400D03*
X106300D03*
X104646Y-71342D03*
X111027Y-58566D03*
Y-52850D03*
X114373Y-58566D03*
Y-52850D03*
X129373Y48739D03*
X126027D03*
X129373Y54055D03*
X126027D03*
X129373Y69400D03*
X126027D03*
X129373Y84700D03*
X126027D03*
Y78740D03*
X129373D03*
X181694Y-129700D03*
X185039D03*
X186127Y46249D03*
Y51565D03*
Y56880D03*
Y62196D03*
X189473Y46249D03*
Y51565D03*
Y56880D03*
Y62196D03*
X219873Y-53460D03*
X216527D03*
X219873Y-48144D03*
X216527D03*
X232299Y-53352D03*
X235644D03*
X232299Y-48036D03*
X235644D03*
X235644Y-22565D03*
X232299D03*
X235644Y-17249D03*
X232299D03*
X234727Y50000D03*
Y70570D03*
X238073Y50000D03*
Y70570D03*
X253369Y-53352D03*
Y-48036D03*
X253368Y-22565D03*
X256714Y-53352D03*
Y-48036D03*
X256714Y-22565D03*
G54D107*
X185000Y-95000D03*
X208819D03*
G54D23*
X-196360Y-56809D03*
X-194391D03*
X-192423D03*
X-190454D03*
X-196360Y-45392D03*
X-190454D03*
X-192423D03*
X-194391D03*
G54D32*
X-158427Y-77428D03*
Y-80972D03*
X-154096Y-77428D03*
Y-80972D03*
X-149766Y-77428D03*
Y-80972D03*
X-141104Y-77428D03*
Y-80972D03*
X-145435Y-77428D03*
Y-80972D03*
X-132443Y-77428D03*
Y-80972D03*
X-128112Y-77428D03*
Y-80972D03*
X-123782Y-77428D03*
Y-80972D03*
X2227Y-109528D03*
Y-113072D03*
X-3341Y-109528D03*
Y-113072D03*
X19270Y-109228D03*
Y-112772D03*
X23270Y-109228D03*
Y-112772D03*
G54D41*
X-100442Y-74909D03*
Y-51091D03*
G54D33*
X-154100Y-19725D03*
Y-4675D03*
G54D51*
X-56683Y95468D03*
Y101531D03*
X-49616Y95468D03*
Y101531D03*
X-36138Y-117531D03*
Y-111468D03*
X31121Y-84019D03*
Y-77957D03*
X38929Y-84019D03*
Y-77957D03*
X49616Y95468D03*
Y101531D03*
X56683Y95468D03*
Y101531D03*
X63692Y-84019D03*
X71500D03*
X63692Y-77957D03*
X71500D03*
G54D60*
X-17092Y-144782D03*
X16924D03*
G54D108*
X185000Y-72778D03*
Y-56242D03*
G54D42*
X-71460Y-58213D03*
Y-50536D03*
X-68901Y-58213D03*
X-66341D03*
Y-50536D03*
X-68899D03*
G54D24*
X-191749Y59500D03*
Y55760D03*
Y52020D03*
X196751Y-57200D03*
Y-60940D03*
Y-53460D03*
G54D15*
X-223340Y23888D03*
Y34912D03*
X-219600Y23888D03*
X-215860D03*
Y34912D03*
X230231Y-41212D03*
X233972D03*
X237712D03*
Y-30188D03*
X230231D03*
X251301Y-41212D03*
Y-30188D03*
X255041Y-41212D03*
X258782D03*
Y-30188D03*
G54D61*
X-16305Y-126869D03*
X16137D03*
G54D70*
X-11384Y-109656D03*
X10270D03*
G54D16*
X-228800Y31073D03*
Y27727D03*
X-214500Y-34473D03*
Y-31127D03*
Y-10227D03*
Y-13573D03*
X-208784Y-34473D03*
Y-31127D03*
X-209184Y-10227D03*
Y-13573D03*
X-197353Y-34473D03*
X-203068D03*
X-197353Y-31127D03*
X-203068D03*
X-191637Y-34473D03*
Y-31127D03*
X-180205Y-34473D03*
X-185921D03*
X-180205Y-31127D03*
X-185921D03*
X-183713Y-13573D03*
Y-10227D03*
X-174932Y-77527D03*
Y-80873D03*
X-174490Y-34473D03*
Y-31127D03*
X-178397Y-13573D03*
Y-10227D03*
X-169616Y-77527D03*
Y-80873D03*
X-164300Y-77527D03*
Y-80873D03*
X-168774Y-34473D03*
Y-31127D03*
X-113000Y-100446D03*
Y-97100D03*
X-97684Y-108873D03*
X-103000D03*
X-97684Y-105527D03*
X-103000D03*
X-69500Y-75373D03*
X-63784D03*
X-69500Y-72027D03*
X-63784D03*
X-63781Y43261D03*
Y46607D03*
Y52127D03*
Y55473D03*
X-56428Y-113673D03*
Y-110327D03*
X-58068Y-75373D03*
Y-72027D03*
X-58465Y43261D03*
Y46607D03*
Y52127D03*
Y55473D03*
X-50713Y-113673D03*
Y-110327D03*
X-52353Y-75373D03*
X-46637D03*
X-52353Y-72027D03*
X-46637D03*
X-53150Y52127D03*
Y55473D03*
X-47834Y52127D03*
Y55473D03*
X-40921Y-75373D03*
Y-72027D03*
X-42518Y52127D03*
Y55473D03*
X-35205Y-75373D03*
X-29489D03*
X-35205Y-72027D03*
X-29489D03*
X-33332Y59886D03*
Y63232D03*
X-23774Y-75373D03*
Y-72027D03*
X-22700Y59886D03*
X-28016D03*
X-22700Y63232D03*
X-28016D03*
X-20788Y93727D03*
Y97072D03*
X-20400Y-84334D03*
Y-80988D03*
X-15073Y97072D03*
Y93727D03*
X-10474Y75834D03*
Y79180D03*
X-3387Y43261D03*
Y46607D03*
Y75834D03*
Y79179D03*
X43100Y-60873D03*
Y-57527D03*
X42518Y43261D03*
Y46607D03*
Y52127D03*
Y55473D03*
X47834Y43261D03*
Y46607D03*
X53150Y52127D03*
Y55473D03*
X47834Y52127D03*
Y55473D03*
X58465Y52127D03*
Y55473D03*
X63781Y52127D03*
Y55473D03*
X86516Y-67432D03*
X80400Y-67432D03*
X86516Y-64087D03*
Y-58566D03*
X80400Y-64087D03*
Y-58566D03*
X86516Y-55220D03*
X80400Y-55221D03*
X80300Y69027D03*
Y72373D03*
X91200Y-109673D03*
Y-106327D03*
X112700Y-90673D03*
Y-87327D03*
X134739Y-84127D03*
Y-87473D03*
X137484Y119127D03*
Y122473D03*
X132168Y119127D03*
Y122473D03*
X140454Y-87473D03*
Y-84127D03*
X146170D03*
Y-87473D03*
X142800Y119127D03*
Y122473D03*
X151886Y-84127D03*
Y-87473D03*
X148116Y119127D03*
Y122473D03*
X157602Y-84127D03*
Y-87473D03*
X163479Y-84127D03*
Y-87473D03*
X167100Y50807D03*
Y54152D03*
X185039Y-123773D03*
X179724D03*
X185039Y-120427D03*
X179724D03*
X190355Y-123773D03*
Y-120427D03*
X218748Y42473D03*
Y39127D03*
Y59697D03*
Y63042D03*
X215400Y119127D03*
Y122473D03*
X224772Y-34027D03*
Y-37373D03*
X224064Y42473D03*
Y39127D03*
Y59697D03*
Y63042D03*
X245841Y-34027D03*
Y-37373D03*
X249535Y39127D03*
Y42473D03*
Y59697D03*
Y63043D03*
X254851Y39127D03*
Y42473D03*
Y59697D03*
Y63042D03*
G54D43*
X-71460Y-54001D03*
G54D52*
X-55610Y117626D03*
X-50689D03*
X50689D03*
X55610D03*
G54D25*
X-180081Y-130312D03*
X-119057D03*
G54D34*
Y-92517D03*
G54D109*
X204613Y-44685D03*
Y36811D03*
G54D80*
X32736Y-106227D03*
Y-94495D03*
G54D26*
X-182851Y52020D03*
Y55760D03*
Y59500D03*
X205649Y-60940D03*
Y-57200D03*
Y-53460D03*
G54D53*
X-47468Y-142875D03*
X-43531D03*
X-6890Y98155D03*
X-10827D03*
G54D44*
X-67621Y-54376D03*
G54D35*
X-105544Y-139900D03*
G54D17*
X-214600Y-74909D03*
Y-51091D03*
G54D71*
X-10474Y54127D03*
X-8702D03*
X-6930D03*
X-5159D03*
X-3387D03*
X-1615D03*
X156D03*
G54D62*
X-15321Y-112944D03*
X-13352D03*
X-9415D03*
X-7447D03*
X6333D03*
X8301D03*
X12238D03*
X14207D03*
G54D81*
X38078Y-60339D03*
Y-57779D03*
Y-55221D03*
Y-52661D03*
G54D90*
X98880Y-114800D03*
X108919D03*
G54D54*
X-38642Y-148189D03*
X-32224D03*
G54D36*
X-111056Y-139900D03*
G54D72*
X-5159Y69190D03*
X-6930D03*
X-8702D03*
X-10474D03*
X156D03*
X-1615D03*
X-3387D03*
G54D45*
X-65650Y128453D03*
X-40650D03*
X40650D03*
X65650D03*
G54D27*
X-176537Y-92517D03*
G54D63*
X-13352Y-109656D03*
X-15321D03*
X-7447D03*
X-9415D03*
X8301D03*
X6333D03*
X14207D03*
X12238D03*
G54D18*
X-204900Y-96004D03*
Y-88996D03*
X-195204Y-96004D03*
Y-88996D03*
X-181400Y-56139D03*
Y-49131D03*
X-172462Y-56139D03*
Y-49131D03*
X-163524Y-56139D03*
Y-49131D03*
X-154587Y-56139D03*
Y-49131D03*
X-71889Y-132166D03*
Y-125158D03*
X-62951Y-132166D03*
Y-125158D03*
X-54013Y-132166D03*
Y-125158D03*
X-55700Y-60004D03*
Y-52996D03*
X-45076Y-132166D03*
Y-125158D03*
X-46762Y-60004D03*
Y-52996D03*
X-36138Y-132166D03*
Y-125158D03*
X-37824Y-60004D03*
Y-52996D03*
X-28887Y-60004D03*
Y-52996D03*
X-27200Y-132166D03*
Y-125158D03*
X-19949Y-60004D03*
Y-52996D03*
X-11011Y-60004D03*
Y-52996D03*
X71500Y-62228D03*
Y-55221D03*
X127124Y-58424D03*
Y-51417D03*
X136062Y-58424D03*
Y-51417D03*
X145000Y-58424D03*
Y-51417D03*
G54D55*
X-45500Y-148189D03*
X-8859Y92841D03*
G54D46*
X-57012Y-102804D03*
X-55437D03*
X-53862D03*
X-52287D03*
X-50713D03*
X-49138D03*
X-47563D03*
X-45988D03*
G54D28*
X-173825Y40060D03*
X-158775D03*
G54D37*
X-106008Y-97100D03*
X-94276D03*
X-83171Y54685D03*
Y65321D03*
Y75957D03*
X-71439Y54685D03*
Y65321D03*
Y75957D03*
X23128Y54685D03*
Y65321D03*
Y75957D03*
X34860Y54685D03*
Y65321D03*
Y75957D03*
X50334Y-55221D03*
X62066D03*
G54D64*
X-17882Y-96082D03*
Y-98326D03*
X-13550Y-96082D03*
Y-98326D03*
X-9218D03*
Y-96082D03*
X-4885Y-98326D03*
Y-96082D03*
X-2741Y-105244D03*
Y-103000D03*
X1627Y-105244D03*
Y-103000D03*
X3772Y-96082D03*
Y-98326D03*
X8104Y-96082D03*
Y-98326D03*
X16768D03*
Y-96082D03*
X12436Y-98326D03*
Y-96082D03*
X161519Y119678D03*
Y121922D03*
X156759Y119678D03*
Y121922D03*
G54D73*
X2373Y56343D03*
Y58115D03*
Y59886D03*
Y61658D03*
Y63430D03*
Y65202D03*
Y66973D03*
G54D82*
X57549Y-107616D03*
Y-109584D03*
Y-111553D03*
Y-105647D03*
G54D91*
X98800Y-59550D03*
G54D19*
X-195204Y-80138D03*
Y-70400D03*
X-188196Y-80138D03*
Y-70400D03*
X-190804Y29660D03*
Y40060D03*
X-183796Y29660D03*
Y40060D03*
X-78506Y85944D03*
X-71498D03*
X27793D03*
X34801D03*
G54D47*
X-59079Y-99162D03*
Y-100737D03*
Y-91288D03*
Y-92863D03*
Y-94438D03*
Y-96013D03*
Y-97588D03*
Y-89714D03*
G54D38*
X-106008Y-87779D03*
X-94931Y-85221D03*
X-80599Y-52721D03*
G54D92*
X118872Y-146724D03*
Y-99480D03*
X170054Y-146724D03*
Y-99480D03*
G54D74*
X7800Y-73958D03*
Y-56242D03*
X163479Y-73958D03*
Y-56242D03*
G54D56*
X-43921Y-100737D03*
Y-99162D03*
Y-97588D03*
Y-96013D03*
Y-94438D03*
Y-92863D03*
Y-91288D03*
Y-89714D03*
G54D65*
X-12690Y58115D03*
Y56343D03*
Y66973D03*
Y65202D03*
Y63430D03*
Y61658D03*
Y59886D03*
G54D83*
X60305Y-113324D03*
X62273D03*
X64242D03*
G54D29*
X-171418Y55760D03*
X-161182D03*
G54D75*
X27362Y-146211D03*
X29724D03*
X32087D03*
X34449D03*
X36811D03*
X39173D03*
X41535D03*
X43898D03*
X46260D03*
X48622D03*
X50984D03*
X53346D03*
X55709D03*
X58071D03*
X60433D03*
X62795D03*
X65157D03*
X67520D03*
X69882D03*
G54D66*
X-14764Y108813D03*
X-16732D03*
X-4921D03*
X-6890D03*
X-8858D03*
X-10827D03*
X-12795D03*
X2953D03*
X984D03*
X-984D03*
X-2953D03*
X10827D03*
X8858D03*
X6890D03*
X4921D03*
X16732D03*
X14764D03*
X12795D03*
G54D39*
X-105633Y-83940D03*
X-95307Y-89060D03*
X-80974Y-56560D03*
G54D84*
X60305Y-103876D03*
X64242D03*
X62273D03*
G54D57*
X-27200Y-114500D03*
G54D48*
X-55437Y-87647D03*
X-57012D03*
X-47563D03*
X-49138D03*
X-50713D03*
X-52287D03*
X-53862D03*
X-45988D03*
G54D93*
X126461Y-71342D03*
X221737D03*
G54D58*
X-29759Y-118339D03*
Y-110661D03*
X-27200Y-118339D03*
X-24641D03*
Y-110661D03*
X-27200D03*
G54D76*
X26181Y-134892D03*
X28543D03*
X30906D03*
X33268D03*
X35630D03*
X37992D03*
X40354D03*
X42716D03*
X45079D03*
X47441D03*
X49803D03*
X52165D03*
X54527D03*
X56890D03*
X59252D03*
X61614D03*
X63976D03*
X66338D03*
X68701D03*
X71063D03*
G54D94*
X121036Y60354D03*
X134363D03*
G54D67*
X-6462Y-129526D03*
X-8431D03*
X-10399D03*
X3380D03*
X1412D03*
X-557D03*
X-2525D03*
X-4494D03*
X5349D03*
X11254D03*
X9286D03*
X7317D03*
G54D85*
X66998Y-111553D03*
Y-109584D03*
Y-107616D03*
Y-105647D03*
G54D49*
X-60650Y64883D03*
X-55650D03*
X-50650D03*
X-45650D03*
X45650D03*
X50650D03*
X55650D03*
X60650D03*
G54D77*
X23425Y-135974D03*
X73819D03*
G54D86*
X67360Y65188D03*
X71100Y76212D03*
X67360D03*
X74840Y65188D03*
Y76212D03*
G54D95*
X134739Y-94188D03*
X138479D03*
G54D68*
X-5478Y-124210D03*
X-11384D03*
X-9415D03*
X-7447D03*
X-3510D03*
X-1541D03*
X427D03*
X2396D03*
X4364D03*
X6333D03*
X8301D03*
X10270D03*
G54D59*
X-23425Y119365D03*
X23425D03*
G54D96*
X136741Y48739D03*
X173241Y52480D03*
G54D69*
X-11384Y-112944D03*
X10270D03*
G54D87*
X91300Y-98980D03*
X96300D03*
X101300D03*
X106300D03*
G54D78*
X30775Y-56500D03*
G54D79*
X26247Y-57779D03*
Y-60339D03*
Y-52661D03*
Y-55221D03*
G54D88*
X91300Y-79020D03*
X101300D03*
X96300D03*
X106300D03*
G54D97*
X143479Y-94188D03*
X148479D03*
X153479D03*
X158479D03*
X163479D03*
G54D89*
X92894Y-58566D03*
Y-60535D03*
Y-62503D03*
Y-56598D03*
X104706Y-62503D03*
Y-60535D03*
Y-58566D03*
Y-56598D03*
G54D98*
X142055Y46770D03*
Y50707D03*
X178555Y50511D03*
Y54448D03*
G54D99*
X139764Y72835D03*
Y74803D03*
Y76772D03*
Y78740D03*
Y80709D03*
Y82677D03*
M02*
