G04 ================== begin FILE IDENTIFICATION RECORD ==================*
G04 Layout Name:  main_board.brd*
G04 Film Name:    12-SILK_BOT*
G04 File Format:  Gerber RS274X*
G04 File Origin:  Cadence Allegro 17.4-S035*
G04 Origin Date:  Thu Oct 16 18:34:05 2025*
G04 *
G04 Layer:  PACKAGE GEOMETRY/SILKSCREEN_BOTTOM*
G04 Layer:  BOARD GEOMETRY/SILKSCREEN_BOTTOM*
G04 *
G04 Offset:    (0.000 0.000)*
G04 Mirror:    No*
G04 Mode:      Positive*
G04 Rotation:  0*
G04 FullContactRelief:  No*
G04 UndefLineWidth:     0.000*
G04 ================== end FILE IDENTIFICATION RECORD ====================*
%FSLAX25Y25*MOIN*%
%IR0*IPPOS*OFA0.00000B0.00000*MIA0B0*SFA1.00000B1.00000*%
%ADD10C,.006*%
%ADD11C,.008*%
%ADD12C,.005906*%
%ADD13C,.00598*%
%ADD14C,.00787*%
%ADD15C,.009843*%
%ADD16C,.01*%
G75*
%LPD*%
G75*
G36*
G01X-212211Y23888D02*
G03I-893J0D01*
G37*
G36*
G01X-189644Y-5404D02*
G03I-893J0D01*
G37*
G36*
G01X-110713Y-91200D02*
G03I-394J0D01*
G37*
G36*
G01X-89439Y-81800D02*
G03I-394J0D01*
G37*
G36*
G01X-75106Y-49300D02*
G03I-394J0D01*
G37*
G36*
G01X-63806Y-59475D02*
G03I-394J0D01*
G37*
G36*
G01X-57010Y112216D02*
X-54210D01*
X-55610Y113616D01*
X-57010Y112216D01*
G37*
G36*
G01X-41033Y-149689D02*
Y-146689D01*
X-41733Y-147389D01*
Y-148989D01*
X-41033Y-149689D01*
G37*
G36*
G01X-37795Y-151575D02*
X-33071D01*
X-32896Y-150489D01*
X-37970D01*
X-37795Y-151575D01*
G37*
G36*
G01X-30800Y-109200D02*
G03I-500J0D01*
G37*
G36*
G01X-18132Y104067D02*
X-15332D01*
X-16732Y105467D01*
X-18132Y104067D01*
G37*
G36*
G01X40587Y-50400D02*
G03I-787J0D01*
G37*
G36*
G01X49289Y112216D02*
X52089D01*
X50689Y113616D01*
X49289Y112216D01*
G37*
G36*
G01X57715Y-74492D02*
G03I-893J0D01*
G37*
G36*
G01X71063Y-132677D02*
X72863Y-130877D01*
X69263D01*
X71063Y-132677D01*
G37*
G36*
G01X65497Y76212D02*
G03I-893J0D01*
G37*
G36*
G01X91187Y-63850D02*
G03I-787J0D01*
G37*
G36*
G01X135017Y84077D02*
Y81277D01*
X136417Y82677D01*
X135017Y84077D01*
G37*
G36*
G01X181102Y-151575D02*
Y-148228D01*
X188976D01*
Y-151575D01*
X181102D01*
G37*
G36*
G01X231781Y34304D02*
G03I-893J0D01*
G37*
G36*
G01X231782Y54874D02*
G03I-893J0D01*
G37*
G36*
G01X241361Y-41212D02*
G03I-893J0D01*
G37*
G36*
G01X262431D02*
G03I-893J0D01*
G37*
G36*
G01X-160212Y-5310D02*
Y-3510D01*
X-159377D01*
Y-5310D01*
X-160212D01*
G37*
G36*
G01X-159410Y34783D02*
X-157610D01*
Y33948D01*
X-159410D01*
Y34783D01*
G37*
G36*
G01Y46172D02*
X-157610D01*
Y45337D01*
X-159410D01*
Y46172D01*
G37*
G36*
G01X-148823Y-5310D02*
Y-3510D01*
X-147988D01*
Y-5310D01*
X-148823D01*
G37*
G36*
G01X121264Y57806D02*
X122464D01*
Y56645D01*
X121264D01*
Y57806D01*
G37*
G36*
G01Y64064D02*
X122464D01*
Y62903D01*
X121264D01*
Y64064D01*
G37*
G54D10*
G01X-197934Y-52399D02*
Y-57596D01*
G01Y-47929D02*
Y-44604D01*
G01X-188878Y-57596D02*
X-189404D01*
G01X-188878Y-44604D02*
X-189404D01*
G01X-173490Y34583D02*
Y34248D01*
G01D02*
X-159110D01*
G01X-173490Y45872D02*
Y45537D01*
G01Y45872D02*
X-159110D01*
G01X-159912Y-19390D02*
X-159577D01*
G01X-159912D02*
Y-5010D01*
G01Y-8640D02*
X-148288D01*
G01X-162740Y45872D02*
Y34248D01*
G01X-148623Y-19390D02*
X-148288D01*
G01D02*
Y-5010D01*
G01X-65079Y122047D02*
X-61811D01*
G01X-65079D02*
X-65914Y122883D01*
G01X-69390Y133874D02*
X-61811D01*
G01Y120079D02*
X-57874D01*
G01X-61811D02*
Y122047D01*
G01X-44489Y133874D02*
Y137705D01*
X-61811D01*
Y133874D01*
X-44489D01*
G01X-48426Y120079D02*
X-44489D01*
G01D02*
Y122047D01*
G01D02*
X-41220D01*
G01D02*
X-40385Y122883D01*
G01X-44489Y133874D02*
X-36909D01*
G01X44489Y120079D02*
X48426D01*
G01X44489D02*
Y122047D01*
G01X41220D02*
X44489D01*
G01X41220D02*
X40385Y122883D01*
G01X36909Y133874D02*
X44489D01*
G01X61811D02*
Y137705D01*
X44489D01*
Y133874D01*
X61811D01*
G01X57874Y120079D02*
X61811D01*
G01D02*
Y122047D01*
G01D02*
X65079D01*
G01D02*
X65914Y122883D01*
G01X61811Y133874D02*
X69390D01*
G01X95913Y-110554D02*
Y-119047D01*
G01D02*
X111886D01*
G01X95913Y-110554D02*
X111886D01*
G01D02*
Y-119047D01*
G01X122164Y56945D02*
X133236D01*
G01X123569Y63764D02*
Y56945D01*
G01X122164Y63764D02*
X133236D01*
G01Y57606D02*
Y56945D01*
G01Y63764D02*
Y63103D01*
G54D11*
G01X-140367Y118600D02*
Y124600D01*
X-142100Y119600D01*
X-143833Y124600D01*
Y118600D01*
G01X-147900D02*
Y122600D01*
G01Y121900D02*
X-147633Y122300D01*
X-147233Y122500D01*
X-146767Y122600D01*
X-146300Y122400D01*
X-145900Y122000D01*
X-145633Y121400D01*
X-145500Y120600D01*
X-145633Y119800D01*
X-145900Y119200D01*
X-146300Y118800D01*
X-146767Y118600D01*
X-147233Y118700D01*
X-147633Y119000D01*
X-147900Y119400D01*
G01X-151300Y122600D02*
Y118600D01*
G01Y124200D02*
X-151167Y124300D01*
Y124500D01*
X-151300Y124600D01*
X-151433Y124500D01*
Y124300D01*
X-151300Y124200D01*
G01X-154767Y118600D02*
Y122600D01*
G01Y121600D02*
X-155033Y122100D01*
X-155433Y122500D01*
X-155967Y122600D01*
X-156433Y122500D01*
X-156833Y122100D01*
X-157033Y121400D01*
Y118600D01*
G01X-161033Y121800D02*
X-161300Y122100D01*
X-161500Y122600D01*
X-161633Y123300D01*
X-161500Y123900D01*
X-161233Y124300D01*
X-160767Y124600D01*
X-158967D01*
Y118600D01*
X-161167D01*
X-161633Y119000D01*
X-161900Y119600D01*
X-162033Y120300D01*
X-161900Y121000D01*
X-161500Y121600D01*
X-161033Y121800D01*
X-158967D01*
G01X-165100Y118600D02*
X-164700Y118700D01*
X-164300Y119100D01*
X-164033Y119800D01*
X-163900Y120600D01*
X-164033Y121400D01*
X-164300Y122100D01*
X-164700Y122500D01*
X-165100Y122600D01*
X-165500Y122500D01*
X-165900Y122100D01*
X-166167Y121400D01*
X-166233Y120600D01*
X-166167Y119800D01*
X-165900Y119100D01*
X-165500Y118700D01*
X-165100Y118600D01*
G01X-170900D02*
Y122600D01*
G01Y121900D02*
X-170633Y122300D01*
X-170233Y122500D01*
X-169767Y122600D01*
X-169300Y122400D01*
X-168900Y122000D01*
X-168633Y121400D01*
X-168500Y120600D01*
X-168633Y119800D01*
X-168900Y119200D01*
X-169300Y118800D01*
X-169767Y118600D01*
X-170233Y118700D01*
X-170633Y119000D01*
X-170900Y119400D01*
G01X-173367Y118600D02*
Y122600D01*
G01Y121800D02*
X-173700Y122200D01*
X-174033Y122500D01*
X-174500Y122600D01*
X-174833Y122500D01*
X-175233Y122200D01*
G01X-180100Y124600D02*
Y118600D01*
G01Y119500D02*
X-179833Y119000D01*
X-179433Y118700D01*
X-178967Y118600D01*
X-178433Y118800D01*
X-178033Y119300D01*
X-177767Y119900D01*
X-177700Y120600D01*
X-177767Y121300D01*
X-178033Y121900D01*
X-178433Y122400D01*
X-178967Y122600D01*
X-179433Y122500D01*
X-179767Y122300D01*
X-180100Y121900D01*
G01X-186433Y124600D02*
X-188100Y118600D01*
X-189767Y124600D01*
G01X-192700Y118600D02*
Y124600D01*
X-191900Y123400D01*
G01Y118600D02*
X-193500D01*
G01X-196100Y116600D02*
Y122600D01*
G01Y121700D02*
X-196433Y122200D01*
X-196767Y122500D01*
X-197300Y122600D01*
X-197767Y122500D01*
X-198233Y122000D01*
X-198433Y121300D01*
X-198500Y120600D01*
X-198433Y119900D01*
X-198233Y119200D01*
X-197833Y118800D01*
X-197300Y118600D01*
X-196833Y118700D01*
X-196367Y119000D01*
X-196100Y119400D01*
G01X-201900Y124600D02*
X-201367Y124400D01*
X-200967Y123900D01*
X-200700Y123300D01*
X-200500Y122500D01*
X-200433Y121600D01*
X-200500Y120700D01*
X-200700Y119900D01*
X-200967Y119300D01*
X-201367Y118800D01*
X-201900Y118600D01*
X-202433Y118800D01*
X-202833Y119300D01*
X-203100Y119900D01*
X-203300Y120700D01*
X-203367Y121600D01*
X-203300Y122500D01*
X-203100Y123300D01*
X-202833Y123900D01*
X-202433Y124400D01*
X-201900Y124600D01*
G01X-140833Y113200D02*
X-141233Y113800D01*
X-141700Y114100D01*
X-142233Y114200D01*
X-142900Y114000D01*
X-143367Y113500D01*
X-143500Y112900D01*
X-143433Y112300D01*
X-143167Y111800D01*
X-141833Y110800D01*
X-141233Y110100D01*
X-140833Y109100D01*
X-140700Y108200D01*
X-143500D01*
G01X-146700Y114200D02*
X-146167Y114000D01*
X-145767Y113500D01*
X-145500Y112900D01*
X-145300Y112100D01*
X-145233Y111200D01*
X-145300Y110300D01*
X-145500Y109500D01*
X-145767Y108900D01*
X-146167Y108400D01*
X-146700Y108200D01*
X-147233Y108400D01*
X-147633Y108900D01*
X-147900Y109500D01*
X-148100Y110300D01*
X-148167Y111200D01*
X-148100Y112100D01*
X-147900Y112900D01*
X-147633Y113500D01*
X-147233Y114000D01*
X-146700Y114200D01*
G01X-150033Y113200D02*
X-150433Y113800D01*
X-150900Y114100D01*
X-151433Y114200D01*
X-152100Y114000D01*
X-152567Y113500D01*
X-152700Y112900D01*
X-152633Y112300D01*
X-152367Y111800D01*
X-151033Y110800D01*
X-150433Y110100D01*
X-150033Y109100D01*
X-149900Y108200D01*
X-152700D01*
G01X-154433Y109100D02*
X-154833Y108600D01*
X-155300Y108300D01*
X-155900Y108200D01*
X-156500Y108400D01*
X-156967Y108800D01*
X-157300Y109500D01*
X-157367Y110300D01*
X-157233Y111100D01*
X-156900Y111600D01*
X-156433Y112000D01*
X-155967Y112100D01*
X-155500Y112000D01*
X-154900Y111600D01*
X-155100Y114200D01*
X-156900D01*
G01X-160500D02*
X-159967Y114000D01*
X-159567Y113500D01*
X-159300Y112900D01*
X-159100Y112100D01*
X-159033Y111200D01*
X-159100Y110300D01*
X-159300Y109500D01*
X-159567Y108900D01*
X-159967Y108400D01*
X-160500Y108200D01*
X-161033Y108400D01*
X-161433Y108900D01*
X-161700Y109500D01*
X-161900Y110300D01*
X-161967Y111200D01*
X-161900Y112100D01*
X-161700Y112900D01*
X-161433Y113500D01*
X-161033Y114000D01*
X-160500Y114200D01*
G01X-163967Y108900D02*
X-164433Y108400D01*
X-164967Y108200D01*
X-165500Y108400D01*
X-165967Y109000D01*
X-166300Y109900D01*
X-166433Y110800D01*
Y111900D01*
X-166300Y112800D01*
X-165967Y113600D01*
X-165567Y114000D01*
X-165100Y114200D01*
X-164567Y114000D01*
X-164167Y113600D01*
X-163900Y113000D01*
X-163767Y112200D01*
X-163900Y111500D01*
X-164233Y110800D01*
X-164633Y110400D01*
X-165100Y110300D01*
X-165633Y110500D01*
X-166033Y111000D01*
X-166433Y111900D01*
G01X-168433Y113200D02*
X-168833Y113800D01*
X-169300Y114100D01*
X-169833Y114200D01*
X-170500Y114000D01*
X-170967Y113500D01*
X-171100Y112900D01*
X-171033Y112300D01*
X-170767Y111800D01*
X-169433Y110800D01*
X-168833Y110100D01*
X-168433Y109100D01*
X-168300Y108200D01*
X-171100D01*
G01X-172833Y109100D02*
X-173233Y108600D01*
X-173700Y108300D01*
X-174300Y108200D01*
X-174900Y108400D01*
X-175367Y108800D01*
X-175700Y109500D01*
X-175767Y110300D01*
X-175633Y111100D01*
X-175300Y111600D01*
X-174833Y112000D01*
X-174367Y112100D01*
X-173900Y112000D01*
X-173300Y111600D01*
X-173500Y114200D01*
X-175300D01*
G01X-48256Y-147205D02*
X-47468D01*
G01X-48256D02*
Y-145237D01*
G01X-43532Y-147205D02*
X-42744D01*
G01D02*
Y-145237D01*
G01X-11615Y93825D02*
X-10827D01*
G01X-11615D02*
Y95793D01*
G01X-6891Y93825D02*
X-6103D01*
G01D02*
Y95793D01*
G01X137725Y51495D02*
Y50707D01*
G01Y46771D02*
Y45983D01*
G01D02*
X139693D01*
G01X137725Y51495D02*
X139693D01*
G01X174225Y50511D02*
Y49724D01*
G01D02*
X176193D01*
G01X174225Y55235D02*
Y54448D01*
G01Y55235D02*
X176193D01*
G54D12*
G01X-191040Y49461D02*
X-183560D01*
G01Y62059D02*
X-191040D01*
G01X-59866Y-102115D02*
Y-103591D01*
X-58390D01*
G01X-59866Y-88336D02*
Y-86859D01*
X-58390D01*
G01X-63189Y67146D02*
Y83288D01*
G01X-43134Y-102115D02*
Y-103591D01*
X-44610D01*
G01X-43134Y-88336D02*
Y-86859D01*
X-44610D01*
G01X-43110Y67146D02*
Y83288D01*
G01X-16797Y-108839D02*
Y-113761D01*
G01X-5970Y-108839D02*
Y-113761D01*
G01X-13478Y54906D02*
Y53339D01*
X-11911D01*
G01X-13478Y68410D02*
Y69977D01*
X-11911D01*
G01X3160Y54906D02*
Y53339D01*
X1593D01*
G01X3160Y68410D02*
Y69977D01*
X1593D01*
G01X4856Y-108839D02*
Y-113761D01*
G01X15683Y-108839D02*
Y-113761D01*
G01X43110Y67146D02*
Y83288D01*
G01X58828Y-113915D02*
X56958D01*
Y-113029D01*
G01X58828Y-103285D02*
X56958D01*
Y-104171D01*
G01X65718Y-113915D02*
X67588D01*
Y-113029D01*
G01X65718Y-103285D02*
X67588D01*
Y-104171D01*
G01X63189Y67146D02*
Y83288D01*
G01X88662Y-97563D02*
Y-80437D01*
G01X108938Y-97563D02*
Y-80437D01*
G01X197460Y-63499D02*
X204940D01*
G01Y-50901D02*
X197460D01*
G54D13*
G01X-197934Y-57596D02*
X-197561D01*
G01X-197934Y-44604D02*
X-197561D01*
G01X-188878Y-51769D02*
Y-50430D01*
G01Y-54368D02*
Y-57596D01*
G01Y-47831D02*
Y-44604D01*
G01X-31436Y-110563D02*
Y-118437D01*
G01X-22963Y-110563D02*
Y-118437D01*
G54D14*
G01X-247039Y-23175D02*
X-244381D01*
G01X-247039Y-18647D02*
Y-23175D01*
G01Y-18647D02*
X-244381D01*
G01X-247039Y-17859D02*
X-244381D01*
G01X-247039Y-13331D02*
Y-17859D01*
G01Y-12544D02*
X-244381D01*
G01X-247039Y-8015D02*
Y-12544D01*
G01Y-8015D02*
X-244381D01*
G01X-247039Y-13331D02*
X-244381D01*
G01X-241170Y-41582D02*
X-240127D01*
G01X-241170D02*
G02X-242036Y-40715I0J866D01*
G01X-241170Y-38037D02*
X-240127D01*
G01X-242036Y-38904D02*
Y-40715D01*
G01Y-38904D02*
G02X-241170Y-38037I866J0D01*
G01X-241170Y-33705D02*
X-240126D01*
G01X-242036Y-34571D02*
Y-36383D01*
G01X-241170Y-37249D02*
X-240126D01*
G01X-242036Y-34571D02*
G02X-241170Y-33705I866J0D01*
G01Y-37249D02*
G02X-242036Y-36383I0J866D01*
G01X-242019Y-23175D02*
X-239361D01*
G01Y-18647D02*
Y-23175D01*
G01X-242019Y-18647D02*
X-239361D01*
G01X-242019Y-17859D02*
X-239361D01*
G01Y-13331D02*
Y-17859D01*
G01X-242019Y-12544D02*
X-239361D01*
G01Y-8015D02*
Y-12544D01*
G01X-242019Y-8015D02*
X-239361D01*
G01X-242019Y-13331D02*
X-239361D01*
G01X-238316Y-41582D02*
X-237273D01*
G01X-236406Y-40715D02*
G02X-237273Y-41582I-866J0D01*
G01X-236406Y-38904D02*
Y-40715D01*
G01X-238316Y-38037D02*
X-237273D01*
G01D02*
G02X-236406Y-38904I0J-866D01*
G01X-238316Y-37249D02*
X-237273D01*
G01X-236406Y-34571D02*
Y-36383D01*
G01X-238316Y-33705D02*
X-237273D01*
G01X-236406Y-36383D02*
G02X-237273Y-37249I-866J0D01*
G01Y-33705D02*
G02X-236406Y-34571I0J-866D01*
G01X-232419Y-24160D02*
X-229761D01*
G01X-232419Y-19631D02*
X-229761D01*
G01X-237439Y-24160D02*
X-234781D01*
G01X-237439Y-19631D02*
Y-24160D01*
G01Y-19631D02*
X-234781D01*
G01X-232419Y-18844D02*
X-229761D01*
G01X-237439D02*
X-234781D01*
G01X-237439Y-14315D02*
Y-18844D01*
G01X-232419Y-14315D02*
X-229761D01*
G01X-237439D02*
X-234781D01*
G01X-231064Y25561D02*
X-226536D01*
G01X-231064D02*
Y28219D01*
G01Y33239D02*
X-226536D01*
G01X-231064Y30581D02*
Y33239D01*
G01X-229761Y-19631D02*
Y-24160D01*
G01Y-14315D02*
Y-18844D01*
G01X-220781Y14012D02*
X-222572D01*
G01X-223439Y10350D02*
Y13146D01*
G01X-220781Y9484D02*
X-222572D01*
G01X-223439Y13146D02*
G02X-222572Y14012I866J0D01*
G01Y9484D02*
G02X-223439Y10350I-1J866D01*
G01X-223439Y15666D02*
Y18462D01*
G01X-220781Y14800D02*
X-222572D01*
G01D02*
G02X-223439Y15666I-1J866D01*
G01X-220781Y19328D02*
X-222572D01*
G01X-223439Y18462D02*
G02X-222572Y19328I866J0D01*
G01X-226536Y25561D02*
Y28219D01*
G01Y30581D02*
Y33239D01*
G01X-223439Y43933D02*
Y41137D01*
G01X-222572Y40271D02*
X-220781D01*
G01X-222572D02*
G02X-223439Y41137I-1J866D01*
G01X-222572Y44799D02*
X-220781D01*
G01X-223439Y43933D02*
G02X-222572Y44799I866J0D01*
G01X-223439Y45587D02*
X-220781D01*
G01X-223439Y50115D02*
Y45587D01*
G01Y50115D02*
X-220781D01*
G01X-216766Y-42998D02*
Y-40202D01*
G01X-214108Y-43864D02*
X-215899D01*
G01D02*
G02X-216766Y-42998I-1J866D01*
G01X-214108Y-39336D02*
X-215899D01*
G01X-216766Y-40202D02*
G02X-215899Y-39336I866J0D01*
G01X-216764Y-36639D02*
X-212236D01*
G01X-216764D02*
Y-33981D01*
G01Y-28961D02*
X-212236D01*
G01X-216764Y-31619D02*
Y-28961D01*
G01X-216764Y-8061D02*
X-212236D01*
G01X-216764Y-10719D02*
Y-8061D01*
G01Y-15739D02*
X-212236D01*
G01X-216764D02*
Y-13081D01*
G01X-216628Y9484D02*
X-218419D01*
G01X-215761Y10350D02*
Y13146D01*
G01X-216628Y14012D02*
X-218419D01*
G01X-215761Y10350D02*
G02X-216628Y9484I-866J0D01*
G01Y14012D02*
G02X-215761Y13146I1J-866D01*
G01X-216628Y14800D02*
X-218419D01*
G01X-215761Y15666D02*
Y18462D01*
G01Y15666D02*
G02X-216628Y14800I-866J0D01*
G01Y19328D02*
X-218419D01*
G01X-216628D02*
G02X-215761Y18462I1J-866D01*
G01X-218419Y40271D02*
X-216628D01*
G01X-215761Y43933D02*
Y41137D01*
G01D02*
G02X-216628Y40271I-866J0D01*
G01X-218419Y44799D02*
X-216628D01*
G01D02*
G02X-215761Y43933I1J-866D01*
G01X-218419Y45587D02*
X-215761D01*
G01Y50115D02*
Y45587D01*
G01X-218419Y50115D02*
X-215761D01*
G01X-202400Y-99468D02*
X-207400Y-99469D01*
G01D02*
G02X-208975Y-97894I0J1575D01*
G01Y-94272D02*
Y-97894D01*
G01X-202400Y-85531D02*
X-207400D01*
G01X-208975Y-87106D02*
Y-90728D01*
G01Y-87106D02*
G02X-207400Y-85531I1575J0D01*
G01X-209955Y-43864D02*
X-211746D01*
G01X-209088Y-42998D02*
Y-40202D01*
G01Y-42998D02*
G02X-209955Y-43864I-866J0D01*
G01X-207900D02*
X-205242D01*
G01X-207900Y-39336D02*
Y-43864D01*
G01X-209955Y-39336D02*
X-211746D01*
G01X-209955D02*
G02X-209088Y-40202I1J-866D01*
G01X-211048Y-33981D02*
Y-36639D01*
G01X-206520D02*
X-211048D01*
G01X-206520Y-33981D02*
Y-36639D01*
G01X-205333Y-33981D02*
Y-36639D01*
G01X-200804D02*
X-205333D01*
G01X-212236D02*
Y-33981D01*
G01X-207900Y-39336D02*
X-205242D01*
G01X-211048Y-28961D02*
Y-31619D01*
G01X-206520Y-28961D02*
X-211048D01*
G01X-206520D02*
Y-31619D01*
G01X-205333Y-28961D02*
Y-31619D01*
G01X-200804Y-28961D02*
X-205333D01*
G01X-212236Y-31619D02*
Y-28961D01*
G01X-211448Y-14872D02*
Y-13081D01*
G01X-210582Y-15739D02*
X-207786D01*
G01X-206920Y-14872D02*
Y-13081D01*
G01Y-10719D02*
Y-8928D01*
G01X-210582Y-8061D02*
X-207786D01*
G01X-211448Y-10719D02*
Y-8928D01*
G01X-210582Y-15739D02*
G02X-211448Y-14872I0J866D01*
G01X-206920D02*
G02X-207786Y-15739I-866J-1D01*
G01Y-8061D02*
G02X-206920Y-8928I0J-866D01*
G01X-211448D02*
G02X-210582Y-8061I866J1D01*
G01X-212236Y-10719D02*
Y-8061D01*
G01Y-15739D02*
Y-13081D01*
G01X-206539Y39540D02*
Y44068D01*
G01X-203881Y39540D02*
X-206539D01*
G01Y34224D02*
X-203881D01*
G01X-206539Y38752D02*
Y34224D01*
G01Y38752D02*
X-203881D01*
G01X-205672Y49384D02*
X-203881D01*
G01X-206539Y48518D02*
Y45722D01*
G01X-205672Y44855D02*
X-203881D01*
G01X-206539Y48518D02*
G02X-205672Y49384I866J0D01*
G01Y44855D02*
G02X-206539Y45722I-1J866D01*
G01X-203881Y50171D02*
X-205672D01*
G01D02*
G02X-206539Y51037I-1J866D01*
G01X-203881Y44068D02*
X-206539D01*
G01X-206539Y55487D02*
Y60015D01*
G01X-203881Y55487D02*
X-206539D01*
G01X-203881Y54700D02*
X-205672D01*
G01X-206539Y51037D02*
Y53833D01*
G01D02*
G02X-205672Y54700I866J0D01*
G01X-203881Y60015D02*
X-206539D01*
G01X-200825Y-97894D02*
G02X-202400Y-99468I-1574J0D01*
G01X-192704D02*
X-197704Y-99469D01*
G01D02*
G02X-199279Y-97894I0J1575D01*
G01X-200825Y-94272D02*
Y-97894D01*
G01X-199279Y-94272D02*
Y-97894D01*
G01X-200825Y-87106D02*
Y-90728D01*
G01X-202400Y-85531D02*
G02X-200825Y-87106I0J-1575D01*
G01X-192704Y-85531D02*
X-197704D01*
G01X-199279Y-87106D02*
Y-90728D01*
G01Y-87106D02*
G02X-197704Y-85531I1575J0D01*
G01X-197094Y-84213D02*
X-193472D01*
G01X-197094D02*
G02X-198669Y-82638I0J1575D01*
G01X-197094Y-74475D02*
X-193472D01*
G01X-197094D02*
G02X-198669Y-72900I0J1575D01*
G01X-197094Y-76063D02*
X-193472D01*
G01X-198669Y-77638D02*
Y-82638D01*
G01Y-77638D02*
G02X-197094Y-76063I1575J0D01*
G01Y-66325D02*
X-193472D01*
G01X-198669Y-67900D02*
Y-72900D01*
G01Y-67900D02*
G02X-197094Y-66325I1575J0D01*
G01X-202880Y-43864D02*
X-200222D01*
G01Y-39336D02*
Y-43864D01*
G01X-199617Y-35772D02*
Y-33981D01*
G01X-198751Y-36639D02*
X-195955D01*
G01X-198751D02*
G02X-199617Y-35772I0J866D01*
G01X-200804Y-33981D02*
Y-36639D01*
G01X-202880Y-39336D02*
X-200222D01*
G01X-198751Y-28961D02*
X-195955D01*
G01X-199617Y-31619D02*
Y-29828D01*
G01D02*
G02X-198751Y-28961I866J1D01*
G01X-200804D02*
Y-31619D01*
G01X-197230Y-18836D02*
X-199888D01*
G01Y-23364D02*
Y-18836D01*
G01X-197230Y-23364D02*
X-199888D01*
G01X-198861Y39540D02*
Y44068D01*
G01Y39540D02*
X-201519D01*
G01Y34224D02*
X-198861D01*
G01Y38752D02*
Y34224D01*
G01X-201519Y38752D02*
X-198861D01*
G01X-201519Y44855D02*
X-199728D01*
G01X-198861Y48518D02*
Y45722D01*
G01X-201519Y49384D02*
X-199728D01*
G01X-198861Y45722D02*
G02X-199728Y44855I-866J0D01*
G01Y49384D02*
G02X-198861Y48518I1J-866D01*
G01X-199728Y50171D02*
X-201519D01*
G01X-198861Y51037D02*
G02X-199728Y50171I-866J0D01*
G01X-198861Y44068D02*
X-201519D01*
G01X-198861Y55487D02*
Y60015D01*
G01Y55487D02*
X-201519D01*
G01X-198861Y51037D02*
Y53833D01*
G01X-199728Y54700D02*
X-201519D01*
G01X-199728D02*
G02X-198861Y53833I1J-866D01*
G01Y60015D02*
X-201519D01*
G01X-191129Y-97894D02*
G02X-192704Y-99468I-1574J0D01*
G01X-191129Y-94272D02*
Y-97894D01*
G01Y-87106D02*
Y-90728D01*
G01X-192704Y-85531D02*
G02X-191129Y-87106I0J-1575D01*
G01X-189928Y-84213D02*
X-186306D01*
G01X-189928Y-74475D02*
X-186306D01*
G01X-189928Y-76063D02*
X-186306D01*
G01X-189928Y-66325D02*
X-186306D01*
G01X-195690Y-59936D02*
X-193899D01*
G01X-196557Y-60802D02*
Y-63598D01*
G01X-195690Y-64464D02*
X-193899D01*
G01X-191537D02*
X-189746D01*
G01X-188879Y-60802D02*
Y-63598D01*
G01X-191537Y-59936D02*
X-189746D01*
G01X-196557Y-60802D02*
G02X-195690Y-59936I866J0D01*
G01Y-64464D02*
G02X-196557Y-63598I-1J866D01*
G01X-188879D02*
G02X-189746Y-64464I-866J0D01*
G01Y-59936D02*
G02X-188879Y-60802I1J-866D01*
G01X-195088Y-35772D02*
Y-33981D01*
G01Y-35772D02*
G02X-195955Y-36639I-866J-1D01*
G01X-189373D02*
Y-33981D01*
G01X-193901Y-36639D02*
X-189373D01*
G01X-193901D02*
Y-33981D01*
G01X-195088Y-31619D02*
Y-29828D01*
G01X-195955Y-28961D02*
G02X-195088Y-29828I0J-866D01*
G01X-189373Y-31619D02*
Y-28961D01*
G01X-193901D02*
X-189373D01*
G01X-193901Y-31619D02*
Y-28961D01*
G01X-192210Y-18836D02*
X-194868D01*
G01X-192210Y-23364D02*
Y-18836D01*
G01Y-23364D02*
X-194868D01*
G01X-189072Y25585D02*
X-192694D01*
G01D02*
G02X-194268Y27160I0J1574D01*
G01X-189072Y33735D02*
X-192694D01*
G01X-194268Y27160D02*
X-194269Y32160D01*
G01D02*
G02X-192694Y33735I1575J0D01*
G01X-194268Y37560D02*
X-194269Y42560D01*
G01X-189072Y35985D02*
X-192694D01*
G01D02*
G02X-194268Y37560I0J1574D01*
G01X-189072Y44135D02*
X-192694D01*
G01X-194269Y42560D02*
G02X-192694Y44135I1575J0D01*
G01X-191139Y67807D02*
Y65011D01*
G01X-190272Y64145D02*
X-188481D01*
G01X-190272D02*
G02X-191139Y65011I-1J866D01*
G01X-190272Y68673D02*
X-188481D01*
G01X-191139Y67807D02*
G02X-190272Y68673I866J0D01*
G01X-184731Y-82638D02*
G02X-186306Y-84213I-1575J0D01*
G01X-184731Y-72900D02*
G02X-186306Y-74475I-1575J0D01*
G01X-184732Y-77638D02*
X-184731Y-82638D01*
G01X-186306Y-76063D02*
G02X-184732Y-77638I0J-1574D01*
G01Y-67900D02*
X-184731Y-72900D01*
G01X-186306Y-66325D02*
G02X-184732Y-67900I0J-1574D01*
G01X-185475Y-54407D02*
Y-58029D01*
G01X-178900Y-59603D02*
X-183900Y-59604D01*
G01D02*
G02X-185475Y-58029I0J1575D01*
G01Y-47241D02*
Y-50863D01*
G01X-187304Y-47359D02*
G03I-394J0D01*
G01X-178900Y-45666D02*
X-183900D01*
G01X-185475Y-47241D02*
G02X-183900Y-45666I1575J0D01*
G01X-182469Y-35772D02*
Y-33981D01*
G01X-181603Y-36639D02*
X-178807D01*
G01X-181603D02*
G02X-182469Y-35772I0J866D01*
G01X-188185Y-33981D02*
Y-36639D01*
G01X-183657D02*
X-188185D01*
G01X-183657Y-33981D02*
Y-36639D01*
G01X-181603Y-28961D02*
X-178807D01*
G01X-182469Y-31619D02*
Y-29828D01*
G01D02*
G02X-181603Y-28961I866J1D01*
G01X-188185D02*
Y-31619D01*
G01X-183657Y-28961D02*
X-188185D01*
G01X-183657D02*
Y-31619D01*
G01X-180662Y-8928D02*
Y-10719D01*
G01Y-13081D02*
Y-14872D01*
G01Y-8928D02*
G02X-179795Y-8061I866J1D01*
G01Y-15739D02*
G02X-180662Y-14872I0J866D01*
G01X-181449Y-8928D02*
Y-10719D01*
G01X-182315Y-8061D02*
X-185111D01*
G01X-185977Y-8928D02*
Y-10719D01*
G01Y-13081D02*
Y-14872D01*
G01X-182315Y-15739D02*
X-185111D01*
G01X-181449Y-13081D02*
Y-14872D01*
G01X-182315Y-8061D02*
G02X-181449Y-8928I0J-866D01*
G01X-185977D02*
G02X-185111Y-8061I866J1D01*
G01Y-15739D02*
G02X-185977Y-14872I0J866D01*
G01X-181449D02*
G02X-182315Y-15739I-866J-1D01*
G01X-181906Y25585D02*
X-185528D01*
G01X-180331Y27160D02*
G02X-181906Y25585I-1575J0D01*
G01X-180331Y27160D02*
Y32160D01*
G01X-181906Y33735D02*
X-185528D01*
G01X-181906D02*
G02X-180331Y32160I0J-1575D01*
G01X-181906Y35985D02*
X-185528D01*
G01X-180331Y37560D02*
Y42560D01*
G01Y37560D02*
G02X-181906Y35985I-1575J0D01*
G01Y44135D02*
X-185528D01*
G01X-181906D02*
G02X-180331Y42560I0J-1575D01*
G01X-186119Y64145D02*
X-184328D01*
G01X-183461Y67807D02*
Y65011D01*
G01D02*
G02X-184328Y64145I-866J0D01*
G01X-186119Y68673D02*
X-184328D01*
G01D02*
G02X-183461Y67807I1J-866D01*
G01X-172667Y-83039D02*
Y-80381D01*
G01X-177196Y-83039D02*
X-172667D01*
G01X-177196D02*
Y-80381D01*
G01X-172667Y-78019D02*
Y-75361D01*
G01X-177196D02*
X-172667D01*
G01X-177196Y-78019D02*
Y-75361D01*
G01X-176537Y-54407D02*
Y-58029D01*
G01X-169962Y-59603D02*
X-174962Y-59604D01*
G01D02*
G02X-176537Y-58029I0J1575D01*
G01X-177325Y-54407D02*
Y-58029D01*
G01D02*
G02X-178900Y-59603I-1574J0D01*
G01X-176537Y-47241D02*
Y-50863D01*
G01X-177325Y-47241D02*
Y-50863D01*
G01X-169962Y-45666D02*
X-174962D01*
G01X-176537Y-47241D02*
G02X-174962Y-45666I1575J0D01*
G01X-178900D02*
G02X-177325Y-47241I0J-1575D01*
G01X-177941Y-35772D02*
Y-33981D01*
G01Y-35772D02*
G02X-178807Y-36639I-866J-1D01*
G01X-172225Y-36639D02*
Y-33981D01*
G01X-176754Y-36639D02*
X-172225D01*
G01X-176754D02*
Y-33981D01*
G01X-177941Y-31619D02*
Y-29828D01*
G01X-178807Y-28961D02*
G02X-177941Y-29828I0J-866D01*
G01X-172225Y-31619D02*
Y-28961D01*
G01X-176754D02*
X-172225D01*
G01X-176754Y-31619D02*
Y-28961D01*
G01X-176133Y-8928D02*
Y-10719D01*
G01X-176999Y-8061D02*
X-179795D01*
G01X-176999Y-15739D02*
X-179795D01*
G01X-176133Y-13081D02*
Y-14872D01*
G01X-176999Y-8061D02*
G02X-176133Y-8928I0J-866D01*
G01Y-14872D02*
G02X-176999Y-15739I-866J-1D01*
G01X-172343Y20525D02*
Y23595D01*
G01D02*
G02X-170769Y25170I1575J0D01*
G01Y18950D02*
G02X-172343Y20525I3J1577D01*
G01X-172343Y28125D02*
Y31195D01*
G01D02*
G02X-170769Y32770I1575J0D01*
G01Y26550D02*
G02X-172343Y28125I3J1577D01*
G01X-171014Y-83039D02*
X-168218D01*
G01X-171014D02*
G02X-171880Y-82172I0J866D01*
G01X-167352D02*
G02X-168218Y-83039I-866J-1D01*
G01X-165698Y-83039D02*
X-162902D01*
G01X-165698D02*
G02X-166564Y-82172I0J866D01*
G01X-171880Y-82172D02*
Y-80381D01*
G01X-167352Y-82172D02*
Y-80381D01*
G01Y-78019D02*
Y-76228D01*
G01X-171014Y-75361D02*
X-168218D01*
G01X-171880Y-78019D02*
Y-76228D01*
G01X-168218Y-75361D02*
G02X-167352Y-76228I0J-866D01*
G01X-171880D02*
G02X-171014Y-75361I866J1D01*
G01X-166564Y-82172D02*
Y-80381D01*
G01X-165698Y-75361D02*
X-162902D01*
G01X-166564Y-78019D02*
Y-76228D01*
G01D02*
G02X-165698Y-75361I866J1D01*
G01X-167599Y-54407D02*
Y-58029D01*
G01X-161024Y-59603D02*
X-166024Y-59604D01*
G01D02*
G02X-167599Y-58029I0J1575D01*
G01X-168387Y-54407D02*
Y-58029D01*
G01D02*
G02X-169962Y-59603I-1574J0D01*
G01X-167599Y-47241D02*
Y-50863D01*
G01X-168387Y-47241D02*
Y-50863D01*
G01X-161024Y-45666D02*
X-166024D01*
G01X-167599Y-47241D02*
G02X-166024Y-45666I1575J0D01*
G01X-169962D02*
G02X-168387Y-47241I0J-1575D01*
G01X-171038Y-33981D02*
Y-36639D01*
G01X-166510D02*
X-171038D01*
G01X-166510Y-33981D02*
Y-36639D01*
G01X-171038Y-28961D02*
Y-31619D01*
G01X-166510Y-28961D02*
X-171038D01*
G01X-166510D02*
Y-31619D01*
G01X-167875Y25170D02*
X-170769D01*
G01X-167875Y18950D02*
X-170769D01*
G01X-161832D02*
X-164725D01*
G01X-161832Y25170D02*
X-164725D01*
G01X-167875Y32770D02*
X-170769D01*
G01X-167875Y26550D02*
X-170769D01*
G01X-161832D02*
X-164725D01*
G01X-161832Y32770D02*
X-164725D01*
G01X-162036Y-82172D02*
G02X-162902Y-83039I-866J-1D01*
G01X-162036Y-82172D02*
Y-80381D01*
G01Y-78019D02*
Y-76228D01*
G01X-162902Y-75361D02*
G02X-162036Y-76228I0J-866D01*
G01X-158661Y-54407D02*
Y-58029D01*
G01X-152087Y-59603D02*
X-157087Y-59604D01*
G01D02*
G02X-158661Y-58029I0J1575D01*
G01X-159450Y-54407D02*
Y-58029D01*
G01D02*
G02X-161024Y-59603I-1574J0D01*
G01X-158661Y-47241D02*
Y-50863D01*
G01X-159450Y-47241D02*
Y-50863D01*
G01X-152087Y-45666D02*
X-157087D01*
G01X-158661Y-47241D02*
G02X-157087Y-45666I1575J0D01*
G01X-161024D02*
G02X-159450Y-47241I0J-1575D01*
G01X-160257Y20525D02*
Y23595D01*
G01Y20525D02*
G02X-161832Y18950I-1575J0D01*
G01Y25170D02*
G02X-160257Y23595I0J-1575D01*
G01Y28125D02*
Y31195D01*
G01Y28125D02*
G02X-161832Y26550I-1575J0D01*
G01Y32770D02*
G02X-160257Y31195I0J-1575D01*
G01X-150512Y-54407D02*
Y-58029D01*
G01D02*
G02X-152087Y-59603I-1574J0D01*
G01X-150512Y-47241D02*
Y-50863D01*
G01X-152087Y-45666D02*
G02X-150512Y-47241I0J-1575D01*
G01X-115264Y-99954D02*
Y-101745D01*
G01X-111602Y-102612D02*
X-114398D01*
G01D02*
G02X-115264Y-101745I0J866D01*
G01X-111602Y-94934D02*
X-114398D01*
G01X-115264Y-95801D02*
Y-97592D01*
G01Y-95801D02*
G02X-114398Y-94934I866J1D01*
G01X-105854Y-116464D02*
X-107645D01*
G01D02*
G02X-108512Y-115598I-1J866D01*
G01X-105854Y-111936D02*
X-107645D01*
G01X-108512Y-115598D02*
Y-112802D01*
G01D02*
G02X-107645Y-111936I866J0D01*
G01X-105264Y-108381D02*
Y-111039D01*
G01X-100736D02*
X-105264D01*
G01X-110736Y-99954D02*
Y-101745D01*
G01D02*
G02X-111602Y-102612I-866J-1D01*
G01X-109414Y-92376D02*
Y-101824D01*
G01D02*
X-104079D01*
G01X-105264Y-103361D02*
Y-106019D01*
G01X-100736Y-103361D02*
X-105264D01*
G01X-110736Y-95801D02*
Y-97592D01*
G01X-111602Y-94934D02*
G02X-110736Y-95801I0J-866D01*
G01X-109414Y-92376D02*
X-104079D01*
G01X-110085Y-90537D02*
X-102058D01*
G01X-110163Y-82458D02*
X-102005D01*
G01X-101701Y-116464D02*
X-103492D01*
G01X-100834Y-115598D02*
G02X-101701Y-116464I-866J0D01*
G01X-98984D02*
X-97192D01*
G01X-98984D02*
G02X-99850Y-115598I-1J866D01*
G01X-100834D02*
Y-112802D01*
G01X-101701Y-111936D02*
X-103492D01*
G01X-101701D02*
G02X-100834Y-112802I1J-866D01*
G01X-98984Y-111936D02*
X-97192D01*
G01X-99850Y-112802D02*
Y-115598D01*
G01Y-112802D02*
G02X-98984Y-111936I866J0D01*
G01X-99948Y-108381D02*
Y-111039D01*
G01X-95420D02*
X-99948D01*
G01X-100736Y-108381D02*
Y-111039D01*
G01X-99948Y-103361D02*
Y-106019D01*
G01X-95420Y-103361D02*
X-99948D01*
G01X-100736D02*
Y-106019D01*
G01X-90777Y-90542D02*
X-98934D01*
G01X-90855Y-82463D02*
X-98882D01*
G01X-94830Y-116464D02*
X-93039D01*
G01X-92172Y-115598D02*
G02X-93039Y-116464I-866J0D01*
G01X-92172Y-112802D02*
Y-115598D01*
G01X-94830Y-111936D02*
X-93039D01*
G01D02*
G02X-92172Y-112802I1J-866D01*
G01X-95420Y-108381D02*
Y-111039D01*
G01X-96205Y-101824D02*
X-90870D01*
G01Y-92376D02*
Y-101824D01*
G01X-95420Y-103361D02*
Y-106019D01*
G01X-96205Y-92376D02*
X-90870D01*
G01X-85105Y-100843D02*
Y-96315D01*
G01X-82447Y-100843D02*
X-85105D01*
G01X-82447Y-96315D02*
X-85105D01*
G01Y-95127D02*
Y-90599D01*
G01X-82447Y-95127D02*
X-85105D01*
G01X-82447Y-84883D02*
X-85105D01*
G01Y-89412D02*
Y-84883D01*
G01X-82447Y-89412D02*
X-85105D01*
G01X-82447Y-90599D02*
X-85105D01*
G01X-85105Y-83696D02*
Y-79167D01*
G01X-82447Y-83696D02*
X-85105D01*
G01X-85339Y-73511D02*
Y-76308D01*
G01X-84472Y-77174D02*
X-82681D01*
G01X-80319D02*
X-78528D01*
G01X-84472D02*
G02X-85339Y-76308I-1J866D01*
G01X-82447Y-79167D02*
X-85105D01*
G01X-84472Y-72645D02*
X-82681D01*
G01X-80319D02*
X-78528D01*
G01X-85339Y-73511D02*
G02X-84472Y-72645I866J0D01*
G01X-84472Y-67330D02*
X-82681D01*
G01X-85339Y-68196D02*
Y-70992D01*
G01X-84472Y-71858D02*
X-82681D01*
G01X-80319D02*
X-78528D01*
G01X-80319Y-67330D02*
X-78528D01*
G01X-85339Y-68196D02*
G02X-84472Y-67330I866J0D01*
G01Y-71858D02*
G02X-85339Y-70992I-1J866D01*
G01X-76444Y-58042D02*
X-84601D01*
G01X-78528Y-64864D02*
X-80319D01*
G01X-78528Y-60336D02*
X-80319D01*
G01X-82681D02*
X-84472D01*
G01X-85339Y-63998D02*
Y-61202D01*
G01X-82681Y-64864D02*
X-84472D01*
G01X-85339Y-61202D02*
G02X-84472Y-60336I866J0D01*
G01Y-64864D02*
G02X-85339Y-63998I-1J866D01*
G01X-76522Y-49963D02*
X-84549D01*
G01X-81242Y49961D02*
X-85002D01*
G01D02*
G02X-86577Y51535I-1J1574D01*
G01D02*
Y57835D01*
G01D02*
G02X-85002Y59409I1574J0D01*
G01X-81242D02*
X-85002D01*
G01X-86577Y62171D02*
Y68471D01*
G01X-81242Y60597D02*
X-85002D01*
G01D02*
G02X-86577Y62171I-1J1574D01*
G01X-81242Y70045D02*
X-85002D01*
G01X-86577Y68471D02*
G02X-85002Y70045I1574J0D01*
G01X-86577Y72807D02*
Y79107D01*
G01X-81242Y71233D02*
X-85002D01*
G01D02*
G02X-86577Y72807I-1J1574D01*
G01X-81970Y83444D02*
X-81971Y88444D01*
G01X-76774Y81870D02*
X-80396D01*
G01D02*
G02X-81970Y83444I0J1574D01*
G01X-81242Y80681D02*
X-85002D01*
G01X-86577Y79107D02*
G02X-85002Y80681I1574J0D01*
G01X-76774Y90019D02*
X-80396D01*
G01X-81971Y88444D02*
G02X-80396Y90019I1575J0D01*
G01X-75964Y-130434D02*
Y-134056D01*
G01X-69389Y-135630D02*
X-74389Y-135631D01*
G01D02*
G02X-75964Y-134056I0J1575D01*
G01Y-123268D02*
Y-126890D01*
G01X-69389Y-121693D02*
X-74389D01*
G01X-75964Y-123268D02*
G02X-74389Y-121693I1575J0D01*
G01X-72381Y-107746D02*
X-74172D01*
G01X-75039Y-111409D02*
Y-108613D01*
G01X-72381Y-112275D02*
X-74172D01*
G01X-75039Y-108613D02*
G02X-74172Y-107746I866J0D01*
G01Y-112275D02*
G02X-75039Y-111409I-1J866D01*
G01X-77427Y-100843D02*
Y-96315D01*
G01Y-100843D02*
X-80085D01*
G01X-72381Y-102031D02*
X-75039D01*
G01Y-106559D02*
Y-102031D01*
G01X-72381Y-106559D02*
X-75039D01*
G01Y-100843D02*
Y-96315D01*
G01X-72381Y-100843D02*
X-75039D01*
G01Y-94261D02*
Y-91465D01*
G01X-72381Y-95127D02*
X-74172D01*
G01X-75039Y-91465D02*
G02X-74172Y-90599I866J0D01*
G01Y-95127D02*
G02X-75039Y-94261I-1J866D01*
G01X-77427Y-96315D02*
X-80085D01*
G01X-77427Y-95127D02*
Y-90599D01*
G01Y-95127D02*
X-80085D01*
G01X-72381Y-96315D02*
X-75039D01*
G01X-72381Y-84883D02*
X-74172D01*
G01X-75039Y-88546D02*
Y-85749D01*
G01X-72381Y-89412D02*
X-74172D01*
G01X-75039Y-85749D02*
G02X-74172Y-84883I866J0D01*
G01Y-89412D02*
G02X-75039Y-88546I-1J866D01*
G01X-72381Y-90599D02*
X-74172D01*
G01X-75039Y-82830D02*
Y-80034D01*
G01X-72381Y-83696D02*
X-74172D01*
G01D02*
G02X-75039Y-82830I-1J866D01*
G01X-77427Y-84883D02*
X-80085D01*
G01X-77427Y-89412D02*
Y-84883D01*
G01Y-89412D02*
X-80085D01*
G01X-77427Y-90599D02*
X-80085D01*
G01X-77427Y-83696D02*
Y-79167D01*
G01Y-83696D02*
X-80085D01*
G01X-72381Y-79167D02*
X-74172D01*
G01X-75039Y-80034D02*
G02X-74172Y-79167I866J0D01*
G01X-77661Y-73511D02*
Y-76308D01*
G01D02*
G02X-78528Y-77174I-866J0D01*
G01X-77427Y-79167D02*
X-80085D01*
G01X-78528Y-72645D02*
G02X-77661Y-73511I1J-866D01*
G01Y-68196D02*
Y-70992D01*
G01D02*
G02X-78528Y-71858I-866J0D01*
G01Y-67330D02*
G02X-77661Y-68196I1J-866D01*
G01X-72942Y-58531D02*
Y-50374D01*
G01X-77661Y-63998D02*
Y-61202D01*
G01Y-63998D02*
G02X-78528Y-64864I-866J0D01*
G01Y-60336D02*
G02X-77661Y-61202I1J-866D01*
G01X-69608Y49961D02*
X-73368D01*
G01X-69608Y59409D02*
X-73368D01*
G01X-69608Y60597D02*
X-73368D01*
G01X-69608Y70045D02*
X-73368D01*
G01X-69608Y71233D02*
X-73368D01*
G01X-69608Y81870D02*
X-73230D01*
G01X-69608Y80681D02*
X-73368D01*
G01X-69608Y90019D02*
X-73230D01*
G01X-75711Y92073D02*
Y94869D01*
G01X-73053Y91207D02*
X-74844D01*
G01D02*
G02X-75711Y92073I-1J866D01*
G01X-73053Y95735D02*
X-74844D01*
G01X-75711Y94869D02*
G02X-74844Y95735I866J0D01*
G01X-67026Y-130434D02*
Y-134056D01*
G01X-60451Y-135630D02*
X-65451Y-135631D01*
G01D02*
G02X-67026Y-134056I0J1575D01*
G01X-67814Y-130434D02*
Y-134056D01*
G01D02*
G02X-69389Y-135630I-1574J0D01*
G01X-67026Y-123268D02*
Y-126890D01*
G01X-67814Y-123268D02*
Y-126890D01*
G01X-60451Y-121693D02*
X-65451D01*
G01X-67026Y-123268D02*
G02X-65451Y-121693I1575J0D01*
G01X-69389D02*
G02X-67814Y-123268I0J-1575D01*
G01X-68228Y-112275D02*
X-70019D01*
G01X-67361Y-111409D02*
Y-108613D01*
G01X-68228Y-107746D02*
X-70019D01*
G01X-67361Y-111409D02*
G02X-68228Y-112275I-866J0D01*
G01Y-107746D02*
G02X-67361Y-108613I1J-866D01*
G01Y-102031D02*
X-70019D01*
G01X-67361Y-106559D02*
Y-102031D01*
G01Y-106559D02*
X-70019D01*
G01X-67361Y-100843D02*
Y-96315D01*
G01Y-100843D02*
X-70019D01*
G01X-68228Y-95127D02*
X-70019D01*
G01X-67361Y-94261D02*
Y-91465D01*
G01Y-94261D02*
G02X-68228Y-95127I-866J0D01*
G01Y-90599D02*
G02X-67361Y-91465I1J-866D01*
G01Y-96315D02*
X-70019D01*
G01X-68228Y-89412D02*
X-70019D01*
G01X-67361Y-88546D02*
Y-85749D01*
G01X-68228Y-84883D02*
X-70019D01*
G01X-67361Y-88546D02*
G02X-68228Y-89412I-866J0D01*
G01Y-84883D02*
G02X-67361Y-85749I1J-866D01*
G01X-68228Y-90599D02*
X-70019D01*
G01X-68228Y-83696D02*
X-70019D01*
G01X-67361Y-82830D02*
Y-80034D01*
G01Y-82830D02*
G02X-68228Y-83696I-866J0D01*
G01X-71764Y-76672D02*
Y-74881D01*
G01X-70898Y-77539D02*
X-68102D01*
G01X-67236Y-76672D02*
Y-74881D01*
G01X-70898Y-77539D02*
G02X-71764Y-76672I0J866D01*
G01X-67236D02*
G02X-68102Y-77539I-866J-1D01*
G01X-68228Y-79167D02*
X-70019D01*
G01X-68228D02*
G02X-67361Y-80034I1J-866D01*
G01X-66048Y-77539D02*
X-61520D01*
G01X-66048D02*
Y-74881D01*
G01X-67236Y-72519D02*
Y-70728D01*
G01X-70898Y-69861D02*
X-68102D01*
G01X-71764Y-72519D02*
Y-70728D01*
G01X-68102Y-69861D02*
G02X-67236Y-70728I0J-866D01*
G01X-71764D02*
G02X-70898Y-69861I866J1D01*
G01X-66048D02*
X-61520D01*
G01X-66048Y-72519D02*
Y-69861D01*
G01X-64863Y-58453D02*
Y-50426D01*
G01X-66045Y41962D02*
Y43753D01*
G01X-65179Y41095D02*
X-62383D01*
G01X-65179D02*
G02X-66045Y41962I0J866D01*
G01X-65179Y48773D02*
X-62383D01*
G01X-66045Y46115D02*
Y47906D01*
G01D02*
G02X-65179Y48773I866J1D01*
G01X-68033Y51535D02*
G02X-69608Y49961I-1574J0D01*
G01X-66045Y52619D02*
Y49961D01*
G01X-61517D02*
X-66045D01*
G01X-68033Y51535D02*
Y57835D01*
G01X-69608Y59409D02*
G02X-68033Y57835I1J-1574D01*
G01X-66045Y57639D02*
Y54981D01*
G01X-61517Y57639D02*
X-66045D01*
G01X-68033Y62171D02*
Y68471D01*
G01Y62171D02*
G02X-69608Y60597I-1574J0D01*
G01Y70045D02*
G02X-68033Y68471I1J-1574D01*
G01Y72807D02*
Y79107D01*
G01Y72807D02*
G02X-69608Y71233I-1574J0D01*
G01X-68033Y83444D02*
Y88444D01*
G01Y83444D02*
G02X-69608Y81870I-1575J0D01*
G01X-69608Y80681D02*
G02X-68033Y79107I1J-1574D01*
G01X-69608Y90019D02*
G02X-68033Y88444I0J-1575D01*
G01X-68900Y91207D02*
X-70691D01*
G01X-68033Y92073D02*
Y94869D01*
G01Y92073D02*
G02X-68900Y91207I-866J0D01*
G01Y95735D02*
X-70691D01*
G01X-68900D02*
G02X-68033Y94869I1J-866D01*
G01X-58876Y-130434D02*
Y-134056D01*
G01D02*
G02X-60451Y-135630I-1574J0D01*
G01X-58088Y-130434D02*
Y-134056D01*
G01X-51513Y-135630D02*
X-56513Y-135631D01*
G01D02*
G02X-58088Y-134056I0J1575D01*
G01X-58876Y-123268D02*
Y-126890D01*
G01X-58088Y-123268D02*
Y-126890D01*
G01X-60451Y-121693D02*
G02X-58876Y-123268I0J-1575D01*
G01X-51513Y-121693D02*
X-56513D01*
G01X-58088Y-123268D02*
G02X-56513Y-121693I1575J0D01*
G01X-55030Y-108161D02*
X-57826D01*
G01X-58693Y-109028D02*
Y-110819D01*
G01Y-113181D02*
Y-114972D01*
G01X-55030Y-115839D02*
X-57826D01*
G01X-58693Y-109028D02*
G02X-57826Y-108161I866J1D01*
G01Y-115839D02*
G02X-58693Y-114972I0J866D01*
G01X-55804Y-77539D02*
Y-74881D01*
G01X-60333Y-77539D02*
X-55804D01*
G01X-60333D02*
Y-74881D01*
G01X-61520Y-77539D02*
Y-74881D01*
G01X-55804Y-72519D02*
Y-69861D01*
G01X-60333D02*
X-55804D01*
G01X-60333Y-72519D02*
Y-69861D01*
G01X-61520Y-72519D02*
Y-69861D01*
G01X-59775Y-58272D02*
Y-61894D01*
G01X-53200Y-63468D02*
X-58200Y-63469D01*
G01D02*
G02X-59775Y-61894I0J1575D01*
G01X-53200Y-49531D02*
X-58200D01*
G01X-59775Y-51106D02*
Y-54728D01*
G01Y-51106D02*
G02X-58200Y-49531I1575J0D01*
G01X-61517Y41962D02*
Y43753D01*
G01Y41962D02*
G02X-62383Y41095I-866J-1D01*
G01X-60730Y41962D02*
Y43753D01*
G01X-59864Y41095D02*
X-57067D01*
G01X-56201Y41962D02*
Y43753D01*
G01X-59864Y41095D02*
G02X-60730Y41962I0J866D01*
G01X-56201D02*
G02X-57067Y41095I-866J-1D01*
G01X-54548Y49961D02*
G02X-55414Y50828I0J866D01*
G01X-61517Y46115D02*
Y47906D01*
G01X-62383Y48773D02*
G02X-61517Y47906I0J-866D01*
G01X-56201Y46115D02*
Y47906D01*
G01X-59864Y48773D02*
X-57067D01*
G01X-60730Y46115D02*
Y47906D01*
G01X-57067Y48773D02*
G02X-56201Y47906I0J-866D01*
G01X-60730D02*
G02X-59864Y48773I866J1D01*
G01X-61517Y52619D02*
Y49961D01*
G01X-60730Y52619D02*
Y49961D01*
G01X-56201D02*
X-60730D01*
G01X-56201Y52619D02*
Y49961D01*
G01X-55414Y56772D02*
Y54981D01*
G01Y52619D02*
Y50828D01*
G01Y56772D02*
G02X-54548Y57639I866J1D01*
G01X-61517D02*
Y54981D01*
G01X-60730Y57639D02*
Y54981D01*
G01X-56201Y57639D02*
X-60730D01*
G01X-56201D02*
Y54981D01*
G01X-53573Y92457D02*
X-59793D01*
G01Y104543D02*
Y92457D01*
G01X-54511Y106136D02*
X-56302D01*
G01X-61322Y107002D02*
Y109798D01*
G01X-58664Y106136D02*
X-60455D01*
G01D02*
G02X-61322Y107002I-1J866D01*
G01X-53573Y104543D02*
X-59793D01*
G01X-54511Y110664D02*
X-56302D01*
G01X-58664D02*
X-60455D01*
G01X-61322Y109798D02*
G02X-60455Y110664I866J0D01*
G01X-49939Y-130434D02*
Y-134056D01*
G01D02*
G02X-51513Y-135630I-1574J0D01*
G01X-49150Y-130434D02*
Y-134056D01*
G01X-42576Y-135630D02*
X-47576Y-135631D01*
G01D02*
G02X-49150Y-134056I0J1575D01*
G01X-49939Y-123268D02*
Y-126890D01*
G01X-49150Y-123268D02*
Y-126890D01*
G01X-51513Y-121693D02*
G02X-49939Y-123268I0J-1575D01*
G01X-42576Y-121693D02*
X-47576D01*
G01X-49150Y-123268D02*
G02X-47576Y-121693I1575J0D01*
G01X-54164Y-109028D02*
Y-110819D01*
G01Y-113181D02*
Y-114972D01*
G01X-55030Y-108161D02*
G02X-54164Y-109028I0J-866D01*
G01Y-114972D02*
G02X-55030Y-115839I-866J-1D01*
G01X-48448Y-109028D02*
Y-110819D01*
G01X-49315Y-108161D02*
X-52111D01*
G01X-52977Y-109028D02*
Y-110819D01*
G01Y-113181D02*
Y-114972D01*
G01X-49315Y-115839D02*
X-52111D01*
G01X-48448Y-113181D02*
Y-114972D01*
G01X-49315Y-108161D02*
G02X-48448Y-109028I0J-866D01*
G01X-52977D02*
G02X-52111Y-108161I866J1D01*
G01Y-115839D02*
G02X-52977Y-114972I0J866D01*
G01X-48448D02*
G02X-49315Y-115839I-866J-1D01*
G01X-50088Y-77539D02*
Y-74881D01*
G01X-54617Y-77539D02*
X-50088D01*
G01X-54617D02*
Y-74881D01*
G01X-48901Y-77539D02*
X-44373D01*
G01X-48901D02*
Y-74881D01*
G01X-50088Y-72519D02*
Y-69861D01*
G01X-54617D02*
X-50088D01*
G01X-54617Y-72519D02*
Y-69861D01*
G01X-48901D02*
X-44373D01*
G01X-48901Y-72519D02*
Y-69861D01*
G01X-50837Y-58272D02*
Y-61894D01*
G01X-44262Y-63468D02*
X-49262Y-63469D01*
G01D02*
G02X-50837Y-61894I0J1575D01*
G01X-51625Y-58272D02*
Y-61894D01*
G01D02*
G02X-53200Y-63468I-1574J0D01*
G01X-44262Y-49531D02*
X-49262D01*
G01X-50837Y-51106D02*
Y-54728D01*
G01Y-51106D02*
G02X-49262Y-49531I1575J0D01*
G01X-51625Y-51106D02*
Y-54728D01*
G01X-53200Y-49531D02*
G02X-51625Y-51106I0J-1575D01*
G01X-51752Y49961D02*
X-54548D01*
G01X-50885Y50828D02*
G02X-51752Y49961I-866J-1D01*
G01X-50098Y52619D02*
Y49961D01*
G01X-45570D02*
X-50098D01*
G01X-50885Y56772D02*
Y54981D01*
G01X-51752Y57639D02*
X-54548D01*
G01X-50885Y52619D02*
Y50828D01*
G01X-51752Y57639D02*
G02X-50885Y56772I0J-866D01*
G01X-50098Y57639D02*
Y54981D01*
G01X-45570Y57639D02*
X-50098D01*
G01X-46506Y92457D02*
X-52726D01*
G01Y104543D02*
Y92457D01*
G01X-53573Y104543D02*
Y92457D01*
G01X-52655Y109798D02*
Y107002D01*
G01X-51788Y106136D02*
X-49997D01*
G01X-47635D02*
X-45844D01*
G01X-51788D02*
G02X-52655Y107002I-1J866D01*
G01X-53644Y107002D02*
Y109798D01*
G01Y107002D02*
G02X-54511Y106136I-866J0D01*
G01X-46506Y104543D02*
X-52726D01*
G01X-51788Y110664D02*
X-49997D01*
G01X-47635D02*
X-45844D01*
G01X-52655Y109798D02*
G02X-51788Y110664I866J0D01*
G01X-54511Y110664D02*
G02X-53644Y109798I1J-866D01*
G01X-41299Y-144910D02*
X-36831D01*
G01X-41299Y-138690D02*
Y-144910D01*
G01X-40213Y-130434D02*
Y-134056D01*
G01X-33638Y-135630D02*
X-38638Y-135631D01*
G01D02*
G02X-40213Y-134056I0J1575D01*
G01X-41001Y-130434D02*
Y-134056D01*
G01D02*
G02X-42576Y-135630I-1574J0D01*
G01X-41299Y-138690D02*
X-36831D01*
G01X-40213Y-123268D02*
Y-126890D01*
G01X-41001Y-123268D02*
Y-126890D01*
G01X-33638Y-121693D02*
X-38638D01*
G01X-40213Y-123268D02*
G02X-38638Y-121693I1575J0D01*
G01X-42576D02*
G02X-41001Y-123268I0J-1575D01*
G01X-39248Y-120543D02*
X-33028D01*
G01X-39248D02*
Y-116075D01*
G01Y-108457D02*
X-33028D01*
G01X-39248Y-112925D02*
Y-108457D01*
G01X-38657Y-77539D02*
Y-74881D01*
G01X-43185Y-77539D02*
X-38657D01*
G01X-43185D02*
Y-74881D01*
G01X-44373Y-77539D02*
Y-74881D01*
G01X-38657Y-72519D02*
Y-69861D01*
G01X-43185D02*
X-38657D01*
G01X-43185Y-72519D02*
Y-69861D01*
G01X-44373Y-72519D02*
Y-69861D01*
G01X-41899Y-58272D02*
Y-61894D01*
G01X-35324Y-63468D02*
X-40324Y-63469D01*
G01D02*
G02X-41899Y-61894I0J1575D01*
G01X-42687Y-58272D02*
Y-61894D01*
G01D02*
G02X-44262Y-63468I-1574J0D01*
G01X-35324Y-49531D02*
X-40324D01*
G01X-41899Y-51106D02*
Y-54728D01*
G01Y-51106D02*
G02X-40324Y-49531I1575J0D01*
G01X-42687Y-51106D02*
Y-54728D01*
G01X-44262Y-49531D02*
G02X-42687Y-51106I0J-1575D01*
G01X-45570Y52619D02*
Y49961D01*
G01X-44782Y52619D02*
Y49961D01*
G01X-40254D02*
X-44782D01*
G01X-40254Y52619D02*
Y49961D01*
G01X-45570Y57639D02*
Y54981D01*
G01X-44782Y57639D02*
Y54981D01*
G01X-40254Y57639D02*
X-44782D01*
G01X-40254D02*
Y54981D01*
G01X-46506Y104543D02*
Y92457D01*
G01X-44977Y109798D02*
Y107002D01*
G01D02*
G02X-45844Y106136I-866J0D01*
G01Y110664D02*
G02X-44977Y109798I1J-866D01*
G01X-33682Y-144910D02*
X-29213D01*
G01X-32063Y-130434D02*
Y-134056D01*
G01D02*
G02X-33638Y-135630I-1574J0D01*
G01X-31275Y-130434D02*
Y-134056D01*
G01X-29700Y-135631D02*
G02X-31275Y-134056I0J1575D01*
G01X-33682Y-138690D02*
X-29213D01*
G01X-32063Y-123268D02*
Y-126890D01*
G01X-31275Y-123268D02*
Y-126890D01*
G01X-33638Y-121693D02*
G02X-32063Y-123268I0J-1575D01*
G01X-31275D02*
G02X-29700Y-121693I1575J0D01*
G01X-33028Y-120543D02*
Y-116075D01*
G01X-31668Y-108010D02*
X-28775D01*
G01X-31668D02*
G02X-33243Y-106435I0J1575D01*
G01X-33028Y-112925D02*
Y-108457D01*
G01X-31668Y-101790D02*
X-28775D01*
G01X-33243Y-103365D02*
Y-106435D01*
G01Y-103365D02*
G02X-31668Y-101790I1575J0D01*
G01X-31739Y-100400D02*
Y-95871D01*
G01X-29081Y-100400D02*
X-31739D01*
G01X-29081Y-95871D02*
X-31739D01*
G01X-31739Y-94684D02*
X-29081D01*
G01X-31739Y-90156D02*
Y-94684D01*
G01X-30872Y-84440D02*
X-29081D01*
G01X-31739Y-85306D02*
Y-88102D01*
G01X-30872Y-88968D02*
X-29081D01*
G01X-31739Y-85306D02*
G02X-30872Y-84440I866J0D01*
G01Y-88968D02*
G02X-31739Y-88102I-1J866D01*
G01Y-90156D02*
X-29081D01*
G01X-31739Y-83252D02*
X-29081D01*
G01X-31739Y-78724D02*
Y-83252D01*
G01X-37469Y-76672D02*
Y-74881D01*
G01X-36603Y-77539D02*
X-33807D01*
G01X-32941Y-76672D02*
Y-74881D01*
G01X-36603Y-77539D02*
G02X-37469Y-76672I0J866D01*
G01X-32941D02*
G02X-33807Y-77539I-866J-1D01*
G01X-31754Y-77539D02*
X-27225D01*
G01X-31754D02*
Y-74881D01*
G01X-31739Y-78724D02*
X-29081D01*
G01X-32941Y-72519D02*
Y-70728D01*
G01X-36603Y-69861D02*
X-33807D01*
G01X-37469Y-72519D02*
Y-70728D01*
G01X-33807Y-69861D02*
G02X-32941Y-70728I0J-866D01*
G01X-37469D02*
G02X-36603Y-69861I866J1D01*
G01X-31754Y-69861D02*
X-27225D01*
G01X-31754Y-72519D02*
Y-69861D01*
G01X-32961Y-58272D02*
Y-61894D01*
G01X-26387Y-63468D02*
X-31387Y-63469D01*
G01D02*
G02X-32961Y-61894I0J1575D01*
G01X-33750Y-58272D02*
Y-61894D01*
G01D02*
G02X-35324Y-63468I-1574J0D01*
G01X-26387Y-49531D02*
X-31387D01*
G01X-32961Y-51106D02*
Y-54728D01*
G01Y-51106D02*
G02X-31387Y-49531I1575J0D01*
G01X-33750Y-51106D02*
Y-54728D01*
G01X-35324Y-49531D02*
G02X-33750Y-51106I0J-1575D01*
G01X-30280Y58587D02*
Y60378D01*
G01X-29414Y57720D02*
G02X-30280Y58587I0J866D01*
G01X-35596Y60378D02*
Y57720D01*
G01X-31068D02*
X-35596D01*
G01X-31068Y60378D02*
Y57720D01*
G01X-30280Y62740D02*
Y64531D01*
G01D02*
G02X-29414Y65398I866J1D01*
G01X-35596Y65398D02*
Y62740D01*
G01X-31068Y65398D02*
X-35596D01*
G01X-31068D02*
Y62740D01*
G01X-29213Y-138690D02*
Y-144910D01*
G01X-24700Y-135630D02*
X-29700Y-135631D01*
G01X-23125Y-130434D02*
Y-134056D01*
G01D02*
G02X-24700Y-135630I-1574J0D01*
G01X-23125Y-123268D02*
Y-126890D01*
G01X-24700Y-121693D02*
X-29700D01*
G01X-24700D02*
G02X-23125Y-123268I0J-1575D01*
G01X-25625Y-108010D02*
X-22731D01*
G01X-21157Y-106435D02*
G02X-22731Y-108010I-1575J0D01*
G01X-25625Y-101790D02*
X-22731D01*
G01D02*
G02X-21157Y-103365I-3J-1577D01*
G01X-24061Y-100400D02*
Y-95871D01*
G01Y-100400D02*
X-26719D01*
G01X-24061Y-95871D02*
X-26719D01*
G01Y-94684D02*
X-24061D01*
G01Y-90156D02*
Y-94684D01*
G01X-26719Y-88968D02*
X-24928D01*
G01X-24061Y-85306D02*
Y-88102D01*
G01X-26719Y-84440D02*
X-24928D01*
G01X-24061Y-88102D02*
G02X-24928Y-88968I-866J0D01*
G01Y-84440D02*
G02X-24061Y-85306I1J-866D01*
G01X-22664Y-83842D02*
Y-85633D01*
G01X-19002Y-86500D02*
X-21798D01*
G01D02*
G02X-22664Y-85633I0J866D01*
G01X-26719Y-90156D02*
X-24061D01*
G01X-26719Y-83252D02*
X-24061D01*
G01Y-78724D02*
Y-83252D01*
G01X-26038Y-74881D02*
Y-76672D01*
G01X-22376Y-77539D02*
X-25172D01*
G01D02*
G02X-26038Y-76672I0J866D01*
G01X-21509D02*
G02X-22376Y-77539I-866J-1D01*
G01X-19002Y-78822D02*
X-21798D01*
G01X-22664Y-79689D02*
Y-81480D01*
G01Y-79689D02*
G02X-21798Y-78822I866J1D01*
G01X-27225Y-77539D02*
Y-74881D01*
G01X-26719Y-78724D02*
X-24061D01*
G01X-22376Y-69861D02*
X-25172D01*
G01X-26038Y-70728D02*
Y-72519D01*
G01X-22376Y-69861D02*
G02X-21509Y-70728I0J-866D01*
G01X-26038D02*
G02X-25172Y-69861I866J1D01*
G01X-27225Y-72519D02*
Y-69861D01*
G01X-24024Y-58272D02*
Y-61894D01*
G01X-17449Y-63468D02*
X-22449Y-63469D01*
G01D02*
G02X-24024Y-61894I0J1575D01*
G01X-24812Y-58272D02*
Y-61894D01*
G01D02*
G02X-26387Y-63468I-1574J0D01*
G01X-17449Y-49531D02*
X-22449D01*
G01X-24024Y-51106D02*
Y-54728D01*
G01Y-51106D02*
G02X-22449Y-49531I1575J0D01*
G01X-24812Y-51106D02*
Y-54728D01*
G01X-26387Y-49531D02*
G02X-24812Y-51106I0J-1575D01*
G01X-21303Y41772D02*
X-23094D01*
G01X-25456D02*
X-27247D01*
G01D02*
G02X-28114Y42639I-1J866D01*
G01X-21303Y46301D02*
X-23094D01*
G01X-25456D02*
X-27247D01*
G01X-28114Y42639D02*
Y45435D01*
G01D02*
G02X-27247Y46301I866J0D01*
G01X-21303Y47088D02*
X-23094D01*
G01X-28114Y47954D02*
Y50750D01*
G01X-25456Y47088D02*
X-27247D01*
G01X-28114Y50750D02*
G02X-27247Y51617I866J0D01*
G01Y47088D02*
G02X-28114Y47954I-1J866D01*
G01X-24964Y58587D02*
Y60378D01*
G01X-24098Y57720D02*
X-21302D01*
G01X-24098D02*
G02X-24964Y58587I0J866D01*
G01X-21303Y52404D02*
X-23094D01*
G01X-21303Y56932D02*
X-23094D01*
G01X-25456D02*
X-27247D01*
G01X-28114Y53270D02*
Y56066D01*
G01X-25456Y52404D02*
X-27247D01*
G01X-28114Y56066D02*
G02X-27247Y56932I866J0D01*
G01Y52404D02*
G02X-28114Y53270I-1J866D01*
G01X-29414Y57720D02*
X-26618D01*
G01X-25752Y58587D02*
Y60378D01*
G01Y58587D02*
G02X-26618Y57720I-866J-1D01*
G01X-21303Y51617D02*
X-23094D01*
G01X-25456D02*
X-27247D01*
G01X-24098Y65398D02*
X-21302D01*
G01X-24964Y62740D02*
Y64531D01*
G01D02*
G02X-24098Y65398I866J1D01*
G01X-21303Y66186D02*
X-23094D01*
G01X-28114Y67052D02*
Y69848D01*
G01X-25456Y66186D02*
X-27247D01*
G01D02*
G02X-28114Y67052I-1J866D01*
G01X-25752Y62740D02*
Y64531D01*
G01X-29414Y65398D02*
X-26618D01*
G01D02*
G02X-25752Y64531I0J-866D01*
G01X-21303Y71502D02*
X-23094D01*
G01X-28114Y72368D02*
Y75164D01*
G01X-25456Y71502D02*
X-27247D01*
G01X-28114Y75164D02*
G02X-27247Y76030I866J0D01*
G01Y71502D02*
G02X-28114Y72368I-1J866D01*
G01X-21303Y70714D02*
X-23094D01*
G01X-25456D02*
X-27247D01*
G01X-28114Y69848D02*
G02X-27247Y70714I866J0D01*
G01X-21303Y76818D02*
X-23094D01*
G01X-21303Y81346D02*
X-23094D01*
G01X-25456D02*
X-27247D01*
G01X-28114Y77684D02*
Y80480D01*
G01X-25456Y76818D02*
X-27247D01*
G01X-28114Y80480D02*
G02X-27247Y81346I866J0D01*
G01Y76818D02*
G02X-28114Y77684I-1J866D01*
G01X-21303Y76030D02*
X-23094D01*
G01X-25456D02*
X-27247D01*
G01X-23052Y94218D02*
Y91560D01*
G01X-18524D02*
X-23052D01*
G01Y99238D02*
Y96581D01*
G01X-18524Y99238D02*
X-23052D01*
G01X-21157Y-103365D02*
Y-106435D01*
G01X-18788Y-100019D02*
X-16976D01*
G01X-18788D02*
G02X-19654Y-99153I0J866D01*
G01X-16110D02*
G02X-16976Y-100019I-866J0D01*
G01X-14456Y-100019D02*
X-12644D01*
G01X-14456D02*
G02X-15322Y-99153I0J866D01*
G01X-19654Y-99153D02*
Y-98109D01*
G01X-16110Y-99153D02*
Y-98109D01*
G01Y-96298D02*
Y-95255D01*
G01X-18788Y-94389D02*
X-16976D01*
G01X-19654Y-96298D02*
Y-95255D01*
G01X-16976Y-94389D02*
G02X-16110Y-95255I0J-866D01*
G01X-19654D02*
G02X-18788Y-94389I866J0D01*
G01X-15322Y-99153D02*
Y-98109D01*
G01X-14456Y-94389D02*
X-12644D01*
G01X-15322Y-96298D02*
Y-95255D01*
G01D02*
G02X-14456Y-94389I866J0D01*
G01X-18136Y-83842D02*
Y-85633D01*
G01D02*
G02X-19002Y-86500I-866J-1D01*
G01X-21509Y-74881D02*
Y-76672D01*
G01X-18136Y-79689D02*
Y-81480D01*
G01X-19002Y-78822D02*
G02X-18136Y-79689I0J-866D01*
G01X-21509Y-70728D02*
Y-72519D01*
G01X-15086Y-58272D02*
Y-61894D01*
G01X-8511Y-63468D02*
X-13511Y-63469D01*
G01D02*
G02X-15086Y-61894I0J1575D01*
G01X-15874Y-58272D02*
Y-61894D01*
G01D02*
G02X-17449Y-63468I-1574J0D01*
G01X-8511Y-49531D02*
X-13511D01*
G01X-15086Y-51106D02*
Y-54728D01*
G01Y-51106D02*
G02X-13511Y-49531I1575J0D01*
G01X-15874Y-51106D02*
Y-54728D01*
G01X-17449Y-49531D02*
G02X-15874Y-51106I0J-1575D01*
G01X-20436Y42639D02*
G02X-21303Y41772I-866J0D01*
G01X-19043Y40927D02*
X-6957D01*
G01X-19043Y47146D02*
Y40927D01*
G01X-20436Y42639D02*
Y45435D01*
G01X-21303Y46301D02*
G02X-20436Y45435I1J-866D01*
G01Y47954D02*
Y50750D01*
G01Y47954D02*
G02X-21303Y47088I-866J0D01*
G01Y51617D02*
G02X-20436Y50750I1J-866D01*
G01X-19043Y47146D02*
X-6957D01*
G01X-20436Y58587D02*
Y60378D01*
G01Y58587D02*
G02X-21302Y57720I-866J-1D01*
G01X-20436Y53270D02*
Y56066D01*
G01Y53270D02*
G02X-21303Y52404I-866J0D01*
G01Y56932D02*
G02X-20436Y56066I1J-866D01*
G01X-20436Y62740D02*
Y64531D01*
G01X-21302Y65398D02*
G02X-20436Y64531I0J-866D01*
G01X-20436Y67052D02*
Y69848D01*
G01Y67052D02*
G02X-21303Y66186I-866J0D01*
G01X-20436Y72368D02*
Y75164D01*
G01Y72368D02*
G02X-21303Y71502I-866J0D01*
G01Y76030D02*
G02X-20436Y75164I1J-866D01*
G01X-21303Y70714D02*
G02X-20436Y69848I1J-866D01*
G01X-20436Y77684D02*
Y80480D01*
G01Y77684D02*
G02X-21303Y76818I-866J0D01*
G01Y81346D02*
G02X-20436Y80480I1J-866D01*
G01X-17337Y92427D02*
Y94218D01*
G01X-16471Y91560D02*
X-13674D01*
G01X-16471D02*
G02X-17337Y92427I0J866D01*
G01X-12808D02*
G02X-13674Y91560I-866J-1D01*
G01X-18524Y94218D02*
Y91560D01*
G01X-16471Y99238D02*
X-13674D01*
G01X-17337Y96581D02*
Y98372D01*
G01X-13674Y99238D02*
G02X-12808Y98372I0J-866D01*
G01X-17337D02*
G02X-16471Y99238I866J1D01*
G01X-18524D02*
Y96581D01*
G01X-11778Y-99153D02*
G02X-12644Y-100019I-866J0D01*
G01X-10990Y-98188D02*
Y-100019D01*
G01X-7446D02*
X-10990D01*
G01X-7446Y-98188D02*
Y-100019D01*
G01X-6657Y-98188D02*
Y-100019D01*
G01X-3113D02*
X-6657D01*
G01X-11778Y-99153D02*
Y-98109D01*
G01Y-96298D02*
Y-95255D01*
G01X-12644Y-94389D02*
G02X-11778Y-95255I0J-866D01*
G01X-10990Y-94389D02*
Y-96220D01*
G01X-7446Y-94389D02*
X-10990D01*
G01X-7446D02*
Y-96220D01*
G01X-6657Y-94389D02*
Y-96220D01*
G01X-3113Y-94389D02*
X-6657D01*
G01X-6936Y-58272D02*
Y-61894D01*
G01D02*
G02X-8511Y-63468I-1574J0D01*
G01X-6936Y-51106D02*
Y-54728D01*
G01X-8511Y-49531D02*
G02X-6936Y-51106I0J-1575D01*
G01X-4785Y41095D02*
G02X-5651Y41962I0J866D01*
G01Y43753D02*
Y41962D01*
G01X-6957Y47146D02*
Y40927D01*
G01X-5651Y47906D02*
G02X-4785Y48773I866J1D01*
G01X-5651Y47906D02*
Y46115D01*
G01X-12738Y74535D02*
Y76326D01*
G01X-11872Y73668D02*
X-9076D01*
G01X-8210Y74535D02*
Y76326D01*
G01X-11872Y73668D02*
G02X-12738Y74535I0J866D01*
G01X-8210D02*
G02X-9076Y73668I-866J-1D01*
G01X-5651D02*
X-1123D01*
G01X-5651D02*
Y76326D01*
G01X-8210Y78688D02*
Y80479D01*
G01X-11872Y81346D02*
X-9076D01*
G01X-12738Y78688D02*
Y80479D01*
G01X-9076Y81346D02*
G02X-8210Y80479I0J-866D01*
G01X-12738D02*
G02X-11872Y81346I866J1D01*
G01X-5651Y81346D02*
X-1123D01*
G01X-5651Y78688D02*
Y81346D01*
G01X-12808Y92427D02*
Y94218D01*
G01X-10039Y89871D02*
X-12697D01*
G01Y85342D02*
Y89871D01*
G01X-10039Y85342D02*
X-12697D01*
G01X-5019Y89871D02*
X-7677D01*
G01X-5019Y85342D02*
X-7677D01*
G01X-12808Y96581D02*
Y98372D01*
G01X-4513Y-105106D02*
Y-106937D01*
G01X-969D02*
X-4513D01*
G01X-969Y-105106D02*
Y-106937D01*
G01X-4513Y-101307D02*
Y-103138D01*
G01X-969Y-101307D02*
X-4513D01*
G01X-969D02*
Y-103138D01*
G01X-145Y-105106D02*
Y-106937D01*
G01X3399D02*
X-145D01*
G01Y-101307D02*
Y-103138D01*
G01X3399Y-101307D02*
X-145D01*
G01X2866Y-100019D02*
X4678D01*
G01X2866D02*
G02X2000Y-99153I0J866D01*
G01X-3113Y-98188D02*
Y-100019D01*
G01X2000Y-99153D02*
Y-98109D01*
G01X2866Y-94389D02*
X4678D01*
G01X2000Y-96298D02*
Y-95255D01*
G01D02*
G02X2866Y-94389I866J0D01*
G01X-3113Y-94389D02*
Y-96220D01*
G01X-1123Y41962D02*
G02X-1989Y41095I-866J-1D01*
G01X-1123Y43753D02*
Y41962D01*
G01X-1989Y41095D02*
X-4785D01*
G01X-1989Y48773D02*
G02X-1123Y47906I0J-866D01*
G01X-1989Y48773D02*
X-4785D01*
G01X-1123Y47906D02*
Y46115D01*
G01Y73668D02*
Y76326D01*
G01Y78688D02*
Y81346D01*
G01X-5019Y85342D02*
Y89871D01*
G01X3399Y-105106D02*
Y-106937D01*
G01Y-101307D02*
Y-103138D01*
G01X5544Y-99153D02*
G02X4678Y-100019I-866J0D01*
G01X7198D02*
X9010D01*
G01X7198D02*
G02X6332Y-99153I0J866D01*
G01X9876D02*
G02X9010Y-100019I-866J0D01*
G01X10664Y-98188D02*
Y-100019D01*
G01X14208D02*
X10664D01*
G01X5544Y-99153D02*
Y-98109D01*
G01Y-96298D02*
Y-95255D01*
G01X4678Y-94389D02*
G02X5544Y-95255I0J-866D01*
G01X6332Y-99153D02*
Y-98109D01*
G01X9876Y-99153D02*
Y-98109D01*
G01Y-96298D02*
Y-95255D01*
G01X7198Y-94389D02*
X9010D01*
G01X6332Y-96298D02*
Y-95255D01*
G01X9010Y-94389D02*
G02X9876Y-95255I0J-866D01*
G01X6332D02*
G02X7198Y-94389I866J0D01*
G01X10664D02*
Y-96220D01*
G01X14208Y-94389D02*
X10664D01*
G01X7561Y70144D02*
Y67348D01*
G01X8428Y66482D02*
X10219D01*
G01X8428D02*
G02X7561Y67348I-1J866D01*
G01X8428Y65694D02*
X10219D01*
G01X7561Y64828D02*
Y62032D01*
G01X8428Y61166D02*
X10219D01*
G01X7561Y64828D02*
G02X8428Y65694I866J0D01*
G01Y61166D02*
G02X7561Y62032I-1J866D01*
G01X8428Y71010D02*
X10219D01*
G01X7561Y70144D02*
G02X8428Y71010I866J0D01*
G01X8428Y81444D02*
X10219D01*
G01X7561Y80577D02*
Y77781D01*
G01X8428Y76915D02*
X10219D01*
G01X7561Y80577D02*
G02X8428Y81444I866J0D01*
G01Y76915D02*
G02X7561Y77781I-1J866D01*
G01X6715Y82834D02*
X18801D01*
G01X6715Y89054D02*
Y82834D01*
G01Y89054D02*
X18801D01*
G01X14996Y-98188D02*
Y-100019D01*
G01X18540D02*
X14996D01*
G01X18540Y-98188D02*
Y-100019D01*
G01X14208Y-98188D02*
Y-100019D01*
G01X14996Y-94389D02*
Y-96220D01*
G01X18540Y-94389D02*
X14996D01*
G01X18540D02*
Y-96220D01*
G01X14208Y-94389D02*
Y-96220D01*
G01X19722Y51535D02*
Y57835D01*
G01D02*
G02X21297Y59409I1574J0D01*
G01Y49961D02*
G02X19722Y51535I-1J1574D01*
G01X12581Y66482D02*
X14372D01*
G01X15239Y70144D02*
Y67348D01*
G01D02*
G02X14372Y66482I-866J0D01*
G01X12581Y61166D02*
X14372D01*
G01X15239Y64828D02*
Y62032D01*
G01X12581Y65694D02*
X14372D01*
G01X15239Y62032D02*
G02X14372Y61166I-866J0D01*
G01Y65694D02*
G02X15239Y64828I1J-866D01*
G01X19722Y62171D02*
Y68471D01*
G01X21297Y60597D02*
G02X19722Y62171I-1J1574D01*
G01X12581Y71010D02*
X14372D01*
G01D02*
G02X15239Y70144I1J-866D01*
G01X19722Y68471D02*
G02X21297Y70045I1574J0D01*
G01X19722Y72807D02*
Y79107D01*
G01X21297Y71233D02*
G02X19722Y72807I-1J1574D01*
G01X12581Y76915D02*
X14372D01*
G01X15239Y80577D02*
Y77781D01*
G01X12581Y81444D02*
X14372D01*
G01X15239Y77781D02*
G02X14372Y76915I-866J0D01*
G01Y81444D02*
G02X15239Y80577I1J-866D01*
G01X18801Y89054D02*
Y82834D01*
G01X19722Y79107D02*
G02X21297Y80681I1574J0D01*
G01X28012Y-109633D02*
Y-104298D01*
G01Y-109633D02*
X37460D01*
G01X28012Y-91089D02*
X37460D01*
G01X28012Y-96424D02*
Y-91089D01*
G01Y-82563D02*
Y-85457D01*
G01X29586Y-87031D02*
G02X28012Y-85457I0J1575D01*
G01Y-76520D02*
Y-79413D01*
G01Y-76520D02*
G02X29586Y-74945I1575J0D01*
G01X25057Y49961D02*
X21297D01*
G01X25057Y59409D02*
X21297D01*
G01X25057Y60597D02*
X21297D01*
G01X25057Y70045D02*
X21297D01*
G01X25057Y71233D02*
X21297D01*
G01X24329Y83444D02*
X24328Y88444D01*
G01X29525Y81870D02*
X25903D01*
G01D02*
G02X24329Y83444I0J1574D01*
G01X25057Y80681D02*
X21297D01*
G01X29525Y90019D02*
X25903D01*
G01X24328Y88444D02*
G02X25903Y90019I1575J0D01*
G01X32656Y-87031D02*
X29586D01*
G01X34231Y-82563D02*
Y-85457D01*
G01D02*
G02X32656Y-87031I-1577J3D01*
G01X35819Y-82563D02*
Y-85457D01*
G01X37394Y-87031D02*
G02X35819Y-85457I0J1575D01*
G01X34231Y-76520D02*
Y-79413D01*
G01X32656Y-74945D02*
X29586D01*
G01X32656D02*
G02X34231Y-76520I0J-1575D01*
G01X35819D02*
Y-79413D01*
G01Y-76520D02*
G02X37394Y-74945I1575J0D01*
G01X36691Y49961D02*
X32931D01*
G01X36691Y59409D02*
X32931D01*
G01X36691Y60597D02*
X32931D01*
G01X36691Y70045D02*
X32931D01*
G01X36691Y71233D02*
X32931D01*
G01X36691Y81870D02*
X33069D01*
G01X36691Y80681D02*
X32931D01*
G01X36691Y90019D02*
X33069D01*
G01X37399Y91207D02*
X35608D01*
G01X30588Y92073D02*
Y94869D01*
G01X33246Y91207D02*
X31455D01*
G01D02*
G02X30588Y92073I-1J866D01*
G01X37399Y95735D02*
X35608D01*
G01X33246D02*
X31455D01*
G01X30588Y94869D02*
G02X31455Y95735I866J0D01*
G01X46619Y-110821D02*
X44828D01*
G01X43961Y-114483D02*
Y-111687D01*
G01X46619Y-115349D02*
X44828D01*
G01X43961Y-111687D02*
G02X44828Y-110821I866J0D01*
G01Y-115349D02*
G02X43961Y-114483I-1J866D01*
G01X39553Y-108058D02*
Y-104988D01*
G01X44021Y-109633D02*
X41127D01*
G01D02*
G02X39553Y-108058I3J1577D01*
G01X37460Y-109633D02*
Y-104298D01*
G01X44021Y-103413D02*
X41127D01*
G01X39553Y-104988D02*
G02X41127Y-103413I1575J0D01*
G01X39553Y-100650D02*
Y-97580D01*
G01X44021Y-102225D02*
X41127D01*
G01D02*
G02X39553Y-100650I3J1577D01*
G01X43961Y-93952D02*
Y-91156D01*
G01X46619Y-94818D02*
X44828D01*
G01X43961Y-91156D02*
G02X44828Y-90289I866J0D01*
G01Y-94818D02*
G02X43961Y-93952I-1J866D01*
G01X44021Y-96006D02*
X41127D01*
G01X39553Y-97580D02*
G02X41127Y-96006I1575J0D01*
G01X37460Y-96424D02*
Y-91089D01*
G01X46619Y-90289D02*
X44828D01*
G01X40464Y-87031D02*
X37394D01*
G01X42039Y-82563D02*
Y-85457D01*
G01D02*
G02X40464Y-87031I-1577J3D01*
G01X42039Y-76520D02*
Y-79413D01*
G01X40464Y-74945D02*
X37394D01*
G01X40464D02*
G02X42039Y-76520I0J-1575D01*
G01X40836Y-56228D02*
Y-58019D01*
G01Y-60381D02*
Y-62172D01*
G01X44498Y-63039D02*
X41702D01*
G01D02*
G02X40836Y-62172I0J866D01*
G01X45364D02*
G02X44498Y-63039I-866J-1D01*
G01Y-55361D02*
X41702D01*
G01X44498D02*
G02X45364Y-56228I0J-866D01*
G01X40836D02*
G02X41702Y-55361I866J1D01*
G01X40254Y41962D02*
Y43753D01*
G01X41120Y41095D02*
X43916D01*
G01X44782Y41962D02*
Y43753D01*
G01X41120Y41095D02*
G02X40254Y41962I0J866D01*
G01X44782D02*
G02X43916Y41095I-866J-1D01*
G01X44782Y46115D02*
Y47906D01*
G01X41120Y48773D02*
X43916D01*
G01X40254Y46115D02*
Y47906D01*
G01X43916Y48773D02*
G02X44782Y47906I0J-866D01*
G01X40254D02*
G02X41120Y48773I866J1D01*
G01X38266Y51535D02*
G02X36691Y49961I-1574J0D01*
G01X40254Y52619D02*
Y49961D01*
G01X44782D02*
X40254D01*
G01X44782Y52619D02*
Y49961D01*
G01X38266Y51535D02*
Y57835D01*
G01X36691Y59409D02*
G02X38266Y57835I1J-1574D01*
G01X40254Y57639D02*
Y54981D01*
G01X44782Y57639D02*
X40254D01*
G01X44782D02*
Y54981D01*
G01X38266Y62171D02*
Y68471D01*
G01Y62171D02*
G02X36691Y60597I-1574J0D01*
G01Y70045D02*
G02X38266Y68471I1J-1574D01*
G01Y72807D02*
Y79107D01*
G01Y72807D02*
G02X36691Y71233I-1574J0D01*
G01X38266Y83444D02*
Y88444D01*
G01Y83444D02*
G02X36691Y81870I-1575J0D01*
G01X36691Y80681D02*
G02X38266Y79107I1J-1574D01*
G01X36691Y90019D02*
G02X38266Y88444I0J-1575D01*
G01Y92073D02*
Y94869D01*
G01Y92073D02*
G02X37399Y91207I-866J0D01*
G01Y95735D02*
G02X38266Y94869I1J-866D01*
G01X50772Y-115349D02*
X48981D01*
G01X51639Y-114483D02*
Y-111687D01*
G01X50772Y-110821D02*
X48981D01*
G01X51639Y-114483D02*
G02X50772Y-115349I-866J0D01*
G01Y-110821D02*
G02X51639Y-111687I1J-866D01*
G01X50064Y-109633D02*
X47171D01*
G01X51639Y-108058D02*
Y-104988D01*
G01Y-108058D02*
G02X50064Y-109633I-1575J0D01*
G01Y-103413D02*
X47171D01*
G01X50064D02*
G02X51639Y-104988I0J-1575D01*
G01X50064Y-102225D02*
X47171D01*
G01X51639Y-100650D02*
Y-97580D01*
G01Y-100650D02*
G02X50064Y-102225I-1575J0D01*
G01X50772Y-94818D02*
X48981D01*
G01X51639Y-93952D02*
Y-91156D01*
G01Y-93952D02*
G02X50772Y-94818I-866J0D01*
G01Y-90289D02*
G02X51639Y-91156I1J-866D01*
G01X50064Y-96006D02*
X47171D01*
G01X50064D02*
G02X51639Y-97580I0J-1575D01*
G01X50772Y-90289D02*
X48981D01*
G01X55019Y-67036D02*
X53228D01*
G01X52361Y-70698D02*
Y-67902D01*
G01X55019Y-71564D02*
X53228D01*
G01X52361Y-67902D02*
G02X53228Y-67036I866J0D01*
G01Y-71564D02*
G02X52361Y-70698I-1J866D01*
G01X53188Y-66064D02*
X55846D01*
G01X48168D02*
X50826D01*
G01X48168Y-61536D02*
Y-66064D01*
G01X45364Y-56228D02*
Y-58019D01*
G01Y-60381D02*
Y-62172D01*
G01X46928Y-59945D02*
Y-50496D01*
G01X52263Y-59945D02*
X46928D01*
G01X53188Y-61536D02*
X55846D01*
G01X48168D02*
X50826D01*
G01X52263Y-50496D02*
X46928D01*
G01X45570Y41962D02*
Y43753D01*
G01X46436Y41095D02*
X49232D01*
G01X50098Y41962D02*
Y43753D01*
G01X46436Y41095D02*
G02X45570Y41962I0J866D01*
G01X50098D02*
G02X49232Y41095I-866J-1D01*
G01X54548Y49961D02*
X51752D01*
G01D02*
G02X50885Y50828I0J866D01*
G01X50098Y46115D02*
Y47906D01*
G01X46436Y48773D02*
X49232D01*
G01X45570Y46115D02*
Y47906D01*
G01X49232Y48773D02*
G02X50098Y47906I0J-866D01*
G01X45570D02*
G02X46436Y48773I866J1D01*
G01X45570Y52619D02*
Y49961D01*
G01X50098D02*
X45570D01*
G01X50098Y52619D02*
Y49961D01*
G01X54548Y57639D02*
X51752D01*
G01X50885Y56772D02*
Y54981D01*
G01Y52619D02*
Y50828D01*
G01Y56772D02*
G02X51752Y57639I866J1D01*
G01X45570D02*
Y54981D01*
G01X50098Y57639D02*
X45570D01*
G01X50098D02*
Y54981D01*
G01X52726Y104543D02*
Y92457D01*
G01D02*
X46506D01*
G01Y104543D02*
Y92457D01*
G01X51788Y106136D02*
X49997D01*
G01X52655Y107002D02*
Y109798D01*
G01X44977Y107002D02*
Y109798D01*
G01X47635Y106136D02*
X45844D01*
G01X52655Y107002D02*
G02X51788Y106136I-866J0D01*
G01X45844D02*
G02X44977Y107002I-1J866D01*
G01X52726Y104543D02*
X46506D01*
G01X51788Y110664D02*
X49997D01*
G01X47635D02*
X45844D01*
G01X51788D02*
G02X52655Y109798I1J-866D01*
G01X44977D02*
G02X45844Y110664I866J0D01*
G01X56230Y-91864D02*
Y-94935D01*
G01X57805Y-96509D02*
X60698D01*
G01X56230Y-91864D02*
G02X57805Y-90290I1575J0D01*
G01Y-96509D02*
G02X56230Y-94935I0J1575D01*
G01X57805Y-90290D02*
X60698D01*
G01X60582Y-82563D02*
Y-85457D01*
G01X62157Y-87031D02*
G02X60582Y-85457I0J1575D01*
G01Y-76520D02*
Y-79413D01*
G01Y-76520D02*
G02X62157Y-74945I1575J0D01*
G01X59172Y-71564D02*
X57381D01*
G01X60039Y-70698D02*
Y-67902D01*
G01X59172Y-67036D02*
X57381D01*
G01X60039Y-70698D02*
G02X59172Y-71564I-866J0D01*
G01Y-67036D02*
G02X60039Y-67902I1J-866D01*
G01X55846Y-61536D02*
Y-66064D01*
G01X56554D02*
Y-61536D01*
G01X59212Y-66064D02*
X56554D01*
G01X64232D02*
X61574D01*
G01X65472Y-59945D02*
X60137D01*
G01X59212Y-61536D02*
X56554D01*
G01X64232D02*
X61574D01*
G01X65472Y-50496D02*
X60137D01*
G01X55414Y50828D02*
G02X54548Y49961I-866J-1D01*
G01X56201Y52619D02*
Y49961D01*
G01X60729D02*
X56201D01*
G01X60729Y52619D02*
Y49961D01*
G01X61517Y52619D02*
Y49961D01*
G01X66045D02*
X61517D01*
G01X55414Y56772D02*
Y54981D01*
G01Y52619D02*
Y50828D01*
G01X54548Y57639D02*
G02X55414Y56772I0J-866D01*
G01X56201Y57639D02*
Y54981D01*
G01X60729Y57639D02*
X56201D01*
G01X60729D02*
Y54981D01*
G01X61517Y57639D02*
Y54981D01*
G01X66045Y57639D02*
X61517D01*
G01X59793Y104543D02*
Y92457D01*
G01D02*
X53573D01*
G01Y104543D02*
Y92457D01*
G01X53644Y109798D02*
Y107002D01*
G01X54511Y106136D02*
X56302D01*
G01X58664D02*
X60455D01*
G01X61322Y109798D02*
Y107002D01*
G01X54511Y106136D02*
G02X53644Y107002I-1J866D01*
G01X61322D02*
G02X60455Y106136I-866J0D01*
G01X59793Y104543D02*
X53573D01*
G01X54511Y110664D02*
X56302D01*
G01X58664D02*
X60455D01*
G01X53644Y109798D02*
G02X54511Y110664I866J0D01*
G01X60455D02*
G02X61322Y109798I1J-866D01*
G01X63848Y-96509D02*
X66742D01*
G01X68316Y-91864D02*
Y-94935D01*
G01D02*
G02X66742Y-96509I-1575J0D01*
G01Y-90290D02*
G02X68316Y-91864I-3J-1577D01*
G01X63848Y-90290D02*
X66742D01*
G01X65227Y-87031D02*
X62157D01*
G01X66802Y-82563D02*
Y-85457D01*
G01D02*
G02X65227Y-87031I-1577J3D01*
G01X68390Y-82563D02*
Y-85457D01*
G01X73035Y-87031D02*
X69965D01*
G01D02*
G02X68390Y-85457I0J1575D01*
G01X66802Y-76520D02*
Y-79413D01*
G01X65227Y-74945D02*
X62157D01*
G01X65227D02*
G02X66802Y-76520I0J-1575D01*
G01X73035Y-74945D02*
X69965D01*
G01X68390Y-76520D02*
Y-79413D01*
G01Y-76520D02*
G02X69965Y-74945I1575J0D01*
G01X64232Y-66064D02*
Y-61536D01*
G01X67425Y-60496D02*
Y-64118D01*
G01X74000Y-65692D02*
X69000Y-65693D01*
G01D02*
G02X67425Y-64118I0J1575D01*
G01X65472Y-59945D02*
Y-50496D01*
G01X74000Y-51756D02*
X69000D01*
G01X67425Y-53330D02*
Y-56952D01*
G01Y-53330D02*
G02X69000Y-51756I1575J0D01*
G01X67261Y49985D02*
Y54513D01*
G01X69919Y49985D02*
X67261D01*
G01X66045Y52619D02*
Y49961D01*
G01X67261Y56167D02*
Y58963D01*
G01X69919Y55301D02*
X68128D01*
G01X67261Y58963D02*
G02X68128Y59829I866J0D01*
G01Y55301D02*
G02X67261Y56167I-1J866D01*
G01X69919Y54513D02*
X67261D01*
G01X66045Y57639D02*
Y54981D01*
G01X69919Y59829D02*
X68128D01*
G01X67261Y84434D02*
Y81638D01*
G01X68128Y80772D02*
X69919D01*
G01X68128D02*
G02X67261Y81638I-1J866D01*
G01X68128Y90616D02*
X69919D01*
G01X67261Y89750D02*
Y86954D01*
G01X68128Y86088D02*
X69919D01*
G01X67261Y89750D02*
G02X68128Y90616I866J0D01*
G01Y86088D02*
G02X67261Y86954I-1J866D01*
G01X68128Y85300D02*
X69919D01*
G01X67261Y84434D02*
G02X68128Y85300I866J0D01*
G01X72557Y-109880D02*
Y-105352D01*
G01X75215Y-109880D02*
X72557D01*
G01X80235D02*
X77577D01*
G01X73424Y-99636D02*
X75215D01*
G01X72557Y-100502D02*
Y-103298D01*
G01X73424Y-104164D02*
X75215D01*
G01X77577D02*
X79368D01*
G01X77577Y-99636D02*
X79368D01*
G01X72557Y-100502D02*
G02X73424Y-99636I866J0D01*
G01Y-104164D02*
G02X72557Y-103298I-1J866D01*
G01X75215Y-105352D02*
X72557D01*
G01X80235D02*
X77577D01*
G01X74610Y-82563D02*
Y-85457D01*
G01D02*
G02X73035Y-87031I-1577J3D01*
G01X74610Y-76520D02*
Y-79413D01*
G01X73035Y-74945D02*
G02X74610Y-76520I0J-1575D01*
G01X78136Y-66941D02*
Y-69599D01*
G01X82664D02*
X78136D01*
G01X75575Y-60496D02*
Y-64118D01*
G01D02*
G02X74000Y-65692I-1574J0D01*
G01X78136Y-61920D02*
Y-64578D01*
G01X82664Y-61920D02*
X78136D01*
G01Y-58074D02*
Y-60732D01*
G01X82664D02*
X78136D01*
G01X75575Y-53330D02*
Y-56952D01*
G01X74000Y-51756D02*
G02X75575Y-53330I0J-1575D01*
G01X78136Y-53054D02*
Y-55712D01*
G01X82664Y-53054D02*
X78136D01*
G01X74939Y49985D02*
Y54513D01*
G01Y49985D02*
X72281D01*
G01X74072Y55301D02*
X72281D01*
G01X74939Y56167D02*
Y58963D01*
G01Y56167D02*
G02X74072Y55301I-866J0D01*
G01Y59829D02*
G02X74939Y58963I1J-866D01*
G01Y54513D02*
X72281D01*
G01X78036Y69519D02*
Y66861D01*
G01X82564D02*
X78036D01*
G01X74072Y59829D02*
X72281D01*
G01X78036Y74539D02*
Y71881D01*
G01X82564Y74539D02*
X78036D01*
G01X72281Y80772D02*
X74072D01*
G01X74939Y84434D02*
Y81638D01*
G01D02*
G02X74072Y80772I-866J0D01*
G01X72281Y86088D02*
X74072D01*
G01X74939Y89750D02*
Y86954D01*
G01X72281Y90616D02*
X74072D01*
G01X74939Y86954D02*
G02X74072Y86088I-866J0D01*
G01Y90616D02*
G02X74939Y89750I1J-866D01*
G01X72281Y85300D02*
X74072D01*
G01D02*
G02X74939Y84434I1J-866D01*
G01X80235Y-109880D02*
Y-105352D01*
G01Y-100502D02*
Y-103298D01*
G01D02*
G02X79368Y-104164I-866J0D01*
G01Y-99636D02*
G02X80235Y-100502I1J-866D01*
G01X84252Y-66941D02*
Y-68732D01*
G01X87914Y-69599D02*
X85118D01*
G01D02*
G02X84252Y-68732I0J866D01*
G01X82664Y-66941D02*
Y-69599D01*
G01X87914Y-61921D02*
X85118D01*
G01X84252Y-62788D02*
Y-64578D01*
G01Y-62788D02*
G02X85118Y-61921I866J1D01*
G01X84252Y-59865D02*
Y-58074D01*
G01X85118Y-60732D02*
X87914D01*
G01X85118D02*
G02X84252Y-59865I0J866D01*
G01X82664Y-61920D02*
Y-64578D01*
G01Y-58074D02*
Y-60732D01*
G01X85118Y-53054D02*
X87914D01*
G01X84252Y-55712D02*
Y-53921D01*
G01D02*
G02X85118Y-53054I866J1D01*
G01X82664Y-53054D02*
Y-55712D01*
G01X82564Y69519D02*
Y66861D01*
G01Y74539D02*
Y71881D01*
G01X93464Y-111839D02*
Y-109181D01*
G01X88936Y-111839D02*
X93464D01*
G01X88936D02*
Y-109181D01*
G01X93464Y-106819D02*
Y-104161D01*
G01X88936D02*
X93464D01*
G01X88936Y-106819D02*
Y-104161D01*
G01X88780Y-66941D02*
Y-68732D01*
G01D02*
G02X87914Y-69599I-866J-1D01*
G01X88780Y-62788D02*
Y-64578D01*
G01X87914Y-61921D02*
G02X88780Y-62788I0J-866D01*
G01Y-59865D02*
Y-58074D01*
G01Y-59865D02*
G02X87914Y-60732I-866J-1D01*
G01X88780Y-55712D02*
Y-53921D01*
G01X87914Y-53054D02*
G02X88780Y-53921I0J-866D01*
G01X102599Y-108664D02*
X100808D01*
G01X95788Y-107798D02*
Y-105002D01*
G01X98446Y-108664D02*
X96655D01*
G01X103466Y-107798D02*
G02X102599Y-108664I-866J0D01*
G01X96655D02*
G02X95788Y-107798I-1J866D01*
G01X102599Y-104136D02*
X100808D01*
G01X98446D02*
X96655D01*
G01X102599D02*
G02X103466Y-105002I1J-866D01*
G01X95788D02*
G02X96655Y-104136I866J0D01*
G01X101792Y-69078D02*
X99134D01*
G01Y-73607D02*
Y-69078D01*
G01X101792Y-73607D02*
X99134D01*
G01X103466Y-107798D02*
Y-105002D01*
G01X104134D02*
Y-107798D01*
G01X105001Y-108664D02*
X106792D01*
G01X109154D02*
X110945D01*
G01X105001D02*
G02X104134Y-107798I-1J866D01*
G01X111812D02*
G02X110945Y-108664I-866J0D01*
G01X105001Y-104136D02*
X106792D01*
G01X109154D02*
X110945D01*
G01X104134Y-105002D02*
G02X105001Y-104136I866J0D01*
G01X110945D02*
G02X111812Y-105002I1J-866D01*
G01X110436Y-90181D02*
Y-91972D01*
G01X114098Y-92839D02*
X111302D01*
G01D02*
G02X110436Y-91972I0J866D01*
G01X114098Y-85161D02*
X111302D01*
G01X110436Y-86028D02*
Y-87819D01*
G01Y-86028D02*
G02X111302Y-85161I866J1D01*
G01X106812Y-69078D02*
X104154D01*
G01X106812Y-73607D02*
Y-69078D01*
G01Y-73607D02*
X104154D01*
G01X108861Y-60830D02*
Y-56302D01*
G01X111519Y-60830D02*
X108861D01*
G01X111519Y-50586D02*
X108861D01*
G01Y-55114D02*
Y-50586D01*
G01X111519Y-55114D02*
X108861D01*
G01X111519Y-56302D02*
X108861D01*
G01X111812Y-105002D02*
Y-107798D01*
G01X114964Y-90181D02*
Y-91972D01*
G01D02*
G02X114098Y-92839I-866J-1D01*
G01X114964Y-86028D02*
Y-87819D01*
G01X114098Y-85161D02*
G02X114964Y-86028I0J-866D01*
G01X116539Y-60830D02*
Y-56302D01*
G01Y-60830D02*
X113881D01*
G01X116539Y-50586D02*
X113881D01*
G01X116539Y-55114D02*
Y-50586D01*
G01Y-55114D02*
X113881D01*
G01X116539Y-56302D02*
X113881D01*
G01X123050Y-56692D02*
Y-60315D01*
G01X129624Y-61889D02*
X124624Y-61889D01*
G01D02*
G02X123050Y-60315I0J1575D01*
G01Y-49526D02*
Y-53148D01*
G01Y-49526D02*
G02X124624Y-47952I1575J0D01*
G01X129624D02*
X124624D01*
G01X123861Y46475D02*
X126519D01*
G01X123861Y51004D02*
Y46475D01*
G01X123861Y51791D02*
X126519D01*
G01X123861Y56319D02*
Y51791D01*
G01Y56319D02*
X126519D01*
G01X123861Y51004D02*
X126519D01*
G01X123861Y67136D02*
X126519D01*
G01X123861Y71664D02*
Y67136D01*
G01Y71664D02*
X126519D01*
G01X123861Y82436D02*
X126519D01*
G01X123861Y86964D02*
Y82436D01*
G01X126519Y81004D02*
X124728D01*
G01X123861Y77342D02*
Y80138D01*
G01X126519Y76476D02*
X124728D01*
G01X123861Y80138D02*
G02X124728Y81004I866J0D01*
G01Y76476D02*
G02X123861Y77342I-1J866D01*
G01Y86964D02*
X126519D01*
G01X132474Y-88772D02*
Y-86981D01*
G01X133341Y-89639D02*
X136137D01*
G01X132474Y-84619D02*
Y-82828D01*
G01X133341Y-89639D02*
G02X132474Y-88772I0J866D01*
G01X137003D02*
G02X136137Y-89639I-866J-1D01*
G01X132474Y-82828D02*
G02X133341Y-81961I866J1D01*
G01D02*
X136137D01*
G01D02*
G02X137003Y-82828I0J-866D01*
G01X131987Y-56692D02*
Y-60315D01*
G01X138562Y-61889D02*
X133562Y-61889D01*
G01D02*
G02X131987Y-60315I0J1575D01*
G01X131199Y-56692D02*
Y-60315D01*
G01D02*
G02X129624Y-61889I-1574J0D01*
G01X131987Y-49526D02*
Y-53148D01*
G01Y-49526D02*
G02X133562Y-47952I1575J0D01*
G01X131199Y-49526D02*
Y-53148D01*
G01X129624Y-47952D02*
G02X131199Y-49526I0J-1575D01*
G01X138562Y-47952D02*
X133562D01*
G01X128881Y46475D02*
X131539D01*
G01Y51004D02*
Y46475D01*
G01X128881Y51791D02*
X131539D01*
G01Y56319D02*
Y51791D01*
G01X128881Y56319D02*
X131539D01*
G01X128881Y51004D02*
X131539D01*
G01X128881Y67136D02*
X131539D01*
G01Y71664D02*
Y67136D01*
G01X128881Y71664D02*
X131539D01*
G01X128881Y82436D02*
X131539D01*
G01Y86964D02*
Y82436D01*
G01X130672Y76476D02*
X128881D01*
G01X131539Y77342D02*
Y80138D01*
G01X130672Y81004D02*
X128881D01*
G01X131539Y77342D02*
G02X130672Y76476I-866J0D01*
G01Y81004D02*
G02X131539Y80138I1J-866D01*
G01X128881Y86964D02*
X131539D01*
G01X138882Y116961D02*
X136086D01*
G01D02*
G02X135220Y117828I0J866D01*
G01X133566Y116961D02*
X130770D01*
G01D02*
G02X129904Y117828I0J866D01*
G01X134432D02*
G02X133566Y116961I-866J-1D01*
G01X138882Y124639D02*
X136086D01*
G01X135220Y123772D02*
Y121981D01*
G01Y119619D02*
Y117828D01*
G01Y123772D02*
G02X136086Y124639I866J1D01*
G01X134432Y123772D02*
Y121981D01*
G01X133566Y124639D02*
X130770D01*
G01X129904Y123772D02*
Y121981D01*
G01Y119619D02*
Y117828D01*
G01X134432Y119619D02*
Y117828D01*
G01X133566Y124639D02*
G02X134432Y123772I0J-866D01*
G01X129904D02*
G02X130770Y124639I866J1D01*
G01X138190Y-82828D02*
G02X139056Y-81961I866J1D01*
G01X141852D02*
G02X142718Y-82828I0J-866D01*
G01Y-88772D02*
G02X141852Y-89639I-866J-1D01*
G01X139056D02*
G02X138190Y-88772I0J866D01*
G01Y-84619D02*
Y-82828D01*
G01X142718Y-84619D02*
Y-82828D01*
G01Y-88772D02*
Y-86981D01*
G01X139056Y-89639D02*
X141852D01*
G01X138190Y-88772D02*
Y-86981D01*
G01X137003Y-88772D02*
Y-86981D01*
G01Y-84619D02*
Y-82828D01*
G01X143906Y-88772D02*
Y-86981D01*
G01X144772Y-89639D02*
X147568D01*
G01X143906Y-84619D02*
Y-82828D01*
G01X144772Y-89639D02*
G02X143906Y-88772I0J866D01*
G01Y-82828D02*
G02X144772Y-81961I866J1D01*
G01X139056D02*
X141852D01*
G01X144772D02*
X147568D01*
G01X140925Y-56692D02*
Y-60315D01*
G01X147500Y-61889D02*
X142500Y-61889D01*
G01D02*
G02X140925Y-60315I0J1575D01*
G01X140137Y-56692D02*
Y-60315D01*
G01D02*
G02X138562Y-61889I-1574J0D01*
G01X140925Y-49526D02*
Y-53148D01*
G01Y-49526D02*
G02X142500Y-47952I1575J0D01*
G01X140137Y-49526D02*
Y-53148D01*
G01X138562Y-47952D02*
G02X140137Y-49526I0J-1575D01*
G01X147500Y-47952D02*
X142500D01*
G01X144198Y116961D02*
X141402D01*
G01D02*
G02X140536Y117828I0J866D01*
G01X145064D02*
G02X144198Y116961I-866J-1D01*
G01X139748Y117828D02*
G02X138882Y116961I-866J-1D01*
G01X144198Y124639D02*
X141402D01*
G01X140536Y123772D02*
Y121981D01*
G01Y119619D02*
Y117828D01*
G01X144198Y124639D02*
G02X145064Y123772I0J-866D01*
G01X140536D02*
G02X141402Y124639I866J1D01*
G01X139748Y123772D02*
Y121981D01*
G01Y119619D02*
Y117828D01*
G01X138882Y124639D02*
G02X139748Y123772I0J-866D01*
G01X148434Y-88772D02*
Y-86981D01*
G01Y-84619D02*
Y-82828D01*
G01Y-88772D02*
G02X147568Y-89639I-866J-1D01*
G01Y-81961D02*
G02X148434Y-82828I0J-866D01*
G01X149622Y-84619D02*
Y-81961D01*
G01Y-89639D02*
X154150D01*
G01X149622D02*
Y-86981D01*
G01Y-81961D02*
X154150D01*
G01X149075Y-56692D02*
Y-60315D01*
G01D02*
G02X147500Y-61889I-1574J0D01*
G01X149075Y-49526D02*
Y-53148D01*
G01X147500Y-47952D02*
G02X149075Y-49526I0J-1575D01*
G01X149514Y116961D02*
X146718D01*
G01D02*
G02X145852Y117828I0J866D01*
G01X150380D02*
G02X149514Y116961I-866J-1D01*
G01X145064Y123772D02*
Y121981D01*
G01Y119619D02*
Y117828D01*
G01X150380Y123772D02*
Y121981D01*
G01X149514Y124639D02*
X146718D01*
G01X145852Y123772D02*
Y121981D01*
G01Y119619D02*
Y117828D01*
G01X150380Y119619D02*
Y117828D01*
G01X149514Y124639D02*
G02X150380Y123772I0J-866D01*
G01X145852D02*
G02X146718Y124639I866J1D01*
G01X155338Y-88772D02*
Y-86981D01*
G01X156204Y-89639D02*
X159000D01*
G01X159866Y-88772D02*
Y-86981D01*
G01Y-84619D02*
Y-82828D01*
G01X155338Y-84619D02*
Y-82828D01*
G01X156204Y-89639D02*
G02X155338Y-88772I0J866D01*
G01X159866D02*
G02X159000Y-89639I-866J-1D01*
G01Y-81961D02*
G02X159866Y-82828I0J-866D01*
G01X155338D02*
G02X156204Y-81961I866J1D01*
G01X161214Y-88772D02*
Y-86981D01*
G01Y-84619D02*
Y-82828D01*
G01X162081Y-89639D02*
G02X161214Y-88772I0J866D01*
G01Y-82828D02*
G02X162081Y-81961I866J1D01*
G01X154150Y-84619D02*
Y-81961D01*
G01Y-89639D02*
Y-86981D01*
G01X156204Y-81961D02*
X159000D01*
G01X158544Y53661D02*
Y51298D01*
G01X162425Y123615D02*
X160614D01*
G01X159747Y122749D02*
Y121705D01*
G01Y119894D02*
Y118851D01*
G01X162425Y117985D02*
X160614D01*
G01X159747Y122749D02*
G02X160614Y123615I866J0D01*
G01Y117985D02*
G02X159747Y118851I0J866D01*
G01X158531Y122749D02*
Y121705D01*
G01X157665Y123615D02*
X155853D01*
G01X154987Y122749D02*
Y121705D01*
G01Y119894D02*
Y118851D01*
G01X157665Y117985D02*
X155853D01*
G01X158531Y119894D02*
Y118851D01*
G01X157665Y123615D02*
G02X158531Y122749I0J-866D01*
G01X154987D02*
G02X155853Y123615I866J0D01*
G01Y117985D02*
G02X154987Y118851I0J866D01*
G01X158531D02*
G02X157665Y117985I-866J0D01*
G01X162081Y-89639D02*
X164877D01*
G01X165743Y-88772D02*
Y-86981D01*
G01Y-84619D02*
Y-82828D01*
G01Y-88772D02*
G02X164877Y-89639I-866J-1D01*
G01Y-81961D02*
G02X165743Y-82828I0J-866D01*
G01X162081Y-81961D02*
X164877D01*
G01X164836Y51298D02*
Y48640D01*
G01X169364D02*
X164836D01*
G01X169364Y51298D02*
Y48640D01*
G01X164836Y56318D02*
Y53661D01*
G01X169364Y56318D02*
X164836D01*
G01X169364D02*
Y53661D01*
G01X163292Y122749D02*
Y121705D01*
G01Y119894D02*
Y118851D01*
G01X162425Y123615D02*
G02X163292Y122749I0J-866D01*
G01Y118851D02*
G02X162425Y117985I-866J0D01*
G01X177459Y-125939D02*
X181988D01*
G01X177459D02*
Y-123281D01*
G01Y-118261D02*
X181988D01*
G01X177459Y-120919D02*
Y-118261D01*
G01X181988Y-125939D02*
Y-123281D01*
G01X182775Y-125939D02*
X187304D01*
G01X182775D02*
Y-123281D01*
G01X186339Y-131964D02*
X184548D01*
G01X186339Y-127436D02*
X184548D01*
G01X182186D02*
X180394D01*
G01X179528Y-131098D02*
Y-128302D01*
G01X182186Y-131964D02*
X180394D01*
G01X187206Y-131098D02*
G02X186339Y-131964I-866J0D01*
G01Y-127436D02*
G02X187206Y-128302I1J-866D01*
G01X179528D02*
G02X180394Y-127436I866J0D01*
G01Y-131964D02*
G02X179528Y-131098I-1J866D01*
G01X181988Y-120919D02*
Y-118261D01*
G01X182775D02*
X187304D01*
G01X182775Y-120919D02*
Y-118261D01*
G01X184828Y48513D02*
X186619D01*
G01X183961Y47647D02*
Y44851D01*
G01X184828Y43985D02*
X186619D01*
G01X183961Y47647D02*
G02X184828Y48513I866J0D01*
G01Y43985D02*
G02X183961Y44851I-1J866D01*
G01Y49300D02*
Y53829D01*
G01X186619Y49300D02*
X183961D01*
G01X186619Y59145D02*
X184828D01*
G01X183961Y55482D02*
Y58278D01*
G01X186619Y54616D02*
X184828D01*
G01X183961Y58278D02*
G02X184828Y59145I866J0D01*
G01Y54616D02*
G02X183961Y55482I-1J866D01*
G01X186619Y53829D02*
X183961D01*
G01X186619Y64460D02*
X184828D01*
G01X183961Y60798D02*
Y63594D01*
G01X186619Y59932D02*
X184828D01*
G01X183961Y63594D02*
G02X184828Y64460I866J0D01*
G01Y59932D02*
G02X183961Y60798I-1J866D01*
G01X187304Y-125939D02*
Y-123281D01*
G01X187206Y-131098D02*
Y-128302D01*
G01X192619Y-125939D02*
Y-123281D01*
G01X188091Y-125939D02*
X192619D01*
G01X188091D02*
Y-123281D01*
G01X187304Y-120919D02*
Y-118261D01*
G01X192619Y-120919D02*
Y-118261D01*
G01X188091D02*
X192619D01*
G01X188091Y-120919D02*
Y-118261D01*
G01X188981Y43985D02*
X190772D01*
G01X191639Y47647D02*
Y44851D01*
G01X188981Y48513D02*
X190772D01*
G01X191639Y44851D02*
G02X190772Y43985I-866J0D01*
G01Y48513D02*
G02X191639Y47647I1J-866D01*
G01Y49300D02*
Y53829D01*
G01Y49300D02*
X188981D01*
G01X190772Y54616D02*
X188981D01*
G01X191639Y55482D02*
Y58278D01*
G01X190772Y59145D02*
X188981D01*
G01X191639Y55482D02*
G02X190772Y54616I-866J0D01*
G01Y59145D02*
G02X191639Y58278I1J-866D01*
G01Y53829D02*
X188981D01*
G01X190772Y59932D02*
X188981D01*
G01X191639Y60798D02*
Y63594D01*
G01X190772Y64460D02*
X188981D01*
G01X191639Y60798D02*
G02X190772Y59932I-866J0D01*
G01Y64460D02*
G02X191639Y63594I1J-866D01*
G01X195157Y-77638D02*
Y-74568D01*
G01X199625Y-79213D02*
X196731D01*
G01X205668D02*
X202775D01*
G01X195157Y-74568D02*
G02X196731Y-72993I1575J0D01*
G01Y-79213D02*
G02X195157Y-77638I3J1577D01*
G01Y-69830D02*
Y-66760D01*
G01X199625Y-71405D02*
X196731D01*
G01X205668D02*
X202775D01*
G01X195157Y-66760D02*
G02X196731Y-65185I1575J0D01*
G01Y-71405D02*
G02X195157Y-69830I3J1577D01*
G01X199625Y-72993D02*
X196731D01*
G01X205668D02*
X202775D01*
G01X199625Y-65185D02*
X196731D01*
G01X205668D02*
X202775D01*
G01X207243Y-77638D02*
Y-74568D01*
G01Y-77638D02*
G02X205668Y-79213I-1575J0D01*
G01Y-72993D02*
G02X207243Y-74568I0J-1575D01*
G01Y-69830D02*
Y-66760D01*
G01Y-69830D02*
G02X205668Y-71405I-1575J0D01*
G01Y-65185D02*
G02X207243Y-66760I0J-1575D01*
G01X215228Y-51196D02*
X217019D01*
G01X214361Y-52062D02*
Y-54858D01*
G01X215228Y-55724D02*
X217019D01*
G01X219381D02*
X221172D01*
G01X219381Y-51196D02*
X221172D01*
G01X214361Y-52062D02*
G02X215228Y-51196I866J0D01*
G01Y-55724D02*
G02X214361Y-54858I-1J866D01*
G01X219381Y-50408D02*
X222039D01*
G01X214361D02*
X217019D01*
G01X214361Y-45880D02*
Y-50408D01*
G01X219381Y-45880D02*
X222039D01*
G01X214361D02*
X217019D01*
G01X216699Y-33466D02*
X215655D01*
G01X213844D02*
X212801D01*
G01X217565Y-32600D02*
G02X216699Y-33466I-866J0D01*
G01X212801D02*
G02X211935Y-32600I0J866D01*
G01X217565D02*
Y-30788D01*
G01X216699Y-29922D02*
X215655D01*
G01X213844D02*
X212801D01*
G01X211935Y-32600D02*
Y-30788D01*
G01X216699Y-29922D02*
G02X217565Y-30788I0J-866D01*
G01X211935D02*
G02X212801Y-29922I866J0D01*
G01X216699Y-29134D02*
X215655D01*
G01X217565Y-28267D02*
Y-26456D01*
G01X216699Y-25590D02*
X215655D01*
G01X213844D02*
X212801D01*
G01X211935Y-28267D02*
Y-26456D01*
G01X213844Y-29134D02*
X212801D01*
G01X217565Y-28267D02*
G02X216699Y-29134I-866J0D01*
G01Y-25590D02*
G02X217565Y-26456I0J-866D01*
G01X211935D02*
G02X212801Y-25590I866J0D01*
G01Y-29134D02*
G02X211935Y-28267I0J866D01*
G01X216698Y-21772D02*
X215655D01*
G01X217565Y-20906D02*
Y-19094D01*
G01X216698Y-18228D02*
X215655D01*
G01X213844D02*
X212801D01*
G01X211935Y-20906D02*
Y-19094D01*
G01X213844Y-21772D02*
X212801D01*
G01X217565Y-20906D02*
G02X216698Y-21772I-866J0D01*
G01Y-18228D02*
G02X217565Y-19094I0J-866D01*
G01X211935D02*
G02X212801Y-18228I866J0D01*
G01Y-21772D02*
G02X211935Y-20906I0J866D01*
G01X216698Y-17440D02*
X215655D01*
G01X217565Y-16574D02*
Y-14762D01*
G01X211935Y-16574D02*
Y-14762D01*
G01X213844Y-17440D02*
X212801D01*
G01X217565Y-16574D02*
G02X216698Y-17440I-866J0D01*
G01X212801D02*
G02X211935Y-16574I0J866D01*
G01X216698Y-13896D02*
X215655D01*
G01X213844D02*
X212801D01*
G01X216698D02*
G02X217565Y-14762I0J-866D01*
G01X211935D02*
G02X212801Y-13896I866J0D01*
G01X216698Y-9844D02*
X215655D01*
G01X217565Y-8978D02*
Y-7166D01*
G01X211935Y-8978D02*
Y-7166D01*
G01X213844Y-9844D02*
X212801D01*
G01X217565Y-8978D02*
G02X216698Y-9844I-866J0D01*
G01X212801D02*
G02X211935Y-8978I0J866D01*
G01X216698Y-6300D02*
X215655D01*
G01X213844D02*
X212801D01*
G01X216698D02*
G02X217565Y-7166I0J-866D01*
G01X211935D02*
G02X212801Y-6300I866J0D01*
G01X216698Y-5512D02*
X215655D01*
G01X217565Y-4645D02*
Y-2834D01*
G01X216698Y-1968D02*
X215655D01*
G01X213844D02*
X212801D01*
G01X211935Y-4645D02*
Y-2834D01*
G01X213844Y-5512D02*
X212801D01*
G01X217565Y-4645D02*
G02X216698Y-5512I-866J0D01*
G01Y-1968D02*
G02X217565Y-2834I0J-866D01*
G01X211935D02*
G02X212801Y-1968I866J0D01*
G01Y-5512D02*
G02X211935Y-4645I0J866D01*
G01X216698Y1967D02*
X215655D01*
G01X217564Y2834D02*
Y4645D01*
G01X216698Y5511D02*
X215655D01*
G01X213844D02*
X212801D01*
G01X211935Y2834D02*
Y4645D01*
G01X213844Y1967D02*
X212801D01*
G01X217564Y2834D02*
G02X216698Y1967I-866J0D01*
G01Y5511D02*
G02X217564Y4645I0J-866D01*
G01X211935D02*
G02X212801Y5511I866J0D01*
G01Y1967D02*
G02X211935Y2834I0J866D01*
G01X216698Y6300D02*
X215655D01*
G01X217565Y7166D02*
Y8978D01*
G01X211935Y7166D02*
Y8978D01*
G01X213844Y6300D02*
X212801D01*
G01X217565Y7166D02*
G02X216698Y6300I-866J0D01*
G01Y9844D02*
G02X217565Y8978I0J-866D01*
G01X211935D02*
G02X212801Y9844I866J0D01*
G01Y6300D02*
G02X211935Y7166I0J866D01*
G01X216698Y9844D02*
X215655D01*
G01X213844D02*
X212801D01*
G01X216484Y37828D02*
Y39619D01*
G01X217350Y36961D02*
X220146D01*
G01X216484Y41981D02*
Y43772D01*
G01X217350Y36961D02*
G02X216484Y37828I0J866D01*
G01X217350Y44639D02*
X220146D01*
G01X216484Y43772D02*
G02X217350Y44639I866J1D01*
G01X216484Y58398D02*
Y60189D01*
G01X217350Y57531D02*
X220146D01*
G01X217350D02*
G02X216484Y58398I0J866D01*
G01X217350Y65209D02*
X220146D01*
G01X216484Y62551D02*
Y64342D01*
G01D02*
G02X217350Y65209I866J1D01*
G01X213136Y119619D02*
Y116961D01*
G01X217664D02*
X213136D01*
G01X217664Y119619D02*
Y116961D01*
G01X213136Y124639D02*
Y121981D01*
G01X217664Y124639D02*
X213136D01*
G01X217664D02*
Y121981D01*
G01X222039Y-52062D02*
Y-54858D01*
G01D02*
G02X221172Y-55724I-866J0D01*
G01Y-51196D02*
G02X222039Y-52062I1J-866D01*
G01Y-45880D02*
Y-50408D01*
G01X227036Y-34519D02*
Y-31861D01*
G01X222507Y-34519D02*
Y-31861D01*
G01X227036Y-39539D02*
Y-36881D01*
G01X222507Y-39539D02*
X227036D01*
G01X222507D02*
Y-36881D01*
G01Y-31861D02*
X227036D01*
G01X221012Y37828D02*
Y39619D01*
G01Y41981D02*
Y43772D01*
G01Y37828D02*
G02X220146Y36961I-866J-1D01*
G01X221800Y37828D02*
Y39619D01*
G01X222666Y36961D02*
X225462D01*
G01X226328Y37828D02*
Y39619D01*
G01Y41981D02*
Y43772D01*
G01X221800Y41981D02*
Y43772D01*
G01X222666Y36961D02*
G02X221800Y37828I0J866D01*
G01X226328D02*
G02X225462Y36961I-866J-1D01*
G01X220146Y44639D02*
G02X221012Y43772I0J-866D01*
G01X222666Y44639D02*
X225462D01*
G01D02*
G02X226328Y43772I0J-866D01*
G01X221800D02*
G02X222666Y44639I866J1D01*
G01X221012Y58398D02*
Y60189D01*
G01Y58398D02*
G02X220146Y57531I-866J-1D01*
G01X221800Y58398D02*
Y60189D01*
G01X222666Y57531D02*
X225462D01*
G01X226328Y58398D02*
Y60189D01*
G01X222666Y57531D02*
G02X221800Y58398I0J866D01*
G01X226328D02*
G02X225462Y57531I-866J-1D01*
G01X221012Y62551D02*
Y64342D01*
G01X220146Y65209D02*
G02X221012Y64342I0J-866D01*
G01X226328Y62551D02*
Y64342D01*
G01X222666Y65209D02*
X225462D01*
G01X221800Y62551D02*
Y64342D01*
G01X225462Y65209D02*
G02X226328Y64342I0J-866D01*
G01X221800D02*
G02X222666Y65209I866J1D01*
G01X236944Y-55616D02*
X235153D01*
G01X236944Y-51088D02*
X235153D01*
G01X232791D02*
X231000D01*
G01X230133Y-54750D02*
Y-51954D01*
G01X232791Y-55616D02*
X231000D01*
G01X230133Y-51954D02*
G02X231000Y-51088I866J0D01*
G01Y-55616D02*
G02X230133Y-54750I-1J866D01*
G01X236944Y-50300D02*
X235153D01*
G01X230133Y-49434D02*
Y-46638D01*
G01X232791Y-50300D02*
X230999D01*
G01D02*
G02X230133Y-49434I-1J866D01*
G01X236944Y-45772D02*
X235153D01*
G01X232791D02*
X230999D01*
G01X230133Y-46638D02*
G02X230999Y-45772I866J0D01*
G01Y-24829D02*
X232790D01*
G01X235153D02*
X236944D01*
G01X230999D02*
G02X230133Y-23963I-1J866D01*
G01X230999Y-20301D02*
X232790D01*
G01X230133Y-21167D02*
Y-23963D01*
G01X235153Y-20301D02*
X236944D01*
G01X230133Y-21167D02*
G02X230999Y-20301I866J0D01*
G01X235153Y-19513D02*
X237811D01*
G01X230133D02*
X232791D01*
G01X230133Y-14985D02*
Y-19513D01*
G01X235153Y-14985D02*
X237811D01*
G01X230133D02*
X232791D01*
G01X232561Y47736D02*
X235219D01*
G01X232561Y52264D02*
Y47736D01*
G01Y52264D02*
X235219D01*
G01X232561Y68306D02*
X235219D01*
G01X232561Y72834D02*
Y68306D01*
G01Y72834D02*
X235219D01*
G01X237811Y-54750D02*
Y-51954D01*
G01Y-54750D02*
G02X236944Y-55616I-866J0D01*
G01Y-51088D02*
G02X237811Y-51954I1J-866D01*
G01X237810Y-49434D02*
Y-46638D01*
G01Y-49434D02*
G02X236944Y-50300I-866J0D01*
G01Y-45772D02*
G02X237810Y-46638I1J-866D01*
G01X243577Y-34519D02*
Y-31861D01*
G01Y-39539D02*
X248106D01*
G01X243577D02*
Y-36881D01*
G01X237810Y-23963D02*
G02X236944Y-24829I-866J0D01*
G01X243577Y-31861D02*
X248106D01*
G01X237810Y-21167D02*
Y-23963D01*
G01X236944Y-20301D02*
G02X237810Y-21167I1J-866D01*
G01X237811Y-14985D02*
Y-19513D01*
G01X237581Y47736D02*
X240239D01*
G01Y52264D02*
Y47736D01*
G01X237581Y52264D02*
X240239D01*
G01X237581Y68306D02*
X240239D01*
G01Y72834D02*
Y68306D01*
G01X237581Y72834D02*
X240239D01*
G01X253860Y-51088D02*
X252069D01*
G01X251202Y-54750D02*
Y-51954D01*
G01X253860Y-55616D02*
X252069D01*
G01X251202Y-51954D02*
G02X252069Y-51088I866J0D01*
G01Y-55616D02*
G02X251202Y-54750I-1J866D01*
G01X251202Y-49434D02*
Y-46638D01*
G01X253860Y-50300D02*
X252069D01*
G01D02*
G02X251202Y-49434I-1J866D01*
G01X253860Y-45772D02*
X252069D01*
G01X251202Y-46638D02*
G02X252069Y-45772I866J0D01*
G01X248106Y-34519D02*
Y-31861D01*
G01Y-39539D02*
Y-36881D01*
G01X252069Y-24829D02*
X253860D01*
G01X252069D02*
G02X251202Y-23963I-1J866D01*
G01X252069Y-20301D02*
X253860D01*
G01X251202Y-21167D02*
Y-23963D01*
G01Y-21167D02*
G02X252069Y-20301I866J0D01*
G01X251799Y43772D02*
Y41981D01*
G01X247271Y43772D02*
Y41981D01*
G01Y39619D02*
Y37828D01*
G01X250933Y36961D02*
X248137D01*
G01X251799Y39619D02*
Y37828D01*
G01X248137Y36961D02*
G02X247271Y37828I0J866D01*
G01X251799D02*
G02X250933Y36961I-866J-1D01*
G01X252587Y39619D02*
Y36961D01*
G01X257115D02*
X252587D01*
G01Y44639D02*
Y41981D01*
G01X250933Y44639D02*
X248137D01*
G01X250933D02*
G02X251799Y43772I0J-866D01*
G01X247271D02*
G02X248137Y44639I866J1D01*
G01X257115Y44639D02*
X252587D01*
G01X247271Y60189D02*
Y58398D01*
G01X250933Y57531D02*
X248137D01*
G01X251799Y60189D02*
Y58398D01*
G01X248137Y57531D02*
G02X247271Y58398I0J866D01*
G01X251799D02*
G02X250933Y57531I-866J-1D01*
G01X252587Y60189D02*
Y57531D01*
G01X257115D02*
X252587D01*
G01X251799Y64342D02*
Y62551D01*
G01X250933Y65209D02*
X248137D01*
G01X247271Y64342D02*
Y62551D01*
G01X250933Y65209D02*
G02X251799Y64342I0J-866D01*
G01X247271D02*
G02X248137Y65209I866J1D01*
G01X252587Y65209D02*
Y62551D01*
G01X257115Y65209D02*
X252587D01*
G01X258013Y-55616D02*
X256222D01*
G01X258880Y-54750D02*
Y-51954D01*
G01X258013Y-51088D02*
X256222D01*
G01X258880Y-54750D02*
G02X258013Y-55616I-866J0D01*
G01Y-51088D02*
G02X258880Y-51954I1J-866D01*
G01X258013Y-50300D02*
X256222D01*
G01X258880Y-49434D02*
Y-46638D01*
G01Y-49434D02*
G02X258013Y-50300I-866J0D01*
G01Y-45772D02*
X256222D01*
G01X258013D02*
G02X258880Y-46638I1J-866D01*
G01X256222Y-24829D02*
X258013D01*
G01X258880Y-23963D02*
G02X258013Y-24829I-866J0D01*
G01X258880Y-21167D02*
Y-23963D01*
G01X256222Y-20301D02*
X258013D01*
G01D02*
G02X258880Y-21167I1J-866D01*
G01X257115Y39619D02*
Y36961D01*
G01Y44639D02*
Y41981D01*
G01Y60189D02*
Y57531D01*
G01Y65209D02*
Y62551D01*
G54D15*
G01X-181001Y62256D02*
G03I-492J0D01*
G01X-61244Y-102804D02*
G03I-492J0D01*
G01X-42343Y62717D02*
G03I-492J0D01*
G01X-16896Y-106969D02*
G03I-492J0D01*
G01X4758D02*
G03I-492J0D01*
G01X5522Y69099D02*
G03I-492J0D01*
G01X58632Y-101415D02*
G03I-492J0D01*
G01X63957Y62717D02*
G03I-492J0D01*
G01X109568Y-101599D02*
G03I-492J0D01*
G01X195885Y-63696D02*
G03I-492J0D01*
G54D16*
G01X-222474Y-75992D02*
X-227592D01*
G01D02*
Y-50008D01*
G01D02*
X-222474D01*
G01X-214088Y27430D02*
X-225112D01*
G01Y31368D02*
Y27430D01*
G01X-214088Y31368D02*
X-225112D01*
G01X-214088D02*
Y27430D01*
G01X-206726Y-50008D02*
X-201608D01*
Y-75992D01*
X-206726D01*
G01X-198017Y-17412D02*
X-194079D01*
G01X-198017Y-6388D02*
Y-17412D01*
G01Y-6388D02*
X-194079D01*
G01D02*
Y-17412D01*
G01X-178506Y-135528D02*
Y-147635D01*
X-170901D01*
G01X-178506Y-124898D02*
Y-96552D01*
G01Y-87792D02*
X-160733D01*
G01X-167100Y-146925D02*
G02X-170901Y-147635I-7407J29133D01*
G01X-145535Y-144879D02*
G03X-167100Y-146925I-1938J-94236D01*
G01X-165119Y47689D02*
X-167481D01*
G01X-165119Y63831D02*
X-167481D01*
G01X-158034Y-82743D02*
X-158821D01*
G01X-157443Y-79200D02*
X-159411D01*
G01X-153703Y-82743D02*
X-154490D01*
G01X-149372D02*
X-150159D01*
G01X-153112Y-79200D02*
X-155081D01*
G01X-148781D02*
X-150750D01*
G01X-120632Y-135528D02*
Y-144879D01*
X-145535D01*
G01X-140711Y-82743D02*
X-141498D01*
G01X-145041D02*
X-145829D01*
G01X-140120Y-79200D02*
X-142088D01*
G01X-144451D02*
X-146419D01*
G01X-132049Y-82743D02*
X-132837D01*
G01X-131459Y-79200D02*
X-133427D01*
G01X-127718Y-82743D02*
X-128506D01*
G01X-123388D02*
X-124175D01*
G01X-127128Y-79200D02*
X-129096D01*
G01X-122797D02*
X-124766D01*
G01X-100426Y-142065D02*
G03I-7874J0D01*
G01X-120632Y-124505D02*
Y-96552D01*
G01X-108316Y-75992D02*
X-113434D01*
Y-50008D01*
X-108316D01*
G01X-105300Y-142900D02*
Y-146900D01*
G01X-111300Y-142900D02*
Y-146900D01*
G01X-113300Y-144900D02*
X-109300D01*
G01X-87450Y-75992D02*
X-92568D01*
G01Y-50008D02*
X-87450D01*
G01D02*
Y-75992D01*
G01X-26378Y115214D02*
Y110191D01*
X-18123D01*
G01X-26378Y123614D02*
Y127750D01*
X26378D01*
Y123614D01*
G01X-24803Y127750D02*
Y131451D01*
X24803D01*
Y127750D01*
G01X-17682Y-150687D02*
Y-155412D01*
X17515D01*
Y-150687D01*
G01X-17682Y-139046D02*
Y-131646D01*
G01X4257Y-52108D02*
X713D01*
X-5192Y-58013D01*
Y-78092D01*
X4257D01*
G01X-8858Y105270D02*
Y104483D01*
G01X2621Y-114843D02*
X1833D01*
G01X3211Y-111300D02*
X1243D01*
G01X-2947Y-114843D02*
X-3735D01*
G01X-2357Y-111300D02*
X-4325D01*
G01X4196Y-53234D02*
G03Y-76967I3604J-11867D01*
G01X984Y105270D02*
Y103695D01*
G01X11652Y-124309D02*
X12480D01*
G01X11343Y-78092D02*
X20792D01*
G01X11404Y-76967D02*
G03Y-53234I-3604J11867D01*
G01X11343Y-52108D02*
X14887D01*
G01X10827Y105270D02*
Y104483D01*
G01X17515Y-139046D02*
Y-131646D01*
G01X19664Y-114543D02*
X18876D01*
G01X20254Y-111000D02*
X18286D01*
G01X14887Y-52108D02*
X20792Y-58013D01*
G01X26378Y110191D02*
X18123D01*
G01X25787Y-146112D02*
X22441D01*
Y-150837D01*
X74803D01*
Y-138632D01*
G01X22441Y-146112D02*
Y-138632D01*
G01X23664Y-114543D02*
X22876D01*
G01X24254Y-111000D02*
X22286D01*
G01X20792Y-58013D02*
Y-78092D01*
G01X25794Y-62701D02*
X37606D01*
G01X25794Y-50299D02*
X37606D01*
G01X26378Y115214D02*
Y110191D01*
G01X53280Y-75476D02*
Y-86500D01*
G01X49342D02*
X53280D01*
G01X49342Y-75476D02*
Y-86500D01*
G01Y-75476D02*
X53280D01*
G01X65588Y68732D02*
Y72670D01*
G01D02*
X76612D01*
G01X65588Y68732D02*
X76612D01*
G01X71457Y-146112D02*
X74803D01*
G01X76612Y68732D02*
Y72670D01*
G01X104706Y-63987D02*
X92894D01*
G01X104706Y-55113D02*
X92894D01*
G01X166510Y-149676D02*
X122416D01*
G01X120250Y-105495D02*
Y-141519D01*
G01X132652Y-96834D02*
X121628D01*
G01X126045Y62354D02*
Y58354D01*
G01X125045Y60354D02*
X131045D01*
G01X126045D02*
X130045Y61954D01*
G01X126045Y60354D02*
X130045Y58754D01*
G01Y61954D02*
Y58754D01*
G01X136220Y74803D02*
X135433D01*
G01X141142Y63189D02*
Y71444D01*
G01X146165Y63189D02*
X141142D01*
G01X146165Y92323D02*
X141142D01*
Y84068D01*
G01X159935Y-52108D02*
X156392D01*
X150487Y-58013D01*
Y-78092D01*
X159935D01*
G01X159875Y-53234D02*
G03Y-76966I3604J-11867D01*
G01X152442Y49330D02*
Y46732D01*
G01Y49330D02*
Y46732D01*
G01Y49330D02*
Y46732D01*
G01D02*
X155650D01*
G01X152442Y58228D02*
X155650D01*
G01X152442D02*
Y55630D01*
G01X158701Y90748D02*
X162402D01*
Y64764D01*
X158701D01*
G01X154565Y92323D02*
X158701D01*
Y63189D01*
X154565D01*
G01X168676Y-105495D02*
Y-141519D01*
G01X167298Y-96834D02*
X165885D01*
G01X167022Y-78092D02*
X176471D01*
G01X167082Y-76966D02*
G03Y-53234I-3604J11866D01*
G01X167022Y-52108D02*
X170565D01*
G01X177756Y-138189D02*
X176575D01*
Y-140158D01*
G01X176471Y-58013D02*
Y-78092D01*
G01X170565Y-52108D02*
X176471Y-58013D01*
G01X186811Y-133906D02*
Y-134694D01*
G01X183268Y-133316D02*
Y-135284D01*
G01X209902Y-102874D02*
Y-107992D01*
X183917D01*
Y-102874D01*
G01Y-87126D02*
Y-82008D01*
G01D02*
X209902D01*
G01X179094Y-55258D02*
Y-73762D01*
G01X179882D02*
X179094D01*
G01X190906Y-61557D02*
X179094D01*
G01X179882Y-55258D02*
X179094D01*
G01X180991Y-47244D02*
X198332D01*
G01X180991D02*
Y-40871D01*
G01Y17248D02*
Y24090D01*
G01Y32997D02*
Y39370D01*
G01D02*
X198332D01*
G01X193504Y-138189D02*
Y-140158D01*
G01X192323Y-138189D02*
X193504D01*
G01X190906Y-55258D02*
Y-73762D01*
G01D02*
X190117D01*
G01X190906Y-55258D02*
X190117D01*
G01X209902Y-82008D02*
Y-87126D01*
G01X204613Y16264D02*
Y23106D01*
G01X239483Y-37670D02*
X228460D01*
G01Y-33732D02*
Y-37670D01*
G01X239483Y-33732D02*
X228460D01*
G01X238368Y35288D02*
X234430D01*
G01D02*
Y46312D01*
G01X238368D02*
X234430D01*
G01X238368Y55858D02*
X234430D01*
G01D02*
Y66882D01*
G01X238368D02*
X234430D01*
G01X239483Y-33732D02*
Y-37670D01*
G01X238368Y35288D02*
Y46312D01*
G01Y55858D02*
Y66882D01*
G01X260553Y-37670D02*
X249530D01*
G01Y-33732D02*
Y-37670D01*
G01X260553Y-33732D02*
X249530D01*
G01X260553D02*
Y-37670D01*
M02*
