G04 ================== begin FILE IDENTIFICATION RECORD ==================*
G04 Layout Name:  joystick_board.brd*
G04 Film Name:    02-GND*
G04 File Format:  Gerber RS274X*
G04 File Origin:  Cadence Allegro 17.4-S035*
G04 Origin Date:  Thu Oct 16 19:21:40 2025*
G04 *
G04 Layer:  VIA CLASS/GND*
G04 Layer:  PIN/GND*
G04 Layer:  ETCH/GND*
G04 *
G04 Offset:    (0.000 0.000)*
G04 Mirror:    No*
G04 Mode:      Positive*
G04 Rotation:  0*
G04 FullContactRelief:  No*
G04 UndefLineWidth:     0.000*
G04 ================== end FILE IDENTIFICATION RECORD ====================*
%FSLAX25Y25*MOIN*%
%IR0*IPPOS*OFA0.00000B0.00000*MIA0B0*SFA1.00000B1.00000*%
%ADD11R,.062X.06693*%
%ADD10C,.01378*%
%ADD13C,.017717*%
%ADD12C,.06693*%
%ADD14C,.024*%
%ADD16C,.063244*%
%ADD18C,.063264*%
%ADD20C,.047722*%
%ADD19C,.043784*%
%ADD17C,.055396*%
%ADD15C,.094744*%
G75*
%LPD*%
G75*
G36*
G01X70369Y144869D02*
X187008D01*
G02X194082Y137795I0J-7074D01*
G01Y0D01*
G02X187008Y-7074I-7074J0D01*
G01X0D01*
G02X-7074Y0I0J7074D01*
G01Y109126D01*
X-4800Y111400D01*
X57900D01*
X67800Y121300D01*
Y142300D01*
X70369Y144869D01*
G37*
%LPC*%
G75*
G36*
G01X110819Y4149D02*
G02X112589Y2000I-419J-2149D01*
G02X110400Y-189I-2189J0D01*
G02X108281Y1451I0J2189D01*
G02X106511Y3600I419J2149D01*
G02X108700Y5789I2189J0D01*
G02X110819Y4149I0J-2189D01*
G37*
G36*
G01X128246Y7989D02*
G02X130400Y9789I2154J-389D01*
G02X132589Y7600I0J-2189D01*
G02X131054Y5511I-2189J0D01*
G02X128900Y3711I-2154J389D01*
G02X126711Y5900I0J2189D01*
G02X128246Y7989I2189J0D01*
G37*
G36*
G01X97800Y9966D02*
G03X98074Y10445I-114J383D01*
G02X98011Y10968I2126J523D01*
G02X99916Y13139I2189J0D01*
G02X102000Y14657I2084J-671D01*
G02X104189Y12468I0J-2189D01*
G02X102284Y10298I-2189J0D01*
G02X100825Y8870I-2084J671D01*
G03X100551Y8391I114J-383D01*
G02X100614Y7868I-2126J-523D01*
G02X98536Y5682I-2189J0D01*
G02X96457Y4179I-2079J686D01*
G02X95265Y4532I0J2189D01*
G03X94657Y4284I-218J-335D01*
G02X92630Y2573I-2137J476D01*
G02X90662Y1073I-2079J686D01*
G02X88703Y-426I-2079J686D01*
G02X86724Y-1957I-2088J656D01*
G02X84646Y-3459I-2079J686D01*
G02X82457Y-1270I0J2189D01*
G02X84535Y916I2189J0D01*
G02X86494Y2416I2079J-686D01*
G02X88472Y3946I2088J-656D01*
G02X90441Y5446I2079J-686D01*
G02X92520Y6949I2079J-686D01*
G02X93712Y6596I0J-2189D01*
G03X94231Y7194I218J335D01*
G02X92299Y9368I257J2174D01*
G02X94488Y11557I2189J0D01*
G02X96606Y9924I0J-2189D01*
G03X97214Y9692I387J101D01*
G02X97800Y9966I1211J-1824D01*
G37*
G36*
G01X154309Y9050D02*
G02Y11350I2091J1150D01*
G02X154014Y12500I2091J1150D01*
G02X156400Y14886I2386J0D01*
G02X157823Y14416I0J-2386D01*
G02X159100Y14786I1277J-2016D01*
G02X161486Y12400I0J-2386D01*
G02X161191Y11250I-2386J0D01*
G02Y8950I-2091J-1150D01*
G02X161486Y7800I-2091J-1150D01*
G02X159100Y5414I-2386J0D01*
G02X157677Y5884I0J2386D01*
G02X156400Y5514I-1277J2016D01*
G02X154014Y7900I0J2386D01*
G02X154309Y9050I2386J0D01*
G37*
G36*
G01X117198Y19674D02*
G03X117460Y20137I-128J379D01*
G02X117411Y20600I2140J463D01*
G02X121789I2189J0D01*
G02X120302Y18526I-2189J0D01*
G03X120040Y18063I128J-379D01*
G02X120089Y17600I-2140J-463D01*
G02X118396Y15468I-2189J0D01*
G02X116300Y13911I-2096J632D01*
G02X114111Y16100I0J2189D01*
G02X115804Y18232I2189J0D01*
G02X117198Y19674I2096J-632D01*
G37*
G36*
G01X16379Y18424D02*
G03X15912Y18894I-392J77D01*
G02X15500Y18855I-411J2150D01*
G02X17689Y21044I0J2189D01*
G02X17648Y20620I-2189J0D01*
G03X18116Y20150I392J-77D01*
G02X18527Y20189I411J-2150D01*
G02X16338Y18000I0J-2189D01*
G02X16379Y18424I2189J0D01*
G37*
G36*
G01X67632Y19750D02*
G02X67214Y21100I1968J1350D01*
G02X69600Y23486I2386J0D01*
G02X70750Y23191I0J-2386D01*
G02X73050I1150J-2091D01*
G02X74200Y23486I1150J-2091D01*
G02X76586Y21100I0J-2386D01*
G02X76168Y19750I-2386J0D01*
G02X76586Y18400I-1968J-1350D01*
G02X74200Y16014I-2386J0D01*
G02X73050Y16309I0J2386D01*
G02X70750I-1150J2091D01*
G02X69600Y16014I-1150J2091D01*
G02X67214Y18400I0J2386D01*
G02X67632Y19750I2386J0D01*
G37*
G36*
G01X124362Y21194D02*
G03X124640Y21642I-117J383D01*
G02X124611Y22000I2160J358D01*
G02X128989I2189J0D01*
G02X127438Y19906I-2189J0D01*
G03X127160Y19458I117J-383D01*
G02X127189Y19100I-2160J-358D01*
G02X122811I-2189J0D01*
G02X124362Y21194I2189J0D01*
G37*
G36*
G01X101378Y25756D02*
G02X102362Y25989I984J-1956D01*
G02Y21611I0J-2189D01*
G02X101378Y21844I0J2189D01*
G02X100394Y21611I-984J1956D01*
G02Y25989I0J2189D01*
G02X101378Y25756I0J-2189D01*
G37*
G36*
G01X135696Y25804D02*
G02X137800Y27389I2104J-604D01*
G02X139989Y25200I0J-2189D01*
G02X138404Y23096I-2189J0D01*
G02X136300Y21511I-2104J604D01*
G02X134111Y23700I0J2189D01*
G02X135696Y25804I2189J0D01*
G37*
G36*
G01X101084Y32277D02*
G02X102362Y32689I1278J-1777D01*
G02Y28311I0J-2189D01*
G02X101672Y28423I0J2189D01*
G02X100394Y28011I-1278J1777D01*
G02Y32389I0J2189D01*
G02X101084Y32277I0J-2189D01*
G37*
G36*
G01X59581Y33949D02*
G02X61700Y35589I2119J-549D01*
G02X63889Y33400I0J-2189D01*
G02X62119Y31251I-2189J0D01*
G02X60000Y29611I-2119J549D01*
G02X57811Y31800I0J2189D01*
G02X59581Y33949I2189J0D01*
G37*
G36*
G01X69854Y39876D02*
G02X67783Y38675I-2071J1185D01*
G02X65397Y41061I0J2386D01*
G02X65721Y42261I2386J0D01*
G02X65397Y43461I2062J1200D01*
G02X67783Y45847I2386J0D01*
G02X69854Y44646I0J-2386D01*
G02Y39876I-71J-2385D01*
G37*
G36*
G01X170280Y43099D02*
G03X170000Y43092I-136J-146D01*
G02X168427Y42425I-1573J1523D01*
G02Y46803I0J2189D01*
G02X169920Y46215I0J-2189D01*
G03X170200Y46223I136J146D01*
G02X171773Y46889I1573J-1523D01*
G02Y42511I0J-2189D01*
G02X170280Y43099I0J2189D01*
G37*
G36*
G01X55593Y43043D02*
G02Y45343I2091J1150D01*
G02X55298Y46493I2091J1150D01*
G02X60070I2386J0D01*
G02X59775Y45343I-2386J0D01*
G02Y43043I-2091J-1150D01*
G02X60070Y41893I-2091J-1150D01*
G02X55298I-2386J0D01*
G02X55593Y43043I2386J0D01*
G37*
G36*
G01X87748Y45215D02*
G02X85677Y44014I-2071J1185D01*
G02X83291Y46400I0J2386D01*
G02X83615Y47600I2386J0D01*
G02X83291Y48800I2062J1200D01*
G02X85677Y51186I2386J0D01*
G02X87748Y49985I0J-2386D01*
G02Y45215I-71J-2385D01*
G37*
G36*
G01X112276Y56079D02*
G03X112259Y56361I-149J133D01*
G02X111522Y58000I1452J1639D01*
G02X115900I2189J0D01*
G02X115456Y56678I-2189J0D01*
G03X115495Y56397I159J-121D01*
G02X116444Y54492I-1437J-1905D01*
G02X111672I-2386J0D01*
G02X112276Y56079I2386J0D01*
G37*
G36*
G01X69756Y59856D02*
G02X67685Y58655I-2071J1185D01*
G02X65299Y61041I0J2386D01*
G02X65623Y62241I2386J0D01*
G02X65299Y63441I2062J1200D01*
G02X67685Y65827I2386J0D01*
G02X69756Y64626I0J-2386D01*
G02Y59856I-71J-2385D01*
G37*
G36*
G01X98837Y71260D02*
G03Y71540I-143J140D01*
G02X98211Y73073I1563J1533D01*
G02X102589I2189J0D01*
G02X101963Y71540I-2189J0D01*
G03Y71260I143J-140D01*
G02X102589Y69727I-1563J-1533D01*
G02X98211I-2189J0D01*
G02X98837Y71260I2189J0D01*
G37*
G36*
G01X115653Y70974D02*
G03X115158Y71283I-392J-78D01*
G02X114600Y71211I-558J2117D01*
G02X112411Y73400I0J2189D01*
G02X113946Y75489I2189J0D01*
G02X116100Y77289I2154J-389D01*
G02X118289Y75100I0J-2189D01*
G02X118048Y74100I-2189J0D01*
G03X118310Y73529I356J-183D01*
G02X119896Y72032I-510J-2129D01*
G02X121589Y69900I-496J-2132D01*
G02X119400Y67711I-2189J0D01*
G02X117304Y69268I0J2189D01*
G02X115653Y70974I496J2132D01*
G37*
G36*
G01X158864Y75372D02*
G03X158580Y75386I-149J-133D01*
G02X157100Y74811I-1480J1614D01*
G02Y79189I0J2189D01*
G02X158736Y78455I0J-2189D01*
G03X159020Y78440I149J133D01*
G02X160500Y79016I1480J-1614D01*
G02Y74638I0J-2189D01*
G02X158864Y75372I0J2189D01*
G37*
G36*
G01X5665Y78183D02*
G03X5633Y78463I-157J124D01*
G02X4811Y80173I1367J1710D01*
G02X9189I2189J0D01*
G02X8719Y78817I-2189J0D01*
G03X8751Y78537I157J-124D01*
G02X9573Y76827I-1367J-1710D01*
G02X5194I-2189J0D01*
G02X5665Y78183I2189J0D01*
G37*
G36*
G01X88647Y83311D02*
G02X86511Y85500I53J2189D01*
G02X88700Y87689I2189J0D01*
G02X90653Y86489I0J-2189D01*
G02X91026Y86447I-53J-2189D01*
G02X93000Y87689I1974J-947D01*
G02X94953Y86489I0J-2189D01*
G02X97089Y84300I-53J-2189D01*
G02X94900Y82111I-2189J0D01*
G02X92947Y83311I0J2189D01*
G02X92574Y83353I53J2189D01*
G02X90600Y82111I-1974J947D01*
G02X88647Y83311I0J2189D01*
G37*
G36*
G01X154828Y92436D02*
G02X155089Y91400I-1928J-1036D01*
G02X150711I-2189J0D01*
G02X150972Y92436I2189J0D01*
G02X150711Y93473I1928J1036D01*
G02X155089I2189J0D01*
G02X154828Y92436I-2189J0D01*
G37*
G36*
G01X62524Y91537D02*
G02X64037Y93386I2176J-237D01*
G02X66200Y95236I2163J-339D01*
G02X67271Y94956I0J-2189D01*
G02X69189Y96089I1918J-1056D01*
G02Y91711I0J-2189D01*
G02X68118Y91991I0J2189D01*
G02X66863Y90961I-1918J1056D01*
G02X65176Y89163I-2163J339D01*
G02X63368Y87242I-2176J237D01*
G02X61400Y86011I-1968J958D01*
G02X59211Y88200I0J2189D01*
G02X61032Y90358I2189J0D01*
G02X62524Y91537I1968J-958D01*
G37*
G36*
G01X637Y93741D02*
G03X621Y94350I-267J298D01*
G02X-189Y96050I1379J1701D01*
G02X4189I2189J0D01*
G02X3463Y94422I-2189J0D01*
G03X3479Y93814I267J-298D01*
G02X4289Y92113I-1379J-1701D01*
G02X-89I-2189J0D01*
G02X637Y93741I2189J0D01*
G37*
G36*
G01X77817Y97057D02*
G02X79289Y94989I-717J-2068D01*
G02X77100Y92800I-2189J0D01*
G02X74983Y94432I0J2189D01*
G02X73511Y96500I717J2068D01*
G02X75700Y98689I2189J0D01*
G02X77817Y97057I0J-2189D01*
G37*
G36*
G01X184078Y95642D02*
G03Y96251I-260J304D01*
G02X183311Y97915I1422J1664D01*
G02X187689I2189J0D01*
G02X186922Y96251I-2189J0D01*
G03Y95642I260J-304D01*
G02X187689Y93978I-1422J-1664D01*
G02X183311I-2189J0D01*
G02X184078Y95642I2189J0D01*
G37*
G36*
G01X134196Y99406D02*
G02X136300Y100989I2104J-606D01*
G02X138489Y98800I0J-2189D01*
G02X136898Y96694I-2189J0D01*
G02X134794Y95111I-2104J606D01*
G02X132605Y97300I0J2189D01*
G02X134196Y99406I2189J0D01*
G37*
G36*
G01X156074Y108713D02*
G02X157689Y106600I-574J-2113D01*
G02X155500Y104411I-2189J0D01*
G02X153326Y106346I0J2189D01*
G02X151711Y108458I574J2113D01*
G02X153900Y110647I2189J0D01*
G02X156074Y108713I0J-2189D01*
G37*
G36*
G01X110187Y116253D02*
G02X111980Y114100I-396J-2153D01*
G02X109791Y111911I-2189J0D01*
G02X107820Y113147I0J2189D01*
G02X106027Y115300I396J2153D01*
G02X108216Y117489I2189J0D01*
G02X110187Y116253I0J-2189D01*
G37*
G36*
G01X174078Y120764D02*
G03Y121373I-260J304D01*
G02X173311Y123037I1422J1664D01*
G02X177689I2189J0D01*
G02X176922Y121373I-2189J0D01*
G03Y120764I260J-304D01*
G02X177689Y119100I-1422J-1664D01*
G02X173311I-2189J0D01*
G02X174078Y120764I2189J0D01*
G37*
G36*
G01X139111Y131054D02*
G02X141200Y132589I2089J-654D01*
G02X143389Y130400I0J-2189D01*
G02X141589Y128246I-2189J0D01*
G02X139500Y126711I-2089J654D01*
G02X137311Y128900I0J2189D01*
G02X139111Y131054I2189J0D01*
G37*
G36*
G01X17948Y45989D02*
G02X16338Y48100I579J2111D01*
G02X20716I2189J0D01*
G02X20225Y46718I-2189J0D01*
G03X20474Y46070I310J-252D01*
G02X18121Y45317I-420J-2738D01*
G03X17948Y45989I-279J287D01*
G37*
G36*
G01X69931Y84140D02*
G02X69189Y84011I-742J2060D01*
G02X71378Y86200I0J2189D01*
G02X71247Y85453I-2189J0D01*
G03X71758Y84940I376J-137D01*
G02X72500Y85069I742J-2060D01*
G02X74689Y82880I0J-2189D01*
G02X74687Y82787I-2189J1D01*
G03X75135Y82373I400J-17D01*
G02X75400Y82389I265J-2173D01*
G02Y78011I0J-2189D01*
G02X75306Y78013I0J2189D01*
G03X74904Y77503I-17J-400D01*
G02X74989Y76900I-2104J-603D01*
G02X72800Y74711I-2189J0D01*
G02X70689Y76321I0J2189D01*
G02X68711Y78500I211J2179D01*
G02X70682Y80678I2189J0D01*
G03X70929Y81355I-40J398D01*
G02X70311Y82880I1571J1525D01*
G02X70442Y83627I2189J0D01*
G03X69931Y84140I-376J137D01*
G37*
G36*
G01X123772Y86906D02*
G02X123711Y87421I2128J515D01*
G02X128089I2189J0D01*
G02X126708Y85386I-2189J0D01*
G03X126646Y84674I148J-372D01*
G02X127689Y82809I-1146J-1865D01*
G02X126104Y80704I-2189J0D01*
G02X124385Y79154I-2104J604D01*
G02X123382Y77917I-2085J666D01*
G03X123460Y77188I198J-348D01*
G02X124989Y75100I-659J-2087D01*
G02X120611I-2189J0D01*
G02X121718Y77003I2189J0D01*
G03X121640Y77732I-198J348D01*
G02X120111Y79820I659J2087D01*
G02X121915Y81975I2189J0D01*
G02X122400Y82803I2085J-666D01*
G02X121811Y84298I1600J1495D01*
G02X123479Y86424I2189J0D01*
G03X123772Y86906I-95J389D01*
G37*
G36*
G01X52658Y87489D02*
G02X54520Y88882I2042J-789D01*
G02X56600Y90389I2080J-682D01*
G02X58789Y88200I0J-2189D01*
G02X56780Y86018I-2189J0D01*
G02X55402Y84626I-2080J682D01*
G03X55140Y84163I128J-379D01*
G02X55189Y83700I-2140J-463D01*
G02X54744Y82377I-2189J0D01*
G03X54990Y81742I319J-242D01*
G02X56780Y79713I-396J-2153D01*
G03X57476Y79468I399J23D01*
G02X59100Y80189I1624J-1468D01*
G02X61289Y78000I0J-2189D01*
G02X61056Y77017I-2189J0D01*
G03X61241Y76476I357J-180D01*
G02X62489Y74500I-941J-1976D01*
G02X61914Y73020I-2189J0D01*
G03Y72480I295J-270D01*
G02X62489Y71000I-1614J-1480D01*
G02X58111I-2189J0D01*
G02X58686Y72480I2189J0D01*
G03Y73020I-295J270D01*
G02X58481Y73281I1613J1480D01*
G03X57817I-332J-223D01*
G02X56374Y72343I-1819J1219D01*
G02X54200Y70411I-2174J257D01*
G02X52011Y72600I0J2189D01*
G02X53824Y74757I2189J0D01*
G02X55998Y76689I2174J-257D01*
G02X56606Y76603I0J-2189D01*
G03X57085Y77144I111J384D01*
G02X56914Y77876I2015J856D01*
G03X56218Y78121I-399J-23D01*
G02X54594Y77400I-1624J1468D01*
G02X52405Y79589I0J2189D01*
G02X52850Y80912I2189J0D01*
G03X52604Y81547I-319J242D01*
G02X50904Y83068I397J2153D01*
G02X49211Y85200I496J2132D01*
G02X51400Y87389I2189J0D01*
G02X52148Y87257I0J-2189D01*
G03X52658Y87489I137J376D01*
G37*
G36*
G01X89359Y94749D02*
G02X87711Y96870I542J2121D01*
G02X89382Y98997I2189J0D01*
G02X91500Y100634I2119J-552D01*
G02X93689Y98445I0J-2189D01*
G02X92018Y96318I-2189J0D01*
G02X91033Y94997I-2118J552D01*
G03X91142Y94267I207J-342D01*
G02X92789Y92146I-542J-2121D01*
G02X90804Y89966I-2189J0D01*
G02X88700Y88382I-2104J605D01*
G02X86511Y90571I0J2189D01*
G02X88496Y92751I2189J0D01*
G02X89467Y94019I2104J-605D01*
G03X89359Y94749I-207J342D01*
G37*
G54D16*
X34449Y5315D03*
X152559Y133858D03*
G54D18*
X9475Y53911D03*
X166955D03*
G54D20*
X94485Y43860D03*
X91985Y57132D03*
G54D19*
X25400Y18000D03*
X44059Y12000D03*
X21873Y29994D03*
X14000D03*
X31800Y21044D03*
X58400Y24300D03*
X112700Y20600D03*
X143012Y22924D03*
X46429Y31888D03*
X143012Y34356D03*
X174427Y36327D03*
X46429Y43320D03*
X140616D03*
X14400Y61852D03*
X44059Y54752D03*
X143012Y57221D03*
X174844Y57044D03*
X21284Y74457D03*
X47216Y66200D03*
X68300Y69300D03*
X80600Y69727D03*
X94600D03*
X143012Y66184D03*
X173600Y71900D03*
X168427D03*
X18800Y80173D03*
X145995Y79505D03*
X174700Y76827D03*
X9852Y87757D03*
X21284D03*
X78798Y88996D03*
X127100Y92413D03*
X163748Y90127D03*
X171773Y86100D03*
X177648Y87400D03*
X14532Y105827D03*
X13527Y100893D03*
X24532Y105827D03*
X52828Y98628D03*
X50600Y104400D03*
X57400Y107600D03*
X65500Y99700D03*
X130657Y106489D03*
X176268Y104521D03*
X34373Y108768D03*
X68900Y111300D03*
X90100Y115118D03*
X136000D03*
X158900Y117500D03*
X89373Y129000D03*
X116800Y126900D03*
X126400Y120502D03*
G54D17*
X177534Y43333D03*
G54D15*
X14764Y5315D03*
X172244D03*
Y133858D03*
%LPD*%
G75*
G54D10*
X-1507Y64893D03*
X2284Y72865D03*
X7384Y76827D03*
X7000Y80173D03*
X9852Y87757D03*
X2000Y96050D03*
X2100Y92113D03*
X2200Y99987D03*
X9500Y105827D03*
X18527Y18000D03*
X15500Y21044D03*
X21873Y29994D03*
X14000D03*
X19000Y37916D03*
X21750Y34250D03*
X18527Y48100D03*
X14400Y61852D03*
X15568Y74400D03*
X21284Y74457D03*
X18800Y80173D03*
X15568Y87700D03*
X21284Y87757D03*
X14532Y105827D03*
X13527Y100893D03*
X25400Y18000D03*
X31800Y21044D03*
X25661Y70437D03*
X27000Y87700D03*
X28800Y96457D03*
X24532Y105827D03*
X38200Y18674D03*
X44059Y12000D03*
Y26172D03*
X37873Y35058D03*
X44059Y60468D03*
X39000Y63200D03*
X37000Y56300D03*
X44059Y54752D03*
X37873Y70437D03*
X44059Y69400D03*
X42323Y87900D03*
X34373Y108768D03*
X46500Y37604D03*
X46429Y31888D03*
X47800Y48100D03*
X46429Y43320D03*
X47216Y66200D03*
X54200Y72600D03*
X53000Y83700D03*
X54594Y79589D03*
X51400Y85200D03*
X55000Y90600D03*
X54700Y86700D03*
X52828Y98628D03*
X50600Y104400D03*
X58400Y24300D03*
X60000Y31800D03*
X61700Y33400D03*
X60300Y71000D03*
Y74500D03*
X55998D03*
X59100Y78000D03*
X63000Y89400D03*
X61400Y88200D03*
X64700Y91300D03*
X66200Y93047D03*
X56600Y88200D03*
X57400Y107600D03*
X65500Y99700D03*
X61552Y108800D03*
X62007Y112900D03*
X68300Y69300D03*
X75565Y75165D03*
X72500Y82880D03*
X70900Y78500D03*
X72800Y76900D03*
X75400Y80200D03*
X75700Y96500D03*
X77100Y94989D03*
X69189Y86200D03*
Y93900D03*
X75221Y110600D03*
X70100Y118609D03*
X68900Y111300D03*
X77047Y129226D03*
X70100Y127211D03*
X77047Y134530D03*
X70100Y133600D03*
X86614Y230D03*
X84646Y-1270D03*
X80600Y69727D03*
X81200Y96600D03*
X78798Y88996D03*
X81948Y102973D03*
X83300Y110600D03*
X81692Y117800D03*
X79600Y115393D03*
X86027Y123458D03*
X88583Y1760D03*
X92520Y4760D03*
X98425Y7868D03*
X90551Y3260D03*
X96457Y6368D03*
X94488Y9368D03*
X97400Y36789D03*
X94600Y69727D03*
X88700Y85500D03*
X90600Y84300D03*
X93000Y85500D03*
X94900Y84300D03*
X90600Y92146D03*
X88700Y90571D03*
X89900Y96870D03*
X91500Y98445D03*
X97600Y115393D03*
X91200Y109900D03*
X90100Y115118D03*
X96227Y124500D03*
X89373Y129000D03*
X97969Y139000D03*
X108700Y3600D03*
X110400Y2000D03*
X100200Y10968D03*
X102000Y12468D03*
X102362Y30500D03*
X100394Y30200D03*
Y23800D03*
X102362D03*
X103536Y73073D03*
X100400D03*
Y69727D03*
X109004Y94657D03*
X106004D03*
X103004D03*
X109004Y91657D03*
X106004D03*
X103004D03*
X106004Y103657D03*
X103004D03*
X109004Y100657D03*
X106004D03*
X103004D03*
Y97657D03*
X109004Y103657D03*
Y97657D03*
X106004D03*
X108216Y115300D03*
X109791Y114100D03*
X108439Y124500D03*
X117900Y17600D03*
X116300Y16100D03*
X112700Y20600D03*
X119600D03*
X113711Y58000D03*
X117800Y71400D03*
X114600Y73400D03*
X119400Y69900D03*
X116100Y75100D03*
X115004Y94657D03*
X112004D03*
X115004Y91657D03*
X112004D03*
X115004Y100657D03*
X112004D03*
X115004Y97657D03*
X112004D03*
X115004Y103657D03*
X112004D03*
X120000Y126400D03*
X116800Y126900D03*
X112700Y139373D03*
X130400Y7600D03*
X128900Y5900D03*
X125000Y19100D03*
X126800Y22000D03*
X122800Y75100D03*
X122300Y79820D03*
X124000Y81309D03*
X125500Y82809D03*
X124000Y84298D03*
X125900Y87421D03*
X127100Y92413D03*
X130657Y106489D03*
X122100Y112300D03*
X126400Y120502D03*
X135094Y5700D03*
Y14500D03*
X140600Y26172D03*
X143012Y22924D03*
X136300Y23700D03*
X137800Y25200D03*
X143012Y34356D03*
X139800Y37604D03*
X140000Y49036D03*
X140616Y43320D03*
X143012Y60468D03*
Y57221D03*
Y66184D03*
Y69400D03*
X134794Y97300D03*
X136300Y98800D03*
X136000Y115118D03*
X139500Y128900D03*
X141200Y130400D03*
X150000Y30600D03*
X150900Y38500D03*
X152427Y63121D03*
X148900Y73879D03*
X151300Y79505D03*
X145995D03*
X149300Y86500D03*
X152900Y93473D03*
Y91400D03*
X149900Y105700D03*
X154173Y111900D03*
X153900Y108458D03*
X158500Y65800D03*
X160500Y76827D03*
X163700D03*
X157100Y77000D03*
X158000Y90127D03*
X163748D03*
X155500Y106600D03*
X158900Y117500D03*
X167100Y24884D03*
X174427Y36327D03*
X168427Y44614D03*
X171773Y44700D03*
X167600Y60263D03*
X174844Y57044D03*
X173600Y71900D03*
X168427D03*
X174700Y76827D03*
X174500Y90127D03*
X171773Y86100D03*
X176268Y104521D03*
X176200Y115163D03*
X175500Y119100D03*
Y123037D03*
X186883Y33983D03*
X186033Y62567D03*
X182400Y76827D03*
X187200Y90041D03*
X177648Y87400D03*
X185500Y93978D03*
X176300Y101175D03*
X185500Y97915D03*
G54D11*
X-3000Y117800D03*
G54D12*
X7000D03*
X17000D03*
X27000D03*
X47000D03*
X37000D03*
X57000D03*
G54D13*
X57684Y41893D03*
Y44193D03*
Y46493D03*
X71900Y18400D03*
X69600D03*
X74200D03*
X69600Y21100D03*
X71900D03*
X74200D03*
X69783Y42261D03*
X67783Y41061D03*
Y43461D03*
X67685Y63441D03*
Y61041D03*
X69685Y62241D03*
X82677Y14800D03*
Y24200D03*
X85677Y46400D03*
X87677Y47600D03*
X85677Y48800D03*
X94485Y43860D03*
X93607Y63084D03*
X91307D03*
X95907D03*
X91985Y57132D03*
X114058Y54492D03*
X159100Y7800D03*
X156400Y7900D03*
Y12500D03*
X159100Y10100D03*
Y12400D03*
X156400Y10200D03*
G54D14*
G01X57000Y117800D02*
X57107D01*
X62007Y112900D01*
M02*
