G04 ================== begin FILE IDENTIFICATION RECORD ==================*
G04 Layout Name:  joystick_board.brd*
G04 Film Name:    04-BOTTOM*
G04 File Format:  Gerber RS274X*
G04 File Origin:  Cadence Allegro 17.4-S035*
G04 Origin Date:  Thu Oct 16 19:21:40 2025*
G04 *
G04 Layer:  VIA CLASS/BOTTOM*
G04 Layer:  PIN/BOTTOM*
G04 Layer:  ETCH/BOTTOM*
G04 *
G04 Offset:    (0.000 0.000)*
G04 Mirror:    No*
G04 Mode:      Positive*
G04 Rotation:  0*
G04 FullContactRelief:  No*
G04 UndefLineWidth:     0.000*
G04 ================== end FILE IDENTIFICATION RECORD ====================*
%FSLAX25Y25*MOIN*%
%IR0*IPPOS*OFA0.00000B0.00000*MIA0B0*SFA1.00000B1.00000*%
%ADD19R,.01575X.02362*%
%ADD17R,.05512X.05906*%
%ADD13R,.062X.06693*%
%ADD12C,.01378*%
%ADD14R,.02559X.02362*%
%ADD16R,.02362X.02559*%
%ADD18C,.017717*%
%ADD15C,.06693*%
%ADD22R,.05512X.07874*%
%ADD20R,.01575X.02756*%
%ADD23R,.03858X.03661*%
%ADD21R,.03858X.03661*%
%AMMACRO10*
21,1,.06693,.03937,0.0,0.0,45.*%
%ADD10MACRO10*%
%AMMACRO11*
21,1,.07874,.07087,0.0,0.0,45.*%
%ADD11MACRO11*%
%ADD24C,.006*%
%ADD25C,.008*%
%ADD26C,.012*%
G75*
%LPD*%
G75*
G36*
G01X98600Y106500D02*
X118376D01*
G02X118740Y105934I0J-400D01*
G03X118604Y105310I1364J-623D01*
G01Y102948D01*
G03X120105Y101448I1500J0D01*
G01X122663D01*
G03X122850Y101460I0J1500D01*
G02X123300Y101063I50J-397D01*
G01Y95880D01*
X121692D01*
G03X120192Y94380I0J-1500D01*
G01Y91820D01*
G03X120835Y90589I1500J0D01*
G02Y89932I-228J-328D01*
G03X120192Y88700I857J-1232D01*
G01Y86000D01*
X98600D01*
Y106500D01*
G37*
G54D10*
X844Y42637D03*
X8778Y34703D03*
X4890Y38591D03*
X20750Y62541D03*
X24639Y58652D03*
X28683Y54608D03*
X158324Y42637D03*
X162370Y38591D03*
X166258Y34703D03*
X178230Y62541D03*
X186163Y54608D03*
X182119Y58652D03*
G54D11*
X3489Y59897D03*
X26038Y37348D03*
X160969Y59897D03*
X183518Y37348D03*
G54D20*
X63976Y120707D03*
X83661D03*
X103346D03*
X123032D03*
G54D21*
X63976Y130827D03*
Y136890D03*
X83661Y130827D03*
Y136890D03*
X103346Y130827D03*
Y136890D03*
X123032Y130827D03*
Y136890D03*
G54D12*
X-1507Y64893D03*
X2284Y72865D03*
X7384Y76827D03*
X7000Y80173D03*
X9852Y87757D03*
X2000Y96050D03*
X2100Y92113D03*
X2200Y99987D03*
X9500Y105827D03*
X18527Y18000D03*
X15500Y21044D03*
X21873Y29994D03*
X14000D03*
X19000Y37916D03*
X21750Y34250D03*
X18527Y48100D03*
X14400Y61852D03*
X15568Y74400D03*
X21284Y74457D03*
X18800Y80173D03*
X15568Y87700D03*
X21284Y87757D03*
X14532Y105827D03*
X13527Y100893D03*
X25400Y18000D03*
X31800Y21044D03*
X25661Y70437D03*
X27000Y87700D03*
X28800Y96457D03*
X24532Y105827D03*
X38200Y18674D03*
X44059Y12000D03*
Y26172D03*
X37873Y35058D03*
X44059Y60468D03*
X39000Y63200D03*
X37000Y56300D03*
X44059Y54752D03*
X37873Y70437D03*
X44059Y69400D03*
X42323Y87900D03*
X34373Y108768D03*
X46500Y37604D03*
X46429Y31888D03*
X47800Y48100D03*
X46429Y43320D03*
X47216Y66200D03*
X54200Y72600D03*
X53000Y83700D03*
X54594Y79589D03*
X51400Y85200D03*
X55000Y90600D03*
X54700Y86700D03*
X52828Y98628D03*
X50600Y104400D03*
X58400Y24300D03*
X60000Y31800D03*
X61700Y33400D03*
X60300Y71000D03*
Y74500D03*
X55998D03*
X59100Y78000D03*
X63000Y89400D03*
X61400Y88200D03*
X64700Y91300D03*
X66200Y93047D03*
X56600Y88200D03*
X57400Y107600D03*
X65500Y99700D03*
X61552Y108800D03*
X62007Y112900D03*
X68300Y69300D03*
X75565Y75165D03*
X72500Y82880D03*
X70900Y78500D03*
X72800Y76900D03*
X75400Y80200D03*
X75700Y96500D03*
X77100Y94989D03*
X69189Y86200D03*
Y93900D03*
X75221Y110600D03*
X70100Y118609D03*
X68900Y111300D03*
X77047Y129226D03*
X70100Y127211D03*
X77047Y134530D03*
X70100Y133600D03*
X86614Y230D03*
X84646Y-1270D03*
X80600Y69727D03*
X81200Y96600D03*
X78798Y88996D03*
X81948Y102973D03*
X83300Y110600D03*
X81692Y117800D03*
X79600Y115393D03*
X86027Y123458D03*
X88583Y1760D03*
X92520Y4760D03*
X98425Y7868D03*
X90551Y3260D03*
X96457Y6368D03*
X94488Y9368D03*
X97400Y36789D03*
X94600Y69727D03*
X88700Y85500D03*
X90600Y84300D03*
X93000Y85500D03*
X94900Y84300D03*
X90600Y92146D03*
X88700Y90571D03*
X89900Y96870D03*
X91500Y98445D03*
X97600Y115393D03*
X91200Y109900D03*
X90100Y115118D03*
X96227Y124500D03*
X89373Y129000D03*
X97969Y139000D03*
X108700Y3600D03*
X110400Y2000D03*
X100200Y10968D03*
X102000Y12468D03*
X102362Y30500D03*
X100394Y30200D03*
Y23800D03*
X102362D03*
X103536Y73073D03*
X100400D03*
Y69727D03*
X109004Y94657D03*
X106004D03*
X103004D03*
X109004Y91657D03*
X106004D03*
X103004D03*
X106004Y103657D03*
X103004D03*
X109004Y100657D03*
X106004D03*
X103004D03*
Y97657D03*
X109004Y103657D03*
Y97657D03*
X106004D03*
X108216Y115300D03*
X109791Y114100D03*
X108439Y124500D03*
X117900Y17600D03*
X116300Y16100D03*
X112700Y20600D03*
X119600D03*
X113711Y58000D03*
X117800Y71400D03*
X114600Y73400D03*
X119400Y69900D03*
X116100Y75100D03*
X115004Y94657D03*
X112004D03*
X115004Y91657D03*
X112004D03*
X115004Y100657D03*
X112004D03*
X115004Y97657D03*
X112004D03*
X115004Y103657D03*
X112004D03*
X120000Y126400D03*
X116800Y126900D03*
X112700Y139373D03*
X130400Y7600D03*
X128900Y5900D03*
X125000Y19100D03*
X126800Y22000D03*
X122800Y75100D03*
X122300Y79820D03*
X124000Y81309D03*
X125500Y82809D03*
X124000Y84298D03*
X125900Y87421D03*
X127100Y92413D03*
X130657Y106489D03*
X122100Y112300D03*
X126400Y120502D03*
X135094Y5700D03*
Y14500D03*
X140600Y26172D03*
X143012Y22924D03*
X136300Y23700D03*
X137800Y25200D03*
X143012Y34356D03*
X139800Y37604D03*
X140000Y49036D03*
X140616Y43320D03*
X143012Y60468D03*
Y57221D03*
Y66184D03*
Y69400D03*
X134794Y97300D03*
X136300Y98800D03*
X136000Y115118D03*
X139500Y128900D03*
X141200Y130400D03*
X150000Y30600D03*
X150900Y38500D03*
X152427Y63121D03*
X148900Y73879D03*
X151300Y79505D03*
X145995D03*
X149300Y86500D03*
X152900Y93473D03*
Y91400D03*
X149900Y105700D03*
X154173Y111900D03*
X153900Y108458D03*
X158500Y65800D03*
X160500Y76827D03*
X163700D03*
X157100Y77000D03*
X158000Y90127D03*
X163748D03*
X155500Y106600D03*
X158900Y117500D03*
X167100Y24884D03*
X174427Y36327D03*
X168427Y44614D03*
X171773Y44700D03*
X167600Y60263D03*
X174844Y57044D03*
X173600Y71900D03*
X168427D03*
X174700Y76827D03*
X174500Y90127D03*
X171773Y86100D03*
X176268Y104521D03*
X176200Y115163D03*
X175500Y119100D03*
Y123037D03*
X186883Y33983D03*
X186033Y62567D03*
X182400Y76827D03*
X187200Y90041D03*
X177648Y87400D03*
X185500Y93978D03*
X176300Y101175D03*
X185500Y97915D03*
G54D22*
X77756Y36732D03*
Y60354D03*
X85630Y36732D03*
Y60354D03*
X101378Y36732D03*
Y60354D03*
X109252Y36732D03*
Y60354D03*
G54D13*
X-3000Y117800D03*
G54D23*
X73818Y115118D03*
Y121180D03*
X93503Y115118D03*
Y121180D03*
X113188Y115118D03*
Y121180D03*
X132874Y115118D03*
Y121180D03*
G54D14*
X9852Y80173D03*
Y76827D03*
Y93473D03*
Y90127D03*
X7000Y105827D03*
Y109173D03*
X21284Y80173D03*
Y76827D03*
X15568D03*
Y80173D03*
X21284Y93473D03*
Y90127D03*
X15568D03*
Y93473D03*
X17000Y105827D03*
Y109173D03*
X27000Y76827D03*
Y80173D03*
Y90127D03*
Y93473D03*
Y105827D03*
Y109173D03*
X56200Y94783D03*
Y98129D03*
X61916Y94783D03*
Y98129D03*
X72040Y73073D03*
Y69727D03*
X77756Y73073D03*
Y69727D03*
X85630Y73073D03*
Y69727D03*
X91346Y73073D03*
Y69727D03*
X109252Y73073D03*
Y69727D03*
X103536Y73073D03*
Y69727D03*
X121384Y100783D03*
Y104129D03*
X127100Y100783D03*
Y104129D03*
X160500Y80173D03*
Y76827D03*
Y90127D03*
Y93473D03*
X171932Y80173D03*
Y76827D03*
X166216D03*
Y80173D03*
X171932Y90127D03*
Y93473D03*
X166216D03*
Y90127D03*
X177648Y76827D03*
Y80173D03*
Y93473D03*
Y90127D03*
G54D24*
G01X844Y42637D02*
X-2200Y39593D01*
Y24900D01*
X-1600Y24300D01*
X35000D01*
X35600Y23700D01*
Y21056D01*
X36200Y20456D01*
X40713D01*
G01X4890Y38591D02*
X1958Y35659D01*
Y26700D01*
X2558Y26100D01*
X35300D01*
X35900Y26700D01*
Y31288D01*
X36500Y31888D01*
X40713D01*
G01X8778Y34703D02*
X5800Y31726D01*
Y28400D01*
X6400Y27800D01*
X34000D01*
X34600Y28400D01*
Y42720D01*
X35200Y43320D01*
X40713D01*
G01X15568Y80173D02*
X9852D01*
G01D02*
X7000D01*
G01X9852Y93473D02*
X3460D01*
X2100Y92113D01*
G01X15568Y93473D02*
X9852D01*
G01X21284D02*
Y95454D01*
X20688Y96050D01*
X2000D01*
G01X18527Y18000D02*
X25400D01*
G01X31800Y21044D02*
X15500D01*
G01X14000Y29994D02*
X21873D01*
G01X18527Y48100D02*
X15000D01*
X14400Y48700D01*
Y61852D01*
G01X40713Y66184D02*
X24392D01*
X20750Y62541D01*
G01X54594Y79589D02*
X47600D01*
X47000Y80189D01*
Y90900D01*
X45800Y92100D01*
X34600D01*
X33600Y91100D01*
Y85600D01*
X33000Y85000D01*
X19000D01*
X18400Y85600D01*
Y92720D01*
X17648Y93473D01*
X15568D01*
G01Y80173D02*
Y83100D01*
X16168Y83700D01*
X32900D01*
X33500Y83100D01*
Y78600D01*
X34100Y78000D01*
X56800D01*
X60300Y74500D01*
G01X27000Y80173D02*
X21284D01*
G01D02*
X18800D01*
G01X21284Y93473D02*
X27000D01*
G01X54700Y86700D02*
X50500D01*
X49900Y87300D01*
Y92300D01*
X47300Y94900D01*
X34500D01*
X31200Y98200D01*
X22300D01*
X21300Y99200D01*
Y107873D01*
X20000Y109173D01*
X17000D01*
G01D02*
Y117800D01*
G01X28683Y54608D02*
X32374Y58300D01*
X33900D01*
X34900Y57300D01*
Y55352D01*
X35500Y54752D01*
X40713D01*
G01X27000Y80173D02*
X31200D01*
X31800Y79573D01*
Y77100D01*
X32400Y76500D01*
X56500D01*
X58100Y74900D01*
Y73400D01*
X58700Y72800D01*
G01X27000Y93473D02*
X46527D01*
X48400Y91600D01*
Y82700D01*
X49000Y82100D01*
X58500D01*
X59100Y81500D01*
Y78000D01*
G01X27000Y117800D02*
X22700Y113500D01*
Y100300D01*
X23400Y99600D01*
X33100D01*
X36300Y96400D01*
X48200D01*
X51400Y93200D01*
Y88800D01*
X52000Y88200D01*
X56600D01*
G01X27000Y109173D02*
Y111500D01*
X27600Y112100D01*
X36400D01*
X37000Y112700D01*
Y117800D01*
G01X84646Y-1270D02*
X48000D01*
X47400Y-670D01*
Y28400D01*
X46800Y29000D01*
X41313D01*
X40713Y28400D01*
Y26172D01*
G01Y20456D02*
Y26172D01*
G01X86614Y230D02*
X49200D01*
X48600Y830D01*
Y39800D01*
X48000Y40400D01*
X41313D01*
X40713Y39800D01*
Y37604D01*
G01Y31888D02*
Y37604D01*
G01X88583Y1760D02*
X50400D01*
X49800Y2360D01*
Y51200D01*
X49200Y51800D01*
X41313D01*
X40713Y51200D01*
Y49036D01*
G01Y43320D02*
Y49036D01*
G01X90551Y3260D02*
X51600D01*
X51000Y3859D01*
Y62700D01*
X50400Y63300D01*
X41313D01*
X40713Y62700D01*
Y60468D01*
G01Y54752D02*
Y60468D01*
G01X92520Y4760D02*
X52800D01*
X52200Y5360D01*
Y74200D01*
X51600Y74800D01*
X41313D01*
X40713Y74200D01*
Y71900D01*
G01Y66184D02*
Y71900D01*
G01X56200Y98129D02*
Y100110D01*
X54910Y101400D01*
X48500D01*
X47900Y102000D01*
Y108652D01*
X47300Y109252D01*
X42323D01*
G01X96457Y6368D02*
X54800D01*
X54200Y6968D01*
Y72600D01*
G01X53000Y83700D02*
X62400D01*
X63000Y84300D01*
Y89400D01*
G01X51400Y85200D02*
X60800D01*
X61400Y85800D01*
Y88200D01*
G01X69189Y93900D02*
Y105400D01*
X68589Y106000D01*
X51600D01*
X51000Y106600D01*
Y110700D01*
X50400Y111300D01*
X47600D01*
X47000Y111900D01*
Y117800D01*
G01X50600Y104400D02*
X64900D01*
X65500Y103800D01*
Y99700D01*
G01X47000Y117800D02*
Y122500D01*
X47600Y123100D01*
X57600D01*
X58200Y123700D01*
Y141200D01*
X58800Y141800D01*
X137000D01*
X137600Y141200D01*
Y123700D01*
X138200Y123100D01*
X144100D01*
X144685Y122515D01*
Y109252D01*
G01X98425Y7868D02*
X60232D01*
X55998Y12102D01*
Y74500D01*
G01X61916Y98129D02*
X66871D01*
X67700Y97300D01*
Y82400D01*
X65200Y79900D01*
Y74000D01*
X63189Y71989D01*
Y13600D01*
X67421Y9368D01*
X94488D01*
G01X100200Y10968D02*
X68621D01*
X64289Y15300D01*
Y71489D01*
X66600Y73800D01*
Y77900D01*
X67200Y78500D01*
X70900D01*
G01X102000Y12468D02*
X69621D01*
X65389Y16700D01*
Y70889D01*
X68000Y73500D01*
Y76300D01*
X68600Y76900D01*
X72800D01*
G01X58700Y72800D02*
Y49200D01*
X60000Y47900D01*
Y31800D01*
G01X61700Y33400D02*
Y48400D01*
X60300Y49800D01*
Y71000D01*
G01X66200Y93047D02*
Y91558D01*
X66189Y91547D01*
Y82889D01*
X63800Y80500D01*
Y74600D01*
X62000Y72800D01*
X58700D01*
G01X64700Y91300D02*
Y83600D01*
X62300Y81200D01*
Y75011D01*
X61789Y74500D01*
X60300D01*
G01X56200Y98129D02*
X61916D01*
G01X65944Y115393D02*
Y109200D01*
X66544Y108600D01*
X70100D01*
X70700Y108000D01*
Y87006D01*
X77886Y79820D01*
X122300D01*
G01X72040Y69727D02*
X77756D01*
G01X85629Y115393D02*
Y108400D01*
X85029Y107800D01*
X72400D01*
X71800Y107200D01*
Y87700D01*
X78191Y81309D01*
X124000D01*
G01X105314Y115393D02*
Y112700D01*
X104714Y112100D01*
X89611D01*
X88500Y110989D01*
Y106700D01*
X87900Y106100D01*
X73500D01*
X72900Y105500D01*
Y88400D01*
X78492Y82809D01*
X125500D01*
G01X155500Y106600D02*
Y102500D01*
X154900Y101900D01*
X132300D01*
X131700Y101300D01*
Y89300D01*
X129100Y86700D01*
Y77300D01*
X128500Y76700D01*
X76300D01*
X69189Y83811D01*
Y86200D01*
G01X75400Y80200D02*
X77400Y78200D01*
X127100D01*
X127700Y78800D01*
Y87300D01*
X130300Y89900D01*
Y102800D01*
X130900Y103400D01*
X153300D01*
X153900Y104000D01*
Y108458D01*
G01X91500Y98445D02*
X89445Y100500D01*
X79700D01*
X75700Y96500D01*
G01X84646Y-1270D02*
X126130D01*
X126800Y-600D01*
Y22000D01*
G01X86614Y230D02*
X124130D01*
X125000Y1100D01*
Y19100D01*
G01X85630Y60354D02*
Y55617D01*
X82900Y52887D01*
Y44199D01*
X85630Y41469D01*
Y36732D01*
G01X77756Y60354D02*
Y36732D01*
G01X85630Y69727D02*
Y60354D01*
G01X77756Y69727D02*
Y60354D01*
G01X80600Y69727D02*
X77756D01*
G01X85630D02*
X91346D01*
G01X89900Y96870D02*
X88170Y98600D01*
X80711D01*
X77100Y94989D01*
G01X92520Y4760D02*
X103260D01*
X106100Y7600D01*
X110300D01*
X110900Y8200D01*
Y23700D01*
X121700Y34500D01*
Y66300D01*
X121100Y66900D01*
X115200D01*
X114600Y67500D01*
Y73400D01*
G01X112700Y20600D02*
Y7000D01*
X112100Y6400D01*
X106700D01*
X103571Y3270D01*
X93070D01*
X93059Y3260D01*
X90551D01*
G01X88583Y1760D02*
X103860D01*
X107189Y5089D01*
X113900D01*
X114500Y5689D01*
Y25000D01*
X123100Y33600D01*
Y66856D01*
X121956Y68000D01*
X116700D01*
X116100Y68600D01*
Y75100D01*
G01X91346Y69727D02*
X94600D01*
G01X90600Y84300D02*
Y92146D01*
G01X124000Y84298D02*
X97200D01*
X96600Y84898D01*
Y107500D01*
X97200Y108100D01*
X124400D01*
X125000Y108700D01*
Y115393D01*
G01X94900Y84300D02*
Y108600D01*
X95500Y109200D01*
X109191D01*
X109791Y109800D01*
Y114100D01*
G01X93000Y85500D02*
Y109700D01*
X93600Y110300D01*
X107616D01*
X108216Y110900D01*
Y115300D01*
G01X88700Y85500D02*
Y90571D01*
G01X108700Y3600D02*
X120800D01*
X121400Y4200D01*
Y23100D01*
X123500Y25200D01*
X137800D01*
G01X100394Y23800D02*
Y30200D01*
G01X102362Y23800D02*
Y30500D01*
G01X109252Y60354D02*
Y36732D01*
G01Y69727D02*
Y60354D01*
G01X103536Y69727D02*
X100400D01*
G01X109252D02*
X103536D01*
G01X110400Y2000D02*
X111889D01*
X111989Y2100D01*
X122400D01*
X123000Y2700D01*
Y22600D01*
X124100Y23700D01*
X136300D01*
G01X117900Y17600D02*
Y23800D01*
X127300Y33200D01*
Y70800D01*
X126700Y71400D01*
X117800D01*
G01X116300Y16100D02*
Y24400D01*
X124900Y33000D01*
Y69200D01*
X124200Y69900D01*
X119400D01*
G01X119600Y20600D02*
Y23500D01*
X129000Y32900D01*
Y74500D01*
X128400Y75100D01*
X122800D01*
G01X130400Y7600D02*
X153400D01*
X154000Y8200D01*
Y20200D01*
X154600Y20800D01*
X191400D01*
X192000Y21400D01*
Y79573D01*
X191400Y80173D01*
X177648D01*
G01X166216D02*
X168676D01*
X169100Y79749D01*
Y74100D01*
X169700Y73500D01*
X190200D01*
X190800Y72900D01*
Y23000D01*
X190200Y22400D01*
X153100D01*
X152500Y21800D01*
Y9800D01*
X151900Y9200D01*
X129500D01*
X128900Y8600D01*
Y5900D01*
G01X139500Y128900D02*
Y126900D01*
X140100Y126300D01*
X156800D01*
X157400Y125700D01*
Y101000D01*
X156800Y100400D01*
X133800D01*
X133200Y99800D01*
Y88700D01*
X130700Y86200D01*
Y29600D01*
X131300Y29000D01*
X145758D01*
X146358Y28400D01*
Y26172D01*
G01X127100Y104129D02*
X121384D01*
G01X144685Y109252D02*
X127700D01*
X127100Y108652D01*
Y104129D01*
G01X134794Y97300D02*
Y88294D01*
X132300Y85800D01*
Y41100D01*
X132900Y40500D01*
X145758D01*
X146358Y39900D01*
Y37604D01*
G01X136300Y98800D02*
Y87700D01*
X133800Y85200D01*
Y52500D01*
X134400Y51900D01*
X145618D01*
X146358Y51160D01*
Y49036D01*
G01X158900Y117500D02*
Y99500D01*
X158300Y98900D01*
X138389D01*
X137789Y98300D01*
Y87089D01*
X135300Y84600D01*
Y64000D01*
X135900Y63400D01*
X145758D01*
X146358Y62800D01*
Y60468D01*
G01X141200Y130400D02*
Y128000D01*
X141800Y127400D01*
X159800D01*
X160400Y126800D01*
Y97900D01*
X159800Y97300D01*
X139800D01*
X139200Y96700D01*
Y86500D01*
X136800Y84100D01*
Y75500D01*
X137400Y74900D01*
X145758D01*
X146358Y74300D01*
Y71900D01*
G01Y20456D02*
Y26172D01*
G01D02*
X157726D01*
X166258Y34703D01*
G01X162370Y38591D02*
X157179Y33400D01*
X150600D01*
X149800Y34200D01*
Y37000D01*
X149196Y37604D01*
X146358D01*
G01Y49036D02*
X151200D01*
X151800Y48436D01*
Y40500D01*
X152595Y39705D01*
X155392D01*
X158324Y42637D01*
G01X146358Y31888D02*
Y37604D01*
G01Y43320D02*
Y49036D01*
G01X178230Y62541D02*
X181162Y65473D01*
Y67900D01*
X180562Y68500D01*
X150800D01*
X149700Y67400D01*
Y61068D01*
X149100Y60468D01*
X146358D01*
G01D02*
Y54752D01*
G01X186163Y54608D02*
X189400Y57846D01*
Y69500D01*
X188800Y70100D01*
X150500D01*
X148700Y71900D01*
X146358D01*
G01D02*
Y66184D01*
G01X152900Y91400D02*
Y87800D01*
X153500Y87200D01*
X168500D01*
X169100Y87800D01*
Y92873D01*
X169700Y93473D01*
X171932D01*
G01X152900D02*
X160500D01*
G01X157100Y77000D02*
Y85500D01*
X157700Y86100D01*
X171773D01*
G01X160500Y80173D02*
X166216D01*
G01Y93473D02*
X160500D01*
G01X174427Y36327D02*
X172373D01*
X171773Y36927D01*
Y44700D01*
G01X174844Y57044D02*
Y49000D01*
X174244Y48400D01*
X169027D01*
X168427Y47800D01*
Y44614D01*
G01X173600Y71900D02*
X168427D01*
G01X171932Y80173D02*
X177648D01*
G01X166216D02*
Y84000D01*
X166816Y84600D01*
X182900D01*
X183500Y85200D01*
Y97404D01*
X184011Y97915D01*
X185500D01*
G01X171932Y93473D02*
Y118600D01*
X172432Y119100D01*
X175500D01*
G01X166216Y93473D02*
Y122437D01*
X166816Y123037D01*
X175500D01*
G01X177648Y93473D02*
X171932D01*
G01X177648Y80173D02*
Y82600D01*
X178248Y83200D01*
X184900D01*
X185500Y83800D01*
Y93978D01*
G54D15*
X7000Y117800D03*
X17000D03*
X27000D03*
X47000D03*
X37000D03*
X57000D03*
G54D25*
G01X9852Y76827D02*
X7384D01*
G01X9852Y90127D02*
Y87757D01*
G01X7000Y105827D02*
X9500D01*
G01X15568Y76827D02*
Y74400D01*
G01X21284Y76827D02*
Y74457D01*
G01X15568Y90127D02*
Y87700D01*
G01X21284Y90127D02*
Y87757D01*
G01X17000Y105827D02*
X14532D01*
G01X39000Y63200D02*
X29186D01*
X24639Y58652D01*
G01X25661Y70437D02*
X27000Y71776D01*
Y76827D01*
G01Y90127D02*
Y87700D01*
G01Y105827D02*
X24532D01*
G01X44059Y20456D02*
Y12000D01*
G01Y37604D02*
X46500D01*
G01X44059Y31888D02*
X46429D01*
G01X47800Y48100D02*
X46864Y49036D01*
X44059D01*
G01X46429Y43320D02*
X44059D01*
G01Y71900D02*
Y69400D01*
G01Y66184D02*
X47200D01*
X47216Y66200D01*
G01X42323Y83661D02*
Y87900D01*
G01X61916Y94783D02*
X59736D01*
X59100Y94147D01*
Y91400D01*
X58300Y90600D01*
X55000D01*
G01X52828Y98628D02*
Y95583D01*
X53628Y94783D01*
X56200D01*
G01X68300Y69300D02*
Y71600D01*
X69773Y73073D01*
X72040D01*
G01X75565Y75165D02*
X77658Y73073D01*
X77756D01*
G01D02*
X85630D01*
G01X100400D02*
X91346D01*
G01X113711Y58000D02*
Y65589D01*
X112800Y66500D01*
Y72100D01*
X111827Y73073D01*
X109252D01*
G01X122873Y93100D02*
Y87421D01*
G01X125900D02*
X122873D01*
G01X127100Y100783D02*
Y92413D01*
G01X140600Y26172D02*
X143012D01*
G01Y37604D02*
X139800D01*
G01X143012Y49036D02*
X140000D01*
G01X143012Y43320D02*
X140616D01*
G01X143012Y20456D02*
Y22924D01*
G01Y31888D02*
Y34356D01*
G01Y54752D02*
Y57221D01*
G01Y71900D02*
Y69400D01*
G01X149300Y86500D02*
Y84461D01*
X148500Y83661D01*
X144685D01*
G01X166216Y76827D02*
X163700D01*
G01X160500Y90127D02*
X158000D01*
G01X166216D02*
X163748D01*
G01X171932Y76827D02*
X174700D01*
G01X171932Y90127D02*
X174500D01*
G01X182119Y58652D02*
X186033Y62567D01*
G01X177648Y76827D02*
X182400D01*
G01X177648Y90127D02*
Y87400D01*
G54D16*
X40713Y20456D03*
X44059D03*
X40713Y31888D03*
X44059D03*
Y26172D03*
X40713D03*
X44059Y37604D03*
X40713D03*
X44059Y49036D03*
X40713D03*
Y43320D03*
X44059D03*
Y60468D03*
X40713D03*
X44059Y54752D03*
X40713D03*
X44059Y66184D03*
X40713D03*
X44059Y71900D03*
X40713D03*
X119527Y93100D03*
Y87421D03*
X122873Y93100D03*
Y87421D03*
X143012Y20456D03*
Y31888D03*
Y26172D03*
Y37604D03*
Y43320D03*
Y49036D03*
Y54752D03*
Y60468D03*
Y66184D03*
Y71900D03*
X146358Y20456D03*
Y31888D03*
Y26172D03*
Y37604D03*
Y43320D03*
Y49036D03*
Y54752D03*
Y60468D03*
Y66184D03*
Y71900D03*
G54D26*
G01X3489Y59897D02*
X-1507Y64893D01*
G01X7000Y109173D02*
Y117800D01*
G01X21750Y34250D02*
X24848Y37348D01*
X26038D01*
G01X62007Y115393D02*
Y112900D01*
G01X63976Y130827D02*
Y120707D01*
G01Y136890D02*
X72618D01*
X73818Y135690D01*
Y121180D01*
G01Y115118D02*
X70100D01*
X68900Y113918D01*
Y111300D01*
G01X81692Y115393D02*
Y117800D01*
G01X83661Y130827D02*
Y120707D01*
G01X93503Y121180D02*
Y135690D01*
X92303Y136890D01*
X83661D01*
G01X101378Y36732D02*
X97457D01*
X97400Y36789D01*
G01X97600Y115393D02*
X101377D01*
G01X93503Y115118D02*
X90100D01*
G01X101378Y36732D02*
Y60354D01*
G01X103346Y130827D02*
Y120707D01*
G01X113188Y121180D02*
Y135690D01*
X111988Y136890D01*
X103346D01*
G01X121063Y115393D02*
Y113337D01*
X122100Y112300D01*
G01X116800Y126900D02*
Y118631D01*
X113287Y115118D01*
X113188D01*
G01X123032Y130827D02*
Y120707D01*
G01X132874Y121180D02*
Y135690D01*
X131674Y136890D01*
X123032D01*
G01X132874Y115118D02*
X136000D01*
G01X158500Y65800D02*
X161838Y62462D01*
Y60765D01*
X160969Y59897D01*
G01X183518Y37348D02*
X186883Y33983D01*
G54D17*
X42323Y83661D03*
Y109252D03*
X144685Y83661D03*
Y109252D03*
G54D18*
X57684Y41893D03*
Y44193D03*
Y46493D03*
X71900Y18400D03*
X69600D03*
X74200D03*
X69600Y21100D03*
X71900D03*
X74200D03*
X69783Y42261D03*
X67783Y41061D03*
Y43461D03*
X67685Y63441D03*
Y61041D03*
X69685Y62241D03*
X82677Y14800D03*
Y24200D03*
X85677Y46400D03*
X87677Y47600D03*
X85677Y48800D03*
X94485Y43860D03*
X93607Y63084D03*
X91307D03*
X95907D03*
X91985Y57132D03*
X114058Y54492D03*
X159100Y7800D03*
X156400Y7900D03*
Y12500D03*
X159100Y10100D03*
Y12400D03*
X156400Y10200D03*
G54D19*
X65944Y115393D03*
X62007D03*
X81692D03*
X85629D03*
X101377D03*
X105314D03*
X121063D03*
X125000D03*
M02*
