G04 ================== begin FILE IDENTIFICATION RECORD ==================*
G04 Layout Name:  joystick_board.brd*
G04 Film Name:    05-SOLD_TOP*
G04 File Format:  Gerber RS274X*
G04 File Origin:  Cadence Allegro 17.4-S035*
G04 Origin Date:  Thu Oct 16 19:21:40 2025*
G04 *
G04 Layer:  PIN/SOLDERMASK_TOP*
G04 Layer:  PACKAGE GEOMETRY/SOLDERMASK_TOP*
G04 Layer:  BOARD GEOMETRY/SOLDERMASK_TOP*
G04 *
G04 Offset:    (0.000 0.000)*
G04 Mirror:    No*
G04 Mode:      Positive*
G04 Rotation:  0*
G04 FullContactRelief:  No*
G04 UndefLineWidth:     0.000*
G04 ================== end FILE IDENTIFICATION RECORD ====================*
%FSLAX25Y25*MOIN*%
%IR0*IPPOS*OFA0.00000B0.00000*MIA0B0*SFA1.00000B1.00000*%
%AMMACRO12*
4,1,40,-.03445,.01181,
-.03445,-.01181,
-.03439,-.012494,
-.034212,-.013158,
-.033922,-.01378,
-.033528,-.014343,
-.033043,-.014828,
-.03248,-.015222,
-.031858,-.015512,
-.031194,-.01569,
-.03051,-.01575,
.03051,-.01575,
.031194,-.01569,
.031858,-.015512,
.03248,-.015222,
.033043,-.014828,
.033528,-.014343,
.033922,-.01378,
.034212,-.013158,
.03439,-.012494,
.03445,-.01181,
.03445,.01181,
.03439,.012494,
.034212,.013158,
.033922,.01378,
.033528,.014343,
.033043,.014828,
.03248,.015222,
.031858,.015512,
.031194,.01569,
.03051,.01575,
-.03051,.01575,
-.031194,.01569,
-.031858,.015512,
-.03248,.015222,
-.033043,.014828,
-.033528,.014343,
-.033922,.01378,
-.034212,.013158,
-.03439,.012494,
-.03445,.01181,
0.0*
%
%ADD12MACRO12*%
%AMMACRO34*
4,1,40,-.03937,.02362,
-.03937,-.02362,
-.03931,-.024304,
-.039132,-.024968,
-.038842,-.02559,
-.038448,-.026153,
-.037963,-.026638,
-.0374,-.027032,
-.036778,-.027322,
-.036114,-.0275,
-.03543,-.02756,
.03543,-.02756,
.036114,-.0275,
.036778,-.027322,
.0374,-.027032,
.037963,-.026638,
.038448,-.026153,
.038842,-.02559,
.039132,-.024968,
.03931,-.024304,
.03937,-.02362,
.03937,.02362,
.03931,.024304,
.039132,.024968,
.038842,.02559,
.038448,.026153,
.037963,.026638,
.0374,.027032,
.036778,.027322,
.036114,.0275,
.03543,.02756,
-.03543,.02756,
-.036114,.0275,
-.036778,.027322,
-.0374,.027032,
-.037963,.026638,
-.038448,.026153,
-.038842,.02559,
-.039132,.024968,
-.03931,.024304,
-.03937,.02362,
0.0*
%
%ADD34MACRO34*%
%ADD30R,.16548X.16548*%
%AMMACRO31*
4,1,40,.02362,.03937,
-.02362,.03937,
-.024304,.03931,
-.024968,.039132,
-.02559,.038842,
-.026153,.038448,
-.026638,.037963,
-.027032,.0374,
-.027322,.036778,
-.0275,.036114,
-.02756,.03543,
-.02756,-.03543,
-.0275,-.036114,
-.027322,-.036778,
-.027032,-.0374,
-.026638,-.037963,
-.026153,-.038448,
-.02559,-.038842,
-.024968,-.039132,
-.024304,-.03931,
-.02362,-.03937,
.02362,-.03937,
.024304,-.03931,
.024968,-.039132,
.02559,-.038842,
.026153,-.038448,
.026638,-.037963,
.027032,-.0374,
.027322,-.036778,
.0275,-.036114,
.02756,-.03543,
.02756,.03543,
.0275,.036114,
.027322,.036778,
.027032,.0374,
.026638,.037963,
.026153,.038448,
.02559,.038842,
.024968,.039132,
.024304,.03931,
.02362,.03937,
0.0*
%
%ADD31MACRO31*%
%AMMACRO29*
4,1,40,.027555,.026575,
-.027555,.026575,
-.028239,.026515,
-.028903,.026337,
-.029525,.026047,
-.030088,.025653,
-.030573,.025168,
-.030967,.024605,
-.031257,.023983,
-.031435,.023319,
-.031495,.022635,
-.031495,-.022635,
-.031435,-.023319,
-.031257,-.023983,
-.030967,-.024605,
-.030573,-.025168,
-.030088,-.025653,
-.029525,-.026047,
-.028903,-.026337,
-.028239,-.026515,
-.027555,-.026575,
.027555,-.026575,
.028239,-.026515,
.028903,-.026337,
.029525,-.026047,
.030088,-.025653,
.030573,-.025168,
.030967,-.024605,
.031257,-.023983,
.031435,-.023319,
.031495,-.022635,
.031495,.022635,
.031435,.023319,
.031257,.023983,
.030967,.024605,
.030573,.025168,
.030088,.025653,
.029525,.026047,
.028903,.026337,
.028239,.026515,
.027555,.026575,
0.0*
%
%ADD29MACRO29*%
%AMMACRO23*
4,1,40,.003937,.026575,
-.003937,.026575,
-.004621,.026515,
-.005284,.026338,
-.005905,.026048,
-.006468,.025654,
-.006953,.025169,
-.007347,.024607,
-.007637,.023985,
-.007814,.023322,
-.007874,.022638,
-.007874,-.022638,
-.007814,-.023322,
-.007637,-.023985,
-.007347,-.024606,
-.006953,-.025169,
-.006468,-.025654,
-.005906,-.026048,
-.005284,-.026338,
-.004621,-.026515,
-.003937,-.026575,
.003937,-.026575,
.004621,-.026515,
.005284,-.026338,
.005905,-.026048,
.006468,-.025654,
.006953,-.025169,
.007347,-.024607,
.007637,-.023985,
.007814,-.023322,
.007874,-.022638,
.007874,.022638,
.007814,.023322,
.007637,.023985,
.007347,.024606,
.006953,.025169,
.006468,.025654,
.005905,.026048,
.005284,.026338,
.004621,.026515,
.003937,.026575,
0.0*
%
%ADD23MACRO23*%
%AMMACRO26*
4,1,40,-.02165,-.01575,
.02165,-.01575,
.022334,-.01569,
.022998,-.015512,
.02362,-.015222,
.024183,-.014828,
.024668,-.014343,
.025062,-.01378,
.025352,-.013158,
.02553,-.012494,
.02559,-.01181,
.02559,.01181,
.02553,.012494,
.025352,.013158,
.025062,.01378,
.024668,.014343,
.024183,.014828,
.02362,.015222,
.022998,.015512,
.022334,.01569,
.02165,.01575,
-.02165,.01575,
-.022334,.01569,
-.022998,.015512,
-.02362,.015222,
-.024183,.014828,
-.024668,.014343,
-.025062,.01378,
-.025352,.013158,
-.02553,.012494,
-.02559,.01181,
-.02559,-.01181,
-.02553,-.012494,
-.025352,-.013158,
-.025062,-.01378,
-.024668,-.014343,
-.024183,-.014828,
-.02362,-.015222,
-.022998,-.015512,
-.022334,-.01569,
-.02165,-.01575,
0.0*
%
%ADD26MACRO26*%
%ADD18C,.04331*%
%ADD11R,.07X.07493*%
%ADD20R,.03359X.03162*%
%ADD15O,.07178X.01902*%
%AMMACRO33*
4,1,40,.03445,-.01181,
.03445,.01181,
.03439,.012494,
.034212,.013158,
.033922,.01378,
.033528,.014343,
.033043,.014828,
.03248,.015222,
.031858,.015512,
.031194,.01569,
.03051,.01575,
-.03051,.01575,
-.031194,.01569,
-.031858,.015512,
-.03248,.015222,
-.033043,.014828,
-.033528,.014343,
-.033922,.01378,
-.034212,.013158,
-.03439,.012494,
-.03445,.01181,
-.03445,-.01181,
-.03439,-.012494,
-.034212,-.013158,
-.033922,-.01378,
-.033528,-.014343,
-.033043,-.014828,
-.03248,-.015222,
-.031858,-.015512,
-.031194,-.01569,
-.03051,-.01575,
.03051,-.01575,
.031194,-.01569,
.031858,-.015512,
.03248,-.015222,
.033043,-.014828,
.033528,-.014343,
.033922,-.01378,
.034212,-.013158,
.03439,-.012494,
.03445,-.01181,
0.0*
%
%ADD33MACRO33*%
%AMMACRO32*
4,1,40,-.01181,-.03445,
.01181,-.03445,
.012494,-.03439,
.013158,-.034212,
.01378,-.033922,
.014343,-.033528,
.014828,-.033043,
.015222,-.03248,
.015512,-.031858,
.01569,-.031194,
.01575,-.03051,
.01575,.03051,
.01569,.031194,
.015512,.031858,
.015222,.03248,
.014828,.033043,
.014343,.033528,
.01378,.033922,
.013158,.034212,
.012494,.03439,
.01181,.03445,
-.01181,.03445,
-.012494,.03439,
-.013158,.034212,
-.01378,.033922,
-.014343,.033528,
-.014828,.033043,
-.015222,.03248,
-.015512,.031858,
-.01569,.031194,
-.01575,.03051,
-.01575,-.03051,
-.01569,-.031194,
-.015512,-.031858,
-.015222,-.03248,
-.014828,-.033043,
-.014343,-.033528,
-.01378,-.033922,
-.013158,-.034212,
-.012494,-.03439,
-.01181,-.03445,
0.0*
%
%ADD32MACRO32*%
%ADD21R,.06312X.04737*%
%ADD14R,.03162X.03359*%
%ADD19R,.05712X.08074*%
%ADD17R,.05118X.05118*%
%ADD13C,.07493*%
%ADD24R,.04658X.04461*%
%ADD25R,.04461X.04658*%
%AMMACRO10*
4,1,40,.03937,-.02362,
.03937,.02362,
.03931,.024304,
.039132,.024968,
.038842,.02559,
.038448,.026153,
.037963,.026638,
.0374,.027032,
.036778,.027322,
.036114,.0275,
.03543,.02756,
-.03543,.02756,
-.036114,.0275,
-.036778,.027322,
-.0374,.027032,
-.037963,.026638,
-.038448,.026153,
-.038842,.02559,
-.039132,.024968,
-.03931,.024304,
-.03937,.02362,
-.03937,-.02362,
-.03931,-.024304,
-.039132,-.024968,
-.038842,-.02559,
-.038448,-.026153,
-.037963,-.026638,
-.0374,-.027032,
-.036778,-.027322,
-.036114,-.0275,
-.03543,-.02756,
.03543,-.02756,
.036114,-.0275,
.036778,-.027322,
.0374,-.027032,
.037963,-.026638,
.038448,-.026153,
.038842,-.02559,
.039132,-.024968,
.03931,-.024304,
.03937,-.02362,
0.0*
%
%ADD10MACRO10*%
%ADD28R,.03818X.01587*%
%ADD27R,.01587X.03818*%
%ADD16R,.06693X.06299*%
%AMMACRO22*
4,1,44,.037401,.051181,
-.037401,.051181,
-.038085,.051121,
-.038748,.050944,
-.03937,.050654,
-.039932,.05026,
-.040417,.049775,
-.040811,.049213,
-.041101,.048591,
-.041279,.047928,
-.041338,.047244,
-.041338,.047244,
-.041338,-.047244,
-.041279,-.047928,
-.041101,-.048591,
-.040811,-.049212,
-.040417,-.049775,
-.039932,-.05026,
-.03937,-.050654,
-.038748,-.050944,
-.038085,-.051121,
-.037402,-.051181,
-.037401,-.051181,
.037401,-.051181,
.038085,-.051121,
.038748,-.050944,
.03937,-.050654,
.039932,-.05026,
.040417,-.049775,
.040811,-.049213,
.041101,-.048591,
.041279,-.047928,
.041338,-.047244,
.041338,-.047244,
.041338,.047244,
.041279,.047928,
.041101,.048591,
.040811,.049212,
.040417,.049775,
.039932,.05026,
.03937,.050654,
.038748,.050944,
.038085,.051121,
.037401,.051181,
.037401,.051181,
0.0*
%
%ADD22MACRO22*%
%LPD*%
G75*
G54D10*
X-3417Y20939D03*
Y50861D03*
Y59873D03*
Y86995D03*
Y77983D03*
Y105105D03*
G54D20*
X41500Y18674D03*
Y15328D03*
Y50707D03*
Y54053D03*
X47216Y18674D03*
Y15328D03*
Y50707D03*
Y54053D03*
X55000Y93111D03*
Y96457D03*
X49000Y93111D03*
Y96457D03*
X67268Y106319D03*
Y102973D03*
X61552Y106319D03*
Y102973D03*
X72984Y106319D03*
Y102973D03*
X73701Y130127D03*
Y133473D03*
X78700Y102973D03*
Y106319D03*
X84416Y102973D03*
Y106319D03*
X106642Y73627D03*
Y76973D03*
X120000Y123848D03*
Y120502D03*
X115200Y136027D03*
Y139373D03*
X120916Y136027D03*
Y139373D03*
X143084Y47472D03*
Y44126D03*
Y79505D03*
Y82851D03*
X148800Y44126D03*
Y47472D03*
Y79505D03*
Y82851D03*
X173800Y101175D03*
Y104521D03*
X168100Y101175D03*
Y104521D03*
G54D11*
X-3000Y117800D03*
G54D21*
X61985Y44193D03*
Y56792D03*
G54D30*
X109004Y97657D03*
G54D12*
X6524Y26057D03*
Y29994D03*
Y41806D03*
Y37869D03*
Y33931D03*
Y45743D03*
Y72865D03*
Y64991D03*
Y68928D03*
Y92113D03*
Y96050D03*
Y99987D03*
G54D22*
X70118Y8631D03*
X116890D03*
G54D13*
X7000Y117800D03*
X17000D03*
X27000D03*
X47000D03*
X37000D03*
X57000D03*
G54D31*
X129976Y283D03*
X152024D03*
G54D14*
X18527Y15328D03*
X21873D03*
Y21044D03*
X18527D03*
Y50707D03*
X21873D03*
Y56423D03*
X18527D03*
X13527Y98425D03*
X16873D03*
X29007Y32200D03*
X25661D03*
X29007Y37916D03*
X25661D03*
X30027Y43700D03*
X33373D03*
X29007Y67579D03*
X25661D03*
X29007Y73295D03*
X25661D03*
X30027Y79079D03*
X33373D03*
X31027Y106300D03*
X43870Y24300D03*
X37873Y32200D03*
X34527D03*
X37873Y37916D03*
X34527D03*
X43870Y59679D03*
X37873Y67579D03*
X34527D03*
X37873Y73295D03*
X34527D03*
X34373Y106300D03*
X47216Y24300D03*
Y59679D03*
X77047Y124100D03*
X73701D03*
X77047Y139500D03*
X73701D03*
X81168Y82880D03*
X84514D03*
X81168Y88996D03*
X84514D03*
X81168Y96955D03*
X84514D03*
X86027Y120600D03*
Y126316D03*
X94728Y57132D03*
X98074D03*
X96227Y120600D03*
X99573D03*
X89373Y126316D03*
Y120600D03*
X107912Y38544D03*
Y49176D03*
Y43860D03*
Y54492D03*
X108439Y120600D03*
X105093D03*
X111258Y38544D03*
Y49176D03*
Y43860D03*
Y54492D03*
X133027Y106489D03*
X143084Y38500D03*
Y73879D03*
X136373Y106489D03*
X152427Y30600D03*
Y24884D03*
X146430Y38500D03*
X152427Y60263D03*
Y65979D03*
X146430Y73879D03*
X154173Y114400D03*
X150827D03*
X160273Y19100D03*
X156927D03*
X161293Y30600D03*
X164639D03*
X161293Y24884D03*
X164639D03*
X155773Y30600D03*
Y24884D03*
X160273Y54479D03*
X156927D03*
X161293Y60263D03*
X164639D03*
X155773D03*
X161293Y65979D03*
X164639D03*
X155773D03*
X168427Y41756D03*
X171773D03*
Y47472D03*
X168427D03*
X171773Y82851D03*
Y77135D03*
X168427Y82851D03*
Y77135D03*
G54D32*
X135094Y10224D03*
X142969D03*
X139031D03*
X146906D03*
G54D23*
X76772Y18769D03*
X78740D03*
X80709D03*
X82677D03*
X84646D03*
X86614D03*
X94488D03*
X96457D03*
X98425D03*
X88583D03*
X90551D03*
X92520D03*
X100394D03*
X102362D03*
X104331D03*
X106299D03*
X108268D03*
X110236D03*
G54D24*
X73485Y42261D03*
Y48323D03*
X80493Y42261D03*
Y48323D03*
G54D33*
X180476Y53107D03*
Y57044D03*
Y60981D03*
Y72793D03*
Y68856D03*
Y64919D03*
Y93978D03*
Y90041D03*
Y97915D03*
Y115163D03*
Y119100D03*
Y123037D03*
G54D15*
X24393Y92520D03*
Y94489D03*
Y96457D03*
Y98425D03*
Y100394D03*
X41007Y96457D03*
Y94489D03*
Y92520D03*
Y98425D03*
Y100394D03*
X144193Y100584D03*
Y102553D03*
Y104521D03*
Y106489D03*
Y108458D03*
X160807Y106489D03*
Y104521D03*
Y102553D03*
Y100584D03*
Y108458D03*
G54D16*
X31665Y15328D03*
Y50707D03*
X158635Y47472D03*
Y82851D03*
G54D25*
X73387Y62241D03*
Y55233D03*
X79449Y62241D03*
Y55233D03*
G54D34*
X190417Y47989D03*
Y84923D03*
Y77911D03*
Y103033D03*
Y110045D03*
Y128155D03*
G54D17*
X28238Y26473D03*
X35162D03*
X28238Y61852D03*
X35162D03*
X155138Y36327D03*
Y71706D03*
X162062Y36327D03*
Y71706D03*
G54D26*
X90888Y43860D03*
Y47600D03*
Y51340D03*
X101912D03*
Y47600D03*
Y43860D03*
G54D27*
X98768Y84042D03*
Y111273D03*
X109791Y84042D03*
X108216D03*
X106642D03*
X105067D03*
X103492D03*
X101917D03*
X100342D03*
Y111273D03*
X101917D03*
X103492D03*
X105067D03*
X106642D03*
X108216D03*
X109791D03*
X119240Y84042D03*
X117665D03*
X116090D03*
X114516D03*
X112941D03*
X111366D03*
Y111273D03*
X112941D03*
X114516D03*
X116090D03*
X117665D03*
X119240D03*
G54D18*
X25200Y43700D03*
Y79079D03*
X38200Y43700D03*
Y79079D03*
X152200Y19100D03*
X152100Y54479D03*
X165000Y19100D03*
X176600Y82851D03*
G54D28*
X95388Y95295D03*
Y96870D03*
Y87421D03*
Y88996D03*
Y90571D03*
Y92146D03*
Y93720D03*
Y98445D03*
Y100020D03*
Y101594D03*
Y103169D03*
Y104744D03*
Y106319D03*
Y107894D03*
X122619Y96870D03*
Y95295D03*
Y93720D03*
Y92146D03*
Y90571D03*
Y88996D03*
Y87421D03*
Y106319D03*
Y104744D03*
Y103169D03*
Y101594D03*
Y100020D03*
Y98445D03*
Y107894D03*
G54D19*
X27999Y139500D03*
X65401D03*
G54D29*
X97969Y128350D03*
Y134650D03*
X106631Y128350D03*
Y134650D03*
M02*
