G04 ================== begin FILE IDENTIFICATION RECORD ==================*
G04 Layout Name:  joystick_board.brd*
G04 Film Name:    08-PAST_BOTTOM*
G04 File Format:  Gerber RS274X*
G04 File Origin:  Cadence Allegro 17.4-S035*
G04 Origin Date:  Thu Oct 16 19:21:40 2025*
G04 *
G04 Layer:  PIN/PASTEMASK_BOTTOM*
G04 Layer:  PACKAGE GEOMETRY/PASTEMASK_BOTTOM*
G04 Layer:  BOARD GEOMETRY/PASTEMASK_BOTTOM*
G04 *
G04 Offset:    (0.000 0.000)*
G04 Mirror:    No*
G04 Mode:      Positive*
G04 Rotation:  0*
G04 FullContactRelief:  No*
G04 UndefLineWidth:     0.000*
G04 ================== end FILE IDENTIFICATION RECORD ====================*
%FSLAX25Y25*MOIN*%
%IR0*IPPOS*OFA0.00000B0.00000*MIA0B0*SFA1.00000B1.00000*%
%ADD15R,.01575X.02362*%
%ADD14R,.05512X.05906*%
%ADD12R,.02559X.02362*%
%ADD13R,.02362X.02559*%
%ADD18R,.05512X.07874*%
%ADD16R,.01575X.02756*%
%ADD19R,.03858X.03661*%
%ADD17R,.03858X.03661*%
%AMMACRO10*
21,1,.06693,.03937,0.0,0.0,45.*%
%ADD10MACRO10*%
%AMMACRO11*
21,1,.07874,.07087,0.0,0.0,45.*%
%ADD11MACRO11*%
%LPD*%
G75*
G54D10*
X844Y42637D03*
X8778Y34703D03*
X4890Y38591D03*
X20750Y62541D03*
X24639Y58652D03*
X28683Y54608D03*
X158324Y42637D03*
X162370Y38591D03*
X166258Y34703D03*
X178230Y62541D03*
X186163Y54608D03*
X182119Y58652D03*
G54D11*
X3489Y59897D03*
X26038Y37348D03*
X160969Y59897D03*
X183518Y37348D03*
G54D12*
X9852Y80173D03*
Y76827D03*
Y93473D03*
Y90127D03*
X7000Y105827D03*
Y109173D03*
X21284Y80173D03*
Y76827D03*
X15568D03*
Y80173D03*
X21284Y93473D03*
Y90127D03*
X15568D03*
Y93473D03*
X17000Y105827D03*
Y109173D03*
X27000Y76827D03*
Y80173D03*
Y90127D03*
Y93473D03*
Y105827D03*
Y109173D03*
X56200Y94783D03*
Y98129D03*
X61916Y94783D03*
Y98129D03*
X72040Y73073D03*
Y69727D03*
X77756Y73073D03*
Y69727D03*
X85630Y73073D03*
Y69727D03*
X91346Y73073D03*
Y69727D03*
X109252Y73073D03*
Y69727D03*
X103536Y73073D03*
Y69727D03*
X121384Y100783D03*
Y104129D03*
X127100Y100783D03*
Y104129D03*
X160500Y80173D03*
Y76827D03*
Y90127D03*
Y93473D03*
X171932Y80173D03*
Y76827D03*
X166216D03*
Y80173D03*
X171932Y90127D03*
Y93473D03*
X166216D03*
Y90127D03*
X177648Y76827D03*
Y80173D03*
Y93473D03*
Y90127D03*
G54D13*
X40713Y20456D03*
X44059D03*
X40713Y31888D03*
X44059D03*
Y26172D03*
X40713D03*
X44059Y37604D03*
X40713D03*
X44059Y49036D03*
X40713D03*
Y43320D03*
X44059D03*
Y60468D03*
X40713D03*
X44059Y54752D03*
X40713D03*
X44059Y66184D03*
X40713D03*
X44059Y71900D03*
X40713D03*
X119527Y93100D03*
Y87421D03*
X122873Y93100D03*
Y87421D03*
X143012Y20456D03*
Y31888D03*
Y26172D03*
Y37604D03*
Y43320D03*
Y49036D03*
Y54752D03*
Y60468D03*
Y66184D03*
Y71900D03*
X146358Y20456D03*
Y31888D03*
Y26172D03*
Y37604D03*
Y43320D03*
Y49036D03*
Y54752D03*
Y60468D03*
Y66184D03*
Y71900D03*
G54D14*
X42323Y83661D03*
Y109252D03*
X144685Y83661D03*
Y109252D03*
G54D15*
X65944Y115393D03*
X62007D03*
X81692D03*
X85629D03*
X101377D03*
X105314D03*
X121063D03*
X125000D03*
G54D16*
X63976Y120707D03*
X83661D03*
X103346D03*
X123032D03*
G54D17*
X63976Y130827D03*
Y136890D03*
X83661Y130827D03*
Y136890D03*
X103346Y130827D03*
Y136890D03*
X123032Y130827D03*
Y136890D03*
G54D18*
X77756Y36732D03*
Y60354D03*
X85630Y36732D03*
Y60354D03*
X101378Y36732D03*
Y60354D03*
X109252Y36732D03*
Y60354D03*
G54D19*
X73818Y115118D03*
Y121180D03*
X93503Y115118D03*
Y121180D03*
X113188Y115118D03*
Y121180D03*
X132874Y115118D03*
Y121180D03*
M02*
