G04 ================== begin FILE IDENTIFICATION RECORD ==================*
G04 Layout Name:  joystick_board.brd*
G04 Film Name:    09-SILK_TOP*
G04 File Format:  Gerber RS274X*
G04 File Origin:  Cadence Allegro 17.4-S035*
G04 Origin Date:  Thu Oct 16 19:21:40 2025*
G04 *
G04 Layer:  PACKAGE GEOMETRY/SILKSCREEN_TOP*
G04 Layer:  BOARD GEOMETRY/SILKSCREEN_TOP*
G04 *
G04 Offset:    (0.000 0.000)*
G04 Mirror:    No*
G04 Mode:      Positive*
G04 Rotation:  0*
G04 FullContactRelief:  No*
G04 UndefLineWidth:     0.000*
G04 ================== end FILE IDENTIFICATION RECORD ====================*
%FSLAX25Y25*MOIN*%
%IR0*IPPOS*OFA0.00000B0.00000*MIA0B0*SFA1.00000B1.00000*%
%ADD10C,.006*%
%ADD11C,.008*%
%ADD12C,.00591*%
%ADD13C,.00394*%
%ADD14C,.00984*%
%ADD15C,.00787*%
%ADD16C,.01*%
%ADD17C,.01181*%
G75*
%LPD*%
G75*
G36*
G01X94032Y126368D02*
Y124807D01*
X95593D01*
X94032Y126368D01*
G37*
G54D10*
G01X28482Y90251D02*
X36918D01*
G01X28482Y102662D02*
Y90251D01*
G01Y102662D02*
X36918D01*
G01D02*
Y90251D01*
G01X94924Y83578D02*
X97576D01*
G01X94924D02*
Y86230D01*
G01Y111737D02*
X97576D01*
G01X94924Y109085D02*
Y111737D01*
G01X120431Y83578D02*
X123083D01*
G01X120431Y111737D02*
X123083D01*
G01Y83578D02*
Y86230D01*
G01Y109085D02*
Y111737D01*
G01X148282Y98315D02*
X156718D01*
G01X148282Y110726D02*
Y98315D01*
G01Y110726D02*
X156718D01*
G01D02*
Y98315D01*
G54D11*
G01X94032Y138193D02*
X110568D01*
Y124807D01*
X94032D01*
Y138193D01*
G54D12*
G01X93794Y110294D02*
G03I-295J0D01*
G54D13*
G01X34889Y139500D02*
X31936D01*
G01X61464Y135169D02*
X31936D01*
G01X61464Y143831D02*
X31936D01*
G01X34890Y139500D02*
G03X38826I1968J0D01*
G01X38827D02*
G03X42763I1968J0D01*
G01X42764D02*
G03X46700I1968J0D01*
G01X46701D02*
G03X50637I1968J0D01*
G01X50638D02*
G03X54574I1968J0D01*
G01X54575D02*
G03X58511I1968J0D01*
G01X61464D02*
X58511D01*
G01X69338Y143437D02*
Y135563D01*
G01X70125Y142453D02*
Y136547D01*
G54D14*
G01X90594Y54490D02*
G03I-492J0D01*
G54D15*
G01X19019Y13064D02*
X16361D01*
G01Y17592D02*
Y13064D01*
G01X19019Y17592D02*
X16361D01*
G01X24039Y13064D02*
X21381D01*
G01X24039Y17592D02*
X21381D01*
G01Y18780D02*
X24039D01*
G01X16361D02*
Y23308D01*
G01Y18780D02*
X19019D01*
G01X21381Y23308D02*
X24039D01*
G01X16361D02*
X19019D01*
G01Y48443D02*
X16361D01*
G01Y52971D02*
Y48443D01*
G01X24039D02*
X21381D01*
G01X19019Y52971D02*
X16361D01*
G01X24039D02*
X21381D01*
G01Y58687D02*
X24039D01*
G01X21381Y54159D02*
X24039D01*
G01X16361Y58687D02*
X19019D01*
G01X16361Y54159D02*
Y58687D01*
G01Y54159D02*
X19019D01*
G01X14019Y96161D02*
X11361D01*
G01Y100689D02*
Y96161D01*
G01X19039D02*
X16381D01*
G01X19039Y100689D02*
Y96161D01*
G01X14019Y100689D02*
X11361D01*
G01X19039D02*
X16381D01*
G01X24039Y17592D02*
Y13064D01*
G01Y18780D02*
Y23308D01*
G01X31173Y29936D02*
Y34464D01*
G01X28515Y29936D02*
X31173D01*
G01X23495D02*
Y34464D01*
G01Y29936D02*
X26153D01*
G01X32361D02*
Y34464D01*
G01Y29936D02*
X35019D01*
G01X28515Y34464D02*
X31173D01*
G01X23495D02*
X26153D01*
G01X32361D02*
X35019D01*
G01X34672Y41436D02*
X32881D01*
G01X30519D02*
X28728D01*
G01X27861Y42302D02*
G03X28728Y41436I866J0D01*
G01X24362Y35652D02*
X26153D01*
G01X23495Y36518D02*
Y39314D01*
G01X24362Y40180D02*
X26153D01*
G01X28515D02*
X30306D01*
G01X31173Y36518D02*
Y39314D01*
G01X28515Y35652D02*
X30306D01*
G01X23495Y36518D02*
G03X24362Y35652I866J0D01*
G01Y40180D02*
G03X23495Y39314I-1J-866D01*
G01X31173D02*
G03X30306Y40180I-866J0D01*
G01Y35652D02*
G03X31173Y36518I1J866D01*
G01X32361D02*
Y39314D01*
G01Y36518D02*
G03X33228Y35652I866J0D01*
G01Y40180D02*
G03X32361Y39314I-1J-866D01*
G01X34672Y45964D02*
X32881D01*
G01X27861Y45098D02*
Y42302D01*
G01X30519Y45964D02*
X28728D01*
G01D02*
G03X27861Y45098I-1J-866D01*
G01X24039Y52971D02*
Y48443D01*
G01Y54159D02*
Y58687D01*
G01X28515Y69843D02*
X31173D01*
G01Y65315D02*
Y69843D01*
G01X28515Y65315D02*
X31173D01*
G01X23495Y69843D02*
X26153D01*
G01X23495Y65315D02*
Y69843D01*
G01Y65315D02*
X26153D01*
G01X32361Y69843D02*
X35019D01*
G01X32361Y65315D02*
Y69843D01*
G01Y65315D02*
X35019D01*
G01X24362Y71031D02*
X26153D01*
G01X23495Y71897D02*
Y74693D01*
G01X31173Y71897D02*
Y74693D01*
G01X28515Y71031D02*
X30306D01*
G01X23495Y71897D02*
G03X24362Y71031I866J0D01*
G01X30306D02*
G03X31173Y71897I1J866D01*
G01X32361D02*
Y74693D01*
G01Y71897D02*
G03X33228Y71031I866J0D01*
G01X34672Y81343D02*
X32881D01*
G01X34672Y76815D02*
X32881D01*
G01X30519D02*
X28728D01*
G01X27861Y80477D02*
Y77681D01*
G01X30519Y81343D02*
X28728D01*
G01X27861Y77681D02*
G03X28728Y76815I866J0D01*
G01Y81343D02*
G03X27861Y80477I-1J-866D01*
G01X24362Y75559D02*
X26153D01*
G01X28515D02*
X30306D01*
G01X24362D02*
G03X23495Y74693I-1J-866D01*
G01X31173D02*
G03X30306Y75559I-866J0D01*
G01X33228D02*
G03X32361Y74693I-1J-866D01*
G01X28861Y104036D02*
Y108564D01*
G01Y104036D02*
X31519D01*
G01X28861Y108564D02*
X31519D01*
G01X43764Y14029D02*
Y15820D01*
G01X42898Y13162D02*
X40102D01*
G01X39236Y14029D02*
Y15820D01*
G01Y18182D02*
Y19973D01*
G01X43764Y18182D02*
Y19973D01*
G01X42898Y13162D02*
G03X43764Y14029I0J866D01*
G01X39236D02*
G03X40102Y13162I866J-1D01*
G01X40039Y29936D02*
Y34464D01*
G01X37381Y29936D02*
X40039D01*
G01X42898Y20840D02*
X40102D01*
G01D02*
G03X39236Y19973I0J-866D01*
G01X43764D02*
G03X42898Y20840I-866J1D01*
G01X44362Y22036D02*
X42571D01*
G01X41704Y25698D02*
Y22902D01*
G01X44362Y26564D02*
X42571D01*
G01X41704Y22902D02*
G03X42571Y22036I866J0D01*
G01Y26564D02*
G03X41704Y25698I-1J-866D01*
G01X37381Y34464D02*
X40039D01*
G01X34672Y41436D02*
G03X35539Y42302I1J866D01*
G01X33228Y35652D02*
X35019D01*
G01X33228Y40180D02*
X35019D01*
G01X37381D02*
X39172D01*
G01X40039Y36518D02*
Y39314D01*
G01X37381Y35652D02*
X39172D01*
G01X40039Y39314D02*
G03X39172Y40180I-866J0D01*
G01Y35652D02*
G03X40039Y36518I1J866D01*
G01X35539Y45098D02*
Y42302D01*
G01Y45098D02*
G03X34672Y45964I-866J0D01*
G01X43764Y49408D02*
Y51199D01*
G01X42898Y48541D02*
X40102D01*
G01X39236Y49408D02*
Y51199D01*
G01X42898Y48541D02*
G03X43764Y49408I0J866D01*
G01X39236D02*
G03X40102Y48541I866J-1D01*
G01X39236Y53561D02*
Y55352D01*
G01X42898Y56219D02*
X40102D01*
G01X43764Y53561D02*
Y55352D01*
G01X40102Y56219D02*
G03X39236Y55352I0J-866D01*
G01X43764D02*
G03X42898Y56219I-866J1D01*
G01X44362Y57415D02*
X42571D01*
G01X41704Y61077D02*
Y58281D01*
G01X44362Y61943D02*
X42571D01*
G01X41704Y58281D02*
G03X42571Y57415I866J0D01*
G01Y61943D02*
G03X41704Y61077I-1J-866D01*
G01X37381Y69843D02*
X40039D01*
G01Y65315D02*
Y69843D01*
G01X37381Y65315D02*
X40039D01*
G01X33228Y71031D02*
X35019D01*
G01X40039Y71897D02*
Y74693D01*
G01X37381Y71031D02*
X39172D01*
G01D02*
G03X40039Y71897I1J866D01*
G01X35539Y80477D02*
Y77681D01*
G01Y80477D02*
G03X34672Y81343I-866J0D01*
G01Y76815D02*
G03X35539Y77681I1J866D01*
G01X33228Y75559D02*
X35019D01*
G01X37381D02*
X39172D01*
G01X40039Y74693D02*
G03X39172Y75559I-866J0D01*
G01X36539Y104036D02*
Y108564D01*
G01X33881Y104036D02*
X36539D01*
G01X33881Y108564D02*
X36539D01*
G01X44952Y18182D02*
Y20840D01*
G01X49480Y18182D02*
Y20840D01*
G01X44952Y13162D02*
Y15820D01*
G01X49480Y13162D02*
X44952D01*
G01X49480D02*
Y15820D01*
G01Y20840D02*
X44952D01*
G01X48515Y26564D02*
X46724D01*
G01X49382Y25698D02*
Y22902D01*
G01X48515Y22036D02*
X46724D01*
G01X49382Y25698D02*
G03X48515Y26564I-866J0D01*
G01Y22036D02*
G03X49382Y22902I1J866D01*
G01X44952Y48541D02*
Y51199D01*
G01X49480Y48541D02*
X44952D01*
G01X49480D02*
Y51199D01*
G01X44952Y53561D02*
Y56219D01*
G01X49480D02*
X44952D01*
G01X49480Y53561D02*
Y56219D01*
G01X48515Y61943D02*
X46724D01*
G01X49382Y61077D02*
Y58281D01*
G01X48515Y57415D02*
X46724D01*
G01X49382Y61077D02*
G03X48515Y61943I-866J0D01*
G01Y57415D02*
G03X49382Y58281I1J866D01*
G01X52736Y97756D02*
Y95965D01*
G01X53602Y90945D02*
X56398D01*
G01X52736Y93603D02*
Y91812D01*
G01D02*
G03X53602Y90945I866J-1D01*
G01X46736Y97756D02*
Y95965D01*
G01X51264Y97756D02*
Y95965D01*
G01Y93603D02*
Y91812D01*
G01X47602Y90945D02*
X50398D01*
G01X46736Y93603D02*
Y91812D01*
G01X50398Y90945D02*
G03X51264Y91812I0J866D01*
G01X46736D02*
G03X47602Y90945I866J-1D01*
G01X53602Y98623D02*
X56398D01*
G01X53602D02*
G03X52736Y97756I0J-866D01*
G01X47602Y98623D02*
X50398D01*
G01X47602D02*
G03X46736Y97756I0J-866D01*
G01X51264D02*
G03X50398Y98623I-866J1D01*
G01X57264Y97756D02*
Y95965D01*
G01Y93603D02*
Y91812D01*
G01X56398Y90945D02*
G03X57264Y91812I0J866D01*
G01X68666Y100807D02*
X65870D01*
G01X65004Y101674D02*
Y103465D01*
G01Y105827D02*
Y107618D01*
G01Y101674D02*
G03X65870Y100807I866J-1D01*
G01X63816Y101674D02*
Y103465D01*
G01X62950Y100807D02*
X60154D01*
G01X59288Y101674D02*
Y103465D01*
G01Y105827D02*
Y107618D01*
G01X63816Y105827D02*
Y107618D01*
G01X62950Y100807D02*
G03X63816Y101674I0J866D01*
G01X59288D02*
G03X60154Y100807I866J-1D01*
G01X57264Y97756D02*
G03X56398Y98623I-866J1D01*
G01X68666Y108485D02*
X65870D01*
G01D02*
G03X65004Y107618I0J-866D01*
G01X62950Y108485D02*
X60154D01*
G01D02*
G03X59288Y107618I0J-866D01*
G01X63816D02*
G03X62950Y108485I-866J1D01*
G01X76595Y40824D02*
Y43717D01*
G01X75020Y39249D02*
X71950D01*
G01X70375Y40824D02*
Y43717D01*
G01X75020Y39249D02*
G03X76595Y40824I0J1575D01*
G01X70375D02*
G03X71950Y39249I1575J0D01*
G01X70375Y46867D02*
Y49761D01*
G01X75020Y51335D02*
X71950D01*
G01X76595Y46867D02*
Y49761D01*
G01X71950Y51335D02*
G03X70375Y49761I0J-1575D01*
G01X76595D02*
G03X75020Y51335I-1577J-3D01*
G01X71950Y52123D02*
X74843D01*
G01X70375Y53698D02*
G03X71950Y52123I1575J0D01*
G01Y59131D02*
X74843D01*
G01X70375Y60706D02*
Y63776D01*
G01Y60706D02*
G03X71950Y59131I1575J0D01*
G01X70375Y53698D02*
Y56768D01*
G01X71950Y58343D02*
X74843D01*
G01X71950D02*
G03X70375Y56768I0J-1575D01*
G01X71950Y65351D02*
X74843D01*
G01X71950D02*
G03X70375Y63776I0J-1575D01*
G01X76436Y108485D02*
Y100807D01*
G01D02*
X80964D01*
G01X75248Y101674D02*
Y103465D01*
G01X74382Y100807D02*
X71586D01*
G01X70720Y101674D02*
Y103465D01*
G01Y105827D02*
Y107618D01*
G01X75248Y105827D02*
Y107618D01*
G01X74382Y100807D02*
G03X75248Y101674I0J866D01*
G01X70720D02*
G03X71586Y100807I866J-1D01*
G01X69532Y101674D02*
Y103465D01*
G01Y105827D02*
Y107618D01*
G01X68666Y100807D02*
G03X69532Y101674I0J866D01*
G01X76436Y108485D02*
X80964D01*
G01X74382D02*
X71586D01*
G01D02*
G03X70720Y107618I0J-866D01*
G01X75248D02*
G03X74382Y108485I-866J1D01*
G01X69532Y107618D02*
G03X68666Y108485I-866J1D01*
G01X75965Y127961D02*
Y135639D01*
G01X71437Y127961D02*
Y135639D01*
G01X75965Y127961D02*
X71437D01*
G01X72402Y121836D02*
X74193D01*
G01X71535Y122702D02*
Y125498D01*
G01X72402Y126364D02*
X74193D01*
G01X76555D02*
X78346D01*
G01X76555Y121836D02*
X78346D01*
G01X71535Y122702D02*
G03X72402Y121836I866J0D01*
G01Y126364D02*
G03X71535Y125498I-1J-866D01*
G01X75965Y135639D02*
X71437D01*
G01X72402Y137236D02*
X74193D01*
G01X71535Y138102D02*
Y140898D01*
G01X76555Y137236D02*
X78346D01*
G01X71535Y138102D02*
G03X72402Y137236I866J0D01*
G01Y141764D02*
X74193D01*
G01X76555D02*
X78346D01*
G01X72402D02*
G03X71535Y140898I-1J-866D01*
G01X83603Y40824D02*
Y43717D01*
G01X82028Y39249D02*
X78958D01*
G01X77383Y40824D02*
Y43717D01*
G01X82028Y39249D02*
G03X83603Y40824I0J1575D01*
G01X77383D02*
G03X78958Y39249I1575J0D01*
G01X77383Y46867D02*
Y49761D01*
G01X82028Y51335D02*
X78958D01*
G01X83603Y46867D02*
Y49761D01*
G01X78958Y51335D02*
G03X77383Y49761I0J-1575D01*
G01X83603D02*
G03X82028Y51335I-1577J-3D01*
G01X77993Y52123D02*
X80887D01*
G01D02*
G03X82461Y53698I-3J1577D01*
G01Y60706D02*
Y63776D01*
G01X77993Y59131D02*
X80887D01*
G01D02*
G03X82461Y60706I-3J1577D01*
G01X77993Y58343D02*
X80887D01*
G01X82461Y53698D02*
Y56768D01*
G01D02*
G03X80887Y58343I-1575J0D01*
G01X77993Y65351D02*
X80887D01*
G01X82461Y63776D02*
G03X80887Y65351I-1575J0D01*
G01X81660Y80616D02*
X79002D01*
G01Y85144D02*
Y80616D01*
G01X81660Y85144D02*
X79002D01*
G01X86680Y80616D02*
X84022D01*
G01X86680Y85144D02*
Y80616D01*
G01Y85144D02*
X84022D01*
G01X81660Y86732D02*
X79002D01*
G01Y91260D02*
Y86732D01*
G01X81660Y91260D02*
X79002D01*
G01X86680Y86732D02*
X84022D01*
G01X86680Y91260D02*
Y86732D01*
G01Y91260D02*
X84022D01*
G01X86680Y98353D02*
Y95557D01*
G01X85813Y94691D02*
X84022D01*
G01X81660D02*
X79869D01*
G01X79002Y98353D02*
Y95557D01*
G01X85813Y94691D02*
G03X86680Y95557I1J866D01*
G01X79002D02*
G03X79869Y94691I866J0D01*
G01X85813Y99219D02*
X84022D01*
G01X81660D02*
X79869D01*
G01X86680Y98353D02*
G03X85813Y99219I-866J0D01*
G01X79869D02*
G03X79002Y98353I-1J-866D01*
G01X80964Y108485D02*
Y100807D01*
G01X82152Y107618D02*
Y105827D01*
G01X86680Y107618D02*
Y105827D01*
G01Y103465D02*
Y101674D01*
G01X83018Y100807D02*
X85814D01*
G01X82152Y103465D02*
Y101674D01*
G01X85814Y100807D02*
G03X86680Y101674I0J866D01*
G01X82152D02*
G03X83018Y100807I866J-1D01*
G01Y108485D02*
X85814D01*
G01X83018D02*
G03X82152Y107618I0J-866D01*
G01X86680D02*
G03X85814Y108485I-866J1D01*
G01X86519Y118336D02*
X84728D01*
G01X83861Y119202D02*
G03X84728Y118336I866J0D01*
G01X79213Y122702D02*
Y125498D01*
G01D02*
G03X78346Y126364I-866J0D01*
G01Y121836D02*
G03X79213Y122702I1J866D01*
G01X86519Y124052D02*
X84728D01*
G01X83861Y127714D02*
Y124918D01*
G01X86519Y128580D02*
X84728D01*
G01X83861Y124918D02*
G03X84728Y124052I866J0D01*
G01Y128580D02*
G03X83861Y127714I-1J-866D01*
G01Y121998D02*
Y119202D01*
G01X86519Y122864D02*
X84728D01*
G01D02*
G03X83861Y121998I-1J-866D01*
G01X79213Y138102D02*
Y140898D01*
G01X78346Y137236D02*
G03X79213Y138102I1J866D01*
G01Y140898D02*
G03X78346Y141764I-866J0D01*
G01X99373Y59396D02*
X97582D01*
G01X99373Y54868D02*
X97582D01*
G01X95220D02*
X93428D01*
G01X92562Y58530D02*
Y55734D01*
G01X95220Y59396D02*
X93428D01*
G01X92562Y55734D02*
G03X93428Y54868I866J0D01*
G01Y59396D02*
G03X92562Y58530I-1J-866D01*
G01X96719Y118336D02*
X94928D01*
G01X94061Y119202D02*
G03X94928Y118336I866J0D01*
G01X90672D02*
X88881D01*
G01X90672D02*
G03X91539Y119202I1J866D01*
G01X94061Y121998D02*
Y119202D01*
G01X96719Y122864D02*
X94928D01*
G01D02*
G03X94061Y121998I-1J-866D01*
G01X90672Y128580D02*
X88881D01*
G01X91539Y127714D02*
Y124918D01*
G01X90672Y124052D02*
X88881D01*
G01X91539Y127714D02*
G03X90672Y128580I-866J0D01*
G01Y124052D02*
G03X91539Y124918I1J866D01*
G01X90672Y122864D02*
X88881D01*
G01X91539Y121998D02*
Y119202D01*
G01Y121998D02*
G03X90672Y122864I-866J0D01*
G01X108404Y36280D02*
X105746D01*
G01Y40808D02*
Y36280D01*
G01X108404Y40808D02*
X105746D01*
G01Y41596D02*
Y46124D01*
G01Y41596D02*
X108404D01*
G01X105746Y46124D02*
X108404D01*
G01Y52228D02*
X105746D01*
G01Y56756D02*
Y52228D01*
G01Y51440D02*
X108404D01*
G01X105746Y46912D02*
Y51440D01*
G01Y46912D02*
X108404D01*
G01X100239Y58530D02*
Y55734D01*
G01Y58530D02*
G03X99373Y59396I-866J0D01*
G01Y54868D02*
G03X100239Y55734I1J866D01*
G01X108404Y56756D02*
X105746D01*
G01X108906Y74119D02*
Y72328D01*
G01X105244Y71461D02*
X108040D01*
G01X104378Y74119D02*
Y72328D01*
G01X108040Y71461D02*
G03X108906Y72328I0J866D01*
G01X104378D02*
G03X105244Y71461I866J-1D01*
G01X104378Y78272D02*
Y76481D01*
G01X105244Y79139D02*
X108040D01*
G01X108906Y78272D02*
Y76481D01*
G01X105244Y79139D02*
G03X104378Y78272I0J-866D01*
G01X108906D02*
G03X108040Y79139I-866J1D01*
G01X103794Y118336D02*
X105585D01*
G01X107947D02*
X109738D01*
G01X102927Y119202D02*
G03X103794Y118336I866J0D01*
G01X109738D02*
G03X110605Y119202I1J866D01*
G01X100872Y118336D02*
X99081D01*
G01X100872D02*
G03X101739Y119202I1J866D01*
G01X102927D02*
Y121998D01*
G01X103794Y122864D02*
X105585D01*
G01X107947D02*
X109738D01*
G01X103794D02*
G03X102927Y121998I-1J-866D01*
G01X110605D02*
G03X109738Y122864I-866J0D01*
G01X100872D02*
X99081D01*
G01X101739Y121998D02*
Y119202D01*
G01Y121998D02*
G03X100872Y122864I-866J0D01*
G01X113424Y36280D02*
X110766D01*
G01X113424Y40808D02*
Y36280D01*
G01Y40808D02*
X110766D01*
G01X113424Y41596D02*
Y46124D01*
G01X110766Y41596D02*
X113424D01*
G01X110766Y46124D02*
X113424D01*
G01Y52228D02*
X110766D01*
G01X113424Y56756D02*
Y52228D01*
G01X110766Y51440D02*
X113424D01*
G01Y46912D02*
Y51440D01*
G01X110766Y46912D02*
X113424D01*
G01Y56756D02*
X110766D01*
G01X121398Y118336D02*
X118602D01*
G01X117736Y119203D02*
G03X118602Y118336I866J-1D01*
G01X117736Y119203D02*
Y120994D01*
G01Y123356D02*
Y125147D01*
G01X121398Y126014D02*
X118602D01*
G01D02*
G03X117736Y125147I0J-866D01*
G01X110605Y119202D02*
Y121998D01*
G01X117464Y136519D02*
Y133861D01*
G01X112936D02*
X117464D01*
G01X112936Y136519D02*
Y133861D01*
G01X117464Y141539D02*
Y138881D01*
G01X112936Y141539D02*
Y138881D01*
G01X118652Y133861D02*
X123180D01*
G01X118652Y136519D02*
Y133861D01*
G01Y141539D02*
Y138881D01*
G01X112936Y141539D02*
X117464D01*
G01X118652D02*
X123180D01*
G01X133519Y104225D02*
X130861D01*
G01Y108753D02*
Y104225D01*
G01X121398Y118336D02*
G03X122264Y119203I0J866D01*
G01X133519Y108753D02*
X130861D01*
G01X122264Y119203D02*
Y120994D01*
G01Y123356D02*
Y125147D01*
G01D02*
G03X121398Y126014I-866J1D01*
G01X123180Y136519D02*
Y133861D01*
G01Y141539D02*
Y138881D01*
G01X141785Y36236D02*
X143576D01*
G01X140918Y37102D02*
Y39898D01*
G01X141785Y40764D02*
X143576D01*
G01X140918Y37102D02*
G03X141785Y36236I866J0D01*
G01Y40764D02*
G03X140918Y39898I-1J-866D01*
G01X140820Y41960D02*
X145348D01*
G01X140820Y44618D02*
Y41960D01*
G01Y49638D02*
X145348D01*
G01X140820D02*
Y46980D01*
G01X141785Y71615D02*
X143576D01*
G01X140918Y72481D02*
Y75277D01*
G01Y72481D02*
G03X141785Y71615I866J0D01*
G01X140820Y77339D02*
X145348D01*
G01X140820Y79997D02*
Y77339D01*
G01Y85017D02*
X145348D01*
G01X140820D02*
Y82359D01*
G01X141785Y76143D02*
X143576D01*
G01X141785D02*
G03X140918Y75277I-1J-866D01*
G01X138539Y104225D02*
X135881D01*
G01X138539Y108753D02*
Y104225D01*
G01Y108753D02*
X135881D01*
G01X152919Y28336D02*
X150261D01*
G01Y32864D02*
Y28336D01*
G01X152919Y22620D02*
X151128D01*
G01X150261Y26282D02*
Y23486D01*
G01X152919Y27148D02*
X151128D01*
G01X150261Y23486D02*
G03X151128Y22620I866J0D01*
G01Y27148D02*
G03X150261Y26282I-1J-866D01*
G01X152919Y32864D02*
X150261D01*
G01X145938Y40764D02*
X147729D01*
G01X148596Y37102D02*
Y39898D01*
G01X145938Y36236D02*
X147729D01*
G01X148596Y39898D02*
G03X147729Y40764I-866J0D01*
G01Y36236D02*
G03X148596Y37102I1J866D01*
G01X146536Y48771D02*
Y46980D01*
G01X147402Y49638D02*
X150198D01*
G01X151064Y48771D02*
Y46980D01*
G01Y44618D02*
Y42827D01*
G01X147402Y41960D02*
X150198D01*
G01X146536Y44618D02*
Y42827D01*
G01X147402Y49638D02*
G03X146536Y48771I0J-866D01*
G01X151064D02*
G03X150198Y49638I-866J1D01*
G01Y41960D02*
G03X151064Y42827I0J866D01*
G01X146536D02*
G03X147402Y41960I866J-1D01*
G01X145348Y44618D02*
Y41960D01*
G01Y49638D02*
Y46980D01*
G01X152919Y57999D02*
X151128D01*
G01X150261Y61661D02*
Y58865D01*
G01X152919Y62527D02*
X151128D01*
G01X150261Y58865D02*
G03X151128Y57999I866J0D01*
G01Y62527D02*
G03X150261Y61661I-1J-866D01*
G01X152919Y63715D02*
X150261D01*
G01Y68243D02*
Y63715D01*
G01X152919Y68243D02*
X150261D01*
G01X148596Y72481D02*
Y75277D01*
G01X145938Y71615D02*
X147729D01*
G01D02*
G03X148596Y72481I1J866D01*
G01X145348Y79997D02*
Y77339D01*
G01Y85017D02*
Y82359D01*
G01X146536Y84150D02*
Y82359D01*
G01X147402Y85017D02*
X150198D01*
G01X151064Y84150D02*
Y82359D01*
G01Y79997D02*
Y78206D01*
G01X147402Y77339D02*
X150198D01*
G01X146536Y79997D02*
Y78206D01*
G01X147402Y85017D02*
G03X146536Y84150I0J-866D01*
G01X151064D02*
G03X150198Y85017I-866J1D01*
G01Y77339D02*
G03X151064Y78206I0J866D01*
G01X146536D02*
G03X147402Y77339I866J-1D01*
G01X145938Y76143D02*
X147729D01*
G01X148596Y75277D02*
G03X147729Y76143I-866J0D01*
G01X153681Y116664D02*
X156339D01*
G01X153681Y112136D02*
X156339D01*
G01X148661Y116664D02*
X151319D01*
G01X148661Y112136D02*
Y116664D01*
G01Y112136D02*
X151319D01*
G01X155628Y16836D02*
X157419D01*
G01X154761Y17702D02*
Y20498D01*
G01X162439Y17702D02*
Y20498D01*
G01X159781Y16836D02*
X161572D01*
G01X154761Y17702D02*
G03X155628Y16836I866J0D01*
G01X161572D02*
G03X162439Y17702I1J866D01*
G01X161785Y28336D02*
X159127D01*
G01Y32864D02*
Y28336D01*
G01X166805D02*
X164147D01*
G01X155628Y21364D02*
X157419D01*
G01X159781D02*
X161572D01*
G01X155628D02*
G03X154761Y20498I-1J-866D01*
G01X162439D02*
G03X161572Y21364I-866J0D01*
G01X165938Y27148D02*
X164147D01*
G01X165938Y22620D02*
X164147D01*
G01X161785D02*
X159994D01*
G01X159127Y26282D02*
Y23486D01*
G01X161785Y27148D02*
X159994D01*
G01X159127Y23486D02*
G03X159994Y22620I866J0D01*
G01Y27148D02*
G03X159127Y26282I-1J-866D01*
G01X157939Y28336D02*
X155281D01*
G01X157939Y32864D02*
Y28336D01*
G01X157072Y27148D02*
X155281D01*
G01X157939Y26282D02*
Y23486D01*
G01X157072Y22620D02*
X155281D01*
G01X157939Y26282D02*
G03X157072Y27148I-866J0D01*
G01Y22620D02*
G03X157939Y23486I1J866D01*
G01X161785Y32864D02*
X159127D01*
G01X166805D02*
X164147D01*
G01X157939D02*
X155281D01*
G01X155628Y52215D02*
X157419D01*
G01X159781D02*
X161572D01*
G01X154761Y53081D02*
G03X155628Y52215I866J0D01*
G01X161572D02*
G03X162439Y53081I1J866D01*
G01X154761D02*
Y55877D01*
G01X155628Y56743D02*
X157419D01*
G01X159781D02*
X161572D01*
G01X162439Y53081D02*
Y55877D01*
G01X155628Y56743D02*
G03X154761Y55877I-1J-866D01*
G01X162439D02*
G03X161572Y56743I-866J0D01*
G01X165938Y62527D02*
X164147D01*
G01X165938Y57999D02*
X164147D01*
G01X161785D02*
X159994D01*
G01X159127Y61661D02*
Y58865D01*
G01X161785Y62527D02*
X159994D01*
G01X159127Y58865D02*
G03X159994Y57999I866J0D01*
G01Y62527D02*
G03X159127Y61661I-1J-866D01*
G01X157072Y62527D02*
X155281D01*
G01X157939Y61661D02*
Y58865D01*
G01X157072Y57999D02*
X155281D01*
G01X157939Y61661D02*
G03X157072Y62527I-866J0D01*
G01Y57999D02*
G03X157939Y58865I1J866D01*
G01X161785Y63715D02*
X159127D01*
G01Y68243D02*
Y63715D01*
G01X161785Y68243D02*
X159127D01*
G01X166805Y63715D02*
X164147D01*
G01X166805Y68243D02*
X164147D01*
G01X157939Y63715D02*
X155281D01*
G01X157939Y68243D02*
Y63715D01*
G01Y68243D02*
X155281D01*
G01X156339Y112136D02*
Y116664D01*
G01X166805Y32864D02*
Y28336D01*
G01Y26282D02*
Y23486D01*
G01Y26282D02*
G03X165938Y27148I-866J0D01*
G01Y22620D02*
G03X166805Y23486I1J866D01*
G01X168919Y39492D02*
X166261D01*
G01Y44020D02*
Y39492D01*
G01X173939D02*
X171281D01*
G01X173939Y44020D02*
Y39492D01*
G01X171281Y49736D02*
X173939D01*
G01Y45208D02*
Y49736D01*
G01X171281Y45208D02*
X173939D01*
G01X166261Y49736D02*
X168919D01*
G01X166261Y45208D02*
Y49736D01*
G01Y45208D02*
X168919D01*
G01Y44020D02*
X166261D01*
G01X173939D02*
X171281D01*
G01X166805Y61661D02*
Y58865D01*
G01Y61661D02*
G03X165938Y62527I-866J0D01*
G01Y57999D02*
G03X166805Y58865I1J866D01*
G01Y68243D02*
Y63715D01*
G01X171281Y85115D02*
X173939D01*
G01Y80587D02*
Y85115D01*
G01X171281Y80587D02*
X173939D01*
G01X166261Y85115D02*
X168919D01*
G01X166261Y80587D02*
Y85115D01*
G01Y80587D02*
X168919D01*
G01Y74871D02*
X166261D01*
G01Y79399D02*
Y74871D01*
G01X168919Y79399D02*
X166261D01*
G01X173939Y74871D02*
X171281D01*
G01X173939Y79399D02*
Y74871D01*
G01Y79399D02*
X171281D01*
G01X171536Y105820D02*
Y104029D01*
G01X172402Y106687D02*
X175198D01*
G01X172402Y99009D02*
X175198D01*
G01X171536Y101667D02*
Y99876D01*
G01X172402Y106687D02*
G03X171536Y105820I0J-866D01*
G01X176064D02*
G03X175198Y106687I-866J1D01*
G01Y99009D02*
G03X176064Y99876I0J866D01*
G01X171536D02*
G03X172402Y99009I866J-1D01*
G01X165836Y105820D02*
Y104029D01*
G01X166702Y106687D02*
X169498D01*
G01X170364Y105820D02*
Y104029D01*
G01Y101667D02*
Y99876D01*
G01X166702Y99009D02*
X169498D01*
G01X165836Y101667D02*
Y99876D01*
G01X166702Y106687D02*
G03X165836Y105820I0J-866D01*
G01X170364D02*
G03X169498Y106687I-866J1D01*
G01Y99009D02*
G03X170364Y99876I0J866D01*
G01X165836D02*
G03X166702Y99009I866J-1D01*
G01X176064Y105820D02*
Y104029D01*
G01Y101667D02*
Y99876D01*
G54D16*
G01X-5287Y24286D02*
Y47514D01*
G01Y74637D02*
Y63219D01*
G01Y101759D02*
Y90341D01*
G01X-8945Y113075D02*
X62945D01*
G01X-8945D02*
Y122524D01*
G01D02*
X62945D01*
G01X6131Y20152D02*
X1111D01*
G01X6131Y23892D02*
Y20152D01*
G01Y47908D02*
Y51648D01*
X1111D01*
G01X6131Y59085D02*
X1111D01*
G01X6131Y62826D02*
Y59085D01*
G01Y75030D02*
Y78771D01*
X1111D01*
G01X6131Y86207D02*
X1111D01*
G01X6131Y89948D02*
Y86207D01*
G01Y102152D02*
Y105893D01*
X1111D01*
G01X2000Y113300D02*
Y122300D01*
G01X27700Y13400D02*
X25700D01*
G01Y23218D02*
Y13400D01*
G01X32200Y28400D02*
X31510D01*
G01X27700Y48779D02*
X25700D01*
G01Y58597D02*
Y48779D01*
G01X32200Y63779D02*
X31510D01*
G01X37700Y13400D02*
X35700D01*
G01X37700Y23218D02*
Y13400D01*
G01Y48779D02*
X35700D01*
G01X37700Y58597D02*
Y48779D01*
G01X55095Y43602D02*
X58319D01*
G01X55095Y57382D02*
Y43602D01*
G01Y57382D02*
X58319D01*
G01X65651Y43602D02*
X68875D01*
G01X65651Y57382D02*
X68875D01*
G01X62945Y113075D02*
Y122524D01*
G01X66850Y-2914D02*
Y2800D01*
G01Y-2914D02*
X119763D01*
G01X75000Y20200D02*
G03I-500J0D01*
G01D02*
G03I-500J0D01*
G01X66850Y17716D02*
X75270D01*
G01X66850Y14462D02*
Y17716D01*
G01X68875Y57382D02*
Y43602D01*
G01X98369Y53112D02*
Y42088D01*
G01D02*
X94432D01*
G01Y53112D02*
Y42088D01*
G01X98369Y53112D02*
X94432D01*
G01X119763Y-2914D02*
Y2938D01*
G01Y14600D02*
Y17716D01*
G01X111339D02*
X119763D01*
G01X132929Y9831D02*
X129189D01*
Y4811D01*
G01X148677Y-1587D02*
X133323D01*
G01X152811Y9831D02*
Y4811D01*
G01X149071Y9831D02*
X152811D01*
G01X152600Y39582D02*
Y49400D01*
G01D02*
X154600D01*
G01X152600Y84779D02*
X154600D01*
G01X152600Y74961D02*
Y84779D01*
G01X158100Y34400D02*
X158790D01*
G01X164600Y39582D02*
Y49400D01*
G01X162600D02*
X164600D01*
G01X158100Y69779D02*
X158790D01*
G01X162600Y84779D02*
X164600D01*
G01Y74961D02*
Y84779D01*
G01X180869Y50942D02*
Y47202D01*
X185889D01*
G01X180869Y78698D02*
X185889D01*
G01X180869Y74958D02*
Y78698D01*
G01Y87876D02*
Y84135D01*
X185889D01*
G01X180869Y103821D02*
X185889D01*
G01X180869Y100080D02*
Y103821D01*
G01Y112998D02*
Y109257D01*
X185889D01*
G01X180869Y128943D02*
X185889D01*
G01X180869Y125202D02*
Y128943D01*
G01X192287Y74564D02*
Y51336D01*
G01Y88269D02*
Y99687D01*
G01Y113391D02*
Y124809D01*
G54D17*
G01X32035Y100394D02*
G03I-591J0D01*
G01X24984Y102726D02*
G03I-591J0D01*
G01X151835Y108458D02*
G03I-591J0D01*
G01X144784Y110790D02*
G03I-591J0D01*
M02*
