G04 ================== begin FILE IDENTIFICATION RECORD ==================*
G04 Layout Name:  joystick_board.brd*
G04 Film Name:    10-SILK_BOTTOM*
G04 File Format:  Gerber RS274X*
G04 File Origin:  Cadence Allegro 17.4-S035*
G04 Origin Date:  Thu Oct 16 19:21:40 2025*
G04 *
G04 Layer:  PACKAGE GEOMETRY/SILKSCREEN_BOTTOM*
G04 Layer:  BOARD GEOMETRY/SILKSCREEN_BOTTOM*
G04 *
G04 Offset:    (0.000 0.000)*
G04 Mirror:    No*
G04 Mode:      Positive*
G04 Rotation:  0*
G04 FullContactRelief:  No*
G04 UndefLineWidth:     0.000*
G04 ================== end FILE IDENTIFICATION RECORD ====================*
%FSLAX25Y25*MOIN*%
%IR0*IPPOS*OFA0.00000B0.00000*MIA0B0*SFA1.00000B1.00000*%
%ADD10C,.008*%
%ADD11C,.00787*%
%ADD12C,.01*%
%ADD13C,.01181*%
G75*
%LPD*%
G75*
G36*
G01X61614Y126082D02*
Y127263D01*
X66338D01*
Y126082D01*
X61614D01*
G37*
G36*
G01X81299D02*
Y127263D01*
X86023D01*
Y126082D01*
X81299D01*
G37*
G36*
G01X100984D02*
Y127263D01*
X105708D01*
Y126082D01*
X100984D01*
G37*
G36*
G01X120670D02*
Y127263D01*
X125394D01*
Y126082D01*
X120670D01*
G37*
G54D10*
G01X61220Y119723D02*
Y117755D01*
G01X62008Y119723D02*
X61220D01*
G01X66732D02*
X65944D01*
G01X66732D02*
Y117755D01*
G01X86417Y119723D02*
Y117755D01*
G01X80905Y119723D02*
Y117755D01*
G01X86417Y119723D02*
X85629D01*
G01X81693D02*
X80905D01*
G01X106102D02*
Y117755D01*
G01X100590Y119723D02*
Y117755D01*
G01X106102Y119723D02*
X105314D01*
G01X101378D02*
X100590D01*
G01X120276D02*
Y117755D01*
G01X121064Y119723D02*
X120276D01*
G01X125788D02*
Y117755D01*
G01Y119723D02*
X125000D01*
G54D11*
G01X7588Y82339D02*
X12116D01*
G01X7588Y79681D02*
Y82339D01*
G01Y74661D02*
X12116D01*
G01X7588D02*
Y77319D01*
G01Y95639D02*
X12116D01*
G01X7588Y92981D02*
Y95639D01*
G01Y87961D02*
X12116D01*
G01X7588D02*
Y90619D01*
G01X4736Y106319D02*
Y104528D01*
G01X8398Y103661D02*
X5602D01*
G01X9264Y106319D02*
Y104528D01*
G01X5602Y103661D02*
G02X4736Y104528I0J866D01*
G01X9264D02*
G02X8398Y103661I-866J-1D01*
G01X9264Y110472D02*
Y108681D01*
G01X8398Y111339D02*
X5602D01*
G01X4736Y110472D02*
Y108681D01*
G01X8398Y111339D02*
G02X9264Y110472I0J-866D01*
G01X4736D02*
G02X5602Y111339I866J1D01*
G01X19020Y82339D02*
X23548D01*
G01X19020Y79681D02*
Y82339D01*
G01Y74661D02*
X23548D01*
G01X19020D02*
Y77319D01*
G01X17832Y81472D02*
Y79681D01*
G01X16966Y82339D02*
X14170D01*
G01X13304Y81472D02*
Y79681D01*
G01Y77319D02*
Y75528D01*
G01X16966Y74661D02*
X14170D01*
G01X17832Y77319D02*
Y75528D01*
G01X16966Y82339D02*
G02X17832Y81472I0J-866D01*
G01X13304D02*
G02X14170Y82339I866J1D01*
G01Y74661D02*
G02X13304Y75528I0J866D01*
G01X17832D02*
G02X16966Y74661I-866J-1D01*
G01X12116Y79681D02*
Y82339D01*
G01Y74661D02*
Y77319D01*
G01X19020Y95639D02*
X23548D01*
G01X19020Y92981D02*
Y95639D01*
G01Y87961D02*
X23548D01*
G01X19020D02*
Y90619D01*
G01X12116Y92981D02*
Y95639D01*
G01Y87961D02*
Y90619D01*
G01X17832Y94772D02*
Y92981D01*
G01X16966Y95639D02*
X14170D01*
G01X13304Y94772D02*
Y92981D01*
G01Y90619D02*
Y88828D01*
G01X16966Y87961D02*
X14170D01*
G01X17832Y90619D02*
Y88828D01*
G01X16966Y95639D02*
G02X17832Y94772I0J-866D01*
G01X13304D02*
G02X14170Y95639I866J1D01*
G01Y87961D02*
G02X13304Y88828I0J866D01*
G01X17832D02*
G02X16966Y87961I-866J-1D01*
G01X19264Y103661D02*
Y106319D01*
G01X14736Y103661D02*
X19264D01*
G01X14736D02*
Y106319D01*
G01X19264Y108681D02*
Y111339D01*
G01X14736D02*
X19264D01*
G01X14736Y108681D02*
Y111339D01*
G01X29264Y81472D02*
Y79681D01*
G01X28398Y82339D02*
X25602D01*
G01X24736Y81472D02*
Y79681D01*
G01Y77319D02*
Y75528D01*
G01X28398Y74661D02*
X25602D01*
G01X29264Y77319D02*
Y75528D01*
G01X28398Y82339D02*
G02X29264Y81472I0J-866D01*
G01X24736D02*
G02X25602Y82339I866J1D01*
G01Y74661D02*
G02X24736Y75528I0J866D01*
G01X29264D02*
G02X28398Y74661I-866J-1D01*
G01X23548Y79681D02*
Y82339D01*
G01Y74661D02*
Y77319D01*
G01X29264Y94772D02*
Y92981D01*
G01X28398Y95639D02*
X25602D01*
G01X24736Y94772D02*
Y92981D01*
G01Y90619D02*
Y88828D01*
G01X28398Y87961D02*
X25602D01*
G01X29264Y90619D02*
Y88828D01*
G01X28398Y95639D02*
G02X29264Y94772I0J-866D01*
G01X24736D02*
G02X25602Y95639I866J1D01*
G01Y87961D02*
G02X24736Y88828I0J866D01*
G01X29264D02*
G02X28398Y87961I-866J-1D01*
G01X23548Y92981D02*
Y95639D01*
G01Y87961D02*
Y90619D01*
G01X29264Y103661D02*
Y106319D01*
G01X24736Y103661D02*
X29264D01*
G01X24736D02*
Y106319D01*
G01X29264Y108681D02*
Y111339D01*
G01X24736D02*
X29264D01*
G01X24736Y108681D02*
Y111339D01*
G01X38547Y18192D02*
Y22720D01*
G01X41205Y18192D02*
X38547D01*
G01X46225D02*
X43567D01*
G01X38547Y29624D02*
Y34152D01*
G01X41205Y29624D02*
X38547D01*
G01X46225D02*
X43567D01*
G01X39414Y28436D02*
X41205D01*
G01X38547Y27570D02*
Y24774D01*
G01X39414Y23908D02*
X41205D01*
G01X43567D02*
X45358D01*
G01X43567Y28436D02*
X45358D01*
G01X38547Y27570D02*
G02X39414Y28436I866J0D01*
G01Y23908D02*
G02X38547Y24774I-1J866D01*
G01X41205Y22720D02*
X38547D01*
G01X46225D02*
X43567D01*
G01X38547Y41056D02*
Y45584D01*
G01X41205Y41056D02*
X38547D01*
G01X46225D02*
X43567D01*
G01X39414Y39868D02*
X41205D01*
G01X38547Y39002D02*
Y36206D01*
G01X39414Y35340D02*
X41205D01*
G01X43567D02*
X45358D01*
G01X43567Y39868D02*
X45358D01*
G01X38547Y39002D02*
G02X39414Y39868I866J0D01*
G01Y35340D02*
G02X38547Y36206I-1J866D01*
G01X41205Y34152D02*
X38547D01*
G01X46225D02*
X43567D01*
G01Y52488D02*
X46225D01*
G01X38547D02*
X41205D01*
G01X38547Y57016D02*
Y52488D01*
G01X39414Y51300D02*
X41205D01*
G01X38547Y50434D02*
Y47638D01*
G01X39414Y46772D02*
X41205D01*
G01X43567D02*
X45358D01*
G01X43567Y51300D02*
X45358D01*
G01X38547Y50434D02*
G02X39414Y51300I866J0D01*
G01Y46772D02*
G02X38547Y47638I-1J866D01*
G01X41205Y45584D02*
X38547D01*
G01X46225D02*
X43567D01*
G01X39414Y62732D02*
X41205D01*
G01X38547Y61866D02*
Y59070D01*
G01X39414Y58204D02*
X41205D01*
G01X43567D02*
X45358D01*
G01X43567Y62732D02*
X45358D01*
G01X38547Y61866D02*
G02X39414Y62732I866J0D01*
G01Y58204D02*
G02X38547Y59070I-1J866D01*
G01X43567Y57016D02*
X46225D01*
G01X38547D02*
X41205D01*
G01X43567Y63920D02*
X46225D01*
G01X43567Y68448D02*
X46225D01*
G01X38547Y63920D02*
X41205D01*
G01X38547Y68448D02*
Y63920D01*
G01Y68448D02*
X41205D01*
G01X39414Y74164D02*
X41205D01*
G01X38547Y73298D02*
Y70502D01*
G01X39414Y69636D02*
X41205D01*
G01X43567D02*
X45358D01*
G01X43567Y74164D02*
X45358D01*
G01X38547Y73298D02*
G02X39414Y74164I866J0D01*
G01Y69636D02*
G02X38547Y70502I-1J866D01*
G01X46225Y18192D02*
Y22720D01*
G01Y29624D02*
Y34152D01*
G01Y27570D02*
Y24774D01*
G01D02*
G02X45358Y23908I-866J0D01*
G01Y28436D02*
G02X46225Y27570I1J-866D01*
G01Y41056D02*
Y45584D01*
G01Y39002D02*
Y36206D01*
G01D02*
G02X45358Y35340I-866J0D01*
G01Y39868D02*
G02X46225Y39002I1J-866D01*
G01Y57016D02*
Y52488D01*
G01Y50434D02*
Y47638D01*
G01D02*
G02X45358Y46772I-866J0D01*
G01Y51300D02*
G02X46225Y50434I1J-866D01*
G01Y61866D02*
Y59070D01*
G01D02*
G02X45358Y58204I-866J0D01*
G01Y62732D02*
G02X46225Y61866I1J-866D01*
G01Y68448D02*
Y63920D01*
G01Y73298D02*
Y70502D01*
G01D02*
G02X45358Y69636I-866J0D01*
G01Y74164D02*
G02X46225Y73298I1J-866D01*
G01X53936Y95275D02*
Y92617D01*
G01X58464D02*
X53936D01*
G01Y100295D02*
Y97637D01*
G01X58464Y100295D02*
X53936D01*
G01X59652Y95275D02*
Y93484D01*
G01X63314Y92617D02*
X60518D01*
G01X64180Y95275D02*
Y93484D01*
G01X60518Y92617D02*
G02X59652Y93484I0J866D01*
G01X64180D02*
G02X63314Y92617I-866J-1D01*
G01X58464Y95275D02*
Y92617D01*
G01X64180Y99428D02*
Y97637D01*
G01X63314Y100295D02*
X60518D01*
G01X59652Y99428D02*
Y97637D01*
G01X63314Y100295D02*
G02X64180Y99428I0J-866D01*
G01X59652D02*
G02X60518Y100295I866J1D01*
G01X58464D02*
Y97637D01*
G01X60866Y128740D02*
Y132283D01*
G01X61626Y127952D02*
X60866Y128740D01*
G01X66326Y127952D02*
X61626D01*
G01X60866Y135433D02*
Y139901D01*
G01X67086D02*
X60866D01*
G01X74304Y72581D02*
Y75239D01*
G01X69776Y72581D02*
Y75239D01*
G01X74304Y67561D02*
Y70219D01*
G01X69776Y67561D02*
X74304D01*
G01X69776D02*
Y70219D01*
G01X75492Y68428D02*
Y70219D01*
G01X76358Y67561D02*
X79154D01*
G01X75492Y72581D02*
Y74372D01*
G01X76358Y67561D02*
G02X75492Y68428I0J866D01*
G01Y74372D02*
G02X76358Y75239I866J1D01*
G01X69776D02*
X74304D01*
G01X76358D02*
X79154D01*
G01X76928Y112106D02*
Y116574D01*
G01X70708Y112106D02*
X76928D01*
G01X70708D02*
Y116574D01*
G01X76928Y119723D02*
Y124191D01*
G01X70708D02*
X76928D01*
G01X70708Y119723D02*
Y124191D01*
G01X67086Y128740D02*
X66326Y127952D01*
G01X67086Y128740D02*
Y132283D01*
G01Y135433D02*
Y139901D01*
G01X83366Y68428D02*
Y70219D01*
G01X84232Y67561D02*
X87028D01*
G01X87894Y68428D02*
Y70219D01*
G01Y72581D02*
Y74372D01*
G01X83366Y72581D02*
Y74372D01*
G01X84232Y67561D02*
G02X83366Y68428I0J866D01*
G01X87894D02*
G02X87028Y67561I-866J-1D01*
G01Y75239D02*
G02X87894Y74372I0J-866D01*
G01X83366D02*
G02X84232Y75239I866J1D01*
G01X80020Y68428D02*
Y70219D01*
G01Y72581D02*
Y74372D01*
G01Y68428D02*
G02X79154Y67561I-866J-1D01*
G01Y75239D02*
G02X80020Y74372I0J-866D01*
G01X84232Y75239D02*
X87028D01*
G01X80551Y128740D02*
Y132283D01*
G01X81311Y127952D02*
X80551Y128740D01*
G01X86011Y127952D02*
X81311D01*
G01X86771Y128740D02*
X86011Y127952D01*
G01X86771Y128740D02*
Y132283D01*
G01X80551Y135433D02*
Y139901D01*
G01X86771D02*
X80551D01*
G01X86771Y135433D02*
Y139901D01*
G01X93610Y72581D02*
Y75239D01*
G01X89082Y72581D02*
Y75239D01*
G01X93610Y67561D02*
Y70219D01*
G01X89082Y67561D02*
X93610D01*
G01X89082D02*
Y70219D01*
G01Y75239D02*
X93610D01*
G01X96613Y112106D02*
Y116574D01*
G01X90393Y112106D02*
X96613D01*
G01X90393D02*
Y116574D01*
G01X96613Y119723D02*
Y124191D01*
G01X90393D02*
X96613D01*
G01X90393Y119723D02*
Y124191D01*
G01X106988Y72581D02*
Y75239D01*
G01Y67561D02*
X111516D01*
G01X106988D02*
Y70219D01*
G01X101272Y68428D02*
Y70219D01*
G01X102138Y67561D02*
X104934D01*
G01X105800Y68428D02*
Y70219D01*
G01Y72581D02*
Y74372D01*
G01X101272Y72581D02*
Y74372D01*
G01X102138Y67561D02*
G02X101272Y68428I0J866D01*
G01X105800D02*
G02X104934Y67561I-866J-1D01*
G01Y75239D02*
G02X105800Y74372I0J-866D01*
G01X101272D02*
G02X102138Y75239I866J1D01*
G01X106988D02*
X111516D01*
G01X102138D02*
X104934D01*
G01X100236Y128740D02*
Y132283D01*
G01X100996Y127952D02*
X100236Y128740D01*
G01X105696Y127952D02*
X100996D01*
G01X106456Y128740D02*
X105696Y127952D01*
G01X106456Y128740D02*
Y132283D01*
G01X100236Y135433D02*
Y139901D01*
G01X106456D02*
X100236D01*
G01X106456Y135433D02*
Y139901D01*
G01X111516Y72581D02*
Y75239D01*
G01Y67561D02*
Y70219D01*
G01X120019Y85157D02*
X118228D01*
G01D02*
G02X117361Y86023I-1J866D01*
G01X120019Y95364D02*
X118228D01*
G01X117361Y91702D02*
Y94498D01*
G01X120019Y90836D02*
X118228D01*
G01X117361Y94498D02*
G02X118228Y95364I866J0D01*
G01Y90836D02*
G02X117361Y91702I-1J866D01*
G01X120019Y89685D02*
X118228D01*
G01X117361Y86023D02*
Y88819D01*
G01D02*
G02X118228Y89685I866J0D01*
G01X122782Y106295D02*
X119986D01*
G01X119120Y105428D02*
Y103637D01*
G01Y101275D02*
Y99484D01*
G01X122782Y98617D02*
X119986D01*
G01X119120Y105428D02*
G02X119986Y106295I866J1D01*
G01Y98617D02*
G02X119120Y99484I0J866D01*
G01X116298Y112106D02*
Y116574D01*
G01X110079Y112106D02*
X116298D01*
G01X110079D02*
Y116574D01*
G01X116298Y119723D02*
Y124191D01*
G01X110079D02*
X116298D01*
G01X110079Y119723D02*
Y124191D01*
G01X119922Y128740D02*
Y132283D01*
G01X120682Y127952D02*
X119922Y128740D01*
G01X125382Y127952D02*
X120682D01*
G01X119922Y135433D02*
Y139901D01*
G01X126142D02*
X119922D01*
G01X124172Y85157D02*
X122381D01*
G01X125039Y86023D02*
G02X124172Y85157I-866J0D01*
G01Y90836D02*
X122381D01*
G01X125039Y91702D02*
Y94498D01*
G01X124172Y95364D02*
X122381D01*
G01X125039Y91702D02*
G02X124172Y90836I-866J0D01*
G01Y95364D02*
G02X125039Y94498I1J-866D01*
G01Y86023D02*
Y88819D01*
G01X124172Y89685D02*
X122381D01*
G01X124172D02*
G02X125039Y88819I1J-866D01*
G01X123648Y105428D02*
Y103637D01*
G01Y101275D02*
Y99484D01*
G01X122782Y106295D02*
G02X123648Y105428I0J-866D01*
G01Y99484D02*
G02X122782Y98617I-866J-1D01*
G01X124836Y101275D02*
Y98617D01*
G01X129364D02*
X124836D01*
G01X129364Y101275D02*
Y98617D01*
G01X124836Y106295D02*
Y103637D01*
G01X129364Y106295D02*
X124836D01*
G01X129364D02*
Y103637D01*
G01X129764Y112106D02*
X135984D01*
G01X129764D02*
Y116574D01*
G01Y124191D02*
X135984D01*
G01X129764Y119723D02*
Y124191D01*
G01X126142Y128740D02*
X125382Y127952D01*
G01X126142Y128740D02*
Y132283D01*
G01Y135433D02*
Y139901D01*
G01X140846Y18192D02*
X143504D01*
G01X140846Y22720D02*
Y18192D01*
G01Y29624D02*
X143504D01*
G01X140846Y34152D02*
Y29624D01*
G01Y22720D02*
X143504D01*
G01Y28436D02*
X141713D01*
G01X140846Y24774D02*
Y27570D01*
G01X143504Y23908D02*
X141713D01*
G01X140846Y27570D02*
G02X141713Y28436I866J0D01*
G01Y23908D02*
G02X140846Y24774I-1J866D01*
G01Y41056D02*
X143504D01*
G01X140846Y45584D02*
Y41056D01*
G01Y34152D02*
X143504D01*
G01Y39868D02*
X141713D01*
G01X140846Y36206D02*
Y39002D01*
G01X143504Y35340D02*
X141713D01*
G01X140846Y39002D02*
G02X141713Y39868I866J0D01*
G01Y35340D02*
G02X140846Y36206I-1J866D01*
G01Y45584D02*
X143504D01*
G01Y51300D02*
X141713D01*
G01X140846Y47638D02*
Y50434D01*
G01X143504Y46772D02*
X141713D01*
G01X140846Y50434D02*
G02X141713Y51300I866J0D01*
G01Y46772D02*
G02X140846Y47638I-1J866D01*
G01Y52488D02*
Y57016D01*
G01X143504Y52488D02*
X140846D01*
G01X143504Y57016D02*
X140846D01*
G01X143504Y62732D02*
X141713D01*
G01X140846Y59070D02*
Y61866D01*
G01X143504Y58204D02*
X141713D01*
G01X140846Y61866D02*
G02X141713Y62732I866J0D01*
G01Y58204D02*
G02X140846Y59070I-1J866D01*
G01X143504Y68448D02*
X140846D01*
G01Y63920D02*
Y68448D01*
G01X143504Y63920D02*
X140846D01*
G01X143504Y74164D02*
X141713D01*
G01X140846Y70502D02*
Y73298D01*
G01X143504Y69636D02*
X141713D01*
G01X140846Y73298D02*
G02X141713Y74164I866J0D01*
G01Y69636D02*
G02X140846Y70502I-1J866D01*
G01X135984Y112106D02*
Y116574D01*
G01Y119723D02*
Y124191D01*
G01X145866Y18192D02*
X148524D01*
G01Y22720D02*
Y18192D01*
G01X145866Y29624D02*
X148524D01*
G01Y34152D02*
Y29624D01*
G01X145866Y22720D02*
X148524D01*
G01X147657Y23908D02*
X145866D01*
G01X148524Y24774D02*
Y27570D01*
G01X147657Y28436D02*
X145866D01*
G01X148524Y24774D02*
G02X147657Y23908I-866J0D01*
G01Y28436D02*
G02X148524Y27570I1J-866D01*
G01X145866Y41056D02*
X148524D01*
G01Y45584D02*
Y41056D01*
G01X145866Y34152D02*
X148524D01*
G01X147657Y35340D02*
X145866D01*
G01X148524Y36206D02*
Y39002D01*
G01X147657Y39868D02*
X145866D01*
G01X148524Y36206D02*
G02X147657Y35340I-866J0D01*
G01Y39868D02*
G02X148524Y39002I1J-866D01*
G01X145866Y45584D02*
X148524D01*
G01X147657Y46772D02*
X145866D01*
G01X148524Y47638D02*
Y50434D01*
G01X147657Y51300D02*
X145866D01*
G01X148524Y47638D02*
G02X147657Y46772I-866J0D01*
G01Y51300D02*
G02X148524Y50434I1J-866D01*
G01Y52488D02*
Y57016D01*
G01Y52488D02*
X145866D01*
G01X148524Y57016D02*
X145866D01*
G01X147657Y58204D02*
X145866D01*
G01X148524Y59070D02*
Y61866D01*
G01X147657Y62732D02*
X145866D01*
G01X148524Y59070D02*
G02X147657Y58204I-866J0D01*
G01Y62732D02*
G02X148524Y61866I1J-866D01*
G01Y68448D02*
X145866D01*
G01X148524Y63920D02*
Y68448D01*
G01Y63920D02*
X145866D01*
G01X147657Y69636D02*
X145866D01*
G01X148524Y70502D02*
Y73298D01*
G01X147657Y74164D02*
X145866D01*
G01X148524Y70502D02*
G02X147657Y69636I-866J0D01*
G01Y74164D02*
G02X148524Y73298I1J-866D01*
G01X162764Y79681D02*
Y82339D01*
G01X158236D02*
X162764D01*
G01X158236Y79681D02*
Y82339D01*
G01X162764Y74661D02*
Y77319D01*
G01X158236Y74661D02*
X162764D01*
G01X158236D02*
Y77319D01*
G01X163952Y81472D02*
Y79681D01*
G01Y77319D02*
Y75528D01*
G01Y81472D02*
G02X164818Y82339I866J1D01*
G01Y74661D02*
G02X163952Y75528I0J866D01*
G01Y95639D02*
X168480D01*
G01X163952Y92981D02*
Y95639D01*
G01Y87961D02*
X168480D01*
G01X163952D02*
Y90619D01*
G01X162764Y94772D02*
Y92981D01*
G01X161898Y95639D02*
X159102D01*
G01X158236Y94772D02*
Y92981D01*
G01Y90619D02*
Y88828D01*
G01X161898Y87961D02*
X159102D01*
G01X162764Y90619D02*
Y88828D01*
G01X161898Y95639D02*
G02X162764Y94772I0J-866D01*
G01X158236D02*
G02X159102Y95639I866J1D01*
G01Y87961D02*
G02X158236Y88828I0J866D01*
G01X162764D02*
G02X161898Y87961I-866J-1D01*
G01X174196Y79681D02*
Y82339D01*
G01X169668D02*
X174196D01*
G01X169668Y79681D02*
Y82339D01*
G01X174196Y74661D02*
Y77319D01*
G01X169668Y74661D02*
X174196D01*
G01X169668D02*
Y77319D01*
G01X175384Y81472D02*
Y79681D01*
G01Y77319D02*
Y75528D01*
G01Y81472D02*
G02X176250Y82339I866J1D01*
G01Y74661D02*
G02X175384Y75528I0J866D01*
G01X168480Y81472D02*
Y79681D01*
G01X167614Y82339D02*
X164818D01*
G01X167614Y74661D02*
X164818D01*
G01X168480Y77319D02*
Y75528D01*
G01X167614Y82339D02*
G02X168480Y81472I0J-866D01*
G01Y75528D02*
G02X167614Y74661I-866J-1D01*
G01X175384Y95639D02*
X179912D01*
G01X175384Y92981D02*
Y95639D01*
G01Y87961D02*
X179912D01*
G01X175384D02*
Y90619D01*
G01X174196Y94772D02*
Y92981D01*
G01X173330Y95639D02*
X170534D01*
G01X169668Y94772D02*
Y92981D01*
G01Y90619D02*
Y88828D01*
G01X173330Y87961D02*
X170534D01*
G01X174196Y90619D02*
Y88828D01*
G01X173330Y95639D02*
G02X174196Y94772I0J-866D01*
G01X169668D02*
G02X170534Y95639I866J1D01*
G01Y87961D02*
G02X169668Y88828I0J866D01*
G01X174196D02*
G02X173330Y87961I-866J-1D01*
G01X168480Y92981D02*
Y95639D01*
G01Y87961D02*
Y90619D01*
G01X179912Y81472D02*
Y79681D01*
G01X179046Y82339D02*
X176250D01*
G01X179046Y74661D02*
X176250D01*
G01X179912Y77319D02*
Y75528D01*
G01X179046Y82339D02*
G02X179912Y81472I0J-866D01*
G01Y75528D02*
G02X179046Y74661I-866J-1D01*
G01X179912Y92981D02*
Y95639D01*
G01Y87961D02*
Y90619D01*
G54D12*
G01X-3916Y46428D02*
Y51378D01*
G01X-3939Y51354D02*
X761Y56054D01*
G01X-3898Y46405D02*
X-1717Y44224D01*
G01X10288Y32218D02*
X12331Y30176D01*
G01X7119Y62858D02*
X11730Y67468D01*
G01X12286Y30164D02*
X17235D01*
G01X17269Y30193D02*
X21668Y34758D01*
G01X19982Y33008D02*
X21695Y34722D01*
G01D02*
Y34839D01*
G01X12592Y50905D02*
X16935D01*
G01D02*
X16963Y50876D01*
G01Y46478D02*
Y50876D01*
G01X12621Y46479D02*
X16963Y46478D01*
G01X12593Y46506D02*
X12621Y46479D01*
G01X12593Y46506D02*
X12593Y50905D01*
G01X11812Y67496D02*
X16762D01*
G01X16852Y67468D02*
X19268Y65053D01*
G01X28631Y41610D02*
X33165Y46144D01*
G01X33166Y46205D02*
Y51155D01*
G01X31273Y53048D02*
X33166Y51155D01*
G01X34449Y108268D02*
Y84646D01*
G01X38657Y84457D02*
X34449D01*
G01X47273Y96457D02*
G03I-4950J0D01*
G01X38657Y108268D02*
X34449D01*
G01X50323Y84457D02*
X45989D01*
G01X50323Y108268D02*
Y84457D01*
G01Y108268D02*
X45989D01*
G01X119095Y41653D02*
X67913D01*
G01D02*
Y55433D01*
G01X119095D02*
X67913D01*
G01X109252Y52480D02*
X77756D01*
G01Y44606D02*
Y52480D01*
G01X109252Y44606D02*
X77756D01*
G01X99803Y51693D02*
X93504D01*
G01Y45394D02*
Y51693D01*
G01X99803Y45394D02*
X93504D01*
G01X109252Y44606D02*
Y52480D01*
G01X99803Y45394D02*
Y51693D01*
G01X119095Y41653D02*
Y55433D01*
G01X113977Y37913D02*
G03I-394J0D01*
G01X141019Y84457D02*
X136811D01*
G01Y108268D02*
Y84646D01*
G01X149635Y96457D02*
G03I-4950J0D01*
G01X141019Y108268D02*
X136811D01*
G01X153564Y46428D02*
Y51378D01*
G01X153541Y51354D02*
X158241Y56054D01*
G01X153582Y46405D02*
X155763Y44224D01*
G01X152685Y108268D02*
Y84457D01*
G01D02*
X148351D01*
G01X152685Y108268D02*
X148351D01*
G01X164600Y62858D02*
X169210Y67468D01*
G01X169766Y30164D02*
X174715D01*
G01X167768Y32218D02*
X169811Y30176D01*
G01X174749Y30193D02*
X179148Y34758D01*
G01X170072Y50905D02*
X174415D01*
G01D02*
X174443Y50876D01*
G01Y46478D02*
Y50876D01*
G01X170101Y46479D02*
X174443Y46478D01*
G01X170073Y46506D02*
X170101Y46479D01*
G01X170073Y46506D02*
X170072Y50905D01*
G01X169292Y67496D02*
X174242D01*
G01X174332Y67468D02*
X176748Y65053D01*
G01X177462Y33008D02*
X179175Y34722D01*
G01D02*
Y34839D01*
G01X186111Y41610D02*
X190645Y46144D01*
G01X190646Y46205D02*
Y51155D01*
G01X188753Y53048D02*
X190646Y51155D01*
G54D13*
G01X5612Y31139D02*
G03I-591J0D01*
G01X163092D02*
G03I-591J0D01*
M02*
