G04 ================== begin FILE IDENTIFICATION RECORD ==================*
G04 Layout Name:  joystick_board.brd*
G04 Film Name:    11-DRILL*
G04 File Format:  Gerber RS274X*
G04 File Origin:  Cadence Allegro 17.4-S035*
G04 Origin Date:  Thu Oct 16 19:21:40 2025*
G04 *
G04 Layer:  MANUFACTURING/XSECTION_CHART*
G04 Layer:  MANUFACTURING/NCLEGEND-1-4*
G04 *
G04 Offset:    (0.000 0.000)*
G04 Mirror:    No*
G04 Mode:      Positive*
G04 Rotation:  0*
G04 FullContactRelief:  No*
G04 UndefLineWidth:     0.000*
G04 ================== end FILE IDENTIFICATION RECORD ====================*
%FSLAX25Y25*MOIN*%
%IR0*IPPOS*OFA0.00000B0.00000*MIA0B0*SFA1.00000B1.00000*%
%AMMACRO12*
1,1,0.0,.005906,.005906*
20,1,0.0,.005906,.005906,.005906,-.005906,0.0*
1,1,0.0,.005906,-.005906*
20,1,0.0,.005906,-.005906,-.005906,-.005906,0.0*
1,1,0.0,-.005906,-.005906*
20,1,0.0,-.005906,-.005906,-.005906,.005906,0.0*
1,1,0.0,-.005906,.005906*
20,1,0.0,-.005906,.005906,.005906,.005906,0.0*
1,1,0.0,.005906,.005906*
%
%ADD12MACRO12*%
%AMMACRO10*
1,1,0.0,.003937,0.0*
20,1,0.0,.003937,0.0,-.003937,0.0,0.0*
1,1,0.0,-.003937,0.0*
1,1,0.0,0.0,.003937*
20,1,0.0,0.0,.003937,0.0,-.003937,0.0*
1,1,0.0,0.0,-.003937*
%
%ADD10MACRO10*%
%AMMACRO11*
1,1,0.0,0.0,.021655*
20,1,0.0,0.0,.021655,.00376,.021326,0.0*
1,1,0.0,.00376,.021326*
20,1,0.0,.00376,.021326,.007406,.020349,0.0*
1,1,0.0,.007406,.020349*
20,1,0.0,.007406,.020349,.010827,.018754,0.0*
1,1,0.0,.010827,.018754*
20,1,0.0,.010827,.018754,.01392,.016589,0.0*
1,1,0.0,.01392,.016589*
20,1,0.0,.01392,.016589,.016589,.01392,0.0*
1,1,0.0,.016589,.01392*
20,1,0.0,.016589,.01392,.018754,.010828,0.0*
1,1,0.0,.018754,.010828*
20,1,0.0,.018754,.010828,.020349,.007406,0.0*
1,1,0.0,.020349,.007406*
20,1,0.0,.020349,.007406,.021326,.00376,0.0*
1,1,0.0,.021326,.00376*
20,1,0.0,.021326,.00376,.021655,0.0,0.0*
1,1,0.0,.021655,0.0*
20,1,0.0,.021655,0.0,.021326,-.00376,0.0*
1,1,0.0,.021326,-.00376*
20,1,0.0,.021326,-.00376,.020349,-.007406,0.0*
1,1,0.0,.020349,-.007406*
20,1,0.0,.020349,-.007406,.018754,-.010827,0.0*
1,1,0.0,.018754,-.010827*
20,1,0.0,.018754,-.010827,.016589,-.01392,0.0*
1,1,0.0,.016589,-.01392*
20,1,0.0,.016589,-.01392,.01392,-.016589,0.0*
1,1,0.0,.01392,-.016589*
20,1,0.0,.01392,-.016589,.010828,-.018754,0.0*
1,1,0.0,.010828,-.018754*
20,1,0.0,.010828,-.018754,.007406,-.020349,0.0*
1,1,0.0,.007406,-.020349*
20,1,0.0,.007406,-.020349,.00376,-.021326,0.0*
1,1,0.0,.00376,-.021326*
20,1,0.0,.00376,-.021326,0.0,-.021655,0.0*
1,1,0.0,0.0,-.021655*
20,1,0.0,0.0,-.021655,-.00376,-.021326,0.0*
1,1,0.0,-.00376,-.021326*
20,1,0.0,-.00376,-.021326,-.007406,-.020349,0.0*
1,1,0.0,-.007406,-.020349*
20,1,0.0,-.007406,-.020349,-.010827,-.018754,0.0*
1,1,0.0,-.010827,-.018754*
20,1,0.0,-.010827,-.018754,-.01392,-.016589,0.0*
1,1,0.0,-.01392,-.016589*
20,1,0.0,-.01392,-.016589,-.016589,-.01392,0.0*
1,1,0.0,-.016589,-.01392*
20,1,0.0,-.016589,-.01392,-.018754,-.010828,0.0*
1,1,0.0,-.018754,-.010828*
20,1,0.0,-.018754,-.010828,-.020349,-.007406,0.0*
1,1,0.0,-.020349,-.007406*
20,1,0.0,-.020349,-.007406,-.021326,-.00376,0.0*
1,1,0.0,-.021326,-.00376*
20,1,0.0,-.021326,-.00376,-.021655,0.0,0.0*
1,1,0.0,-.021655,0.0*
20,1,0.0,-.021655,0.0,-.021326,.00376,0.0*
1,1,0.0,-.021326,.00376*
20,1,0.0,-.021326,.00376,-.020349,.007406,0.0*
1,1,0.0,-.020349,.007406*
20,1,0.0,-.020349,.007406,-.018754,.010827,0.0*
1,1,0.0,-.018754,.010827*
20,1,0.0,-.018754,.010827,-.016589,.01392,0.0*
1,1,0.0,-.016589,.01392*
20,1,0.0,-.016589,.01392,-.01392,.016589,0.0*
1,1,0.0,-.01392,.016589*
20,1,0.0,-.01392,.016589,-.010828,.018754,0.0*
1,1,0.0,-.010828,.018754*
20,1,0.0,-.010828,.018754,-.007406,.020349,0.0*
1,1,0.0,-.007406,.020349*
20,1,0.0,-.007406,.020349,-.00376,.021326,0.0*
1,1,0.0,-.00376,.021326*
20,1,0.0,-.00376,.021326,0.0,.021655,0.0*
1,1,0.0,0.0,.021655*
1,1,0.0,-.010828,-.010827*
20,1,0.0,-.010828,-.010827,-.013715,-.010466,0.0*
1,1,0.0,-.013715,-.010466*
20,1,0.0,-.013715,-.010466,-.016241,-.009023,0.0*
1,1,0.0,-.016241,-.009023*
20,1,0.0,-.016241,-.009023,-.018407,-.006857,0.0*
1,1,0.0,-.018407,-.006857*
20,1,0.0,-.018407,-.006857,-.019851,-.004331,0.0*
1,1,0.0,-.019851,-.004331*
20,1,0.0,-.019851,-.004331,-.020572,-.001443,0.0*
1,1,0.0,-.020572,-.001443*
20,1,0.0,-.020572,-.001443,-.020572,.001444,0.0*
1,1,0.0,-.020572,.001444*
20,1,0.0,-.020572,.001444,-.019851,.004332,0.0*
1,1,0.0,-.019851,.004332*
20,1,0.0,-.019851,.004332,-.018407,.006858,0.0*
1,1,0.0,-.018407,.006858*
20,1,0.0,-.018407,.006858,-.016241,.009023,0.0*
1,1,0.0,-.016241,.009023*
20,1,0.0,-.016241,.009023,-.013715,.010467,0.0*
1,1,0.0,-.013715,.010467*
20,1,0.0,-.013715,.010467,-.010828,.010828,0.0*
1,1,0.0,-.010828,.010828*
20,1,0.0,-.010828,.010828,-.00794,.010467,0.0*
1,1,0.0,-.00794,.010467*
20,1,0.0,-.00794,.010467,-.005414,.009023,0.0*
1,1,0.0,-.005414,.009023*
20,1,0.0,-.005414,.009023,-.003248,.006858,0.0*
1,1,0.0,-.003248,.006858*
20,1,0.0,-.003248,.006858,-.001804,.004332,0.0*
1,1,0.0,-.001804,.004332*
20,1,0.0,-.001804,.004332,-.001083,.001444,0.0*
1,1,0.0,-.001083,.001444*
20,1,0.0,-.001083,.001444,-.001083,-.001443,0.0*
1,1,0.0,-.001083,-.001443*
20,1,0.0,-.001083,-.001443,-.001804,-.004331,0.0*
1,1,0.0,-.001804,-.004331*
20,1,0.0,-.001804,-.004331,-.003248,-.006857,0.0*
1,1,0.0,-.003248,-.006857*
20,1,0.0,-.003248,-.006857,-.005414,-.009023,0.0*
1,1,0.0,-.005414,-.009023*
20,1,0.0,-.005414,-.009023,-.00794,-.010466,0.0*
1,1,0.0,-.00794,-.010466*
20,1,0.0,-.00794,-.010466,-.010828,-.010827,0.0*
1,1,0.0,-.010828,-.010827*
1,1,0.0,.001805,-.010827*
20,1,0.0,.001805,-.010827,.010828,.010828,0.0*
1,1,0.0,.010828,.010828*
20,1,0.0,.010828,.010828,.019852,-.010827,0.0*
1,1,0.0,.019852,-.010827*
1,1,0.0,.016603,-.003248*
20,1,0.0,.016603,-.003248,.005053,-.003248,0.0*
1,1,0.0,.005053,-.003248*
%
%ADD11MACRO11*%
%ADD13C,.003*%
%ADD14C,.015*%
G75*
%LPD*%
G75*
G36*
G01X-195900Y202895D02*
Y198485D01*
X-193400D01*
Y9509D01*
X-195900D01*
Y5100D01*
X-180900D01*
Y9509D01*
X-183400D01*
Y198485D01*
X-180900D01*
Y202895D01*
X-195900D01*
G37*
G36*
G01X-215900Y5100D02*
Y9509D01*
X-155900D01*
Y5100D01*
X-215900D01*
G37*
G36*
G01Y22108D02*
Y24312D01*
X-155900D01*
Y22108D01*
X-215900D01*
G37*
G36*
G01Y183682D02*
Y185887D01*
X-155900D01*
Y183682D01*
X-215900D01*
G37*
G36*
G01Y198485D02*
Y202895D01*
X-155900D01*
Y198485D01*
X-215900D01*
G37*
G54D10*
X-1507Y64893D03*
X2284Y72865D03*
X7384Y76827D03*
X7000Y80173D03*
X9852Y87757D03*
X2000Y96050D03*
X2100Y92113D03*
X2200Y99987D03*
X9500Y105827D03*
X18527Y18000D03*
X15500Y21044D03*
X21873Y29994D03*
X14000D03*
X19000Y37916D03*
X21750Y34250D03*
X18527Y48100D03*
X14400Y61852D03*
X15568Y74400D03*
X21284Y74457D03*
X18800Y80173D03*
X15568Y87700D03*
X21284Y87757D03*
X14532Y105827D03*
X13527Y100893D03*
X25400Y18000D03*
X31800Y21044D03*
X25661Y70437D03*
X27000Y87700D03*
X28800Y96457D03*
X24532Y105827D03*
X38200Y18674D03*
X44059Y12000D03*
Y26172D03*
X37873Y35058D03*
X44059Y60468D03*
X39000Y63200D03*
X37000Y56300D03*
X44059Y54752D03*
X37873Y70437D03*
X44059Y69400D03*
X42323Y87900D03*
X34373Y108768D03*
X46500Y37604D03*
X46429Y31888D03*
X47800Y48100D03*
X46429Y43320D03*
X47216Y66200D03*
X54200Y72600D03*
X53000Y83700D03*
X54594Y79589D03*
X51400Y85200D03*
X55000Y90600D03*
X54700Y86700D03*
X52828Y98628D03*
X50600Y104400D03*
X58400Y24300D03*
X60000Y31800D03*
X61700Y33400D03*
X60300Y71000D03*
Y74500D03*
X55998D03*
X59100Y78000D03*
X63000Y89400D03*
X61400Y88200D03*
X64700Y91300D03*
X66200Y93047D03*
X56600Y88200D03*
X57400Y107600D03*
X65500Y99700D03*
X61552Y108800D03*
X62007Y112900D03*
X68300Y69300D03*
X75565Y75165D03*
X72500Y82880D03*
X70900Y78500D03*
X72800Y76900D03*
X75400Y80200D03*
X75700Y96500D03*
X77100Y94989D03*
X69189Y86200D03*
Y93900D03*
X75221Y110600D03*
X70100Y118609D03*
X68900Y111300D03*
X77047Y129226D03*
X70100Y127211D03*
X77047Y134530D03*
X70100Y133600D03*
X86614Y230D03*
X84646Y-1270D03*
X80600Y69727D03*
X81200Y96600D03*
X78798Y88996D03*
X81948Y102973D03*
X83300Y110600D03*
X81692Y117800D03*
X79600Y115393D03*
X86027Y123458D03*
X88583Y1760D03*
X92520Y4760D03*
X98425Y7868D03*
X90551Y3260D03*
X96457Y6368D03*
X94488Y9368D03*
X97400Y36789D03*
X94600Y69727D03*
X88700Y85500D03*
X90600Y84300D03*
X93000Y85500D03*
X94900Y84300D03*
X90600Y92146D03*
X88700Y90571D03*
X89900Y96870D03*
X91500Y98445D03*
X97600Y115393D03*
X91200Y109900D03*
X90100Y115118D03*
X96227Y124500D03*
X89373Y129000D03*
X97969Y139000D03*
X108700Y3600D03*
X110400Y2000D03*
X100200Y10968D03*
X102000Y12468D03*
X102362Y30500D03*
X100394Y30200D03*
Y23800D03*
X102362D03*
X103536Y73073D03*
X100400D03*
Y69727D03*
X109004Y94657D03*
X106004D03*
X103004D03*
X109004Y91657D03*
X106004D03*
X103004D03*
X106004Y103657D03*
X103004D03*
X109004Y100657D03*
X106004D03*
X103004D03*
Y97657D03*
X109004Y103657D03*
Y97657D03*
X106004D03*
X108216Y115300D03*
X109791Y114100D03*
X108439Y124500D03*
X117900Y17600D03*
X116300Y16100D03*
X112700Y20600D03*
X119600D03*
X113711Y58000D03*
X117800Y71400D03*
X114600Y73400D03*
X119400Y69900D03*
X116100Y75100D03*
X115004Y94657D03*
X112004D03*
X115004Y91657D03*
X112004D03*
X115004Y100657D03*
X112004D03*
X115004Y97657D03*
X112004D03*
X115004Y103657D03*
X112004D03*
X120000Y126400D03*
X116800Y126900D03*
X112700Y139373D03*
X130400Y7600D03*
X128900Y5900D03*
X125000Y19100D03*
X126800Y22000D03*
X122800Y75100D03*
X122300Y79820D03*
X124000Y81309D03*
X125500Y82809D03*
X124000Y84298D03*
X125900Y87421D03*
X127100Y92413D03*
X130657Y106489D03*
X122100Y112300D03*
X126400Y120502D03*
X135094Y5700D03*
Y14500D03*
X140600Y26172D03*
X143012Y22924D03*
X136300Y23700D03*
X137800Y25200D03*
X143012Y34356D03*
X139800Y37604D03*
X140000Y49036D03*
X140616Y43320D03*
X143012Y60468D03*
Y57221D03*
Y66184D03*
Y69400D03*
X134794Y97300D03*
X136300Y98800D03*
X136000Y115118D03*
X139500Y128900D03*
X141200Y130400D03*
X150000Y30600D03*
X150900Y38500D03*
X152427Y63121D03*
X148900Y73879D03*
X151300Y79505D03*
X145995D03*
X149300Y86500D03*
X152900Y93473D03*
Y91400D03*
X149900Y105700D03*
X154173Y111900D03*
X153900Y108458D03*
X158500Y65800D03*
X160500Y76827D03*
X163700D03*
X157100Y77000D03*
X158000Y90127D03*
X163748D03*
X155500Y106600D03*
X158900Y117500D03*
X167100Y24884D03*
X174427Y36327D03*
X168427Y44614D03*
X171773Y44700D03*
X167600Y60263D03*
X174844Y57044D03*
X173600Y71900D03*
X168427D03*
X174700Y76827D03*
X174500Y90127D03*
X171773Y86100D03*
X176268Y104521D03*
X176200Y115163D03*
X175500Y119100D03*
Y123037D03*
X186883Y33983D03*
X186033Y62567D03*
X182400Y76827D03*
X187200Y90041D03*
X177648Y87400D03*
X185500Y93978D03*
X176300Y101175D03*
X185500Y97915D03*
X326350Y55300D03*
G54D11*
X-3000Y117800D03*
X7000D03*
X17000D03*
X27000D03*
X47000D03*
X37000D03*
X57000D03*
X326350Y5300D03*
G54D12*
X57684Y41893D03*
Y44193D03*
Y46493D03*
X71900Y18400D03*
X69600D03*
X74200D03*
X69600Y21100D03*
X71900D03*
X74200D03*
X69783Y42261D03*
X67783Y41061D03*
Y43461D03*
X67685Y63441D03*
Y61041D03*
X69685Y62241D03*
X82677Y14800D03*
Y24200D03*
X85677Y46400D03*
X87677Y47600D03*
X85677Y48800D03*
X94485Y43860D03*
X93607Y63084D03*
X91307D03*
X95907D03*
X91985Y57132D03*
X114058Y54492D03*
X159100Y7800D03*
X156400Y7900D03*
Y12500D03*
X159100Y10100D03*
Y12400D03*
X156400Y10200D03*
X326350Y30300D03*
G54D13*
G01X-213400Y-6217D02*
Y-8717D01*
G01X-214013Y-6217D02*
X-212787D01*
G01X-211200Y-8717D02*
X-211413Y-8675D01*
X-211600Y-8508D01*
X-211760Y-8258D01*
X-211867Y-7967D01*
X-211920Y-7633D01*
Y-7300D01*
X-211867Y-6967D01*
X-211760Y-6675D01*
X-211600Y-6425D01*
X-211413Y-6258D01*
X-211200Y-6217D01*
X-210987Y-6258D01*
X-210800Y-6425D01*
X-210640Y-6675D01*
X-210533Y-6967D01*
X-210480Y-7300D01*
Y-7633D01*
X-210533Y-7967D01*
X-210640Y-8258D01*
X-210800Y-8508D01*
X-210987Y-8675D01*
X-211200Y-8717D01*
G01X-209000Y-6217D02*
Y-8717D01*
G01X-209613Y-6217D02*
X-208387D01*
G01X-207467Y-8717D02*
X-206800Y-6217D01*
X-206133Y-8717D01*
G01X-206373Y-7842D02*
X-207227D01*
G01X-205133Y-6217D02*
Y-8717D01*
X-204067D01*
G01X-200200Y-6217D02*
Y-8717D01*
G01X-200813Y-6217D02*
X-199587D01*
G01X-198560Y-8717D02*
Y-6217D01*
G01X-197440D02*
Y-8717D01*
G01Y-7467D02*
X-198560D01*
G01X-196120Y-6217D02*
X-195480D01*
G01X-195800D02*
Y-8717D01*
G01X-196120D02*
X-195480D01*
G01X-193013Y-6425D02*
X-193173Y-6300D01*
X-193360Y-6217D01*
X-193573D01*
X-193813Y-6342D01*
X-194000Y-6550D01*
X-194133Y-6800D01*
X-194240Y-7217D01*
X-194267Y-7592D01*
X-194213Y-7967D01*
X-194133Y-8217D01*
X-193973Y-8467D01*
X-193787Y-8633D01*
X-193600Y-8717D01*
X-193413D01*
X-193227Y-8633D01*
X-193067Y-8508D01*
X-192933Y-8342D01*
G01X-191987Y-8717D02*
Y-6217D01*
G01X-190973D02*
X-191987Y-7758D01*
G01X-190813Y-8717D02*
X-191533Y-7050D01*
G01X-189813Y-8717D02*
Y-6217D01*
X-188587Y-8717D01*
Y-6217D01*
G01X-186467Y-8717D02*
X-187533D01*
Y-6217D01*
X-186467D01*
G01X-186893Y-7425D02*
X-187533D01*
G01X-185360Y-8383D02*
X-185147Y-8592D01*
X-184907Y-8717D01*
X-184693D01*
X-184480Y-8592D01*
X-184320Y-8383D01*
X-184240Y-8092D01*
X-184293Y-7800D01*
X-184427Y-7550D01*
X-184667Y-7383D01*
X-184987Y-7300D01*
X-185173Y-7133D01*
X-185253Y-6842D01*
X-185200Y-6550D01*
X-185067Y-6342D01*
X-184880Y-6217D01*
X-184693D01*
X-184507Y-6300D01*
X-184347Y-6508D01*
G01X-183160Y-8383D02*
X-182947Y-8592D01*
X-182707Y-8717D01*
X-182493D01*
X-182280Y-8592D01*
X-182120Y-8383D01*
X-182040Y-8092D01*
X-182093Y-7800D01*
X-182227Y-7550D01*
X-182467Y-7383D01*
X-182787Y-7300D01*
X-182973Y-7133D01*
X-183053Y-6842D01*
X-183000Y-6550D01*
X-182867Y-6342D01*
X-182680Y-6217D01*
X-182493D01*
X-182307Y-6300D01*
X-182147Y-6508D01*
G01X-178707Y-7675D02*
X-178520Y-7383D01*
X-178360Y-7217D01*
X-178147Y-7133D01*
X-177960Y-7217D01*
X-177827Y-7383D01*
X-177720Y-7633D01*
X-177693Y-7925D01*
X-177720Y-8175D01*
X-177827Y-8425D01*
X-177987Y-8633D01*
X-178173Y-8717D01*
X-178387Y-8633D01*
X-178573Y-8383D01*
X-178680Y-8008D01*
X-178707Y-7592D01*
X-178653Y-7050D01*
X-178573Y-6758D01*
X-178440Y-6467D01*
X-178253Y-6258D01*
X-178067Y-6217D01*
X-177880Y-6300D01*
X-177747Y-6508D01*
G01X-176000Y-8717D02*
Y-6217D01*
X-176320Y-6717D01*
G01Y-8717D02*
X-175680D01*
G01X-173800Y-8800D02*
X-173853Y-8758D01*
Y-8675D01*
X-173800Y-8633D01*
X-173747Y-8675D01*
Y-8758D01*
X-173800Y-8800D01*
G01X-171600Y-8717D02*
X-171413Y-8675D01*
X-171200Y-8550D01*
X-171067Y-8342D01*
X-171013Y-8050D01*
X-171067Y-7758D01*
X-171227Y-7508D01*
X-171467Y-7383D01*
X-171733D01*
X-171893Y-7300D01*
X-172027Y-7092D01*
X-172080Y-6800D01*
X-172000Y-6508D01*
X-171813Y-6300D01*
X-171600Y-6217D01*
X-171387Y-6300D01*
X-171200Y-6508D01*
X-171120Y-6800D01*
X-171173Y-7092D01*
X-171307Y-7300D01*
X-171467Y-7383D01*
X-171733D01*
X-171973Y-7508D01*
X-172133Y-7758D01*
X-172187Y-8050D01*
X-172133Y-8342D01*
X-172000Y-8550D01*
X-171787Y-8675D01*
X-171600Y-8717D01*
G01X-169400D02*
Y-6217D01*
X-169720Y-6717D01*
G01Y-8717D02*
X-169080D01*
G01X-167200D02*
Y-6217D01*
X-167520Y-6717D01*
G01Y-8717D02*
X-166880D01*
G01X-163493D02*
Y-6217D01*
X-162800Y-8300D01*
X-162107Y-6217D01*
Y-8717D01*
G01X-160920Y-6217D02*
X-160280D01*
G01X-160600D02*
Y-8717D01*
G01X-160920D02*
X-160280D01*
G01X-158933Y-6217D02*
Y-8717D01*
X-157867D01*
G01X-215300Y-5050D02*
X-213700D01*
G01X-213100D02*
X-211500D01*
G01X-210900D02*
X-209300D01*
G01X-208700D02*
X-207100D01*
G01X-206500D02*
X-204900D01*
G01X-204300D02*
X-202700D01*
G01X-202100D02*
X-200500D01*
G01X-199900D02*
X-198300D01*
G01X-197700D02*
X-196100D01*
G01X-195500D02*
X-193900D01*
G01X-193300D02*
X-191700D01*
G01X-191100D02*
X-189500D01*
G01X-188900D02*
X-187300D01*
G01X-186700D02*
X-185100D01*
G01X-184500D02*
X-182900D01*
G01X-182300D02*
X-180700D01*
G01X-180100D02*
X-178500D01*
G01X-177900D02*
X-176300D01*
G01X-175700D02*
X-174100D01*
G01X-173500D02*
X-171900D01*
G01X-171300D02*
X-169700D01*
G01X-169100D02*
X-167500D01*
G01X-166900D02*
X-165300D01*
G01X-164700D02*
X-163100D01*
G01X-162500D02*
X-160900D01*
G01X-160300D02*
X-158700D01*
G01X-158100D02*
X-156500D01*
G01X-213987Y-4217D02*
Y-1717D01*
X-213453D01*
X-213240Y-1842D01*
X-213080Y-2008D01*
X-212947Y-2258D01*
X-212840Y-2550D01*
X-212813Y-2967D01*
X-212840Y-3383D01*
X-212947Y-3675D01*
X-213080Y-3925D01*
X-213240Y-4092D01*
X-213453Y-4217D01*
X-213987D01*
G01X-210667D02*
X-211733D01*
Y-1717D01*
X-210667D01*
G01X-211093Y-2925D02*
X-211733D01*
G01X-209560Y-3883D02*
X-209347Y-4092D01*
X-209107Y-4217D01*
X-208893D01*
X-208680Y-4092D01*
X-208520Y-3883D01*
X-208440Y-3592D01*
X-208493Y-3300D01*
X-208627Y-3050D01*
X-208867Y-2883D01*
X-209187Y-2800D01*
X-209373Y-2633D01*
X-209453Y-2342D01*
X-209400Y-2050D01*
X-209267Y-1842D01*
X-209080Y-1717D01*
X-208893D01*
X-208707Y-1800D01*
X-208547Y-2008D01*
G01X-207120Y-1717D02*
X-206480D01*
G01X-206800D02*
Y-4217D01*
G01X-207120D02*
X-206480D01*
G01X-204440Y-2967D02*
X-203907D01*
Y-3717D01*
X-204067Y-3967D01*
X-204253Y-4133D01*
X-204520Y-4217D01*
X-204787Y-4133D01*
X-204973Y-3967D01*
X-205133Y-3717D01*
X-205240Y-3425D01*
X-205293Y-3092D01*
Y-2800D01*
X-205240Y-2550D01*
X-205133Y-2258D01*
X-204973Y-2008D01*
X-204813Y-1842D01*
X-204600Y-1717D01*
X-204413D01*
X-204200Y-1800D01*
X-204040Y-1967D01*
G01X-203013Y-4217D02*
Y-1717D01*
X-201787Y-4217D01*
Y-1717D01*
G01X-197413Y-1925D02*
X-197573Y-1800D01*
X-197760Y-1717D01*
X-197973D01*
X-198213Y-1842D01*
X-198400Y-2050D01*
X-198533Y-2300D01*
X-198640Y-2717D01*
X-198667Y-3092D01*
X-198613Y-3467D01*
X-198533Y-3717D01*
X-198373Y-3967D01*
X-198187Y-4133D01*
X-198000Y-4217D01*
X-197813D01*
X-197627Y-4133D01*
X-197467Y-4008D01*
X-197333Y-3842D01*
G01X-196333Y-4217D02*
Y-1717D01*
X-195667D01*
X-195453Y-1842D01*
X-195320Y-2008D01*
X-195267Y-2342D01*
X-195320Y-2675D01*
X-195480Y-2883D01*
X-195667Y-3008D01*
X-196333D01*
G01X-195667D02*
X-195267Y-4217D01*
G01X-193600D02*
X-193813Y-4175D01*
X-194000Y-4008D01*
X-194160Y-3758D01*
X-194267Y-3467D01*
X-194320Y-3133D01*
Y-2800D01*
X-194267Y-2467D01*
X-194160Y-2175D01*
X-194000Y-1925D01*
X-193813Y-1758D01*
X-193600Y-1717D01*
X-193387Y-1758D01*
X-193200Y-1925D01*
X-193040Y-2175D01*
X-192933Y-2467D01*
X-192880Y-2800D01*
Y-3133D01*
X-192933Y-3467D01*
X-193040Y-3758D01*
X-193200Y-4008D01*
X-193387Y-4175D01*
X-193600Y-4217D01*
G01X-191960Y-3883D02*
X-191747Y-4092D01*
X-191507Y-4217D01*
X-191293D01*
X-191080Y-4092D01*
X-190920Y-3883D01*
X-190840Y-3592D01*
X-190893Y-3300D01*
X-191027Y-3050D01*
X-191267Y-2883D01*
X-191587Y-2800D01*
X-191773Y-2633D01*
X-191853Y-2342D01*
X-191800Y-2050D01*
X-191667Y-1842D01*
X-191480Y-1717D01*
X-191293D01*
X-191107Y-1800D01*
X-190947Y-2008D01*
G01X-189760Y-3883D02*
X-189547Y-4092D01*
X-189307Y-4217D01*
X-189093D01*
X-188880Y-4092D01*
X-188720Y-3883D01*
X-188640Y-3592D01*
X-188693Y-3300D01*
X-188827Y-3050D01*
X-189067Y-2883D01*
X-189387Y-2800D01*
X-189573Y-2633D01*
X-189653Y-2342D01*
X-189600Y-2050D01*
X-189467Y-1842D01*
X-189280Y-1717D01*
X-189093D01*
X-188907Y-1800D01*
X-188747Y-2008D01*
G01X-185360Y-3883D02*
X-185147Y-4092D01*
X-184907Y-4217D01*
X-184693D01*
X-184480Y-4092D01*
X-184320Y-3883D01*
X-184240Y-3592D01*
X-184293Y-3300D01*
X-184427Y-3050D01*
X-184667Y-2883D01*
X-184987Y-2800D01*
X-185173Y-2633D01*
X-185253Y-2342D01*
X-185200Y-2050D01*
X-185067Y-1842D01*
X-184880Y-1717D01*
X-184693D01*
X-184507Y-1800D01*
X-184347Y-2008D01*
G01X-182067Y-4217D02*
X-183133D01*
Y-1717D01*
X-182067D01*
G01X-182493Y-2925D02*
X-183133D01*
G01X-179813Y-1925D02*
X-179973Y-1800D01*
X-180160Y-1717D01*
X-180373D01*
X-180613Y-1842D01*
X-180800Y-2050D01*
X-180933Y-2300D01*
X-181040Y-2717D01*
X-181067Y-3092D01*
X-181013Y-3467D01*
X-180933Y-3717D01*
X-180773Y-3967D01*
X-180587Y-4133D01*
X-180400Y-4217D01*
X-180213D01*
X-180027Y-4133D01*
X-179867Y-4008D01*
X-179733Y-3842D01*
G01X-178200Y-1717D02*
Y-4217D01*
G01X-178813Y-1717D02*
X-177587D01*
G01X-176320D02*
X-175680D01*
G01X-176000D02*
Y-4217D01*
G01X-176320D02*
X-175680D01*
G01X-173800D02*
X-174013Y-4175D01*
X-174200Y-4008D01*
X-174360Y-3758D01*
X-174467Y-3467D01*
X-174520Y-3133D01*
Y-2800D01*
X-174467Y-2467D01*
X-174360Y-2175D01*
X-174200Y-1925D01*
X-174013Y-1758D01*
X-173800Y-1717D01*
X-173587Y-1758D01*
X-173400Y-1925D01*
X-173240Y-2175D01*
X-173133Y-2467D01*
X-173080Y-2800D01*
Y-3133D01*
X-173133Y-3467D01*
X-173240Y-3758D01*
X-173400Y-4008D01*
X-173587Y-4175D01*
X-173800Y-4217D01*
G01X-172213D02*
Y-1717D01*
X-170987Y-4217D01*
Y-1717D01*
G01X-166613Y-1925D02*
X-166773Y-1800D01*
X-166960Y-1717D01*
X-167173D01*
X-167413Y-1842D01*
X-167600Y-2050D01*
X-167733Y-2300D01*
X-167840Y-2717D01*
X-167867Y-3092D01*
X-167813Y-3467D01*
X-167733Y-3717D01*
X-167573Y-3967D01*
X-167387Y-4133D01*
X-167200Y-4217D01*
X-167013D01*
X-166827Y-4133D01*
X-166667Y-4008D01*
X-166533Y-3842D01*
G01X-165560Y-4217D02*
Y-1717D01*
G01X-164440D02*
Y-4217D01*
G01Y-2967D02*
X-165560D01*
G01X-163467Y-4217D02*
X-162800Y-1717D01*
X-162133Y-4217D01*
G01X-162373Y-3342D02*
X-163227D01*
G01X-161133Y-4217D02*
Y-1717D01*
X-160467D01*
X-160253Y-1842D01*
X-160120Y-2008D01*
X-160067Y-2342D01*
X-160120Y-2675D01*
X-160280Y-2883D01*
X-160467Y-3008D01*
X-161133D01*
G01X-160467D02*
X-160067Y-4217D01*
G01X-158400Y-1717D02*
Y-4217D01*
G01X-159013Y-1717D02*
X-157787D01*
G01X-188400Y206195D02*
X-190900D01*
X-190400Y205875D01*
G01X-188400D02*
Y206515D01*
G01X-189233Y208048D02*
Y208742D01*
G01X-188400Y210915D02*
X-190900D01*
X-189108Y209928D01*
Y211262D01*
G01X-149087Y1683D02*
X-147913Y3517D01*
G01X-148500Y3850D02*
Y1350D01*
G01X-147913Y1683D02*
X-149087Y3517D01*
G01X-149300Y2600D02*
X-147700D01*
G01X-142460Y2100D02*
X-142247Y1892D01*
X-142007Y1767D01*
X-141793D01*
X-141580Y1892D01*
X-141420Y2100D01*
X-141340Y2392D01*
X-141393Y2683D01*
X-141527Y2933D01*
X-141767Y3100D01*
X-142087Y3183D01*
X-142273Y3350D01*
X-142353Y3642D01*
X-142300Y3933D01*
X-142167Y4142D01*
X-141980Y4267D01*
X-141793D01*
X-141607Y4183D01*
X-141447Y3975D01*
G01X-140287Y4267D02*
Y2475D01*
X-140180Y2100D01*
X-139967Y1850D01*
X-139700Y1767D01*
X-139433Y1850D01*
X-139220Y2100D01*
X-139113Y2475D01*
Y4267D01*
G01X-138033Y1767D02*
Y4267D01*
X-137367D01*
X-137153Y4142D01*
X-137020Y3975D01*
X-136967Y3642D01*
X-137020Y3308D01*
X-137180Y3100D01*
X-137367Y2975D01*
X-138033D01*
G01X-137367D02*
X-136967Y1767D01*
G01X-135807D02*
Y4267D01*
X-134793D01*
G01X-135167Y3058D02*
X-135807D01*
G01X-133767Y1767D02*
X-133100Y4267D01*
X-132433Y1767D01*
G01X-132673Y2642D02*
X-133527D01*
G01X-130313Y4058D02*
X-130473Y4183D01*
X-130660Y4267D01*
X-130873D01*
X-131113Y4142D01*
X-131300Y3933D01*
X-131433Y3683D01*
X-131540Y3267D01*
X-131567Y2892D01*
X-131513Y2517D01*
X-131433Y2267D01*
X-131273Y2016D01*
X-131087Y1850D01*
X-130900Y1767D01*
X-130713D01*
X-130527Y1850D01*
X-130367Y1975D01*
X-130233Y2142D01*
G01X-128167Y1767D02*
X-129233D01*
Y4267D01*
X-128167D01*
G01X-128593Y3058D02*
X-129233D01*
G01X-153433Y8676D02*
Y6176D01*
X-152367D01*
G01X-150380D02*
Y8676D01*
X-151367Y6884D01*
X-150033D01*
G01X-146087Y7509D02*
X-145980Y7634D01*
X-145900Y7843D01*
X-145847Y8134D01*
X-145900Y8384D01*
X-146007Y8551D01*
X-146193Y8676D01*
X-146913D01*
Y6176D01*
X-146033D01*
X-145847Y6343D01*
X-145740Y6593D01*
X-145687Y6884D01*
X-145740Y7176D01*
X-145900Y7426D01*
X-146087Y7509D01*
X-146913D01*
G01X-144100Y6176D02*
X-144313Y6218D01*
X-144500Y6384D01*
X-144660Y6634D01*
X-144767Y6926D01*
X-144820Y7259D01*
Y7593D01*
X-144767Y7926D01*
X-144660Y8218D01*
X-144500Y8468D01*
X-144313Y8634D01*
X-144100Y8676D01*
X-143887Y8634D01*
X-143700Y8468D01*
X-143540Y8218D01*
X-143433Y7926D01*
X-143380Y7593D01*
Y7259D01*
X-143433Y6926D01*
X-143540Y6634D01*
X-143700Y6384D01*
X-143887Y6218D01*
X-144100Y6176D01*
G01X-141900Y8676D02*
Y6176D01*
G01X-142513Y8676D02*
X-141287D01*
G01X-139700D02*
Y6176D01*
G01X-140313Y8676D02*
X-139087D01*
G01X-137500Y6176D02*
X-137713Y6218D01*
X-137900Y6384D01*
X-138060Y6634D01*
X-138167Y6926D01*
X-138220Y7259D01*
Y7593D01*
X-138167Y7926D01*
X-138060Y8218D01*
X-137900Y8468D01*
X-137713Y8634D01*
X-137500Y8676D01*
X-137287Y8634D01*
X-137100Y8468D01*
X-136940Y8218D01*
X-136833Y7926D01*
X-136780Y7593D01*
Y7259D01*
X-136833Y6926D01*
X-136940Y6634D01*
X-137100Y6384D01*
X-137287Y6218D01*
X-137500Y6176D01*
G01X-135993D02*
Y8676D01*
X-135300Y6593D01*
X-134607Y8676D01*
Y6176D01*
G01X-130313Y8468D02*
X-130473Y8593D01*
X-130660Y8676D01*
X-130873D01*
X-131113Y8551D01*
X-131300Y8343D01*
X-131433Y8093D01*
X-131540Y7676D01*
X-131567Y7301D01*
X-131513Y6926D01*
X-131433Y6676D01*
X-131273Y6426D01*
X-131087Y6259D01*
X-130900Y6176D01*
X-130713D01*
X-130527Y6259D01*
X-130367Y6384D01*
X-130233Y6551D01*
G01X-128700Y6176D02*
X-128913Y6218D01*
X-129100Y6384D01*
X-129260Y6634D01*
X-129367Y6926D01*
X-129420Y7259D01*
Y7593D01*
X-129367Y7926D01*
X-129260Y8218D01*
X-129100Y8468D01*
X-128913Y8634D01*
X-128700Y8676D01*
X-128487Y8634D01*
X-128300Y8468D01*
X-128140Y8218D01*
X-128033Y7926D01*
X-127980Y7593D01*
Y7259D01*
X-128033Y6926D01*
X-128140Y6634D01*
X-128300Y6384D01*
X-128487Y6218D01*
X-128700Y6176D01*
G01X-127113D02*
Y8676D01*
X-125887Y6176D01*
Y8676D01*
G01X-124887Y6176D02*
Y8676D01*
X-124353D01*
X-124140Y8551D01*
X-123980Y8384D01*
X-123847Y8134D01*
X-123740Y7843D01*
X-123713Y7426D01*
X-123740Y7009D01*
X-123847Y6718D01*
X-123980Y6468D01*
X-124140Y6301D01*
X-124353Y6176D01*
X-124887D01*
G01X-122687Y8676D02*
Y6884D01*
X-122580Y6509D01*
X-122367Y6259D01*
X-122100Y6176D01*
X-121833Y6259D01*
X-121620Y6509D01*
X-121513Y6884D01*
Y8676D01*
G01X-119313Y8468D02*
X-119473Y8593D01*
X-119660Y8676D01*
X-119873D01*
X-120113Y8551D01*
X-120300Y8343D01*
X-120433Y8093D01*
X-120540Y7676D01*
X-120567Y7301D01*
X-120513Y6926D01*
X-120433Y6676D01*
X-120273Y6426D01*
X-120087Y6259D01*
X-119900Y6176D01*
X-119713D01*
X-119527Y6259D01*
X-119367Y6384D01*
X-119233Y6551D01*
G01X-117700Y8676D02*
Y6176D01*
G01X-118313Y8676D02*
X-117087D01*
G01X-115500Y6176D02*
X-115713Y6218D01*
X-115900Y6384D01*
X-116060Y6634D01*
X-116167Y6926D01*
X-116220Y7259D01*
Y7593D01*
X-116167Y7926D01*
X-116060Y8218D01*
X-115900Y8468D01*
X-115713Y8634D01*
X-115500Y8676D01*
X-115287Y8634D01*
X-115100Y8468D01*
X-114940Y8218D01*
X-114833Y7926D01*
X-114780Y7593D01*
Y7259D01*
X-114833Y6926D01*
X-114940Y6634D01*
X-115100Y6384D01*
X-115287Y6218D01*
X-115500Y6176D01*
G01X-113833D02*
Y8676D01*
X-113167D01*
X-112953Y8551D01*
X-112820Y8384D01*
X-112767Y8051D01*
X-112820Y7718D01*
X-112980Y7509D01*
X-113167Y7384D01*
X-113833D01*
G01X-113167D02*
X-112767Y6176D01*
G01X-149087Y15725D02*
X-147913Y17559D01*
G01X-148500Y17892D02*
Y15392D01*
G01X-147913Y15725D02*
X-149087Y17559D01*
G01X-149300Y16642D02*
X-147700D01*
G01X-142487Y15808D02*
Y18309D01*
X-141953D01*
X-141740Y18184D01*
X-141580Y18017D01*
X-141447Y17767D01*
X-141340Y17475D01*
X-141313Y17058D01*
X-141340Y16642D01*
X-141447Y16350D01*
X-141580Y16100D01*
X-141740Y15934D01*
X-141953Y15808D01*
X-142487D01*
G01X-140020Y18309D02*
X-139380D01*
G01X-139700D02*
Y15808D01*
G01X-140020D02*
X-139380D01*
G01X-136967D02*
X-138033D01*
Y18309D01*
X-136967D01*
G01X-137393Y17100D02*
X-138033D01*
G01X-135833Y18309D02*
Y15808D01*
X-134767D01*
G01X-132567D02*
X-133633D01*
Y18309D01*
X-132567D01*
G01X-132993Y17100D02*
X-133633D01*
G01X-130313Y18100D02*
X-130473Y18225D01*
X-130660Y18309D01*
X-130873D01*
X-131113Y18184D01*
X-131300Y17975D01*
X-131433Y17725D01*
X-131540Y17308D01*
X-131567Y16934D01*
X-131513Y16558D01*
X-131433Y16308D01*
X-131273Y16058D01*
X-131087Y15892D01*
X-130900Y15808D01*
X-130713D01*
X-130527Y15892D01*
X-130367Y16017D01*
X-130233Y16183D01*
G01X-128700Y18309D02*
Y15808D01*
G01X-129313Y18309D02*
X-128087D01*
G01X-127033Y15808D02*
Y18309D01*
X-126367D01*
X-126153Y18184D01*
X-126020Y18017D01*
X-125967Y17684D01*
X-126020Y17350D01*
X-126180Y17142D01*
X-126367Y17017D01*
X-127033D01*
G01X-126367D02*
X-125967Y15808D01*
G01X-124620Y18309D02*
X-123980D01*
G01X-124300D02*
Y15808D01*
G01X-124620D02*
X-123980D01*
G01X-121513Y18100D02*
X-121673Y18225D01*
X-121860Y18309D01*
X-122073D01*
X-122313Y18184D01*
X-122500Y17975D01*
X-122633Y17725D01*
X-122740Y17308D01*
X-122767Y16934D01*
X-122713Y16558D01*
X-122633Y16308D01*
X-122473Y16058D01*
X-122287Y15892D01*
X-122100Y15808D01*
X-121913D01*
X-121727Y15892D01*
X-121567Y16017D01*
X-121433Y16183D01*
G01X-153433Y23479D02*
Y20979D01*
X-152367D01*
G01X-151287Y21479D02*
X-151127Y21187D01*
X-150913Y21021D01*
X-150673Y20979D01*
X-150460Y21021D01*
X-150247Y21229D01*
X-150113Y21479D01*
X-150087Y21729D01*
X-150140Y22021D01*
X-150327Y22229D01*
X-150513Y22312D01*
X-150753D01*
G01X-150513D02*
X-150353Y22437D01*
X-150220Y22646D01*
X-150167Y22896D01*
X-150220Y23146D01*
X-150353Y23354D01*
X-150593Y23479D01*
X-150833Y23437D01*
X-151073Y23271D01*
G01X-146833Y20979D02*
Y23479D01*
X-146193D01*
X-145980Y23354D01*
X-145820Y23062D01*
X-145767Y22729D01*
X-145820Y22396D01*
X-145953Y22146D01*
X-146193Y22021D01*
X-146833D01*
G01X-144100Y20979D02*
X-144313Y21021D01*
X-144500Y21187D01*
X-144660Y21437D01*
X-144767Y21729D01*
X-144820Y22062D01*
Y22396D01*
X-144767Y22729D01*
X-144660Y23021D01*
X-144500Y23271D01*
X-144313Y23437D01*
X-144100Y23479D01*
X-143887Y23437D01*
X-143700Y23271D01*
X-143540Y23021D01*
X-143433Y22729D01*
X-143380Y22396D01*
Y22062D01*
X-143433Y21729D01*
X-143540Y21437D01*
X-143700Y21187D01*
X-143887Y21021D01*
X-144100Y20979D01*
G01X-142700Y23479D02*
X-142327Y20979D01*
X-141900Y23479D01*
X-141473Y20979D01*
X-141100Y23479D01*
G01X-139167Y20979D02*
X-140233D01*
Y23479D01*
X-139167D01*
G01X-139593Y22271D02*
X-140233D01*
G01X-138033Y20979D02*
Y23479D01*
X-137367D01*
X-137153Y23354D01*
X-137020Y23187D01*
X-136967Y22854D01*
X-137020Y22521D01*
X-137180Y22312D01*
X-137367Y22187D01*
X-138033D01*
G01X-137367D02*
X-136967Y20979D01*
G01X-133633D02*
Y23479D01*
X-132993D01*
X-132780Y23354D01*
X-132620Y23062D01*
X-132567Y22729D01*
X-132620Y22396D01*
X-132753Y22146D01*
X-132993Y22021D01*
X-133633D01*
G01X-131433Y23479D02*
Y20979D01*
X-130367D01*
G01X-129367D02*
X-128700Y23479D01*
X-128033Y20979D01*
G01X-128273Y21854D02*
X-129127D01*
G01X-127113Y20979D02*
Y23479D01*
X-125887Y20979D01*
Y23479D01*
G01X-123767Y20979D02*
X-124833D01*
Y23479D01*
X-123767D01*
G01X-124193Y22271D02*
X-124833D01*
G01X-149087Y103914D02*
X-147913Y105747D01*
G01X-148500Y106081D02*
Y103581D01*
G01X-147913Y103914D02*
X-149087Y105747D01*
G01X-149300Y104831D02*
X-147700D01*
G01X-142487Y103997D02*
Y106497D01*
X-141953D01*
X-141740Y106372D01*
X-141580Y106206D01*
X-141447Y105956D01*
X-141340Y105664D01*
X-141313Y105247D01*
X-141340Y104831D01*
X-141447Y104539D01*
X-141580Y104289D01*
X-141740Y104122D01*
X-141953Y103997D01*
X-142487D01*
G01X-140020Y106497D02*
X-139380D01*
G01X-139700D02*
Y103997D01*
G01X-140020D02*
X-139380D01*
G01X-136967D02*
X-138033D01*
Y106497D01*
X-136967D01*
G01X-137393Y105289D02*
X-138033D01*
G01X-135833Y106497D02*
Y103997D01*
X-134767D01*
G01X-132567D02*
X-133633D01*
Y106497D01*
X-132567D01*
G01X-132993Y105289D02*
X-133633D01*
G01X-130313Y106289D02*
X-130473Y106414D01*
X-130660Y106497D01*
X-130873D01*
X-131113Y106372D01*
X-131300Y106164D01*
X-131433Y105914D01*
X-131540Y105497D01*
X-131567Y105122D01*
X-131513Y104747D01*
X-131433Y104497D01*
X-131273Y104247D01*
X-131087Y104081D01*
X-130900Y103997D01*
X-130713D01*
X-130527Y104081D01*
X-130367Y104206D01*
X-130233Y104372D01*
G01X-128700Y106497D02*
Y103997D01*
G01X-129313Y106497D02*
X-128087D01*
G01X-127033Y103997D02*
Y106497D01*
X-126367D01*
X-126153Y106372D01*
X-126020Y106206D01*
X-125967Y105872D01*
X-126020Y105539D01*
X-126180Y105331D01*
X-126367Y105206D01*
X-127033D01*
G01X-126367D02*
X-125967Y103997D01*
G01X-124620Y106497D02*
X-123980D01*
G01X-124300D02*
Y103997D01*
G01X-124620D02*
X-123980D01*
G01X-121513Y106289D02*
X-121673Y106414D01*
X-121860Y106497D01*
X-122073D01*
X-122313Y106372D01*
X-122500Y106164D01*
X-122633Y105914D01*
X-122740Y105497D01*
X-122767Y105122D01*
X-122713Y104747D01*
X-122633Y104497D01*
X-122473Y104247D01*
X-122287Y104081D01*
X-122100Y103997D01*
X-121913D01*
X-121727Y104081D01*
X-121567Y104206D01*
X-121433Y104372D01*
G01X-153433Y185054D02*
Y182554D01*
X-152367D01*
G01X-151207Y184637D02*
X-151047Y184887D01*
X-150860Y185012D01*
X-150647Y185054D01*
X-150380Y184970D01*
X-150193Y184762D01*
X-150140Y184512D01*
X-150167Y184262D01*
X-150273Y184054D01*
X-150807Y183637D01*
X-151047Y183345D01*
X-151207Y182929D01*
X-151260Y182554D01*
X-150140D01*
G01X-146140Y183804D02*
X-145607D01*
Y183054D01*
X-145767Y182804D01*
X-145953Y182637D01*
X-146220Y182554D01*
X-146487Y182637D01*
X-146673Y182804D01*
X-146833Y183054D01*
X-146940Y183345D01*
X-146993Y183679D01*
Y183970D01*
X-146940Y184220D01*
X-146833Y184512D01*
X-146673Y184762D01*
X-146513Y184929D01*
X-146300Y185054D01*
X-146113D01*
X-145900Y184970D01*
X-145740Y184804D01*
G01X-144713Y182554D02*
Y185054D01*
X-143487Y182554D01*
Y185054D01*
G01X-142487Y182554D02*
Y185054D01*
X-141953D01*
X-141740Y184929D01*
X-141580Y184762D01*
X-141447Y184512D01*
X-141340Y184220D01*
X-141313Y183804D01*
X-141340Y183387D01*
X-141447Y183095D01*
X-141580Y182845D01*
X-141740Y182679D01*
X-141953Y182554D01*
X-142487D01*
G01X-138033D02*
Y185054D01*
X-137393D01*
X-137180Y184929D01*
X-137020Y184637D01*
X-136967Y184304D01*
X-137020Y183970D01*
X-137153Y183720D01*
X-137393Y183595D01*
X-138033D01*
G01X-135833Y185054D02*
Y182554D01*
X-134767D01*
G01X-133767D02*
X-133100Y185054D01*
X-132433Y182554D01*
G01X-132673Y183429D02*
X-133527D01*
G01X-131513Y182554D02*
Y185054D01*
X-130287Y182554D01*
Y185054D01*
G01X-128167Y182554D02*
X-129233D01*
Y185054D01*
X-128167D01*
G01X-128593Y183845D02*
X-129233D01*
G01X-149087Y192103D02*
X-147913Y193936D01*
G01X-148500Y194270D02*
Y191770D01*
G01X-147913Y192103D02*
X-149087Y193936D01*
G01X-149300Y193020D02*
X-147700D01*
G01X-142487Y192186D02*
Y194686D01*
X-141953D01*
X-141740Y194561D01*
X-141580Y194394D01*
X-141447Y194145D01*
X-141340Y193853D01*
X-141313Y193436D01*
X-141340Y193020D01*
X-141447Y192728D01*
X-141580Y192478D01*
X-141740Y192311D01*
X-141953Y192186D01*
X-142487D01*
G01X-140020Y194686D02*
X-139380D01*
G01X-139700D02*
Y192186D01*
G01X-140020D02*
X-139380D01*
G01X-136967D02*
X-138033D01*
Y194686D01*
X-136967D01*
G01X-137393Y193478D02*
X-138033D01*
G01X-135833Y194686D02*
Y192186D01*
X-134767D01*
G01X-132567D02*
X-133633D01*
Y194686D01*
X-132567D01*
G01X-132993Y193478D02*
X-133633D01*
G01X-130313Y194478D02*
X-130473Y194603D01*
X-130660Y194686D01*
X-130873D01*
X-131113Y194561D01*
X-131300Y194353D01*
X-131433Y194103D01*
X-131540Y193686D01*
X-131567Y193311D01*
X-131513Y192936D01*
X-131433Y192686D01*
X-131273Y192436D01*
X-131087Y192270D01*
X-130900Y192186D01*
X-130713D01*
X-130527Y192270D01*
X-130367Y192394D01*
X-130233Y192561D01*
G01X-128700Y194686D02*
Y192186D01*
G01X-129313Y194686D02*
X-128087D01*
G01X-127033Y192186D02*
Y194686D01*
X-126367D01*
X-126153Y194561D01*
X-126020Y194394D01*
X-125967Y194061D01*
X-126020Y193728D01*
X-126180Y193520D01*
X-126367Y193394D01*
X-127033D01*
G01X-126367D02*
X-125967Y192186D01*
G01X-124620Y194686D02*
X-123980D01*
G01X-124300D02*
Y192186D01*
G01X-124620D02*
X-123980D01*
G01X-121513Y194478D02*
X-121673Y194603D01*
X-121860Y194686D01*
X-122073D01*
X-122313Y194561D01*
X-122500Y194353D01*
X-122633Y194103D01*
X-122740Y193686D01*
X-122767Y193311D01*
X-122713Y192936D01*
X-122633Y192686D01*
X-122473Y192436D01*
X-122287Y192270D01*
X-122100Y192186D01*
X-121913D01*
X-121727Y192270D01*
X-121567Y192394D01*
X-121433Y192561D01*
G01X-153433Y202062D02*
Y199562D01*
X-152367D01*
G01X-150700D02*
Y202062D01*
X-151020Y201562D01*
G01Y199562D02*
X-150380D01*
G01X-146300Y202062D02*
Y199562D01*
G01X-146913Y202062D02*
X-145687D01*
G01X-144100Y199562D02*
X-144313Y199603D01*
X-144500Y199770D01*
X-144660Y200020D01*
X-144767Y200312D01*
X-144820Y200645D01*
Y200978D01*
X-144767Y201312D01*
X-144660Y201603D01*
X-144500Y201853D01*
X-144313Y202020D01*
X-144100Y202062D01*
X-143887Y202020D01*
X-143700Y201853D01*
X-143540Y201603D01*
X-143433Y201312D01*
X-143380Y200978D01*
Y200645D01*
X-143433Y200312D01*
X-143540Y200020D01*
X-143700Y199770D01*
X-143887Y199603D01*
X-144100Y199562D01*
G01X-142433D02*
Y202062D01*
X-141793D01*
X-141580Y201936D01*
X-141420Y201645D01*
X-141367Y201312D01*
X-141420Y200978D01*
X-141553Y200728D01*
X-141793Y200603D01*
X-142433D01*
G01X-136913Y201853D02*
X-137073Y201978D01*
X-137260Y202062D01*
X-137473D01*
X-137713Y201936D01*
X-137900Y201728D01*
X-138033Y201478D01*
X-138140Y201062D01*
X-138167Y200686D01*
X-138113Y200312D01*
X-138033Y200062D01*
X-137873Y199811D01*
X-137687Y199645D01*
X-137500Y199562D01*
X-137313D01*
X-137127Y199645D01*
X-136967Y199770D01*
X-136833Y199936D01*
G01X-135300Y199562D02*
X-135513Y199603D01*
X-135700Y199770D01*
X-135860Y200020D01*
X-135967Y200312D01*
X-136020Y200645D01*
Y200978D01*
X-135967Y201312D01*
X-135860Y201603D01*
X-135700Y201853D01*
X-135513Y202020D01*
X-135300Y202062D01*
X-135087Y202020D01*
X-134900Y201853D01*
X-134740Y201603D01*
X-134633Y201312D01*
X-134580Y200978D01*
Y200645D01*
X-134633Y200312D01*
X-134740Y200020D01*
X-134900Y199770D01*
X-135087Y199603D01*
X-135300Y199562D01*
G01X-133713D02*
Y202062D01*
X-132487Y199562D01*
Y202062D01*
G01X-131487Y199562D02*
Y202062D01*
X-130953D01*
X-130740Y201936D01*
X-130580Y201770D01*
X-130447Y201520D01*
X-130340Y201228D01*
X-130313Y200812D01*
X-130340Y200395D01*
X-130447Y200103D01*
X-130580Y199853D01*
X-130740Y199686D01*
X-130953Y199562D01*
X-131487D01*
G01X-129287Y202062D02*
Y200270D01*
X-129180Y199895D01*
X-128967Y199645D01*
X-128700Y199562D01*
X-128433Y199645D01*
X-128220Y199895D01*
X-128113Y200270D01*
Y202062D01*
G01X-125913Y201853D02*
X-126073Y201978D01*
X-126260Y202062D01*
X-126473D01*
X-126713Y201936D01*
X-126900Y201728D01*
X-127033Y201478D01*
X-127140Y201062D01*
X-127167Y200686D01*
X-127113Y200312D01*
X-127033Y200062D01*
X-126873Y199811D01*
X-126687Y199645D01*
X-126500Y199562D01*
X-126313D01*
X-126127Y199645D01*
X-125967Y199770D01*
X-125833Y199936D01*
G01X-124300Y202062D02*
Y199562D01*
G01X-124913Y202062D02*
X-123687D01*
G01X-122100Y199562D02*
X-122313Y199603D01*
X-122500Y199770D01*
X-122660Y200020D01*
X-122767Y200312D01*
X-122820Y200645D01*
Y200978D01*
X-122767Y201312D01*
X-122660Y201603D01*
X-122500Y201853D01*
X-122313Y202020D01*
X-122100Y202062D01*
X-121887Y202020D01*
X-121700Y201853D01*
X-121540Y201603D01*
X-121433Y201312D01*
X-121380Y200978D01*
Y200645D01*
X-121433Y200312D01*
X-121540Y200020D01*
X-121700Y199770D01*
X-121887Y199603D01*
X-122100Y199562D01*
G01X-120433D02*
Y202062D01*
X-119767D01*
X-119553Y201936D01*
X-119420Y201770D01*
X-119367Y201437D01*
X-119420Y201103D01*
X-119580Y200895D01*
X-119767Y200770D01*
X-120433D01*
G01X-119767D02*
X-119367Y199562D01*
G01X-149087Y203645D02*
X-147913Y205478D01*
G01X-148500Y205811D02*
Y203311D01*
G01X-147913Y203645D02*
X-149087Y205478D01*
G01X-149300Y204561D02*
X-147700D01*
G01X-142460Y204061D02*
X-142247Y203853D01*
X-142007Y203728D01*
X-141793D01*
X-141580Y203853D01*
X-141420Y204061D01*
X-141340Y204353D01*
X-141393Y204645D01*
X-141527Y204895D01*
X-141767Y205061D01*
X-142087Y205145D01*
X-142273Y205311D01*
X-142353Y205603D01*
X-142300Y205895D01*
X-142167Y206103D01*
X-141980Y206228D01*
X-141793D01*
X-141607Y206145D01*
X-141447Y205936D01*
G01X-140287Y206228D02*
Y204436D01*
X-140180Y204061D01*
X-139967Y203811D01*
X-139700Y203728D01*
X-139433Y203811D01*
X-139220Y204061D01*
X-139113Y204436D01*
Y206228D01*
G01X-138033Y203728D02*
Y206228D01*
X-137367D01*
X-137153Y206103D01*
X-137020Y205936D01*
X-136967Y205603D01*
X-137020Y205270D01*
X-137180Y205061D01*
X-137367Y204936D01*
X-138033D01*
G01X-137367D02*
X-136967Y203728D01*
G01X-135807D02*
Y206228D01*
X-134793D01*
G01X-135167Y205020D02*
X-135807D01*
G01X-133767Y203728D02*
X-133100Y206228D01*
X-132433Y203728D01*
G01X-132673Y204603D02*
X-133527D01*
G01X-130313Y206020D02*
X-130473Y206145D01*
X-130660Y206228D01*
X-130873D01*
X-131113Y206103D01*
X-131300Y205895D01*
X-131433Y205645D01*
X-131540Y205228D01*
X-131567Y204853D01*
X-131513Y204478D01*
X-131433Y204228D01*
X-131273Y203978D01*
X-131087Y203811D01*
X-130900Y203728D01*
X-130713D01*
X-130527Y203811D01*
X-130367Y203936D01*
X-130233Y204103D01*
G01X-128167Y203728D02*
X-129233D01*
Y206228D01*
X-128167D01*
G01X-128593Y205020D02*
X-129233D01*
G54D14*
G01X292405Y74050D02*
Y86550D01*
X298295D01*
G01X296125Y80508D02*
X292405D01*
G01X305890Y86550D02*
X309610D01*
G01X307750D02*
Y74050D01*
G01X305890D02*
X309610D01*
G01X321080Y80300D02*
X324180D01*
Y76550D01*
X323250Y75300D01*
X322165Y74467D01*
X320615Y74050D01*
X319065Y74467D01*
X317980Y75300D01*
X317050Y76550D01*
X316430Y78008D01*
X316120Y79675D01*
Y81133D01*
X316430Y82383D01*
X317050Y83842D01*
X317980Y85092D01*
X318910Y85925D01*
X320150Y86550D01*
X321235D01*
X322475Y86133D01*
X323405Y85300D01*
G01X329140Y86550D02*
Y77592D01*
X329760Y75716D01*
X331000Y74467D01*
X332550Y74050D01*
X334100Y74467D01*
X335340Y75716D01*
X335960Y77592D01*
Y86550D01*
G01X341850Y74050D02*
Y86550D01*
X345725D01*
X346965Y85925D01*
X347740Y85092D01*
X348050Y83425D01*
X347740Y81758D01*
X346810Y80717D01*
X345725Y80092D01*
X341850D01*
G01X345725D02*
X348050Y74050D01*
G01X360450D02*
X354250D01*
Y86550D01*
X360450D01*
G01X357970Y80508D02*
X354250D01*
G01X370990Y124050D02*
Y136550D01*
X374090D01*
X375330Y135925D01*
X376260Y135092D01*
X377035Y133842D01*
X377655Y132383D01*
X377810Y130300D01*
X377655Y128216D01*
X377035Y126758D01*
X376260Y125508D01*
X375330Y124675D01*
X374090Y124050D01*
X370990D01*
G01X383700D02*
Y136550D01*
X387575D01*
X388815Y135925D01*
X389590Y135092D01*
X389900Y133425D01*
X389590Y131758D01*
X388660Y130717D01*
X387575Y130092D01*
X383700D01*
G01X387575D02*
X389900Y124050D01*
G01X397340Y136550D02*
X401060D01*
G01X399200D02*
Y124050D01*
G01X397340D02*
X401060D01*
G01X408500Y136550D02*
Y124050D01*
X414700D01*
G01X420900Y136550D02*
Y124050D01*
X427100D01*
G01X452210Y135508D02*
X451280Y136133D01*
X450195Y136550D01*
X448955D01*
X447560Y135925D01*
X446475Y134883D01*
X445700Y133633D01*
X445080Y131550D01*
X444925Y129675D01*
X445235Y127800D01*
X445700Y126550D01*
X446630Y125300D01*
X447715Y124467D01*
X448800Y124050D01*
X449885D01*
X450970Y124467D01*
X451900Y125091D01*
X452675Y125925D01*
G01X457945Y124050D02*
Y136550D01*
G01X464455D02*
Y124050D01*
G01Y130300D02*
X457945D01*
G01X469725Y124050D02*
X473600Y136550D01*
X477475Y124050D01*
G01X476080Y128425D02*
X471120D01*
G01X482900Y124050D02*
Y136550D01*
X486775D01*
X488015Y135925D01*
X488790Y135092D01*
X489100Y133425D01*
X488790Y131758D01*
X487860Y130717D01*
X486775Y130092D01*
X482900D01*
G01X486775D02*
X489100Y124050D01*
G01X498400Y136550D02*
Y124050D01*
G01X494835Y136550D02*
X501965D01*
G01X510800Y123633D02*
X510490Y123842D01*
Y124258D01*
X510800Y124467D01*
X511110Y124258D01*
Y123842D01*
X510800Y123633D01*
G01Y129258D02*
X510490Y129467D01*
Y129883D01*
X510800Y130092D01*
X511110Y129883D01*
Y129467D01*
X510800Y129258D01*
G01X535600Y136550D02*
Y124050D01*
G01X532035Y136550D02*
X539165D01*
G01X548000Y124050D02*
X546760Y124258D01*
X545675Y125091D01*
X544745Y126342D01*
X544125Y127800D01*
X543815Y129467D01*
Y131133D01*
X544125Y132800D01*
X544745Y134258D01*
X545675Y135508D01*
X546760Y136342D01*
X548000Y136550D01*
X549240Y136342D01*
X550325Y135508D01*
X551255Y134258D01*
X551875Y132800D01*
X552185Y131133D01*
Y129467D01*
X551875Y127800D01*
X551255Y126342D01*
X550325Y125091D01*
X549240Y124258D01*
X548000Y124050D01*
G01X557300D02*
Y136550D01*
X561020D01*
X562260Y135925D01*
X563190Y134467D01*
X563500Y132800D01*
X563190Y131133D01*
X562415Y129883D01*
X561020Y129258D01*
X557300D01*
G01X585200Y136550D02*
Y124050D01*
G01X583030Y132383D02*
X587370D01*
G01X597600Y124050D02*
X596670Y124258D01*
X595740Y125091D01*
X595120Y126550D01*
X594810Y128216D01*
X595120Y129883D01*
X595740Y131342D01*
X596670Y132175D01*
X597600Y132383D01*
X598530Y132175D01*
X599460Y131342D01*
X600080Y129883D01*
X600235Y128216D01*
X600080Y126550D01*
X599460Y125091D01*
X598530Y124258D01*
X597600Y124050D01*
G01X623640Y130717D02*
X624260Y131342D01*
X624725Y132383D01*
X625035Y133842D01*
X624725Y135092D01*
X624105Y135925D01*
X623020Y136550D01*
X618835D01*
Y124050D01*
X623950D01*
X625035Y124883D01*
X625655Y126133D01*
X625965Y127592D01*
X625655Y129050D01*
X624725Y130300D01*
X623640Y130717D01*
X618835D01*
G01X634800Y124050D02*
X633560Y124258D01*
X632475Y125091D01*
X631545Y126342D01*
X630925Y127800D01*
X630615Y129467D01*
Y131133D01*
X630925Y132800D01*
X631545Y134258D01*
X632475Y135508D01*
X633560Y136342D01*
X634800Y136550D01*
X636040Y136342D01*
X637125Y135508D01*
X638055Y134258D01*
X638675Y132800D01*
X638985Y131133D01*
Y129467D01*
X638675Y127800D01*
X638055Y126342D01*
X637125Y125091D01*
X636040Y124258D01*
X634800Y124050D01*
G01X647200Y136550D02*
Y124050D01*
G01X643635Y136550D02*
X650765D01*
G01X659600D02*
Y124050D01*
G01X656035Y136550D02*
X663165D01*
G01X672000Y124050D02*
X670760Y124258D01*
X669675Y125091D01*
X668745Y126342D01*
X668125Y127800D01*
X667815Y129467D01*
Y131133D01*
X668125Y132800D01*
X668745Y134258D01*
X669675Y135508D01*
X670760Y136342D01*
X672000Y136550D01*
X673240Y136342D01*
X674325Y135508D01*
X675255Y134258D01*
X675875Y132800D01*
X676185Y131133D01*
Y129467D01*
X675875Y127800D01*
X675255Y126342D01*
X674325Y125091D01*
X673240Y124258D01*
X672000Y124050D01*
G01X680370D02*
Y136550D01*
X684400Y126133D01*
X688430Y136550D01*
Y124050D01*
G01X394705Y74050D02*
Y86550D01*
X400595D01*
G01X398425Y80508D02*
X394705D01*
G01X408190Y86550D02*
X411910D01*
G01X410050D02*
Y74050D01*
G01X408190D02*
X411910D01*
G01X418885D02*
Y86550D01*
X426015Y74050D01*
Y86550D01*
G01X432990D02*
X436710D01*
G01X434850D02*
Y74050D01*
G01X432990D02*
X436710D01*
G01X443995Y75716D02*
X445235Y74675D01*
X446630Y74050D01*
X447870D01*
X449110Y74675D01*
X450040Y75716D01*
X450505Y77175D01*
X450195Y78633D01*
X449420Y79883D01*
X448025Y80717D01*
X446165Y81133D01*
X445080Y81966D01*
X444615Y83425D01*
X444925Y84883D01*
X445700Y85925D01*
X446785Y86550D01*
X447870D01*
X448955Y86133D01*
X449885Y85092D01*
G01X456395Y74050D02*
Y86550D01*
G01X462905D02*
Y74050D01*
G01Y80300D02*
X456395D01*
G01X475150Y74050D02*
X468950D01*
Y86550D01*
X475150D01*
G01X472670Y80508D02*
X468950D01*
G01X481040Y74050D02*
Y86550D01*
X484140D01*
X485380Y85925D01*
X486310Y85092D01*
X487085Y83842D01*
X487705Y82383D01*
X487860Y80300D01*
X487705Y78216D01*
X487085Y76758D01*
X486310Y75508D01*
X485380Y74675D01*
X484140Y74050D01*
X481040D01*
G01X492200Y69884D02*
X501500D01*
G01X505995Y75716D02*
X507235Y74675D01*
X508630Y74050D01*
X509870D01*
X511110Y74675D01*
X512040Y75716D01*
X512505Y77175D01*
X512195Y78633D01*
X511420Y79883D01*
X510025Y80717D01*
X508165Y81133D01*
X507080Y81966D01*
X506615Y83425D01*
X506925Y84883D01*
X507700Y85925D01*
X508785Y86550D01*
X509870D01*
X510955Y86133D01*
X511885Y85092D01*
G01X519790Y86550D02*
X523510D01*
G01X521650D02*
Y74050D01*
G01X519790D02*
X523510D01*
G01X531105Y86550D02*
X536995D01*
X531105Y74050D01*
X536995D01*
G01X549550D02*
X543350D01*
Y86550D01*
X549550D01*
G01X547070Y80508D02*
X543350D01*
G01X411910Y-950D02*
Y11550D01*
X406175Y2592D01*
X413925D01*
G01X419040Y1550D02*
X419970Y91D01*
X421210Y-742D01*
X422605Y-950D01*
X423845Y-742D01*
X425085Y300D01*
X425860Y1550D01*
X426015Y2800D01*
X425705Y4258D01*
X424620Y5300D01*
X423535Y5717D01*
X422140D01*
G01X423535D02*
X424465Y6342D01*
X425240Y7383D01*
X425550Y8633D01*
X425240Y9883D01*
X424465Y10925D01*
X423070Y11550D01*
X421675Y11342D01*
X420280Y10508D01*
G01X434850Y-1367D02*
X434540Y-1158D01*
Y-742D01*
X434850Y-533D01*
X435160Y-742D01*
Y-1158D01*
X434850Y-1367D01*
G01X443840Y1550D02*
X444770Y91D01*
X446010Y-742D01*
X447405Y-950D01*
X448645Y-742D01*
X449885Y300D01*
X450660Y1550D01*
X450815Y2800D01*
X450505Y4258D01*
X449420Y5300D01*
X448335Y5717D01*
X446940D01*
G01X448335D02*
X449265Y6342D01*
X450040Y7383D01*
X450350Y8633D01*
X450040Y9883D01*
X449265Y10925D01*
X447870Y11550D01*
X446475Y11342D01*
X445080Y10508D01*
G01X459650Y-950D02*
Y11550D01*
X457790Y9050D01*
G01Y-950D02*
X461510D01*
G01X469725Y7383D02*
X474375Y-950D01*
G01Y7383D02*
X469725Y-950D01*
G01X486310D02*
Y11550D01*
X480575Y2592D01*
X488325D01*
G01X493440Y1550D02*
X494370Y91D01*
X495610Y-742D01*
X497005Y-950D01*
X498245Y-742D01*
X499485Y300D01*
X500260Y1550D01*
X500415Y2800D01*
X500105Y4258D01*
X499020Y5300D01*
X497935Y5717D01*
X496540D01*
G01X497935D02*
X498865Y6342D01*
X499640Y7383D01*
X499950Y8633D01*
X499640Y9883D01*
X498865Y10925D01*
X497470Y11550D01*
X496075Y11342D01*
X494680Y10508D01*
G01X509250Y-1367D02*
X508940Y-1158D01*
Y-742D01*
X509250Y-533D01*
X509560Y-742D01*
Y-1158D01*
X509250Y-1367D01*
G01X518240Y1550D02*
X519170Y91D01*
X520410Y-742D01*
X521805Y-950D01*
X523045Y-742D01*
X524285Y300D01*
X525060Y1550D01*
X525215Y2800D01*
X524905Y4258D01*
X523820Y5300D01*
X522735Y5717D01*
X521340D01*
G01X522735D02*
X523665Y6342D01*
X524440Y7383D01*
X524750Y8633D01*
X524440Y9883D01*
X523665Y10925D01*
X522270Y11550D01*
X520875Y11342D01*
X519480Y10508D01*
G01X534050Y-950D02*
Y11550D01*
X532190Y9050D01*
G01Y-950D02*
X535910D01*
G01X401525Y99050D02*
X405400Y111550D01*
X409275Y99050D01*
G01X407880Y103425D02*
X402920D01*
G01X414700Y111550D02*
Y99050D01*
X420900D01*
G01X427100Y111550D02*
Y99050D01*
X433300D01*
G01X451590Y111550D02*
Y102592D01*
X452210Y100716D01*
X453450Y99467D01*
X455000Y99050D01*
X456550Y99467D01*
X457790Y100716D01*
X458410Y102592D01*
Y111550D01*
G01X463835Y99050D02*
Y111550D01*
X470965Y99050D01*
Y111550D01*
G01X477940D02*
X481660D01*
G01X479800D02*
Y99050D01*
G01X477940D02*
X481660D01*
G01X492200Y111550D02*
Y99050D01*
G01X488635Y111550D02*
X495765D01*
G01X501345Y100716D02*
X502585Y99675D01*
X503980Y99050D01*
X505220D01*
X506460Y99675D01*
X507390Y100716D01*
X507855Y102175D01*
X507545Y103633D01*
X506770Y104883D01*
X505375Y105717D01*
X503515Y106133D01*
X502430Y106967D01*
X501965Y108425D01*
X502275Y109883D01*
X503050Y110925D01*
X504135Y111550D01*
X505220D01*
X506305Y111133D01*
X507235Y110092D01*
G01X525525Y99050D02*
X529400Y111550D01*
X533275Y99050D01*
G01X531880Y103425D02*
X526920D01*
G01X538700Y99050D02*
Y111550D01*
X542575D01*
X543815Y110925D01*
X544590Y110092D01*
X544900Y108425D01*
X544590Y106758D01*
X543660Y105717D01*
X542575Y105092D01*
X538700D01*
G01X542575D02*
X544900Y99050D01*
G01X557300D02*
X551100D01*
Y111550D01*
X557300D01*
G01X554820Y105508D02*
X551100D01*
G01X577140Y111550D02*
X580860D01*
G01X579000D02*
Y99050D01*
G01X577140D02*
X580860D01*
G01X587835D02*
Y111550D01*
X594965Y99050D01*
Y111550D01*
G01X612170Y99050D02*
Y111550D01*
X616200Y101133D01*
X620230Y111550D01*
Y99050D01*
G01X626740Y111550D02*
X630460D01*
G01X628600D02*
Y99050D01*
G01X626740D02*
X630460D01*
G01X637900Y111550D02*
Y99050D01*
X644100D01*
G01X650145Y100716D02*
X651385Y99675D01*
X652780Y99050D01*
X654020D01*
X655260Y99675D01*
X656190Y100716D01*
X656655Y102175D01*
X656345Y103633D01*
X655570Y104883D01*
X654175Y105717D01*
X652315Y106133D01*
X651230Y106967D01*
X650765Y108425D01*
X651075Y109883D01*
X651850Y110925D01*
X652935Y111550D01*
X654020D01*
X655105Y111133D01*
X656035Y110092D01*
G01X441050Y24050D02*
Y36550D01*
X439190Y34050D01*
G01Y24050D02*
X442910D01*
G01X453450D02*
Y36550D01*
X451590Y34050D01*
G01Y24050D02*
X455310D01*
G01X465850Y23633D02*
X465540Y23842D01*
Y24258D01*
X465850Y24467D01*
X466160Y24258D01*
Y23842D01*
X465850Y23633D01*
G01X478250Y24050D02*
X479335Y24258D01*
X480575Y24883D01*
X481350Y25925D01*
X481660Y27383D01*
X481350Y28841D01*
X480420Y30092D01*
X479025Y30717D01*
X477475D01*
X476545Y31133D01*
X475770Y32175D01*
X475460Y33633D01*
X475925Y35092D01*
X477010Y36133D01*
X478250Y36550D01*
X479490Y36133D01*
X480575Y35092D01*
X481040Y33633D01*
X480730Y32175D01*
X479955Y31133D01*
X479025Y30717D01*
X477475D01*
X476080Y30092D01*
X475150Y28841D01*
X474840Y27383D01*
X475150Y25925D01*
X475925Y24883D01*
X477165Y24258D01*
X478250Y24050D01*
G01X490650D02*
Y36550D01*
X488790Y34050D01*
G01Y24050D02*
X492510D01*
G01X503050D02*
Y36550D01*
X501190Y34050D01*
G01Y24050D02*
X504910D01*
G01X446940Y49050D02*
X447250Y51758D01*
X447715Y54050D01*
X448335Y56133D01*
X449110Y58425D01*
X450350Y61550D01*
X444150D01*
G01X459650Y48633D02*
X459340Y48842D01*
Y49258D01*
X459650Y49467D01*
X459960Y49258D01*
Y48842D01*
X459650Y48633D01*
G01X472050Y49050D02*
X473135Y49258D01*
X474375Y49883D01*
X475150Y50925D01*
X475460Y52383D01*
X475150Y53841D01*
X474220Y55091D01*
X472825Y55717D01*
X471275D01*
X470345Y56133D01*
X469570Y57175D01*
X469260Y58633D01*
X469725Y60092D01*
X470810Y61133D01*
X472050Y61550D01*
X473290Y61133D01*
X474375Y60092D01*
X474840Y58633D01*
X474530Y57175D01*
X473755Y56133D01*
X472825Y55717D01*
X471275D01*
X469880Y55091D01*
X468950Y53841D01*
X468640Y52383D01*
X468950Y50925D01*
X469725Y49883D01*
X470965Y49258D01*
X472050Y49050D01*
G01X484140D02*
X484450Y51758D01*
X484915Y54050D01*
X485535Y56133D01*
X486310Y58425D01*
X487550Y61550D01*
X481350D01*
G01X498710Y49050D02*
Y61550D01*
X492975Y52592D01*
X500725D01*
G01X602250Y-950D02*
Y11550D01*
X605970D01*
X607210Y10925D01*
X608140Y9467D01*
X608450Y7800D01*
X608140Y6133D01*
X607365Y4883D01*
X605970Y4258D01*
X602250D01*
G01X614650Y11550D02*
Y-950D01*
X620850D01*
G01X626275D02*
X630150Y11550D01*
X634025Y-950D01*
G01X632630Y3425D02*
X627670D01*
G01X642550Y11550D02*
Y-950D01*
G01X638985Y11550D02*
X646115D01*
G01X658050Y-950D02*
X651850D01*
Y11550D01*
X658050D01*
G01X655570Y5508D02*
X651850D01*
G01X663940Y-950D02*
Y11550D01*
X667040D01*
X668280Y10925D01*
X669210Y10092D01*
X669985Y8842D01*
X670605Y7383D01*
X670760Y5300D01*
X670605Y3216D01*
X669985Y1758D01*
X669210Y508D01*
X668280Y-325D01*
X667040Y-950D01*
X663940D01*
G01X602250Y24050D02*
Y36550D01*
X605970D01*
X607210Y35925D01*
X608140Y34467D01*
X608450Y32800D01*
X608140Y31133D01*
X607365Y29883D01*
X605970Y29258D01*
X602250D01*
G01X614650Y36550D02*
Y24050D01*
X620850D01*
G01X626275D02*
X630150Y36550D01*
X634025Y24050D01*
G01X632630Y28425D02*
X627670D01*
G01X642550Y36550D02*
Y24050D01*
G01X638985Y36550D02*
X646115D01*
G01X658050Y24050D02*
X651850D01*
Y36550D01*
X658050D01*
G01X655570Y30508D02*
X651850D01*
G01X663940Y24050D02*
Y36550D01*
X667040D01*
X668280Y35925D01*
X669210Y35092D01*
X669985Y33842D01*
X670605Y32383D01*
X670760Y30300D01*
X670605Y28216D01*
X669985Y26758D01*
X669210Y25508D01*
X668280Y24675D01*
X667040Y24050D01*
X663940D01*
G01X602250Y49050D02*
Y61550D01*
X605970D01*
X607210Y60925D01*
X608140Y59467D01*
X608450Y57800D01*
X608140Y56133D01*
X607365Y54883D01*
X605970Y54258D01*
X602250D01*
G01X614650Y61550D02*
Y49050D01*
X620850D01*
G01X626275D02*
X630150Y61550D01*
X634025Y49050D01*
G01X632630Y53425D02*
X627670D01*
G01X642550Y61550D02*
Y49050D01*
G01X638985Y61550D02*
X646115D01*
G01X658050Y49050D02*
X651850D01*
Y61550D01*
X658050D01*
G01X655570Y55509D02*
X651850D01*
G01X663940Y49050D02*
Y61550D01*
X667040D01*
X668280Y60925D01*
X669210Y60092D01*
X669985Y58842D01*
X670605Y57383D01*
X670760Y55300D01*
X670605Y53216D01*
X669985Y51758D01*
X669210Y50508D01*
X668280Y49675D01*
X667040Y49050D01*
X663940D01*
G01X602250Y74050D02*
Y86550D01*
X605970D01*
X607210Y85925D01*
X608140Y84467D01*
X608450Y82800D01*
X608140Y81133D01*
X607365Y79883D01*
X605970Y79258D01*
X602250D01*
G01X614650Y86550D02*
Y74050D01*
X620850D01*
G01X626275D02*
X630150Y86550D01*
X634025Y74050D01*
G01X632630Y78425D02*
X627670D01*
G01X642550Y86550D02*
Y74050D01*
G01X638985Y86550D02*
X646115D01*
G01X658050Y74050D02*
X651850D01*
Y86550D01*
X658050D01*
G01X655570Y80508D02*
X651850D01*
G01X663940Y74050D02*
Y86550D01*
X667040D01*
X668280Y85925D01*
X669210Y85092D01*
X669985Y83842D01*
X670605Y82383D01*
X670760Y80300D01*
X670605Y78216D01*
X669985Y76758D01*
X669210Y75508D01*
X668280Y74675D01*
X667040Y74050D01*
X663940D01*
G01X723305Y59467D02*
X724235Y60716D01*
X725320Y61342D01*
X726560Y61550D01*
X728110Y61133D01*
X729195Y60092D01*
X729505Y58842D01*
X729350Y57591D01*
X728730Y56550D01*
X725630Y54467D01*
X724235Y53008D01*
X723305Y50925D01*
X722995Y49050D01*
X729505D01*
G01X740510D02*
Y61550D01*
X734775Y52592D01*
X742525D01*
G01X750740Y49050D02*
X751050Y51758D01*
X751515Y54050D01*
X752135Y56133D01*
X752910Y58425D01*
X754150Y61550D01*
X747950D01*
G01X726250Y74050D02*
X725010Y74258D01*
X723925Y75091D01*
X722995Y76342D01*
X722375Y77800D01*
X722065Y79467D01*
Y81133D01*
X722375Y82800D01*
X722995Y84258D01*
X723925Y85508D01*
X725010Y86342D01*
X726250Y86550D01*
X727490Y86342D01*
X728575Y85508D01*
X729505Y84258D01*
X730125Y82800D01*
X730435Y81133D01*
Y79467D01*
X730125Y77800D01*
X729505Y76342D01*
X728575Y75091D01*
X727490Y74258D01*
X726250Y74050D01*
G01X727490Y77383D02*
X729350Y74050D01*
G01X738650Y86550D02*
Y74050D01*
G01X735085Y86550D02*
X742215D01*
G01X751050Y74050D02*
Y79675D01*
X747950Y86550D01*
G01X754150D02*
X751050Y79675D01*
G01X738340Y-950D02*
X738650Y1758D01*
X739115Y4050D01*
X739735Y6133D01*
X740510Y8425D01*
X741750Y11550D01*
X735550D01*
G01X729040Y26550D02*
X729970Y25091D01*
X731210Y24258D01*
X732605Y24050D01*
X733845Y24258D01*
X735085Y25300D01*
X735860Y26550D01*
X736015Y27800D01*
X735705Y29258D01*
X734620Y30300D01*
X733535Y30717D01*
X732140D01*
G01X733535D02*
X734465Y31342D01*
X735240Y32383D01*
X735550Y33633D01*
X735240Y34883D01*
X734465Y35925D01*
X733070Y36550D01*
X731675Y36342D01*
X730280Y35508D01*
G01X741905Y34467D02*
X742835Y35716D01*
X743920Y36342D01*
X745160Y36550D01*
X746710Y36133D01*
X747795Y35092D01*
X748105Y33842D01*
X747950Y32591D01*
X747330Y31550D01*
X744230Y29467D01*
X742835Y28008D01*
X741905Y25925D01*
X741595Y24050D01*
X748105D01*
M02*
