G04 ================== begin FILE IDENTIFICATION RECORD ==================*
G04 Layout Name:  joystick_board.brd*
G04 Film Name:    12-OUTLINE*
G04 File Format:  Gerber RS274X*
G04 File Origin:  Cadence Allegro 17.4-S035*
G04 Origin Date:  Thu Oct 16 19:21:40 2025*
G04 *
G04 Layer:  BOARD GEOMETRY/DESIGN_OUTLINE*
G04 Layer:  BOARD GEOMETRY/CUTOUT*
G04 *
G04 Offset:    (0.000 0.000)*
G04 Mirror:    No*
G04 Mode:      Positive*
G04 Rotation:  0*
G04 FullContactRelief:  No*
G04 UndefLineWidth:     4.000*
G04 ================== end FILE IDENTIFICATION RECORD ====================*
%FSLAX25Y25*MOIN*%
%IR0*IPPOS*OFA0.00000B0.00000*MIA0B0*SFA1.00000B1.00000*%
%ADD10C,.004*%
G75*
%LPD*%
G75*
G54D10*
G01X-7874Y0D02*
G03X0Y-7874I7874J0D01*
G01X187008D01*
G03X194882Y0I0J7874D01*
G01Y137795D01*
G03X187008Y145669I-7874J0D01*
G01X0D01*
G03X-7874Y137795I0J-7874D01*
G01Y0D01*
G01X10827Y5315D02*
G03X14764Y1378I3937J0D01*
G03X18701Y5315I0J3937D01*
G03X14764Y9252I-3937J0D01*
G03X10827Y5315I0J-3937D01*
G01X7805Y52241D02*
G02X11145Y55581I1670J1670D01*
G02X7805Y52241I-1670J-1670D01*
G01X14764Y129921D02*
G02X10827Y133858I0J3937D01*
G02X14764Y137795I3937J0D01*
G02X18701Y133858I0J-3937D01*
G02X14764Y129921I-3937J0D01*
G01X18662Y41940D02*
G02X21446Y44724I1392J1392D01*
G02X18662Y41940I-1392J-1392D01*
G01X32087Y5315D02*
G03X34449Y2953I2362J0D01*
G03X36811Y5315I0J2362D01*
G03X34449Y7677I-2362J0D01*
G03X32087Y5315I0J-2362D01*
G01X150197Y133858D02*
G03X152559Y131496I2362J0D01*
G03X154921Y133858I0J2362D01*
G03X152559Y136220I-2362J0D01*
G03X150197Y133858I0J-2362D01*
G01X168307Y5315D02*
G03X172244Y1378I3937J0D01*
G03X176181Y5315I0J3937D01*
G03X172244Y9252I-3937J0D01*
G03X168307Y5315I0J-3937D01*
G01X165285Y52241D02*
G02X168625Y55581I1670J1670D01*
G02X165285Y52241I-1670J-1670D01*
G01X168307Y133858D02*
G03X172244Y129921I3937J0D01*
G03X176181Y133858I0J3937D01*
G03X172244Y137795I-3937J0D01*
G03X168307Y133858I0J-3937D01*
G01X176142Y41940D02*
G02X178926Y44724I1392J1392D01*
G02X176142Y41940I-1392J-1392D01*
M02*
