G04 ================== begin FILE IDENTIFICATION RECORD ==================*
G04 Layout Name:  wheel_board.brd*
G04 Film Name:    09-DRILL*
G04 File Format:  Gerber RS274X*
G04 File Origin:  Cadence Allegro 17.4-S035*
G04 Origin Date:  Tue Oct 28 13:10:34 2025*
G04 *
G04 Layer:  MANUFACTURING/XSECTION_CHART*
G04 Layer:  MANUFACTURING/NCLEGEND-1-2*
G04 *
G04 Offset:    (0.000 0.000)*
G04 Mirror:    No*
G04 Mode:      Positive*
G04 Rotation:  0*
G04 FullContactRelief:  No*
G04 UndefLineWidth:     0.000*
G04 ================== end FILE IDENTIFICATION RECORD ====================*
%FSLAX25Y25*MOIN*%
%IR0*IPPOS*OFA0.00000B0.00000*MIA0B0*SFA1.00000B1.00000*%
%AMMACRO11*
1,1,0.0,.005906,0.0*
20,1,0.0,.005906,0.0,-.005906,0.0,0.0*
1,1,0.0,-.005906,0.0*
1,1,0.0,0.0,.005906*
20,1,0.0,0.0,.005906,0.0,-.005906,0.0*
1,1,0.0,0.0,-.005906*
%
%ADD11MACRO11*%
%AMMACRO10*
1,1,0.0,.049212,.049212*
20,1,0.0,.049212,.049212,.049212,-.049212,0.0*
1,1,0.0,.049212,-.049212*
20,1,0.0,.049212,-.049212,-.049212,-.049212,0.0*
1,1,0.0,-.049212,-.049212*
20,1,0.0,-.049212,-.049212,-.049212,.049212,0.0*
1,1,0.0,-.049212,.049212*
20,1,0.0,-.049212,.049212,.049212,.049212,0.0*
1,1,0.0,.049212,.049212*
%
%ADD10MACRO10*%
%ADD12C,.003*%
%ADD13C,.015*%
G75*
%LPD*%
G75*
G36*
G01X-224400Y144868D02*
Y139072D01*
X-221900D01*
Y-37664D01*
X-224400D01*
Y-43460D01*
X-209400D01*
Y-37664D01*
X-211900D01*
Y139072D01*
X-209400D01*
Y144868D01*
X-224400D01*
G37*
G36*
G01X-244400Y-43460D02*
Y-37664D01*
X-184400D01*
Y-43460D01*
X-244400D01*
G37*
G36*
G01Y139072D02*
Y144868D01*
X-184400D01*
Y139072D01*
X-244400D01*
G37*
G54D10*
X-25591Y-3938D03*
X25590Y-3937D03*
X138050Y-57100D03*
G54D11*
X13300Y-16100D03*
X0Y-12200D03*
X138050Y-32100D03*
G54D12*
G01X-240800Y-59817D02*
Y-62317D01*
G01X-241413Y-59817D02*
X-240187D01*
G01X-238600Y-62317D02*
X-238813Y-62275D01*
X-239000Y-62108D01*
X-239160Y-61858D01*
X-239267Y-61567D01*
X-239320Y-61233D01*
Y-60900D01*
X-239267Y-60567D01*
X-239160Y-60275D01*
X-239000Y-60025D01*
X-238813Y-59858D01*
X-238600Y-59817D01*
X-238387Y-59858D01*
X-238200Y-60025D01*
X-238040Y-60275D01*
X-237933Y-60567D01*
X-237880Y-60900D01*
Y-61233D01*
X-237933Y-61567D01*
X-238040Y-61858D01*
X-238200Y-62108D01*
X-238387Y-62275D01*
X-238600Y-62317D01*
G01X-236400Y-59817D02*
Y-62317D01*
G01X-237013Y-59817D02*
X-235787D01*
G01X-234867Y-62317D02*
X-234200Y-59817D01*
X-233533Y-62317D01*
G01X-233773Y-61442D02*
X-234627D01*
G01X-232533Y-59817D02*
Y-62317D01*
X-231467D01*
G01X-227600Y-59817D02*
Y-62317D01*
G01X-228213Y-59817D02*
X-226987D01*
G01X-225960Y-62317D02*
Y-59817D01*
G01X-224840D02*
Y-62317D01*
G01Y-61067D02*
X-225960D01*
G01X-223520Y-59817D02*
X-222880D01*
G01X-223200D02*
Y-62317D01*
G01X-223520D02*
X-222880D01*
G01X-220413Y-60025D02*
X-220573Y-59900D01*
X-220760Y-59817D01*
X-220973D01*
X-221213Y-59942D01*
X-221400Y-60150D01*
X-221533Y-60400D01*
X-221640Y-60817D01*
X-221667Y-61192D01*
X-221613Y-61567D01*
X-221533Y-61817D01*
X-221373Y-62067D01*
X-221187Y-62233D01*
X-221000Y-62317D01*
X-220813D01*
X-220627Y-62233D01*
X-220467Y-62108D01*
X-220333Y-61942D01*
G01X-219387Y-62317D02*
Y-59817D01*
G01X-218373D02*
X-219387Y-61358D01*
G01X-218213Y-62317D02*
X-218933Y-60650D01*
G01X-217213Y-62317D02*
Y-59817D01*
X-215987Y-62317D01*
Y-59817D01*
G01X-213867Y-62317D02*
X-214933D01*
Y-59817D01*
X-213867D01*
G01X-214293Y-61025D02*
X-214933D01*
G01X-212760Y-61983D02*
X-212547Y-62192D01*
X-212307Y-62317D01*
X-212093D01*
X-211880Y-62192D01*
X-211720Y-61983D01*
X-211640Y-61692D01*
X-211693Y-61400D01*
X-211827Y-61150D01*
X-212067Y-60983D01*
X-212387Y-60900D01*
X-212573Y-60733D01*
X-212653Y-60442D01*
X-212600Y-60150D01*
X-212467Y-59942D01*
X-212280Y-59817D01*
X-212093D01*
X-211907Y-59900D01*
X-211747Y-60108D01*
G01X-210560Y-61983D02*
X-210347Y-62192D01*
X-210107Y-62317D01*
X-209893D01*
X-209680Y-62192D01*
X-209520Y-61983D01*
X-209440Y-61692D01*
X-209493Y-61400D01*
X-209627Y-61150D01*
X-209867Y-60983D01*
X-210187Y-60900D01*
X-210373Y-60733D01*
X-210453Y-60442D01*
X-210400Y-60150D01*
X-210267Y-59942D01*
X-210080Y-59817D01*
X-209893D01*
X-209707Y-59900D01*
X-209547Y-60108D01*
G01X-205280Y-62317D02*
Y-59817D01*
X-206267Y-61608D01*
X-204933D01*
G01X-203453Y-62317D02*
X-203400Y-61775D01*
X-203320Y-61317D01*
X-203213Y-60900D01*
X-203080Y-60442D01*
X-202867Y-59817D01*
X-203933D01*
G01X-201200Y-62400D02*
X-201253Y-62358D01*
Y-62275D01*
X-201200Y-62233D01*
X-201147Y-62275D01*
Y-62358D01*
X-201200Y-62400D01*
G01X-199507Y-60233D02*
X-199347Y-59983D01*
X-199160Y-59858D01*
X-198947Y-59817D01*
X-198680Y-59900D01*
X-198493Y-60108D01*
X-198440Y-60358D01*
X-198467Y-60608D01*
X-198573Y-60817D01*
X-199107Y-61233D01*
X-199347Y-61525D01*
X-199507Y-61942D01*
X-199560Y-62317D01*
X-198440D01*
G01X-196480D02*
Y-59817D01*
X-197467Y-61608D01*
X-196133D01*
G01X-193093Y-62317D02*
Y-59817D01*
X-192400Y-61900D01*
X-191707Y-59817D01*
Y-62317D01*
G01X-190520Y-59817D02*
X-189880D01*
G01X-190200D02*
Y-62317D01*
G01X-190520D02*
X-189880D01*
G01X-188533Y-59817D02*
Y-62317D01*
X-187467D01*
G01X-243800Y-58650D02*
X-242200D01*
G01X-241600D02*
X-240000D01*
G01X-239400D02*
X-237800D01*
G01X-237200D02*
X-235600D01*
G01X-235000D02*
X-233400D01*
G01X-232800D02*
X-231200D01*
G01X-230600D02*
X-229000D01*
G01X-228400D02*
X-226800D01*
G01X-226200D02*
X-224600D01*
G01X-224000D02*
X-222400D01*
G01X-221800D02*
X-220200D01*
G01X-219600D02*
X-218000D01*
G01X-217400D02*
X-215800D01*
G01X-215200D02*
X-213600D01*
G01X-213000D02*
X-211400D01*
G01X-210800D02*
X-209200D01*
G01X-208600D02*
X-207000D01*
G01X-206400D02*
X-204800D01*
G01X-204200D02*
X-202600D01*
G01X-202000D02*
X-200400D01*
G01X-199800D02*
X-198200D01*
G01X-197600D02*
X-196000D01*
G01X-195400D02*
X-193800D01*
G01X-193200D02*
X-191600D01*
G01X-191000D02*
X-189400D01*
G01X-188800D02*
X-187200D01*
G01X-186600D02*
X-185000D01*
G01X-242487Y-57817D02*
Y-55317D01*
X-241953D01*
X-241740Y-55442D01*
X-241580Y-55608D01*
X-241447Y-55858D01*
X-241340Y-56150D01*
X-241313Y-56567D01*
X-241340Y-56983D01*
X-241447Y-57275D01*
X-241580Y-57525D01*
X-241740Y-57692D01*
X-241953Y-57817D01*
X-242487D01*
G01X-239167D02*
X-240233D01*
Y-55317D01*
X-239167D01*
G01X-239593Y-56525D02*
X-240233D01*
G01X-238060Y-57483D02*
X-237847Y-57692D01*
X-237607Y-57817D01*
X-237393D01*
X-237180Y-57692D01*
X-237020Y-57483D01*
X-236940Y-57192D01*
X-236993Y-56900D01*
X-237127Y-56650D01*
X-237367Y-56483D01*
X-237687Y-56400D01*
X-237873Y-56233D01*
X-237953Y-55942D01*
X-237900Y-55650D01*
X-237767Y-55442D01*
X-237580Y-55317D01*
X-237393D01*
X-237207Y-55400D01*
X-237047Y-55608D01*
G01X-235620Y-55317D02*
X-234980D01*
G01X-235300D02*
Y-57817D01*
G01X-235620D02*
X-234980D01*
G01X-232940Y-56567D02*
X-232407D01*
Y-57317D01*
X-232567Y-57567D01*
X-232753Y-57733D01*
X-233020Y-57817D01*
X-233287Y-57733D01*
X-233473Y-57567D01*
X-233633Y-57317D01*
X-233740Y-57025D01*
X-233793Y-56692D01*
Y-56400D01*
X-233740Y-56150D01*
X-233633Y-55858D01*
X-233473Y-55608D01*
X-233313Y-55442D01*
X-233100Y-55317D01*
X-232913D01*
X-232700Y-55400D01*
X-232540Y-55567D01*
G01X-231513Y-57817D02*
Y-55317D01*
X-230287Y-57817D01*
Y-55317D01*
G01X-225913Y-55525D02*
X-226073Y-55400D01*
X-226260Y-55317D01*
X-226473D01*
X-226713Y-55442D01*
X-226900Y-55650D01*
X-227033Y-55900D01*
X-227140Y-56317D01*
X-227167Y-56692D01*
X-227113Y-57067D01*
X-227033Y-57317D01*
X-226873Y-57567D01*
X-226687Y-57733D01*
X-226500Y-57817D01*
X-226313D01*
X-226127Y-57733D01*
X-225967Y-57608D01*
X-225833Y-57442D01*
G01X-224833Y-57817D02*
Y-55317D01*
X-224167D01*
X-223953Y-55442D01*
X-223820Y-55608D01*
X-223767Y-55942D01*
X-223820Y-56275D01*
X-223980Y-56483D01*
X-224167Y-56608D01*
X-224833D01*
G01X-224167D02*
X-223767Y-57817D01*
G01X-222100D02*
X-222313Y-57775D01*
X-222500Y-57608D01*
X-222660Y-57358D01*
X-222767Y-57067D01*
X-222820Y-56733D01*
Y-56400D01*
X-222767Y-56067D01*
X-222660Y-55775D01*
X-222500Y-55525D01*
X-222313Y-55358D01*
X-222100Y-55317D01*
X-221887Y-55358D01*
X-221700Y-55525D01*
X-221540Y-55775D01*
X-221433Y-56067D01*
X-221380Y-56400D01*
Y-56733D01*
X-221433Y-57067D01*
X-221540Y-57358D01*
X-221700Y-57608D01*
X-221887Y-57775D01*
X-222100Y-57817D01*
G01X-220460Y-57483D02*
X-220247Y-57692D01*
X-220007Y-57817D01*
X-219793D01*
X-219580Y-57692D01*
X-219420Y-57483D01*
X-219340Y-57192D01*
X-219393Y-56900D01*
X-219527Y-56650D01*
X-219767Y-56483D01*
X-220087Y-56400D01*
X-220273Y-56233D01*
X-220353Y-55942D01*
X-220300Y-55650D01*
X-220167Y-55442D01*
X-219980Y-55317D01*
X-219793D01*
X-219607Y-55400D01*
X-219447Y-55608D01*
G01X-218260Y-57483D02*
X-218047Y-57692D01*
X-217807Y-57817D01*
X-217593D01*
X-217380Y-57692D01*
X-217220Y-57483D01*
X-217140Y-57192D01*
X-217193Y-56900D01*
X-217327Y-56650D01*
X-217567Y-56483D01*
X-217887Y-56400D01*
X-218073Y-56233D01*
X-218153Y-55942D01*
X-218100Y-55650D01*
X-217967Y-55442D01*
X-217780Y-55317D01*
X-217593D01*
X-217407Y-55400D01*
X-217247Y-55608D01*
G01X-213860Y-57483D02*
X-213647Y-57692D01*
X-213407Y-57817D01*
X-213193D01*
X-212980Y-57692D01*
X-212820Y-57483D01*
X-212740Y-57192D01*
X-212793Y-56900D01*
X-212927Y-56650D01*
X-213167Y-56483D01*
X-213487Y-56400D01*
X-213673Y-56233D01*
X-213753Y-55942D01*
X-213700Y-55650D01*
X-213567Y-55442D01*
X-213380Y-55317D01*
X-213193D01*
X-213007Y-55400D01*
X-212847Y-55608D01*
G01X-210567Y-57817D02*
X-211633D01*
Y-55317D01*
X-210567D01*
G01X-210993Y-56525D02*
X-211633D01*
G01X-208313Y-55525D02*
X-208473Y-55400D01*
X-208660Y-55317D01*
X-208873D01*
X-209113Y-55442D01*
X-209300Y-55650D01*
X-209433Y-55900D01*
X-209540Y-56317D01*
X-209567Y-56692D01*
X-209513Y-57067D01*
X-209433Y-57317D01*
X-209273Y-57567D01*
X-209087Y-57733D01*
X-208900Y-57817D01*
X-208713D01*
X-208527Y-57733D01*
X-208367Y-57608D01*
X-208233Y-57442D01*
G01X-206700Y-55317D02*
Y-57817D01*
G01X-207313Y-55317D02*
X-206087D01*
G01X-204820D02*
X-204180D01*
G01X-204500D02*
Y-57817D01*
G01X-204820D02*
X-204180D01*
G01X-202300D02*
X-202513Y-57775D01*
X-202700Y-57608D01*
X-202860Y-57358D01*
X-202967Y-57067D01*
X-203020Y-56733D01*
Y-56400D01*
X-202967Y-56067D01*
X-202860Y-55775D01*
X-202700Y-55525D01*
X-202513Y-55358D01*
X-202300Y-55317D01*
X-202087Y-55358D01*
X-201900Y-55525D01*
X-201740Y-55775D01*
X-201633Y-56067D01*
X-201580Y-56400D01*
Y-56733D01*
X-201633Y-57067D01*
X-201740Y-57358D01*
X-201900Y-57608D01*
X-202087Y-57775D01*
X-202300Y-57817D01*
G01X-200713D02*
Y-55317D01*
X-199487Y-57817D01*
Y-55317D01*
G01X-195113Y-55525D02*
X-195273Y-55400D01*
X-195460Y-55317D01*
X-195673D01*
X-195913Y-55442D01*
X-196100Y-55650D01*
X-196233Y-55900D01*
X-196340Y-56317D01*
X-196367Y-56692D01*
X-196313Y-57067D01*
X-196233Y-57317D01*
X-196073Y-57567D01*
X-195887Y-57733D01*
X-195700Y-57817D01*
X-195513D01*
X-195327Y-57733D01*
X-195167Y-57608D01*
X-195033Y-57442D01*
G01X-194060Y-57817D02*
Y-55317D01*
G01X-192940D02*
Y-57817D01*
G01Y-56567D02*
X-194060D01*
G01X-191967Y-57817D02*
X-191300Y-55317D01*
X-190633Y-57817D01*
G01X-190873Y-56942D02*
X-191727D01*
G01X-189633Y-57817D02*
Y-55317D01*
X-188967D01*
X-188753Y-55442D01*
X-188620Y-55608D01*
X-188567Y-55942D01*
X-188620Y-56275D01*
X-188780Y-56483D01*
X-188967Y-56608D01*
X-189633D01*
G01X-188967D02*
X-188567Y-57817D01*
G01X-186900Y-55317D02*
Y-57817D01*
G01X-187513Y-55317D02*
X-186287D01*
G01X-216900Y148168D02*
X-219400D01*
X-218900Y147848D01*
G01X-216900D02*
Y148488D01*
G01X-217733Y150021D02*
Y150714D01*
G01X-218983Y152061D02*
X-219233Y152221D01*
X-219358Y152408D01*
X-219400Y152621D01*
X-219317Y152888D01*
X-219108Y153074D01*
X-218858Y153128D01*
X-218608Y153101D01*
X-218400Y152994D01*
X-217983Y152461D01*
X-217692Y152221D01*
X-217275Y152061D01*
X-216900Y152008D01*
Y153128D01*
G01X-177587Y-51917D02*
X-176413Y-50083D01*
G01X-177000Y-49750D02*
Y-52250D01*
G01X-176413Y-51917D02*
X-177587Y-50083D01*
G01X-177800Y-51000D02*
X-176200D01*
G01X-170960Y-51500D02*
X-170747Y-51708D01*
X-170507Y-51833D01*
X-170293D01*
X-170080Y-51708D01*
X-169920Y-51500D01*
X-169840Y-51208D01*
X-169893Y-50917D01*
X-170027Y-50667D01*
X-170267Y-50500D01*
X-170587Y-50417D01*
X-170773Y-50250D01*
X-170853Y-49958D01*
X-170800Y-49667D01*
X-170667Y-49458D01*
X-170480Y-49333D01*
X-170293D01*
X-170107Y-49417D01*
X-169947Y-49625D01*
G01X-168787Y-49333D02*
Y-51125D01*
X-168680Y-51500D01*
X-168467Y-51750D01*
X-168200Y-51833D01*
X-167933Y-51750D01*
X-167720Y-51500D01*
X-167613Y-51125D01*
Y-49333D01*
G01X-166533Y-51833D02*
Y-49333D01*
X-165867D01*
X-165653Y-49458D01*
X-165520Y-49625D01*
X-165467Y-49958D01*
X-165520Y-50292D01*
X-165680Y-50500D01*
X-165867Y-50625D01*
X-166533D01*
G01X-165867D02*
X-165467Y-51833D01*
G01X-164307D02*
Y-49333D01*
X-163293D01*
G01X-163667Y-50542D02*
X-164307D01*
G01X-162267Y-51833D02*
X-161600Y-49333D01*
X-160933Y-51833D01*
G01X-161173Y-50958D02*
X-162027D01*
G01X-158813Y-49542D02*
X-158973Y-49417D01*
X-159160Y-49333D01*
X-159373D01*
X-159613Y-49458D01*
X-159800Y-49667D01*
X-159933Y-49917D01*
X-160040Y-50333D01*
X-160067Y-50708D01*
X-160013Y-51083D01*
X-159933Y-51333D01*
X-159773Y-51584D01*
X-159587Y-51750D01*
X-159400Y-51833D01*
X-159213D01*
X-159027Y-51750D01*
X-158867Y-51625D01*
X-158733Y-51459D01*
G01X-156667Y-51833D02*
X-157733D01*
Y-49333D01*
X-156667D01*
G01X-157093Y-50542D02*
X-157733D01*
G01X-177587Y-46877D02*
X-176413Y-45043D01*
G01X-177000Y-44710D02*
Y-47210D01*
G01X-176413Y-46877D02*
X-177587Y-45043D01*
G01X-177800Y-45960D02*
X-176200D01*
G01X-172387Y-45460D02*
X-172280Y-45335D01*
X-172200Y-45127D01*
X-172147Y-44835D01*
X-172200Y-44585D01*
X-172307Y-44418D01*
X-172493Y-44293D01*
X-173213D01*
Y-46793D01*
X-172333D01*
X-172147Y-46627D01*
X-172040Y-46377D01*
X-171987Y-46085D01*
X-172040Y-45794D01*
X-172200Y-45543D01*
X-172387Y-45460D01*
X-173213D01*
G01X-170400Y-46793D02*
X-170613Y-46752D01*
X-170800Y-46585D01*
X-170960Y-46335D01*
X-171067Y-46043D01*
X-171120Y-45710D01*
Y-45377D01*
X-171067Y-45043D01*
X-170960Y-44752D01*
X-170800Y-44502D01*
X-170613Y-44335D01*
X-170400Y-44293D01*
X-170187Y-44335D01*
X-170000Y-44502D01*
X-169840Y-44752D01*
X-169733Y-45043D01*
X-169680Y-45377D01*
Y-45710D01*
X-169733Y-46043D01*
X-169840Y-46335D01*
X-170000Y-46585D01*
X-170187Y-46752D01*
X-170400Y-46793D01*
G01X-168200Y-44293D02*
Y-46793D01*
G01X-168813Y-44293D02*
X-167587D01*
G01X-166000D02*
Y-46793D01*
G01X-166613Y-44293D02*
X-165387D01*
G01X-163800Y-46793D02*
X-164013Y-46752D01*
X-164200Y-46585D01*
X-164360Y-46335D01*
X-164467Y-46043D01*
X-164520Y-45710D01*
Y-45377D01*
X-164467Y-45043D01*
X-164360Y-44752D01*
X-164200Y-44502D01*
X-164013Y-44335D01*
X-163800Y-44293D01*
X-163587Y-44335D01*
X-163400Y-44502D01*
X-163240Y-44752D01*
X-163133Y-45043D01*
X-163080Y-45377D01*
Y-45710D01*
X-163133Y-46043D01*
X-163240Y-46335D01*
X-163400Y-46585D01*
X-163587Y-46752D01*
X-163800Y-46793D01*
G01X-162293D02*
Y-44293D01*
X-161600Y-46377D01*
X-160907Y-44293D01*
Y-46793D01*
G01X-160200Y-47627D02*
X-158600D01*
G01X-157760Y-46460D02*
X-157547Y-46668D01*
X-157307Y-46793D01*
X-157093D01*
X-156880Y-46668D01*
X-156720Y-46460D01*
X-156640Y-46168D01*
X-156693Y-45877D01*
X-156827Y-45627D01*
X-157067Y-45460D01*
X-157387Y-45377D01*
X-157573Y-45210D01*
X-157653Y-44918D01*
X-157600Y-44627D01*
X-157467Y-44418D01*
X-157280Y-44293D01*
X-157093D01*
X-156907Y-44377D01*
X-156747Y-44585D01*
G01X-155000Y-46793D02*
X-155213Y-46752D01*
X-155400Y-46585D01*
X-155560Y-46335D01*
X-155667Y-46043D01*
X-155720Y-45710D01*
Y-45377D01*
X-155667Y-45043D01*
X-155560Y-44752D01*
X-155400Y-44502D01*
X-155213Y-44335D01*
X-155000Y-44293D01*
X-154787Y-44335D01*
X-154600Y-44502D01*
X-154440Y-44752D01*
X-154333Y-45043D01*
X-154280Y-45377D01*
Y-45710D01*
X-154333Y-46043D01*
X-154440Y-46335D01*
X-154600Y-46585D01*
X-154787Y-46752D01*
X-155000Y-46793D01*
G01X-153333Y-44293D02*
Y-46793D01*
X-152267D01*
G01X-151187D02*
Y-44293D01*
X-150653D01*
X-150440Y-44418D01*
X-150280Y-44585D01*
X-150147Y-44835D01*
X-150040Y-45127D01*
X-150013Y-45543D01*
X-150040Y-45960D01*
X-150147Y-46252D01*
X-150280Y-46502D01*
X-150440Y-46668D01*
X-150653Y-46793D01*
X-151187D01*
G01X-147867D02*
X-148933D01*
Y-44293D01*
X-147867D01*
G01X-148293Y-45502D02*
X-148933D01*
G01X-146733Y-46793D02*
Y-44293D01*
X-146067D01*
X-145853Y-44418D01*
X-145720Y-44585D01*
X-145667Y-44918D01*
X-145720Y-45252D01*
X-145880Y-45460D01*
X-146067Y-45585D01*
X-146733D01*
G01X-146067D02*
X-145667Y-46793D01*
G01X-142493D02*
Y-44293D01*
X-141800Y-46377D01*
X-141107Y-44293D01*
Y-46793D01*
G01X-140267D02*
X-139600Y-44293D01*
X-138933Y-46793D01*
G01X-139173Y-45918D02*
X-140027D01*
G01X-137960Y-46460D02*
X-137747Y-46668D01*
X-137507Y-46793D01*
X-137293D01*
X-137080Y-46668D01*
X-136920Y-46460D01*
X-136840Y-46168D01*
X-136893Y-45877D01*
X-137027Y-45627D01*
X-137267Y-45460D01*
X-137587Y-45377D01*
X-137773Y-45210D01*
X-137853Y-44918D01*
X-137800Y-44627D01*
X-137667Y-44418D01*
X-137480Y-44293D01*
X-137293D01*
X-137107Y-44377D01*
X-136947Y-44585D01*
G01X-135787Y-46793D02*
Y-44293D01*
G01X-134773D02*
X-135787Y-45835D01*
G01X-134613Y-46793D02*
X-135333Y-45127D01*
G01X-181933Y-38498D02*
Y-40998D01*
X-180867D01*
G01X-179707Y-38914D02*
X-179547Y-38664D01*
X-179360Y-38539D01*
X-179147Y-38498D01*
X-178880Y-38581D01*
X-178693Y-38789D01*
X-178640Y-39039D01*
X-178667Y-39289D01*
X-178773Y-39498D01*
X-179307Y-39914D01*
X-179547Y-40206D01*
X-179707Y-40623D01*
X-179760Y-40998D01*
X-178640D01*
G01X-174587Y-39664D02*
X-174480Y-39539D01*
X-174400Y-39331D01*
X-174347Y-39039D01*
X-174400Y-38789D01*
X-174507Y-38623D01*
X-174693Y-38498D01*
X-175413D01*
Y-40998D01*
X-174533D01*
X-174347Y-40831D01*
X-174240Y-40581D01*
X-174187Y-40289D01*
X-174240Y-39998D01*
X-174400Y-39748D01*
X-174587Y-39664D01*
X-175413D01*
G01X-172600Y-40998D02*
X-172813Y-40956D01*
X-173000Y-40789D01*
X-173160Y-40539D01*
X-173267Y-40248D01*
X-173320Y-39914D01*
Y-39581D01*
X-173267Y-39248D01*
X-173160Y-38956D01*
X-173000Y-38706D01*
X-172813Y-38539D01*
X-172600Y-38498D01*
X-172387Y-38539D01*
X-172200Y-38706D01*
X-172040Y-38956D01*
X-171933Y-39248D01*
X-171880Y-39581D01*
Y-39914D01*
X-171933Y-40248D01*
X-172040Y-40539D01*
X-172200Y-40789D01*
X-172387Y-40956D01*
X-172600Y-40998D01*
G01X-170400Y-38498D02*
Y-40998D01*
G01X-171013Y-38498D02*
X-169787D01*
G01X-168200D02*
Y-40998D01*
G01X-168813Y-38498D02*
X-167587D01*
G01X-166000Y-40998D02*
X-166213Y-40956D01*
X-166400Y-40789D01*
X-166560Y-40539D01*
X-166667Y-40248D01*
X-166720Y-39914D01*
Y-39581D01*
X-166667Y-39248D01*
X-166560Y-38956D01*
X-166400Y-38706D01*
X-166213Y-38539D01*
X-166000Y-38498D01*
X-165787Y-38539D01*
X-165600Y-38706D01*
X-165440Y-38956D01*
X-165333Y-39248D01*
X-165280Y-39581D01*
Y-39914D01*
X-165333Y-40248D01*
X-165440Y-40539D01*
X-165600Y-40789D01*
X-165787Y-40956D01*
X-166000Y-40998D01*
G01X-164493D02*
Y-38498D01*
X-163800Y-40581D01*
X-163107Y-38498D01*
Y-40998D01*
G01X-158813Y-38706D02*
X-158973Y-38581D01*
X-159160Y-38498D01*
X-159373D01*
X-159613Y-38623D01*
X-159800Y-38831D01*
X-159933Y-39081D01*
X-160040Y-39498D01*
X-160067Y-39873D01*
X-160013Y-40248D01*
X-159933Y-40498D01*
X-159773Y-40748D01*
X-159587Y-40914D01*
X-159400Y-40998D01*
X-159213D01*
X-159027Y-40914D01*
X-158867Y-40789D01*
X-158733Y-40623D01*
G01X-157200Y-40998D02*
X-157413Y-40956D01*
X-157600Y-40789D01*
X-157760Y-40539D01*
X-157867Y-40248D01*
X-157920Y-39914D01*
Y-39581D01*
X-157867Y-39248D01*
X-157760Y-38956D01*
X-157600Y-38706D01*
X-157413Y-38539D01*
X-157200Y-38498D01*
X-156987Y-38539D01*
X-156800Y-38706D01*
X-156640Y-38956D01*
X-156533Y-39248D01*
X-156480Y-39581D01*
Y-39914D01*
X-156533Y-40248D01*
X-156640Y-40539D01*
X-156800Y-40789D01*
X-156987Y-40956D01*
X-157200Y-40998D01*
G01X-155613D02*
Y-38498D01*
X-154387Y-40998D01*
Y-38498D01*
G01X-153387Y-40998D02*
Y-38498D01*
X-152853D01*
X-152640Y-38623D01*
X-152480Y-38789D01*
X-152347Y-39039D01*
X-152240Y-39331D01*
X-152213Y-39748D01*
X-152240Y-40164D01*
X-152347Y-40456D01*
X-152480Y-40706D01*
X-152640Y-40872D01*
X-152853Y-40998D01*
X-153387D01*
G01X-151187Y-38498D02*
Y-40289D01*
X-151080Y-40664D01*
X-150867Y-40914D01*
X-150600Y-40998D01*
X-150333Y-40914D01*
X-150120Y-40664D01*
X-150013Y-40289D01*
Y-38498D01*
G01X-147813Y-38706D02*
X-147973Y-38581D01*
X-148160Y-38498D01*
X-148373D01*
X-148613Y-38623D01*
X-148800Y-38831D01*
X-148933Y-39081D01*
X-149040Y-39498D01*
X-149067Y-39873D01*
X-149013Y-40248D01*
X-148933Y-40498D01*
X-148773Y-40748D01*
X-148587Y-40914D01*
X-148400Y-40998D01*
X-148213D01*
X-148027Y-40914D01*
X-147867Y-40789D01*
X-147733Y-40623D01*
G01X-146200Y-38498D02*
Y-40998D01*
G01X-146813Y-38498D02*
X-145587D01*
G01X-144000Y-40998D02*
X-144213Y-40956D01*
X-144400Y-40789D01*
X-144560Y-40539D01*
X-144667Y-40248D01*
X-144720Y-39914D01*
Y-39581D01*
X-144667Y-39248D01*
X-144560Y-38956D01*
X-144400Y-38706D01*
X-144213Y-38539D01*
X-144000Y-38498D01*
X-143787Y-38539D01*
X-143600Y-38706D01*
X-143440Y-38956D01*
X-143333Y-39248D01*
X-143280Y-39581D01*
Y-39914D01*
X-143333Y-40248D01*
X-143440Y-40539D01*
X-143600Y-40789D01*
X-143787Y-40956D01*
X-144000Y-40998D01*
G01X-142333D02*
Y-38498D01*
X-141667D01*
X-141453Y-38623D01*
X-141320Y-38789D01*
X-141267Y-39123D01*
X-141320Y-39456D01*
X-141480Y-39664D01*
X-141667Y-39789D01*
X-142333D01*
G01X-141667D02*
X-141267Y-40998D01*
G01X-177587Y50620D02*
X-176413Y52454D01*
G01X-177000Y52787D02*
Y50287D01*
G01X-176413Y50620D02*
X-177587Y52454D01*
G01X-177800Y51537D02*
X-176200D01*
G01X-170987Y50704D02*
Y53204D01*
X-170453D01*
X-170240Y53079D01*
X-170080Y52912D01*
X-169947Y52662D01*
X-169840Y52370D01*
X-169813Y51954D01*
X-169840Y51537D01*
X-169947Y51245D01*
X-170080Y50995D01*
X-170240Y50829D01*
X-170453Y50704D01*
X-170987D01*
G01X-168520Y53204D02*
X-167880D01*
G01X-168200D02*
Y50704D01*
G01X-168520D02*
X-167880D01*
G01X-165467D02*
X-166533D01*
Y53204D01*
X-165467D01*
G01X-165893Y51996D02*
X-166533D01*
G01X-164333Y53204D02*
Y50704D01*
X-163267D01*
G01X-161067D02*
X-162133D01*
Y53204D01*
X-161067D01*
G01X-161493Y51996D02*
X-162133D01*
G01X-158813Y52995D02*
X-158973Y53121D01*
X-159160Y53204D01*
X-159373D01*
X-159613Y53079D01*
X-159800Y52871D01*
X-159933Y52620D01*
X-160040Y52204D01*
X-160067Y51829D01*
X-160013Y51454D01*
X-159933Y51204D01*
X-159773Y50954D01*
X-159587Y50787D01*
X-159400Y50704D01*
X-159213D01*
X-159027Y50787D01*
X-158867Y50912D01*
X-158733Y51079D01*
G01X-157200Y53204D02*
Y50704D01*
G01X-157813Y53204D02*
X-156587D01*
G01X-155533Y50704D02*
Y53204D01*
X-154867D01*
X-154653Y53079D01*
X-154520Y52912D01*
X-154467Y52579D01*
X-154520Y52245D01*
X-154680Y52037D01*
X-154867Y51912D01*
X-155533D01*
G01X-154867D02*
X-154467Y50704D01*
G01X-153120Y53204D02*
X-152480D01*
G01X-152800D02*
Y50704D01*
G01X-153120D02*
X-152480D01*
G01X-150013Y52995D02*
X-150173Y53121D01*
X-150360Y53204D01*
X-150573D01*
X-150813Y53079D01*
X-151000Y52871D01*
X-151133Y52620D01*
X-151240Y52204D01*
X-151267Y51829D01*
X-151213Y51454D01*
X-151133Y51204D01*
X-150973Y50954D01*
X-150787Y50787D01*
X-150600Y50704D01*
X-150413D01*
X-150227Y50787D01*
X-150067Y50912D01*
X-149933Y51079D01*
G01X-181933Y144034D02*
Y141534D01*
X-180867D01*
G01X-179200D02*
Y144034D01*
X-179520Y143534D01*
G01Y141534D02*
X-178880D01*
G01X-174800Y144034D02*
Y141534D01*
G01X-175413Y144034D02*
X-174187D01*
G01X-172600Y141534D02*
X-172813Y141576D01*
X-173000Y141743D01*
X-173160Y141993D01*
X-173267Y142284D01*
X-173320Y142618D01*
Y142951D01*
X-173267Y143284D01*
X-173160Y143576D01*
X-173000Y143826D01*
X-172813Y143993D01*
X-172600Y144034D01*
X-172387Y143993D01*
X-172200Y143826D01*
X-172040Y143576D01*
X-171933Y143284D01*
X-171880Y142951D01*
Y142618D01*
X-171933Y142284D01*
X-172040Y141993D01*
X-172200Y141743D01*
X-172387Y141576D01*
X-172600Y141534D01*
G01X-170933D02*
Y144034D01*
X-170293D01*
X-170080Y143909D01*
X-169920Y143618D01*
X-169867Y143284D01*
X-169920Y142951D01*
X-170053Y142701D01*
X-170293Y142576D01*
X-170933D01*
G01X-165413Y143826D02*
X-165573Y143951D01*
X-165760Y144034D01*
X-165973D01*
X-166213Y143909D01*
X-166400Y143701D01*
X-166533Y143451D01*
X-166640Y143034D01*
X-166667Y142659D01*
X-166613Y142284D01*
X-166533Y142034D01*
X-166373Y141784D01*
X-166187Y141618D01*
X-166000Y141534D01*
X-165813D01*
X-165627Y141618D01*
X-165467Y141743D01*
X-165333Y141909D01*
G01X-163800Y141534D02*
X-164013Y141576D01*
X-164200Y141743D01*
X-164360Y141993D01*
X-164467Y142284D01*
X-164520Y142618D01*
Y142951D01*
X-164467Y143284D01*
X-164360Y143576D01*
X-164200Y143826D01*
X-164013Y143993D01*
X-163800Y144034D01*
X-163587Y143993D01*
X-163400Y143826D01*
X-163240Y143576D01*
X-163133Y143284D01*
X-163080Y142951D01*
Y142618D01*
X-163133Y142284D01*
X-163240Y141993D01*
X-163400Y141743D01*
X-163587Y141576D01*
X-163800Y141534D01*
G01X-162213D02*
Y144034D01*
X-160987Y141534D01*
Y144034D01*
G01X-159987Y141534D02*
Y144034D01*
X-159453D01*
X-159240Y143909D01*
X-159080Y143743D01*
X-158947Y143493D01*
X-158840Y143201D01*
X-158813Y142784D01*
X-158840Y142368D01*
X-158947Y142076D01*
X-159080Y141826D01*
X-159240Y141659D01*
X-159453Y141534D01*
X-159987D01*
G01X-157787Y144034D02*
Y142243D01*
X-157680Y141868D01*
X-157467Y141618D01*
X-157200Y141534D01*
X-156933Y141618D01*
X-156720Y141868D01*
X-156613Y142243D01*
Y144034D01*
G01X-154413Y143826D02*
X-154573Y143951D01*
X-154760Y144034D01*
X-154973D01*
X-155213Y143909D01*
X-155400Y143701D01*
X-155533Y143451D01*
X-155640Y143034D01*
X-155667Y142659D01*
X-155613Y142284D01*
X-155533Y142034D01*
X-155373Y141784D01*
X-155187Y141618D01*
X-155000Y141534D01*
X-154813D01*
X-154627Y141618D01*
X-154467Y141743D01*
X-154333Y141909D01*
G01X-152800Y144034D02*
Y141534D01*
G01X-153413Y144034D02*
X-152187D01*
G01X-150600Y141534D02*
X-150813Y141576D01*
X-151000Y141743D01*
X-151160Y141993D01*
X-151267Y142284D01*
X-151320Y142618D01*
Y142951D01*
X-151267Y143284D01*
X-151160Y143576D01*
X-151000Y143826D01*
X-150813Y143993D01*
X-150600Y144034D01*
X-150387Y143993D01*
X-150200Y143826D01*
X-150040Y143576D01*
X-149933Y143284D01*
X-149880Y142951D01*
Y142618D01*
X-149933Y142284D01*
X-150040Y141993D01*
X-150200Y141743D01*
X-150387Y141576D01*
X-150600Y141534D01*
G01X-148933D02*
Y144034D01*
X-148267D01*
X-148053Y143909D01*
X-147920Y143743D01*
X-147867Y143409D01*
X-147920Y143076D01*
X-148080Y142868D01*
X-148267Y142743D01*
X-148933D01*
G01X-148267D02*
X-147867Y141534D01*
G01X-177587Y146491D02*
X-176413Y148324D01*
G01X-177000Y148658D02*
Y146158D01*
G01X-176413Y146491D02*
X-177587Y148324D01*
G01X-177800Y147408D02*
X-176200D01*
G01X-172600Y149074D02*
Y146574D01*
G01X-173213Y149074D02*
X-171987D01*
G01X-170400Y146574D02*
X-170613Y146616D01*
X-170800Y146783D01*
X-170960Y147033D01*
X-171067Y147324D01*
X-171120Y147658D01*
Y147991D01*
X-171067Y148324D01*
X-170960Y148616D01*
X-170800Y148866D01*
X-170613Y149033D01*
X-170400Y149074D01*
X-170187Y149033D01*
X-170000Y148866D01*
X-169840Y148616D01*
X-169733Y148324D01*
X-169680Y147991D01*
Y147658D01*
X-169733Y147324D01*
X-169840Y147033D01*
X-170000Y146783D01*
X-170187Y146616D01*
X-170400Y146574D01*
G01X-168733D02*
Y149074D01*
X-168093D01*
X-167880Y148949D01*
X-167720Y148658D01*
X-167667Y148324D01*
X-167720Y147991D01*
X-167853Y147741D01*
X-168093Y147616D01*
X-168733D01*
G01X-166800Y145741D02*
X-165200D01*
G01X-164360Y146908D02*
X-164147Y146699D01*
X-163907Y146574D01*
X-163693D01*
X-163480Y146699D01*
X-163320Y146908D01*
X-163240Y147199D01*
X-163293Y147491D01*
X-163427Y147741D01*
X-163667Y147908D01*
X-163987Y147991D01*
X-164173Y148158D01*
X-164253Y148449D01*
X-164200Y148741D01*
X-164067Y148949D01*
X-163880Y149074D01*
X-163693D01*
X-163507Y148991D01*
X-163347Y148783D01*
G01X-161600Y146574D02*
X-161813Y146616D01*
X-162000Y146783D01*
X-162160Y147033D01*
X-162267Y147324D01*
X-162320Y147658D01*
Y147991D01*
X-162267Y148324D01*
X-162160Y148616D01*
X-162000Y148866D01*
X-161813Y149033D01*
X-161600Y149074D01*
X-161387Y149033D01*
X-161200Y148866D01*
X-161040Y148616D01*
X-160933Y148324D01*
X-160880Y147991D01*
Y147658D01*
X-160933Y147324D01*
X-161040Y147033D01*
X-161200Y146783D01*
X-161387Y146616D01*
X-161600Y146574D01*
G01X-159933Y149074D02*
Y146574D01*
X-158867D01*
G01X-157787D02*
Y149074D01*
X-157253D01*
X-157040Y148949D01*
X-156880Y148783D01*
X-156747Y148533D01*
X-156640Y148241D01*
X-156613Y147824D01*
X-156640Y147408D01*
X-156747Y147116D01*
X-156880Y146866D01*
X-157040Y146699D01*
X-157253Y146574D01*
X-157787D01*
G01X-154467D02*
X-155533D01*
Y149074D01*
X-154467D01*
G01X-154893Y147866D02*
X-155533D01*
G01X-153333Y146574D02*
Y149074D01*
X-152667D01*
X-152453Y148949D01*
X-152320Y148783D01*
X-152267Y148449D01*
X-152320Y148116D01*
X-152480Y147908D01*
X-152667Y147783D01*
X-153333D01*
G01X-152667D02*
X-152267Y146574D01*
G01X-149093D02*
Y149074D01*
X-148400Y146991D01*
X-147707Y149074D01*
Y146574D01*
G01X-146867D02*
X-146200Y149074D01*
X-145533Y146574D01*
G01X-145773Y147449D02*
X-146627D01*
G01X-144560Y146908D02*
X-144347Y146699D01*
X-144107Y146574D01*
X-143893D01*
X-143680Y146699D01*
X-143520Y146908D01*
X-143440Y147199D01*
X-143493Y147491D01*
X-143627Y147741D01*
X-143867Y147908D01*
X-144187Y147991D01*
X-144373Y148158D01*
X-144453Y148449D01*
X-144400Y148741D01*
X-144267Y148949D01*
X-144080Y149074D01*
X-143893D01*
X-143707Y148991D01*
X-143547Y148783D01*
G01X-142387Y146574D02*
Y149074D01*
G01X-141373D02*
X-142387Y147533D01*
G01X-141213Y146574D02*
X-141933Y148241D01*
G01X-177587Y150658D02*
X-176413Y152491D01*
G01X-177000Y152824D02*
Y150324D01*
G01X-176413Y150658D02*
X-177587Y152491D01*
G01X-177800Y151574D02*
X-176200D01*
G01X-170960Y151074D02*
X-170747Y150866D01*
X-170507Y150741D01*
X-170293D01*
X-170080Y150866D01*
X-169920Y151074D01*
X-169840Y151366D01*
X-169893Y151658D01*
X-170027Y151908D01*
X-170267Y152074D01*
X-170587Y152158D01*
X-170773Y152324D01*
X-170853Y152616D01*
X-170800Y152908D01*
X-170667Y153116D01*
X-170480Y153241D01*
X-170293D01*
X-170107Y153158D01*
X-169947Y152949D01*
G01X-168787Y153241D02*
Y151449D01*
X-168680Y151074D01*
X-168467Y150824D01*
X-168200Y150741D01*
X-167933Y150824D01*
X-167720Y151074D01*
X-167613Y151449D01*
Y153241D01*
G01X-166533Y150741D02*
Y153241D01*
X-165867D01*
X-165653Y153116D01*
X-165520Y152949D01*
X-165467Y152616D01*
X-165520Y152283D01*
X-165680Y152074D01*
X-165867Y151949D01*
X-166533D01*
G01X-165867D02*
X-165467Y150741D01*
G01X-164307D02*
Y153241D01*
X-163293D01*
G01X-163667Y152033D02*
X-164307D01*
G01X-162267Y150741D02*
X-161600Y153241D01*
X-160933Y150741D01*
G01X-161173Y151616D02*
X-162027D01*
G01X-158813Y153033D02*
X-158973Y153158D01*
X-159160Y153241D01*
X-159373D01*
X-159613Y153116D01*
X-159800Y152908D01*
X-159933Y152658D01*
X-160040Y152241D01*
X-160067Y151866D01*
X-160013Y151491D01*
X-159933Y151241D01*
X-159773Y150991D01*
X-159587Y150824D01*
X-159400Y150741D01*
X-159213D01*
X-159027Y150824D01*
X-158867Y150949D01*
X-158733Y151116D01*
G01X-156667Y150741D02*
X-157733D01*
Y153241D01*
X-156667D01*
G01X-157093Y152033D02*
X-157733D01*
G54D13*
G01X104105Y-13350D02*
Y-850D01*
X109995D01*
G01X107825Y-6892D02*
X104105D01*
G01X117590Y-850D02*
X121310D01*
G01X119450D02*
Y-13350D01*
G01X117590D02*
X121310D01*
G01X132780Y-7100D02*
X135880D01*
Y-10850D01*
X134950Y-12100D01*
X133865Y-12933D01*
X132315Y-13350D01*
X130765Y-12933D01*
X129680Y-12100D01*
X128750Y-10850D01*
X128130Y-9392D01*
X127820Y-7725D01*
Y-6267D01*
X128130Y-5017D01*
X128750Y-3558D01*
X129680Y-2308D01*
X130610Y-1475D01*
X131850Y-850D01*
X132935D01*
X134175Y-1267D01*
X135105Y-2100D01*
G01X140840Y-850D02*
Y-9808D01*
X141460Y-11684D01*
X142700Y-12933D01*
X144250Y-13350D01*
X145800Y-12933D01*
X147040Y-11684D01*
X147660Y-9808D01*
Y-850D01*
G01X153550Y-13350D02*
Y-850D01*
X157425D01*
X158665Y-1475D01*
X159440Y-2308D01*
X159750Y-3975D01*
X159440Y-5642D01*
X158510Y-6683D01*
X157425Y-7308D01*
X153550D01*
G01X157425D02*
X159750Y-13350D01*
G01X172150D02*
X165950D01*
Y-850D01*
X172150D01*
G01X169670Y-6892D02*
X165950D01*
G01X182690Y36650D02*
Y49150D01*
X185790D01*
X187030Y48525D01*
X187960Y47692D01*
X188735Y46442D01*
X189355Y44983D01*
X189510Y42900D01*
X189355Y40817D01*
X188735Y39358D01*
X187960Y38108D01*
X187030Y37275D01*
X185790Y36650D01*
X182690D01*
G01X195400D02*
Y49150D01*
X199275D01*
X200515Y48525D01*
X201290Y47692D01*
X201600Y46025D01*
X201290Y44358D01*
X200360Y43317D01*
X199275Y42692D01*
X195400D01*
G01X199275D02*
X201600Y36650D01*
G01X209040Y49150D02*
X212760D01*
G01X210900D02*
Y36650D01*
G01X209040D02*
X212760D01*
G01X220200Y49150D02*
Y36650D01*
X226400D01*
G01X232600Y49150D02*
Y36650D01*
X238800D01*
G01X263910Y48108D02*
X262980Y48733D01*
X261895Y49150D01*
X260655D01*
X259260Y48525D01*
X258175Y47483D01*
X257400Y46233D01*
X256780Y44150D01*
X256625Y42275D01*
X256935Y40400D01*
X257400Y39150D01*
X258330Y37900D01*
X259415Y37067D01*
X260500Y36650D01*
X261585D01*
X262670Y37067D01*
X263600Y37691D01*
X264375Y38525D01*
G01X269645Y36650D02*
Y49150D01*
G01X276155D02*
Y36650D01*
G01Y42900D02*
X269645D01*
G01X281425Y36650D02*
X285300Y49150D01*
X289175Y36650D01*
G01X287780Y41025D02*
X282820D01*
G01X294600Y36650D02*
Y49150D01*
X298475D01*
X299715Y48525D01*
X300490Y47692D01*
X300800Y46025D01*
X300490Y44358D01*
X299560Y43317D01*
X298475Y42692D01*
X294600D01*
G01X298475D02*
X300800Y36650D01*
G01X310100Y49150D02*
Y36650D01*
G01X306535Y49150D02*
X313665D01*
G01X322500Y36233D02*
X322190Y36442D01*
Y36858D01*
X322500Y37067D01*
X322810Y36858D01*
Y36442D01*
X322500Y36233D01*
G01Y41858D02*
X322190Y42067D01*
Y42483D01*
X322500Y42692D01*
X322810Y42483D01*
Y42067D01*
X322500Y41858D01*
G01X347300Y49150D02*
Y36650D01*
G01X343735Y49150D02*
X350865D01*
G01X359700Y36650D02*
X358460Y36858D01*
X357375Y37691D01*
X356445Y38942D01*
X355825Y40400D01*
X355515Y42067D01*
Y43733D01*
X355825Y45400D01*
X356445Y46858D01*
X357375Y48108D01*
X358460Y48942D01*
X359700Y49150D01*
X360940Y48942D01*
X362025Y48108D01*
X362955Y46858D01*
X363575Y45400D01*
X363885Y43733D01*
Y42067D01*
X363575Y40400D01*
X362955Y38942D01*
X362025Y37691D01*
X360940Y36858D01*
X359700Y36650D01*
G01X369000D02*
Y49150D01*
X372720D01*
X373960Y48525D01*
X374890Y47067D01*
X375200Y45400D01*
X374890Y43733D01*
X374115Y42483D01*
X372720Y41858D01*
X369000D01*
G01X396900Y49150D02*
Y36650D01*
G01X394730Y44983D02*
X399070D01*
G01X409300Y36650D02*
X408370Y36858D01*
X407440Y37691D01*
X406820Y39150D01*
X406510Y40817D01*
X406820Y42483D01*
X407440Y43942D01*
X408370Y44775D01*
X409300Y44983D01*
X410230Y44775D01*
X411160Y43942D01*
X411780Y42483D01*
X411935Y40817D01*
X411780Y39150D01*
X411160Y37691D01*
X410230Y36858D01*
X409300Y36650D01*
G01X435340Y43317D02*
X435960Y43942D01*
X436425Y44983D01*
X436735Y46442D01*
X436425Y47692D01*
X435805Y48525D01*
X434720Y49150D01*
X430535D01*
Y36650D01*
X435650D01*
X436735Y37483D01*
X437355Y38733D01*
X437665Y40192D01*
X437355Y41650D01*
X436425Y42900D01*
X435340Y43317D01*
X430535D01*
G01X446500Y36650D02*
X445260Y36858D01*
X444175Y37691D01*
X443245Y38942D01*
X442625Y40400D01*
X442315Y42067D01*
Y43733D01*
X442625Y45400D01*
X443245Y46858D01*
X444175Y48108D01*
X445260Y48942D01*
X446500Y49150D01*
X447740Y48942D01*
X448825Y48108D01*
X449755Y46858D01*
X450375Y45400D01*
X450685Y43733D01*
Y42067D01*
X450375Y40400D01*
X449755Y38942D01*
X448825Y37691D01*
X447740Y36858D01*
X446500Y36650D01*
G01X458900Y49150D02*
Y36650D01*
G01X455335Y49150D02*
X462465D01*
G01X471300D02*
Y36650D01*
G01X467735Y49150D02*
X474865D01*
G01X483700Y36650D02*
X482460Y36858D01*
X481375Y37691D01*
X480445Y38942D01*
X479825Y40400D01*
X479515Y42067D01*
Y43733D01*
X479825Y45400D01*
X480445Y46858D01*
X481375Y48108D01*
X482460Y48942D01*
X483700Y49150D01*
X484940Y48942D01*
X486025Y48108D01*
X486955Y46858D01*
X487575Y45400D01*
X487885Y43733D01*
Y42067D01*
X487575Y40400D01*
X486955Y38942D01*
X486025Y37691D01*
X484940Y36858D01*
X483700Y36650D01*
G01X492070D02*
Y49150D01*
X496100Y38733D01*
X500130Y49150D01*
Y36650D01*
G01X206405Y-13350D02*
Y-850D01*
X212295D01*
G01X210125Y-6892D02*
X206405D01*
G01X219890Y-850D02*
X223610D01*
G01X221750D02*
Y-13350D01*
G01X219890D02*
X223610D01*
G01X230585D02*
Y-850D01*
X237715Y-13350D01*
Y-850D01*
G01X244690D02*
X248410D01*
G01X246550D02*
Y-13350D01*
G01X244690D02*
X248410D01*
G01X255695Y-11684D02*
X256935Y-12725D01*
X258330Y-13350D01*
X259570D01*
X260810Y-12725D01*
X261740Y-11684D01*
X262205Y-10225D01*
X261895Y-8767D01*
X261120Y-7517D01*
X259725Y-6683D01*
X257865Y-6267D01*
X256780Y-5434D01*
X256315Y-3975D01*
X256625Y-2517D01*
X257400Y-1475D01*
X258485Y-850D01*
X259570D01*
X260655Y-1267D01*
X261585Y-2308D01*
G01X268095Y-13350D02*
Y-850D01*
G01X274605D02*
Y-13350D01*
G01Y-7100D02*
X268095D01*
G01X286850Y-13350D02*
X280650D01*
Y-850D01*
X286850D01*
G01X284370Y-6892D02*
X280650D01*
G01X292740Y-13350D02*
Y-850D01*
X295840D01*
X297080Y-1475D01*
X298010Y-2308D01*
X298785Y-3558D01*
X299405Y-5017D01*
X299560Y-7100D01*
X299405Y-9184D01*
X298785Y-10642D01*
X298010Y-11892D01*
X297080Y-12725D01*
X295840Y-13350D01*
X292740D01*
G01X303900Y-17516D02*
X313200D01*
G01X317695Y-11684D02*
X318935Y-12725D01*
X320330Y-13350D01*
X321570D01*
X322810Y-12725D01*
X323740Y-11684D01*
X324205Y-10225D01*
X323895Y-8767D01*
X323120Y-7517D01*
X321725Y-6683D01*
X319865Y-6267D01*
X318780Y-5434D01*
X318315Y-3975D01*
X318625Y-2517D01*
X319400Y-1475D01*
X320485Y-850D01*
X321570D01*
X322655Y-1267D01*
X323585Y-2308D01*
G01X331490Y-850D02*
X335210D01*
G01X333350D02*
Y-13350D01*
G01X331490D02*
X335210D01*
G01X342805Y-850D02*
X348695D01*
X342805Y-13350D01*
X348695D01*
G01X361250D02*
X355050D01*
Y-850D01*
X361250D01*
G01X358770Y-6892D02*
X355050D01*
G01X213225Y11650D02*
X217100Y24150D01*
X220975Y11650D01*
G01X219580Y16025D02*
X214620D01*
G01X226400Y24150D02*
Y11650D01*
X232600D01*
G01X238800Y24150D02*
Y11650D01*
X245000D01*
G01X263290Y24150D02*
Y15192D01*
X263910Y13316D01*
X265150Y12067D01*
X266700Y11650D01*
X268250Y12067D01*
X269490Y13316D01*
X270110Y15192D01*
Y24150D01*
G01X275535Y11650D02*
Y24150D01*
X282665Y11650D01*
Y24150D01*
G01X289640D02*
X293360D01*
G01X291500D02*
Y11650D01*
G01X289640D02*
X293360D01*
G01X303900Y24150D02*
Y11650D01*
G01X300335Y24150D02*
X307465D01*
G01X313045Y13316D02*
X314285Y12275D01*
X315680Y11650D01*
X316920D01*
X318160Y12275D01*
X319090Y13316D01*
X319555Y14775D01*
X319245Y16233D01*
X318470Y17483D01*
X317075Y18317D01*
X315215Y18733D01*
X314130Y19566D01*
X313665Y21025D01*
X313975Y22483D01*
X314750Y23525D01*
X315835Y24150D01*
X316920D01*
X318005Y23733D01*
X318935Y22692D01*
G01X337225Y11650D02*
X341100Y24150D01*
X344975Y11650D01*
G01X343580Y16025D02*
X338620D01*
G01X350400Y11650D02*
Y24150D01*
X354275D01*
X355515Y23525D01*
X356290Y22692D01*
X356600Y21025D01*
X356290Y19358D01*
X355360Y18317D01*
X354275Y17692D01*
X350400D01*
G01X354275D02*
X356600Y11650D01*
G01X369000D02*
X362800D01*
Y24150D01*
X369000D01*
G01X366520Y18109D02*
X362800D01*
G01X388840Y24150D02*
X392560D01*
G01X390700D02*
Y11650D01*
G01X388840D02*
X392560D01*
G01X399535D02*
Y24150D01*
X406665Y11650D01*
Y24150D01*
G01X423870Y11650D02*
Y24150D01*
X427900Y13733D01*
X431930Y24150D01*
Y11650D01*
G01X438440Y24150D02*
X442160D01*
G01X440300D02*
Y11650D01*
G01X438440D02*
X442160D01*
G01X449600Y24150D02*
Y11650D01*
X455800D01*
G01X461845Y13316D02*
X463085Y12275D01*
X464480Y11650D01*
X465720D01*
X466960Y12275D01*
X467890Y13316D01*
X468355Y14775D01*
X468045Y16233D01*
X467270Y17483D01*
X465875Y18317D01*
X464015Y18733D01*
X462930Y19566D01*
X462465Y21025D01*
X462775Y22483D01*
X463550Y23525D01*
X464635Y24150D01*
X465720D01*
X466805Y23733D01*
X467735Y22692D01*
G01X250115Y-61892D02*
X251200Y-62933D01*
X252440Y-63350D01*
X253680Y-62933D01*
X254765Y-61684D01*
X255540Y-59808D01*
X255850Y-57933D01*
Y-55642D01*
X255540Y-53767D01*
X254765Y-52100D01*
X253835Y-51267D01*
X252750Y-50850D01*
X251510Y-51267D01*
X250580Y-52100D01*
X249960Y-53350D01*
X249650Y-55017D01*
X249960Y-56475D01*
X250735Y-57933D01*
X251665Y-58767D01*
X252750Y-58975D01*
X253990Y-58559D01*
X254920Y-57517D01*
X255850Y-55642D01*
G01X265150Y-63350D02*
X266235Y-63142D01*
X267475Y-62517D01*
X268250Y-61475D01*
X268560Y-60017D01*
X268250Y-58559D01*
X267320Y-57309D01*
X265925Y-56683D01*
X264375D01*
X263445Y-56267D01*
X262670Y-55225D01*
X262360Y-53767D01*
X262825Y-52308D01*
X263910Y-51267D01*
X265150Y-50850D01*
X266390Y-51267D01*
X267475Y-52308D01*
X267940Y-53767D01*
X267630Y-55225D01*
X266855Y-56267D01*
X265925Y-56683D01*
X264375D01*
X262980Y-57309D01*
X262050Y-58559D01*
X261740Y-60017D01*
X262050Y-61475D01*
X262825Y-62517D01*
X264065Y-63142D01*
X265150Y-63350D01*
G01X277550Y-63767D02*
X277240Y-63558D01*
Y-63142D01*
X277550Y-62933D01*
X277860Y-63142D01*
Y-63558D01*
X277550Y-63767D01*
G01X291810Y-63350D02*
Y-50850D01*
X286075Y-59808D01*
X293825D01*
G01X299405Y-52933D02*
X300335Y-51684D01*
X301420Y-51058D01*
X302660Y-50850D01*
X304210Y-51267D01*
X305295Y-52308D01*
X305605Y-53558D01*
X305450Y-54809D01*
X304830Y-55850D01*
X301730Y-57933D01*
X300335Y-59392D01*
X299405Y-61475D01*
X299095Y-63350D01*
X305605D01*
G01X311340Y-61475D02*
X312270Y-62517D01*
X313355Y-63142D01*
X314750Y-63350D01*
X316145Y-62933D01*
X317230Y-62100D01*
X318005Y-60642D01*
X318160Y-58975D01*
X317850Y-57309D01*
X317075Y-56267D01*
X315990Y-55434D01*
X314905Y-55225D01*
X313820Y-55434D01*
X312425Y-56267D01*
X312890Y-50850D01*
X317075D01*
G01X252750Y-38350D02*
Y-25850D01*
X250890Y-28350D01*
G01Y-38350D02*
X254610D01*
G01X265150D02*
Y-25850D01*
X263290Y-28350D01*
G01Y-38350D02*
X267010D01*
G01X277550Y-38767D02*
X277240Y-38558D01*
Y-38142D01*
X277550Y-37933D01*
X277860Y-38142D01*
Y-38558D01*
X277550Y-38767D01*
G01X289950Y-38350D02*
X291035Y-38142D01*
X292275Y-37517D01*
X293050Y-36475D01*
X293360Y-35017D01*
X293050Y-33559D01*
X292120Y-32308D01*
X290725Y-31683D01*
X289175D01*
X288245Y-31267D01*
X287470Y-30225D01*
X287160Y-28767D01*
X287625Y-27308D01*
X288710Y-26267D01*
X289950Y-25850D01*
X291190Y-26267D01*
X292275Y-27308D01*
X292740Y-28767D01*
X292430Y-30225D01*
X291655Y-31267D01*
X290725Y-31683D01*
X289175D01*
X287780Y-32308D01*
X286850Y-33559D01*
X286540Y-35017D01*
X286850Y-36475D01*
X287625Y-37517D01*
X288865Y-38142D01*
X289950Y-38350D01*
G01X302350D02*
Y-25850D01*
X300490Y-28350D01*
G01Y-38350D02*
X304210D01*
G01X314750D02*
Y-25850D01*
X312890Y-28350D01*
G01Y-38350D02*
X316610D01*
G01X413950Y-63350D02*
Y-50850D01*
X417670D01*
X418910Y-51475D01*
X419840Y-52933D01*
X420150Y-54600D01*
X419840Y-56267D01*
X419065Y-57517D01*
X417670Y-58142D01*
X413950D01*
G01X426350Y-50850D02*
Y-63350D01*
X432550D01*
G01X437975D02*
X441850Y-50850D01*
X445725Y-63350D01*
G01X444330Y-58975D02*
X439370D01*
G01X454250Y-50850D02*
Y-63350D01*
G01X450685Y-50850D02*
X457815D01*
G01X469750Y-63350D02*
X463550D01*
Y-50850D01*
X469750D01*
G01X467270Y-56891D02*
X463550D01*
G01X475640Y-63350D02*
Y-50850D01*
X478740D01*
X479980Y-51475D01*
X480910Y-52308D01*
X481685Y-53558D01*
X482305Y-55017D01*
X482460Y-57100D01*
X482305Y-59184D01*
X481685Y-60642D01*
X480910Y-61892D01*
X479980Y-62725D01*
X478740Y-63350D01*
X475640D01*
G01X413950Y-38350D02*
Y-25850D01*
X417670D01*
X418910Y-26475D01*
X419840Y-27933D01*
X420150Y-29600D01*
X419840Y-31267D01*
X419065Y-32517D01*
X417670Y-33142D01*
X413950D01*
G01X426350Y-25850D02*
Y-38350D01*
X432550D01*
G01X437975D02*
X441850Y-25850D01*
X445725Y-38350D01*
G01X444330Y-33975D02*
X439370D01*
G01X454250Y-25850D02*
Y-38350D01*
G01X450685Y-25850D02*
X457815D01*
G01X469750Y-38350D02*
X463550D01*
Y-25850D01*
X469750D01*
G01X467270Y-31892D02*
X463550D01*
G01X475640Y-38350D02*
Y-25850D01*
X478740D01*
X479980Y-26475D01*
X480910Y-27308D01*
X481685Y-28558D01*
X482305Y-30017D01*
X482460Y-32100D01*
X482305Y-34184D01*
X481685Y-35642D01*
X480910Y-36892D01*
X479980Y-37725D01*
X478740Y-38350D01*
X475640D01*
G01X413950Y-13350D02*
Y-850D01*
X417670D01*
X418910Y-1475D01*
X419840Y-2933D01*
X420150Y-4600D01*
X419840Y-6267D01*
X419065Y-7517D01*
X417670Y-8142D01*
X413950D01*
G01X426350Y-850D02*
Y-13350D01*
X432550D01*
G01X437975D02*
X441850Y-850D01*
X445725Y-13350D01*
G01X444330Y-8975D02*
X439370D01*
G01X454250Y-850D02*
Y-13350D01*
G01X450685Y-850D02*
X457815D01*
G01X469750Y-13350D02*
X463550D01*
Y-850D01*
X469750D01*
G01X467270Y-6892D02*
X463550D01*
G01X475640Y-13350D02*
Y-850D01*
X478740D01*
X479980Y-1475D01*
X480910Y-2308D01*
X481685Y-3558D01*
X482305Y-5017D01*
X482460Y-7100D01*
X482305Y-9184D01*
X481685Y-10642D01*
X480910Y-11892D01*
X479980Y-12725D01*
X478740Y-13350D01*
X475640D01*
G01X547405Y-52933D02*
X548335Y-51684D01*
X549420Y-51058D01*
X550660Y-50850D01*
X552210Y-51267D01*
X553295Y-52308D01*
X553605Y-53558D01*
X553450Y-54809D01*
X552830Y-55850D01*
X549730Y-57933D01*
X548335Y-59392D01*
X547405Y-61475D01*
X547095Y-63350D01*
X553605D01*
G01X547405Y-27933D02*
X548335Y-26684D01*
X549420Y-26058D01*
X550660Y-25850D01*
X552210Y-26267D01*
X553295Y-27308D01*
X553605Y-28558D01*
X553450Y-29809D01*
X552830Y-30850D01*
X549730Y-32933D01*
X548335Y-34392D01*
X547405Y-36475D01*
X547095Y-38350D01*
X553605D01*
G01X537950Y-13350D02*
X536710Y-13142D01*
X535625Y-12309D01*
X534695Y-11058D01*
X534075Y-9600D01*
X533765Y-7933D01*
Y-6267D01*
X534075Y-4600D01*
X534695Y-3142D01*
X535625Y-1892D01*
X536710Y-1058D01*
X537950Y-850D01*
X539190Y-1058D01*
X540275Y-1892D01*
X541205Y-3142D01*
X541825Y-4600D01*
X542135Y-6267D01*
Y-7933D01*
X541825Y-9600D01*
X541205Y-11058D01*
X540275Y-12309D01*
X539190Y-13142D01*
X537950Y-13350D01*
G01X539190Y-10017D02*
X541050Y-13350D01*
G01X550350Y-850D02*
Y-13350D01*
G01X546785Y-850D02*
X553915D01*
G01X562750Y-13350D02*
Y-7725D01*
X559650Y-850D01*
G01X565850D02*
X562750Y-7725D01*
M02*
