G04 ================== begin FILE IDENTIFICATION RECORD ==================*
G04 Layout Name:  wheel_board.brd*
G04 Film Name:    10-OUTLINE*
G04 File Format:  Gerber RS274X*
G04 File Origin:  Cadence Allegro 17.4-S035*
G04 Origin Date:  Tue Oct 28 13:10:34 2025*
G04 *
G04 Layer:  BOARD GEOMETRY/DESIGN_OUTLINE*
G04 Layer:  BOARD GEOMETRY/CUTOUT*
G04 *
G04 Offset:    (0.000 0.000)*
G04 Mirror:    No*
G04 Mode:      Positive*
G04 Rotation:  0*
G04 FullContactRelief:  No*
G04 UndefLineWidth:     4.000*
G04 ================== end FILE IDENTIFICATION RECORD ====================*
%FSLAX25Y25*MOIN*%
%IR0*IPPOS*OFA0.00000B0.00000*MIA0B0*SFA1.00000B1.00000*%
%ADD10C,.004*%
G75*
%LPD*%
G75*
G54D10*
G01X49212Y-34331D02*
Y5905D01*
G03X45275Y9842I-3937J0D01*
G01X-65600D01*
Y-19500D01*
X-53150D01*
G02X-49213Y-23437I0J-3937D01*
G01Y-34331D01*
G03X-45276Y-38268I3937J0D01*
G01X45275D01*
G03X49212Y-34331I0J3937D01*
G01X-33937Y-14646D02*
G02X-36300Y-12284I0J2363D01*
G02X-33937Y-9922I2362J0D01*
G02X-31575Y-12284I0J-2362D01*
G02X-33937Y-14646I-2362J0D01*
G01D02*
G02X-36300Y-12284I0J2363D01*
G02X-33937Y-9922I2362J0D01*
G02X-31575Y-12284I0J-2362D01*
G02X-33937Y-14646I-2362J0D01*
G01X-4331Y-25591D02*
G03X0Y-29922I4331J0D01*
G03X4330Y-25591I0J4330D01*
G03X0Y-21260I-4331J0D01*
G03X-4331Y-25591I0J-4331D01*
G01D02*
G03X0Y-29922I4331J0D01*
G03X4330Y-25591I0J4330D01*
G03X0Y-21260I-4331J0D01*
G03X-4331Y-25591I0J-4331D01*
G01X-5906Y-5118D02*
Y5118D01*
G02X-5118Y5906I788J0D01*
G01X-2756D01*
G03X-1969Y6693I0J787D01*
G01Y7087D01*
G02X1969I1969J0D01*
G01Y6693D01*
G03X2756Y5906I787J0D01*
G01X5118D01*
G02X5906Y5118I0J-788D01*
G01Y-5118D01*
G02X5118Y-5906I-788J0D01*
G01X2756D01*
G03X1969Y-6693I0J-787D01*
G01Y-7087D01*
G02X-1969I-1969J0D01*
G01Y-6693D01*
G03X-2756Y-5906I-787J0D01*
G01X-5118D01*
G02X-5906Y-5118I0J788D01*
G01X5945Y-10630D02*
G03I-1220J0D01*
G01X-3504D02*
G03I-1221J0D01*
G01X32756Y-14646D02*
G02Y-9922I0J2362D01*
G01X35118D01*
G02Y-14646I0J-2362D01*
G01X32756D01*
G01D02*
G02Y-9922I0J2362D01*
G01X35118D01*
G02Y-14646I0J-2362D01*
G01X32756D01*
M02*
