G04 ================== begin FILE IDENTIFICATION RECORD ==================*
G04 Layout Name:  key_board.brd*
G04 Film Name:    01-TOP*
G04 File Format:  Gerber RS274X*
G04 File Origin:  Cadence Allegro 17.4-S035*
G04 Origin Date:  Fri Sep 26 16:53:49 2025*
G04 *
G04 Layer:  VIA CLASS/TOP*
G04 Layer:  PIN/TOP*
G04 Layer:  ETCH/TOP*
G04 *
G04 Offset:    (0.00 0.00)*
G04 Mirror:    No*
G04 Mode:      Positive*
G04 Rotation:  0*
G04 FullContactRelief:  No*
G04 UndefLineWidth:     0.00*
G04 ================== end FILE IDENTIFICATION RECORD ====================*
%FSLAX25Y25*MOIN*%
%IR0*IPPOS*OFA0.00000B0.00000*MIA0B0*SFA1.00000B1.00000*%
%AMMACRO14*
4,1,40,-.00984,-.03051,
.00984,-.03051,
.010182,-.03048,
.010514,-.030391,
.010825,-.030246,
.011106,-.030049,
.011349,-.029806,
.011546,-.029525,
.011691,-.029214,
.01178,-.028882,
.01181,-.02854,
.01181,.02854,
.01178,.028882,
.011691,.029214,
.011546,.029525,
.011349,.029806,
.011106,.030049,
.010825,.030246,
.010514,.030391,
.010182,.03048,
.00984,.03051,
-.00984,.03051,
-.010182,.03048,
-.010514,.030391,
-.010825,.030246,
-.011106,.030049,
-.011349,.029806,
-.011546,.029525,
-.011691,.029214,
-.01178,.028882,
-.01181,.02854,
-.01181,-.02854,
-.01178,-.028882,
-.011691,-.029214,
-.011546,-.029525,
-.011349,-.029806,
-.011106,-.030049,
-.010825,-.030246,
-.010514,-.030391,
-.010182,-.03048,
-.00984,-.03051,
0.0*
%
%ADD14MACRO14*%
%ADD10C,.01772*%
%ADD13R,.01575X.01575*%
%ADD12R,.02362X.0315*%
%AMMACRO11*
4,1,44,.02165,.03543,
-.02165,.03543,
-.021992,.035405,
-.022324,.035316,
-.022635,.035171,
-.022916,.034974,
-.023159,.034731,
-.023356,.03445,
-.023501,.034139,
-.02359,.033807,
-.02362,.033465,
-.02362,.03346,
-.02362,-.03346,
-.023591,-.033802,
-.023503,-.034134,
-.023359,-.034446,
-.023162,-.034727,
-.02292,-.034971,
-.022639,-.035169,
-.022328,-.035314,
-.021997,-.035404,
-.021655,-.035435,
-.02165,-.03543,
.02165,-.03543,
.021992,-.035405,
.022324,-.035316,
.022635,-.035171,
.022916,-.034974,
.023159,-.034731,
.023356,-.03445,
.023501,-.034139,
.02359,-.033807,
.02362,-.033465,
.02362,-.03346,
.02362,.03346,
.023591,.033802,
.023503,.034134,
.023359,.034446,
.023162,.034727,
.02292,.034971,
.022639,.035169,
.022328,.035314,
.021997,.035404,
.021655,.035435,
.02165,.03543,
0.0*
%
%ADD11MACRO11*%
%ADD15C,.008*%
G75*
%LPD*%
G75*
G36*
G01X31493Y-35219D02*
G02X31305Y-34466I0J400D01*
G03X29724Y-28130I-1581J2971D01*
G01X27362D01*
G03X25781Y-34466I0J-3365D01*
G02X25593Y-35219I-188J-353D01*
G01X-53150D01*
G02X-56086Y-32283I0J2936D01*
G01Y32284D01*
G02X-53150Y35220I2936J0D01*
G01X-30313D01*
G02X-30125Y34467I0J-400D01*
G03X-31908Y31497I1582J-2970D01*
G03X-25180I3364J0D01*
G03X-26963Y34467I-3365J0D01*
G02X-26775Y35220I188J353D01*
G01X53149D01*
G02X56085Y32284I0J-2936D01*
G01Y-32283D01*
G02X53149Y-35219I-2936J0D01*
G01X31493D01*
G37*
%LPC*%
G75*
G36*
G01X1202Y-11561D02*
G02X1968Y-11862I-220J-1684D01*
G02X2734Y-11562I984J-1384D01*
G01Y-11463D01*
G02X3109Y-10591I1203J-1D01*
G01X3550Y-10150D01*
G02X4400Y-9798I850J-850D01*
G01X11798D01*
Y4038D01*
G02X10612Y6102I1203J2064D01*
G02X15388I2388J0D01*
G02X14202Y4038I-2389J0D01*
G01Y-10434D01*
G02X13850Y-11284I-1202J0D01*
G01X13284Y-11850D01*
G02X12434Y-12202I-850J850D01*
G01X6918D01*
G03X6537Y-12724I0J-400D01*
G02X6620Y-13246I-1616J-524D01*
G01Y-18954D01*
G02X4921Y-20652I-1699J1D01*
G01X2951D01*
G02X1968Y-20338I1J1698D01*
G02X984Y-20652I-984J1385D01*
G01X-984D01*
G02X-2682Y-18954I0J1698D01*
G01Y-13246D01*
G02X-2457Y-12401I1699J0D01*
G03X-2804Y-11802I-347J199D01*
G01X-11300D01*
G02X-12150Y-11450I0J1202D01*
G01X-12950Y-10650D01*
G02X-13302Y-9800I850J850D01*
G01Y-7970D01*
G02X-14488Y-5906I1203J2064D01*
G02X-9712I2388J0D01*
G02X-10898Y-7970I-2389J0D01*
G01Y-9302D01*
X-10802Y-9398D01*
X-801D01*
G02X48Y-9750I-1J-1202D01*
G01X812Y-10513D01*
G02X1202Y-11399I-812J-886D01*
G01Y-11561D01*
G37*
G36*
G01X-28544Y25018D02*
G02X-23211Y19686I0J-5333D01*
G01Y19684D01*
G02X-28544Y14352I-5333J1D01*
G02X-33876Y19684I0J5332D01*
G01Y19686D01*
G02X-28544Y25018I5332J0D01*
G37*
G36*
G01X28543Y-25018D02*
X28541D01*
G02X23210Y-19685I2J5333D01*
G02X28543Y-25018I5333J0D01*
G37*
G36*
G01X5590Y-3733D02*
G03X5851Y-3643I83J182D01*
G02X7185Y-2830I1334J-688D01*
G01X9547D01*
G02X11048Y-4331I0J-1501D01*
G01Y-7481D01*
G02X9547Y-8982I-1501J0D01*
G01X7185D01*
G02X5851Y-8169I0J1501D01*
G03X5590Y-8079I-178J-92D01*
G02X4600Y-8294I-990J2172D01*
G02Y-3518I0J2388D01*
G02X5590Y-3733I0J-2387D01*
G37*
G36*
G01X-11048Y4527D02*
Y7677D01*
G02X-9547Y9178I1501J0D01*
G01X-7185D01*
G02X-5812Y8284I0J-1501D01*
G03X-5230Y8110I366J162D01*
G02X-3938Y8490I1293J-2008D01*
G01X-3937D01*
G02Y3714I0J-2388D01*
G01X-3938D01*
G02X-5230Y4094I1J2388D01*
G03X-5812Y3920I-216J-336D01*
G02X-7185Y3026I-1373J607D01*
G01X-9547D01*
G02X-11048Y4527I0J1501D01*
G37*
%LPD*%
G75*
G54D10*
X-13500Y-31000D03*
X-12100Y-5906D03*
X-8500Y-14500D03*
X-3937Y6102D03*
X13500Y-31000D03*
X4600Y-5906D03*
X8500Y-14500D03*
X0Y0D03*
X13000Y6102D03*
G54D11*
X-9055Y-31356D03*
X9055D03*
G54D12*
X-8366Y-6102D03*
Y6102D03*
X8366Y-5906D03*
Y5905D03*
G54D13*
X-7953Y0D03*
X7953D03*
G54D14*
X-3937Y-16100D03*
X3937D03*
X0D03*
G54D15*
G01X-12100Y-5906D02*
Y-9800D01*
X-11300Y-10600D01*
X-801D01*
X0Y-11400D01*
Y-16100D01*
G01X-8366Y6102D02*
X-3937D01*
G01X13000D02*
Y-10434D01*
X12434Y-11000D01*
X4400D01*
X3937Y-11463D01*
Y-16100D01*
G01X8366Y-5906D02*
X4600D01*
M02*
